G04 #@! TF.FileFunction,Soldermask,Top*
%FSLAX46Y46*%
G04 Gerber Fmt 4.6, Leading zero omitted, Abs format (unit mm)*
G04 Created by KiCad (PCBNEW 4.0.0-rc1-stable) date 05/10/2017 18:19:53*
%MOMM*%
G01*
G04 APERTURE LIST*
%ADD10C,0.076200*%
%ADD11C,3.200000*%
%ADD12C,1.524000*%
%ADD13R,1.700000X1.700000*%
%ADD14O,1.700000X1.700000*%
%ADD15R,3.500000X3.500000*%
%ADD16R,0.600000X1.550000*%
%ADD17R,1.200000X0.900000*%
%ADD18R,1.500000X1.250000*%
%ADD19R,1.500000X1.300000*%
%ADD20R,1.300000X1.500000*%
%ADD21R,2.000000X1.700000*%
%ADD22R,0.900000X0.800000*%
G04 APERTURE END LIST*
D10*
D11*
X157250000Y-98750000D03*
D12*
X137337800Y-76327000D03*
X137337800Y-78333600D03*
X137337800Y-80340200D03*
X137337800Y-82346800D03*
X137337800Y-84353400D03*
X137337800Y-86360000D03*
X137337800Y-88366600D03*
X137337800Y-90373200D03*
X137337800Y-92379800D03*
X137337800Y-94386400D03*
X159334200Y-94386400D03*
X159334200Y-92379800D03*
X159334200Y-90373200D03*
X159334200Y-88366600D03*
X159334200Y-86360000D03*
X159334200Y-84353400D03*
X159334200Y-82346800D03*
X159334200Y-80340200D03*
X159334200Y-78333600D03*
X159334200Y-76327000D03*
D13*
X132500000Y-99500000D03*
D14*
X135040000Y-99500000D03*
D15*
X111000000Y-88900000D03*
X111000000Y-82100000D03*
D16*
X115697000Y-81821000D03*
X116967000Y-81821000D03*
X118237000Y-81821000D03*
X119507000Y-81821000D03*
X119507000Y-76421000D03*
X118237000Y-76421000D03*
X116967000Y-76421000D03*
X115697000Y-76421000D03*
D11*
X157250000Y-67589400D03*
X111252000Y-67589400D03*
X111252000Y-98750000D03*
D13*
X120396000Y-100076000D03*
X125476000Y-100076000D03*
D17*
X116459000Y-86361000D03*
X116459000Y-89661000D03*
D13*
X140250000Y-66750000D03*
D14*
X137710000Y-66750000D03*
X135170000Y-66750000D03*
X132630000Y-66750000D03*
X130090000Y-66750000D03*
X127550000Y-66750000D03*
D18*
X115750000Y-74100000D03*
X118250000Y-74100000D03*
X121750000Y-96000000D03*
X124250000Y-96000000D03*
D19*
X136150000Y-73000000D03*
X138850000Y-73000000D03*
X122350000Y-86300000D03*
X119650000Y-86300000D03*
D20*
X124790000Y-79340000D03*
X124790000Y-82040000D03*
D19*
X123150000Y-77000000D03*
X125850000Y-77000000D03*
X123150000Y-74500000D03*
X125850000Y-74500000D03*
X123150000Y-72000000D03*
X125850000Y-72000000D03*
X138891000Y-70739000D03*
X136191000Y-70739000D03*
D20*
X127240000Y-79340000D03*
X127240000Y-82040000D03*
D19*
X122350000Y-84200000D03*
X119650000Y-84200000D03*
D21*
X114459000Y-93472000D03*
X118459000Y-93472000D03*
X121500000Y-93500000D03*
X125500000Y-93500000D03*
D19*
X121459000Y-90297000D03*
X124159000Y-90297000D03*
D22*
X139192000Y-100618000D03*
X139192000Y-98518000D03*
X144526000Y-100618000D03*
X144526000Y-98518000D03*
D20*
X141478000Y-97583000D03*
X141478000Y-100283000D03*
X147447000Y-97710000D03*
X147447000Y-100410000D03*
D13*
X130302000Y-70866000D03*
D14*
X130302000Y-73406000D03*
X132842000Y-73406000D03*
X130302000Y-75946000D03*
X132842000Y-75946000D03*
X130302000Y-78486000D03*
X132842000Y-78486000D03*
X132842000Y-81026000D03*
X132842000Y-83566000D03*
X130302000Y-86106000D03*
X132842000Y-86106000D03*
X130302000Y-88646000D03*
X132842000Y-88646000D03*
X130302000Y-91186000D03*
X132842000Y-91186000D03*
X130302000Y-93726000D03*
M02*
