G04 #@! TF.FileFunction,Soldermask,Top*
%FSLAX46Y46*%
G04 Gerber Fmt 4.6, Leading zero omitted, Abs format (unit mm)*
G04 Created by KiCad (PCBNEW 4.0.0-rc1-stable) date 06/07/2017 17:27:51*
%MOMM*%
G01*
G04 APERTURE LIST*
%ADD10C,0.076200*%
%ADD11C,1.524000*%
%ADD12R,1.000000X1.250000*%
%ADD13R,1.000000X1.600000*%
%ADD14R,1.700000X1.700000*%
%ADD15O,1.700000X1.700000*%
%ADD16R,0.700000X1.300000*%
%ADD17R,0.900000X1.700000*%
%ADD18R,3.500000X3.500000*%
%ADD19R,0.600000X1.550000*%
%ADD20C,3.200000*%
%ADD21R,1.200000X0.900000*%
G04 APERTURE END LIST*
D10*
D11*
X137501800Y-94500000D03*
X137501800Y-92493400D03*
X137501800Y-90486800D03*
X137501800Y-88480200D03*
X137501800Y-86473600D03*
X137501800Y-84467000D03*
X137501800Y-82460400D03*
X137501800Y-80453800D03*
X137501800Y-78447200D03*
X137501800Y-76440600D03*
X159498200Y-76440600D03*
X159498200Y-78447200D03*
X159498200Y-80453800D03*
X159498200Y-82460400D03*
X159498200Y-84467000D03*
X159498200Y-86473600D03*
X159498200Y-88480200D03*
X159498200Y-90486800D03*
X159498200Y-92493400D03*
X159498200Y-94500000D03*
D12*
X122000000Y-96000000D03*
X124000000Y-96000000D03*
D13*
X149630000Y-69850000D03*
X152630000Y-69850000D03*
X147677000Y-69850000D03*
X144677000Y-69850000D03*
D14*
X133000000Y-71000000D03*
D15*
X133000000Y-73540000D03*
X130460000Y-73540000D03*
X133000000Y-76080000D03*
X130460000Y-76080000D03*
X133000000Y-78620000D03*
X130460000Y-78620000D03*
X130460000Y-81160000D03*
X130460000Y-83700000D03*
X133000000Y-86240000D03*
X130460000Y-86240000D03*
X133000000Y-88780000D03*
X130460000Y-88780000D03*
X133000000Y-91320000D03*
X130460000Y-91320000D03*
X133000000Y-93860000D03*
D16*
X136550000Y-73000000D03*
X138450000Y-73000000D03*
X121950000Y-86300000D03*
X120050000Y-86300000D03*
X123550000Y-77000000D03*
X125450000Y-77000000D03*
X123550000Y-74500000D03*
X125450000Y-74500000D03*
X123550000Y-72000000D03*
X125450000Y-72000000D03*
X138450000Y-71000000D03*
X136550000Y-71000000D03*
D17*
X116550000Y-93500000D03*
X119450000Y-93500000D03*
X122050000Y-93500000D03*
X124950000Y-93500000D03*
D14*
X132500000Y-99500000D03*
D15*
X135040000Y-99500000D03*
D18*
X111000000Y-88900000D03*
X111000000Y-82100000D03*
D19*
X117595000Y-81700000D03*
X118865000Y-81700000D03*
X120135000Y-81700000D03*
X121405000Y-81700000D03*
X121405000Y-76300000D03*
X120135000Y-76300000D03*
X118865000Y-76300000D03*
X117595000Y-76300000D03*
D20*
X157250000Y-70500000D03*
X112000000Y-71750000D03*
X112000000Y-98750000D03*
D14*
X121500000Y-100000000D03*
X125000000Y-100000000D03*
D21*
X117500000Y-86350000D03*
X117500000Y-89650000D03*
D11*
X109000000Y-93500000D03*
X111540000Y-93500000D03*
X154720000Y-93500000D03*
X157260000Y-93500000D03*
X157260000Y-65560000D03*
X154720000Y-65560000D03*
X152180000Y-65560000D03*
X149640000Y-65560000D03*
X147100000Y-65560000D03*
X144560000Y-65560000D03*
X142020000Y-65560000D03*
X139480000Y-65560000D03*
X136940000Y-65560000D03*
X134400000Y-65560000D03*
X131860000Y-65560000D03*
X129320000Y-65560000D03*
X126780000Y-65560000D03*
X124240000Y-65560000D03*
X121700000Y-65560000D03*
X119160000Y-65560000D03*
X116620000Y-65560000D03*
X114080000Y-65560000D03*
X111540000Y-65560000D03*
X109000000Y-65560000D03*
D16*
X121950000Y-84200000D03*
X120050000Y-84200000D03*
X125750000Y-90100000D03*
X127650000Y-90100000D03*
D12*
X116000000Y-74100000D03*
X118000000Y-74100000D03*
M02*
