G04 #@! TF.FileFunction,Paste,Top*
%FSLAX46Y46*%
G04 Gerber Fmt 4.6, Leading zero omitted, Abs format (unit mm)*
G04 Created by KiCad (PCBNEW 4.0.7-e2-6376~58~ubuntu14.04.1) date Sun Jul  1 13:34:02 2018*
%MOMM*%
%LPD*%
G01*
G04 APERTURE LIST*
%ADD10C,0.076200*%
%ADD11R,3.500000X3.500000*%
%ADD12R,0.600000X1.550000*%
%ADD13R,1.200000X0.900000*%
%ADD14R,1.500000X1.250000*%
%ADD15R,1.500000X1.300000*%
%ADD16R,1.300000X1.500000*%
%ADD17R,2.000000X1.700000*%
%ADD18R,0.900000X0.800000*%
G04 APERTURE END LIST*
D10*
D11*
X111000000Y-88900000D03*
X111000000Y-82100000D03*
D12*
X115697000Y-81821000D03*
X116967000Y-81821000D03*
X118237000Y-81821000D03*
X119507000Y-81821000D03*
X119507000Y-76421000D03*
X118237000Y-76421000D03*
X116967000Y-76421000D03*
X115697000Y-76421000D03*
D13*
X116459000Y-86361000D03*
X116459000Y-89661000D03*
D14*
X115750000Y-74100000D03*
X118250000Y-74100000D03*
X121750000Y-96000000D03*
X124250000Y-96000000D03*
D15*
X136150000Y-73000000D03*
X138850000Y-73000000D03*
X122350000Y-86300000D03*
X119650000Y-86300000D03*
D16*
X124790000Y-79340000D03*
X124790000Y-82040000D03*
D15*
X123150000Y-77000000D03*
X125850000Y-77000000D03*
X123150000Y-74500000D03*
X125850000Y-74500000D03*
X123150000Y-72000000D03*
X125850000Y-72000000D03*
X138891000Y-70739000D03*
X136191000Y-70739000D03*
D16*
X127240000Y-79340000D03*
X127240000Y-82040000D03*
D15*
X122350000Y-84200000D03*
X119650000Y-84200000D03*
D17*
X114459000Y-93472000D03*
X118459000Y-93472000D03*
X121500000Y-93500000D03*
X125500000Y-93500000D03*
D15*
X121459000Y-90297000D03*
X124159000Y-90297000D03*
D18*
X139192000Y-100618000D03*
X139192000Y-98518000D03*
X144526000Y-100618000D03*
X144526000Y-98518000D03*
D16*
X141478000Y-97583000D03*
X141478000Y-100283000D03*
X147447000Y-97710000D03*
X147447000Y-100410000D03*
M02*
