M48
;DRILL file {KiCad 4.0.0-rc1-stable} date 13/06/2017 23:09:16
;FORMAT={2:4/ absolute / inch / suppress leading zeros}
FMAT,2
INCH,TZ
T1C0.013
T2C0.030
T3C0.039
T4C0.126
%
G90
G05
M72
T1
X45669Y-29921
X46457Y-31496
X47047Y-31102
X56450Y-27450
T2
X42913Y-25811
X42913Y-36811
X43913Y-25811
X43913Y-36811
X44913Y-25811
X45913Y-25811
X46913Y-25811
X47913Y-25811
X48913Y-25811
X49913Y-25811
X50913Y-25811
X51913Y-25811
X52913Y-25811
X53913Y-25811
X54135Y-30095
X54135Y-30885
X54135Y-31675
X54135Y-32465
X54135Y-33255
X54135Y-34045
X54135Y-34835
X54135Y-35625
X54135Y-36415
X54135Y-37205
X54913Y-25811
X55913Y-25811
X56913Y-25811
X57913Y-25811
X58913Y-25811
X59913Y-25811
X60913Y-25811
X60913Y-36811
X61913Y-25811
X61913Y-36811
X62795Y-30095
X62795Y-30885
X62795Y-31675
X62795Y-32465
X62795Y-33255
X62795Y-34045
X62795Y-34835
X62795Y-35625
X62795Y-36415
X62795Y-37205
T3
X47835Y-39370
X49213Y-39370
X51362Y-28953
X51362Y-29953
X51362Y-30953
X51362Y-31953
X51362Y-32953
X51362Y-33953
X51362Y-34953
X51362Y-35953
X52165Y-39173
X52362Y-27953
X52362Y-28953
X52362Y-29953
X52362Y-30953
X52362Y-33953
X52362Y-34953
X52362Y-35953
X52362Y-36953
X53165Y-39173
T4
X44094Y-28248
X44094Y-38878
X61909Y-27756
T0
M30
