G04 #@! TF.FileFunction,Legend,Top*
%FSLAX46Y46*%
G04 Gerber Fmt 4.6, Leading zero omitted, Abs format (unit mm)*
G04 Created by KiCad (PCBNEW 4.0.0-rc1-stable) date 13/06/2017 23:09:15*
%MOMM*%
G01*
G04 APERTURE LIST*
%ADD10C,0.076200*%
%ADD11C,0.127000*%
%ADD12C,0.200000*%
%ADD13C,0.120000*%
%ADD14C,0.150000*%
%ADD15C,0.100000*%
G04 APERTURE END LIST*
D10*
D11*
X141725714Y-81410219D02*
X141241905Y-81410219D01*
X141241905Y-80394219D01*
X142451428Y-81361838D02*
X142354666Y-81410219D01*
X142161143Y-81410219D01*
X142064381Y-81361838D01*
X142016000Y-81265076D01*
X142016000Y-80878029D01*
X142064381Y-80781267D01*
X142161143Y-80732886D01*
X142354666Y-80732886D01*
X142451428Y-80781267D01*
X142499809Y-80878029D01*
X142499809Y-80974790D01*
X142016000Y-81071552D01*
X143370666Y-81410219D02*
X143370666Y-80878029D01*
X143322285Y-80781267D01*
X143225523Y-80732886D01*
X143032000Y-80732886D01*
X142935238Y-80781267D01*
X143370666Y-81361838D02*
X143273904Y-81410219D01*
X143032000Y-81410219D01*
X142935238Y-81361838D01*
X142886857Y-81265076D01*
X142886857Y-81168314D01*
X142935238Y-81071552D01*
X143032000Y-81023171D01*
X143273904Y-81023171D01*
X143370666Y-80974790D01*
X143757714Y-80732886D02*
X143951238Y-81410219D01*
X144144761Y-80926410D01*
X144338285Y-81410219D01*
X144531809Y-80732886D01*
X145064000Y-81410219D02*
X144967238Y-81361838D01*
X144918857Y-81313457D01*
X144870476Y-81216695D01*
X144870476Y-80926410D01*
X144918857Y-80829648D01*
X144967238Y-80781267D01*
X145064000Y-80732886D01*
X145209142Y-80732886D01*
X145305904Y-80781267D01*
X145354285Y-80829648D01*
X145402666Y-80926410D01*
X145402666Y-81216695D01*
X145354285Y-81313457D01*
X145305904Y-81361838D01*
X145209142Y-81410219D01*
X145064000Y-81410219D01*
X145983238Y-81410219D02*
X145886476Y-81361838D01*
X145838095Y-81313457D01*
X145789714Y-81216695D01*
X145789714Y-80926410D01*
X145838095Y-80829648D01*
X145886476Y-80781267D01*
X145983238Y-80732886D01*
X146128380Y-80732886D01*
X146225142Y-80781267D01*
X146273523Y-80829648D01*
X146321904Y-80926410D01*
X146321904Y-81216695D01*
X146273523Y-81313457D01*
X146225142Y-81361838D01*
X146128380Y-81410219D01*
X145983238Y-81410219D01*
X147192761Y-81410219D02*
X147192761Y-80394219D01*
X147192761Y-81361838D02*
X147095999Y-81410219D01*
X146902476Y-81410219D01*
X146805714Y-81361838D01*
X146757333Y-81313457D01*
X146708952Y-81216695D01*
X146708952Y-80926410D01*
X146757333Y-80829648D01*
X146805714Y-80781267D01*
X146902476Y-80732886D01*
X147095999Y-80732886D01*
X147192761Y-80781267D01*
X148789332Y-80878029D02*
X148450666Y-80878029D01*
X148450666Y-81410219D02*
X148450666Y-80394219D01*
X148934475Y-80394219D01*
X149321523Y-81410219D02*
X149321523Y-80732886D01*
X149321523Y-80394219D02*
X149273142Y-80442600D01*
X149321523Y-80490981D01*
X149369904Y-80442600D01*
X149321523Y-80394219D01*
X149321523Y-80490981D01*
X150192380Y-81361838D02*
X150095618Y-81410219D01*
X149902095Y-81410219D01*
X149805333Y-81361838D01*
X149756952Y-81265076D01*
X149756952Y-80878029D01*
X149805333Y-80781267D01*
X149902095Y-80732886D01*
X150095618Y-80732886D01*
X150192380Y-80781267D01*
X150240761Y-80878029D01*
X150240761Y-80974790D01*
X149756952Y-81071552D01*
X150821333Y-81410219D02*
X150724571Y-81361838D01*
X150676190Y-81265076D01*
X150676190Y-80394219D01*
X151643808Y-81410219D02*
X151643808Y-80394219D01*
X151643808Y-81361838D02*
X151547046Y-81410219D01*
X151353523Y-81410219D01*
X151256761Y-81361838D01*
X151208380Y-81313457D01*
X151159999Y-81216695D01*
X151159999Y-80926410D01*
X151208380Y-80829648D01*
X151256761Y-80781267D01*
X151353523Y-80732886D01*
X151547046Y-80732886D01*
X151643808Y-80781267D01*
X152901713Y-81410219D02*
X152901713Y-80394219D01*
X153143618Y-80394219D01*
X153288760Y-80442600D01*
X153385522Y-80539362D01*
X153433903Y-80636124D01*
X153482284Y-80829648D01*
X153482284Y-80974790D01*
X153433903Y-81168314D01*
X153385522Y-81265076D01*
X153288760Y-81361838D01*
X153143618Y-81410219D01*
X152901713Y-81410219D01*
X154304760Y-81361838D02*
X154207998Y-81410219D01*
X154014475Y-81410219D01*
X153917713Y-81361838D01*
X153869332Y-81265076D01*
X153869332Y-80878029D01*
X153917713Y-80781267D01*
X154014475Y-80732886D01*
X154207998Y-80732886D01*
X154304760Y-80781267D01*
X154353141Y-80878029D01*
X154353141Y-80974790D01*
X153869332Y-81071552D01*
X154691808Y-80732886D02*
X154933713Y-81410219D01*
X155175617Y-80732886D01*
X155562665Y-81410219D02*
X155562665Y-80732886D01*
X155562665Y-80394219D02*
X155514284Y-80442600D01*
X155562665Y-80490981D01*
X155611046Y-80442600D01*
X155562665Y-80394219D01*
X155562665Y-80490981D01*
X156481903Y-81361838D02*
X156385141Y-81410219D01*
X156191618Y-81410219D01*
X156094856Y-81361838D01*
X156046475Y-81313457D01*
X155998094Y-81216695D01*
X155998094Y-80926410D01*
X156046475Y-80829648D01*
X156094856Y-80781267D01*
X156191618Y-80732886D01*
X156385141Y-80732886D01*
X156481903Y-80781267D01*
X157304379Y-81361838D02*
X157207617Y-81410219D01*
X157014094Y-81410219D01*
X156917332Y-81361838D01*
X156868951Y-81265076D01*
X156868951Y-80878029D01*
X156917332Y-80781267D01*
X157014094Y-80732886D01*
X157207617Y-80732886D01*
X157304379Y-80781267D01*
X157352760Y-80878029D01*
X157352760Y-80974790D01*
X156868951Y-81071552D01*
X141096762Y-81943619D02*
X141435429Y-82959619D01*
X141774095Y-81943619D01*
X142257905Y-82959619D02*
X142161143Y-82911238D01*
X142112762Y-82862857D01*
X142064381Y-82766095D01*
X142064381Y-82475810D01*
X142112762Y-82379048D01*
X142161143Y-82330667D01*
X142257905Y-82282286D01*
X142403047Y-82282286D01*
X142499809Y-82330667D01*
X142548190Y-82379048D01*
X142596571Y-82475810D01*
X142596571Y-82766095D01*
X142548190Y-82862857D01*
X142499809Y-82911238D01*
X142403047Y-82959619D01*
X142257905Y-82959619D01*
X143177143Y-82959619D02*
X143080381Y-82911238D01*
X143032000Y-82814476D01*
X143032000Y-81943619D01*
X143419047Y-82282286D02*
X143806095Y-82282286D01*
X143564190Y-81943619D02*
X143564190Y-82814476D01*
X143612571Y-82911238D01*
X143709333Y-82959619D01*
X143806095Y-82959619D01*
X144580189Y-82959619D02*
X144580189Y-82427429D01*
X144531808Y-82330667D01*
X144435046Y-82282286D01*
X144241523Y-82282286D01*
X144144761Y-82330667D01*
X144580189Y-82911238D02*
X144483427Y-82959619D01*
X144241523Y-82959619D01*
X144144761Y-82911238D01*
X144096380Y-82814476D01*
X144096380Y-82717714D01*
X144144761Y-82620952D01*
X144241523Y-82572571D01*
X144483427Y-82572571D01*
X144580189Y-82524190D01*
X145499427Y-82282286D02*
X145499427Y-83104762D01*
X145451046Y-83201524D01*
X145402665Y-83249905D01*
X145305904Y-83298286D01*
X145160761Y-83298286D01*
X145063999Y-83249905D01*
X145499427Y-82911238D02*
X145402665Y-82959619D01*
X145209142Y-82959619D01*
X145112380Y-82911238D01*
X145063999Y-82862857D01*
X145015618Y-82766095D01*
X145015618Y-82475810D01*
X145063999Y-82379048D01*
X145112380Y-82330667D01*
X145209142Y-82282286D01*
X145402665Y-82282286D01*
X145499427Y-82330667D01*
X146370284Y-82911238D02*
X146273522Y-82959619D01*
X146079999Y-82959619D01*
X145983237Y-82911238D01*
X145934856Y-82814476D01*
X145934856Y-82427429D01*
X145983237Y-82330667D01*
X146079999Y-82282286D01*
X146273522Y-82282286D01*
X146370284Y-82330667D01*
X146418665Y-82427429D01*
X146418665Y-82524190D01*
X145934856Y-82620952D01*
X147579808Y-82911238D02*
X147724951Y-82959619D01*
X147966855Y-82959619D01*
X148063617Y-82911238D01*
X148111998Y-82862857D01*
X148160379Y-82766095D01*
X148160379Y-82669333D01*
X148111998Y-82572571D01*
X148063617Y-82524190D01*
X147966855Y-82475810D01*
X147773332Y-82427429D01*
X147676570Y-82379048D01*
X147628189Y-82330667D01*
X147579808Y-82233905D01*
X147579808Y-82137143D01*
X147628189Y-82040381D01*
X147676570Y-81992000D01*
X147773332Y-81943619D01*
X148015236Y-81943619D01*
X148160379Y-81992000D01*
X148982855Y-82911238D02*
X148886093Y-82959619D01*
X148692570Y-82959619D01*
X148595808Y-82911238D01*
X148547427Y-82814476D01*
X148547427Y-82427429D01*
X148595808Y-82330667D01*
X148692570Y-82282286D01*
X148886093Y-82282286D01*
X148982855Y-82330667D01*
X149031236Y-82427429D01*
X149031236Y-82524190D01*
X148547427Y-82620952D01*
X149466665Y-82282286D02*
X149466665Y-82959619D01*
X149466665Y-82379048D02*
X149515046Y-82330667D01*
X149611808Y-82282286D01*
X149756950Y-82282286D01*
X149853712Y-82330667D01*
X149902093Y-82427429D01*
X149902093Y-82959619D01*
X150337522Y-82911238D02*
X150434284Y-82959619D01*
X150627808Y-82959619D01*
X150724569Y-82911238D01*
X150772950Y-82814476D01*
X150772950Y-82766095D01*
X150724569Y-82669333D01*
X150627808Y-82620952D01*
X150482665Y-82620952D01*
X150385903Y-82572571D01*
X150337522Y-82475810D01*
X150337522Y-82427429D01*
X150385903Y-82330667D01*
X150482665Y-82282286D01*
X150627808Y-82282286D01*
X150724569Y-82330667D01*
X151353522Y-82959619D02*
X151256760Y-82911238D01*
X151208379Y-82862857D01*
X151159998Y-82766095D01*
X151159998Y-82475810D01*
X151208379Y-82379048D01*
X151256760Y-82330667D01*
X151353522Y-82282286D01*
X151498664Y-82282286D01*
X151595426Y-82330667D01*
X151643807Y-82379048D01*
X151692188Y-82475810D01*
X151692188Y-82766095D01*
X151643807Y-82862857D01*
X151595426Y-82911238D01*
X151498664Y-82959619D01*
X151353522Y-82959619D01*
X152127617Y-82959619D02*
X152127617Y-82282286D01*
X152127617Y-82475810D02*
X152175998Y-82379048D01*
X152224379Y-82330667D01*
X152321141Y-82282286D01*
X152417902Y-82282286D01*
X141193524Y-83589781D02*
X141241905Y-83541400D01*
X141338667Y-83493019D01*
X141580571Y-83493019D01*
X141677333Y-83541400D01*
X141725714Y-83589781D01*
X141774095Y-83686543D01*
X141774095Y-83783305D01*
X141725714Y-83928448D01*
X141145143Y-84509019D01*
X141774095Y-84509019D01*
X142693333Y-84509019D02*
X142209524Y-84509019D01*
X142209524Y-83493019D01*
X142790095Y-84605781D02*
X143564190Y-84605781D01*
X144338285Y-84509019D02*
X143757714Y-84509019D01*
X144048000Y-84509019D02*
X144048000Y-83493019D01*
X143951238Y-83638162D01*
X143854476Y-83734924D01*
X143757714Y-83783305D01*
D12*
X116500000Y-81952381D02*
X116500000Y-82190476D01*
X116261905Y-82095238D02*
X116500000Y-82190476D01*
X116738096Y-82095238D01*
X116357143Y-82380952D02*
X116500000Y-82190476D01*
X116642858Y-82380952D01*
D11*
X126784429Y-98985814D02*
X127219858Y-98985814D01*
X127002144Y-99747814D02*
X127002144Y-98985814D01*
X127473858Y-99348671D02*
X127727858Y-99348671D01*
X127836715Y-99747814D02*
X127473858Y-99747814D01*
X127473858Y-98985814D01*
X127836715Y-98985814D01*
X128127001Y-99711529D02*
X128235858Y-99747814D01*
X128417287Y-99747814D01*
X128489858Y-99711529D01*
X128526144Y-99675243D01*
X128562429Y-99602671D01*
X128562429Y-99530100D01*
X128526144Y-99457529D01*
X128489858Y-99421243D01*
X128417287Y-99384957D01*
X128272144Y-99348671D01*
X128199572Y-99312386D01*
X128163287Y-99276100D01*
X128127001Y-99203529D01*
X128127001Y-99130957D01*
X128163287Y-99058386D01*
X128199572Y-99022100D01*
X128272144Y-98985814D01*
X128453572Y-98985814D01*
X128562429Y-99022100D01*
X128780143Y-98985814D02*
X129215572Y-98985814D01*
X128997858Y-99747814D02*
X128997858Y-98985814D01*
X127056572Y-100941614D02*
X127056572Y-100179614D01*
X127492000Y-100941614D01*
X127492000Y-100179614D01*
X127854858Y-100542471D02*
X128108858Y-100542471D01*
X128217715Y-100941614D02*
X127854858Y-100941614D01*
X127854858Y-100179614D01*
X128217715Y-100179614D01*
X128943429Y-100215900D02*
X128870858Y-100179614D01*
X128762001Y-100179614D01*
X128653144Y-100215900D01*
X128580572Y-100288471D01*
X128544287Y-100361043D01*
X128508001Y-100506186D01*
X128508001Y-100615043D01*
X128544287Y-100760186D01*
X128580572Y-100832757D01*
X128653144Y-100905329D01*
X128762001Y-100941614D01*
X128834572Y-100941614D01*
X128943429Y-100905329D01*
X128979715Y-100869043D01*
X128979715Y-100615043D01*
X128834572Y-100615043D01*
X117284429Y-98985814D02*
X117719858Y-98985814D01*
X117502144Y-99747814D02*
X117502144Y-98985814D01*
X117973858Y-99348671D02*
X118227858Y-99348671D01*
X118336715Y-99747814D02*
X117973858Y-99747814D01*
X117973858Y-98985814D01*
X118336715Y-98985814D01*
X118627001Y-99711529D02*
X118735858Y-99747814D01*
X118917287Y-99747814D01*
X118989858Y-99711529D01*
X119026144Y-99675243D01*
X119062429Y-99602671D01*
X119062429Y-99530100D01*
X119026144Y-99457529D01*
X118989858Y-99421243D01*
X118917287Y-99384957D01*
X118772144Y-99348671D01*
X118699572Y-99312386D01*
X118663287Y-99276100D01*
X118627001Y-99203529D01*
X118627001Y-99130957D01*
X118663287Y-99058386D01*
X118699572Y-99022100D01*
X118772144Y-98985814D01*
X118953572Y-98985814D01*
X119062429Y-99022100D01*
X119280143Y-98985814D02*
X119715572Y-98985814D01*
X119497858Y-99747814D02*
X119497858Y-98985814D01*
X117538429Y-100941614D02*
X117538429Y-100179614D01*
X117828714Y-100179614D01*
X117901286Y-100215900D01*
X117937571Y-100252186D01*
X117973857Y-100324757D01*
X117973857Y-100433614D01*
X117937571Y-100506186D01*
X117901286Y-100542471D01*
X117828714Y-100578757D01*
X117538429Y-100578757D01*
X118445571Y-100179614D02*
X118590714Y-100179614D01*
X118663286Y-100215900D01*
X118735857Y-100288471D01*
X118772143Y-100433614D01*
X118772143Y-100687614D01*
X118735857Y-100832757D01*
X118663286Y-100905329D01*
X118590714Y-100941614D01*
X118445571Y-100941614D01*
X118373000Y-100905329D01*
X118300429Y-100832757D01*
X118264143Y-100687614D01*
X118264143Y-100433614D01*
X118300429Y-100288471D01*
X118373000Y-100215900D01*
X118445571Y-100179614D01*
X119062429Y-100905329D02*
X119171286Y-100941614D01*
X119352715Y-100941614D01*
X119425286Y-100905329D01*
X119461572Y-100869043D01*
X119497857Y-100796471D01*
X119497857Y-100723900D01*
X119461572Y-100651329D01*
X119425286Y-100615043D01*
X119352715Y-100578757D01*
X119207572Y-100542471D01*
X119135000Y-100506186D01*
X119098715Y-100469900D01*
X119062429Y-100397329D01*
X119062429Y-100324757D01*
X119098715Y-100252186D01*
X119135000Y-100215900D01*
X119207572Y-100179614D01*
X119389000Y-100179614D01*
X119497857Y-100215900D01*
X131008382Y-97459619D02*
X131008382Y-96443619D01*
X131250287Y-96443619D01*
X131395429Y-96492000D01*
X131492191Y-96588762D01*
X131540572Y-96685524D01*
X131588953Y-96879048D01*
X131588953Y-97024190D01*
X131540572Y-97217714D01*
X131492191Y-97314476D01*
X131395429Y-97411238D01*
X131250287Y-97459619D01*
X131008382Y-97459619D01*
X132024382Y-97459619D02*
X132024382Y-96782286D01*
X132024382Y-96443619D02*
X131976001Y-96492000D01*
X132024382Y-96540381D01*
X132072763Y-96492000D01*
X132024382Y-96443619D01*
X132024382Y-96540381D01*
X132459811Y-97411238D02*
X132556573Y-97459619D01*
X132750097Y-97459619D01*
X132846858Y-97411238D01*
X132895239Y-97314476D01*
X132895239Y-97266095D01*
X132846858Y-97169333D01*
X132750097Y-97120952D01*
X132604954Y-97120952D01*
X132508192Y-97072571D01*
X132459811Y-96975810D01*
X132459811Y-96927429D01*
X132508192Y-96830667D01*
X132604954Y-96782286D01*
X132750097Y-96782286D01*
X132846858Y-96830667D01*
X133330668Y-96782286D02*
X133330668Y-97798286D01*
X133330668Y-96830667D02*
X133427430Y-96782286D01*
X133620953Y-96782286D01*
X133717715Y-96830667D01*
X133766096Y-96879048D01*
X133814477Y-96975810D01*
X133814477Y-97266095D01*
X133766096Y-97362857D01*
X133717715Y-97411238D01*
X133620953Y-97459619D01*
X133427430Y-97459619D01*
X133330668Y-97411238D01*
X134395049Y-97459619D02*
X134298287Y-97411238D01*
X134249906Y-97314476D01*
X134249906Y-96443619D01*
X135217524Y-97459619D02*
X135217524Y-96927429D01*
X135169143Y-96830667D01*
X135072381Y-96782286D01*
X134878858Y-96782286D01*
X134782096Y-96830667D01*
X135217524Y-97411238D02*
X135120762Y-97459619D01*
X134878858Y-97459619D01*
X134782096Y-97411238D01*
X134733715Y-97314476D01*
X134733715Y-97217714D01*
X134782096Y-97120952D01*
X134878858Y-97072571D01*
X135120762Y-97072571D01*
X135217524Y-97024190D01*
X135604572Y-96782286D02*
X135846477Y-97459619D01*
X136088381Y-96782286D02*
X135846477Y-97459619D01*
X135749715Y-97701524D01*
X135701334Y-97749905D01*
X135604572Y-97798286D01*
D13*
X123500000Y-95150000D02*
X122500000Y-95150000D01*
X122500000Y-96850000D02*
X123500000Y-96850000D01*
X152130000Y-68830000D02*
X150130000Y-68830000D01*
X150130000Y-70870000D02*
X152130000Y-70870000D01*
X145177000Y-70870000D02*
X147177000Y-70870000D01*
X147177000Y-68830000D02*
X145177000Y-68830000D01*
X138100000Y-73880000D02*
X136900000Y-73880000D01*
X136900000Y-72120000D02*
X138100000Y-72120000D01*
X120400000Y-83620000D02*
X121600000Y-83620000D01*
X121600000Y-85380000D02*
X120400000Y-85380000D01*
X125100000Y-77880000D02*
X123900000Y-77880000D01*
X123900000Y-76120000D02*
X125100000Y-76120000D01*
X125100000Y-75380000D02*
X123900000Y-75380000D01*
X123900000Y-73620000D02*
X125100000Y-73620000D01*
X125100000Y-72880000D02*
X123900000Y-72880000D01*
X123900000Y-71120000D02*
X125100000Y-71120000D01*
X136900000Y-70120000D02*
X138100000Y-70120000D01*
X138100000Y-71880000D02*
X136900000Y-71880000D01*
X119000000Y-94570000D02*
X117000000Y-94570000D01*
X117000000Y-92430000D02*
X119000000Y-92430000D01*
X124500000Y-94570000D02*
X122500000Y-94570000D01*
X122500000Y-92430000D02*
X124500000Y-92430000D01*
X133770000Y-100830000D02*
X136370000Y-100830000D01*
X136370000Y-100830000D02*
X136370000Y-98170000D01*
X136370000Y-98170000D02*
X133770000Y-98170000D01*
X133770000Y-98170000D02*
X133770000Y-100830000D01*
X132500000Y-100830000D02*
X131170000Y-100830000D01*
X131170000Y-100830000D02*
X131170000Y-99500000D01*
X112880000Y-87230000D02*
X112880000Y-83770000D01*
X109120000Y-87230000D02*
X109120000Y-83770000D01*
D14*
X116925000Y-81075000D02*
X116975000Y-81075000D01*
X116925000Y-76925000D02*
X117070000Y-76925000D01*
X122075000Y-76925000D02*
X121930000Y-76925000D01*
X122075000Y-81075000D02*
X121930000Y-81075000D01*
X116925000Y-81075000D02*
X116925000Y-76925000D01*
X122075000Y-81075000D02*
X122075000Y-76925000D01*
X116975000Y-81075000D02*
X116975000Y-82475000D01*
D13*
X120170000Y-101270000D02*
X120170000Y-101330000D01*
X120170000Y-101330000D02*
X122830000Y-101330000D01*
X122830000Y-101330000D02*
X122830000Y-101270000D01*
X122830000Y-101270000D02*
X120170000Y-101270000D01*
X120170000Y-100000000D02*
X120170000Y-98670000D01*
X120170000Y-98670000D02*
X121500000Y-98670000D01*
X123670000Y-101270000D02*
X123670000Y-101330000D01*
X123670000Y-101330000D02*
X126330000Y-101330000D01*
X126330000Y-101330000D02*
X126330000Y-101270000D01*
X126330000Y-101270000D02*
X123670000Y-101270000D01*
X123670000Y-100000000D02*
X123670000Y-98670000D01*
X123670000Y-98670000D02*
X125000000Y-98670000D01*
X118500000Y-85750000D02*
X116500000Y-85750000D01*
D15*
X117500000Y-88250000D02*
X117500000Y-88750000D01*
X117100000Y-88250000D02*
X117500000Y-87650000D01*
X117900000Y-88250000D02*
X117100000Y-88250000D01*
X117500000Y-87650000D02*
X117900000Y-88250000D01*
X117500000Y-87650000D02*
X116950000Y-87650000D01*
X117500000Y-87650000D02*
X118050000Y-87650000D01*
X117500000Y-87250000D02*
X117500000Y-87650000D01*
D13*
X116500000Y-85750000D02*
X116500000Y-89650000D01*
X118500000Y-85750000D02*
X118500000Y-89650000D01*
D15*
G36*
X151304378Y-76756418D02*
X151302238Y-77350076D01*
X151302000Y-77534945D01*
X151300032Y-78175217D01*
X151293365Y-78665453D01*
X151280856Y-79024914D01*
X151261361Y-79272861D01*
X151233735Y-79428554D01*
X151196835Y-79511252D01*
X151183831Y-79524670D01*
X151016596Y-79596142D01*
X150878667Y-79626474D01*
X150878667Y-79172748D01*
X150878667Y-77579371D01*
X150874611Y-77058909D01*
X150863250Y-76609332D01*
X150845795Y-76255665D01*
X150823453Y-76022937D01*
X150799275Y-75936926D01*
X150687827Y-75906092D01*
X150445552Y-75859619D01*
X150109493Y-75804095D01*
X149762108Y-75752485D01*
X149133640Y-75690536D01*
X148406051Y-75662245D01*
X147636137Y-75666497D01*
X146880692Y-75702179D01*
X146196514Y-75768176D01*
X145798667Y-75830237D01*
X145248333Y-75934859D01*
X145225366Y-77556143D01*
X145202399Y-79177426D01*
X145775699Y-79268198D01*
X146111613Y-79320928D01*
X146416424Y-79368002D01*
X146603000Y-79396091D01*
X146843169Y-79413739D01*
X147214525Y-79420161D01*
X147679383Y-79416617D01*
X148200057Y-79404364D01*
X148738862Y-79384660D01*
X149258112Y-79358761D01*
X149720122Y-79327926D01*
X150087206Y-79293412D01*
X150222500Y-79275306D01*
X150878667Y-79172748D01*
X150878667Y-79626474D01*
X150707275Y-79664166D01*
X150283113Y-79726037D01*
X149771356Y-79779051D01*
X149199249Y-79820504D01*
X148594039Y-79847692D01*
X147982969Y-79857910D01*
X147830667Y-79857483D01*
X147345669Y-79852260D01*
X146906889Y-79844201D01*
X146548154Y-79834183D01*
X146303292Y-79823080D01*
X146222000Y-79815816D01*
X145715428Y-79732236D01*
X145307639Y-79649708D01*
X145022462Y-79573632D01*
X144888500Y-79513674D01*
X144851465Y-79435849D01*
X144823306Y-79260790D01*
X144803198Y-78973075D01*
X144790317Y-78557284D01*
X144783837Y-77997996D01*
X144782667Y-77534945D01*
X144783618Y-76918599D01*
X144787577Y-76450164D01*
X144796200Y-76108224D01*
X144811144Y-75871362D01*
X144834066Y-75718160D01*
X144866622Y-75627203D01*
X144910468Y-75577073D01*
X144935312Y-75561597D01*
X145201200Y-75468179D01*
X145606761Y-75388175D01*
X146122773Y-75322830D01*
X146720015Y-75273389D01*
X147369264Y-75241099D01*
X148041298Y-75227204D01*
X148706896Y-75232950D01*
X149336834Y-75259582D01*
X149901891Y-75308346D01*
X150140193Y-75339783D01*
X150505658Y-75391423D01*
X150785762Y-75436352D01*
X150991766Y-75495847D01*
X151134929Y-75591182D01*
X151226512Y-75743632D01*
X151277775Y-75974471D01*
X151299977Y-76304975D01*
X151304378Y-76756418D01*
X151304378Y-76756418D01*
X151304378Y-76756418D01*
G37*
X151304378Y-76756418D02*
X151302238Y-77350076D01*
X151302000Y-77534945D01*
X151300032Y-78175217D01*
X151293365Y-78665453D01*
X151280856Y-79024914D01*
X151261361Y-79272861D01*
X151233735Y-79428554D01*
X151196835Y-79511252D01*
X151183831Y-79524670D01*
X151016596Y-79596142D01*
X150878667Y-79626474D01*
X150878667Y-79172748D01*
X150878667Y-77579371D01*
X150874611Y-77058909D01*
X150863250Y-76609332D01*
X150845795Y-76255665D01*
X150823453Y-76022937D01*
X150799275Y-75936926D01*
X150687827Y-75906092D01*
X150445552Y-75859619D01*
X150109493Y-75804095D01*
X149762108Y-75752485D01*
X149133640Y-75690536D01*
X148406051Y-75662245D01*
X147636137Y-75666497D01*
X146880692Y-75702179D01*
X146196514Y-75768176D01*
X145798667Y-75830237D01*
X145248333Y-75934859D01*
X145225366Y-77556143D01*
X145202399Y-79177426D01*
X145775699Y-79268198D01*
X146111613Y-79320928D01*
X146416424Y-79368002D01*
X146603000Y-79396091D01*
X146843169Y-79413739D01*
X147214525Y-79420161D01*
X147679383Y-79416617D01*
X148200057Y-79404364D01*
X148738862Y-79384660D01*
X149258112Y-79358761D01*
X149720122Y-79327926D01*
X150087206Y-79293412D01*
X150222500Y-79275306D01*
X150878667Y-79172748D01*
X150878667Y-79626474D01*
X150707275Y-79664166D01*
X150283113Y-79726037D01*
X149771356Y-79779051D01*
X149199249Y-79820504D01*
X148594039Y-79847692D01*
X147982969Y-79857910D01*
X147830667Y-79857483D01*
X147345669Y-79852260D01*
X146906889Y-79844201D01*
X146548154Y-79834183D01*
X146303292Y-79823080D01*
X146222000Y-79815816D01*
X145715428Y-79732236D01*
X145307639Y-79649708D01*
X145022462Y-79573632D01*
X144888500Y-79513674D01*
X144851465Y-79435849D01*
X144823306Y-79260790D01*
X144803198Y-78973075D01*
X144790317Y-78557284D01*
X144783837Y-77997996D01*
X144782667Y-77534945D01*
X144783618Y-76918599D01*
X144787577Y-76450164D01*
X144796200Y-76108224D01*
X144811144Y-75871362D01*
X144834066Y-75718160D01*
X144866622Y-75627203D01*
X144910468Y-75577073D01*
X144935312Y-75561597D01*
X145201200Y-75468179D01*
X145606761Y-75388175D01*
X146122773Y-75322830D01*
X146720015Y-75273389D01*
X147369264Y-75241099D01*
X148041298Y-75227204D01*
X148706896Y-75232950D01*
X149336834Y-75259582D01*
X149901891Y-75308346D01*
X150140193Y-75339783D01*
X150505658Y-75391423D01*
X150785762Y-75436352D01*
X150991766Y-75495847D01*
X151134929Y-75591182D01*
X151226512Y-75743632D01*
X151277775Y-75974471D01*
X151299977Y-76304975D01*
X151304378Y-76756418D01*
X151304378Y-76756418D01*
G36*
X148342670Y-77901396D02*
X148295189Y-78284950D01*
X148130447Y-78634481D01*
X147856161Y-78903811D01*
X147714903Y-78977168D01*
X147526567Y-79027105D01*
X147255715Y-79058878D01*
X146866911Y-79077742D01*
X146645333Y-79083393D01*
X146248939Y-79087691D01*
X145910647Y-79083729D01*
X145668870Y-79072450D01*
X145565833Y-79056953D01*
X145476971Y-78939885D01*
X145468884Y-78761760D01*
X145536694Y-78607596D01*
X145593925Y-78567391D01*
X145732727Y-78545378D01*
X145996799Y-78528077D01*
X146342093Y-78517813D01*
X146567591Y-78516000D01*
X147049135Y-78500429D01*
X147385671Y-78446481D01*
X147599272Y-78343299D01*
X147712013Y-78180028D01*
X147745967Y-77945811D01*
X147746000Y-77936455D01*
X147679502Y-77672492D01*
X147474858Y-77485644D01*
X147124342Y-77370320D01*
X146922924Y-77340904D01*
X146647361Y-77305063D01*
X146500693Y-77259056D01*
X146442873Y-77181255D01*
X146433667Y-77076666D01*
X146444631Y-76962268D01*
X146502964Y-76895955D01*
X146646824Y-76861166D01*
X146914369Y-76841341D01*
X146984000Y-76837817D01*
X147400280Y-76841844D01*
X147699980Y-76906245D01*
X147794279Y-76948786D01*
X148090942Y-77193094D01*
X148274163Y-77524037D01*
X148342670Y-77901396D01*
X148342670Y-77901396D01*
X148342670Y-77901396D01*
G37*
X148342670Y-77901396D02*
X148295189Y-78284950D01*
X148130447Y-78634481D01*
X147856161Y-78903811D01*
X147714903Y-78977168D01*
X147526567Y-79027105D01*
X147255715Y-79058878D01*
X146866911Y-79077742D01*
X146645333Y-79083393D01*
X146248939Y-79087691D01*
X145910647Y-79083729D01*
X145668870Y-79072450D01*
X145565833Y-79056953D01*
X145476971Y-78939885D01*
X145468884Y-78761760D01*
X145536694Y-78607596D01*
X145593925Y-78567391D01*
X145732727Y-78545378D01*
X145996799Y-78528077D01*
X146342093Y-78517813D01*
X146567591Y-78516000D01*
X147049135Y-78500429D01*
X147385671Y-78446481D01*
X147599272Y-78343299D01*
X147712013Y-78180028D01*
X147745967Y-77945811D01*
X147746000Y-77936455D01*
X147679502Y-77672492D01*
X147474858Y-77485644D01*
X147124342Y-77370320D01*
X146922924Y-77340904D01*
X146647361Y-77305063D01*
X146500693Y-77259056D01*
X146442873Y-77181255D01*
X146433667Y-77076666D01*
X146444631Y-76962268D01*
X146502964Y-76895955D01*
X146646824Y-76861166D01*
X146914369Y-76841341D01*
X146984000Y-76837817D01*
X147400280Y-76841844D01*
X147699980Y-76906245D01*
X147794279Y-76948786D01*
X148090942Y-77193094D01*
X148274163Y-77524037D01*
X148342670Y-77901396D01*
X148342670Y-77901396D01*
G36*
X150539068Y-77992399D02*
X150519138Y-78515157D01*
X150458339Y-78878069D01*
X150357294Y-79079846D01*
X150216624Y-79119203D01*
X150048933Y-79007066D01*
X149995682Y-78861488D01*
X149961686Y-78554882D01*
X149947676Y-78094537D01*
X149947333Y-77995050D01*
X149938764Y-77597735D01*
X149915630Y-77245407D01*
X149881790Y-76983877D01*
X149853241Y-76878124D01*
X149709675Y-76708654D01*
X149475328Y-76561565D01*
X149429908Y-76542284D01*
X149208838Y-76431786D01*
X149114007Y-76305972D01*
X149100667Y-76200685D01*
X149164639Y-76024243D01*
X149332569Y-75940667D01*
X149568475Y-75947481D01*
X149836374Y-76042205D01*
X150100284Y-76222361D01*
X150154278Y-76273255D01*
X150305560Y-76449985D01*
X150412216Y-76649797D01*
X150481517Y-76905186D01*
X150520737Y-77248649D01*
X150537149Y-77712682D01*
X150539068Y-77992399D01*
X150539068Y-77992399D01*
X150539068Y-77992399D01*
G37*
X150539068Y-77992399D02*
X150519138Y-78515157D01*
X150458339Y-78878069D01*
X150357294Y-79079846D01*
X150216624Y-79119203D01*
X150048933Y-79007066D01*
X149995682Y-78861488D01*
X149961686Y-78554882D01*
X149947676Y-78094537D01*
X149947333Y-77995050D01*
X149938764Y-77597735D01*
X149915630Y-77245407D01*
X149881790Y-76983877D01*
X149853241Y-76878124D01*
X149709675Y-76708654D01*
X149475328Y-76561565D01*
X149429908Y-76542284D01*
X149208838Y-76431786D01*
X149114007Y-76305972D01*
X149100667Y-76200685D01*
X149164639Y-76024243D01*
X149332569Y-75940667D01*
X149568475Y-75947481D01*
X149836374Y-76042205D01*
X150100284Y-76222361D01*
X150154278Y-76273255D01*
X150305560Y-76449985D01*
X150412216Y-76649797D01*
X150481517Y-76905186D01*
X150520737Y-77248649D01*
X150537149Y-77712682D01*
X150539068Y-77992399D01*
X150539068Y-77992399D01*
G36*
X149195199Y-77626520D02*
X149171174Y-77923519D01*
X149119217Y-78133327D01*
X149058333Y-78207951D01*
X148866305Y-78238023D01*
X148745857Y-78141621D01*
X148687111Y-77904874D01*
X148677333Y-77672909D01*
X148642254Y-77177412D01*
X148534985Y-76827937D01*
X148352479Y-76615931D01*
X148288135Y-76580336D01*
X148110694Y-76537401D01*
X147815586Y-76504319D01*
X147454408Y-76486058D01*
X147287767Y-76484000D01*
X146896142Y-76489548D01*
X146631346Y-76511080D01*
X146451098Y-76555927D01*
X146313114Y-76631422D01*
X146275751Y-76659478D01*
X146096754Y-76888739D01*
X146059202Y-77151950D01*
X146166386Y-77398950D01*
X146223312Y-77458854D01*
X146446206Y-77573454D01*
X146795642Y-77644508D01*
X146879479Y-77652644D01*
X147243848Y-77709077D01*
X147444648Y-77806606D01*
X147482808Y-77946155D01*
X147359257Y-78128647D01*
X147358952Y-78128952D01*
X147161853Y-78226949D01*
X146839223Y-78244715D01*
X146379121Y-78182860D01*
X146362751Y-78179719D01*
X145983002Y-78033080D01*
X145704556Y-77781501D01*
X145531496Y-77458686D01*
X145467901Y-77098335D01*
X145517854Y-76734151D01*
X145685435Y-76399837D01*
X145974726Y-76129094D01*
X146105528Y-76055569D01*
X146288860Y-75976187D01*
X146472289Y-75925824D01*
X146697337Y-75899875D01*
X147005528Y-75893734D01*
X147438384Y-75902796D01*
X147473491Y-75903852D01*
X147966486Y-75926266D01*
X148324435Y-75966823D01*
X148581523Y-76037716D01*
X148771932Y-76151137D01*
X148929845Y-76319277D01*
X149027625Y-76458171D01*
X149107505Y-76658154D01*
X149162582Y-76949259D01*
X149192074Y-77286907D01*
X149195199Y-77626520D01*
X149195199Y-77626520D01*
X149195199Y-77626520D01*
G37*
X149195199Y-77626520D02*
X149171174Y-77923519D01*
X149119217Y-78133327D01*
X149058333Y-78207951D01*
X148866305Y-78238023D01*
X148745857Y-78141621D01*
X148687111Y-77904874D01*
X148677333Y-77672909D01*
X148642254Y-77177412D01*
X148534985Y-76827937D01*
X148352479Y-76615931D01*
X148288135Y-76580336D01*
X148110694Y-76537401D01*
X147815586Y-76504319D01*
X147454408Y-76486058D01*
X147287767Y-76484000D01*
X146896142Y-76489548D01*
X146631346Y-76511080D01*
X146451098Y-76555927D01*
X146313114Y-76631422D01*
X146275751Y-76659478D01*
X146096754Y-76888739D01*
X146059202Y-77151950D01*
X146166386Y-77398950D01*
X146223312Y-77458854D01*
X146446206Y-77573454D01*
X146795642Y-77644508D01*
X146879479Y-77652644D01*
X147243848Y-77709077D01*
X147444648Y-77806606D01*
X147482808Y-77946155D01*
X147359257Y-78128647D01*
X147358952Y-78128952D01*
X147161853Y-78226949D01*
X146839223Y-78244715D01*
X146379121Y-78182860D01*
X146362751Y-78179719D01*
X145983002Y-78033080D01*
X145704556Y-77781501D01*
X145531496Y-77458686D01*
X145467901Y-77098335D01*
X145517854Y-76734151D01*
X145685435Y-76399837D01*
X145974726Y-76129094D01*
X146105528Y-76055569D01*
X146288860Y-75976187D01*
X146472289Y-75925824D01*
X146697337Y-75899875D01*
X147005528Y-75893734D01*
X147438384Y-75902796D01*
X147473491Y-75903852D01*
X147966486Y-75926266D01*
X148324435Y-75966823D01*
X148581523Y-76037716D01*
X148771932Y-76151137D01*
X148929845Y-76319277D01*
X149027625Y-76458171D01*
X149107505Y-76658154D01*
X149162582Y-76949259D01*
X149192074Y-77286907D01*
X149195199Y-77626520D01*
X149195199Y-77626520D01*
G36*
X124201898Y-70159053D02*
X124200458Y-70349921D01*
X124200334Y-70358623D01*
X124193583Y-70824070D01*
X124134195Y-70875118D01*
X124054251Y-70919807D01*
X123970712Y-70923865D01*
X123890791Y-70887589D01*
X123863485Y-70863908D01*
X123821688Y-70825367D01*
X123802000Y-70817766D01*
X123802000Y-70038792D01*
X123795338Y-69893606D01*
X123774006Y-69782007D01*
X123735985Y-69697181D01*
X123682329Y-69634982D01*
X123595924Y-69584882D01*
X123498728Y-69569518D01*
X123400923Y-69586853D01*
X123312694Y-69634852D01*
X123244224Y-69711479D01*
X123236986Y-69724022D01*
X123214122Y-69792736D01*
X123200320Y-69889279D01*
X123195459Y-70000657D01*
X123199423Y-70113874D01*
X123212092Y-70215938D01*
X123233349Y-70293855D01*
X123242349Y-70312261D01*
X123313342Y-70400490D01*
X123400202Y-70457675D01*
X123494943Y-70481873D01*
X123589581Y-70471136D01*
X123676129Y-70423519D01*
X123681192Y-70419183D01*
X123739978Y-70350541D01*
X123778065Y-70262453D01*
X123797810Y-70147495D01*
X123802000Y-70038792D01*
X123802000Y-70817766D01*
X123790245Y-70813229D01*
X123750456Y-70823107D01*
X123728210Y-70832158D01*
X123667645Y-70848161D01*
X123582773Y-70859109D01*
X123501055Y-70862649D01*
X123402326Y-70858682D01*
X123323340Y-70843629D01*
X123241982Y-70812727D01*
X123218124Y-70801703D01*
X123070772Y-70712487D01*
X122955089Y-70598457D01*
X122870234Y-70458038D01*
X122815366Y-70289654D01*
X122789644Y-70091730D01*
X122787343Y-69994833D01*
X122798511Y-69823444D01*
X122833045Y-69676671D01*
X122894845Y-69541537D01*
X122948959Y-69457353D01*
X123057509Y-69337247D01*
X123185186Y-69250668D01*
X123325947Y-69197105D01*
X123473748Y-69176047D01*
X123622544Y-69186985D01*
X123766291Y-69229407D01*
X123898945Y-69302805D01*
X124014462Y-69406667D01*
X124106798Y-69540482D01*
X124114664Y-69555773D01*
X124143855Y-69622150D01*
X124166321Y-69694103D01*
X124182711Y-69777701D01*
X124193672Y-69879012D01*
X124199852Y-70004106D01*
X124201898Y-70159053D01*
X124201898Y-70159053D01*
X124201898Y-70159053D01*
G37*
X124201898Y-70159053D02*
X124200458Y-70349921D01*
X124200334Y-70358623D01*
X124193583Y-70824070D01*
X124134195Y-70875118D01*
X124054251Y-70919807D01*
X123970712Y-70923865D01*
X123890791Y-70887589D01*
X123863485Y-70863908D01*
X123821688Y-70825367D01*
X123802000Y-70817766D01*
X123802000Y-70038792D01*
X123795338Y-69893606D01*
X123774006Y-69782007D01*
X123735985Y-69697181D01*
X123682329Y-69634982D01*
X123595924Y-69584882D01*
X123498728Y-69569518D01*
X123400923Y-69586853D01*
X123312694Y-69634852D01*
X123244224Y-69711479D01*
X123236986Y-69724022D01*
X123214122Y-69792736D01*
X123200320Y-69889279D01*
X123195459Y-70000657D01*
X123199423Y-70113874D01*
X123212092Y-70215938D01*
X123233349Y-70293855D01*
X123242349Y-70312261D01*
X123313342Y-70400490D01*
X123400202Y-70457675D01*
X123494943Y-70481873D01*
X123589581Y-70471136D01*
X123676129Y-70423519D01*
X123681192Y-70419183D01*
X123739978Y-70350541D01*
X123778065Y-70262453D01*
X123797810Y-70147495D01*
X123802000Y-70038792D01*
X123802000Y-70817766D01*
X123790245Y-70813229D01*
X123750456Y-70823107D01*
X123728210Y-70832158D01*
X123667645Y-70848161D01*
X123582773Y-70859109D01*
X123501055Y-70862649D01*
X123402326Y-70858682D01*
X123323340Y-70843629D01*
X123241982Y-70812727D01*
X123218124Y-70801703D01*
X123070772Y-70712487D01*
X122955089Y-70598457D01*
X122870234Y-70458038D01*
X122815366Y-70289654D01*
X122789644Y-70091730D01*
X122787343Y-69994833D01*
X122798511Y-69823444D01*
X122833045Y-69676671D01*
X122894845Y-69541537D01*
X122948959Y-69457353D01*
X123057509Y-69337247D01*
X123185186Y-69250668D01*
X123325947Y-69197105D01*
X123473748Y-69176047D01*
X123622544Y-69186985D01*
X123766291Y-69229407D01*
X123898945Y-69302805D01*
X124014462Y-69406667D01*
X124106798Y-69540482D01*
X124114664Y-69555773D01*
X124143855Y-69622150D01*
X124166321Y-69694103D01*
X124182711Y-69777701D01*
X124193672Y-69879012D01*
X124199852Y-70004106D01*
X124201898Y-70159053D01*
X124201898Y-70159053D01*
G36*
X120097833Y-70672302D02*
X120080317Y-70737936D01*
X120036097Y-70803875D01*
X119977667Y-70854436D01*
X119939324Y-70871298D01*
X119895954Y-70877501D01*
X119853674Y-70871163D01*
X119808615Y-70848898D01*
X119756908Y-70807318D01*
X119694686Y-70743039D01*
X119618081Y-70652672D01*
X119523225Y-70532832D01*
X119462267Y-70453646D01*
X119378506Y-70345383D01*
X119302455Y-70249418D01*
X119238097Y-70170586D01*
X119189414Y-70113723D01*
X119160387Y-70083667D01*
X119154777Y-70080175D01*
X119127745Y-70093907D01*
X119085732Y-70129310D01*
X119066683Y-70148291D01*
X119039595Y-70177797D01*
X119020990Y-70205237D01*
X119009011Y-70239218D01*
X119001803Y-70288349D01*
X118997509Y-70361235D01*
X118994272Y-70466483D01*
X118993739Y-70486488D01*
X118990311Y-70598405D01*
X118985971Y-70676319D01*
X118979145Y-70728555D01*
X118968257Y-70763438D01*
X118951731Y-70789293D01*
X118932529Y-70809936D01*
X118872636Y-70851484D01*
X118803872Y-70876084D01*
X118803143Y-70876204D01*
X118748476Y-70879095D01*
X118703423Y-70861866D01*
X118656114Y-70824367D01*
X118584417Y-70760305D01*
X118584417Y-69613563D01*
X118584417Y-68466820D01*
X118647917Y-68416015D01*
X118724658Y-68376831D01*
X118808618Y-68368543D01*
X118887651Y-68389228D01*
X118949612Y-68436963D01*
X118968714Y-68466811D01*
X118973689Y-68496772D01*
X118978908Y-68563194D01*
X118984101Y-68660209D01*
X118988999Y-68781948D01*
X118993333Y-68922543D01*
X118996834Y-69076124D01*
X118996950Y-69082296D01*
X119007750Y-69662010D01*
X119361698Y-69342140D01*
X119466796Y-69248683D01*
X119564366Y-69164769D01*
X119649124Y-69094718D01*
X119715788Y-69042848D01*
X119759075Y-69013476D01*
X119769567Y-69008737D01*
X119841527Y-69009128D01*
X119917091Y-69037020D01*
X119976464Y-69084636D01*
X119982260Y-69092293D01*
X120004028Y-69144557D01*
X120013166Y-69208588D01*
X120013167Y-69209014D01*
X120009813Y-69240684D01*
X119997330Y-69273884D01*
X119972087Y-69312725D01*
X119930449Y-69361318D01*
X119868786Y-69423775D01*
X119783464Y-69504207D01*
X119670851Y-69606727D01*
X119626787Y-69646370D01*
X119462657Y-69793750D01*
X119780245Y-70202968D01*
X119887572Y-70342602D01*
X119970050Y-70453193D01*
X120029996Y-70538163D01*
X120069727Y-70600938D01*
X120091560Y-70644941D01*
X120097833Y-70672302D01*
X120097833Y-70672302D01*
X120097833Y-70672302D01*
G37*
X120097833Y-70672302D02*
X120080317Y-70737936D01*
X120036097Y-70803875D01*
X119977667Y-70854436D01*
X119939324Y-70871298D01*
X119895954Y-70877501D01*
X119853674Y-70871163D01*
X119808615Y-70848898D01*
X119756908Y-70807318D01*
X119694686Y-70743039D01*
X119618081Y-70652672D01*
X119523225Y-70532832D01*
X119462267Y-70453646D01*
X119378506Y-70345383D01*
X119302455Y-70249418D01*
X119238097Y-70170586D01*
X119189414Y-70113723D01*
X119160387Y-70083667D01*
X119154777Y-70080175D01*
X119127745Y-70093907D01*
X119085732Y-70129310D01*
X119066683Y-70148291D01*
X119039595Y-70177797D01*
X119020990Y-70205237D01*
X119009011Y-70239218D01*
X119001803Y-70288349D01*
X118997509Y-70361235D01*
X118994272Y-70466483D01*
X118993739Y-70486488D01*
X118990311Y-70598405D01*
X118985971Y-70676319D01*
X118979145Y-70728555D01*
X118968257Y-70763438D01*
X118951731Y-70789293D01*
X118932529Y-70809936D01*
X118872636Y-70851484D01*
X118803872Y-70876084D01*
X118803143Y-70876204D01*
X118748476Y-70879095D01*
X118703423Y-70861866D01*
X118656114Y-70824367D01*
X118584417Y-70760305D01*
X118584417Y-69613563D01*
X118584417Y-68466820D01*
X118647917Y-68416015D01*
X118724658Y-68376831D01*
X118808618Y-68368543D01*
X118887651Y-68389228D01*
X118949612Y-68436963D01*
X118968714Y-68466811D01*
X118973689Y-68496772D01*
X118978908Y-68563194D01*
X118984101Y-68660209D01*
X118988999Y-68781948D01*
X118993333Y-68922543D01*
X118996834Y-69076124D01*
X118996950Y-69082296D01*
X119007750Y-69662010D01*
X119361698Y-69342140D01*
X119466796Y-69248683D01*
X119564366Y-69164769D01*
X119649124Y-69094718D01*
X119715788Y-69042848D01*
X119759075Y-69013476D01*
X119769567Y-69008737D01*
X119841527Y-69009128D01*
X119917091Y-69037020D01*
X119976464Y-69084636D01*
X119982260Y-69092293D01*
X120004028Y-69144557D01*
X120013166Y-69208588D01*
X120013167Y-69209014D01*
X120009813Y-69240684D01*
X119997330Y-69273884D01*
X119972087Y-69312725D01*
X119930449Y-69361318D01*
X119868786Y-69423775D01*
X119783464Y-69504207D01*
X119670851Y-69606727D01*
X119626787Y-69646370D01*
X119462657Y-69793750D01*
X119780245Y-70202968D01*
X119887572Y-70342602D01*
X119970050Y-70453193D01*
X120029996Y-70538163D01*
X120069727Y-70600938D01*
X120091560Y-70644941D01*
X120097833Y-70672302D01*
X120097833Y-70672302D01*
G36*
X120772909Y-69714501D02*
X120771909Y-69904914D01*
X120770900Y-70027904D01*
X120764583Y-70755926D01*
X120711667Y-70808783D01*
X120641735Y-70855763D01*
X120561586Y-70875583D01*
X120489417Y-70864624D01*
X120443581Y-70835277D01*
X120404750Y-70799468D01*
X120393509Y-70785231D01*
X120384397Y-70767133D01*
X120377144Y-70740789D01*
X120371484Y-70701816D01*
X120367148Y-70645828D01*
X120363869Y-70568441D01*
X120361379Y-70465271D01*
X120359409Y-70331933D01*
X120357692Y-70164042D01*
X120356366Y-70007476D01*
X120350316Y-69262511D01*
X120398700Y-69191095D01*
X120464580Y-69121663D01*
X120539798Y-69093233D01*
X120623277Y-69106147D01*
X120641415Y-69113981D01*
X120675595Y-69131741D01*
X120703506Y-69152023D01*
X120725738Y-69178992D01*
X120742880Y-69216813D01*
X120755523Y-69269653D01*
X120764257Y-69341676D01*
X120769673Y-69437048D01*
X120772360Y-69559934D01*
X120772909Y-69714501D01*
X120772909Y-69714501D01*
X120772909Y-69714501D01*
G37*
X120772909Y-69714501D02*
X120771909Y-69904914D01*
X120770900Y-70027904D01*
X120764583Y-70755926D01*
X120711667Y-70808783D01*
X120641735Y-70855763D01*
X120561586Y-70875583D01*
X120489417Y-70864624D01*
X120443581Y-70835277D01*
X120404750Y-70799468D01*
X120393509Y-70785231D01*
X120384397Y-70767133D01*
X120377144Y-70740789D01*
X120371484Y-70701816D01*
X120367148Y-70645828D01*
X120363869Y-70568441D01*
X120361379Y-70465271D01*
X120359409Y-70331933D01*
X120357692Y-70164042D01*
X120356366Y-70007476D01*
X120350316Y-69262511D01*
X120398700Y-69191095D01*
X120464580Y-69121663D01*
X120539798Y-69093233D01*
X120623277Y-69106147D01*
X120641415Y-69113981D01*
X120675595Y-69131741D01*
X120703506Y-69152023D01*
X120725738Y-69178992D01*
X120742880Y-69216813D01*
X120755523Y-69269653D01*
X120764257Y-69341676D01*
X120769673Y-69437048D01*
X120772360Y-69559934D01*
X120772909Y-69714501D01*
X120772909Y-69714501D01*
G36*
X122447333Y-70608577D02*
X122427375Y-70669699D01*
X122372313Y-70727341D01*
X122289365Y-70778951D01*
X122185753Y-70821978D01*
X122068694Y-70853871D01*
X121945408Y-70872079D01*
X121823114Y-70874052D01*
X121730010Y-70862053D01*
X121567708Y-70807410D01*
X121423808Y-70717608D01*
X121304093Y-70597873D01*
X121214344Y-70453425D01*
X121179708Y-70364894D01*
X121132150Y-70151995D01*
X121122006Y-69937987D01*
X121148905Y-69730234D01*
X121212482Y-69536100D01*
X121222235Y-69514752D01*
X121311628Y-69372766D01*
X121430532Y-69256462D01*
X121572534Y-69169127D01*
X121731222Y-69114046D01*
X121900184Y-69094507D01*
X122023500Y-69104114D01*
X122167473Y-69137485D01*
X122283597Y-69185047D01*
X122369405Y-69243865D01*
X122422430Y-69311002D01*
X122440203Y-69383522D01*
X122420258Y-69458489D01*
X122373351Y-69520406D01*
X122319330Y-69558000D01*
X122253516Y-69569277D01*
X122167775Y-69554490D01*
X122092564Y-69529155D01*
X121984319Y-69496137D01*
X121892563Y-69489083D01*
X121801124Y-69507021D01*
X121789033Y-69510932D01*
X121691437Y-69558604D01*
X121619512Y-69629768D01*
X121571258Y-69728277D01*
X121544677Y-69857985D01*
X121537631Y-69995640D01*
X121545701Y-70146483D01*
X121572192Y-70264124D01*
X121619357Y-70354484D01*
X121689449Y-70423485D01*
X121704338Y-70433870D01*
X121791126Y-70469984D01*
X121897909Y-70483059D01*
X122009031Y-70472884D01*
X122108667Y-70439333D01*
X122169943Y-70412838D01*
X122222201Y-70398088D01*
X122233827Y-70397000D01*
X122316805Y-70416228D01*
X122386846Y-70467082D01*
X122433608Y-70539313D01*
X122447333Y-70608577D01*
X122447333Y-70608577D01*
X122447333Y-70608577D01*
G37*
X122447333Y-70608577D02*
X122427375Y-70669699D01*
X122372313Y-70727341D01*
X122289365Y-70778951D01*
X122185753Y-70821978D01*
X122068694Y-70853871D01*
X121945408Y-70872079D01*
X121823114Y-70874052D01*
X121730010Y-70862053D01*
X121567708Y-70807410D01*
X121423808Y-70717608D01*
X121304093Y-70597873D01*
X121214344Y-70453425D01*
X121179708Y-70364894D01*
X121132150Y-70151995D01*
X121122006Y-69937987D01*
X121148905Y-69730234D01*
X121212482Y-69536100D01*
X121222235Y-69514752D01*
X121311628Y-69372766D01*
X121430532Y-69256462D01*
X121572534Y-69169127D01*
X121731222Y-69114046D01*
X121900184Y-69094507D01*
X122023500Y-69104114D01*
X122167473Y-69137485D01*
X122283597Y-69185047D01*
X122369405Y-69243865D01*
X122422430Y-69311002D01*
X122440203Y-69383522D01*
X122420258Y-69458489D01*
X122373351Y-69520406D01*
X122319330Y-69558000D01*
X122253516Y-69569277D01*
X122167775Y-69554490D01*
X122092564Y-69529155D01*
X121984319Y-69496137D01*
X121892563Y-69489083D01*
X121801124Y-69507021D01*
X121789033Y-69510932D01*
X121691437Y-69558604D01*
X121619512Y-69629768D01*
X121571258Y-69728277D01*
X121544677Y-69857985D01*
X121537631Y-69995640D01*
X121545701Y-70146483D01*
X121572192Y-70264124D01*
X121619357Y-70354484D01*
X121689449Y-70423485D01*
X121704338Y-70433870D01*
X121791126Y-70469984D01*
X121897909Y-70483059D01*
X122009031Y-70472884D01*
X122108667Y-70439333D01*
X122169943Y-70412838D01*
X122222201Y-70398088D01*
X122233827Y-70397000D01*
X122316805Y-70416228D01*
X122386846Y-70467082D01*
X122433608Y-70539313D01*
X122447333Y-70608577D01*
X122447333Y-70608577D01*
G36*
X126048202Y-68533612D02*
X126041348Y-69417681D01*
X126039615Y-69634448D01*
X126037932Y-69813221D01*
X126036053Y-69958336D01*
X126033737Y-70074131D01*
X126030738Y-70164943D01*
X126026813Y-70235110D01*
X126021717Y-70288970D01*
X126015208Y-70330859D01*
X126007040Y-70365115D01*
X125996971Y-70396076D01*
X125984755Y-70428078D01*
X125984491Y-70428750D01*
X125923806Y-70558755D01*
X125853618Y-70657882D01*
X125765422Y-70737575D01*
X125743407Y-70753193D01*
X125643500Y-70804286D01*
X125643500Y-69958381D01*
X125643500Y-69673099D01*
X125573430Y-69603029D01*
X125503803Y-69550069D01*
X125423789Y-69511934D01*
X125411309Y-69508173D01*
X125291397Y-69493800D01*
X125186683Y-69517237D01*
X125099546Y-69575944D01*
X125032364Y-69667385D01*
X124987515Y-69789023D01*
X124967378Y-69938321D01*
X124966485Y-69982728D01*
X124980460Y-70140548D01*
X125020035Y-70273353D01*
X125082771Y-70378069D01*
X125166226Y-70451619D01*
X125267961Y-70490929D01*
X125372634Y-70494546D01*
X125445690Y-70475423D01*
X125514039Y-70441065D01*
X125515962Y-70439716D01*
X125563188Y-70399045D01*
X125597565Y-70349676D01*
X125620936Y-70284657D01*
X125635142Y-70197034D01*
X125642026Y-70079855D01*
X125643500Y-69958381D01*
X125643500Y-70804286D01*
X125595508Y-70828830D01*
X125428386Y-70867520D01*
X125244308Y-70868788D01*
X125209583Y-70865009D01*
X125098277Y-70837307D01*
X124977720Y-70785230D01*
X124865307Y-70717297D01*
X124800590Y-70664694D01*
X124757144Y-70613000D01*
X124706751Y-70537406D01*
X124659248Y-70452878D01*
X124652480Y-70439333D01*
X124574696Y-70280583D01*
X124575186Y-69994833D01*
X124576334Y-69871913D01*
X124580089Y-69781189D01*
X124587647Y-69712548D01*
X124600202Y-69655875D01*
X124618951Y-69601057D01*
X124622923Y-69590987D01*
X124705735Y-69437097D01*
X124817011Y-69310455D01*
X124951065Y-69213562D01*
X125102212Y-69148923D01*
X125264767Y-69119040D01*
X125433047Y-69126417D01*
X125585292Y-69167211D01*
X125643500Y-69189452D01*
X125643500Y-68863516D01*
X125643746Y-68739257D01*
X125645185Y-68649817D01*
X125648870Y-68587685D01*
X125655854Y-68545347D01*
X125667189Y-68515291D01*
X125683929Y-68490004D01*
X125698298Y-68472457D01*
X125767150Y-68418977D01*
X125846088Y-68403720D01*
X125926883Y-68426743D01*
X125985062Y-68470472D01*
X126048202Y-68533612D01*
X126048202Y-68533612D01*
X126048202Y-68533612D01*
G37*
X126048202Y-68533612D02*
X126041348Y-69417681D01*
X126039615Y-69634448D01*
X126037932Y-69813221D01*
X126036053Y-69958336D01*
X126033737Y-70074131D01*
X126030738Y-70164943D01*
X126026813Y-70235110D01*
X126021717Y-70288970D01*
X126015208Y-70330859D01*
X126007040Y-70365115D01*
X125996971Y-70396076D01*
X125984755Y-70428078D01*
X125984491Y-70428750D01*
X125923806Y-70558755D01*
X125853618Y-70657882D01*
X125765422Y-70737575D01*
X125743407Y-70753193D01*
X125643500Y-70804286D01*
X125643500Y-69958381D01*
X125643500Y-69673099D01*
X125573430Y-69603029D01*
X125503803Y-69550069D01*
X125423789Y-69511934D01*
X125411309Y-69508173D01*
X125291397Y-69493800D01*
X125186683Y-69517237D01*
X125099546Y-69575944D01*
X125032364Y-69667385D01*
X124987515Y-69789023D01*
X124967378Y-69938321D01*
X124966485Y-69982728D01*
X124980460Y-70140548D01*
X125020035Y-70273353D01*
X125082771Y-70378069D01*
X125166226Y-70451619D01*
X125267961Y-70490929D01*
X125372634Y-70494546D01*
X125445690Y-70475423D01*
X125514039Y-70441065D01*
X125515962Y-70439716D01*
X125563188Y-70399045D01*
X125597565Y-70349676D01*
X125620936Y-70284657D01*
X125635142Y-70197034D01*
X125642026Y-70079855D01*
X125643500Y-69958381D01*
X125643500Y-70804286D01*
X125595508Y-70828830D01*
X125428386Y-70867520D01*
X125244308Y-70868788D01*
X125209583Y-70865009D01*
X125098277Y-70837307D01*
X124977720Y-70785230D01*
X124865307Y-70717297D01*
X124800590Y-70664694D01*
X124757144Y-70613000D01*
X124706751Y-70537406D01*
X124659248Y-70452878D01*
X124652480Y-70439333D01*
X124574696Y-70280583D01*
X124575186Y-69994833D01*
X124576334Y-69871913D01*
X124580089Y-69781189D01*
X124587647Y-69712548D01*
X124600202Y-69655875D01*
X124618951Y-69601057D01*
X124622923Y-69590987D01*
X124705735Y-69437097D01*
X124817011Y-69310455D01*
X124951065Y-69213562D01*
X125102212Y-69148923D01*
X125264767Y-69119040D01*
X125433047Y-69126417D01*
X125585292Y-69167211D01*
X125643500Y-69189452D01*
X125643500Y-68863516D01*
X125643746Y-68739257D01*
X125645185Y-68649817D01*
X125648870Y-68587685D01*
X125655854Y-68545347D01*
X125667189Y-68515291D01*
X125683929Y-68490004D01*
X125698298Y-68472457D01*
X125767150Y-68418977D01*
X125846088Y-68403720D01*
X125926883Y-68426743D01*
X125985062Y-68470472D01*
X126048202Y-68533612D01*
X126048202Y-68533612D01*
G36*
X118129342Y-69336873D02*
X118129337Y-69576676D01*
X118129333Y-69636065D01*
X118129333Y-70718733D01*
X118057367Y-70790699D01*
X117985400Y-70862666D01*
X117896500Y-70862666D01*
X117896500Y-70629833D01*
X117896500Y-69607373D01*
X117896500Y-68584913D01*
X117457292Y-68150230D01*
X117334224Y-68028643D01*
X117211012Y-67907300D01*
X117093704Y-67792129D01*
X116988347Y-67689059D01*
X116900992Y-67604017D01*
X116838167Y-67543394D01*
X116658250Y-67371240D01*
X115912125Y-67370703D01*
X115166000Y-67370166D01*
X115166000Y-69000000D01*
X115166000Y-70629833D01*
X116531250Y-70629833D01*
X117896500Y-70629833D01*
X117896500Y-70862666D01*
X116533700Y-70862666D01*
X115082001Y-70862666D01*
X115012875Y-70800902D01*
X114943750Y-70739139D01*
X114943750Y-69036690D01*
X114943851Y-68720281D01*
X114944184Y-68443595D01*
X114944793Y-68204023D01*
X114945721Y-67998955D01*
X114947013Y-67825781D01*
X114948712Y-67681891D01*
X114950861Y-67564676D01*
X114953506Y-67471527D01*
X114956689Y-67399833D01*
X114960455Y-67346985D01*
X114964847Y-67310373D01*
X114969909Y-67287388D01*
X114973272Y-67279078D01*
X114991011Y-67248892D01*
X115011550Y-67224212D01*
X115039045Y-67204502D01*
X115077654Y-67189227D01*
X115131534Y-67177849D01*
X115204842Y-67169834D01*
X115301734Y-67164644D01*
X115426368Y-67161745D01*
X115582900Y-67160599D01*
X115775488Y-67160671D01*
X115888865Y-67161004D01*
X116065072Y-67161959D01*
X116229712Y-67163547D01*
X116377525Y-67165665D01*
X116503252Y-67168210D01*
X116601634Y-67171077D01*
X116667412Y-67174163D01*
X116693753Y-67176879D01*
X116710227Y-67181484D01*
X116727784Y-67189048D01*
X116749292Y-67202146D01*
X116777621Y-67223353D01*
X116815640Y-67255244D01*
X116866217Y-67300395D01*
X116932220Y-67361381D01*
X117016520Y-67440776D01*
X117121984Y-67541157D01*
X117251481Y-67665099D01*
X117407881Y-67815176D01*
X117452000Y-67857541D01*
X117573165Y-67973707D01*
X117687605Y-68083066D01*
X117790909Y-68181429D01*
X117878663Y-68264607D01*
X117946455Y-68328411D01*
X117989873Y-68368652D01*
X117999169Y-68376988D01*
X118027453Y-68401576D01*
X118051316Y-68424143D01*
X118071133Y-68448317D01*
X118087281Y-68477727D01*
X118100133Y-68516000D01*
X118110065Y-68566765D01*
X118117452Y-68633650D01*
X118122669Y-68720284D01*
X118126092Y-68830295D01*
X118128095Y-68967311D01*
X118129053Y-69134961D01*
X118129342Y-69336873D01*
X118129342Y-69336873D01*
X118129342Y-69336873D01*
G37*
X118129342Y-69336873D02*
X118129337Y-69576676D01*
X118129333Y-69636065D01*
X118129333Y-70718733D01*
X118057367Y-70790699D01*
X117985400Y-70862666D01*
X117896500Y-70862666D01*
X117896500Y-70629833D01*
X117896500Y-69607373D01*
X117896500Y-68584913D01*
X117457292Y-68150230D01*
X117334224Y-68028643D01*
X117211012Y-67907300D01*
X117093704Y-67792129D01*
X116988347Y-67689059D01*
X116900992Y-67604017D01*
X116838167Y-67543394D01*
X116658250Y-67371240D01*
X115912125Y-67370703D01*
X115166000Y-67370166D01*
X115166000Y-69000000D01*
X115166000Y-70629833D01*
X116531250Y-70629833D01*
X117896500Y-70629833D01*
X117896500Y-70862666D01*
X116533700Y-70862666D01*
X115082001Y-70862666D01*
X115012875Y-70800902D01*
X114943750Y-70739139D01*
X114943750Y-69036690D01*
X114943851Y-68720281D01*
X114944184Y-68443595D01*
X114944793Y-68204023D01*
X114945721Y-67998955D01*
X114947013Y-67825781D01*
X114948712Y-67681891D01*
X114950861Y-67564676D01*
X114953506Y-67471527D01*
X114956689Y-67399833D01*
X114960455Y-67346985D01*
X114964847Y-67310373D01*
X114969909Y-67287388D01*
X114973272Y-67279078D01*
X114991011Y-67248892D01*
X115011550Y-67224212D01*
X115039045Y-67204502D01*
X115077654Y-67189227D01*
X115131534Y-67177849D01*
X115204842Y-67169834D01*
X115301734Y-67164644D01*
X115426368Y-67161745D01*
X115582900Y-67160599D01*
X115775488Y-67160671D01*
X115888865Y-67161004D01*
X116065072Y-67161959D01*
X116229712Y-67163547D01*
X116377525Y-67165665D01*
X116503252Y-67168210D01*
X116601634Y-67171077D01*
X116667412Y-67174163D01*
X116693753Y-67176879D01*
X116710227Y-67181484D01*
X116727784Y-67189048D01*
X116749292Y-67202146D01*
X116777621Y-67223353D01*
X116815640Y-67255244D01*
X116866217Y-67300395D01*
X116932220Y-67361381D01*
X117016520Y-67440776D01*
X117121984Y-67541157D01*
X117251481Y-67665099D01*
X117407881Y-67815176D01*
X117452000Y-67857541D01*
X117573165Y-67973707D01*
X117687605Y-68083066D01*
X117790909Y-68181429D01*
X117878663Y-68264607D01*
X117946455Y-68328411D01*
X117989873Y-68368652D01*
X117999169Y-68376988D01*
X118027453Y-68401576D01*
X118051316Y-68424143D01*
X118071133Y-68448317D01*
X118087281Y-68477727D01*
X118100133Y-68516000D01*
X118110065Y-68566765D01*
X118117452Y-68633650D01*
X118122669Y-68720284D01*
X118126092Y-68830295D01*
X118128095Y-68967311D01*
X118129053Y-69134961D01*
X118129342Y-69336873D01*
X118129342Y-69336873D01*
G36*
X120761117Y-68532876D02*
X120761070Y-68618914D01*
X120731389Y-68698634D01*
X120679077Y-68755186D01*
X120600059Y-68784204D01*
X120512482Y-68781934D01*
X120434934Y-68749130D01*
X120429558Y-68745082D01*
X120376840Y-68680629D01*
X120357232Y-68604338D01*
X120367193Y-68525560D01*
X120403184Y-68453645D01*
X120461665Y-68397943D01*
X120539095Y-68367805D01*
X120573455Y-68365000D01*
X120634299Y-68382799D01*
X120695539Y-68427815D01*
X120743119Y-68487474D01*
X120761117Y-68532876D01*
X120761117Y-68532876D01*
X120761117Y-68532876D01*
G37*
X120761117Y-68532876D02*
X120761070Y-68618914D01*
X120731389Y-68698634D01*
X120679077Y-68755186D01*
X120600059Y-68784204D01*
X120512482Y-68781934D01*
X120434934Y-68749130D01*
X120429558Y-68745082D01*
X120376840Y-68680629D01*
X120357232Y-68604338D01*
X120367193Y-68525560D01*
X120403184Y-68453645D01*
X120461665Y-68397943D01*
X120539095Y-68367805D01*
X120573455Y-68365000D01*
X120634299Y-68382799D01*
X120695539Y-68427815D01*
X120743119Y-68487474D01*
X120761117Y-68532876D01*
X120761117Y-68532876D01*
G36*
X118129333Y-67638050D02*
X118129057Y-67775365D01*
X118127827Y-67876376D01*
X118125040Y-67947112D01*
X118120090Y-67993603D01*
X118112374Y-68021877D01*
X118101288Y-68037962D01*
X118088391Y-68046755D01*
X118054955Y-68061803D01*
X118022676Y-68067042D01*
X117987184Y-68059573D01*
X117944105Y-68036492D01*
X117889068Y-67994898D01*
X117817699Y-67931891D01*
X117725627Y-67844568D01*
X117608478Y-67730028D01*
X117603076Y-67724708D01*
X117502088Y-67625355D01*
X117410115Y-67535072D01*
X117331804Y-67458406D01*
X117271805Y-67399905D01*
X117234766Y-67364114D01*
X117225917Y-67355803D01*
X117201197Y-67310061D01*
X117199498Y-67251521D01*
X117219127Y-67199569D01*
X117241367Y-67179113D01*
X117282618Y-67169837D01*
X117364679Y-67163859D01*
X117486151Y-67161232D01*
X117645637Y-67162009D01*
X117677030Y-67162493D01*
X117815972Y-67165145D01*
X117918677Y-67168215D01*
X117991240Y-67172390D01*
X118039756Y-67178359D01*
X118070319Y-67186810D01*
X118089026Y-67198432D01*
X118099329Y-67210170D01*
X118110649Y-67235414D01*
X118118920Y-67279226D01*
X118124519Y-67347015D01*
X118127828Y-67444191D01*
X118129225Y-67576165D01*
X118129333Y-67638050D01*
X118129333Y-67638050D01*
X118129333Y-67638050D01*
G37*
X118129333Y-67638050D02*
X118129057Y-67775365D01*
X118127827Y-67876376D01*
X118125040Y-67947112D01*
X118120090Y-67993603D01*
X118112374Y-68021877D01*
X118101288Y-68037962D01*
X118088391Y-68046755D01*
X118054955Y-68061803D01*
X118022676Y-68067042D01*
X117987184Y-68059573D01*
X117944105Y-68036492D01*
X117889068Y-67994898D01*
X117817699Y-67931891D01*
X117725627Y-67844568D01*
X117608478Y-67730028D01*
X117603076Y-67724708D01*
X117502088Y-67625355D01*
X117410115Y-67535072D01*
X117331804Y-67458406D01*
X117271805Y-67399905D01*
X117234766Y-67364114D01*
X117225917Y-67355803D01*
X117201197Y-67310061D01*
X117199498Y-67251521D01*
X117219127Y-67199569D01*
X117241367Y-67179113D01*
X117282618Y-67169837D01*
X117364679Y-67163859D01*
X117486151Y-67161232D01*
X117645637Y-67162009D01*
X117677030Y-67162493D01*
X117815972Y-67165145D01*
X117918677Y-67168215D01*
X117991240Y-67172390D01*
X118039756Y-67178359D01*
X118070319Y-67186810D01*
X118089026Y-67198432D01*
X118099329Y-67210170D01*
X118110649Y-67235414D01*
X118118920Y-67279226D01*
X118124519Y-67347015D01*
X118127828Y-67444191D01*
X118129225Y-67576165D01*
X118129333Y-67638050D01*
X118129333Y-67638050D01*
G36*
X117748333Y-69783166D02*
X117746699Y-69797392D01*
X117738204Y-69808014D01*
X117717459Y-69815557D01*
X117679076Y-69820548D01*
X117617667Y-69823511D01*
X117527842Y-69824972D01*
X117404214Y-69825458D01*
X117314417Y-69825500D01*
X116880500Y-69825500D01*
X116880500Y-70079500D01*
X116880084Y-70186720D01*
X116878059Y-70258625D01*
X116873254Y-70302229D01*
X116864501Y-70324548D01*
X116850629Y-70332597D01*
X116838167Y-70333500D01*
X116821415Y-70331301D01*
X116809781Y-70320369D01*
X116802335Y-70294198D01*
X116798150Y-70246282D01*
X116796294Y-70170115D01*
X116795838Y-70059192D01*
X116795833Y-70037166D01*
X116795833Y-69740833D01*
X117272083Y-69740833D01*
X117425757Y-69740968D01*
X117542242Y-69741680D01*
X117626685Y-69743424D01*
X117684230Y-69746659D01*
X117720022Y-69751842D01*
X117739206Y-69759431D01*
X117746928Y-69769881D01*
X117748333Y-69783166D01*
X117748333Y-69783166D01*
X117748333Y-69783166D01*
G37*
X117748333Y-69783166D02*
X117746699Y-69797392D01*
X117738204Y-69808014D01*
X117717459Y-69815557D01*
X117679076Y-69820548D01*
X117617667Y-69823511D01*
X117527842Y-69824972D01*
X117404214Y-69825458D01*
X117314417Y-69825500D01*
X116880500Y-69825500D01*
X116880500Y-70079500D01*
X116880084Y-70186720D01*
X116878059Y-70258625D01*
X116873254Y-70302229D01*
X116864501Y-70324548D01*
X116850629Y-70332597D01*
X116838167Y-70333500D01*
X116821415Y-70331301D01*
X116809781Y-70320369D01*
X116802335Y-70294198D01*
X116798150Y-70246282D01*
X116796294Y-70170115D01*
X116795838Y-70059192D01*
X116795833Y-70037166D01*
X116795833Y-69740833D01*
X117272083Y-69740833D01*
X117425757Y-69740968D01*
X117542242Y-69741680D01*
X117626685Y-69743424D01*
X117684230Y-69746659D01*
X117720022Y-69751842D01*
X117739206Y-69759431D01*
X117746928Y-69769881D01*
X117748333Y-69783166D01*
X117748333Y-69783166D01*
G36*
X117769557Y-69033139D02*
X117657738Y-69143569D01*
X117598919Y-69200155D01*
X117556043Y-69233104D01*
X117553823Y-69233957D01*
X117553823Y-69041556D01*
X117546768Y-69008407D01*
X117544525Y-69004722D01*
X117527511Y-68988158D01*
X117496016Y-68976772D01*
X117442402Y-68969312D01*
X117359034Y-68964525D01*
X117285701Y-68962265D01*
X117049833Y-68956280D01*
X117049833Y-69031056D01*
X117049833Y-69105833D01*
X117266792Y-69105160D01*
X117380282Y-69102689D01*
X117458339Y-69095547D01*
X117507687Y-69082893D01*
X117525616Y-69072840D01*
X117553823Y-69041556D01*
X117553823Y-69233957D01*
X117515210Y-69248805D01*
X117462522Y-69253647D01*
X117417544Y-69254000D01*
X117334591Y-69252384D01*
X117229123Y-69248096D01*
X117120814Y-69241977D01*
X117095418Y-69240247D01*
X116901667Y-69226494D01*
X116901667Y-69165612D01*
X116901667Y-69104730D01*
X116578875Y-69110573D01*
X116256083Y-69116416D01*
X116255366Y-69185263D01*
X116248679Y-69227565D01*
X116225610Y-69271928D01*
X116180260Y-69327492D01*
X116129029Y-69381054D01*
X116003408Y-69508000D01*
X116127904Y-69633808D01*
X116186034Y-69694106D01*
X116224473Y-69742462D01*
X116247421Y-69790394D01*
X116259080Y-69849418D01*
X116263652Y-69931052D01*
X116264903Y-70009367D01*
X116266667Y-70161484D01*
X116335458Y-70168117D01*
X116383131Y-70177662D01*
X116401629Y-70202366D01*
X116404250Y-70238250D01*
X116404250Y-70301750D01*
X116208458Y-70307835D01*
X116012667Y-70313921D01*
X116012667Y-70239044D01*
X116016111Y-70188922D01*
X116033671Y-70168224D01*
X116076167Y-70164166D01*
X116139667Y-70164166D01*
X116139667Y-69998793D01*
X116138474Y-69913664D01*
X116132734Y-69858704D01*
X116119202Y-69821765D01*
X116094634Y-69790704D01*
X116080300Y-69776543D01*
X116031749Y-69733972D01*
X116004808Y-69724629D01*
X115993440Y-69749684D01*
X115991500Y-69793750D01*
X115987931Y-69843541D01*
X115970009Y-69863962D01*
X115928927Y-69867833D01*
X115866354Y-69867833D01*
X115860135Y-69714375D01*
X115853917Y-69560916D01*
X115605208Y-69554953D01*
X115356500Y-69548989D01*
X115356500Y-69486161D01*
X115356500Y-69423333D01*
X115610500Y-69423333D01*
X115864500Y-69423333D01*
X115864500Y-69275166D01*
X115864500Y-69127000D01*
X115928000Y-69127000D01*
X115968717Y-69130343D01*
X115986817Y-69148461D01*
X115991400Y-69193486D01*
X115991500Y-69211666D01*
X115995974Y-69272136D01*
X116012124Y-69292759D01*
X116044036Y-69275337D01*
X116072477Y-69247344D01*
X116094154Y-69219640D01*
X116107784Y-69185889D01*
X116115169Y-69136139D01*
X116118114Y-69060438D01*
X116118500Y-68993344D01*
X116118500Y-68788333D01*
X116055000Y-68788333D01*
X115991500Y-68788333D01*
X115991500Y-68449666D01*
X115991500Y-68111000D01*
X116052644Y-68111000D01*
X116094896Y-68105317D01*
X116116657Y-68080006D01*
X116127968Y-68035414D01*
X116133930Y-67979692D01*
X116137556Y-67896535D01*
X116138305Y-67800801D01*
X116137755Y-67765539D01*
X116133361Y-67571250D01*
X116200014Y-67564617D01*
X116266667Y-67557984D01*
X116266667Y-67834492D01*
X116266667Y-68111000D01*
X116330167Y-68111000D01*
X116393667Y-68111000D01*
X116393667Y-68448325D01*
X116393667Y-68785651D01*
X116324875Y-68792283D01*
X116281314Y-68799924D01*
X116266667Y-68813912D01*
X116266667Y-68661333D01*
X116266667Y-68449666D01*
X116266667Y-68238000D01*
X116203167Y-68238000D01*
X116139667Y-68238000D01*
X116139667Y-68449666D01*
X116139667Y-68661333D01*
X116203167Y-68661333D01*
X116266667Y-68661333D01*
X116266667Y-68813912D01*
X116260145Y-68820141D01*
X116251438Y-68865668D01*
X116249574Y-68888875D01*
X116243066Y-68978833D01*
X116572366Y-68978833D01*
X116901667Y-68978833D01*
X116901667Y-68894166D01*
X116901667Y-68809500D01*
X117225181Y-68809500D01*
X117548696Y-68809500D01*
X117659127Y-68921319D01*
X117769557Y-69033139D01*
X117769557Y-69033139D01*
X117769557Y-69033139D01*
G37*
X117769557Y-69033139D02*
X117657738Y-69143569D01*
X117598919Y-69200155D01*
X117556043Y-69233104D01*
X117553823Y-69233957D01*
X117553823Y-69041556D01*
X117546768Y-69008407D01*
X117544525Y-69004722D01*
X117527511Y-68988158D01*
X117496016Y-68976772D01*
X117442402Y-68969312D01*
X117359034Y-68964525D01*
X117285701Y-68962265D01*
X117049833Y-68956280D01*
X117049833Y-69031056D01*
X117049833Y-69105833D01*
X117266792Y-69105160D01*
X117380282Y-69102689D01*
X117458339Y-69095547D01*
X117507687Y-69082893D01*
X117525616Y-69072840D01*
X117553823Y-69041556D01*
X117553823Y-69233957D01*
X117515210Y-69248805D01*
X117462522Y-69253647D01*
X117417544Y-69254000D01*
X117334591Y-69252384D01*
X117229123Y-69248096D01*
X117120814Y-69241977D01*
X117095418Y-69240247D01*
X116901667Y-69226494D01*
X116901667Y-69165612D01*
X116901667Y-69104730D01*
X116578875Y-69110573D01*
X116256083Y-69116416D01*
X116255366Y-69185263D01*
X116248679Y-69227565D01*
X116225610Y-69271928D01*
X116180260Y-69327492D01*
X116129029Y-69381054D01*
X116003408Y-69508000D01*
X116127904Y-69633808D01*
X116186034Y-69694106D01*
X116224473Y-69742462D01*
X116247421Y-69790394D01*
X116259080Y-69849418D01*
X116263652Y-69931052D01*
X116264903Y-70009367D01*
X116266667Y-70161484D01*
X116335458Y-70168117D01*
X116383131Y-70177662D01*
X116401629Y-70202366D01*
X116404250Y-70238250D01*
X116404250Y-70301750D01*
X116208458Y-70307835D01*
X116012667Y-70313921D01*
X116012667Y-70239044D01*
X116016111Y-70188922D01*
X116033671Y-70168224D01*
X116076167Y-70164166D01*
X116139667Y-70164166D01*
X116139667Y-69998793D01*
X116138474Y-69913664D01*
X116132734Y-69858704D01*
X116119202Y-69821765D01*
X116094634Y-69790704D01*
X116080300Y-69776543D01*
X116031749Y-69733972D01*
X116004808Y-69724629D01*
X115993440Y-69749684D01*
X115991500Y-69793750D01*
X115987931Y-69843541D01*
X115970009Y-69863962D01*
X115928927Y-69867833D01*
X115866354Y-69867833D01*
X115860135Y-69714375D01*
X115853917Y-69560916D01*
X115605208Y-69554953D01*
X115356500Y-69548989D01*
X115356500Y-69486161D01*
X115356500Y-69423333D01*
X115610500Y-69423333D01*
X115864500Y-69423333D01*
X115864500Y-69275166D01*
X115864500Y-69127000D01*
X115928000Y-69127000D01*
X115968717Y-69130343D01*
X115986817Y-69148461D01*
X115991400Y-69193486D01*
X115991500Y-69211666D01*
X115995974Y-69272136D01*
X116012124Y-69292759D01*
X116044036Y-69275337D01*
X116072477Y-69247344D01*
X116094154Y-69219640D01*
X116107784Y-69185889D01*
X116115169Y-69136139D01*
X116118114Y-69060438D01*
X116118500Y-68993344D01*
X116118500Y-68788333D01*
X116055000Y-68788333D01*
X115991500Y-68788333D01*
X115991500Y-68449666D01*
X115991500Y-68111000D01*
X116052644Y-68111000D01*
X116094896Y-68105317D01*
X116116657Y-68080006D01*
X116127968Y-68035414D01*
X116133930Y-67979692D01*
X116137556Y-67896535D01*
X116138305Y-67800801D01*
X116137755Y-67765539D01*
X116133361Y-67571250D01*
X116200014Y-67564617D01*
X116266667Y-67557984D01*
X116266667Y-67834492D01*
X116266667Y-68111000D01*
X116330167Y-68111000D01*
X116393667Y-68111000D01*
X116393667Y-68448325D01*
X116393667Y-68785651D01*
X116324875Y-68792283D01*
X116281314Y-68799924D01*
X116266667Y-68813912D01*
X116266667Y-68661333D01*
X116266667Y-68449666D01*
X116266667Y-68238000D01*
X116203167Y-68238000D01*
X116139667Y-68238000D01*
X116139667Y-68449666D01*
X116139667Y-68661333D01*
X116203167Y-68661333D01*
X116266667Y-68661333D01*
X116266667Y-68813912D01*
X116260145Y-68820141D01*
X116251438Y-68865668D01*
X116249574Y-68888875D01*
X116243066Y-68978833D01*
X116572366Y-68978833D01*
X116901667Y-68978833D01*
X116901667Y-68894166D01*
X116901667Y-68809500D01*
X117225181Y-68809500D01*
X117548696Y-68809500D01*
X117659127Y-68921319D01*
X117769557Y-69033139D01*
X117769557Y-69033139D01*
G36*
X117727167Y-70312333D02*
X117600167Y-70312333D01*
X117473167Y-70312333D01*
X117473167Y-70238250D01*
X117473167Y-70164166D01*
X117600167Y-70164166D01*
X117727167Y-70164166D01*
X117727167Y-70238250D01*
X117727167Y-70312333D01*
X117727167Y-70312333D01*
X117727167Y-70312333D01*
G37*
X117727167Y-70312333D02*
X117600167Y-70312333D01*
X117473167Y-70312333D01*
X117473167Y-70238250D01*
X117473167Y-70164166D01*
X117600167Y-70164166D01*
X117727167Y-70164166D01*
X117727167Y-70238250D01*
X117727167Y-70312333D01*
X117727167Y-70312333D01*
G36*
X117198000Y-70238250D02*
X117195587Y-70266695D01*
X117181974Y-70282539D01*
X117147595Y-70289460D01*
X117082887Y-70291136D01*
X117060417Y-70291166D01*
X116986458Y-70290238D01*
X116945263Y-70285002D01*
X116927270Y-70271780D01*
X116922913Y-70246892D01*
X116922833Y-70238250D01*
X116925246Y-70209804D01*
X116938859Y-70193960D01*
X116973238Y-70187039D01*
X117037946Y-70185363D01*
X117060417Y-70185333D01*
X117134375Y-70186261D01*
X117175570Y-70191497D01*
X117193563Y-70204719D01*
X117197920Y-70229607D01*
X117198000Y-70238250D01*
X117198000Y-70238250D01*
X117198000Y-70238250D01*
G37*
X117198000Y-70238250D02*
X117195587Y-70266695D01*
X117181974Y-70282539D01*
X117147595Y-70289460D01*
X117082887Y-70291136D01*
X117060417Y-70291166D01*
X116986458Y-70290238D01*
X116945263Y-70285002D01*
X116927270Y-70271780D01*
X116922913Y-70246892D01*
X116922833Y-70238250D01*
X116925246Y-70209804D01*
X116938859Y-70193960D01*
X116973238Y-70187039D01*
X117037946Y-70185363D01*
X117060417Y-70185333D01*
X117134375Y-70186261D01*
X117175570Y-70191497D01*
X117193563Y-70204719D01*
X117197920Y-70229607D01*
X117198000Y-70238250D01*
X117198000Y-70238250D01*
G36*
X117198000Y-69941916D02*
X117195311Y-69971243D01*
X117180617Y-69987077D01*
X117143977Y-69993559D01*
X117075451Y-69994832D01*
X117071000Y-69994833D01*
X117000615Y-69993712D01*
X116962614Y-69987590D01*
X116947057Y-69972323D01*
X116944003Y-69943771D01*
X116944000Y-69941916D01*
X116946689Y-69912589D01*
X116961383Y-69896755D01*
X116998023Y-69890273D01*
X117066548Y-69889001D01*
X117071000Y-69889000D01*
X117141385Y-69890120D01*
X117179386Y-69896242D01*
X117194943Y-69911509D01*
X117197997Y-69940061D01*
X117198000Y-69941916D01*
X117198000Y-69941916D01*
X117198000Y-69941916D01*
G37*
X117198000Y-69941916D02*
X117195311Y-69971243D01*
X117180617Y-69987077D01*
X117143977Y-69993559D01*
X117075451Y-69994832D01*
X117071000Y-69994833D01*
X117000615Y-69993712D01*
X116962614Y-69987590D01*
X116947057Y-69972323D01*
X116944003Y-69943771D01*
X116944000Y-69941916D01*
X116946689Y-69912589D01*
X116961383Y-69896755D01*
X116998023Y-69890273D01*
X117066548Y-69889001D01*
X117071000Y-69889000D01*
X117141385Y-69890120D01*
X117179386Y-69896242D01*
X117194943Y-69911509D01*
X117197997Y-69940061D01*
X117198000Y-69941916D01*
X117198000Y-69941916D01*
G36*
X117724609Y-69969684D02*
X117715411Y-69983676D01*
X117687942Y-69991192D01*
X117634393Y-69994242D01*
X117546955Y-69994832D01*
X117538139Y-69994833D01*
X117447543Y-69994438D01*
X117391165Y-69991738D01*
X117360889Y-69984462D01*
X117348599Y-69970337D01*
X117346180Y-69947092D01*
X117346167Y-69941092D01*
X117346167Y-69887351D01*
X117531375Y-69893467D01*
X117620448Y-69897141D01*
X117675728Y-69902570D01*
X117705749Y-69912143D01*
X117719047Y-69928250D01*
X117723347Y-69947208D01*
X117724609Y-69969684D01*
X117724609Y-69969684D01*
X117724609Y-69969684D01*
G37*
X117724609Y-69969684D02*
X117715411Y-69983676D01*
X117687942Y-69991192D01*
X117634393Y-69994242D01*
X117546955Y-69994832D01*
X117538139Y-69994833D01*
X117447543Y-69994438D01*
X117391165Y-69991738D01*
X117360889Y-69984462D01*
X117348599Y-69970337D01*
X117346180Y-69947092D01*
X117346167Y-69941092D01*
X117346167Y-69887351D01*
X117531375Y-69893467D01*
X117620448Y-69897141D01*
X117675728Y-69902570D01*
X117705749Y-69912143D01*
X117719047Y-69928250D01*
X117723347Y-69947208D01*
X117724609Y-69969684D01*
X117724609Y-69969684D01*
D14*
X108000000Y-64000000D02*
X108000000Y-94500000D01*
X108000000Y-94500000D02*
X158500000Y-94500000D01*
X158500000Y-94500000D02*
X158500000Y-64000000D01*
X158500000Y-64000000D02*
X108000000Y-64000000D01*
D11*
X122147286Y-97772143D02*
X122111000Y-97808429D01*
X122002143Y-97844714D01*
X121929572Y-97844714D01*
X121820715Y-97808429D01*
X121748143Y-97735857D01*
X121711858Y-97663286D01*
X121675572Y-97518143D01*
X121675572Y-97409286D01*
X121711858Y-97264143D01*
X121748143Y-97191571D01*
X121820715Y-97119000D01*
X121929572Y-97082714D01*
X122002143Y-97082714D01*
X122111000Y-97119000D01*
X122147286Y-97155286D01*
X122437572Y-97155286D02*
X122473858Y-97119000D01*
X122546429Y-97082714D01*
X122727858Y-97082714D01*
X122800429Y-97119000D01*
X122836715Y-97155286D01*
X122873000Y-97227857D01*
X122873000Y-97300429D01*
X122836715Y-97409286D01*
X122401286Y-97844714D01*
X122873000Y-97844714D01*
X123344714Y-97082714D02*
X123417286Y-97082714D01*
X123489857Y-97119000D01*
X123526143Y-97155286D01*
X123562429Y-97227857D01*
X123598714Y-97373000D01*
X123598714Y-97554429D01*
X123562429Y-97699571D01*
X123526143Y-97772143D01*
X123489857Y-97808429D01*
X123417286Y-97844714D01*
X123344714Y-97844714D01*
X123272143Y-97808429D01*
X123235857Y-97772143D01*
X123199572Y-97699571D01*
X123163286Y-97554429D01*
X123163286Y-97373000D01*
X123199572Y-97227857D01*
X123235857Y-97155286D01*
X123272143Y-97119000D01*
X123344714Y-97082714D01*
X124324428Y-97844714D02*
X123889000Y-97844714D01*
X124106714Y-97844714D02*
X124106714Y-97082714D01*
X124034143Y-97191571D01*
X123961571Y-97264143D01*
X123889000Y-97300429D01*
X150277286Y-72122143D02*
X150241000Y-72158429D01*
X150132143Y-72194714D01*
X150059572Y-72194714D01*
X149950715Y-72158429D01*
X149878143Y-72085857D01*
X149841858Y-72013286D01*
X149805572Y-71868143D01*
X149805572Y-71759286D01*
X149841858Y-71614143D01*
X149878143Y-71541571D01*
X149950715Y-71469000D01*
X150059572Y-71432714D01*
X150132143Y-71432714D01*
X150241000Y-71469000D01*
X150277286Y-71505286D01*
X150531286Y-71432714D02*
X151003000Y-71432714D01*
X150749000Y-71723000D01*
X150857858Y-71723000D01*
X150930429Y-71759286D01*
X150966715Y-71795571D01*
X151003000Y-71868143D01*
X151003000Y-72049571D01*
X150966715Y-72122143D01*
X150930429Y-72158429D01*
X150857858Y-72194714D01*
X150640143Y-72194714D01*
X150567572Y-72158429D01*
X150531286Y-72122143D01*
X151474714Y-71432714D02*
X151547286Y-71432714D01*
X151619857Y-71469000D01*
X151656143Y-71505286D01*
X151692429Y-71577857D01*
X151728714Y-71723000D01*
X151728714Y-71904429D01*
X151692429Y-72049571D01*
X151656143Y-72122143D01*
X151619857Y-72158429D01*
X151547286Y-72194714D01*
X151474714Y-72194714D01*
X151402143Y-72158429D01*
X151365857Y-72122143D01*
X151329572Y-72049571D01*
X151293286Y-71904429D01*
X151293286Y-71723000D01*
X151329572Y-71577857D01*
X151365857Y-71505286D01*
X151402143Y-71469000D01*
X151474714Y-71432714D01*
X152454428Y-72194714D02*
X152019000Y-72194714D01*
X152236714Y-72194714D02*
X152236714Y-71432714D01*
X152164143Y-71541571D01*
X152091571Y-71614143D01*
X152019000Y-71650429D01*
X145324286Y-71872143D02*
X145288000Y-71908429D01*
X145179143Y-71944714D01*
X145106572Y-71944714D01*
X144997715Y-71908429D01*
X144925143Y-71835857D01*
X144888858Y-71763286D01*
X144852572Y-71618143D01*
X144852572Y-71509286D01*
X144888858Y-71364143D01*
X144925143Y-71291571D01*
X144997715Y-71219000D01*
X145106572Y-71182714D01*
X145179143Y-71182714D01*
X145288000Y-71219000D01*
X145324286Y-71255286D01*
X145578286Y-71182714D02*
X146050000Y-71182714D01*
X145796000Y-71473000D01*
X145904858Y-71473000D01*
X145977429Y-71509286D01*
X146013715Y-71545571D01*
X146050000Y-71618143D01*
X146050000Y-71799571D01*
X146013715Y-71872143D01*
X145977429Y-71908429D01*
X145904858Y-71944714D01*
X145687143Y-71944714D01*
X145614572Y-71908429D01*
X145578286Y-71872143D01*
X146521714Y-71182714D02*
X146594286Y-71182714D01*
X146666857Y-71219000D01*
X146703143Y-71255286D01*
X146739429Y-71327857D01*
X146775714Y-71473000D01*
X146775714Y-71654429D01*
X146739429Y-71799571D01*
X146703143Y-71872143D01*
X146666857Y-71908429D01*
X146594286Y-71944714D01*
X146521714Y-71944714D01*
X146449143Y-71908429D01*
X146412857Y-71872143D01*
X146376572Y-71799571D01*
X146340286Y-71654429D01*
X146340286Y-71473000D01*
X146376572Y-71327857D01*
X146412857Y-71255286D01*
X146449143Y-71219000D01*
X146521714Y-71182714D01*
X147066000Y-71255286D02*
X147102286Y-71219000D01*
X147174857Y-71182714D01*
X147356286Y-71182714D01*
X147428857Y-71219000D01*
X147465143Y-71255286D01*
X147501428Y-71327857D01*
X147501428Y-71400429D01*
X147465143Y-71509286D01*
X147029714Y-71944714D01*
X147501428Y-71944714D01*
X136647286Y-74844714D02*
X136393286Y-74481857D01*
X136211858Y-74844714D02*
X136211858Y-74082714D01*
X136502143Y-74082714D01*
X136574715Y-74119000D01*
X136611000Y-74155286D01*
X136647286Y-74227857D01*
X136647286Y-74336714D01*
X136611000Y-74409286D01*
X136574715Y-74445571D01*
X136502143Y-74481857D01*
X136211858Y-74481857D01*
X137373000Y-74844714D02*
X136937572Y-74844714D01*
X137155286Y-74844714D02*
X137155286Y-74082714D01*
X137082715Y-74191571D01*
X137010143Y-74264143D01*
X136937572Y-74300429D01*
X137844714Y-74082714D02*
X137917286Y-74082714D01*
X137989857Y-74119000D01*
X138026143Y-74155286D01*
X138062429Y-74227857D01*
X138098714Y-74373000D01*
X138098714Y-74554429D01*
X138062429Y-74699571D01*
X138026143Y-74772143D01*
X137989857Y-74808429D01*
X137917286Y-74844714D01*
X137844714Y-74844714D01*
X137772143Y-74808429D01*
X137735857Y-74772143D01*
X137699572Y-74699571D01*
X137663286Y-74554429D01*
X137663286Y-74373000D01*
X137699572Y-74227857D01*
X137735857Y-74155286D01*
X137772143Y-74119000D01*
X137844714Y-74082714D01*
X138824428Y-74844714D02*
X138389000Y-74844714D01*
X138606714Y-74844714D02*
X138606714Y-74082714D01*
X138534143Y-74191571D01*
X138461571Y-74264143D01*
X138389000Y-74300429D01*
X120147286Y-86494714D02*
X119893286Y-86131857D01*
X119711858Y-86494714D02*
X119711858Y-85732714D01*
X120002143Y-85732714D01*
X120074715Y-85769000D01*
X120111000Y-85805286D01*
X120147286Y-85877857D01*
X120147286Y-85986714D01*
X120111000Y-86059286D01*
X120074715Y-86095571D01*
X120002143Y-86131857D01*
X119711858Y-86131857D01*
X120873000Y-86494714D02*
X120437572Y-86494714D01*
X120655286Y-86494714D02*
X120655286Y-85732714D01*
X120582715Y-85841571D01*
X120510143Y-85914143D01*
X120437572Y-85950429D01*
X121344714Y-85732714D02*
X121417286Y-85732714D01*
X121489857Y-85769000D01*
X121526143Y-85805286D01*
X121562429Y-85877857D01*
X121598714Y-86023000D01*
X121598714Y-86204429D01*
X121562429Y-86349571D01*
X121526143Y-86422143D01*
X121489857Y-86458429D01*
X121417286Y-86494714D01*
X121344714Y-86494714D01*
X121272143Y-86458429D01*
X121235857Y-86422143D01*
X121199572Y-86349571D01*
X121163286Y-86204429D01*
X121163286Y-86023000D01*
X121199572Y-85877857D01*
X121235857Y-85805286D01*
X121272143Y-85769000D01*
X121344714Y-85732714D01*
X121889000Y-85805286D02*
X121925286Y-85769000D01*
X121997857Y-85732714D01*
X122179286Y-85732714D01*
X122251857Y-85769000D01*
X122288143Y-85805286D01*
X122324428Y-85877857D01*
X122324428Y-85950429D01*
X122288143Y-86059286D01*
X121852714Y-86494714D01*
X122324428Y-86494714D01*
X127147286Y-77344714D02*
X126893286Y-76981857D01*
X126711858Y-77344714D02*
X126711858Y-76582714D01*
X127002143Y-76582714D01*
X127074715Y-76619000D01*
X127111000Y-76655286D01*
X127147286Y-76727857D01*
X127147286Y-76836714D01*
X127111000Y-76909286D01*
X127074715Y-76945571D01*
X127002143Y-76981857D01*
X126711858Y-76981857D01*
X127873000Y-77344714D02*
X127437572Y-77344714D01*
X127655286Y-77344714D02*
X127655286Y-76582714D01*
X127582715Y-76691571D01*
X127510143Y-76764143D01*
X127437572Y-76800429D01*
X128344714Y-76582714D02*
X128417286Y-76582714D01*
X128489857Y-76619000D01*
X128526143Y-76655286D01*
X128562429Y-76727857D01*
X128598714Y-76873000D01*
X128598714Y-77054429D01*
X128562429Y-77199571D01*
X128526143Y-77272143D01*
X128489857Y-77308429D01*
X128417286Y-77344714D01*
X128344714Y-77344714D01*
X128272143Y-77308429D01*
X128235857Y-77272143D01*
X128199572Y-77199571D01*
X128163286Y-77054429D01*
X128163286Y-76873000D01*
X128199572Y-76727857D01*
X128235857Y-76655286D01*
X128272143Y-76619000D01*
X128344714Y-76582714D01*
X129251857Y-76836714D02*
X129251857Y-77344714D01*
X129070428Y-76546429D02*
X128889000Y-77090714D01*
X129360714Y-77090714D01*
X127147286Y-74844714D02*
X126893286Y-74481857D01*
X126711858Y-74844714D02*
X126711858Y-74082714D01*
X127002143Y-74082714D01*
X127074715Y-74119000D01*
X127111000Y-74155286D01*
X127147286Y-74227857D01*
X127147286Y-74336714D01*
X127111000Y-74409286D01*
X127074715Y-74445571D01*
X127002143Y-74481857D01*
X126711858Y-74481857D01*
X127873000Y-74844714D02*
X127437572Y-74844714D01*
X127655286Y-74844714D02*
X127655286Y-74082714D01*
X127582715Y-74191571D01*
X127510143Y-74264143D01*
X127437572Y-74300429D01*
X128344714Y-74082714D02*
X128417286Y-74082714D01*
X128489857Y-74119000D01*
X128526143Y-74155286D01*
X128562429Y-74227857D01*
X128598714Y-74373000D01*
X128598714Y-74554429D01*
X128562429Y-74699571D01*
X128526143Y-74772143D01*
X128489857Y-74808429D01*
X128417286Y-74844714D01*
X128344714Y-74844714D01*
X128272143Y-74808429D01*
X128235857Y-74772143D01*
X128199572Y-74699571D01*
X128163286Y-74554429D01*
X128163286Y-74373000D01*
X128199572Y-74227857D01*
X128235857Y-74155286D01*
X128272143Y-74119000D01*
X128344714Y-74082714D01*
X129288143Y-74082714D02*
X128925286Y-74082714D01*
X128889000Y-74445571D01*
X128925286Y-74409286D01*
X128997857Y-74373000D01*
X129179286Y-74373000D01*
X129251857Y-74409286D01*
X129288143Y-74445571D01*
X129324428Y-74518143D01*
X129324428Y-74699571D01*
X129288143Y-74772143D01*
X129251857Y-74808429D01*
X129179286Y-74844714D01*
X128997857Y-74844714D01*
X128925286Y-74808429D01*
X128889000Y-74772143D01*
X127147286Y-72344714D02*
X126893286Y-71981857D01*
X126711858Y-72344714D02*
X126711858Y-71582714D01*
X127002143Y-71582714D01*
X127074715Y-71619000D01*
X127111000Y-71655286D01*
X127147286Y-71727857D01*
X127147286Y-71836714D01*
X127111000Y-71909286D01*
X127074715Y-71945571D01*
X127002143Y-71981857D01*
X126711858Y-71981857D01*
X127873000Y-72344714D02*
X127437572Y-72344714D01*
X127655286Y-72344714D02*
X127655286Y-71582714D01*
X127582715Y-71691571D01*
X127510143Y-71764143D01*
X127437572Y-71800429D01*
X128344714Y-71582714D02*
X128417286Y-71582714D01*
X128489857Y-71619000D01*
X128526143Y-71655286D01*
X128562429Y-71727857D01*
X128598714Y-71873000D01*
X128598714Y-72054429D01*
X128562429Y-72199571D01*
X128526143Y-72272143D01*
X128489857Y-72308429D01*
X128417286Y-72344714D01*
X128344714Y-72344714D01*
X128272143Y-72308429D01*
X128235857Y-72272143D01*
X128199572Y-72199571D01*
X128163286Y-72054429D01*
X128163286Y-71873000D01*
X128199572Y-71727857D01*
X128235857Y-71655286D01*
X128272143Y-71619000D01*
X128344714Y-71582714D01*
X129251857Y-71582714D02*
X129106714Y-71582714D01*
X129034143Y-71619000D01*
X128997857Y-71655286D01*
X128925286Y-71764143D01*
X128889000Y-71909286D01*
X128889000Y-72199571D01*
X128925286Y-72272143D01*
X128961571Y-72308429D01*
X129034143Y-72344714D01*
X129179286Y-72344714D01*
X129251857Y-72308429D01*
X129288143Y-72272143D01*
X129324428Y-72199571D01*
X129324428Y-72018143D01*
X129288143Y-71945571D01*
X129251857Y-71909286D01*
X129179286Y-71873000D01*
X129034143Y-71873000D01*
X128961571Y-71909286D01*
X128925286Y-71945571D01*
X128889000Y-72018143D01*
X136647286Y-69844714D02*
X136393286Y-69481857D01*
X136211858Y-69844714D02*
X136211858Y-69082714D01*
X136502143Y-69082714D01*
X136574715Y-69119000D01*
X136611000Y-69155286D01*
X136647286Y-69227857D01*
X136647286Y-69336714D01*
X136611000Y-69409286D01*
X136574715Y-69445571D01*
X136502143Y-69481857D01*
X136211858Y-69481857D01*
X137373000Y-69844714D02*
X136937572Y-69844714D01*
X137155286Y-69844714D02*
X137155286Y-69082714D01*
X137082715Y-69191571D01*
X137010143Y-69264143D01*
X136937572Y-69300429D01*
X137844714Y-69082714D02*
X137917286Y-69082714D01*
X137989857Y-69119000D01*
X138026143Y-69155286D01*
X138062429Y-69227857D01*
X138098714Y-69373000D01*
X138098714Y-69554429D01*
X138062429Y-69699571D01*
X138026143Y-69772143D01*
X137989857Y-69808429D01*
X137917286Y-69844714D01*
X137844714Y-69844714D01*
X137772143Y-69808429D01*
X137735857Y-69772143D01*
X137699572Y-69699571D01*
X137663286Y-69554429D01*
X137663286Y-69373000D01*
X137699572Y-69227857D01*
X137735857Y-69155286D01*
X137772143Y-69119000D01*
X137844714Y-69082714D01*
X138461571Y-69844714D02*
X138606714Y-69844714D01*
X138679286Y-69808429D01*
X138715571Y-69772143D01*
X138788143Y-69663286D01*
X138824428Y-69518143D01*
X138824428Y-69227857D01*
X138788143Y-69155286D01*
X138751857Y-69119000D01*
X138679286Y-69082714D01*
X138534143Y-69082714D01*
X138461571Y-69119000D01*
X138425286Y-69155286D01*
X138389000Y-69227857D01*
X138389000Y-69409286D01*
X138425286Y-69481857D01*
X138461571Y-69518143D01*
X138534143Y-69554429D01*
X138679286Y-69554429D01*
X138751857Y-69518143D01*
X138788143Y-69481857D01*
X138824428Y-69409286D01*
X117147286Y-91994714D02*
X116893286Y-91631857D01*
X116711858Y-91994714D02*
X116711858Y-91232714D01*
X117002143Y-91232714D01*
X117074715Y-91269000D01*
X117111000Y-91305286D01*
X117147286Y-91377857D01*
X117147286Y-91486714D01*
X117111000Y-91559286D01*
X117074715Y-91595571D01*
X117002143Y-91631857D01*
X116711858Y-91631857D01*
X117437572Y-91305286D02*
X117473858Y-91269000D01*
X117546429Y-91232714D01*
X117727858Y-91232714D01*
X117800429Y-91269000D01*
X117836715Y-91305286D01*
X117873000Y-91377857D01*
X117873000Y-91450429D01*
X117836715Y-91559286D01*
X117401286Y-91994714D01*
X117873000Y-91994714D01*
X118344714Y-91232714D02*
X118417286Y-91232714D01*
X118489857Y-91269000D01*
X118526143Y-91305286D01*
X118562429Y-91377857D01*
X118598714Y-91523000D01*
X118598714Y-91704429D01*
X118562429Y-91849571D01*
X118526143Y-91922143D01*
X118489857Y-91958429D01*
X118417286Y-91994714D01*
X118344714Y-91994714D01*
X118272143Y-91958429D01*
X118235857Y-91922143D01*
X118199572Y-91849571D01*
X118163286Y-91704429D01*
X118163286Y-91523000D01*
X118199572Y-91377857D01*
X118235857Y-91305286D01*
X118272143Y-91269000D01*
X118344714Y-91232714D01*
X119324428Y-91994714D02*
X118889000Y-91994714D01*
X119106714Y-91994714D02*
X119106714Y-91232714D01*
X119034143Y-91341571D01*
X118961571Y-91414143D01*
X118889000Y-91450429D01*
X122647286Y-91994714D02*
X122393286Y-91631857D01*
X122211858Y-91994714D02*
X122211858Y-91232714D01*
X122502143Y-91232714D01*
X122574715Y-91269000D01*
X122611000Y-91305286D01*
X122647286Y-91377857D01*
X122647286Y-91486714D01*
X122611000Y-91559286D01*
X122574715Y-91595571D01*
X122502143Y-91631857D01*
X122211858Y-91631857D01*
X122937572Y-91305286D02*
X122973858Y-91269000D01*
X123046429Y-91232714D01*
X123227858Y-91232714D01*
X123300429Y-91269000D01*
X123336715Y-91305286D01*
X123373000Y-91377857D01*
X123373000Y-91450429D01*
X123336715Y-91559286D01*
X122901286Y-91994714D01*
X123373000Y-91994714D01*
X123844714Y-91232714D02*
X123917286Y-91232714D01*
X123989857Y-91269000D01*
X124026143Y-91305286D01*
X124062429Y-91377857D01*
X124098714Y-91523000D01*
X124098714Y-91704429D01*
X124062429Y-91849571D01*
X124026143Y-91922143D01*
X123989857Y-91958429D01*
X123917286Y-91994714D01*
X123844714Y-91994714D01*
X123772143Y-91958429D01*
X123735857Y-91922143D01*
X123699572Y-91849571D01*
X123663286Y-91704429D01*
X123663286Y-91523000D01*
X123699572Y-91377857D01*
X123735857Y-91305286D01*
X123772143Y-91269000D01*
X123844714Y-91232714D01*
X124389000Y-91305286D02*
X124425286Y-91269000D01*
X124497857Y-91232714D01*
X124679286Y-91232714D01*
X124751857Y-91269000D01*
X124788143Y-91305286D01*
X124824428Y-91377857D01*
X124824428Y-91450429D01*
X124788143Y-91559286D01*
X124352714Y-91994714D01*
X124824428Y-91994714D01*
X113582714Y-87205428D02*
X113582714Y-86769999D01*
X114344714Y-86987713D02*
X113582714Y-86987713D01*
X114344714Y-86515999D02*
X113582714Y-86515999D01*
X113945571Y-86515999D02*
X113945571Y-86080571D01*
X114344714Y-86080571D02*
X113582714Y-86080571D01*
X113655286Y-85753999D02*
X113619000Y-85717713D01*
X113582714Y-85645142D01*
X113582714Y-85463713D01*
X113619000Y-85391142D01*
X113655286Y-85354856D01*
X113727857Y-85318571D01*
X113800429Y-85318571D01*
X113909286Y-85354856D01*
X114344714Y-85790285D01*
X114344714Y-85318571D01*
X113582714Y-84846857D02*
X113582714Y-84774285D01*
X113619000Y-84701714D01*
X113655286Y-84665428D01*
X113727857Y-84629142D01*
X113873000Y-84592857D01*
X114054429Y-84592857D01*
X114199571Y-84629142D01*
X114272143Y-84665428D01*
X114308429Y-84701714D01*
X114344714Y-84774285D01*
X114344714Y-84846857D01*
X114308429Y-84919428D01*
X114272143Y-84955714D01*
X114199571Y-84991999D01*
X114054429Y-85028285D01*
X113873000Y-85028285D01*
X113727857Y-84991999D01*
X113655286Y-84955714D01*
X113619000Y-84919428D01*
X113582714Y-84846857D01*
X114344714Y-83867143D02*
X114344714Y-84302571D01*
X114344714Y-84084857D02*
X113582714Y-84084857D01*
X113691571Y-84157428D01*
X113764143Y-84230000D01*
X113800429Y-84302571D01*
X115582714Y-80306285D02*
X116199571Y-80306285D01*
X116272143Y-80270000D01*
X116308429Y-80233714D01*
X116344714Y-80161143D01*
X116344714Y-80016000D01*
X116308429Y-79943428D01*
X116272143Y-79907143D01*
X116199571Y-79870857D01*
X115582714Y-79870857D01*
X116344714Y-79108857D02*
X116344714Y-79544285D01*
X116344714Y-79326571D02*
X115582714Y-79326571D01*
X115691571Y-79399142D01*
X115764143Y-79471714D01*
X115800429Y-79544285D01*
X115582714Y-78637143D02*
X115582714Y-78564571D01*
X115619000Y-78492000D01*
X115655286Y-78455714D01*
X115727857Y-78419428D01*
X115873000Y-78383143D01*
X116054429Y-78383143D01*
X116199571Y-78419428D01*
X116272143Y-78455714D01*
X116308429Y-78492000D01*
X116344714Y-78564571D01*
X116344714Y-78637143D01*
X116308429Y-78709714D01*
X116272143Y-78746000D01*
X116199571Y-78782285D01*
X116054429Y-78818571D01*
X115873000Y-78818571D01*
X115727857Y-78782285D01*
X115655286Y-78746000D01*
X115619000Y-78709714D01*
X115582714Y-78637143D01*
X116344714Y-77657429D02*
X116344714Y-78092857D01*
X116344714Y-77875143D02*
X115582714Y-77875143D01*
X115691571Y-77947714D01*
X115764143Y-78020286D01*
X115800429Y-78092857D01*
X119844714Y-89288142D02*
X119082714Y-89288142D01*
X119082714Y-89106714D01*
X119119000Y-88997857D01*
X119191571Y-88925285D01*
X119264143Y-88889000D01*
X119409286Y-88852714D01*
X119518143Y-88852714D01*
X119663286Y-88889000D01*
X119735857Y-88925285D01*
X119808429Y-88997857D01*
X119844714Y-89106714D01*
X119844714Y-89288142D01*
X119155286Y-88562428D02*
X119119000Y-88526142D01*
X119082714Y-88453571D01*
X119082714Y-88272142D01*
X119119000Y-88199571D01*
X119155286Y-88163285D01*
X119227857Y-88127000D01*
X119300429Y-88127000D01*
X119409286Y-88163285D01*
X119844714Y-88598714D01*
X119844714Y-88127000D01*
X119082714Y-87655286D02*
X119082714Y-87582714D01*
X119119000Y-87510143D01*
X119155286Y-87473857D01*
X119227857Y-87437571D01*
X119373000Y-87401286D01*
X119554429Y-87401286D01*
X119699571Y-87437571D01*
X119772143Y-87473857D01*
X119808429Y-87510143D01*
X119844714Y-87582714D01*
X119844714Y-87655286D01*
X119808429Y-87727857D01*
X119772143Y-87764143D01*
X119699571Y-87800428D01*
X119554429Y-87836714D01*
X119373000Y-87836714D01*
X119227857Y-87800428D01*
X119155286Y-87764143D01*
X119119000Y-87727857D01*
X119082714Y-87655286D01*
X119844714Y-86675572D02*
X119844714Y-87111000D01*
X119844714Y-86893286D02*
X119082714Y-86893286D01*
X119191571Y-86965857D01*
X119264143Y-87038429D01*
X119300429Y-87111000D01*
D14*
X154785714Y-94952381D02*
X154785714Y-95761905D01*
X154833333Y-95857143D01*
X154880952Y-95904762D01*
X154976190Y-95952381D01*
X155166667Y-95952381D01*
X155261905Y-95904762D01*
X155309524Y-95857143D01*
X155357143Y-95761905D01*
X155357143Y-94952381D01*
X155738095Y-94952381D02*
X156357143Y-94952381D01*
X156023809Y-95333333D01*
X156166667Y-95333333D01*
X156261905Y-95380952D01*
X156309524Y-95428571D01*
X156357143Y-95523810D01*
X156357143Y-95761905D01*
X156309524Y-95857143D01*
X156261905Y-95904762D01*
X156166667Y-95952381D01*
X155880952Y-95952381D01*
X155785714Y-95904762D01*
X155738095Y-95857143D01*
X156976190Y-94952381D02*
X157071429Y-94952381D01*
X157166667Y-95000000D01*
X157214286Y-95047619D01*
X157261905Y-95142857D01*
X157309524Y-95333333D01*
X157309524Y-95571429D01*
X157261905Y-95761905D01*
X157214286Y-95857143D01*
X157166667Y-95904762D01*
X157071429Y-95952381D01*
X156976190Y-95952381D01*
X156880952Y-95904762D01*
X156833333Y-95857143D01*
X156785714Y-95761905D01*
X156738095Y-95571429D01*
X156738095Y-95333333D01*
X156785714Y-95142857D01*
X156833333Y-95047619D01*
X156880952Y-95000000D01*
X156976190Y-94952381D01*
X158261905Y-95952381D02*
X157690476Y-95952381D01*
X157976190Y-95952381D02*
X157976190Y-94952381D01*
X157880952Y-95095238D01*
X157785714Y-95190476D01*
X157690476Y-95238095D01*
M02*
