M48
;DRILL file {KiCad 4.0.0-rc1-stable} date 05/10/2017 18:19:57
;FORMAT={2:4/ absolute / inch / suppress leading zeros}
FMAT,2
INCH,TZ
T1C0.013
T2C0.030
T3C0.039
T4C0.126
%
G90
G05
M72
T1
X44850Y-29300
X48528Y-32335
X48850Y-33150
X50350Y-27300
X54815Y-38290
T2
X54070Y-30050
X54070Y-30840
X54070Y-31630
X54070Y-32420
X54070Y-33210
X54070Y-34000
X54070Y-34790
X54070Y-35580
X54070Y-36370
X54070Y-37160
X62730Y-30050
X62730Y-30840
X62730Y-31630
X62730Y-32420
X62730Y-33210
X62730Y-34000
X62730Y-34790
X62730Y-35580
X62730Y-36370
X62730Y-37160
T3
X47400Y-39400
X49400Y-39400
X50217Y-26280
X51217Y-26280
X51300Y-27900
X51300Y-28900
X51300Y-29900
X51300Y-30900
X51300Y-33900
X51300Y-34900
X51300Y-35900
X51300Y-36900
X52165Y-39173
X52217Y-26280
X52300Y-28900
X52300Y-29900
X52300Y-30900
X52300Y-31900
X52300Y-32900
X52300Y-33900
X52300Y-34900
X52300Y-35900
X53165Y-39173
X53217Y-26280
X54217Y-26280
X55217Y-26280
T4
X43800Y-26610
X43800Y-38878
X61909Y-26610
X61909Y-38878
T0
M30
