G04 #@! TF.FileFunction,Copper,L2,Bot,Signal*
%FSLAX46Y46*%
G04 Gerber Fmt 4.6, Leading zero omitted, Abs format (unit mm)*
G04 Created by KiCad (PCBNEW 4.0.0-rc1-stable) date 13/06/2017 23:09:15*
%MOMM*%
G01*
G04 APERTURE LIST*
%ADD10C,0.076200*%
%ADD11C,1.524000*%
%ADD12R,1.000000X1.250000*%
%ADD13R,1.700000X1.700000*%
%ADD14O,1.700000X1.700000*%
%ADD15R,0.700000X1.300000*%
%ADD16C,0.685800*%
%ADD17C,0.304800*%
%ADD18C,0.152400*%
%ADD19C,0.254000*%
G04 APERTURE END LIST*
D10*
D11*
X137501800Y-94500000D03*
X137501800Y-92493400D03*
X137501800Y-90486800D03*
X137501800Y-88480200D03*
X137501800Y-86473600D03*
X137501800Y-84467000D03*
X137501800Y-82460400D03*
X137501800Y-80453800D03*
X137501800Y-78447200D03*
X137501800Y-76440600D03*
X159498200Y-76440600D03*
X159498200Y-78447200D03*
X159498200Y-80453800D03*
X159498200Y-82460400D03*
X159498200Y-84467000D03*
X159498200Y-86473600D03*
X159498200Y-88480200D03*
X159498200Y-90486800D03*
X159498200Y-92493400D03*
X159498200Y-94500000D03*
D12*
X126000000Y-96000000D03*
X128000000Y-96000000D03*
D13*
X133000000Y-71000000D03*
D14*
X133000000Y-73540000D03*
X130460000Y-73540000D03*
X133000000Y-76080000D03*
X130460000Y-76080000D03*
X133000000Y-78620000D03*
X130460000Y-78620000D03*
X130460000Y-81160000D03*
X130460000Y-83700000D03*
X133000000Y-86240000D03*
X130460000Y-86240000D03*
X133000000Y-88780000D03*
X130460000Y-88780000D03*
X133000000Y-91320000D03*
X130460000Y-91320000D03*
X133000000Y-93860000D03*
D15*
X127450000Y-82500000D03*
X125550000Y-82500000D03*
X125550000Y-89000000D03*
X127450000Y-89000000D03*
X125550000Y-91500000D03*
X127450000Y-91500000D03*
X127450000Y-85500000D03*
X125550000Y-85500000D03*
D13*
X132500000Y-99500000D03*
D14*
X135040000Y-99500000D03*
D13*
X121500000Y-100000000D03*
X125000000Y-100000000D03*
D11*
X109000000Y-93500000D03*
X111540000Y-93500000D03*
X154720000Y-93500000D03*
X157260000Y-93500000D03*
X157260000Y-65560000D03*
X154720000Y-65560000D03*
X152180000Y-65560000D03*
X149640000Y-65560000D03*
X147100000Y-65560000D03*
X144560000Y-65560000D03*
X142020000Y-65560000D03*
X139480000Y-65560000D03*
X136940000Y-65560000D03*
X134400000Y-65560000D03*
X131860000Y-65560000D03*
X129320000Y-65560000D03*
X126780000Y-65560000D03*
X124240000Y-65560000D03*
X121700000Y-65560000D03*
X119160000Y-65560000D03*
X116620000Y-65560000D03*
X114080000Y-65560000D03*
X111540000Y-65560000D03*
X109000000Y-65560000D03*
D16*
X143383000Y-69723000D03*
X116000000Y-76000000D03*
X119500000Y-79000000D03*
X118000000Y-80000000D03*
D17*
X126000000Y-96000000D02*
X126000000Y-99000000D01*
X126000000Y-99000000D02*
X125000000Y-100000000D01*
X128000000Y-96000000D02*
X128000000Y-97000000D01*
X128000000Y-97000000D02*
X130500000Y-99500000D01*
X128000000Y-96000000D02*
X128000000Y-95000000D01*
X128000000Y-95000000D02*
X125550000Y-92550000D01*
X130500000Y-99500000D02*
X132500000Y-99500000D01*
X125550000Y-92550000D02*
X125550000Y-91500000D01*
X133000000Y-73540000D02*
X133710000Y-73540000D01*
X133710000Y-73540000D02*
X139400000Y-67850000D01*
X139400000Y-67850000D02*
X139400000Y-66060000D01*
X130460000Y-76080000D02*
X124600000Y-76080000D01*
X124600000Y-76080000D02*
X114080000Y-65560000D01*
X127450000Y-82500000D02*
X127450000Y-81450000D01*
X125000000Y-79000000D02*
X119500000Y-79000000D01*
X127450000Y-81450000D02*
X125000000Y-79000000D01*
X133000000Y-86240000D02*
X131760000Y-85000000D01*
X129500000Y-85000000D02*
X127450000Y-82950000D01*
X131760000Y-85000000D02*
X129500000Y-85000000D01*
X127450000Y-82950000D02*
X127450000Y-82500000D01*
X127450000Y-85500000D02*
X127450000Y-84950000D01*
X127450000Y-84950000D02*
X126500000Y-84000000D01*
X125000000Y-80000000D02*
X118000000Y-80000000D01*
X126500000Y-81500000D02*
X125000000Y-80000000D01*
X126500000Y-84000000D02*
X126500000Y-81500000D01*
X130460000Y-86240000D02*
X129720000Y-85500000D01*
X129720000Y-85500000D02*
X127450000Y-85500000D01*
D18*
X130200000Y-86500000D02*
X130460000Y-86240000D01*
D17*
X127450000Y-89000000D02*
X130240000Y-89000000D01*
X130240000Y-89000000D02*
X130460000Y-88780000D01*
D18*
X130240000Y-89000000D02*
X130460000Y-88780000D01*
D17*
X127450000Y-91500000D02*
X130280000Y-91500000D01*
X130280000Y-91500000D02*
X130460000Y-91320000D01*
D18*
X130280000Y-91500000D02*
X130460000Y-91320000D01*
D17*
X125550000Y-89000000D02*
X124814000Y-89000000D01*
X116967000Y-70987000D02*
X111540000Y-65560000D01*
X116967000Y-81153000D02*
X116967000Y-70987000D01*
X124814000Y-89000000D02*
X116967000Y-81153000D01*
D19*
G36*
X108421824Y-64548144D02*
X108338445Y-64718840D01*
X109000000Y-65380395D01*
X109661555Y-64718840D01*
X109578176Y-64548144D01*
X109302686Y-64456000D01*
X111218774Y-64456000D01*
X110893388Y-64590446D01*
X110571577Y-64911697D01*
X110397199Y-65331646D01*
X110396802Y-65786359D01*
X110570446Y-66206612D01*
X110891697Y-66528423D01*
X111311646Y-66702801D01*
X111766359Y-66703198D01*
X111881345Y-66655687D01*
X116433600Y-71207942D01*
X116433600Y-81153000D01*
X116474203Y-81357123D01*
X116589829Y-81530171D01*
X124436829Y-89377171D01*
X124609877Y-89492797D01*
X124811536Y-89532910D01*
X124811536Y-89650000D01*
X124838103Y-89791190D01*
X124921546Y-89920865D01*
X125048866Y-90007859D01*
X125200000Y-90038464D01*
X125900000Y-90038464D01*
X126041190Y-90011897D01*
X126170865Y-89928454D01*
X126257859Y-89801134D01*
X126288464Y-89650000D01*
X126288464Y-88350000D01*
X126711536Y-88350000D01*
X126711536Y-89650000D01*
X126738103Y-89791190D01*
X126821546Y-89920865D01*
X126948866Y-90007859D01*
X127100000Y-90038464D01*
X127800000Y-90038464D01*
X127941190Y-90011897D01*
X128070865Y-89928454D01*
X128157859Y-89801134D01*
X128188464Y-89650000D01*
X128188464Y-89533400D01*
X129487226Y-89533400D01*
X129565435Y-89650448D01*
X129964800Y-89917296D01*
X130435883Y-90011000D01*
X130484117Y-90011000D01*
X130955200Y-89917296D01*
X131354565Y-89650448D01*
X131621413Y-89251083D01*
X131715117Y-88780000D01*
X131744883Y-88780000D01*
X131838587Y-89251083D01*
X132105435Y-89650448D01*
X132504800Y-89917296D01*
X132975883Y-90011000D01*
X133024117Y-90011000D01*
X133495200Y-89917296D01*
X133894565Y-89650448D01*
X134161413Y-89251083D01*
X134255117Y-88780000D01*
X134161413Y-88308917D01*
X133894565Y-87909552D01*
X133495200Y-87642704D01*
X133024117Y-87549000D01*
X132975883Y-87549000D01*
X132504800Y-87642704D01*
X132105435Y-87909552D01*
X131838587Y-88308917D01*
X131744883Y-88780000D01*
X131715117Y-88780000D01*
X131621413Y-88308917D01*
X131354565Y-87909552D01*
X130955200Y-87642704D01*
X130484117Y-87549000D01*
X130435883Y-87549000D01*
X129964800Y-87642704D01*
X129565435Y-87909552D01*
X129298587Y-88308917D01*
X129267222Y-88466600D01*
X128188464Y-88466600D01*
X128188464Y-88350000D01*
X128161897Y-88208810D01*
X128078454Y-88079135D01*
X127951134Y-87992141D01*
X127800000Y-87961536D01*
X127100000Y-87961536D01*
X126958810Y-87988103D01*
X126829135Y-88071546D01*
X126742141Y-88198866D01*
X126711536Y-88350000D01*
X126288464Y-88350000D01*
X126261897Y-88208810D01*
X126178454Y-88079135D01*
X126051134Y-87992141D01*
X125900000Y-87961536D01*
X125200000Y-87961536D01*
X125058810Y-87988103D01*
X124929135Y-88071546D01*
X124842141Y-88198866D01*
X124829522Y-88261180D01*
X122290592Y-85722250D01*
X124819000Y-85722250D01*
X124819000Y-86225785D01*
X124877004Y-86365819D01*
X124984180Y-86472996D01*
X125124214Y-86531000D01*
X125327750Y-86531000D01*
X125423000Y-86435750D01*
X125423000Y-85627000D01*
X125677000Y-85627000D01*
X125677000Y-86435750D01*
X125772250Y-86531000D01*
X125975786Y-86531000D01*
X126115820Y-86472996D01*
X126222996Y-86365819D01*
X126281000Y-86225785D01*
X126281000Y-85722250D01*
X126185750Y-85627000D01*
X125677000Y-85627000D01*
X125423000Y-85627000D01*
X124914250Y-85627000D01*
X124819000Y-85722250D01*
X122290592Y-85722250D01*
X121342557Y-84774215D01*
X124819000Y-84774215D01*
X124819000Y-85277750D01*
X124914250Y-85373000D01*
X125423000Y-85373000D01*
X125423000Y-84564250D01*
X125677000Y-84564250D01*
X125677000Y-85373000D01*
X126185750Y-85373000D01*
X126281000Y-85277750D01*
X126281000Y-84774215D01*
X126222996Y-84634181D01*
X126115820Y-84527004D01*
X125975786Y-84469000D01*
X125772250Y-84469000D01*
X125677000Y-84564250D01*
X125423000Y-84564250D01*
X125327750Y-84469000D01*
X125124214Y-84469000D01*
X124984180Y-84527004D01*
X124877004Y-84634181D01*
X124819000Y-84774215D01*
X121342557Y-84774215D01*
X119290592Y-82722250D01*
X124819000Y-82722250D01*
X124819000Y-83225785D01*
X124877004Y-83365819D01*
X124984180Y-83472996D01*
X125124214Y-83531000D01*
X125327750Y-83531000D01*
X125423000Y-83435750D01*
X125423000Y-82627000D01*
X124914250Y-82627000D01*
X124819000Y-82722250D01*
X119290592Y-82722250D01*
X118342557Y-81774215D01*
X124819000Y-81774215D01*
X124819000Y-82277750D01*
X124914250Y-82373000D01*
X125423000Y-82373000D01*
X125423000Y-81564250D01*
X125327750Y-81469000D01*
X125124214Y-81469000D01*
X124984180Y-81527004D01*
X124877004Y-81634181D01*
X124819000Y-81774215D01*
X118342557Y-81774215D01*
X117500400Y-80932058D01*
X117500400Y-80524171D01*
X117589408Y-80613335D01*
X117855376Y-80723774D01*
X118143361Y-80724025D01*
X118409521Y-80614050D01*
X118490312Y-80533400D01*
X124779058Y-80533400D01*
X125743454Y-81497796D01*
X125677000Y-81564250D01*
X125677000Y-82373000D01*
X125697000Y-82373000D01*
X125697000Y-82627000D01*
X125677000Y-82627000D01*
X125677000Y-83435750D01*
X125772250Y-83531000D01*
X125966600Y-83531000D01*
X125966600Y-84000000D01*
X126007203Y-84204123D01*
X126122829Y-84377171D01*
X126711536Y-84965878D01*
X126711536Y-86150000D01*
X126738103Y-86291190D01*
X126821546Y-86420865D01*
X126948866Y-86507859D01*
X127100000Y-86538464D01*
X127800000Y-86538464D01*
X127941190Y-86511897D01*
X128070865Y-86428454D01*
X128157859Y-86301134D01*
X128188464Y-86150000D01*
X128188464Y-86033400D01*
X129245978Y-86033400D01*
X129204883Y-86240000D01*
X129298587Y-86711083D01*
X129565435Y-87110448D01*
X129964800Y-87377296D01*
X130435883Y-87471000D01*
X130484117Y-87471000D01*
X130955200Y-87377296D01*
X131354565Y-87110448D01*
X131621413Y-86711083D01*
X131715117Y-86240000D01*
X131621413Y-85768917D01*
X131464045Y-85533400D01*
X131539058Y-85533400D01*
X131827967Y-85822309D01*
X131744883Y-86240000D01*
X131838587Y-86711083D01*
X132105435Y-87110448D01*
X132504800Y-87377296D01*
X132975883Y-87471000D01*
X133024117Y-87471000D01*
X133495200Y-87377296D01*
X133894565Y-87110448D01*
X134161413Y-86711083D01*
X134255117Y-86240000D01*
X134161413Y-85768917D01*
X133894565Y-85369552D01*
X133495200Y-85102704D01*
X133024117Y-85009000D01*
X132975883Y-85009000D01*
X132598423Y-85084081D01*
X132137171Y-84622829D01*
X131964123Y-84507203D01*
X131760000Y-84466600D01*
X131393655Y-84466600D01*
X131525245Y-84316964D01*
X131649489Y-84016980D01*
X131588627Y-83827000D01*
X130587000Y-83827000D01*
X130587000Y-83847000D01*
X130333000Y-83847000D01*
X130333000Y-83827000D01*
X129331373Y-83827000D01*
X129270708Y-84016366D01*
X128637362Y-83383020D01*
X129270511Y-83383020D01*
X129331373Y-83573000D01*
X130333000Y-83573000D01*
X130333000Y-82570807D01*
X130587000Y-82570807D01*
X130587000Y-83573000D01*
X131588627Y-83573000D01*
X131649489Y-83383020D01*
X131525245Y-83083036D01*
X131208056Y-82722348D01*
X130776982Y-82510499D01*
X130587000Y-82570807D01*
X130333000Y-82570807D01*
X130143018Y-82510499D01*
X129711944Y-82722348D01*
X129394755Y-83083036D01*
X129270511Y-83383020D01*
X128637362Y-83383020D01*
X128188464Y-82934122D01*
X128188464Y-81850000D01*
X128161897Y-81708810D01*
X128078454Y-81579135D01*
X127983400Y-81514187D01*
X127983400Y-81450000D01*
X127977875Y-81422223D01*
X127942797Y-81245876D01*
X127885417Y-81160000D01*
X129204883Y-81160000D01*
X129298587Y-81631083D01*
X129565435Y-82030448D01*
X129964800Y-82297296D01*
X130435883Y-82391000D01*
X130484117Y-82391000D01*
X130955200Y-82297296D01*
X131354565Y-82030448D01*
X131621413Y-81631083D01*
X131715117Y-81160000D01*
X131621413Y-80688917D01*
X131354565Y-80289552D01*
X130955200Y-80022704D01*
X130484117Y-79929000D01*
X130435883Y-79929000D01*
X129964800Y-80022704D01*
X129565435Y-80289552D01*
X129298587Y-80688917D01*
X129204883Y-81160000D01*
X127885417Y-81160000D01*
X127827171Y-81072829D01*
X125377171Y-78622829D01*
X125372938Y-78620000D01*
X129204883Y-78620000D01*
X129298587Y-79091083D01*
X129565435Y-79490448D01*
X129964800Y-79757296D01*
X130435883Y-79851000D01*
X130484117Y-79851000D01*
X130955200Y-79757296D01*
X131354565Y-79490448D01*
X131621413Y-79091083D01*
X131715117Y-78620000D01*
X131744883Y-78620000D01*
X131838587Y-79091083D01*
X132105435Y-79490448D01*
X132504800Y-79757296D01*
X132975883Y-79851000D01*
X133024117Y-79851000D01*
X133495200Y-79757296D01*
X133894565Y-79490448D01*
X134161413Y-79091083D01*
X134255117Y-78620000D01*
X134161413Y-78148917D01*
X133894565Y-77749552D01*
X133495200Y-77482704D01*
X133024117Y-77389000D01*
X132975883Y-77389000D01*
X132504800Y-77482704D01*
X132105435Y-77749552D01*
X131838587Y-78148917D01*
X131744883Y-78620000D01*
X131715117Y-78620000D01*
X131621413Y-78148917D01*
X131354565Y-77749552D01*
X130955200Y-77482704D01*
X130484117Y-77389000D01*
X130435883Y-77389000D01*
X129964800Y-77482704D01*
X129565435Y-77749552D01*
X129298587Y-78148917D01*
X129204883Y-78620000D01*
X125372938Y-78620000D01*
X125204123Y-78507203D01*
X125000000Y-78466600D01*
X119990387Y-78466600D01*
X119910592Y-78386665D01*
X119644624Y-78276226D01*
X119356639Y-78275975D01*
X119090479Y-78385950D01*
X118886665Y-78589408D01*
X118776226Y-78855376D01*
X118775975Y-79143361D01*
X118885950Y-79409521D01*
X118942929Y-79466600D01*
X118490387Y-79466600D01*
X118410592Y-79386665D01*
X118144624Y-79276226D01*
X117856639Y-79275975D01*
X117590479Y-79385950D01*
X117500400Y-79475872D01*
X117500400Y-70987000D01*
X117459797Y-70782877D01*
X117344171Y-70609829D01*
X112635826Y-65901484D01*
X112682801Y-65788354D01*
X112683198Y-65333641D01*
X112509554Y-64913388D01*
X112188303Y-64591577D01*
X111861797Y-64456000D01*
X113758774Y-64456000D01*
X113433388Y-64590446D01*
X113111577Y-64911697D01*
X112937199Y-65331646D01*
X112936802Y-65786359D01*
X113110446Y-66206612D01*
X113431697Y-66528423D01*
X113851646Y-66702801D01*
X114306359Y-66703198D01*
X114421345Y-66655687D01*
X124222829Y-76457171D01*
X124395877Y-76572797D01*
X124600000Y-76613401D01*
X124600005Y-76613400D01*
X129340226Y-76613400D01*
X129565435Y-76950448D01*
X129964800Y-77217296D01*
X130435883Y-77311000D01*
X130484117Y-77311000D01*
X130955200Y-77217296D01*
X131354565Y-76950448D01*
X131621413Y-76551083D01*
X131715117Y-76080000D01*
X131744883Y-76080000D01*
X131838587Y-76551083D01*
X132105435Y-76950448D01*
X132504800Y-77217296D01*
X132975883Y-77311000D01*
X133024117Y-77311000D01*
X133495200Y-77217296D01*
X133894565Y-76950448D01*
X134083986Y-76666959D01*
X136358602Y-76666959D01*
X136532246Y-77087212D01*
X136853497Y-77409023D01*
X136937176Y-77443769D01*
X136855188Y-77477646D01*
X136533377Y-77798897D01*
X136358999Y-78218846D01*
X136358602Y-78673559D01*
X136532246Y-79093812D01*
X136853497Y-79415623D01*
X136937176Y-79450369D01*
X136855188Y-79484246D01*
X136533377Y-79805497D01*
X136358999Y-80225446D01*
X136358602Y-80680159D01*
X136532246Y-81100412D01*
X136853497Y-81422223D01*
X136937176Y-81456969D01*
X136855188Y-81490846D01*
X136533377Y-81812097D01*
X136358999Y-82232046D01*
X136358602Y-82686759D01*
X136532246Y-83107012D01*
X136853497Y-83428823D01*
X136937176Y-83463569D01*
X136855188Y-83497446D01*
X136533377Y-83818697D01*
X136358999Y-84238646D01*
X136358602Y-84693359D01*
X136532246Y-85113612D01*
X136853497Y-85435423D01*
X136937176Y-85470169D01*
X136855188Y-85504046D01*
X136533377Y-85825297D01*
X136358999Y-86245246D01*
X136358602Y-86699959D01*
X136532246Y-87120212D01*
X136853497Y-87442023D01*
X136937176Y-87476769D01*
X136855188Y-87510646D01*
X136533377Y-87831897D01*
X136358999Y-88251846D01*
X136358602Y-88706559D01*
X136532246Y-89126812D01*
X136853497Y-89448623D01*
X136937176Y-89483369D01*
X136855188Y-89517246D01*
X136533377Y-89838497D01*
X136358999Y-90258446D01*
X136358602Y-90713159D01*
X136532246Y-91133412D01*
X136853497Y-91455223D01*
X136937176Y-91489969D01*
X136855188Y-91523846D01*
X136533377Y-91845097D01*
X136358999Y-92265046D01*
X136358602Y-92719759D01*
X136532246Y-93140012D01*
X136853497Y-93461823D01*
X136922488Y-93490470D01*
X136840245Y-93658840D01*
X137501800Y-94320395D01*
X138095836Y-93726359D01*
X153576802Y-93726359D01*
X153750446Y-94146612D01*
X154071697Y-94468423D01*
X154491646Y-94642801D01*
X154946359Y-94643198D01*
X155366612Y-94469554D01*
X155688423Y-94148303D01*
X155862801Y-93728354D01*
X155862802Y-93726359D01*
X156116802Y-93726359D01*
X156290446Y-94146612D01*
X156611697Y-94468423D01*
X157031646Y-94642801D01*
X157486359Y-94643198D01*
X157906612Y-94469554D01*
X158228423Y-94148303D01*
X158402801Y-93728354D01*
X158403198Y-93273641D01*
X158229554Y-92853388D01*
X157908303Y-92531577D01*
X157488354Y-92357199D01*
X157033641Y-92356802D01*
X156613388Y-92530446D01*
X156291577Y-92851697D01*
X156117199Y-93271646D01*
X156116802Y-93726359D01*
X155862802Y-93726359D01*
X155863198Y-93273641D01*
X155689554Y-92853388D01*
X155368303Y-92531577D01*
X154948354Y-92357199D01*
X154493641Y-92356802D01*
X154073388Y-92530446D01*
X153751577Y-92851697D01*
X153577199Y-93271646D01*
X153576802Y-93726359D01*
X138095836Y-93726359D01*
X138163355Y-93658840D01*
X138081231Y-93490713D01*
X138148412Y-93462954D01*
X138470223Y-93141703D01*
X138644601Y-92721754D01*
X138644998Y-92267041D01*
X138471354Y-91846788D01*
X138150103Y-91524977D01*
X138066424Y-91490231D01*
X138148412Y-91456354D01*
X138470223Y-91135103D01*
X138644601Y-90715154D01*
X138644998Y-90260441D01*
X138471354Y-89840188D01*
X138150103Y-89518377D01*
X138066424Y-89483631D01*
X138148412Y-89449754D01*
X138470223Y-89128503D01*
X138644601Y-88708554D01*
X138644998Y-88253841D01*
X138471354Y-87833588D01*
X138150103Y-87511777D01*
X138066424Y-87477031D01*
X138148412Y-87443154D01*
X138470223Y-87121903D01*
X138644601Y-86701954D01*
X138644998Y-86247241D01*
X138471354Y-85826988D01*
X138150103Y-85505177D01*
X138066424Y-85470431D01*
X138148412Y-85436554D01*
X138470223Y-85115303D01*
X138644601Y-84695354D01*
X138644998Y-84240641D01*
X138471354Y-83820388D01*
X138150103Y-83498577D01*
X138066424Y-83463831D01*
X138148412Y-83429954D01*
X138470223Y-83108703D01*
X138644601Y-82688754D01*
X138644998Y-82234041D01*
X138471354Y-81813788D01*
X138150103Y-81491977D01*
X138066424Y-81457231D01*
X138148412Y-81423354D01*
X138470223Y-81102103D01*
X138644601Y-80682154D01*
X138644998Y-80227441D01*
X138471354Y-79807188D01*
X138150103Y-79485377D01*
X138066424Y-79450631D01*
X138148412Y-79416754D01*
X138470223Y-79095503D01*
X138644601Y-78675554D01*
X138644998Y-78220841D01*
X138471354Y-77800588D01*
X138150103Y-77478777D01*
X138066424Y-77444031D01*
X138148412Y-77410154D01*
X138470223Y-77088903D01*
X138644601Y-76668954D01*
X138644998Y-76214241D01*
X138471354Y-75793988D01*
X138150103Y-75472177D01*
X137730154Y-75297799D01*
X137275441Y-75297402D01*
X136855188Y-75471046D01*
X136533377Y-75792297D01*
X136358999Y-76212246D01*
X136358602Y-76666959D01*
X134083986Y-76666959D01*
X134161413Y-76551083D01*
X134255117Y-76080000D01*
X134161413Y-75608917D01*
X133894565Y-75209552D01*
X133495200Y-74942704D01*
X133024117Y-74849000D01*
X132975883Y-74849000D01*
X132504800Y-74942704D01*
X132105435Y-75209552D01*
X131838587Y-75608917D01*
X131744883Y-76080000D01*
X131715117Y-76080000D01*
X131621413Y-75608917D01*
X131354565Y-75209552D01*
X130955200Y-74942704D01*
X130484117Y-74849000D01*
X130435883Y-74849000D01*
X129964800Y-74942704D01*
X129565435Y-75209552D01*
X129340226Y-75546600D01*
X124820942Y-75546600D01*
X122814342Y-73540000D01*
X129204883Y-73540000D01*
X129298587Y-74011083D01*
X129565435Y-74410448D01*
X129964800Y-74677296D01*
X130435883Y-74771000D01*
X130484117Y-74771000D01*
X130955200Y-74677296D01*
X131354565Y-74410448D01*
X131621413Y-74011083D01*
X131715117Y-73540000D01*
X131621413Y-73068917D01*
X131354565Y-72669552D01*
X130955200Y-72402704D01*
X130484117Y-72309000D01*
X130435883Y-72309000D01*
X129964800Y-72402704D01*
X129565435Y-72669552D01*
X129298587Y-73068917D01*
X129204883Y-73540000D01*
X122814342Y-73540000D01*
X119424342Y-70150000D01*
X131761536Y-70150000D01*
X131761536Y-71850000D01*
X131788103Y-71991190D01*
X131871546Y-72120865D01*
X131998866Y-72207859D01*
X132150000Y-72238464D01*
X133850000Y-72238464D01*
X133991190Y-72211897D01*
X134120865Y-72128454D01*
X134207859Y-72001134D01*
X134238464Y-71850000D01*
X134238464Y-70150000D01*
X134211897Y-70008810D01*
X134128454Y-69879135D01*
X134001134Y-69792141D01*
X133850000Y-69761536D01*
X132150000Y-69761536D01*
X132008810Y-69788103D01*
X131879135Y-69871546D01*
X131792141Y-69998866D01*
X131761536Y-70150000D01*
X119424342Y-70150000D01*
X115175826Y-65901484D01*
X115222801Y-65788354D01*
X115223198Y-65333641D01*
X115049554Y-64913388D01*
X114728303Y-64591577D01*
X114401797Y-64456000D01*
X116298774Y-64456000D01*
X115973388Y-64590446D01*
X115651577Y-64911697D01*
X115477199Y-65331646D01*
X115476802Y-65786359D01*
X115650446Y-66206612D01*
X115971697Y-66528423D01*
X116391646Y-66702801D01*
X116846359Y-66703198D01*
X117266612Y-66529554D01*
X117395229Y-66401160D01*
X118498445Y-66401160D01*
X118581824Y-66571856D01*
X119013055Y-66716091D01*
X119466657Y-66684322D01*
X119738176Y-66571856D01*
X119821555Y-66401160D01*
X121038445Y-66401160D01*
X121121824Y-66571856D01*
X121553055Y-66716091D01*
X122006657Y-66684322D01*
X122278176Y-66571856D01*
X122361555Y-66401160D01*
X123578445Y-66401160D01*
X123661824Y-66571856D01*
X124093055Y-66716091D01*
X124546657Y-66684322D01*
X124818176Y-66571856D01*
X124901555Y-66401160D01*
X126118445Y-66401160D01*
X126201824Y-66571856D01*
X126633055Y-66716091D01*
X127086657Y-66684322D01*
X127358176Y-66571856D01*
X127441555Y-66401160D01*
X128658445Y-66401160D01*
X128741824Y-66571856D01*
X129173055Y-66716091D01*
X129626657Y-66684322D01*
X129898176Y-66571856D01*
X129981555Y-66401160D01*
X131198445Y-66401160D01*
X131281824Y-66571856D01*
X131713055Y-66716091D01*
X132166657Y-66684322D01*
X132438176Y-66571856D01*
X132521555Y-66401160D01*
X133738445Y-66401160D01*
X133821824Y-66571856D01*
X134253055Y-66716091D01*
X134706657Y-66684322D01*
X134978176Y-66571856D01*
X135061555Y-66401160D01*
X134400000Y-65739605D01*
X133738445Y-66401160D01*
X132521555Y-66401160D01*
X131860000Y-65739605D01*
X131198445Y-66401160D01*
X129981555Y-66401160D01*
X129320000Y-65739605D01*
X128658445Y-66401160D01*
X127441555Y-66401160D01*
X126780000Y-65739605D01*
X126118445Y-66401160D01*
X124901555Y-66401160D01*
X124240000Y-65739605D01*
X123578445Y-66401160D01*
X122361555Y-66401160D01*
X121700000Y-65739605D01*
X121038445Y-66401160D01*
X119821555Y-66401160D01*
X119160000Y-65739605D01*
X118498445Y-66401160D01*
X117395229Y-66401160D01*
X117588423Y-66208303D01*
X117762801Y-65788354D01*
X117763128Y-65413055D01*
X118003909Y-65413055D01*
X118035678Y-65866657D01*
X118148144Y-66138176D01*
X118318840Y-66221555D01*
X118980395Y-65560000D01*
X119339605Y-65560000D01*
X120001160Y-66221555D01*
X120171856Y-66138176D01*
X120316091Y-65706945D01*
X120295508Y-65413055D01*
X120543909Y-65413055D01*
X120575678Y-65866657D01*
X120688144Y-66138176D01*
X120858840Y-66221555D01*
X121520395Y-65560000D01*
X121879605Y-65560000D01*
X122541160Y-66221555D01*
X122711856Y-66138176D01*
X122856091Y-65706945D01*
X122835508Y-65413055D01*
X123083909Y-65413055D01*
X123115678Y-65866657D01*
X123228144Y-66138176D01*
X123398840Y-66221555D01*
X124060395Y-65560000D01*
X124419605Y-65560000D01*
X125081160Y-66221555D01*
X125251856Y-66138176D01*
X125396091Y-65706945D01*
X125375508Y-65413055D01*
X125623909Y-65413055D01*
X125655678Y-65866657D01*
X125768144Y-66138176D01*
X125938840Y-66221555D01*
X126600395Y-65560000D01*
X126959605Y-65560000D01*
X127621160Y-66221555D01*
X127791856Y-66138176D01*
X127936091Y-65706945D01*
X127915508Y-65413055D01*
X128163909Y-65413055D01*
X128195678Y-65866657D01*
X128308144Y-66138176D01*
X128478840Y-66221555D01*
X129140395Y-65560000D01*
X129499605Y-65560000D01*
X130161160Y-66221555D01*
X130331856Y-66138176D01*
X130476091Y-65706945D01*
X130455508Y-65413055D01*
X130703909Y-65413055D01*
X130735678Y-65866657D01*
X130848144Y-66138176D01*
X131018840Y-66221555D01*
X131680395Y-65560000D01*
X132039605Y-65560000D01*
X132701160Y-66221555D01*
X132871856Y-66138176D01*
X133016091Y-65706945D01*
X132995508Y-65413055D01*
X133243909Y-65413055D01*
X133275678Y-65866657D01*
X133388144Y-66138176D01*
X133558840Y-66221555D01*
X134220395Y-65560000D01*
X134579605Y-65560000D01*
X135241160Y-66221555D01*
X135411856Y-66138176D01*
X135556091Y-65706945D01*
X135524322Y-65253343D01*
X135411856Y-64981824D01*
X135241160Y-64898445D01*
X134579605Y-65560000D01*
X134220395Y-65560000D01*
X133558840Y-64898445D01*
X133388144Y-64981824D01*
X133243909Y-65413055D01*
X132995508Y-65413055D01*
X132984322Y-65253343D01*
X132871856Y-64981824D01*
X132701160Y-64898445D01*
X132039605Y-65560000D01*
X131680395Y-65560000D01*
X131018840Y-64898445D01*
X130848144Y-64981824D01*
X130703909Y-65413055D01*
X130455508Y-65413055D01*
X130444322Y-65253343D01*
X130331856Y-64981824D01*
X130161160Y-64898445D01*
X129499605Y-65560000D01*
X129140395Y-65560000D01*
X128478840Y-64898445D01*
X128308144Y-64981824D01*
X128163909Y-65413055D01*
X127915508Y-65413055D01*
X127904322Y-65253343D01*
X127791856Y-64981824D01*
X127621160Y-64898445D01*
X126959605Y-65560000D01*
X126600395Y-65560000D01*
X125938840Y-64898445D01*
X125768144Y-64981824D01*
X125623909Y-65413055D01*
X125375508Y-65413055D01*
X125364322Y-65253343D01*
X125251856Y-64981824D01*
X125081160Y-64898445D01*
X124419605Y-65560000D01*
X124060395Y-65560000D01*
X123398840Y-64898445D01*
X123228144Y-64981824D01*
X123083909Y-65413055D01*
X122835508Y-65413055D01*
X122824322Y-65253343D01*
X122711856Y-64981824D01*
X122541160Y-64898445D01*
X121879605Y-65560000D01*
X121520395Y-65560000D01*
X120858840Y-64898445D01*
X120688144Y-64981824D01*
X120543909Y-65413055D01*
X120295508Y-65413055D01*
X120284322Y-65253343D01*
X120171856Y-64981824D01*
X120001160Y-64898445D01*
X119339605Y-65560000D01*
X118980395Y-65560000D01*
X118318840Y-64898445D01*
X118148144Y-64981824D01*
X118003909Y-65413055D01*
X117763128Y-65413055D01*
X117763198Y-65333641D01*
X117589554Y-64913388D01*
X117268303Y-64591577D01*
X116941797Y-64456000D01*
X118804281Y-64456000D01*
X118581824Y-64548144D01*
X118498445Y-64718840D01*
X119160000Y-65380395D01*
X119821555Y-64718840D01*
X119738176Y-64548144D01*
X119462686Y-64456000D01*
X121344281Y-64456000D01*
X121121824Y-64548144D01*
X121038445Y-64718840D01*
X121700000Y-65380395D01*
X122361555Y-64718840D01*
X122278176Y-64548144D01*
X122002686Y-64456000D01*
X123884281Y-64456000D01*
X123661824Y-64548144D01*
X123578445Y-64718840D01*
X124240000Y-65380395D01*
X124901555Y-64718840D01*
X124818176Y-64548144D01*
X124542686Y-64456000D01*
X126424281Y-64456000D01*
X126201824Y-64548144D01*
X126118445Y-64718840D01*
X126780000Y-65380395D01*
X127441555Y-64718840D01*
X127358176Y-64548144D01*
X127082686Y-64456000D01*
X128964281Y-64456000D01*
X128741824Y-64548144D01*
X128658445Y-64718840D01*
X129320000Y-65380395D01*
X129981555Y-64718840D01*
X129898176Y-64548144D01*
X129622686Y-64456000D01*
X131504281Y-64456000D01*
X131281824Y-64548144D01*
X131198445Y-64718840D01*
X131860000Y-65380395D01*
X132521555Y-64718840D01*
X132438176Y-64548144D01*
X132162686Y-64456000D01*
X134044281Y-64456000D01*
X133821824Y-64548144D01*
X133738445Y-64718840D01*
X134400000Y-65380395D01*
X135061555Y-64718840D01*
X134978176Y-64548144D01*
X134702686Y-64456000D01*
X136618774Y-64456000D01*
X136293388Y-64590446D01*
X135971577Y-64911697D01*
X135797199Y-65331646D01*
X135796802Y-65786359D01*
X135970446Y-66206612D01*
X136291697Y-66528423D01*
X136711646Y-66702801D01*
X137166359Y-66703198D01*
X137586612Y-66529554D01*
X137908423Y-66208303D01*
X138082801Y-65788354D01*
X138083198Y-65333641D01*
X137909554Y-64913388D01*
X137588303Y-64591577D01*
X137261797Y-64456000D01*
X139158774Y-64456000D01*
X138833388Y-64590446D01*
X138511577Y-64911697D01*
X138337199Y-65331646D01*
X138336802Y-65786359D01*
X138510446Y-66206612D01*
X138831697Y-66528423D01*
X138866600Y-66542916D01*
X138866600Y-67629058D01*
X133853527Y-72642131D01*
X133495200Y-72402704D01*
X133024117Y-72309000D01*
X132975883Y-72309000D01*
X132504800Y-72402704D01*
X132105435Y-72669552D01*
X131838587Y-73068917D01*
X131744883Y-73540000D01*
X131838587Y-74011083D01*
X132105435Y-74410448D01*
X132504800Y-74677296D01*
X132975883Y-74771000D01*
X133024117Y-74771000D01*
X133495200Y-74677296D01*
X133894565Y-74410448D01*
X134161413Y-74011083D01*
X134203166Y-73801176D01*
X137112026Y-70892316D01*
X155268657Y-70892316D01*
X155569611Y-71620680D01*
X156126389Y-72178431D01*
X156854226Y-72480655D01*
X157642316Y-72481343D01*
X158370680Y-72180389D01*
X158928431Y-71623611D01*
X159230655Y-70895774D01*
X159231343Y-70107684D01*
X158930389Y-69379320D01*
X158373611Y-68821569D01*
X157645774Y-68519345D01*
X156857684Y-68518657D01*
X156129320Y-68819611D01*
X155571569Y-69376389D01*
X155269345Y-70104226D01*
X155268657Y-70892316D01*
X137112026Y-70892316D01*
X139777171Y-68227171D01*
X139892797Y-68054123D01*
X139933400Y-67850000D01*
X139933400Y-66609387D01*
X140126612Y-66529554D01*
X140448423Y-66208303D01*
X140622801Y-65788354D01*
X140623198Y-65333641D01*
X140449554Y-64913388D01*
X140128303Y-64591577D01*
X139801797Y-64456000D01*
X141698774Y-64456000D01*
X141373388Y-64590446D01*
X141051577Y-64911697D01*
X140877199Y-65331646D01*
X140876802Y-65786359D01*
X141050446Y-66206612D01*
X141371697Y-66528423D01*
X141791646Y-66702801D01*
X142246359Y-66703198D01*
X142666612Y-66529554D01*
X142795229Y-66401160D01*
X143898445Y-66401160D01*
X143981824Y-66571856D01*
X144413055Y-66716091D01*
X144866657Y-66684322D01*
X145138176Y-66571856D01*
X145221555Y-66401160D01*
X146438445Y-66401160D01*
X146521824Y-66571856D01*
X146953055Y-66716091D01*
X147406657Y-66684322D01*
X147678176Y-66571856D01*
X147761555Y-66401160D01*
X147100000Y-65739605D01*
X146438445Y-66401160D01*
X145221555Y-66401160D01*
X144560000Y-65739605D01*
X143898445Y-66401160D01*
X142795229Y-66401160D01*
X142988423Y-66208303D01*
X143162801Y-65788354D01*
X143163128Y-65413055D01*
X143403909Y-65413055D01*
X143435678Y-65866657D01*
X143548144Y-66138176D01*
X143718840Y-66221555D01*
X144380395Y-65560000D01*
X144739605Y-65560000D01*
X145401160Y-66221555D01*
X145571856Y-66138176D01*
X145716091Y-65706945D01*
X145695508Y-65413055D01*
X145943909Y-65413055D01*
X145975678Y-65866657D01*
X146088144Y-66138176D01*
X146258840Y-66221555D01*
X146920395Y-65560000D01*
X147279605Y-65560000D01*
X147941160Y-66221555D01*
X148111856Y-66138176D01*
X148256091Y-65706945D01*
X148224322Y-65253343D01*
X148111856Y-64981824D01*
X147941160Y-64898445D01*
X147279605Y-65560000D01*
X146920395Y-65560000D01*
X146258840Y-64898445D01*
X146088144Y-64981824D01*
X145943909Y-65413055D01*
X145695508Y-65413055D01*
X145684322Y-65253343D01*
X145571856Y-64981824D01*
X145401160Y-64898445D01*
X144739605Y-65560000D01*
X144380395Y-65560000D01*
X143718840Y-64898445D01*
X143548144Y-64981824D01*
X143403909Y-65413055D01*
X143163128Y-65413055D01*
X143163198Y-65333641D01*
X142989554Y-64913388D01*
X142668303Y-64591577D01*
X142341797Y-64456000D01*
X144204281Y-64456000D01*
X143981824Y-64548144D01*
X143898445Y-64718840D01*
X144560000Y-65380395D01*
X145221555Y-64718840D01*
X145138176Y-64548144D01*
X144862686Y-64456000D01*
X146744281Y-64456000D01*
X146521824Y-64548144D01*
X146438445Y-64718840D01*
X147100000Y-65380395D01*
X147761555Y-64718840D01*
X147678176Y-64548144D01*
X147402686Y-64456000D01*
X149318774Y-64456000D01*
X148993388Y-64590446D01*
X148671577Y-64911697D01*
X148497199Y-65331646D01*
X148496802Y-65786359D01*
X148670446Y-66206612D01*
X148991697Y-66528423D01*
X149411646Y-66702801D01*
X149866359Y-66703198D01*
X150286612Y-66529554D01*
X150608423Y-66208303D01*
X150782801Y-65788354D01*
X150783198Y-65333641D01*
X150609554Y-64913388D01*
X150288303Y-64591577D01*
X149961797Y-64456000D01*
X151858774Y-64456000D01*
X151533388Y-64590446D01*
X151211577Y-64911697D01*
X151037199Y-65331646D01*
X151036802Y-65786359D01*
X151210446Y-66206612D01*
X151531697Y-66528423D01*
X151951646Y-66702801D01*
X152406359Y-66703198D01*
X152826612Y-66529554D01*
X153148423Y-66208303D01*
X153322801Y-65788354D01*
X153323198Y-65333641D01*
X153149554Y-64913388D01*
X152828303Y-64591577D01*
X152501797Y-64456000D01*
X154398774Y-64456000D01*
X154073388Y-64590446D01*
X153751577Y-64911697D01*
X153577199Y-65331646D01*
X153576802Y-65786359D01*
X153750446Y-66206612D01*
X154071697Y-66528423D01*
X154491646Y-66702801D01*
X154946359Y-66703198D01*
X155366612Y-66529554D01*
X155688423Y-66208303D01*
X155862801Y-65788354D01*
X155863198Y-65333641D01*
X155689554Y-64913388D01*
X155368303Y-64591577D01*
X155041797Y-64456000D01*
X156938774Y-64456000D01*
X156613388Y-64590446D01*
X156291577Y-64911697D01*
X156117199Y-65331646D01*
X156116802Y-65786359D01*
X156290446Y-66206612D01*
X156611697Y-66528423D01*
X157031646Y-66702801D01*
X157486359Y-66703198D01*
X157906612Y-66529554D01*
X158228423Y-66208303D01*
X158402801Y-65788354D01*
X158403198Y-65333641D01*
X158229554Y-64913388D01*
X157908303Y-64591577D01*
X157581797Y-64456000D01*
X160544000Y-64456000D01*
X160544000Y-75978518D01*
X160467754Y-75793988D01*
X160146503Y-75472177D01*
X159726554Y-75297799D01*
X159271841Y-75297402D01*
X158851588Y-75471046D01*
X158529777Y-75792297D01*
X158355399Y-76212246D01*
X158355002Y-76666959D01*
X158528646Y-77087212D01*
X158849897Y-77409023D01*
X158933576Y-77443769D01*
X158851588Y-77477646D01*
X158529777Y-77798897D01*
X158355399Y-78218846D01*
X158355002Y-78673559D01*
X158528646Y-79093812D01*
X158849897Y-79415623D01*
X158933576Y-79450369D01*
X158851588Y-79484246D01*
X158529777Y-79805497D01*
X158355399Y-80225446D01*
X158355002Y-80680159D01*
X158528646Y-81100412D01*
X158849897Y-81422223D01*
X158933576Y-81456969D01*
X158851588Y-81490846D01*
X158529777Y-81812097D01*
X158355399Y-82232046D01*
X158355002Y-82686759D01*
X158528646Y-83107012D01*
X158849897Y-83428823D01*
X158933576Y-83463569D01*
X158851588Y-83497446D01*
X158529777Y-83818697D01*
X158355399Y-84238646D01*
X158355002Y-84693359D01*
X158528646Y-85113612D01*
X158849897Y-85435423D01*
X158933576Y-85470169D01*
X158851588Y-85504046D01*
X158529777Y-85825297D01*
X158355399Y-86245246D01*
X158355002Y-86699959D01*
X158528646Y-87120212D01*
X158849897Y-87442023D01*
X158933576Y-87476769D01*
X158851588Y-87510646D01*
X158529777Y-87831897D01*
X158355399Y-88251846D01*
X158355002Y-88706559D01*
X158528646Y-89126812D01*
X158849897Y-89448623D01*
X158933576Y-89483369D01*
X158851588Y-89517246D01*
X158529777Y-89838497D01*
X158355399Y-90258446D01*
X158355002Y-90713159D01*
X158528646Y-91133412D01*
X158849897Y-91455223D01*
X158933576Y-91489969D01*
X158851588Y-91523846D01*
X158529777Y-91845097D01*
X158355399Y-92265046D01*
X158355002Y-92719759D01*
X158528646Y-93140012D01*
X158849897Y-93461823D01*
X158933576Y-93496569D01*
X158851588Y-93530446D01*
X158529777Y-93851697D01*
X158355399Y-94271646D01*
X158355002Y-94726359D01*
X158528646Y-95146612D01*
X158849897Y-95468423D01*
X159269846Y-95642801D01*
X159724559Y-95643198D01*
X160144812Y-95469554D01*
X160466623Y-95148303D01*
X160544000Y-94961958D01*
X160544000Y-102044000D01*
X107956000Y-102044000D01*
X107956000Y-99142316D01*
X110018657Y-99142316D01*
X110319611Y-99870680D01*
X110876389Y-100428431D01*
X111604226Y-100730655D01*
X112392316Y-100731343D01*
X113120680Y-100430389D01*
X113678431Y-99873611D01*
X113978900Y-99150000D01*
X120261536Y-99150000D01*
X120261536Y-100850000D01*
X120288103Y-100991190D01*
X120371546Y-101120865D01*
X120498866Y-101207859D01*
X120650000Y-101238464D01*
X122350000Y-101238464D01*
X122491190Y-101211897D01*
X122620865Y-101128454D01*
X122707859Y-101001134D01*
X122738464Y-100850000D01*
X122738464Y-99150000D01*
X123761536Y-99150000D01*
X123761536Y-100850000D01*
X123788103Y-100991190D01*
X123871546Y-101120865D01*
X123998866Y-101207859D01*
X124150000Y-101238464D01*
X125850000Y-101238464D01*
X125991190Y-101211897D01*
X126120865Y-101128454D01*
X126207859Y-101001134D01*
X126238464Y-100850000D01*
X126238464Y-99515877D01*
X126377168Y-99377173D01*
X126377171Y-99377171D01*
X126492797Y-99204123D01*
X126503563Y-99150000D01*
X126533401Y-99000000D01*
X126533400Y-98999995D01*
X126533400Y-97007179D01*
X126641190Y-96986897D01*
X126770865Y-96903454D01*
X126857859Y-96776134D01*
X126888464Y-96625000D01*
X126888464Y-95375000D01*
X126861897Y-95233810D01*
X126778454Y-95104135D01*
X126651134Y-95017141D01*
X126500000Y-94986536D01*
X125500000Y-94986536D01*
X125358810Y-95013103D01*
X125229135Y-95096546D01*
X125142141Y-95223866D01*
X125111536Y-95375000D01*
X125111536Y-96625000D01*
X125138103Y-96766190D01*
X125221546Y-96895865D01*
X125348866Y-96982859D01*
X125466600Y-97006700D01*
X125466600Y-98761536D01*
X124150000Y-98761536D01*
X124008810Y-98788103D01*
X123879135Y-98871546D01*
X123792141Y-98998866D01*
X123761536Y-99150000D01*
X122738464Y-99150000D01*
X122711897Y-99008810D01*
X122628454Y-98879135D01*
X122501134Y-98792141D01*
X122350000Y-98761536D01*
X120650000Y-98761536D01*
X120508810Y-98788103D01*
X120379135Y-98871546D01*
X120292141Y-98998866D01*
X120261536Y-99150000D01*
X113978900Y-99150000D01*
X113980655Y-99145774D01*
X113981343Y-98357684D01*
X113680389Y-97629320D01*
X113123611Y-97071569D01*
X112395774Y-96769345D01*
X111607684Y-96768657D01*
X110879320Y-97069611D01*
X110321569Y-97626389D01*
X110019345Y-98354226D01*
X110018657Y-99142316D01*
X107956000Y-99142316D01*
X107956000Y-93966438D01*
X108030446Y-94146612D01*
X108351697Y-94468423D01*
X108771646Y-94642801D01*
X109226359Y-94643198D01*
X109646612Y-94469554D01*
X109968423Y-94148303D01*
X110142801Y-93728354D01*
X110142802Y-93726359D01*
X110396802Y-93726359D01*
X110570446Y-94146612D01*
X110891697Y-94468423D01*
X111311646Y-94642801D01*
X111766359Y-94643198D01*
X112186612Y-94469554D01*
X112508423Y-94148303D01*
X112682801Y-93728354D01*
X112683198Y-93273641D01*
X112509554Y-92853388D01*
X112188303Y-92531577D01*
X111768354Y-92357199D01*
X111313641Y-92356802D01*
X110893388Y-92530446D01*
X110571577Y-92851697D01*
X110397199Y-93271646D01*
X110396802Y-93726359D01*
X110142802Y-93726359D01*
X110143198Y-93273641D01*
X109969554Y-92853388D01*
X109648303Y-92531577D01*
X109228354Y-92357199D01*
X108773641Y-92356802D01*
X108353388Y-92530446D01*
X108031577Y-92851697D01*
X107956000Y-93033707D01*
X107956000Y-90850000D01*
X124811536Y-90850000D01*
X124811536Y-92150000D01*
X124838103Y-92291190D01*
X124921546Y-92420865D01*
X125016600Y-92485813D01*
X125016600Y-92550000D01*
X125057203Y-92754123D01*
X125172829Y-92927171D01*
X127297934Y-95052276D01*
X127229135Y-95096546D01*
X127142141Y-95223866D01*
X127111536Y-95375000D01*
X127111536Y-96625000D01*
X127138103Y-96766190D01*
X127221546Y-96895865D01*
X127348866Y-96982859D01*
X127467989Y-97006982D01*
X127507203Y-97204123D01*
X127622829Y-97377171D01*
X130122829Y-99877171D01*
X130295877Y-99992797D01*
X130500000Y-100033400D01*
X131261536Y-100033400D01*
X131261536Y-100350000D01*
X131288103Y-100491190D01*
X131371546Y-100620865D01*
X131498866Y-100707859D01*
X131650000Y-100738464D01*
X133350000Y-100738464D01*
X133491190Y-100711897D01*
X133620865Y-100628454D01*
X133707859Y-100501134D01*
X133738464Y-100350000D01*
X133738464Y-99475883D01*
X133809000Y-99475883D01*
X133809000Y-99524117D01*
X133902704Y-99995200D01*
X134169552Y-100394565D01*
X134568917Y-100661413D01*
X135040000Y-100755117D01*
X135511083Y-100661413D01*
X135910448Y-100394565D01*
X136177296Y-99995200D01*
X136271000Y-99524117D01*
X136271000Y-99475883D01*
X136177296Y-99004800D01*
X135910448Y-98605435D01*
X135511083Y-98338587D01*
X135040000Y-98244883D01*
X134568917Y-98338587D01*
X134169552Y-98605435D01*
X133902704Y-99004800D01*
X133809000Y-99475883D01*
X133738464Y-99475883D01*
X133738464Y-98650000D01*
X133711897Y-98508810D01*
X133628454Y-98379135D01*
X133501134Y-98292141D01*
X133350000Y-98261536D01*
X131650000Y-98261536D01*
X131508810Y-98288103D01*
X131379135Y-98371546D01*
X131292141Y-98498866D01*
X131261536Y-98650000D01*
X131261536Y-98966600D01*
X130720942Y-98966600D01*
X128702066Y-96947724D01*
X128770865Y-96903454D01*
X128857859Y-96776134D01*
X128888464Y-96625000D01*
X128888464Y-95375000D01*
X128882097Y-95341160D01*
X136840245Y-95341160D01*
X136923624Y-95511856D01*
X137354855Y-95656091D01*
X137808457Y-95624322D01*
X138079976Y-95511856D01*
X138163355Y-95341160D01*
X137501800Y-94679605D01*
X136840245Y-95341160D01*
X128882097Y-95341160D01*
X128861897Y-95233810D01*
X128778454Y-95104135D01*
X128651134Y-95017141D01*
X128532011Y-94993018D01*
X128492797Y-94795877D01*
X128492797Y-94795876D01*
X128377171Y-94622829D01*
X127614342Y-93860000D01*
X131744883Y-93860000D01*
X131838587Y-94331083D01*
X132105435Y-94730448D01*
X132504800Y-94997296D01*
X132975883Y-95091000D01*
X133024117Y-95091000D01*
X133495200Y-94997296D01*
X133894565Y-94730448D01*
X134146731Y-94353055D01*
X136345709Y-94353055D01*
X136377478Y-94806657D01*
X136489944Y-95078176D01*
X136660640Y-95161555D01*
X137322195Y-94500000D01*
X137681405Y-94500000D01*
X138342960Y-95161555D01*
X138513656Y-95078176D01*
X138657891Y-94646945D01*
X138626122Y-94193343D01*
X138513656Y-93921824D01*
X138342960Y-93838445D01*
X137681405Y-94500000D01*
X137322195Y-94500000D01*
X136660640Y-93838445D01*
X136489944Y-93921824D01*
X136345709Y-94353055D01*
X134146731Y-94353055D01*
X134161413Y-94331083D01*
X134255117Y-93860000D01*
X134161413Y-93388917D01*
X133894565Y-92989552D01*
X133495200Y-92722704D01*
X133024117Y-92629000D01*
X132975883Y-92629000D01*
X132504800Y-92722704D01*
X132105435Y-92989552D01*
X131838587Y-93388917D01*
X131744883Y-93860000D01*
X127614342Y-93860000D01*
X126175708Y-92421366D01*
X126257859Y-92301134D01*
X126288464Y-92150000D01*
X126288464Y-90850000D01*
X126711536Y-90850000D01*
X126711536Y-92150000D01*
X126738103Y-92291190D01*
X126821546Y-92420865D01*
X126948866Y-92507859D01*
X127100000Y-92538464D01*
X127800000Y-92538464D01*
X127941190Y-92511897D01*
X128070865Y-92428454D01*
X128157859Y-92301134D01*
X128188464Y-92150000D01*
X128188464Y-92033400D01*
X129460499Y-92033400D01*
X129565435Y-92190448D01*
X129964800Y-92457296D01*
X130435883Y-92551000D01*
X130484117Y-92551000D01*
X130955200Y-92457296D01*
X131354565Y-92190448D01*
X131621413Y-91791083D01*
X131715117Y-91320000D01*
X131744883Y-91320000D01*
X131838587Y-91791083D01*
X132105435Y-92190448D01*
X132504800Y-92457296D01*
X132975883Y-92551000D01*
X133024117Y-92551000D01*
X133495200Y-92457296D01*
X133894565Y-92190448D01*
X134161413Y-91791083D01*
X134255117Y-91320000D01*
X134161413Y-90848917D01*
X133894565Y-90449552D01*
X133495200Y-90182704D01*
X133024117Y-90089000D01*
X132975883Y-90089000D01*
X132504800Y-90182704D01*
X132105435Y-90449552D01*
X131838587Y-90848917D01*
X131744883Y-91320000D01*
X131715117Y-91320000D01*
X131621413Y-90848917D01*
X131354565Y-90449552D01*
X130955200Y-90182704D01*
X130484117Y-90089000D01*
X130435883Y-90089000D01*
X129964800Y-90182704D01*
X129565435Y-90449552D01*
X129298587Y-90848917D01*
X129275178Y-90966600D01*
X128188464Y-90966600D01*
X128188464Y-90850000D01*
X128161897Y-90708810D01*
X128078454Y-90579135D01*
X127951134Y-90492141D01*
X127800000Y-90461536D01*
X127100000Y-90461536D01*
X126958810Y-90488103D01*
X126829135Y-90571546D01*
X126742141Y-90698866D01*
X126711536Y-90850000D01*
X126288464Y-90850000D01*
X126261897Y-90708810D01*
X126178454Y-90579135D01*
X126051134Y-90492141D01*
X125900000Y-90461536D01*
X125200000Y-90461536D01*
X125058810Y-90488103D01*
X124929135Y-90571546D01*
X124842141Y-90698866D01*
X124811536Y-90850000D01*
X107956000Y-90850000D01*
X107956000Y-72142316D01*
X110018657Y-72142316D01*
X110319611Y-72870680D01*
X110876389Y-73428431D01*
X111604226Y-73730655D01*
X112392316Y-73731343D01*
X113120680Y-73430389D01*
X113678431Y-72873611D01*
X113980655Y-72145774D01*
X113981343Y-71357684D01*
X113680389Y-70629320D01*
X113123611Y-70071569D01*
X112395774Y-69769345D01*
X111607684Y-69768657D01*
X110879320Y-70069611D01*
X110321569Y-70626389D01*
X110019345Y-71354226D01*
X110018657Y-72142316D01*
X107956000Y-72142316D01*
X107956000Y-66401160D01*
X108338445Y-66401160D01*
X108421824Y-66571856D01*
X108853055Y-66716091D01*
X109306657Y-66684322D01*
X109578176Y-66571856D01*
X109661555Y-66401160D01*
X109000000Y-65739605D01*
X108338445Y-66401160D01*
X107956000Y-66401160D01*
X107956000Y-66060573D01*
X107988144Y-66138176D01*
X108158840Y-66221555D01*
X108820395Y-65560000D01*
X109179605Y-65560000D01*
X109841160Y-66221555D01*
X110011856Y-66138176D01*
X110156091Y-65706945D01*
X110124322Y-65253343D01*
X110011856Y-64981824D01*
X109841160Y-64898445D01*
X109179605Y-65560000D01*
X108820395Y-65560000D01*
X108158840Y-64898445D01*
X107988144Y-64981824D01*
X107956000Y-65077928D01*
X107956000Y-64456000D01*
X108644281Y-64456000D01*
X108421824Y-64548144D01*
X108421824Y-64548144D01*
G37*
X108421824Y-64548144D02*
X108338445Y-64718840D01*
X109000000Y-65380395D01*
X109661555Y-64718840D01*
X109578176Y-64548144D01*
X109302686Y-64456000D01*
X111218774Y-64456000D01*
X110893388Y-64590446D01*
X110571577Y-64911697D01*
X110397199Y-65331646D01*
X110396802Y-65786359D01*
X110570446Y-66206612D01*
X110891697Y-66528423D01*
X111311646Y-66702801D01*
X111766359Y-66703198D01*
X111881345Y-66655687D01*
X116433600Y-71207942D01*
X116433600Y-81153000D01*
X116474203Y-81357123D01*
X116589829Y-81530171D01*
X124436829Y-89377171D01*
X124609877Y-89492797D01*
X124811536Y-89532910D01*
X124811536Y-89650000D01*
X124838103Y-89791190D01*
X124921546Y-89920865D01*
X125048866Y-90007859D01*
X125200000Y-90038464D01*
X125900000Y-90038464D01*
X126041190Y-90011897D01*
X126170865Y-89928454D01*
X126257859Y-89801134D01*
X126288464Y-89650000D01*
X126288464Y-88350000D01*
X126711536Y-88350000D01*
X126711536Y-89650000D01*
X126738103Y-89791190D01*
X126821546Y-89920865D01*
X126948866Y-90007859D01*
X127100000Y-90038464D01*
X127800000Y-90038464D01*
X127941190Y-90011897D01*
X128070865Y-89928454D01*
X128157859Y-89801134D01*
X128188464Y-89650000D01*
X128188464Y-89533400D01*
X129487226Y-89533400D01*
X129565435Y-89650448D01*
X129964800Y-89917296D01*
X130435883Y-90011000D01*
X130484117Y-90011000D01*
X130955200Y-89917296D01*
X131354565Y-89650448D01*
X131621413Y-89251083D01*
X131715117Y-88780000D01*
X131744883Y-88780000D01*
X131838587Y-89251083D01*
X132105435Y-89650448D01*
X132504800Y-89917296D01*
X132975883Y-90011000D01*
X133024117Y-90011000D01*
X133495200Y-89917296D01*
X133894565Y-89650448D01*
X134161413Y-89251083D01*
X134255117Y-88780000D01*
X134161413Y-88308917D01*
X133894565Y-87909552D01*
X133495200Y-87642704D01*
X133024117Y-87549000D01*
X132975883Y-87549000D01*
X132504800Y-87642704D01*
X132105435Y-87909552D01*
X131838587Y-88308917D01*
X131744883Y-88780000D01*
X131715117Y-88780000D01*
X131621413Y-88308917D01*
X131354565Y-87909552D01*
X130955200Y-87642704D01*
X130484117Y-87549000D01*
X130435883Y-87549000D01*
X129964800Y-87642704D01*
X129565435Y-87909552D01*
X129298587Y-88308917D01*
X129267222Y-88466600D01*
X128188464Y-88466600D01*
X128188464Y-88350000D01*
X128161897Y-88208810D01*
X128078454Y-88079135D01*
X127951134Y-87992141D01*
X127800000Y-87961536D01*
X127100000Y-87961536D01*
X126958810Y-87988103D01*
X126829135Y-88071546D01*
X126742141Y-88198866D01*
X126711536Y-88350000D01*
X126288464Y-88350000D01*
X126261897Y-88208810D01*
X126178454Y-88079135D01*
X126051134Y-87992141D01*
X125900000Y-87961536D01*
X125200000Y-87961536D01*
X125058810Y-87988103D01*
X124929135Y-88071546D01*
X124842141Y-88198866D01*
X124829522Y-88261180D01*
X122290592Y-85722250D01*
X124819000Y-85722250D01*
X124819000Y-86225785D01*
X124877004Y-86365819D01*
X124984180Y-86472996D01*
X125124214Y-86531000D01*
X125327750Y-86531000D01*
X125423000Y-86435750D01*
X125423000Y-85627000D01*
X125677000Y-85627000D01*
X125677000Y-86435750D01*
X125772250Y-86531000D01*
X125975786Y-86531000D01*
X126115820Y-86472996D01*
X126222996Y-86365819D01*
X126281000Y-86225785D01*
X126281000Y-85722250D01*
X126185750Y-85627000D01*
X125677000Y-85627000D01*
X125423000Y-85627000D01*
X124914250Y-85627000D01*
X124819000Y-85722250D01*
X122290592Y-85722250D01*
X121342557Y-84774215D01*
X124819000Y-84774215D01*
X124819000Y-85277750D01*
X124914250Y-85373000D01*
X125423000Y-85373000D01*
X125423000Y-84564250D01*
X125677000Y-84564250D01*
X125677000Y-85373000D01*
X126185750Y-85373000D01*
X126281000Y-85277750D01*
X126281000Y-84774215D01*
X126222996Y-84634181D01*
X126115820Y-84527004D01*
X125975786Y-84469000D01*
X125772250Y-84469000D01*
X125677000Y-84564250D01*
X125423000Y-84564250D01*
X125327750Y-84469000D01*
X125124214Y-84469000D01*
X124984180Y-84527004D01*
X124877004Y-84634181D01*
X124819000Y-84774215D01*
X121342557Y-84774215D01*
X119290592Y-82722250D01*
X124819000Y-82722250D01*
X124819000Y-83225785D01*
X124877004Y-83365819D01*
X124984180Y-83472996D01*
X125124214Y-83531000D01*
X125327750Y-83531000D01*
X125423000Y-83435750D01*
X125423000Y-82627000D01*
X124914250Y-82627000D01*
X124819000Y-82722250D01*
X119290592Y-82722250D01*
X118342557Y-81774215D01*
X124819000Y-81774215D01*
X124819000Y-82277750D01*
X124914250Y-82373000D01*
X125423000Y-82373000D01*
X125423000Y-81564250D01*
X125327750Y-81469000D01*
X125124214Y-81469000D01*
X124984180Y-81527004D01*
X124877004Y-81634181D01*
X124819000Y-81774215D01*
X118342557Y-81774215D01*
X117500400Y-80932058D01*
X117500400Y-80524171D01*
X117589408Y-80613335D01*
X117855376Y-80723774D01*
X118143361Y-80724025D01*
X118409521Y-80614050D01*
X118490312Y-80533400D01*
X124779058Y-80533400D01*
X125743454Y-81497796D01*
X125677000Y-81564250D01*
X125677000Y-82373000D01*
X125697000Y-82373000D01*
X125697000Y-82627000D01*
X125677000Y-82627000D01*
X125677000Y-83435750D01*
X125772250Y-83531000D01*
X125966600Y-83531000D01*
X125966600Y-84000000D01*
X126007203Y-84204123D01*
X126122829Y-84377171D01*
X126711536Y-84965878D01*
X126711536Y-86150000D01*
X126738103Y-86291190D01*
X126821546Y-86420865D01*
X126948866Y-86507859D01*
X127100000Y-86538464D01*
X127800000Y-86538464D01*
X127941190Y-86511897D01*
X128070865Y-86428454D01*
X128157859Y-86301134D01*
X128188464Y-86150000D01*
X128188464Y-86033400D01*
X129245978Y-86033400D01*
X129204883Y-86240000D01*
X129298587Y-86711083D01*
X129565435Y-87110448D01*
X129964800Y-87377296D01*
X130435883Y-87471000D01*
X130484117Y-87471000D01*
X130955200Y-87377296D01*
X131354565Y-87110448D01*
X131621413Y-86711083D01*
X131715117Y-86240000D01*
X131621413Y-85768917D01*
X131464045Y-85533400D01*
X131539058Y-85533400D01*
X131827967Y-85822309D01*
X131744883Y-86240000D01*
X131838587Y-86711083D01*
X132105435Y-87110448D01*
X132504800Y-87377296D01*
X132975883Y-87471000D01*
X133024117Y-87471000D01*
X133495200Y-87377296D01*
X133894565Y-87110448D01*
X134161413Y-86711083D01*
X134255117Y-86240000D01*
X134161413Y-85768917D01*
X133894565Y-85369552D01*
X133495200Y-85102704D01*
X133024117Y-85009000D01*
X132975883Y-85009000D01*
X132598423Y-85084081D01*
X132137171Y-84622829D01*
X131964123Y-84507203D01*
X131760000Y-84466600D01*
X131393655Y-84466600D01*
X131525245Y-84316964D01*
X131649489Y-84016980D01*
X131588627Y-83827000D01*
X130587000Y-83827000D01*
X130587000Y-83847000D01*
X130333000Y-83847000D01*
X130333000Y-83827000D01*
X129331373Y-83827000D01*
X129270708Y-84016366D01*
X128637362Y-83383020D01*
X129270511Y-83383020D01*
X129331373Y-83573000D01*
X130333000Y-83573000D01*
X130333000Y-82570807D01*
X130587000Y-82570807D01*
X130587000Y-83573000D01*
X131588627Y-83573000D01*
X131649489Y-83383020D01*
X131525245Y-83083036D01*
X131208056Y-82722348D01*
X130776982Y-82510499D01*
X130587000Y-82570807D01*
X130333000Y-82570807D01*
X130143018Y-82510499D01*
X129711944Y-82722348D01*
X129394755Y-83083036D01*
X129270511Y-83383020D01*
X128637362Y-83383020D01*
X128188464Y-82934122D01*
X128188464Y-81850000D01*
X128161897Y-81708810D01*
X128078454Y-81579135D01*
X127983400Y-81514187D01*
X127983400Y-81450000D01*
X127977875Y-81422223D01*
X127942797Y-81245876D01*
X127885417Y-81160000D01*
X129204883Y-81160000D01*
X129298587Y-81631083D01*
X129565435Y-82030448D01*
X129964800Y-82297296D01*
X130435883Y-82391000D01*
X130484117Y-82391000D01*
X130955200Y-82297296D01*
X131354565Y-82030448D01*
X131621413Y-81631083D01*
X131715117Y-81160000D01*
X131621413Y-80688917D01*
X131354565Y-80289552D01*
X130955200Y-80022704D01*
X130484117Y-79929000D01*
X130435883Y-79929000D01*
X129964800Y-80022704D01*
X129565435Y-80289552D01*
X129298587Y-80688917D01*
X129204883Y-81160000D01*
X127885417Y-81160000D01*
X127827171Y-81072829D01*
X125377171Y-78622829D01*
X125372938Y-78620000D01*
X129204883Y-78620000D01*
X129298587Y-79091083D01*
X129565435Y-79490448D01*
X129964800Y-79757296D01*
X130435883Y-79851000D01*
X130484117Y-79851000D01*
X130955200Y-79757296D01*
X131354565Y-79490448D01*
X131621413Y-79091083D01*
X131715117Y-78620000D01*
X131744883Y-78620000D01*
X131838587Y-79091083D01*
X132105435Y-79490448D01*
X132504800Y-79757296D01*
X132975883Y-79851000D01*
X133024117Y-79851000D01*
X133495200Y-79757296D01*
X133894565Y-79490448D01*
X134161413Y-79091083D01*
X134255117Y-78620000D01*
X134161413Y-78148917D01*
X133894565Y-77749552D01*
X133495200Y-77482704D01*
X133024117Y-77389000D01*
X132975883Y-77389000D01*
X132504800Y-77482704D01*
X132105435Y-77749552D01*
X131838587Y-78148917D01*
X131744883Y-78620000D01*
X131715117Y-78620000D01*
X131621413Y-78148917D01*
X131354565Y-77749552D01*
X130955200Y-77482704D01*
X130484117Y-77389000D01*
X130435883Y-77389000D01*
X129964800Y-77482704D01*
X129565435Y-77749552D01*
X129298587Y-78148917D01*
X129204883Y-78620000D01*
X125372938Y-78620000D01*
X125204123Y-78507203D01*
X125000000Y-78466600D01*
X119990387Y-78466600D01*
X119910592Y-78386665D01*
X119644624Y-78276226D01*
X119356639Y-78275975D01*
X119090479Y-78385950D01*
X118886665Y-78589408D01*
X118776226Y-78855376D01*
X118775975Y-79143361D01*
X118885950Y-79409521D01*
X118942929Y-79466600D01*
X118490387Y-79466600D01*
X118410592Y-79386665D01*
X118144624Y-79276226D01*
X117856639Y-79275975D01*
X117590479Y-79385950D01*
X117500400Y-79475872D01*
X117500400Y-70987000D01*
X117459797Y-70782877D01*
X117344171Y-70609829D01*
X112635826Y-65901484D01*
X112682801Y-65788354D01*
X112683198Y-65333641D01*
X112509554Y-64913388D01*
X112188303Y-64591577D01*
X111861797Y-64456000D01*
X113758774Y-64456000D01*
X113433388Y-64590446D01*
X113111577Y-64911697D01*
X112937199Y-65331646D01*
X112936802Y-65786359D01*
X113110446Y-66206612D01*
X113431697Y-66528423D01*
X113851646Y-66702801D01*
X114306359Y-66703198D01*
X114421345Y-66655687D01*
X124222829Y-76457171D01*
X124395877Y-76572797D01*
X124600000Y-76613401D01*
X124600005Y-76613400D01*
X129340226Y-76613400D01*
X129565435Y-76950448D01*
X129964800Y-77217296D01*
X130435883Y-77311000D01*
X130484117Y-77311000D01*
X130955200Y-77217296D01*
X131354565Y-76950448D01*
X131621413Y-76551083D01*
X131715117Y-76080000D01*
X131744883Y-76080000D01*
X131838587Y-76551083D01*
X132105435Y-76950448D01*
X132504800Y-77217296D01*
X132975883Y-77311000D01*
X133024117Y-77311000D01*
X133495200Y-77217296D01*
X133894565Y-76950448D01*
X134083986Y-76666959D01*
X136358602Y-76666959D01*
X136532246Y-77087212D01*
X136853497Y-77409023D01*
X136937176Y-77443769D01*
X136855188Y-77477646D01*
X136533377Y-77798897D01*
X136358999Y-78218846D01*
X136358602Y-78673559D01*
X136532246Y-79093812D01*
X136853497Y-79415623D01*
X136937176Y-79450369D01*
X136855188Y-79484246D01*
X136533377Y-79805497D01*
X136358999Y-80225446D01*
X136358602Y-80680159D01*
X136532246Y-81100412D01*
X136853497Y-81422223D01*
X136937176Y-81456969D01*
X136855188Y-81490846D01*
X136533377Y-81812097D01*
X136358999Y-82232046D01*
X136358602Y-82686759D01*
X136532246Y-83107012D01*
X136853497Y-83428823D01*
X136937176Y-83463569D01*
X136855188Y-83497446D01*
X136533377Y-83818697D01*
X136358999Y-84238646D01*
X136358602Y-84693359D01*
X136532246Y-85113612D01*
X136853497Y-85435423D01*
X136937176Y-85470169D01*
X136855188Y-85504046D01*
X136533377Y-85825297D01*
X136358999Y-86245246D01*
X136358602Y-86699959D01*
X136532246Y-87120212D01*
X136853497Y-87442023D01*
X136937176Y-87476769D01*
X136855188Y-87510646D01*
X136533377Y-87831897D01*
X136358999Y-88251846D01*
X136358602Y-88706559D01*
X136532246Y-89126812D01*
X136853497Y-89448623D01*
X136937176Y-89483369D01*
X136855188Y-89517246D01*
X136533377Y-89838497D01*
X136358999Y-90258446D01*
X136358602Y-90713159D01*
X136532246Y-91133412D01*
X136853497Y-91455223D01*
X136937176Y-91489969D01*
X136855188Y-91523846D01*
X136533377Y-91845097D01*
X136358999Y-92265046D01*
X136358602Y-92719759D01*
X136532246Y-93140012D01*
X136853497Y-93461823D01*
X136922488Y-93490470D01*
X136840245Y-93658840D01*
X137501800Y-94320395D01*
X138095836Y-93726359D01*
X153576802Y-93726359D01*
X153750446Y-94146612D01*
X154071697Y-94468423D01*
X154491646Y-94642801D01*
X154946359Y-94643198D01*
X155366612Y-94469554D01*
X155688423Y-94148303D01*
X155862801Y-93728354D01*
X155862802Y-93726359D01*
X156116802Y-93726359D01*
X156290446Y-94146612D01*
X156611697Y-94468423D01*
X157031646Y-94642801D01*
X157486359Y-94643198D01*
X157906612Y-94469554D01*
X158228423Y-94148303D01*
X158402801Y-93728354D01*
X158403198Y-93273641D01*
X158229554Y-92853388D01*
X157908303Y-92531577D01*
X157488354Y-92357199D01*
X157033641Y-92356802D01*
X156613388Y-92530446D01*
X156291577Y-92851697D01*
X156117199Y-93271646D01*
X156116802Y-93726359D01*
X155862802Y-93726359D01*
X155863198Y-93273641D01*
X155689554Y-92853388D01*
X155368303Y-92531577D01*
X154948354Y-92357199D01*
X154493641Y-92356802D01*
X154073388Y-92530446D01*
X153751577Y-92851697D01*
X153577199Y-93271646D01*
X153576802Y-93726359D01*
X138095836Y-93726359D01*
X138163355Y-93658840D01*
X138081231Y-93490713D01*
X138148412Y-93462954D01*
X138470223Y-93141703D01*
X138644601Y-92721754D01*
X138644998Y-92267041D01*
X138471354Y-91846788D01*
X138150103Y-91524977D01*
X138066424Y-91490231D01*
X138148412Y-91456354D01*
X138470223Y-91135103D01*
X138644601Y-90715154D01*
X138644998Y-90260441D01*
X138471354Y-89840188D01*
X138150103Y-89518377D01*
X138066424Y-89483631D01*
X138148412Y-89449754D01*
X138470223Y-89128503D01*
X138644601Y-88708554D01*
X138644998Y-88253841D01*
X138471354Y-87833588D01*
X138150103Y-87511777D01*
X138066424Y-87477031D01*
X138148412Y-87443154D01*
X138470223Y-87121903D01*
X138644601Y-86701954D01*
X138644998Y-86247241D01*
X138471354Y-85826988D01*
X138150103Y-85505177D01*
X138066424Y-85470431D01*
X138148412Y-85436554D01*
X138470223Y-85115303D01*
X138644601Y-84695354D01*
X138644998Y-84240641D01*
X138471354Y-83820388D01*
X138150103Y-83498577D01*
X138066424Y-83463831D01*
X138148412Y-83429954D01*
X138470223Y-83108703D01*
X138644601Y-82688754D01*
X138644998Y-82234041D01*
X138471354Y-81813788D01*
X138150103Y-81491977D01*
X138066424Y-81457231D01*
X138148412Y-81423354D01*
X138470223Y-81102103D01*
X138644601Y-80682154D01*
X138644998Y-80227441D01*
X138471354Y-79807188D01*
X138150103Y-79485377D01*
X138066424Y-79450631D01*
X138148412Y-79416754D01*
X138470223Y-79095503D01*
X138644601Y-78675554D01*
X138644998Y-78220841D01*
X138471354Y-77800588D01*
X138150103Y-77478777D01*
X138066424Y-77444031D01*
X138148412Y-77410154D01*
X138470223Y-77088903D01*
X138644601Y-76668954D01*
X138644998Y-76214241D01*
X138471354Y-75793988D01*
X138150103Y-75472177D01*
X137730154Y-75297799D01*
X137275441Y-75297402D01*
X136855188Y-75471046D01*
X136533377Y-75792297D01*
X136358999Y-76212246D01*
X136358602Y-76666959D01*
X134083986Y-76666959D01*
X134161413Y-76551083D01*
X134255117Y-76080000D01*
X134161413Y-75608917D01*
X133894565Y-75209552D01*
X133495200Y-74942704D01*
X133024117Y-74849000D01*
X132975883Y-74849000D01*
X132504800Y-74942704D01*
X132105435Y-75209552D01*
X131838587Y-75608917D01*
X131744883Y-76080000D01*
X131715117Y-76080000D01*
X131621413Y-75608917D01*
X131354565Y-75209552D01*
X130955200Y-74942704D01*
X130484117Y-74849000D01*
X130435883Y-74849000D01*
X129964800Y-74942704D01*
X129565435Y-75209552D01*
X129340226Y-75546600D01*
X124820942Y-75546600D01*
X122814342Y-73540000D01*
X129204883Y-73540000D01*
X129298587Y-74011083D01*
X129565435Y-74410448D01*
X129964800Y-74677296D01*
X130435883Y-74771000D01*
X130484117Y-74771000D01*
X130955200Y-74677296D01*
X131354565Y-74410448D01*
X131621413Y-74011083D01*
X131715117Y-73540000D01*
X131621413Y-73068917D01*
X131354565Y-72669552D01*
X130955200Y-72402704D01*
X130484117Y-72309000D01*
X130435883Y-72309000D01*
X129964800Y-72402704D01*
X129565435Y-72669552D01*
X129298587Y-73068917D01*
X129204883Y-73540000D01*
X122814342Y-73540000D01*
X119424342Y-70150000D01*
X131761536Y-70150000D01*
X131761536Y-71850000D01*
X131788103Y-71991190D01*
X131871546Y-72120865D01*
X131998866Y-72207859D01*
X132150000Y-72238464D01*
X133850000Y-72238464D01*
X133991190Y-72211897D01*
X134120865Y-72128454D01*
X134207859Y-72001134D01*
X134238464Y-71850000D01*
X134238464Y-70150000D01*
X134211897Y-70008810D01*
X134128454Y-69879135D01*
X134001134Y-69792141D01*
X133850000Y-69761536D01*
X132150000Y-69761536D01*
X132008810Y-69788103D01*
X131879135Y-69871546D01*
X131792141Y-69998866D01*
X131761536Y-70150000D01*
X119424342Y-70150000D01*
X115175826Y-65901484D01*
X115222801Y-65788354D01*
X115223198Y-65333641D01*
X115049554Y-64913388D01*
X114728303Y-64591577D01*
X114401797Y-64456000D01*
X116298774Y-64456000D01*
X115973388Y-64590446D01*
X115651577Y-64911697D01*
X115477199Y-65331646D01*
X115476802Y-65786359D01*
X115650446Y-66206612D01*
X115971697Y-66528423D01*
X116391646Y-66702801D01*
X116846359Y-66703198D01*
X117266612Y-66529554D01*
X117395229Y-66401160D01*
X118498445Y-66401160D01*
X118581824Y-66571856D01*
X119013055Y-66716091D01*
X119466657Y-66684322D01*
X119738176Y-66571856D01*
X119821555Y-66401160D01*
X121038445Y-66401160D01*
X121121824Y-66571856D01*
X121553055Y-66716091D01*
X122006657Y-66684322D01*
X122278176Y-66571856D01*
X122361555Y-66401160D01*
X123578445Y-66401160D01*
X123661824Y-66571856D01*
X124093055Y-66716091D01*
X124546657Y-66684322D01*
X124818176Y-66571856D01*
X124901555Y-66401160D01*
X126118445Y-66401160D01*
X126201824Y-66571856D01*
X126633055Y-66716091D01*
X127086657Y-66684322D01*
X127358176Y-66571856D01*
X127441555Y-66401160D01*
X128658445Y-66401160D01*
X128741824Y-66571856D01*
X129173055Y-66716091D01*
X129626657Y-66684322D01*
X129898176Y-66571856D01*
X129981555Y-66401160D01*
X131198445Y-66401160D01*
X131281824Y-66571856D01*
X131713055Y-66716091D01*
X132166657Y-66684322D01*
X132438176Y-66571856D01*
X132521555Y-66401160D01*
X133738445Y-66401160D01*
X133821824Y-66571856D01*
X134253055Y-66716091D01*
X134706657Y-66684322D01*
X134978176Y-66571856D01*
X135061555Y-66401160D01*
X134400000Y-65739605D01*
X133738445Y-66401160D01*
X132521555Y-66401160D01*
X131860000Y-65739605D01*
X131198445Y-66401160D01*
X129981555Y-66401160D01*
X129320000Y-65739605D01*
X128658445Y-66401160D01*
X127441555Y-66401160D01*
X126780000Y-65739605D01*
X126118445Y-66401160D01*
X124901555Y-66401160D01*
X124240000Y-65739605D01*
X123578445Y-66401160D01*
X122361555Y-66401160D01*
X121700000Y-65739605D01*
X121038445Y-66401160D01*
X119821555Y-66401160D01*
X119160000Y-65739605D01*
X118498445Y-66401160D01*
X117395229Y-66401160D01*
X117588423Y-66208303D01*
X117762801Y-65788354D01*
X117763128Y-65413055D01*
X118003909Y-65413055D01*
X118035678Y-65866657D01*
X118148144Y-66138176D01*
X118318840Y-66221555D01*
X118980395Y-65560000D01*
X119339605Y-65560000D01*
X120001160Y-66221555D01*
X120171856Y-66138176D01*
X120316091Y-65706945D01*
X120295508Y-65413055D01*
X120543909Y-65413055D01*
X120575678Y-65866657D01*
X120688144Y-66138176D01*
X120858840Y-66221555D01*
X121520395Y-65560000D01*
X121879605Y-65560000D01*
X122541160Y-66221555D01*
X122711856Y-66138176D01*
X122856091Y-65706945D01*
X122835508Y-65413055D01*
X123083909Y-65413055D01*
X123115678Y-65866657D01*
X123228144Y-66138176D01*
X123398840Y-66221555D01*
X124060395Y-65560000D01*
X124419605Y-65560000D01*
X125081160Y-66221555D01*
X125251856Y-66138176D01*
X125396091Y-65706945D01*
X125375508Y-65413055D01*
X125623909Y-65413055D01*
X125655678Y-65866657D01*
X125768144Y-66138176D01*
X125938840Y-66221555D01*
X126600395Y-65560000D01*
X126959605Y-65560000D01*
X127621160Y-66221555D01*
X127791856Y-66138176D01*
X127936091Y-65706945D01*
X127915508Y-65413055D01*
X128163909Y-65413055D01*
X128195678Y-65866657D01*
X128308144Y-66138176D01*
X128478840Y-66221555D01*
X129140395Y-65560000D01*
X129499605Y-65560000D01*
X130161160Y-66221555D01*
X130331856Y-66138176D01*
X130476091Y-65706945D01*
X130455508Y-65413055D01*
X130703909Y-65413055D01*
X130735678Y-65866657D01*
X130848144Y-66138176D01*
X131018840Y-66221555D01*
X131680395Y-65560000D01*
X132039605Y-65560000D01*
X132701160Y-66221555D01*
X132871856Y-66138176D01*
X133016091Y-65706945D01*
X132995508Y-65413055D01*
X133243909Y-65413055D01*
X133275678Y-65866657D01*
X133388144Y-66138176D01*
X133558840Y-66221555D01*
X134220395Y-65560000D01*
X134579605Y-65560000D01*
X135241160Y-66221555D01*
X135411856Y-66138176D01*
X135556091Y-65706945D01*
X135524322Y-65253343D01*
X135411856Y-64981824D01*
X135241160Y-64898445D01*
X134579605Y-65560000D01*
X134220395Y-65560000D01*
X133558840Y-64898445D01*
X133388144Y-64981824D01*
X133243909Y-65413055D01*
X132995508Y-65413055D01*
X132984322Y-65253343D01*
X132871856Y-64981824D01*
X132701160Y-64898445D01*
X132039605Y-65560000D01*
X131680395Y-65560000D01*
X131018840Y-64898445D01*
X130848144Y-64981824D01*
X130703909Y-65413055D01*
X130455508Y-65413055D01*
X130444322Y-65253343D01*
X130331856Y-64981824D01*
X130161160Y-64898445D01*
X129499605Y-65560000D01*
X129140395Y-65560000D01*
X128478840Y-64898445D01*
X128308144Y-64981824D01*
X128163909Y-65413055D01*
X127915508Y-65413055D01*
X127904322Y-65253343D01*
X127791856Y-64981824D01*
X127621160Y-64898445D01*
X126959605Y-65560000D01*
X126600395Y-65560000D01*
X125938840Y-64898445D01*
X125768144Y-64981824D01*
X125623909Y-65413055D01*
X125375508Y-65413055D01*
X125364322Y-65253343D01*
X125251856Y-64981824D01*
X125081160Y-64898445D01*
X124419605Y-65560000D01*
X124060395Y-65560000D01*
X123398840Y-64898445D01*
X123228144Y-64981824D01*
X123083909Y-65413055D01*
X122835508Y-65413055D01*
X122824322Y-65253343D01*
X122711856Y-64981824D01*
X122541160Y-64898445D01*
X121879605Y-65560000D01*
X121520395Y-65560000D01*
X120858840Y-64898445D01*
X120688144Y-64981824D01*
X120543909Y-65413055D01*
X120295508Y-65413055D01*
X120284322Y-65253343D01*
X120171856Y-64981824D01*
X120001160Y-64898445D01*
X119339605Y-65560000D01*
X118980395Y-65560000D01*
X118318840Y-64898445D01*
X118148144Y-64981824D01*
X118003909Y-65413055D01*
X117763128Y-65413055D01*
X117763198Y-65333641D01*
X117589554Y-64913388D01*
X117268303Y-64591577D01*
X116941797Y-64456000D01*
X118804281Y-64456000D01*
X118581824Y-64548144D01*
X118498445Y-64718840D01*
X119160000Y-65380395D01*
X119821555Y-64718840D01*
X119738176Y-64548144D01*
X119462686Y-64456000D01*
X121344281Y-64456000D01*
X121121824Y-64548144D01*
X121038445Y-64718840D01*
X121700000Y-65380395D01*
X122361555Y-64718840D01*
X122278176Y-64548144D01*
X122002686Y-64456000D01*
X123884281Y-64456000D01*
X123661824Y-64548144D01*
X123578445Y-64718840D01*
X124240000Y-65380395D01*
X124901555Y-64718840D01*
X124818176Y-64548144D01*
X124542686Y-64456000D01*
X126424281Y-64456000D01*
X126201824Y-64548144D01*
X126118445Y-64718840D01*
X126780000Y-65380395D01*
X127441555Y-64718840D01*
X127358176Y-64548144D01*
X127082686Y-64456000D01*
X128964281Y-64456000D01*
X128741824Y-64548144D01*
X128658445Y-64718840D01*
X129320000Y-65380395D01*
X129981555Y-64718840D01*
X129898176Y-64548144D01*
X129622686Y-64456000D01*
X131504281Y-64456000D01*
X131281824Y-64548144D01*
X131198445Y-64718840D01*
X131860000Y-65380395D01*
X132521555Y-64718840D01*
X132438176Y-64548144D01*
X132162686Y-64456000D01*
X134044281Y-64456000D01*
X133821824Y-64548144D01*
X133738445Y-64718840D01*
X134400000Y-65380395D01*
X135061555Y-64718840D01*
X134978176Y-64548144D01*
X134702686Y-64456000D01*
X136618774Y-64456000D01*
X136293388Y-64590446D01*
X135971577Y-64911697D01*
X135797199Y-65331646D01*
X135796802Y-65786359D01*
X135970446Y-66206612D01*
X136291697Y-66528423D01*
X136711646Y-66702801D01*
X137166359Y-66703198D01*
X137586612Y-66529554D01*
X137908423Y-66208303D01*
X138082801Y-65788354D01*
X138083198Y-65333641D01*
X137909554Y-64913388D01*
X137588303Y-64591577D01*
X137261797Y-64456000D01*
X139158774Y-64456000D01*
X138833388Y-64590446D01*
X138511577Y-64911697D01*
X138337199Y-65331646D01*
X138336802Y-65786359D01*
X138510446Y-66206612D01*
X138831697Y-66528423D01*
X138866600Y-66542916D01*
X138866600Y-67629058D01*
X133853527Y-72642131D01*
X133495200Y-72402704D01*
X133024117Y-72309000D01*
X132975883Y-72309000D01*
X132504800Y-72402704D01*
X132105435Y-72669552D01*
X131838587Y-73068917D01*
X131744883Y-73540000D01*
X131838587Y-74011083D01*
X132105435Y-74410448D01*
X132504800Y-74677296D01*
X132975883Y-74771000D01*
X133024117Y-74771000D01*
X133495200Y-74677296D01*
X133894565Y-74410448D01*
X134161413Y-74011083D01*
X134203166Y-73801176D01*
X137112026Y-70892316D01*
X155268657Y-70892316D01*
X155569611Y-71620680D01*
X156126389Y-72178431D01*
X156854226Y-72480655D01*
X157642316Y-72481343D01*
X158370680Y-72180389D01*
X158928431Y-71623611D01*
X159230655Y-70895774D01*
X159231343Y-70107684D01*
X158930389Y-69379320D01*
X158373611Y-68821569D01*
X157645774Y-68519345D01*
X156857684Y-68518657D01*
X156129320Y-68819611D01*
X155571569Y-69376389D01*
X155269345Y-70104226D01*
X155268657Y-70892316D01*
X137112026Y-70892316D01*
X139777171Y-68227171D01*
X139892797Y-68054123D01*
X139933400Y-67850000D01*
X139933400Y-66609387D01*
X140126612Y-66529554D01*
X140448423Y-66208303D01*
X140622801Y-65788354D01*
X140623198Y-65333641D01*
X140449554Y-64913388D01*
X140128303Y-64591577D01*
X139801797Y-64456000D01*
X141698774Y-64456000D01*
X141373388Y-64590446D01*
X141051577Y-64911697D01*
X140877199Y-65331646D01*
X140876802Y-65786359D01*
X141050446Y-66206612D01*
X141371697Y-66528423D01*
X141791646Y-66702801D01*
X142246359Y-66703198D01*
X142666612Y-66529554D01*
X142795229Y-66401160D01*
X143898445Y-66401160D01*
X143981824Y-66571856D01*
X144413055Y-66716091D01*
X144866657Y-66684322D01*
X145138176Y-66571856D01*
X145221555Y-66401160D01*
X146438445Y-66401160D01*
X146521824Y-66571856D01*
X146953055Y-66716091D01*
X147406657Y-66684322D01*
X147678176Y-66571856D01*
X147761555Y-66401160D01*
X147100000Y-65739605D01*
X146438445Y-66401160D01*
X145221555Y-66401160D01*
X144560000Y-65739605D01*
X143898445Y-66401160D01*
X142795229Y-66401160D01*
X142988423Y-66208303D01*
X143162801Y-65788354D01*
X143163128Y-65413055D01*
X143403909Y-65413055D01*
X143435678Y-65866657D01*
X143548144Y-66138176D01*
X143718840Y-66221555D01*
X144380395Y-65560000D01*
X144739605Y-65560000D01*
X145401160Y-66221555D01*
X145571856Y-66138176D01*
X145716091Y-65706945D01*
X145695508Y-65413055D01*
X145943909Y-65413055D01*
X145975678Y-65866657D01*
X146088144Y-66138176D01*
X146258840Y-66221555D01*
X146920395Y-65560000D01*
X147279605Y-65560000D01*
X147941160Y-66221555D01*
X148111856Y-66138176D01*
X148256091Y-65706945D01*
X148224322Y-65253343D01*
X148111856Y-64981824D01*
X147941160Y-64898445D01*
X147279605Y-65560000D01*
X146920395Y-65560000D01*
X146258840Y-64898445D01*
X146088144Y-64981824D01*
X145943909Y-65413055D01*
X145695508Y-65413055D01*
X145684322Y-65253343D01*
X145571856Y-64981824D01*
X145401160Y-64898445D01*
X144739605Y-65560000D01*
X144380395Y-65560000D01*
X143718840Y-64898445D01*
X143548144Y-64981824D01*
X143403909Y-65413055D01*
X143163128Y-65413055D01*
X143163198Y-65333641D01*
X142989554Y-64913388D01*
X142668303Y-64591577D01*
X142341797Y-64456000D01*
X144204281Y-64456000D01*
X143981824Y-64548144D01*
X143898445Y-64718840D01*
X144560000Y-65380395D01*
X145221555Y-64718840D01*
X145138176Y-64548144D01*
X144862686Y-64456000D01*
X146744281Y-64456000D01*
X146521824Y-64548144D01*
X146438445Y-64718840D01*
X147100000Y-65380395D01*
X147761555Y-64718840D01*
X147678176Y-64548144D01*
X147402686Y-64456000D01*
X149318774Y-64456000D01*
X148993388Y-64590446D01*
X148671577Y-64911697D01*
X148497199Y-65331646D01*
X148496802Y-65786359D01*
X148670446Y-66206612D01*
X148991697Y-66528423D01*
X149411646Y-66702801D01*
X149866359Y-66703198D01*
X150286612Y-66529554D01*
X150608423Y-66208303D01*
X150782801Y-65788354D01*
X150783198Y-65333641D01*
X150609554Y-64913388D01*
X150288303Y-64591577D01*
X149961797Y-64456000D01*
X151858774Y-64456000D01*
X151533388Y-64590446D01*
X151211577Y-64911697D01*
X151037199Y-65331646D01*
X151036802Y-65786359D01*
X151210446Y-66206612D01*
X151531697Y-66528423D01*
X151951646Y-66702801D01*
X152406359Y-66703198D01*
X152826612Y-66529554D01*
X153148423Y-66208303D01*
X153322801Y-65788354D01*
X153323198Y-65333641D01*
X153149554Y-64913388D01*
X152828303Y-64591577D01*
X152501797Y-64456000D01*
X154398774Y-64456000D01*
X154073388Y-64590446D01*
X153751577Y-64911697D01*
X153577199Y-65331646D01*
X153576802Y-65786359D01*
X153750446Y-66206612D01*
X154071697Y-66528423D01*
X154491646Y-66702801D01*
X154946359Y-66703198D01*
X155366612Y-66529554D01*
X155688423Y-66208303D01*
X155862801Y-65788354D01*
X155863198Y-65333641D01*
X155689554Y-64913388D01*
X155368303Y-64591577D01*
X155041797Y-64456000D01*
X156938774Y-64456000D01*
X156613388Y-64590446D01*
X156291577Y-64911697D01*
X156117199Y-65331646D01*
X156116802Y-65786359D01*
X156290446Y-66206612D01*
X156611697Y-66528423D01*
X157031646Y-66702801D01*
X157486359Y-66703198D01*
X157906612Y-66529554D01*
X158228423Y-66208303D01*
X158402801Y-65788354D01*
X158403198Y-65333641D01*
X158229554Y-64913388D01*
X157908303Y-64591577D01*
X157581797Y-64456000D01*
X160544000Y-64456000D01*
X160544000Y-75978518D01*
X160467754Y-75793988D01*
X160146503Y-75472177D01*
X159726554Y-75297799D01*
X159271841Y-75297402D01*
X158851588Y-75471046D01*
X158529777Y-75792297D01*
X158355399Y-76212246D01*
X158355002Y-76666959D01*
X158528646Y-77087212D01*
X158849897Y-77409023D01*
X158933576Y-77443769D01*
X158851588Y-77477646D01*
X158529777Y-77798897D01*
X158355399Y-78218846D01*
X158355002Y-78673559D01*
X158528646Y-79093812D01*
X158849897Y-79415623D01*
X158933576Y-79450369D01*
X158851588Y-79484246D01*
X158529777Y-79805497D01*
X158355399Y-80225446D01*
X158355002Y-80680159D01*
X158528646Y-81100412D01*
X158849897Y-81422223D01*
X158933576Y-81456969D01*
X158851588Y-81490846D01*
X158529777Y-81812097D01*
X158355399Y-82232046D01*
X158355002Y-82686759D01*
X158528646Y-83107012D01*
X158849897Y-83428823D01*
X158933576Y-83463569D01*
X158851588Y-83497446D01*
X158529777Y-83818697D01*
X158355399Y-84238646D01*
X158355002Y-84693359D01*
X158528646Y-85113612D01*
X158849897Y-85435423D01*
X158933576Y-85470169D01*
X158851588Y-85504046D01*
X158529777Y-85825297D01*
X158355399Y-86245246D01*
X158355002Y-86699959D01*
X158528646Y-87120212D01*
X158849897Y-87442023D01*
X158933576Y-87476769D01*
X158851588Y-87510646D01*
X158529777Y-87831897D01*
X158355399Y-88251846D01*
X158355002Y-88706559D01*
X158528646Y-89126812D01*
X158849897Y-89448623D01*
X158933576Y-89483369D01*
X158851588Y-89517246D01*
X158529777Y-89838497D01*
X158355399Y-90258446D01*
X158355002Y-90713159D01*
X158528646Y-91133412D01*
X158849897Y-91455223D01*
X158933576Y-91489969D01*
X158851588Y-91523846D01*
X158529777Y-91845097D01*
X158355399Y-92265046D01*
X158355002Y-92719759D01*
X158528646Y-93140012D01*
X158849897Y-93461823D01*
X158933576Y-93496569D01*
X158851588Y-93530446D01*
X158529777Y-93851697D01*
X158355399Y-94271646D01*
X158355002Y-94726359D01*
X158528646Y-95146612D01*
X158849897Y-95468423D01*
X159269846Y-95642801D01*
X159724559Y-95643198D01*
X160144812Y-95469554D01*
X160466623Y-95148303D01*
X160544000Y-94961958D01*
X160544000Y-102044000D01*
X107956000Y-102044000D01*
X107956000Y-99142316D01*
X110018657Y-99142316D01*
X110319611Y-99870680D01*
X110876389Y-100428431D01*
X111604226Y-100730655D01*
X112392316Y-100731343D01*
X113120680Y-100430389D01*
X113678431Y-99873611D01*
X113978900Y-99150000D01*
X120261536Y-99150000D01*
X120261536Y-100850000D01*
X120288103Y-100991190D01*
X120371546Y-101120865D01*
X120498866Y-101207859D01*
X120650000Y-101238464D01*
X122350000Y-101238464D01*
X122491190Y-101211897D01*
X122620865Y-101128454D01*
X122707859Y-101001134D01*
X122738464Y-100850000D01*
X122738464Y-99150000D01*
X123761536Y-99150000D01*
X123761536Y-100850000D01*
X123788103Y-100991190D01*
X123871546Y-101120865D01*
X123998866Y-101207859D01*
X124150000Y-101238464D01*
X125850000Y-101238464D01*
X125991190Y-101211897D01*
X126120865Y-101128454D01*
X126207859Y-101001134D01*
X126238464Y-100850000D01*
X126238464Y-99515877D01*
X126377168Y-99377173D01*
X126377171Y-99377171D01*
X126492797Y-99204123D01*
X126503563Y-99150000D01*
X126533401Y-99000000D01*
X126533400Y-98999995D01*
X126533400Y-97007179D01*
X126641190Y-96986897D01*
X126770865Y-96903454D01*
X126857859Y-96776134D01*
X126888464Y-96625000D01*
X126888464Y-95375000D01*
X126861897Y-95233810D01*
X126778454Y-95104135D01*
X126651134Y-95017141D01*
X126500000Y-94986536D01*
X125500000Y-94986536D01*
X125358810Y-95013103D01*
X125229135Y-95096546D01*
X125142141Y-95223866D01*
X125111536Y-95375000D01*
X125111536Y-96625000D01*
X125138103Y-96766190D01*
X125221546Y-96895865D01*
X125348866Y-96982859D01*
X125466600Y-97006700D01*
X125466600Y-98761536D01*
X124150000Y-98761536D01*
X124008810Y-98788103D01*
X123879135Y-98871546D01*
X123792141Y-98998866D01*
X123761536Y-99150000D01*
X122738464Y-99150000D01*
X122711897Y-99008810D01*
X122628454Y-98879135D01*
X122501134Y-98792141D01*
X122350000Y-98761536D01*
X120650000Y-98761536D01*
X120508810Y-98788103D01*
X120379135Y-98871546D01*
X120292141Y-98998866D01*
X120261536Y-99150000D01*
X113978900Y-99150000D01*
X113980655Y-99145774D01*
X113981343Y-98357684D01*
X113680389Y-97629320D01*
X113123611Y-97071569D01*
X112395774Y-96769345D01*
X111607684Y-96768657D01*
X110879320Y-97069611D01*
X110321569Y-97626389D01*
X110019345Y-98354226D01*
X110018657Y-99142316D01*
X107956000Y-99142316D01*
X107956000Y-93966438D01*
X108030446Y-94146612D01*
X108351697Y-94468423D01*
X108771646Y-94642801D01*
X109226359Y-94643198D01*
X109646612Y-94469554D01*
X109968423Y-94148303D01*
X110142801Y-93728354D01*
X110142802Y-93726359D01*
X110396802Y-93726359D01*
X110570446Y-94146612D01*
X110891697Y-94468423D01*
X111311646Y-94642801D01*
X111766359Y-94643198D01*
X112186612Y-94469554D01*
X112508423Y-94148303D01*
X112682801Y-93728354D01*
X112683198Y-93273641D01*
X112509554Y-92853388D01*
X112188303Y-92531577D01*
X111768354Y-92357199D01*
X111313641Y-92356802D01*
X110893388Y-92530446D01*
X110571577Y-92851697D01*
X110397199Y-93271646D01*
X110396802Y-93726359D01*
X110142802Y-93726359D01*
X110143198Y-93273641D01*
X109969554Y-92853388D01*
X109648303Y-92531577D01*
X109228354Y-92357199D01*
X108773641Y-92356802D01*
X108353388Y-92530446D01*
X108031577Y-92851697D01*
X107956000Y-93033707D01*
X107956000Y-90850000D01*
X124811536Y-90850000D01*
X124811536Y-92150000D01*
X124838103Y-92291190D01*
X124921546Y-92420865D01*
X125016600Y-92485813D01*
X125016600Y-92550000D01*
X125057203Y-92754123D01*
X125172829Y-92927171D01*
X127297934Y-95052276D01*
X127229135Y-95096546D01*
X127142141Y-95223866D01*
X127111536Y-95375000D01*
X127111536Y-96625000D01*
X127138103Y-96766190D01*
X127221546Y-96895865D01*
X127348866Y-96982859D01*
X127467989Y-97006982D01*
X127507203Y-97204123D01*
X127622829Y-97377171D01*
X130122829Y-99877171D01*
X130295877Y-99992797D01*
X130500000Y-100033400D01*
X131261536Y-100033400D01*
X131261536Y-100350000D01*
X131288103Y-100491190D01*
X131371546Y-100620865D01*
X131498866Y-100707859D01*
X131650000Y-100738464D01*
X133350000Y-100738464D01*
X133491190Y-100711897D01*
X133620865Y-100628454D01*
X133707859Y-100501134D01*
X133738464Y-100350000D01*
X133738464Y-99475883D01*
X133809000Y-99475883D01*
X133809000Y-99524117D01*
X133902704Y-99995200D01*
X134169552Y-100394565D01*
X134568917Y-100661413D01*
X135040000Y-100755117D01*
X135511083Y-100661413D01*
X135910448Y-100394565D01*
X136177296Y-99995200D01*
X136271000Y-99524117D01*
X136271000Y-99475883D01*
X136177296Y-99004800D01*
X135910448Y-98605435D01*
X135511083Y-98338587D01*
X135040000Y-98244883D01*
X134568917Y-98338587D01*
X134169552Y-98605435D01*
X133902704Y-99004800D01*
X133809000Y-99475883D01*
X133738464Y-99475883D01*
X133738464Y-98650000D01*
X133711897Y-98508810D01*
X133628454Y-98379135D01*
X133501134Y-98292141D01*
X133350000Y-98261536D01*
X131650000Y-98261536D01*
X131508810Y-98288103D01*
X131379135Y-98371546D01*
X131292141Y-98498866D01*
X131261536Y-98650000D01*
X131261536Y-98966600D01*
X130720942Y-98966600D01*
X128702066Y-96947724D01*
X128770865Y-96903454D01*
X128857859Y-96776134D01*
X128888464Y-96625000D01*
X128888464Y-95375000D01*
X128882097Y-95341160D01*
X136840245Y-95341160D01*
X136923624Y-95511856D01*
X137354855Y-95656091D01*
X137808457Y-95624322D01*
X138079976Y-95511856D01*
X138163355Y-95341160D01*
X137501800Y-94679605D01*
X136840245Y-95341160D01*
X128882097Y-95341160D01*
X128861897Y-95233810D01*
X128778454Y-95104135D01*
X128651134Y-95017141D01*
X128532011Y-94993018D01*
X128492797Y-94795877D01*
X128492797Y-94795876D01*
X128377171Y-94622829D01*
X127614342Y-93860000D01*
X131744883Y-93860000D01*
X131838587Y-94331083D01*
X132105435Y-94730448D01*
X132504800Y-94997296D01*
X132975883Y-95091000D01*
X133024117Y-95091000D01*
X133495200Y-94997296D01*
X133894565Y-94730448D01*
X134146731Y-94353055D01*
X136345709Y-94353055D01*
X136377478Y-94806657D01*
X136489944Y-95078176D01*
X136660640Y-95161555D01*
X137322195Y-94500000D01*
X137681405Y-94500000D01*
X138342960Y-95161555D01*
X138513656Y-95078176D01*
X138657891Y-94646945D01*
X138626122Y-94193343D01*
X138513656Y-93921824D01*
X138342960Y-93838445D01*
X137681405Y-94500000D01*
X137322195Y-94500000D01*
X136660640Y-93838445D01*
X136489944Y-93921824D01*
X136345709Y-94353055D01*
X134146731Y-94353055D01*
X134161413Y-94331083D01*
X134255117Y-93860000D01*
X134161413Y-93388917D01*
X133894565Y-92989552D01*
X133495200Y-92722704D01*
X133024117Y-92629000D01*
X132975883Y-92629000D01*
X132504800Y-92722704D01*
X132105435Y-92989552D01*
X131838587Y-93388917D01*
X131744883Y-93860000D01*
X127614342Y-93860000D01*
X126175708Y-92421366D01*
X126257859Y-92301134D01*
X126288464Y-92150000D01*
X126288464Y-90850000D01*
X126711536Y-90850000D01*
X126711536Y-92150000D01*
X126738103Y-92291190D01*
X126821546Y-92420865D01*
X126948866Y-92507859D01*
X127100000Y-92538464D01*
X127800000Y-92538464D01*
X127941190Y-92511897D01*
X128070865Y-92428454D01*
X128157859Y-92301134D01*
X128188464Y-92150000D01*
X128188464Y-92033400D01*
X129460499Y-92033400D01*
X129565435Y-92190448D01*
X129964800Y-92457296D01*
X130435883Y-92551000D01*
X130484117Y-92551000D01*
X130955200Y-92457296D01*
X131354565Y-92190448D01*
X131621413Y-91791083D01*
X131715117Y-91320000D01*
X131744883Y-91320000D01*
X131838587Y-91791083D01*
X132105435Y-92190448D01*
X132504800Y-92457296D01*
X132975883Y-92551000D01*
X133024117Y-92551000D01*
X133495200Y-92457296D01*
X133894565Y-92190448D01*
X134161413Y-91791083D01*
X134255117Y-91320000D01*
X134161413Y-90848917D01*
X133894565Y-90449552D01*
X133495200Y-90182704D01*
X133024117Y-90089000D01*
X132975883Y-90089000D01*
X132504800Y-90182704D01*
X132105435Y-90449552D01*
X131838587Y-90848917D01*
X131744883Y-91320000D01*
X131715117Y-91320000D01*
X131621413Y-90848917D01*
X131354565Y-90449552D01*
X130955200Y-90182704D01*
X130484117Y-90089000D01*
X130435883Y-90089000D01*
X129964800Y-90182704D01*
X129565435Y-90449552D01*
X129298587Y-90848917D01*
X129275178Y-90966600D01*
X128188464Y-90966600D01*
X128188464Y-90850000D01*
X128161897Y-90708810D01*
X128078454Y-90579135D01*
X127951134Y-90492141D01*
X127800000Y-90461536D01*
X127100000Y-90461536D01*
X126958810Y-90488103D01*
X126829135Y-90571546D01*
X126742141Y-90698866D01*
X126711536Y-90850000D01*
X126288464Y-90850000D01*
X126261897Y-90708810D01*
X126178454Y-90579135D01*
X126051134Y-90492141D01*
X125900000Y-90461536D01*
X125200000Y-90461536D01*
X125058810Y-90488103D01*
X124929135Y-90571546D01*
X124842141Y-90698866D01*
X124811536Y-90850000D01*
X107956000Y-90850000D01*
X107956000Y-72142316D01*
X110018657Y-72142316D01*
X110319611Y-72870680D01*
X110876389Y-73428431D01*
X111604226Y-73730655D01*
X112392316Y-73731343D01*
X113120680Y-73430389D01*
X113678431Y-72873611D01*
X113980655Y-72145774D01*
X113981343Y-71357684D01*
X113680389Y-70629320D01*
X113123611Y-70071569D01*
X112395774Y-69769345D01*
X111607684Y-69768657D01*
X110879320Y-70069611D01*
X110321569Y-70626389D01*
X110019345Y-71354226D01*
X110018657Y-72142316D01*
X107956000Y-72142316D01*
X107956000Y-66401160D01*
X108338445Y-66401160D01*
X108421824Y-66571856D01*
X108853055Y-66716091D01*
X109306657Y-66684322D01*
X109578176Y-66571856D01*
X109661555Y-66401160D01*
X109000000Y-65739605D01*
X108338445Y-66401160D01*
X107956000Y-66401160D01*
X107956000Y-66060573D01*
X107988144Y-66138176D01*
X108158840Y-66221555D01*
X108820395Y-65560000D01*
X109179605Y-65560000D01*
X109841160Y-66221555D01*
X110011856Y-66138176D01*
X110156091Y-65706945D01*
X110124322Y-65253343D01*
X110011856Y-64981824D01*
X109841160Y-64898445D01*
X109179605Y-65560000D01*
X108820395Y-65560000D01*
X108158840Y-64898445D01*
X107988144Y-64981824D01*
X107956000Y-65077928D01*
X107956000Y-64456000D01*
X108644281Y-64456000D01*
X108421824Y-64548144D01*
M02*
