G04 #@! TF.FileFunction,Legend,Bot*
%FSLAX46Y46*%
G04 Gerber Fmt 4.6, Leading zero omitted, Abs format (unit mm)*
G04 Created by KiCad (PCBNEW 4.0.0-rc1-stable) date 06/07/2017 17:27:51*
%MOMM*%
G01*
G04 APERTURE LIST*
%ADD10C,0.076200*%
%ADD11C,0.150000*%
%ADD12C,0.120000*%
%ADD13C,0.127000*%
G04 APERTURE END LIST*
D10*
D11*
X136308000Y-93509400D02*
X138568600Y-93509400D01*
X138568600Y-93509400D02*
X138568600Y-95566800D01*
X138568600Y-95566800D02*
X136714400Y-95566800D01*
X136308000Y-95185800D02*
X136308000Y-74230800D01*
X136308000Y-74230800D02*
X160692000Y-74230800D01*
X160692000Y-74230800D02*
X160692000Y-95185800D01*
X160692000Y-95185800D02*
X153262500Y-102170800D01*
X153262500Y-102170800D02*
X143737500Y-102170800D01*
X143737500Y-102170800D02*
X136308000Y-95185800D01*
D12*
X127500000Y-96850000D02*
X126500000Y-96850000D01*
X126500000Y-95150000D02*
X127500000Y-95150000D01*
D11*
X134397000Y-95257000D02*
X134397000Y-85097000D01*
X134397000Y-85097000D02*
X131730000Y-85097000D01*
X131730000Y-85097000D02*
X131730000Y-79763000D01*
X131730000Y-79763000D02*
X134397000Y-79763000D01*
X134397000Y-79763000D02*
X134397000Y-72270000D01*
X131730000Y-95257000D02*
X134397000Y-95257000D01*
X129063000Y-72270000D02*
X129063000Y-92463000D01*
X129063000Y-92463000D02*
X131730000Y-92463000D01*
X131730000Y-92463000D02*
X131730000Y-95257000D01*
X129070000Y-72270000D02*
X131730000Y-72270000D01*
X131730000Y-72270000D02*
X131730000Y-69603000D01*
D12*
X134390000Y-71000000D02*
X134390000Y-69610000D01*
X134390000Y-69610000D02*
X133000000Y-69610000D01*
X126120000Y-80600000D02*
X126120000Y-81800000D01*
X127880000Y-81800000D02*
X127880000Y-80600000D01*
X127100000Y-88120000D02*
X125900000Y-88120000D01*
X125900000Y-89880000D02*
X127100000Y-89880000D01*
X127100000Y-90620000D02*
X125900000Y-90620000D01*
X125900000Y-92380000D02*
X127100000Y-92380000D01*
X123720000Y-80600000D02*
X123720000Y-81800000D01*
X125480000Y-81800000D02*
X125480000Y-80600000D01*
D13*
X149588572Y-73787262D02*
X149588572Y-73152262D01*
X149588572Y-73454643D02*
X149225714Y-73454643D01*
X149225714Y-73787262D02*
X149225714Y-73152262D01*
X148590714Y-73787262D02*
X148953572Y-73787262D01*
X148772143Y-73787262D02*
X148772143Y-73152262D01*
X148832619Y-73242976D01*
X148893095Y-73303452D01*
X148953572Y-73333690D01*
X148197619Y-73152262D02*
X148137143Y-73152262D01*
X148076667Y-73182500D01*
X148046429Y-73212738D01*
X148016191Y-73273214D01*
X147985952Y-73394167D01*
X147985952Y-73545357D01*
X148016191Y-73666310D01*
X148046429Y-73726786D01*
X148076667Y-73757024D01*
X148137143Y-73787262D01*
X148197619Y-73787262D01*
X148258095Y-73757024D01*
X148288333Y-73726786D01*
X148318572Y-73666310D01*
X148348810Y-73545357D01*
X148348810Y-73394167D01*
X148318572Y-73273214D01*
X148288333Y-73212738D01*
X148258095Y-73182500D01*
X148197619Y-73152262D01*
X147744048Y-73212738D02*
X147713810Y-73182500D01*
X147653333Y-73152262D01*
X147502143Y-73152262D01*
X147441667Y-73182500D01*
X147411429Y-73212738D01*
X147381190Y-73273214D01*
X147381190Y-73333690D01*
X147411429Y-73424405D01*
X147774286Y-73787262D01*
X147381190Y-73787262D01*
X149834785Y-85211462D02*
X149490826Y-85846462D01*
X149411451Y-85211462D02*
X149914160Y-85846462D01*
X148995678Y-85513843D02*
X148908744Y-85544081D01*
X148882284Y-85574319D01*
X148859606Y-85634795D01*
X148870945Y-85725510D01*
X148908743Y-85785986D01*
X148942761Y-85816224D01*
X149007017Y-85846462D01*
X149248922Y-85846462D01*
X149169547Y-85211462D01*
X148957880Y-85211462D01*
X148901184Y-85241700D01*
X148874726Y-85271938D01*
X148852046Y-85332414D01*
X148859606Y-85392890D01*
X148897404Y-85453367D01*
X148931422Y-85483605D01*
X148995678Y-85513843D01*
X149207345Y-85513843D01*
X148368237Y-85816224D02*
X148432493Y-85846462D01*
X148553445Y-85846462D01*
X148610142Y-85816224D01*
X148632821Y-85755748D01*
X148602583Y-85513843D01*
X148564785Y-85453367D01*
X148500529Y-85423129D01*
X148379577Y-85423129D01*
X148322880Y-85453367D01*
X148300202Y-85513843D01*
X148307761Y-85574319D01*
X148617702Y-85634795D01*
X147823951Y-85816224D02*
X147888207Y-85846462D01*
X148009159Y-85846462D01*
X148065856Y-85816224D01*
X148088535Y-85755748D01*
X148058297Y-85513843D01*
X148020499Y-85453367D01*
X147956243Y-85423129D01*
X147835291Y-85423129D01*
X147778594Y-85453367D01*
X147755916Y-85513843D01*
X147763475Y-85574319D01*
X148073416Y-85634795D01*
X127710595Y-97726786D02*
X127740833Y-97757024D01*
X127831548Y-97787262D01*
X127892024Y-97787262D01*
X127982738Y-97757024D01*
X128043214Y-97696548D01*
X128073453Y-97636071D01*
X128103691Y-97515119D01*
X128103691Y-97424405D01*
X128073453Y-97303452D01*
X128043214Y-97242976D01*
X127982738Y-97182500D01*
X127892024Y-97152262D01*
X127831548Y-97152262D01*
X127740833Y-97182500D01*
X127710595Y-97212738D01*
X127498929Y-97152262D02*
X127105833Y-97152262D01*
X127317500Y-97394167D01*
X127226786Y-97394167D01*
X127166310Y-97424405D01*
X127136072Y-97454643D01*
X127105833Y-97515119D01*
X127105833Y-97666310D01*
X127136072Y-97726786D01*
X127166310Y-97757024D01*
X127226786Y-97787262D01*
X127408214Y-97787262D01*
X127468691Y-97757024D01*
X127498929Y-97726786D01*
X126712738Y-97152262D02*
X126652262Y-97152262D01*
X126591786Y-97182500D01*
X126561548Y-97212738D01*
X126531310Y-97273214D01*
X126501071Y-97394167D01*
X126501071Y-97545357D01*
X126531310Y-97666310D01*
X126561548Y-97726786D01*
X126591786Y-97757024D01*
X126652262Y-97787262D01*
X126712738Y-97787262D01*
X126773214Y-97757024D01*
X126803452Y-97726786D01*
X126833691Y-97666310D01*
X126863929Y-97545357D01*
X126863929Y-97394167D01*
X126833691Y-97273214D01*
X126803452Y-97212738D01*
X126773214Y-97182500D01*
X126712738Y-97152262D01*
X126289405Y-97152262D02*
X125896309Y-97152262D01*
X126107976Y-97394167D01*
X126017262Y-97394167D01*
X125956786Y-97424405D01*
X125926548Y-97454643D01*
X125896309Y-97515119D01*
X125896309Y-97666310D01*
X125926548Y-97726786D01*
X125956786Y-97757024D01*
X126017262Y-97787262D01*
X126198690Y-97787262D01*
X126259167Y-97757024D01*
X126289405Y-97726786D01*
X132818572Y-68897262D02*
X132818572Y-68262262D01*
X132818572Y-68564643D02*
X132455714Y-68564643D01*
X132455714Y-68897262D02*
X132455714Y-68262262D01*
X131820714Y-68897262D02*
X132183572Y-68897262D01*
X132002143Y-68897262D02*
X132002143Y-68262262D01*
X132062619Y-68352976D01*
X132123095Y-68413452D01*
X132183572Y-68443690D01*
X131427619Y-68262262D02*
X131367143Y-68262262D01*
X131306667Y-68292500D01*
X131276429Y-68322738D01*
X131246191Y-68383214D01*
X131215952Y-68504167D01*
X131215952Y-68655357D01*
X131246191Y-68776310D01*
X131276429Y-68836786D01*
X131306667Y-68867024D01*
X131367143Y-68897262D01*
X131427619Y-68897262D01*
X131488095Y-68867024D01*
X131518333Y-68836786D01*
X131548572Y-68776310D01*
X131578810Y-68655357D01*
X131578810Y-68504167D01*
X131548572Y-68383214D01*
X131518333Y-68322738D01*
X131488095Y-68292500D01*
X131427619Y-68262262D01*
X130611190Y-68897262D02*
X130974048Y-68897262D01*
X130792619Y-68897262D02*
X130792619Y-68262262D01*
X130853095Y-68352976D01*
X130913571Y-68413452D01*
X130974048Y-68443690D01*
X127187262Y-77389405D02*
X126884881Y-77177738D01*
X127187262Y-77026547D02*
X126552262Y-77026547D01*
X126552262Y-77268452D01*
X126582500Y-77328928D01*
X126612738Y-77359167D01*
X126673214Y-77389405D01*
X126763929Y-77389405D01*
X126824405Y-77359167D01*
X126854643Y-77328928D01*
X126884881Y-77268452D01*
X126884881Y-77026547D01*
X127187262Y-77994167D02*
X127187262Y-77631309D01*
X127187262Y-77812738D02*
X126552262Y-77812738D01*
X126642976Y-77752262D01*
X126703452Y-77691786D01*
X126733690Y-77631309D01*
X126552262Y-78387262D02*
X126552262Y-78447738D01*
X126582500Y-78508214D01*
X126612738Y-78538452D01*
X126673214Y-78568690D01*
X126794167Y-78598929D01*
X126945357Y-78598929D01*
X127066310Y-78568690D01*
X127126786Y-78538452D01*
X127157024Y-78508214D01*
X127187262Y-78447738D01*
X127187262Y-78387262D01*
X127157024Y-78326786D01*
X127126786Y-78296548D01*
X127066310Y-78266309D01*
X126945357Y-78236071D01*
X126794167Y-78236071D01*
X126673214Y-78266309D01*
X126612738Y-78296548D01*
X126582500Y-78326786D01*
X126552262Y-78387262D01*
X126552262Y-78810595D02*
X126552262Y-79203691D01*
X126794167Y-78992024D01*
X126794167Y-79082738D01*
X126824405Y-79143214D01*
X126854643Y-79173452D01*
X126915119Y-79203691D01*
X127066310Y-79203691D01*
X127126786Y-79173452D01*
X127157024Y-79143214D01*
X127187262Y-79082738D01*
X127187262Y-78901310D01*
X127157024Y-78840833D01*
X127126786Y-78810595D01*
X127210595Y-87787262D02*
X127422262Y-87484881D01*
X127573453Y-87787262D02*
X127573453Y-87152262D01*
X127331548Y-87152262D01*
X127271072Y-87182500D01*
X127240833Y-87212738D01*
X127210595Y-87273214D01*
X127210595Y-87363929D01*
X127240833Y-87424405D01*
X127271072Y-87454643D01*
X127331548Y-87484881D01*
X127573453Y-87484881D01*
X126605833Y-87787262D02*
X126968691Y-87787262D01*
X126787262Y-87787262D02*
X126787262Y-87152262D01*
X126847738Y-87242976D01*
X126908214Y-87303452D01*
X126968691Y-87333690D01*
X126212738Y-87152262D02*
X126152262Y-87152262D01*
X126091786Y-87182500D01*
X126061548Y-87212738D01*
X126031310Y-87273214D01*
X126001071Y-87394167D01*
X126001071Y-87545357D01*
X126031310Y-87666310D01*
X126061548Y-87726786D01*
X126091786Y-87757024D01*
X126152262Y-87787262D01*
X126212738Y-87787262D01*
X126273214Y-87757024D01*
X126303452Y-87726786D01*
X126333691Y-87666310D01*
X126363929Y-87545357D01*
X126363929Y-87394167D01*
X126333691Y-87273214D01*
X126303452Y-87212738D01*
X126273214Y-87182500D01*
X126212738Y-87152262D01*
X125789405Y-87152262D02*
X125366071Y-87152262D01*
X125638214Y-87787262D01*
X127210595Y-93437262D02*
X127422262Y-93134881D01*
X127573453Y-93437262D02*
X127573453Y-92802262D01*
X127331548Y-92802262D01*
X127271072Y-92832500D01*
X127240833Y-92862738D01*
X127210595Y-92923214D01*
X127210595Y-93013929D01*
X127240833Y-93074405D01*
X127271072Y-93104643D01*
X127331548Y-93134881D01*
X127573453Y-93134881D01*
X126605833Y-93437262D02*
X126968691Y-93437262D01*
X126787262Y-93437262D02*
X126787262Y-92802262D01*
X126847738Y-92892976D01*
X126908214Y-92953452D01*
X126968691Y-92983690D01*
X126212738Y-92802262D02*
X126152262Y-92802262D01*
X126091786Y-92832500D01*
X126061548Y-92862738D01*
X126031310Y-92923214D01*
X126001071Y-93044167D01*
X126001071Y-93195357D01*
X126031310Y-93316310D01*
X126061548Y-93376786D01*
X126091786Y-93407024D01*
X126152262Y-93437262D01*
X126212738Y-93437262D01*
X126273214Y-93407024D01*
X126303452Y-93376786D01*
X126333691Y-93316310D01*
X126363929Y-93195357D01*
X126363929Y-93044167D01*
X126333691Y-92923214D01*
X126303452Y-92862738D01*
X126273214Y-92832500D01*
X126212738Y-92802262D01*
X125638214Y-93074405D02*
X125698690Y-93044167D01*
X125728929Y-93013929D01*
X125759167Y-92953452D01*
X125759167Y-92923214D01*
X125728929Y-92862738D01*
X125698690Y-92832500D01*
X125638214Y-92802262D01*
X125517262Y-92802262D01*
X125456786Y-92832500D01*
X125426548Y-92862738D01*
X125396309Y-92923214D01*
X125396309Y-92953452D01*
X125426548Y-93013929D01*
X125456786Y-93044167D01*
X125517262Y-93074405D01*
X125638214Y-93074405D01*
X125698690Y-93104643D01*
X125728929Y-93134881D01*
X125759167Y-93195357D01*
X125759167Y-93316310D01*
X125728929Y-93376786D01*
X125698690Y-93407024D01*
X125638214Y-93437262D01*
X125517262Y-93437262D01*
X125456786Y-93407024D01*
X125426548Y-93376786D01*
X125396309Y-93316310D01*
X125396309Y-93195357D01*
X125426548Y-93134881D01*
X125456786Y-93104643D01*
X125517262Y-93074405D01*
X124887262Y-77389405D02*
X124584881Y-77177738D01*
X124887262Y-77026547D02*
X124252262Y-77026547D01*
X124252262Y-77268452D01*
X124282500Y-77328928D01*
X124312738Y-77359167D01*
X124373214Y-77389405D01*
X124463929Y-77389405D01*
X124524405Y-77359167D01*
X124554643Y-77328928D01*
X124584881Y-77268452D01*
X124584881Y-77026547D01*
X124887262Y-77994167D02*
X124887262Y-77631309D01*
X124887262Y-77812738D02*
X124252262Y-77812738D01*
X124342976Y-77752262D01*
X124403452Y-77691786D01*
X124433690Y-77631309D01*
X124887262Y-78598929D02*
X124887262Y-78236071D01*
X124887262Y-78417500D02*
X124252262Y-78417500D01*
X124342976Y-78357024D01*
X124403452Y-78296548D01*
X124433690Y-78236071D01*
X124252262Y-78992024D02*
X124252262Y-79052500D01*
X124282500Y-79112976D01*
X124312738Y-79143214D01*
X124373214Y-79173452D01*
X124494167Y-79203691D01*
X124645357Y-79203691D01*
X124766310Y-79173452D01*
X124826786Y-79143214D01*
X124857024Y-79112976D01*
X124887262Y-79052500D01*
X124887262Y-78992024D01*
X124857024Y-78931548D01*
X124826786Y-78901310D01*
X124766310Y-78871071D01*
X124645357Y-78840833D01*
X124494167Y-78840833D01*
X124373214Y-78871071D01*
X124312738Y-78901310D01*
X124282500Y-78931548D01*
X124252262Y-78992024D01*
M02*
