G04 #@! TF.FileFunction,Legend,Top*
%FSLAX46Y46*%
G04 Gerber Fmt 4.6, Leading zero omitted, Abs format (unit mm)*
G04 Created by KiCad (PCBNEW 4.0.0-rc1-stable) date 05/10/2017 18:19:53*
%MOMM*%
G01*
G04 APERTURE LIST*
%ADD10C,0.076200*%
%ADD11C,0.127000*%
%ADD12C,0.200000*%
%ADD13C,0.150000*%
%ADD14C,0.120000*%
%ADD15C,0.100000*%
G04 APERTURE END LIST*
D10*
D11*
X131662404Y-101989262D02*
X131662404Y-101354262D01*
X131964785Y-101565929D02*
X131964785Y-101989262D01*
X131964785Y-101626405D02*
X131995024Y-101596167D01*
X132055500Y-101565929D01*
X132146214Y-101565929D01*
X132206690Y-101596167D01*
X132236928Y-101656643D01*
X132236928Y-101989262D01*
X134323359Y-101384500D02*
X134262882Y-101354262D01*
X134172168Y-101354262D01*
X134081454Y-101384500D01*
X134020978Y-101444976D01*
X133990739Y-101505452D01*
X133960501Y-101626405D01*
X133960501Y-101717119D01*
X133990739Y-101838071D01*
X134020978Y-101898548D01*
X134081454Y-101959024D01*
X134172168Y-101989262D01*
X134232644Y-101989262D01*
X134323359Y-101959024D01*
X134353597Y-101928786D01*
X134353597Y-101717119D01*
X134232644Y-101717119D01*
X134625739Y-101989262D02*
X134625739Y-101354262D01*
X134988597Y-101989262D01*
X134988597Y-101354262D01*
X135290977Y-101989262D02*
X135290977Y-101354262D01*
X135442168Y-101354262D01*
X135532882Y-101384500D01*
X135593358Y-101444976D01*
X135623597Y-101505452D01*
X135653835Y-101626405D01*
X135653835Y-101717119D01*
X135623597Y-101838071D01*
X135593358Y-101898548D01*
X135532882Y-101959024D01*
X135442168Y-101989262D01*
X135290977Y-101989262D01*
X127048378Y-64389000D02*
X126999997Y-64364810D01*
X126927425Y-64364810D01*
X126854854Y-64389000D01*
X126806473Y-64437381D01*
X126782282Y-64485762D01*
X126758092Y-64582524D01*
X126758092Y-64655095D01*
X126782282Y-64751857D01*
X126806473Y-64800238D01*
X126854854Y-64848619D01*
X126927425Y-64872810D01*
X126975806Y-64872810D01*
X127048378Y-64848619D01*
X127072568Y-64824429D01*
X127072568Y-64655095D01*
X126975806Y-64655095D01*
X127290282Y-64872810D02*
X127290282Y-64364810D01*
X127580568Y-64872810D01*
X127580568Y-64364810D01*
X127822472Y-64872810D02*
X127822472Y-64364810D01*
X127943425Y-64364810D01*
X128015996Y-64389000D01*
X128064377Y-64437381D01*
X128088568Y-64485762D01*
X128112758Y-64582524D01*
X128112758Y-64655095D01*
X128088568Y-64751857D01*
X128064377Y-64800238D01*
X128015996Y-64848619D01*
X127943425Y-64872810D01*
X127822472Y-64872810D01*
X129781902Y-64824429D02*
X129757712Y-64848619D01*
X129685140Y-64872810D01*
X129636759Y-64872810D01*
X129564188Y-64848619D01*
X129515807Y-64800238D01*
X129491616Y-64751857D01*
X129467426Y-64655095D01*
X129467426Y-64582524D01*
X129491616Y-64485762D01*
X129515807Y-64437381D01*
X129564188Y-64389000D01*
X129636759Y-64364810D01*
X129685140Y-64364810D01*
X129757712Y-64389000D01*
X129781902Y-64413190D01*
X129975426Y-64848619D02*
X130047997Y-64872810D01*
X130168950Y-64872810D01*
X130217331Y-64848619D01*
X130241521Y-64824429D01*
X130265712Y-64776048D01*
X130265712Y-64727667D01*
X130241521Y-64679286D01*
X130217331Y-64655095D01*
X130168950Y-64630905D01*
X130072188Y-64606714D01*
X130023807Y-64582524D01*
X129999616Y-64558333D01*
X129975426Y-64509952D01*
X129975426Y-64461571D01*
X129999616Y-64413190D01*
X130023807Y-64389000D01*
X130072188Y-64364810D01*
X130193140Y-64364810D01*
X130265712Y-64389000D01*
X132708952Y-64872810D02*
X132539619Y-64630905D01*
X132418666Y-64872810D02*
X132418666Y-64364810D01*
X132612190Y-64364810D01*
X132660571Y-64389000D01*
X132684762Y-64413190D01*
X132708952Y-64461571D01*
X132708952Y-64534143D01*
X132684762Y-64582524D01*
X132660571Y-64606714D01*
X132612190Y-64630905D01*
X132418666Y-64630905D01*
X132902476Y-64848619D02*
X132975047Y-64872810D01*
X133096000Y-64872810D01*
X133144381Y-64848619D01*
X133168571Y-64824429D01*
X133192762Y-64776048D01*
X133192762Y-64727667D01*
X133168571Y-64679286D01*
X133144381Y-64655095D01*
X133096000Y-64630905D01*
X132999238Y-64606714D01*
X132950857Y-64582524D01*
X132926666Y-64558333D01*
X132902476Y-64509952D01*
X132902476Y-64461571D01*
X132926666Y-64413190D01*
X132950857Y-64389000D01*
X132999238Y-64364810D01*
X133120190Y-64364810D01*
X133192762Y-64389000D01*
X135248954Y-64824429D02*
X135224764Y-64848619D01*
X135152192Y-64872810D01*
X135103811Y-64872810D01*
X135031240Y-64848619D01*
X134982859Y-64800238D01*
X134958668Y-64751857D01*
X134934478Y-64655095D01*
X134934478Y-64582524D01*
X134958668Y-64485762D01*
X134982859Y-64437381D01*
X135031240Y-64389000D01*
X135103811Y-64364810D01*
X135152192Y-64364810D01*
X135224764Y-64389000D01*
X135248954Y-64413190D01*
X135708573Y-64872810D02*
X135466668Y-64872810D01*
X135466668Y-64364810D01*
X135877906Y-64872810D02*
X135877906Y-64364810D01*
X136168192Y-64872810D02*
X135950478Y-64582524D01*
X136168192Y-64364810D02*
X135877906Y-64655095D01*
X137160002Y-64872810D02*
X137160002Y-64364810D01*
X137329336Y-64727667D01*
X137498669Y-64364810D01*
X137498669Y-64872810D01*
X137837335Y-64364810D02*
X137934097Y-64364810D01*
X137982478Y-64389000D01*
X138030859Y-64437381D01*
X138055050Y-64534143D01*
X138055050Y-64703476D01*
X138030859Y-64800238D01*
X137982478Y-64848619D01*
X137934097Y-64872810D01*
X137837335Y-64872810D01*
X137788954Y-64848619D01*
X137740573Y-64800238D01*
X137716383Y-64703476D01*
X137716383Y-64534143D01*
X137740573Y-64437381D01*
X137788954Y-64389000D01*
X137837335Y-64364810D01*
X138248573Y-64848619D02*
X138321144Y-64872810D01*
X138442097Y-64872810D01*
X138490478Y-64848619D01*
X138514668Y-64824429D01*
X138538859Y-64776048D01*
X138538859Y-64727667D01*
X138514668Y-64679286D01*
X138490478Y-64655095D01*
X138442097Y-64630905D01*
X138345335Y-64606714D01*
X138296954Y-64582524D01*
X138272763Y-64558333D01*
X138248573Y-64509952D01*
X138248573Y-64461571D01*
X138272763Y-64413190D01*
X138296954Y-64389000D01*
X138345335Y-64364810D01*
X138466287Y-64364810D01*
X138538859Y-64389000D01*
X138756573Y-64872810D02*
X138756573Y-64364810D01*
X139724193Y-64364810D02*
X140038670Y-64364810D01*
X139869336Y-64558333D01*
X139941908Y-64558333D01*
X139990289Y-64582524D01*
X140014479Y-64606714D01*
X140038670Y-64655095D01*
X140038670Y-64776048D01*
X140014479Y-64824429D01*
X139990289Y-64848619D01*
X139941908Y-64872810D01*
X139796765Y-64872810D01*
X139748384Y-64848619D01*
X139724193Y-64824429D01*
X140183813Y-64364810D02*
X140353146Y-64872810D01*
X140522480Y-64364810D01*
X140643432Y-64364810D02*
X140957909Y-64364810D01*
X140788575Y-64558333D01*
X140861147Y-64558333D01*
X140909528Y-64582524D01*
X140933718Y-64606714D01*
X140957909Y-64655095D01*
X140957909Y-64776048D01*
X140933718Y-64824429D01*
X140909528Y-64848619D01*
X140861147Y-64872810D01*
X140716004Y-64872810D01*
X140667623Y-64848619D01*
X140643432Y-64824429D01*
X135192710Y-91875429D02*
X134684710Y-91875429D01*
X134684710Y-91754476D01*
X134708900Y-91681905D01*
X134757281Y-91633524D01*
X134805662Y-91609333D01*
X134902424Y-91585143D01*
X134974995Y-91585143D01*
X135071757Y-91609333D01*
X135120138Y-91633524D01*
X135168519Y-91681905D01*
X135192710Y-91754476D01*
X135192710Y-91875429D01*
X135192710Y-91367429D02*
X134854043Y-91367429D01*
X134684710Y-91367429D02*
X134708900Y-91391619D01*
X134733090Y-91367429D01*
X134708900Y-91343238D01*
X134684710Y-91367429D01*
X134733090Y-91367429D01*
X135168519Y-91149714D02*
X135192710Y-91101333D01*
X135192710Y-91004571D01*
X135168519Y-90956190D01*
X135120138Y-90932000D01*
X135095948Y-90932000D01*
X135047567Y-90956190D01*
X135023376Y-91004571D01*
X135023376Y-91077143D01*
X134999186Y-91125524D01*
X134950805Y-91149714D01*
X134926614Y-91149714D01*
X134878233Y-91125524D01*
X134854043Y-91077143D01*
X134854043Y-91004571D01*
X134878233Y-90956190D01*
X134854043Y-90714286D02*
X135362043Y-90714286D01*
X134878233Y-90714286D02*
X134854043Y-90665905D01*
X134854043Y-90569143D01*
X134878233Y-90520762D01*
X134902424Y-90496571D01*
X134950805Y-90472381D01*
X135095948Y-90472381D01*
X135144329Y-90496571D01*
X135168519Y-90520762D01*
X135192710Y-90569143D01*
X135192710Y-90665905D01*
X135168519Y-90714286D01*
X135764814Y-91524666D02*
X135789005Y-91452095D01*
X135813195Y-91427904D01*
X135861576Y-91403714D01*
X135934148Y-91403714D01*
X135982529Y-91427904D01*
X136006719Y-91452095D01*
X136030910Y-91500476D01*
X136030910Y-91694000D01*
X135522910Y-91694000D01*
X135522910Y-91524666D01*
X135547100Y-91476285D01*
X135571290Y-91452095D01*
X135619671Y-91427904D01*
X135668052Y-91427904D01*
X135716433Y-91452095D01*
X135740624Y-91476285D01*
X135764814Y-91524666D01*
X135764814Y-91694000D01*
X135692243Y-91258571D02*
X135692243Y-91065047D01*
X135522910Y-91186000D02*
X135958338Y-91186000D01*
X136006719Y-91161809D01*
X136030910Y-91113428D01*
X136030910Y-91065047D01*
X135692243Y-90895714D02*
X136030910Y-90895714D01*
X135740624Y-90895714D02*
X135716433Y-90871523D01*
X135692243Y-90823142D01*
X135692243Y-90750571D01*
X135716433Y-90702190D01*
X135764814Y-90677999D01*
X136030910Y-90677999D01*
X135192710Y-88972571D02*
X134950805Y-89141904D01*
X135192710Y-89262857D02*
X134684710Y-89262857D01*
X134684710Y-89069333D01*
X134708900Y-89020952D01*
X134733090Y-88996761D01*
X134781471Y-88972571D01*
X134854043Y-88972571D01*
X134902424Y-88996761D01*
X134926614Y-89020952D01*
X134950805Y-89069333D01*
X134950805Y-89262857D01*
X134926614Y-88754857D02*
X134926614Y-88585523D01*
X135192710Y-88512952D02*
X135192710Y-88754857D01*
X134684710Y-88754857D01*
X134684710Y-88512952D01*
X134708900Y-88029142D02*
X134684710Y-88077523D01*
X134684710Y-88150095D01*
X134708900Y-88222666D01*
X134757281Y-88271047D01*
X134805662Y-88295238D01*
X134902424Y-88319428D01*
X134974995Y-88319428D01*
X135071757Y-88295238D01*
X135120138Y-88271047D01*
X135168519Y-88222666D01*
X135192710Y-88150095D01*
X135192710Y-88101714D01*
X135168519Y-88029142D01*
X135144329Y-88004952D01*
X134974995Y-88004952D01*
X134974995Y-88101714D01*
X136006719Y-89141905D02*
X136030910Y-89069334D01*
X136030910Y-88948381D01*
X136006719Y-88900000D01*
X135982529Y-88875810D01*
X135934148Y-88851619D01*
X135885767Y-88851619D01*
X135837386Y-88875810D01*
X135813195Y-88900000D01*
X135789005Y-88948381D01*
X135764814Y-89045143D01*
X135740624Y-89093524D01*
X135716433Y-89117715D01*
X135668052Y-89141905D01*
X135619671Y-89141905D01*
X135571290Y-89117715D01*
X135547100Y-89093524D01*
X135522910Y-89045143D01*
X135522910Y-88924191D01*
X135547100Y-88851619D01*
X136006719Y-88440381D02*
X136030910Y-88488762D01*
X136030910Y-88585524D01*
X136006719Y-88633905D01*
X135958338Y-88658095D01*
X135764814Y-88658095D01*
X135716433Y-88633905D01*
X135692243Y-88585524D01*
X135692243Y-88488762D01*
X135716433Y-88440381D01*
X135764814Y-88416190D01*
X135813195Y-88416190D01*
X135861576Y-88658095D01*
X136030910Y-88125904D02*
X136006719Y-88174285D01*
X135958338Y-88198476D01*
X135522910Y-88198476D01*
X127931333Y-88283143D02*
X127931333Y-88525048D01*
X127786190Y-88234762D02*
X128294190Y-88404095D01*
X127786190Y-88573429D01*
X127786190Y-89008858D02*
X127786190Y-88718572D01*
X127786190Y-88863715D02*
X128294190Y-88863715D01*
X128221619Y-88815334D01*
X128173238Y-88766953D01*
X128149048Y-88718572D01*
X128040190Y-78437619D02*
X128282095Y-78268286D01*
X128040190Y-78147333D02*
X128548190Y-78147333D01*
X128548190Y-78340857D01*
X128524000Y-78389238D01*
X128499810Y-78413429D01*
X128451429Y-78437619D01*
X128378857Y-78437619D01*
X128330476Y-78413429D01*
X128306286Y-78389238D01*
X128282095Y-78340857D01*
X128282095Y-78147333D01*
X128040190Y-78606952D02*
X128378857Y-78873048D01*
X128378857Y-78606952D02*
X128040190Y-78873048D01*
X134595810Y-78836762D02*
X134595810Y-78546476D01*
X135103810Y-78691619D02*
X134595810Y-78691619D01*
X135103810Y-78425524D02*
X134765143Y-78159428D01*
X134765143Y-78425524D02*
X135103810Y-78159428D01*
X128229481Y-75425905D02*
X128205290Y-75498476D01*
X128205290Y-75619429D01*
X128229481Y-75667810D01*
X128253671Y-75692000D01*
X128302052Y-75716191D01*
X128350433Y-75716191D01*
X128398814Y-75692000D01*
X128423005Y-75667810D01*
X128447195Y-75619429D01*
X128471386Y-75522667D01*
X128495576Y-75474286D01*
X128519767Y-75450095D01*
X128568148Y-75425905D01*
X128616529Y-75425905D01*
X128664910Y-75450095D01*
X128689100Y-75474286D01*
X128713290Y-75522667D01*
X128713290Y-75643619D01*
X128689100Y-75716191D01*
X128205290Y-75933905D02*
X128713290Y-75933905D01*
X128713290Y-76127429D01*
X128689100Y-76175810D01*
X128664910Y-76200001D01*
X128616529Y-76224191D01*
X128543957Y-76224191D01*
X128495576Y-76200001D01*
X128471386Y-76175810D01*
X128447195Y-76127429D01*
X128447195Y-75933905D01*
X128205290Y-76441905D02*
X128713290Y-76441905D01*
X127391281Y-75292857D02*
X127367090Y-75365428D01*
X127367090Y-75486381D01*
X127391281Y-75534762D01*
X127415471Y-75558952D01*
X127463852Y-75583143D01*
X127512233Y-75583143D01*
X127560614Y-75558952D01*
X127584805Y-75534762D01*
X127608995Y-75486381D01*
X127633186Y-75389619D01*
X127657376Y-75341238D01*
X127681567Y-75317047D01*
X127729948Y-75292857D01*
X127778329Y-75292857D01*
X127826710Y-75317047D01*
X127850900Y-75341238D01*
X127875090Y-75389619D01*
X127875090Y-75510571D01*
X127850900Y-75583143D01*
X127415471Y-76091143D02*
X127391281Y-76066953D01*
X127367090Y-75994381D01*
X127367090Y-75946000D01*
X127391281Y-75873429D01*
X127439662Y-75825048D01*
X127488043Y-75800857D01*
X127584805Y-75776667D01*
X127657376Y-75776667D01*
X127754138Y-75800857D01*
X127802519Y-75825048D01*
X127850900Y-75873429D01*
X127875090Y-75946000D01*
X127875090Y-75994381D01*
X127850900Y-76066953D01*
X127826710Y-76091143D01*
X127367090Y-76308857D02*
X127875090Y-76308857D01*
X127367090Y-76599143D02*
X127657376Y-76381429D01*
X127875090Y-76599143D02*
X127584805Y-76308857D01*
X128040190Y-72607714D02*
X128548190Y-72607714D01*
X128185333Y-72777048D01*
X128548190Y-72946381D01*
X128040190Y-72946381D01*
X128548190Y-73285047D02*
X128548190Y-73381809D01*
X128524000Y-73430190D01*
X128475619Y-73478571D01*
X128378857Y-73502762D01*
X128209524Y-73502762D01*
X128112762Y-73478571D01*
X128064381Y-73430190D01*
X128040190Y-73381809D01*
X128040190Y-73285047D01*
X128064381Y-73236666D01*
X128112762Y-73188285D01*
X128209524Y-73164095D01*
X128378857Y-73164095D01*
X128475619Y-73188285D01*
X128524000Y-73236666D01*
X128548190Y-73285047D01*
X128064381Y-73696285D02*
X128040190Y-73768856D01*
X128040190Y-73889809D01*
X128064381Y-73938190D01*
X128088571Y-73962380D01*
X128136952Y-73986571D01*
X128185333Y-73986571D01*
X128233714Y-73962380D01*
X128257905Y-73938190D01*
X128282095Y-73889809D01*
X128306286Y-73793047D01*
X128330476Y-73744666D01*
X128354667Y-73720475D01*
X128403048Y-73696285D01*
X128451429Y-73696285D01*
X128499810Y-73720475D01*
X128524000Y-73744666D01*
X128548190Y-73793047D01*
X128548190Y-73913999D01*
X128524000Y-73986571D01*
X128040190Y-74204285D02*
X128548190Y-74204285D01*
X135055429Y-76030667D02*
X135079619Y-76054857D01*
X135103810Y-76127429D01*
X135103810Y-76175810D01*
X135079619Y-76248381D01*
X135031238Y-76296762D01*
X134982857Y-76320953D01*
X134886095Y-76345143D01*
X134813524Y-76345143D01*
X134716762Y-76320953D01*
X134668381Y-76296762D01*
X134620000Y-76248381D01*
X134595810Y-76175810D01*
X134595810Y-76127429D01*
X134620000Y-76054857D01*
X134644190Y-76030667D01*
X135079619Y-75837143D02*
X135103810Y-75764572D01*
X135103810Y-75643619D01*
X135079619Y-75595238D01*
X135055429Y-75571048D01*
X135007048Y-75546857D01*
X134958667Y-75546857D01*
X134910286Y-75571048D01*
X134886095Y-75595238D01*
X134861905Y-75643619D01*
X134837714Y-75740381D01*
X134813524Y-75788762D01*
X134789333Y-75812953D01*
X134740952Y-75837143D01*
X134692571Y-75837143D01*
X134644190Y-75812953D01*
X134620000Y-75788762D01*
X134595810Y-75740381D01*
X134595810Y-75619429D01*
X134620000Y-75546857D01*
X128078290Y-85610095D02*
X128586290Y-85610095D01*
X128537910Y-85827810D02*
X128562100Y-85852000D01*
X128586290Y-85900381D01*
X128586290Y-86021334D01*
X128562100Y-86069715D01*
X128537910Y-86093905D01*
X128489529Y-86118096D01*
X128441148Y-86118096D01*
X128368576Y-86093905D01*
X128078290Y-85803619D01*
X128078290Y-86118096D01*
X128126671Y-86626096D02*
X128102481Y-86601906D01*
X128078290Y-86529334D01*
X128078290Y-86480953D01*
X128102481Y-86408382D01*
X128150862Y-86360001D01*
X128199243Y-86335810D01*
X128296005Y-86311620D01*
X128368576Y-86311620D01*
X128465338Y-86335810D01*
X128513719Y-86360001D01*
X128562100Y-86408382D01*
X128586290Y-86480953D01*
X128586290Y-86529334D01*
X128562100Y-86601906D01*
X128537910Y-86626096D01*
X127264281Y-85452857D02*
X127240090Y-85525428D01*
X127240090Y-85646381D01*
X127264281Y-85694762D01*
X127288471Y-85718952D01*
X127336852Y-85743143D01*
X127385233Y-85743143D01*
X127433614Y-85718952D01*
X127457805Y-85694762D01*
X127481995Y-85646381D01*
X127506186Y-85549619D01*
X127530376Y-85501238D01*
X127554567Y-85477047D01*
X127602948Y-85452857D01*
X127651329Y-85452857D01*
X127699710Y-85477047D01*
X127723900Y-85501238D01*
X127748090Y-85549619D01*
X127748090Y-85670571D01*
X127723900Y-85743143D01*
X127288471Y-86251143D02*
X127264281Y-86226953D01*
X127240090Y-86154381D01*
X127240090Y-86106000D01*
X127264281Y-86033429D01*
X127312662Y-85985048D01*
X127361043Y-85960857D01*
X127457805Y-85936667D01*
X127530376Y-85936667D01*
X127627138Y-85960857D01*
X127675519Y-85985048D01*
X127723900Y-86033429D01*
X127748090Y-86106000D01*
X127748090Y-86154381D01*
X127723900Y-86226953D01*
X127699710Y-86251143D01*
X127240090Y-86468857D02*
X127748090Y-86468857D01*
X127240090Y-86759143D02*
X127530376Y-86541429D01*
X127748090Y-86759143D02*
X127457805Y-86468857D01*
X134938710Y-86601905D02*
X134430710Y-86601905D01*
X134479090Y-86384190D02*
X134454900Y-86360000D01*
X134430710Y-86311619D01*
X134430710Y-86190666D01*
X134454900Y-86142285D01*
X134479090Y-86118095D01*
X134527471Y-86093904D01*
X134575852Y-86093904D01*
X134648424Y-86118095D01*
X134938710Y-86408381D01*
X134938710Y-86093904D01*
X134890329Y-85585904D02*
X134914519Y-85610094D01*
X134938710Y-85682666D01*
X134938710Y-85731047D01*
X134914519Y-85803618D01*
X134866138Y-85851999D01*
X134817757Y-85876190D01*
X134720995Y-85900380D01*
X134648424Y-85900380D01*
X134551662Y-85876190D01*
X134503281Y-85851999D01*
X134454900Y-85803618D01*
X134430710Y-85731047D01*
X134430710Y-85682666D01*
X134454900Y-85610094D01*
X134479090Y-85585904D01*
X135752719Y-86722857D02*
X135776910Y-86650286D01*
X135776910Y-86529333D01*
X135752719Y-86480952D01*
X135728529Y-86456762D01*
X135680148Y-86432571D01*
X135631767Y-86432571D01*
X135583386Y-86456762D01*
X135559195Y-86480952D01*
X135535005Y-86529333D01*
X135510814Y-86626095D01*
X135486624Y-86674476D01*
X135462433Y-86698667D01*
X135414052Y-86722857D01*
X135365671Y-86722857D01*
X135317290Y-86698667D01*
X135293100Y-86674476D01*
X135268910Y-86626095D01*
X135268910Y-86505143D01*
X135293100Y-86432571D01*
X135776910Y-86214857D02*
X135268910Y-86214857D01*
X135268910Y-86093904D01*
X135293100Y-86021333D01*
X135341481Y-85972952D01*
X135389862Y-85948761D01*
X135486624Y-85924571D01*
X135559195Y-85924571D01*
X135655957Y-85948761D01*
X135704338Y-85972952D01*
X135752719Y-86021333D01*
X135776910Y-86093904D01*
X135776910Y-86214857D01*
X135631767Y-85731047D02*
X135631767Y-85489142D01*
X135776910Y-85779428D02*
X135268910Y-85610095D01*
X135776910Y-85440761D01*
X144504524Y-102116262D02*
X144292857Y-101813881D01*
X144141666Y-102116262D02*
X144141666Y-101481262D01*
X144383571Y-101481262D01*
X144444047Y-101511500D01*
X144474286Y-101541738D01*
X144504524Y-101602214D01*
X144504524Y-101692929D01*
X144474286Y-101753405D01*
X144444047Y-101783643D01*
X144383571Y-101813881D01*
X144141666Y-101813881D01*
X144716190Y-102116262D02*
X145048809Y-101692929D01*
X144716190Y-101692929D02*
X145048809Y-102116262D01*
X138665547Y-101481262D02*
X139028404Y-101481262D01*
X138846976Y-102116262D02*
X138846976Y-101481262D01*
X139179595Y-102116262D02*
X139512214Y-101692929D01*
X139179595Y-101692929D02*
X139512214Y-102116262D01*
X134205429Y-73217714D02*
X133951429Y-72854857D01*
X133770001Y-73217714D02*
X133770001Y-72455714D01*
X134060286Y-72455714D01*
X134132858Y-72492000D01*
X134169143Y-72528286D01*
X134205429Y-72600857D01*
X134205429Y-72709714D01*
X134169143Y-72782286D01*
X134132858Y-72818571D01*
X134060286Y-72854857D01*
X133770001Y-72854857D01*
X134459429Y-73217714D02*
X134858572Y-72709714D01*
X134459429Y-72709714D02*
X134858572Y-73217714D01*
X133751857Y-70296714D02*
X134187286Y-70296714D01*
X133969572Y-71058714D02*
X133969572Y-70296714D01*
X134368714Y-71058714D02*
X134767857Y-70550714D01*
X134368714Y-70550714D02*
X134767857Y-71058714D01*
X132016000Y-94297047D02*
X131991810Y-94345428D01*
X131991810Y-94418000D01*
X132016000Y-94490571D01*
X132064381Y-94538952D01*
X132112762Y-94563143D01*
X132209524Y-94587333D01*
X132282095Y-94587333D01*
X132378857Y-94563143D01*
X132427238Y-94538952D01*
X132475619Y-94490571D01*
X132499810Y-94418000D01*
X132499810Y-94369619D01*
X132475619Y-94297047D01*
X132451429Y-94272857D01*
X132282095Y-94272857D01*
X132282095Y-94369619D01*
X132499810Y-94055143D02*
X131991810Y-94055143D01*
X132499810Y-93764857D01*
X131991810Y-93764857D01*
X132499810Y-93522953D02*
X131991810Y-93522953D01*
X131991810Y-93402000D01*
X132016000Y-93329429D01*
X132064381Y-93281048D01*
X132112762Y-93256857D01*
X132209524Y-93232667D01*
X132282095Y-93232667D01*
X132378857Y-93256857D01*
X132427238Y-93281048D01*
X132475619Y-93329429D01*
X132499810Y-93402000D01*
X132499810Y-93522953D01*
X134595810Y-84321953D02*
X134595810Y-84007476D01*
X134789333Y-84176810D01*
X134789333Y-84104238D01*
X134813524Y-84055857D01*
X134837714Y-84031667D01*
X134886095Y-84007476D01*
X135007048Y-84007476D01*
X135055429Y-84031667D01*
X135079619Y-84055857D01*
X135103810Y-84104238D01*
X135103810Y-84249381D01*
X135079619Y-84297762D01*
X135055429Y-84321953D01*
X134595810Y-83862333D02*
X135103810Y-83693000D01*
X134595810Y-83523666D01*
X134595810Y-83402714D02*
X134595810Y-83088237D01*
X134789333Y-83257571D01*
X134789333Y-83184999D01*
X134813524Y-83136618D01*
X134837714Y-83112428D01*
X134886095Y-83088237D01*
X135007048Y-83088237D01*
X135055429Y-83112428D01*
X135079619Y-83136618D01*
X135103810Y-83184999D01*
X135103810Y-83330142D01*
X135079619Y-83378523D01*
X135055429Y-83402714D01*
X134620000Y-81413047D02*
X134595810Y-81461428D01*
X134595810Y-81534000D01*
X134620000Y-81606571D01*
X134668381Y-81654952D01*
X134716762Y-81679143D01*
X134813524Y-81703333D01*
X134886095Y-81703333D01*
X134982857Y-81679143D01*
X135031238Y-81654952D01*
X135079619Y-81606571D01*
X135103810Y-81534000D01*
X135103810Y-81485619D01*
X135079619Y-81413047D01*
X135055429Y-81388857D01*
X134886095Y-81388857D01*
X134886095Y-81485619D01*
X135103810Y-81171143D02*
X134595810Y-81171143D01*
X135103810Y-80880857D01*
X134595810Y-80880857D01*
X135103810Y-80638953D02*
X134595810Y-80638953D01*
X134595810Y-80518000D01*
X134620000Y-80445429D01*
X134668381Y-80397048D01*
X134716762Y-80372857D01*
X134813524Y-80348667D01*
X134886095Y-80348667D01*
X134982857Y-80372857D01*
X135031238Y-80397048D01*
X135079619Y-80445429D01*
X135103810Y-80518000D01*
X135103810Y-80638953D01*
D12*
X114427000Y-81621381D02*
X114427000Y-81859476D01*
X114188905Y-81764238D02*
X114427000Y-81859476D01*
X114665096Y-81764238D01*
X114284143Y-82049952D02*
X114427000Y-81859476D01*
X114569858Y-82049952D01*
D11*
X127474429Y-99036814D02*
X127909858Y-99036814D01*
X127692144Y-99798814D02*
X127692144Y-99036814D01*
X128163858Y-99399671D02*
X128417858Y-99399671D01*
X128526715Y-99798814D02*
X128163858Y-99798814D01*
X128163858Y-99036814D01*
X128526715Y-99036814D01*
X128817001Y-99762529D02*
X128925858Y-99798814D01*
X129107287Y-99798814D01*
X129179858Y-99762529D01*
X129216144Y-99726243D01*
X129252429Y-99653671D01*
X129252429Y-99581100D01*
X129216144Y-99508529D01*
X129179858Y-99472243D01*
X129107287Y-99435957D01*
X128962144Y-99399671D01*
X128889572Y-99363386D01*
X128853287Y-99327100D01*
X128817001Y-99254529D01*
X128817001Y-99181957D01*
X128853287Y-99109386D01*
X128889572Y-99073100D01*
X128962144Y-99036814D01*
X129143572Y-99036814D01*
X129252429Y-99073100D01*
X129470143Y-99036814D02*
X129905572Y-99036814D01*
X129687858Y-99798814D02*
X129687858Y-99036814D01*
X127746572Y-100992614D02*
X127746572Y-100230614D01*
X128182000Y-100992614D01*
X128182000Y-100230614D01*
X128544858Y-100593471D02*
X128798858Y-100593471D01*
X128907715Y-100992614D02*
X128544858Y-100992614D01*
X128544858Y-100230614D01*
X128907715Y-100230614D01*
X129633429Y-100266900D02*
X129560858Y-100230614D01*
X129452001Y-100230614D01*
X129343144Y-100266900D01*
X129270572Y-100339471D01*
X129234287Y-100412043D01*
X129198001Y-100557186D01*
X129198001Y-100666043D01*
X129234287Y-100811186D01*
X129270572Y-100883757D01*
X129343144Y-100956329D01*
X129452001Y-100992614D01*
X129524572Y-100992614D01*
X129633429Y-100956329D01*
X129669715Y-100920043D01*
X129669715Y-100666043D01*
X129524572Y-100666043D01*
X116044429Y-99036814D02*
X116479858Y-99036814D01*
X116262144Y-99798814D02*
X116262144Y-99036814D01*
X116733858Y-99399671D02*
X116987858Y-99399671D01*
X117096715Y-99798814D02*
X116733858Y-99798814D01*
X116733858Y-99036814D01*
X117096715Y-99036814D01*
X117387001Y-99762529D02*
X117495858Y-99798814D01*
X117677287Y-99798814D01*
X117749858Y-99762529D01*
X117786144Y-99726243D01*
X117822429Y-99653671D01*
X117822429Y-99581100D01*
X117786144Y-99508529D01*
X117749858Y-99472243D01*
X117677287Y-99435957D01*
X117532144Y-99399671D01*
X117459572Y-99363386D01*
X117423287Y-99327100D01*
X117387001Y-99254529D01*
X117387001Y-99181957D01*
X117423287Y-99109386D01*
X117459572Y-99073100D01*
X117532144Y-99036814D01*
X117713572Y-99036814D01*
X117822429Y-99073100D01*
X118040143Y-99036814D02*
X118475572Y-99036814D01*
X118257858Y-99798814D02*
X118257858Y-99036814D01*
X116298429Y-100992614D02*
X116298429Y-100230614D01*
X116588714Y-100230614D01*
X116661286Y-100266900D01*
X116697571Y-100303186D01*
X116733857Y-100375757D01*
X116733857Y-100484614D01*
X116697571Y-100557186D01*
X116661286Y-100593471D01*
X116588714Y-100629757D01*
X116298429Y-100629757D01*
X117205571Y-100230614D02*
X117350714Y-100230614D01*
X117423286Y-100266900D01*
X117495857Y-100339471D01*
X117532143Y-100484614D01*
X117532143Y-100738614D01*
X117495857Y-100883757D01*
X117423286Y-100956329D01*
X117350714Y-100992614D01*
X117205571Y-100992614D01*
X117133000Y-100956329D01*
X117060429Y-100883757D01*
X117024143Y-100738614D01*
X117024143Y-100484614D01*
X117060429Y-100339471D01*
X117133000Y-100266900D01*
X117205571Y-100230614D01*
X117822429Y-100956329D02*
X117931286Y-100992614D01*
X118112715Y-100992614D01*
X118185286Y-100956329D01*
X118221572Y-100920043D01*
X118257857Y-100847471D01*
X118257857Y-100774900D01*
X118221572Y-100702329D01*
X118185286Y-100666043D01*
X118112715Y-100629757D01*
X117967572Y-100593471D01*
X117895000Y-100557186D01*
X117858715Y-100520900D01*
X117822429Y-100448329D01*
X117822429Y-100375757D01*
X117858715Y-100303186D01*
X117895000Y-100266900D01*
X117967572Y-100230614D01*
X118149000Y-100230614D01*
X118257857Y-100266900D01*
X131008382Y-97459619D02*
X131008382Y-96443619D01*
X131250287Y-96443619D01*
X131395429Y-96492000D01*
X131492191Y-96588762D01*
X131540572Y-96685524D01*
X131588953Y-96879048D01*
X131588953Y-97024190D01*
X131540572Y-97217714D01*
X131492191Y-97314476D01*
X131395429Y-97411238D01*
X131250287Y-97459619D01*
X131008382Y-97459619D01*
X132024382Y-97459619D02*
X132024382Y-96782286D01*
X132024382Y-96443619D02*
X131976001Y-96492000D01*
X132024382Y-96540381D01*
X132072763Y-96492000D01*
X132024382Y-96443619D01*
X132024382Y-96540381D01*
X132459811Y-97411238D02*
X132556573Y-97459619D01*
X132750097Y-97459619D01*
X132846858Y-97411238D01*
X132895239Y-97314476D01*
X132895239Y-97266095D01*
X132846858Y-97169333D01*
X132750097Y-97120952D01*
X132604954Y-97120952D01*
X132508192Y-97072571D01*
X132459811Y-96975810D01*
X132459811Y-96927429D01*
X132508192Y-96830667D01*
X132604954Y-96782286D01*
X132750097Y-96782286D01*
X132846858Y-96830667D01*
X133330668Y-96782286D02*
X133330668Y-97798286D01*
X133330668Y-96830667D02*
X133427430Y-96782286D01*
X133620953Y-96782286D01*
X133717715Y-96830667D01*
X133766096Y-96879048D01*
X133814477Y-96975810D01*
X133814477Y-97266095D01*
X133766096Y-97362857D01*
X133717715Y-97411238D01*
X133620953Y-97459619D01*
X133427430Y-97459619D01*
X133330668Y-97411238D01*
X134395049Y-97459619D02*
X134298287Y-97411238D01*
X134249906Y-97314476D01*
X134249906Y-96443619D01*
X135217524Y-97459619D02*
X135217524Y-96927429D01*
X135169143Y-96830667D01*
X135072381Y-96782286D01*
X134878858Y-96782286D01*
X134782096Y-96830667D01*
X135217524Y-97411238D02*
X135120762Y-97459619D01*
X134878858Y-97459619D01*
X134782096Y-97411238D01*
X134733715Y-97314476D01*
X134733715Y-97217714D01*
X134782096Y-97120952D01*
X134878858Y-97072571D01*
X135120762Y-97072571D01*
X135217524Y-97024190D01*
X135604572Y-96782286D02*
X135846477Y-97459619D01*
X136088381Y-96782286D02*
X135846477Y-97459619D01*
X135749715Y-97701524D01*
X135701334Y-97749905D01*
X135604572Y-97798286D01*
D13*
X136144000Y-77317600D02*
X138404600Y-77317600D01*
X138404600Y-77317600D02*
X138404600Y-75260200D01*
X138404600Y-75260200D02*
X136550400Y-75260200D01*
X136144000Y-75641200D02*
X136144000Y-96596200D01*
X136144000Y-96596200D02*
X160528000Y-96596200D01*
X160528000Y-96596200D02*
X160528000Y-75641200D01*
X160528000Y-75641200D02*
X153098500Y-68656200D01*
X153098500Y-68656200D02*
X143573500Y-68656200D01*
X143573500Y-68656200D02*
X136144000Y-75641200D01*
D14*
X133770000Y-100830000D02*
X136370000Y-100830000D01*
X136370000Y-100830000D02*
X136370000Y-98170000D01*
X136370000Y-98170000D02*
X133770000Y-98170000D01*
X133770000Y-98170000D02*
X133770000Y-100830000D01*
X132500000Y-100830000D02*
X131170000Y-100830000D01*
X131170000Y-100830000D02*
X131170000Y-99500000D01*
X112880000Y-87230000D02*
X112880000Y-83770000D01*
X109120000Y-87230000D02*
X109120000Y-83770000D01*
D13*
X115027000Y-81196000D02*
X115077000Y-81196000D01*
X115027000Y-77046000D02*
X115172000Y-77046000D01*
X120177000Y-77046000D02*
X120032000Y-77046000D01*
X120177000Y-81196000D02*
X120032000Y-81196000D01*
X115027000Y-81196000D02*
X115027000Y-77046000D01*
X120177000Y-81196000D02*
X120177000Y-77046000D01*
X115077000Y-81196000D02*
X115077000Y-82596000D01*
D14*
X119066000Y-101346000D02*
X119066000Y-101406000D01*
X119066000Y-101406000D02*
X121726000Y-101406000D01*
X121726000Y-101406000D02*
X121726000Y-101346000D01*
X121726000Y-101346000D02*
X119066000Y-101346000D01*
X119066000Y-100076000D02*
X119066000Y-98746000D01*
X119066000Y-98746000D02*
X120396000Y-98746000D01*
X124146000Y-101346000D02*
X124146000Y-101406000D01*
X124146000Y-101406000D02*
X126806000Y-101406000D01*
X126806000Y-101406000D02*
X126806000Y-101346000D01*
X126806000Y-101346000D02*
X124146000Y-101346000D01*
X124146000Y-100076000D02*
X124146000Y-98746000D01*
X124146000Y-98746000D02*
X125476000Y-98746000D01*
X117459000Y-85761000D02*
X115459000Y-85761000D01*
D15*
X116459000Y-88261000D02*
X116459000Y-88761000D01*
X116059000Y-88261000D02*
X116459000Y-87661000D01*
X116859000Y-88261000D02*
X116059000Y-88261000D01*
X116459000Y-87661000D02*
X116859000Y-88261000D01*
X116459000Y-87661000D02*
X115909000Y-87661000D01*
X116459000Y-87661000D02*
X117009000Y-87661000D01*
X116459000Y-87261000D02*
X116459000Y-87661000D01*
D14*
X115459000Y-85761000D02*
X115459000Y-89661000D01*
X117459000Y-85761000D02*
X117459000Y-89661000D01*
D15*
G36*
X124201898Y-70159053D02*
X124200458Y-70349921D01*
X124200334Y-70358623D01*
X124193583Y-70824070D01*
X124134195Y-70875118D01*
X124054251Y-70919807D01*
X123970712Y-70923865D01*
X123890791Y-70887589D01*
X123863485Y-70863908D01*
X123821688Y-70825367D01*
X123802000Y-70817766D01*
X123802000Y-70038792D01*
X123795338Y-69893606D01*
X123774006Y-69782007D01*
X123735985Y-69697181D01*
X123682329Y-69634982D01*
X123595924Y-69584882D01*
X123498728Y-69569518D01*
X123400923Y-69586853D01*
X123312694Y-69634852D01*
X123244224Y-69711479D01*
X123236986Y-69724022D01*
X123214122Y-69792736D01*
X123200320Y-69889279D01*
X123195459Y-70000657D01*
X123199423Y-70113874D01*
X123212092Y-70215938D01*
X123233349Y-70293855D01*
X123242349Y-70312261D01*
X123313342Y-70400490D01*
X123400202Y-70457675D01*
X123494943Y-70481873D01*
X123589581Y-70471136D01*
X123676129Y-70423519D01*
X123681192Y-70419183D01*
X123739978Y-70350541D01*
X123778065Y-70262453D01*
X123797810Y-70147495D01*
X123802000Y-70038792D01*
X123802000Y-70817766D01*
X123790245Y-70813229D01*
X123750456Y-70823107D01*
X123728210Y-70832158D01*
X123667645Y-70848161D01*
X123582773Y-70859109D01*
X123501055Y-70862649D01*
X123402326Y-70858682D01*
X123323340Y-70843629D01*
X123241982Y-70812727D01*
X123218124Y-70801703D01*
X123070772Y-70712487D01*
X122955089Y-70598457D01*
X122870234Y-70458038D01*
X122815366Y-70289654D01*
X122789644Y-70091730D01*
X122787343Y-69994833D01*
X122798511Y-69823444D01*
X122833045Y-69676671D01*
X122894845Y-69541537D01*
X122948959Y-69457353D01*
X123057509Y-69337247D01*
X123185186Y-69250668D01*
X123325947Y-69197105D01*
X123473748Y-69176047D01*
X123622544Y-69186985D01*
X123766291Y-69229407D01*
X123898945Y-69302805D01*
X124014462Y-69406667D01*
X124106798Y-69540482D01*
X124114664Y-69555773D01*
X124143855Y-69622150D01*
X124166321Y-69694103D01*
X124182711Y-69777701D01*
X124193672Y-69879012D01*
X124199852Y-70004106D01*
X124201898Y-70159053D01*
X124201898Y-70159053D01*
X124201898Y-70159053D01*
G37*
X124201898Y-70159053D02*
X124200458Y-70349921D01*
X124200334Y-70358623D01*
X124193583Y-70824070D01*
X124134195Y-70875118D01*
X124054251Y-70919807D01*
X123970712Y-70923865D01*
X123890791Y-70887589D01*
X123863485Y-70863908D01*
X123821688Y-70825367D01*
X123802000Y-70817766D01*
X123802000Y-70038792D01*
X123795338Y-69893606D01*
X123774006Y-69782007D01*
X123735985Y-69697181D01*
X123682329Y-69634982D01*
X123595924Y-69584882D01*
X123498728Y-69569518D01*
X123400923Y-69586853D01*
X123312694Y-69634852D01*
X123244224Y-69711479D01*
X123236986Y-69724022D01*
X123214122Y-69792736D01*
X123200320Y-69889279D01*
X123195459Y-70000657D01*
X123199423Y-70113874D01*
X123212092Y-70215938D01*
X123233349Y-70293855D01*
X123242349Y-70312261D01*
X123313342Y-70400490D01*
X123400202Y-70457675D01*
X123494943Y-70481873D01*
X123589581Y-70471136D01*
X123676129Y-70423519D01*
X123681192Y-70419183D01*
X123739978Y-70350541D01*
X123778065Y-70262453D01*
X123797810Y-70147495D01*
X123802000Y-70038792D01*
X123802000Y-70817766D01*
X123790245Y-70813229D01*
X123750456Y-70823107D01*
X123728210Y-70832158D01*
X123667645Y-70848161D01*
X123582773Y-70859109D01*
X123501055Y-70862649D01*
X123402326Y-70858682D01*
X123323340Y-70843629D01*
X123241982Y-70812727D01*
X123218124Y-70801703D01*
X123070772Y-70712487D01*
X122955089Y-70598457D01*
X122870234Y-70458038D01*
X122815366Y-70289654D01*
X122789644Y-70091730D01*
X122787343Y-69994833D01*
X122798511Y-69823444D01*
X122833045Y-69676671D01*
X122894845Y-69541537D01*
X122948959Y-69457353D01*
X123057509Y-69337247D01*
X123185186Y-69250668D01*
X123325947Y-69197105D01*
X123473748Y-69176047D01*
X123622544Y-69186985D01*
X123766291Y-69229407D01*
X123898945Y-69302805D01*
X124014462Y-69406667D01*
X124106798Y-69540482D01*
X124114664Y-69555773D01*
X124143855Y-69622150D01*
X124166321Y-69694103D01*
X124182711Y-69777701D01*
X124193672Y-69879012D01*
X124199852Y-70004106D01*
X124201898Y-70159053D01*
X124201898Y-70159053D01*
G36*
X120097833Y-70672302D02*
X120080317Y-70737936D01*
X120036097Y-70803875D01*
X119977667Y-70854436D01*
X119939324Y-70871298D01*
X119895954Y-70877501D01*
X119853674Y-70871163D01*
X119808615Y-70848898D01*
X119756908Y-70807318D01*
X119694686Y-70743039D01*
X119618081Y-70652672D01*
X119523225Y-70532832D01*
X119462267Y-70453646D01*
X119378506Y-70345383D01*
X119302455Y-70249418D01*
X119238097Y-70170586D01*
X119189414Y-70113723D01*
X119160387Y-70083667D01*
X119154777Y-70080175D01*
X119127745Y-70093907D01*
X119085732Y-70129310D01*
X119066683Y-70148291D01*
X119039595Y-70177797D01*
X119020990Y-70205237D01*
X119009011Y-70239218D01*
X119001803Y-70288349D01*
X118997509Y-70361235D01*
X118994272Y-70466483D01*
X118993739Y-70486488D01*
X118990311Y-70598405D01*
X118985971Y-70676319D01*
X118979145Y-70728555D01*
X118968257Y-70763438D01*
X118951731Y-70789293D01*
X118932529Y-70809936D01*
X118872636Y-70851484D01*
X118803872Y-70876084D01*
X118803143Y-70876204D01*
X118748476Y-70879095D01*
X118703423Y-70861866D01*
X118656114Y-70824367D01*
X118584417Y-70760305D01*
X118584417Y-69613563D01*
X118584417Y-68466820D01*
X118647917Y-68416015D01*
X118724658Y-68376831D01*
X118808618Y-68368543D01*
X118887651Y-68389228D01*
X118949612Y-68436963D01*
X118968714Y-68466811D01*
X118973689Y-68496772D01*
X118978908Y-68563194D01*
X118984101Y-68660209D01*
X118988999Y-68781948D01*
X118993333Y-68922543D01*
X118996834Y-69076124D01*
X118996950Y-69082296D01*
X119007750Y-69662010D01*
X119361698Y-69342140D01*
X119466796Y-69248683D01*
X119564366Y-69164769D01*
X119649124Y-69094718D01*
X119715788Y-69042848D01*
X119759075Y-69013476D01*
X119769567Y-69008737D01*
X119841527Y-69009128D01*
X119917091Y-69037020D01*
X119976464Y-69084636D01*
X119982260Y-69092293D01*
X120004028Y-69144557D01*
X120013166Y-69208588D01*
X120013167Y-69209014D01*
X120009813Y-69240684D01*
X119997330Y-69273884D01*
X119972087Y-69312725D01*
X119930449Y-69361318D01*
X119868786Y-69423775D01*
X119783464Y-69504207D01*
X119670851Y-69606727D01*
X119626787Y-69646370D01*
X119462657Y-69793750D01*
X119780245Y-70202968D01*
X119887572Y-70342602D01*
X119970050Y-70453193D01*
X120029996Y-70538163D01*
X120069727Y-70600938D01*
X120091560Y-70644941D01*
X120097833Y-70672302D01*
X120097833Y-70672302D01*
X120097833Y-70672302D01*
G37*
X120097833Y-70672302D02*
X120080317Y-70737936D01*
X120036097Y-70803875D01*
X119977667Y-70854436D01*
X119939324Y-70871298D01*
X119895954Y-70877501D01*
X119853674Y-70871163D01*
X119808615Y-70848898D01*
X119756908Y-70807318D01*
X119694686Y-70743039D01*
X119618081Y-70652672D01*
X119523225Y-70532832D01*
X119462267Y-70453646D01*
X119378506Y-70345383D01*
X119302455Y-70249418D01*
X119238097Y-70170586D01*
X119189414Y-70113723D01*
X119160387Y-70083667D01*
X119154777Y-70080175D01*
X119127745Y-70093907D01*
X119085732Y-70129310D01*
X119066683Y-70148291D01*
X119039595Y-70177797D01*
X119020990Y-70205237D01*
X119009011Y-70239218D01*
X119001803Y-70288349D01*
X118997509Y-70361235D01*
X118994272Y-70466483D01*
X118993739Y-70486488D01*
X118990311Y-70598405D01*
X118985971Y-70676319D01*
X118979145Y-70728555D01*
X118968257Y-70763438D01*
X118951731Y-70789293D01*
X118932529Y-70809936D01*
X118872636Y-70851484D01*
X118803872Y-70876084D01*
X118803143Y-70876204D01*
X118748476Y-70879095D01*
X118703423Y-70861866D01*
X118656114Y-70824367D01*
X118584417Y-70760305D01*
X118584417Y-69613563D01*
X118584417Y-68466820D01*
X118647917Y-68416015D01*
X118724658Y-68376831D01*
X118808618Y-68368543D01*
X118887651Y-68389228D01*
X118949612Y-68436963D01*
X118968714Y-68466811D01*
X118973689Y-68496772D01*
X118978908Y-68563194D01*
X118984101Y-68660209D01*
X118988999Y-68781948D01*
X118993333Y-68922543D01*
X118996834Y-69076124D01*
X118996950Y-69082296D01*
X119007750Y-69662010D01*
X119361698Y-69342140D01*
X119466796Y-69248683D01*
X119564366Y-69164769D01*
X119649124Y-69094718D01*
X119715788Y-69042848D01*
X119759075Y-69013476D01*
X119769567Y-69008737D01*
X119841527Y-69009128D01*
X119917091Y-69037020D01*
X119976464Y-69084636D01*
X119982260Y-69092293D01*
X120004028Y-69144557D01*
X120013166Y-69208588D01*
X120013167Y-69209014D01*
X120009813Y-69240684D01*
X119997330Y-69273884D01*
X119972087Y-69312725D01*
X119930449Y-69361318D01*
X119868786Y-69423775D01*
X119783464Y-69504207D01*
X119670851Y-69606727D01*
X119626787Y-69646370D01*
X119462657Y-69793750D01*
X119780245Y-70202968D01*
X119887572Y-70342602D01*
X119970050Y-70453193D01*
X120029996Y-70538163D01*
X120069727Y-70600938D01*
X120091560Y-70644941D01*
X120097833Y-70672302D01*
X120097833Y-70672302D01*
G36*
X120772909Y-69714501D02*
X120771909Y-69904914D01*
X120770900Y-70027904D01*
X120764583Y-70755926D01*
X120711667Y-70808783D01*
X120641735Y-70855763D01*
X120561586Y-70875583D01*
X120489417Y-70864624D01*
X120443581Y-70835277D01*
X120404750Y-70799468D01*
X120393509Y-70785231D01*
X120384397Y-70767133D01*
X120377144Y-70740789D01*
X120371484Y-70701816D01*
X120367148Y-70645828D01*
X120363869Y-70568441D01*
X120361379Y-70465271D01*
X120359409Y-70331933D01*
X120357692Y-70164042D01*
X120356366Y-70007476D01*
X120350316Y-69262511D01*
X120398700Y-69191095D01*
X120464580Y-69121663D01*
X120539798Y-69093233D01*
X120623277Y-69106147D01*
X120641415Y-69113981D01*
X120675595Y-69131741D01*
X120703506Y-69152023D01*
X120725738Y-69178992D01*
X120742880Y-69216813D01*
X120755523Y-69269653D01*
X120764257Y-69341676D01*
X120769673Y-69437048D01*
X120772360Y-69559934D01*
X120772909Y-69714501D01*
X120772909Y-69714501D01*
X120772909Y-69714501D01*
G37*
X120772909Y-69714501D02*
X120771909Y-69904914D01*
X120770900Y-70027904D01*
X120764583Y-70755926D01*
X120711667Y-70808783D01*
X120641735Y-70855763D01*
X120561586Y-70875583D01*
X120489417Y-70864624D01*
X120443581Y-70835277D01*
X120404750Y-70799468D01*
X120393509Y-70785231D01*
X120384397Y-70767133D01*
X120377144Y-70740789D01*
X120371484Y-70701816D01*
X120367148Y-70645828D01*
X120363869Y-70568441D01*
X120361379Y-70465271D01*
X120359409Y-70331933D01*
X120357692Y-70164042D01*
X120356366Y-70007476D01*
X120350316Y-69262511D01*
X120398700Y-69191095D01*
X120464580Y-69121663D01*
X120539798Y-69093233D01*
X120623277Y-69106147D01*
X120641415Y-69113981D01*
X120675595Y-69131741D01*
X120703506Y-69152023D01*
X120725738Y-69178992D01*
X120742880Y-69216813D01*
X120755523Y-69269653D01*
X120764257Y-69341676D01*
X120769673Y-69437048D01*
X120772360Y-69559934D01*
X120772909Y-69714501D01*
X120772909Y-69714501D01*
G36*
X122447333Y-70608577D02*
X122427375Y-70669699D01*
X122372313Y-70727341D01*
X122289365Y-70778951D01*
X122185753Y-70821978D01*
X122068694Y-70853871D01*
X121945408Y-70872079D01*
X121823114Y-70874052D01*
X121730010Y-70862053D01*
X121567708Y-70807410D01*
X121423808Y-70717608D01*
X121304093Y-70597873D01*
X121214344Y-70453425D01*
X121179708Y-70364894D01*
X121132150Y-70151995D01*
X121122006Y-69937987D01*
X121148905Y-69730234D01*
X121212482Y-69536100D01*
X121222235Y-69514752D01*
X121311628Y-69372766D01*
X121430532Y-69256462D01*
X121572534Y-69169127D01*
X121731222Y-69114046D01*
X121900184Y-69094507D01*
X122023500Y-69104114D01*
X122167473Y-69137485D01*
X122283597Y-69185047D01*
X122369405Y-69243865D01*
X122422430Y-69311002D01*
X122440203Y-69383522D01*
X122420258Y-69458489D01*
X122373351Y-69520406D01*
X122319330Y-69558000D01*
X122253516Y-69569277D01*
X122167775Y-69554490D01*
X122092564Y-69529155D01*
X121984319Y-69496137D01*
X121892563Y-69489083D01*
X121801124Y-69507021D01*
X121789033Y-69510932D01*
X121691437Y-69558604D01*
X121619512Y-69629768D01*
X121571258Y-69728277D01*
X121544677Y-69857985D01*
X121537631Y-69995640D01*
X121545701Y-70146483D01*
X121572192Y-70264124D01*
X121619357Y-70354484D01*
X121689449Y-70423485D01*
X121704338Y-70433870D01*
X121791126Y-70469984D01*
X121897909Y-70483059D01*
X122009031Y-70472884D01*
X122108667Y-70439333D01*
X122169943Y-70412838D01*
X122222201Y-70398088D01*
X122233827Y-70397000D01*
X122316805Y-70416228D01*
X122386846Y-70467082D01*
X122433608Y-70539313D01*
X122447333Y-70608577D01*
X122447333Y-70608577D01*
X122447333Y-70608577D01*
G37*
X122447333Y-70608577D02*
X122427375Y-70669699D01*
X122372313Y-70727341D01*
X122289365Y-70778951D01*
X122185753Y-70821978D01*
X122068694Y-70853871D01*
X121945408Y-70872079D01*
X121823114Y-70874052D01*
X121730010Y-70862053D01*
X121567708Y-70807410D01*
X121423808Y-70717608D01*
X121304093Y-70597873D01*
X121214344Y-70453425D01*
X121179708Y-70364894D01*
X121132150Y-70151995D01*
X121122006Y-69937987D01*
X121148905Y-69730234D01*
X121212482Y-69536100D01*
X121222235Y-69514752D01*
X121311628Y-69372766D01*
X121430532Y-69256462D01*
X121572534Y-69169127D01*
X121731222Y-69114046D01*
X121900184Y-69094507D01*
X122023500Y-69104114D01*
X122167473Y-69137485D01*
X122283597Y-69185047D01*
X122369405Y-69243865D01*
X122422430Y-69311002D01*
X122440203Y-69383522D01*
X122420258Y-69458489D01*
X122373351Y-69520406D01*
X122319330Y-69558000D01*
X122253516Y-69569277D01*
X122167775Y-69554490D01*
X122092564Y-69529155D01*
X121984319Y-69496137D01*
X121892563Y-69489083D01*
X121801124Y-69507021D01*
X121789033Y-69510932D01*
X121691437Y-69558604D01*
X121619512Y-69629768D01*
X121571258Y-69728277D01*
X121544677Y-69857985D01*
X121537631Y-69995640D01*
X121545701Y-70146483D01*
X121572192Y-70264124D01*
X121619357Y-70354484D01*
X121689449Y-70423485D01*
X121704338Y-70433870D01*
X121791126Y-70469984D01*
X121897909Y-70483059D01*
X122009031Y-70472884D01*
X122108667Y-70439333D01*
X122169943Y-70412838D01*
X122222201Y-70398088D01*
X122233827Y-70397000D01*
X122316805Y-70416228D01*
X122386846Y-70467082D01*
X122433608Y-70539313D01*
X122447333Y-70608577D01*
X122447333Y-70608577D01*
G36*
X126048202Y-68533612D02*
X126041348Y-69417681D01*
X126039615Y-69634448D01*
X126037932Y-69813221D01*
X126036053Y-69958336D01*
X126033737Y-70074131D01*
X126030738Y-70164943D01*
X126026813Y-70235110D01*
X126021717Y-70288970D01*
X126015208Y-70330859D01*
X126007040Y-70365115D01*
X125996971Y-70396076D01*
X125984755Y-70428078D01*
X125984491Y-70428750D01*
X125923806Y-70558755D01*
X125853618Y-70657882D01*
X125765422Y-70737575D01*
X125743407Y-70753193D01*
X125643500Y-70804286D01*
X125643500Y-69958381D01*
X125643500Y-69673099D01*
X125573430Y-69603029D01*
X125503803Y-69550069D01*
X125423789Y-69511934D01*
X125411309Y-69508173D01*
X125291397Y-69493800D01*
X125186683Y-69517237D01*
X125099546Y-69575944D01*
X125032364Y-69667385D01*
X124987515Y-69789023D01*
X124967378Y-69938321D01*
X124966485Y-69982728D01*
X124980460Y-70140548D01*
X125020035Y-70273353D01*
X125082771Y-70378069D01*
X125166226Y-70451619D01*
X125267961Y-70490929D01*
X125372634Y-70494546D01*
X125445690Y-70475423D01*
X125514039Y-70441065D01*
X125515962Y-70439716D01*
X125563188Y-70399045D01*
X125597565Y-70349676D01*
X125620936Y-70284657D01*
X125635142Y-70197034D01*
X125642026Y-70079855D01*
X125643500Y-69958381D01*
X125643500Y-70804286D01*
X125595508Y-70828830D01*
X125428386Y-70867520D01*
X125244308Y-70868788D01*
X125209583Y-70865009D01*
X125098277Y-70837307D01*
X124977720Y-70785230D01*
X124865307Y-70717297D01*
X124800590Y-70664694D01*
X124757144Y-70613000D01*
X124706751Y-70537406D01*
X124659248Y-70452878D01*
X124652480Y-70439333D01*
X124574696Y-70280583D01*
X124575186Y-69994833D01*
X124576334Y-69871913D01*
X124580089Y-69781189D01*
X124587647Y-69712548D01*
X124600202Y-69655875D01*
X124618951Y-69601057D01*
X124622923Y-69590987D01*
X124705735Y-69437097D01*
X124817011Y-69310455D01*
X124951065Y-69213562D01*
X125102212Y-69148923D01*
X125264767Y-69119040D01*
X125433047Y-69126417D01*
X125585292Y-69167211D01*
X125643500Y-69189452D01*
X125643500Y-68863516D01*
X125643746Y-68739257D01*
X125645185Y-68649817D01*
X125648870Y-68587685D01*
X125655854Y-68545347D01*
X125667189Y-68515291D01*
X125683929Y-68490004D01*
X125698298Y-68472457D01*
X125767150Y-68418977D01*
X125846088Y-68403720D01*
X125926883Y-68426743D01*
X125985062Y-68470472D01*
X126048202Y-68533612D01*
X126048202Y-68533612D01*
X126048202Y-68533612D01*
G37*
X126048202Y-68533612D02*
X126041348Y-69417681D01*
X126039615Y-69634448D01*
X126037932Y-69813221D01*
X126036053Y-69958336D01*
X126033737Y-70074131D01*
X126030738Y-70164943D01*
X126026813Y-70235110D01*
X126021717Y-70288970D01*
X126015208Y-70330859D01*
X126007040Y-70365115D01*
X125996971Y-70396076D01*
X125984755Y-70428078D01*
X125984491Y-70428750D01*
X125923806Y-70558755D01*
X125853618Y-70657882D01*
X125765422Y-70737575D01*
X125743407Y-70753193D01*
X125643500Y-70804286D01*
X125643500Y-69958381D01*
X125643500Y-69673099D01*
X125573430Y-69603029D01*
X125503803Y-69550069D01*
X125423789Y-69511934D01*
X125411309Y-69508173D01*
X125291397Y-69493800D01*
X125186683Y-69517237D01*
X125099546Y-69575944D01*
X125032364Y-69667385D01*
X124987515Y-69789023D01*
X124967378Y-69938321D01*
X124966485Y-69982728D01*
X124980460Y-70140548D01*
X125020035Y-70273353D01*
X125082771Y-70378069D01*
X125166226Y-70451619D01*
X125267961Y-70490929D01*
X125372634Y-70494546D01*
X125445690Y-70475423D01*
X125514039Y-70441065D01*
X125515962Y-70439716D01*
X125563188Y-70399045D01*
X125597565Y-70349676D01*
X125620936Y-70284657D01*
X125635142Y-70197034D01*
X125642026Y-70079855D01*
X125643500Y-69958381D01*
X125643500Y-70804286D01*
X125595508Y-70828830D01*
X125428386Y-70867520D01*
X125244308Y-70868788D01*
X125209583Y-70865009D01*
X125098277Y-70837307D01*
X124977720Y-70785230D01*
X124865307Y-70717297D01*
X124800590Y-70664694D01*
X124757144Y-70613000D01*
X124706751Y-70537406D01*
X124659248Y-70452878D01*
X124652480Y-70439333D01*
X124574696Y-70280583D01*
X124575186Y-69994833D01*
X124576334Y-69871913D01*
X124580089Y-69781189D01*
X124587647Y-69712548D01*
X124600202Y-69655875D01*
X124618951Y-69601057D01*
X124622923Y-69590987D01*
X124705735Y-69437097D01*
X124817011Y-69310455D01*
X124951065Y-69213562D01*
X125102212Y-69148923D01*
X125264767Y-69119040D01*
X125433047Y-69126417D01*
X125585292Y-69167211D01*
X125643500Y-69189452D01*
X125643500Y-68863516D01*
X125643746Y-68739257D01*
X125645185Y-68649817D01*
X125648870Y-68587685D01*
X125655854Y-68545347D01*
X125667189Y-68515291D01*
X125683929Y-68490004D01*
X125698298Y-68472457D01*
X125767150Y-68418977D01*
X125846088Y-68403720D01*
X125926883Y-68426743D01*
X125985062Y-68470472D01*
X126048202Y-68533612D01*
X126048202Y-68533612D01*
G36*
X118129342Y-69336873D02*
X118129337Y-69576676D01*
X118129333Y-69636065D01*
X118129333Y-70718733D01*
X118057367Y-70790699D01*
X117985400Y-70862666D01*
X117896500Y-70862666D01*
X117896500Y-70629833D01*
X117896500Y-69607373D01*
X117896500Y-68584913D01*
X117457292Y-68150230D01*
X117334224Y-68028643D01*
X117211012Y-67907300D01*
X117093704Y-67792129D01*
X116988347Y-67689059D01*
X116900992Y-67604017D01*
X116838167Y-67543394D01*
X116658250Y-67371240D01*
X115912125Y-67370703D01*
X115166000Y-67370166D01*
X115166000Y-69000000D01*
X115166000Y-70629833D01*
X116531250Y-70629833D01*
X117896500Y-70629833D01*
X117896500Y-70862666D01*
X116533700Y-70862666D01*
X115082001Y-70862666D01*
X115012875Y-70800902D01*
X114943750Y-70739139D01*
X114943750Y-69036690D01*
X114943851Y-68720281D01*
X114944184Y-68443595D01*
X114944793Y-68204023D01*
X114945721Y-67998955D01*
X114947013Y-67825781D01*
X114948712Y-67681891D01*
X114950861Y-67564676D01*
X114953506Y-67471527D01*
X114956689Y-67399833D01*
X114960455Y-67346985D01*
X114964847Y-67310373D01*
X114969909Y-67287388D01*
X114973272Y-67279078D01*
X114991011Y-67248892D01*
X115011550Y-67224212D01*
X115039045Y-67204502D01*
X115077654Y-67189227D01*
X115131534Y-67177849D01*
X115204842Y-67169834D01*
X115301734Y-67164644D01*
X115426368Y-67161745D01*
X115582900Y-67160599D01*
X115775488Y-67160671D01*
X115888865Y-67161004D01*
X116065072Y-67161959D01*
X116229712Y-67163547D01*
X116377525Y-67165665D01*
X116503252Y-67168210D01*
X116601634Y-67171077D01*
X116667412Y-67174163D01*
X116693753Y-67176879D01*
X116710227Y-67181484D01*
X116727784Y-67189048D01*
X116749292Y-67202146D01*
X116777621Y-67223353D01*
X116815640Y-67255244D01*
X116866217Y-67300395D01*
X116932220Y-67361381D01*
X117016520Y-67440776D01*
X117121984Y-67541157D01*
X117251481Y-67665099D01*
X117407881Y-67815176D01*
X117452000Y-67857541D01*
X117573165Y-67973707D01*
X117687605Y-68083066D01*
X117790909Y-68181429D01*
X117878663Y-68264607D01*
X117946455Y-68328411D01*
X117989873Y-68368652D01*
X117999169Y-68376988D01*
X118027453Y-68401576D01*
X118051316Y-68424143D01*
X118071133Y-68448317D01*
X118087281Y-68477727D01*
X118100133Y-68516000D01*
X118110065Y-68566765D01*
X118117452Y-68633650D01*
X118122669Y-68720284D01*
X118126092Y-68830295D01*
X118128095Y-68967311D01*
X118129053Y-69134961D01*
X118129342Y-69336873D01*
X118129342Y-69336873D01*
X118129342Y-69336873D01*
G37*
X118129342Y-69336873D02*
X118129337Y-69576676D01*
X118129333Y-69636065D01*
X118129333Y-70718733D01*
X118057367Y-70790699D01*
X117985400Y-70862666D01*
X117896500Y-70862666D01*
X117896500Y-70629833D01*
X117896500Y-69607373D01*
X117896500Y-68584913D01*
X117457292Y-68150230D01*
X117334224Y-68028643D01*
X117211012Y-67907300D01*
X117093704Y-67792129D01*
X116988347Y-67689059D01*
X116900992Y-67604017D01*
X116838167Y-67543394D01*
X116658250Y-67371240D01*
X115912125Y-67370703D01*
X115166000Y-67370166D01*
X115166000Y-69000000D01*
X115166000Y-70629833D01*
X116531250Y-70629833D01*
X117896500Y-70629833D01*
X117896500Y-70862666D01*
X116533700Y-70862666D01*
X115082001Y-70862666D01*
X115012875Y-70800902D01*
X114943750Y-70739139D01*
X114943750Y-69036690D01*
X114943851Y-68720281D01*
X114944184Y-68443595D01*
X114944793Y-68204023D01*
X114945721Y-67998955D01*
X114947013Y-67825781D01*
X114948712Y-67681891D01*
X114950861Y-67564676D01*
X114953506Y-67471527D01*
X114956689Y-67399833D01*
X114960455Y-67346985D01*
X114964847Y-67310373D01*
X114969909Y-67287388D01*
X114973272Y-67279078D01*
X114991011Y-67248892D01*
X115011550Y-67224212D01*
X115039045Y-67204502D01*
X115077654Y-67189227D01*
X115131534Y-67177849D01*
X115204842Y-67169834D01*
X115301734Y-67164644D01*
X115426368Y-67161745D01*
X115582900Y-67160599D01*
X115775488Y-67160671D01*
X115888865Y-67161004D01*
X116065072Y-67161959D01*
X116229712Y-67163547D01*
X116377525Y-67165665D01*
X116503252Y-67168210D01*
X116601634Y-67171077D01*
X116667412Y-67174163D01*
X116693753Y-67176879D01*
X116710227Y-67181484D01*
X116727784Y-67189048D01*
X116749292Y-67202146D01*
X116777621Y-67223353D01*
X116815640Y-67255244D01*
X116866217Y-67300395D01*
X116932220Y-67361381D01*
X117016520Y-67440776D01*
X117121984Y-67541157D01*
X117251481Y-67665099D01*
X117407881Y-67815176D01*
X117452000Y-67857541D01*
X117573165Y-67973707D01*
X117687605Y-68083066D01*
X117790909Y-68181429D01*
X117878663Y-68264607D01*
X117946455Y-68328411D01*
X117989873Y-68368652D01*
X117999169Y-68376988D01*
X118027453Y-68401576D01*
X118051316Y-68424143D01*
X118071133Y-68448317D01*
X118087281Y-68477727D01*
X118100133Y-68516000D01*
X118110065Y-68566765D01*
X118117452Y-68633650D01*
X118122669Y-68720284D01*
X118126092Y-68830295D01*
X118128095Y-68967311D01*
X118129053Y-69134961D01*
X118129342Y-69336873D01*
X118129342Y-69336873D01*
G36*
X120761117Y-68532876D02*
X120761070Y-68618914D01*
X120731389Y-68698634D01*
X120679077Y-68755186D01*
X120600059Y-68784204D01*
X120512482Y-68781934D01*
X120434934Y-68749130D01*
X120429558Y-68745082D01*
X120376840Y-68680629D01*
X120357232Y-68604338D01*
X120367193Y-68525560D01*
X120403184Y-68453645D01*
X120461665Y-68397943D01*
X120539095Y-68367805D01*
X120573455Y-68365000D01*
X120634299Y-68382799D01*
X120695539Y-68427815D01*
X120743119Y-68487474D01*
X120761117Y-68532876D01*
X120761117Y-68532876D01*
X120761117Y-68532876D01*
G37*
X120761117Y-68532876D02*
X120761070Y-68618914D01*
X120731389Y-68698634D01*
X120679077Y-68755186D01*
X120600059Y-68784204D01*
X120512482Y-68781934D01*
X120434934Y-68749130D01*
X120429558Y-68745082D01*
X120376840Y-68680629D01*
X120357232Y-68604338D01*
X120367193Y-68525560D01*
X120403184Y-68453645D01*
X120461665Y-68397943D01*
X120539095Y-68367805D01*
X120573455Y-68365000D01*
X120634299Y-68382799D01*
X120695539Y-68427815D01*
X120743119Y-68487474D01*
X120761117Y-68532876D01*
X120761117Y-68532876D01*
G36*
X118129333Y-67638050D02*
X118129057Y-67775365D01*
X118127827Y-67876376D01*
X118125040Y-67947112D01*
X118120090Y-67993603D01*
X118112374Y-68021877D01*
X118101288Y-68037962D01*
X118088391Y-68046755D01*
X118054955Y-68061803D01*
X118022676Y-68067042D01*
X117987184Y-68059573D01*
X117944105Y-68036492D01*
X117889068Y-67994898D01*
X117817699Y-67931891D01*
X117725627Y-67844568D01*
X117608478Y-67730028D01*
X117603076Y-67724708D01*
X117502088Y-67625355D01*
X117410115Y-67535072D01*
X117331804Y-67458406D01*
X117271805Y-67399905D01*
X117234766Y-67364114D01*
X117225917Y-67355803D01*
X117201197Y-67310061D01*
X117199498Y-67251521D01*
X117219127Y-67199569D01*
X117241367Y-67179113D01*
X117282618Y-67169837D01*
X117364679Y-67163859D01*
X117486151Y-67161232D01*
X117645637Y-67162009D01*
X117677030Y-67162493D01*
X117815972Y-67165145D01*
X117918677Y-67168215D01*
X117991240Y-67172390D01*
X118039756Y-67178359D01*
X118070319Y-67186810D01*
X118089026Y-67198432D01*
X118099329Y-67210170D01*
X118110649Y-67235414D01*
X118118920Y-67279226D01*
X118124519Y-67347015D01*
X118127828Y-67444191D01*
X118129225Y-67576165D01*
X118129333Y-67638050D01*
X118129333Y-67638050D01*
X118129333Y-67638050D01*
G37*
X118129333Y-67638050D02*
X118129057Y-67775365D01*
X118127827Y-67876376D01*
X118125040Y-67947112D01*
X118120090Y-67993603D01*
X118112374Y-68021877D01*
X118101288Y-68037962D01*
X118088391Y-68046755D01*
X118054955Y-68061803D01*
X118022676Y-68067042D01*
X117987184Y-68059573D01*
X117944105Y-68036492D01*
X117889068Y-67994898D01*
X117817699Y-67931891D01*
X117725627Y-67844568D01*
X117608478Y-67730028D01*
X117603076Y-67724708D01*
X117502088Y-67625355D01*
X117410115Y-67535072D01*
X117331804Y-67458406D01*
X117271805Y-67399905D01*
X117234766Y-67364114D01*
X117225917Y-67355803D01*
X117201197Y-67310061D01*
X117199498Y-67251521D01*
X117219127Y-67199569D01*
X117241367Y-67179113D01*
X117282618Y-67169837D01*
X117364679Y-67163859D01*
X117486151Y-67161232D01*
X117645637Y-67162009D01*
X117677030Y-67162493D01*
X117815972Y-67165145D01*
X117918677Y-67168215D01*
X117991240Y-67172390D01*
X118039756Y-67178359D01*
X118070319Y-67186810D01*
X118089026Y-67198432D01*
X118099329Y-67210170D01*
X118110649Y-67235414D01*
X118118920Y-67279226D01*
X118124519Y-67347015D01*
X118127828Y-67444191D01*
X118129225Y-67576165D01*
X118129333Y-67638050D01*
X118129333Y-67638050D01*
G36*
X117748333Y-69783166D02*
X117746699Y-69797392D01*
X117738204Y-69808014D01*
X117717459Y-69815557D01*
X117679076Y-69820548D01*
X117617667Y-69823511D01*
X117527842Y-69824972D01*
X117404214Y-69825458D01*
X117314417Y-69825500D01*
X116880500Y-69825500D01*
X116880500Y-70079500D01*
X116880084Y-70186720D01*
X116878059Y-70258625D01*
X116873254Y-70302229D01*
X116864501Y-70324548D01*
X116850629Y-70332597D01*
X116838167Y-70333500D01*
X116821415Y-70331301D01*
X116809781Y-70320369D01*
X116802335Y-70294198D01*
X116798150Y-70246282D01*
X116796294Y-70170115D01*
X116795838Y-70059192D01*
X116795833Y-70037166D01*
X116795833Y-69740833D01*
X117272083Y-69740833D01*
X117425757Y-69740968D01*
X117542242Y-69741680D01*
X117626685Y-69743424D01*
X117684230Y-69746659D01*
X117720022Y-69751842D01*
X117739206Y-69759431D01*
X117746928Y-69769881D01*
X117748333Y-69783166D01*
X117748333Y-69783166D01*
X117748333Y-69783166D01*
G37*
X117748333Y-69783166D02*
X117746699Y-69797392D01*
X117738204Y-69808014D01*
X117717459Y-69815557D01*
X117679076Y-69820548D01*
X117617667Y-69823511D01*
X117527842Y-69824972D01*
X117404214Y-69825458D01*
X117314417Y-69825500D01*
X116880500Y-69825500D01*
X116880500Y-70079500D01*
X116880084Y-70186720D01*
X116878059Y-70258625D01*
X116873254Y-70302229D01*
X116864501Y-70324548D01*
X116850629Y-70332597D01*
X116838167Y-70333500D01*
X116821415Y-70331301D01*
X116809781Y-70320369D01*
X116802335Y-70294198D01*
X116798150Y-70246282D01*
X116796294Y-70170115D01*
X116795838Y-70059192D01*
X116795833Y-70037166D01*
X116795833Y-69740833D01*
X117272083Y-69740833D01*
X117425757Y-69740968D01*
X117542242Y-69741680D01*
X117626685Y-69743424D01*
X117684230Y-69746659D01*
X117720022Y-69751842D01*
X117739206Y-69759431D01*
X117746928Y-69769881D01*
X117748333Y-69783166D01*
X117748333Y-69783166D01*
G36*
X117769557Y-69033139D02*
X117657738Y-69143569D01*
X117598919Y-69200155D01*
X117556043Y-69233104D01*
X117553823Y-69233957D01*
X117553823Y-69041556D01*
X117546768Y-69008407D01*
X117544525Y-69004722D01*
X117527511Y-68988158D01*
X117496016Y-68976772D01*
X117442402Y-68969312D01*
X117359034Y-68964525D01*
X117285701Y-68962265D01*
X117049833Y-68956280D01*
X117049833Y-69031056D01*
X117049833Y-69105833D01*
X117266792Y-69105160D01*
X117380282Y-69102689D01*
X117458339Y-69095547D01*
X117507687Y-69082893D01*
X117525616Y-69072840D01*
X117553823Y-69041556D01*
X117553823Y-69233957D01*
X117515210Y-69248805D01*
X117462522Y-69253647D01*
X117417544Y-69254000D01*
X117334591Y-69252384D01*
X117229123Y-69248096D01*
X117120814Y-69241977D01*
X117095418Y-69240247D01*
X116901667Y-69226494D01*
X116901667Y-69165612D01*
X116901667Y-69104730D01*
X116578875Y-69110573D01*
X116256083Y-69116416D01*
X116255366Y-69185263D01*
X116248679Y-69227565D01*
X116225610Y-69271928D01*
X116180260Y-69327492D01*
X116129029Y-69381054D01*
X116003408Y-69508000D01*
X116127904Y-69633808D01*
X116186034Y-69694106D01*
X116224473Y-69742462D01*
X116247421Y-69790394D01*
X116259080Y-69849418D01*
X116263652Y-69931052D01*
X116264903Y-70009367D01*
X116266667Y-70161484D01*
X116335458Y-70168117D01*
X116383131Y-70177662D01*
X116401629Y-70202366D01*
X116404250Y-70238250D01*
X116404250Y-70301750D01*
X116208458Y-70307835D01*
X116012667Y-70313921D01*
X116012667Y-70239044D01*
X116016111Y-70188922D01*
X116033671Y-70168224D01*
X116076167Y-70164166D01*
X116139667Y-70164166D01*
X116139667Y-69998793D01*
X116138474Y-69913664D01*
X116132734Y-69858704D01*
X116119202Y-69821765D01*
X116094634Y-69790704D01*
X116080300Y-69776543D01*
X116031749Y-69733972D01*
X116004808Y-69724629D01*
X115993440Y-69749684D01*
X115991500Y-69793750D01*
X115987931Y-69843541D01*
X115970009Y-69863962D01*
X115928927Y-69867833D01*
X115866354Y-69867833D01*
X115860135Y-69714375D01*
X115853917Y-69560916D01*
X115605208Y-69554953D01*
X115356500Y-69548989D01*
X115356500Y-69486161D01*
X115356500Y-69423333D01*
X115610500Y-69423333D01*
X115864500Y-69423333D01*
X115864500Y-69275166D01*
X115864500Y-69127000D01*
X115928000Y-69127000D01*
X115968717Y-69130343D01*
X115986817Y-69148461D01*
X115991400Y-69193486D01*
X115991500Y-69211666D01*
X115995974Y-69272136D01*
X116012124Y-69292759D01*
X116044036Y-69275337D01*
X116072477Y-69247344D01*
X116094154Y-69219640D01*
X116107784Y-69185889D01*
X116115169Y-69136139D01*
X116118114Y-69060438D01*
X116118500Y-68993344D01*
X116118500Y-68788333D01*
X116055000Y-68788333D01*
X115991500Y-68788333D01*
X115991500Y-68449666D01*
X115991500Y-68111000D01*
X116052644Y-68111000D01*
X116094896Y-68105317D01*
X116116657Y-68080006D01*
X116127968Y-68035414D01*
X116133930Y-67979692D01*
X116137556Y-67896535D01*
X116138305Y-67800801D01*
X116137755Y-67765539D01*
X116133361Y-67571250D01*
X116200014Y-67564617D01*
X116266667Y-67557984D01*
X116266667Y-67834492D01*
X116266667Y-68111000D01*
X116330167Y-68111000D01*
X116393667Y-68111000D01*
X116393667Y-68448325D01*
X116393667Y-68785651D01*
X116324875Y-68792283D01*
X116281314Y-68799924D01*
X116266667Y-68813912D01*
X116266667Y-68661333D01*
X116266667Y-68449666D01*
X116266667Y-68238000D01*
X116203167Y-68238000D01*
X116139667Y-68238000D01*
X116139667Y-68449666D01*
X116139667Y-68661333D01*
X116203167Y-68661333D01*
X116266667Y-68661333D01*
X116266667Y-68813912D01*
X116260145Y-68820141D01*
X116251438Y-68865668D01*
X116249574Y-68888875D01*
X116243066Y-68978833D01*
X116572366Y-68978833D01*
X116901667Y-68978833D01*
X116901667Y-68894166D01*
X116901667Y-68809500D01*
X117225181Y-68809500D01*
X117548696Y-68809500D01*
X117659127Y-68921319D01*
X117769557Y-69033139D01*
X117769557Y-69033139D01*
X117769557Y-69033139D01*
G37*
X117769557Y-69033139D02*
X117657738Y-69143569D01*
X117598919Y-69200155D01*
X117556043Y-69233104D01*
X117553823Y-69233957D01*
X117553823Y-69041556D01*
X117546768Y-69008407D01*
X117544525Y-69004722D01*
X117527511Y-68988158D01*
X117496016Y-68976772D01*
X117442402Y-68969312D01*
X117359034Y-68964525D01*
X117285701Y-68962265D01*
X117049833Y-68956280D01*
X117049833Y-69031056D01*
X117049833Y-69105833D01*
X117266792Y-69105160D01*
X117380282Y-69102689D01*
X117458339Y-69095547D01*
X117507687Y-69082893D01*
X117525616Y-69072840D01*
X117553823Y-69041556D01*
X117553823Y-69233957D01*
X117515210Y-69248805D01*
X117462522Y-69253647D01*
X117417544Y-69254000D01*
X117334591Y-69252384D01*
X117229123Y-69248096D01*
X117120814Y-69241977D01*
X117095418Y-69240247D01*
X116901667Y-69226494D01*
X116901667Y-69165612D01*
X116901667Y-69104730D01*
X116578875Y-69110573D01*
X116256083Y-69116416D01*
X116255366Y-69185263D01*
X116248679Y-69227565D01*
X116225610Y-69271928D01*
X116180260Y-69327492D01*
X116129029Y-69381054D01*
X116003408Y-69508000D01*
X116127904Y-69633808D01*
X116186034Y-69694106D01*
X116224473Y-69742462D01*
X116247421Y-69790394D01*
X116259080Y-69849418D01*
X116263652Y-69931052D01*
X116264903Y-70009367D01*
X116266667Y-70161484D01*
X116335458Y-70168117D01*
X116383131Y-70177662D01*
X116401629Y-70202366D01*
X116404250Y-70238250D01*
X116404250Y-70301750D01*
X116208458Y-70307835D01*
X116012667Y-70313921D01*
X116012667Y-70239044D01*
X116016111Y-70188922D01*
X116033671Y-70168224D01*
X116076167Y-70164166D01*
X116139667Y-70164166D01*
X116139667Y-69998793D01*
X116138474Y-69913664D01*
X116132734Y-69858704D01*
X116119202Y-69821765D01*
X116094634Y-69790704D01*
X116080300Y-69776543D01*
X116031749Y-69733972D01*
X116004808Y-69724629D01*
X115993440Y-69749684D01*
X115991500Y-69793750D01*
X115987931Y-69843541D01*
X115970009Y-69863962D01*
X115928927Y-69867833D01*
X115866354Y-69867833D01*
X115860135Y-69714375D01*
X115853917Y-69560916D01*
X115605208Y-69554953D01*
X115356500Y-69548989D01*
X115356500Y-69486161D01*
X115356500Y-69423333D01*
X115610500Y-69423333D01*
X115864500Y-69423333D01*
X115864500Y-69275166D01*
X115864500Y-69127000D01*
X115928000Y-69127000D01*
X115968717Y-69130343D01*
X115986817Y-69148461D01*
X115991400Y-69193486D01*
X115991500Y-69211666D01*
X115995974Y-69272136D01*
X116012124Y-69292759D01*
X116044036Y-69275337D01*
X116072477Y-69247344D01*
X116094154Y-69219640D01*
X116107784Y-69185889D01*
X116115169Y-69136139D01*
X116118114Y-69060438D01*
X116118500Y-68993344D01*
X116118500Y-68788333D01*
X116055000Y-68788333D01*
X115991500Y-68788333D01*
X115991500Y-68449666D01*
X115991500Y-68111000D01*
X116052644Y-68111000D01*
X116094896Y-68105317D01*
X116116657Y-68080006D01*
X116127968Y-68035414D01*
X116133930Y-67979692D01*
X116137556Y-67896535D01*
X116138305Y-67800801D01*
X116137755Y-67765539D01*
X116133361Y-67571250D01*
X116200014Y-67564617D01*
X116266667Y-67557984D01*
X116266667Y-67834492D01*
X116266667Y-68111000D01*
X116330167Y-68111000D01*
X116393667Y-68111000D01*
X116393667Y-68448325D01*
X116393667Y-68785651D01*
X116324875Y-68792283D01*
X116281314Y-68799924D01*
X116266667Y-68813912D01*
X116266667Y-68661333D01*
X116266667Y-68449666D01*
X116266667Y-68238000D01*
X116203167Y-68238000D01*
X116139667Y-68238000D01*
X116139667Y-68449666D01*
X116139667Y-68661333D01*
X116203167Y-68661333D01*
X116266667Y-68661333D01*
X116266667Y-68813912D01*
X116260145Y-68820141D01*
X116251438Y-68865668D01*
X116249574Y-68888875D01*
X116243066Y-68978833D01*
X116572366Y-68978833D01*
X116901667Y-68978833D01*
X116901667Y-68894166D01*
X116901667Y-68809500D01*
X117225181Y-68809500D01*
X117548696Y-68809500D01*
X117659127Y-68921319D01*
X117769557Y-69033139D01*
X117769557Y-69033139D01*
G36*
X117727167Y-70312333D02*
X117600167Y-70312333D01*
X117473167Y-70312333D01*
X117473167Y-70238250D01*
X117473167Y-70164166D01*
X117600167Y-70164166D01*
X117727167Y-70164166D01*
X117727167Y-70238250D01*
X117727167Y-70312333D01*
X117727167Y-70312333D01*
X117727167Y-70312333D01*
G37*
X117727167Y-70312333D02*
X117600167Y-70312333D01*
X117473167Y-70312333D01*
X117473167Y-70238250D01*
X117473167Y-70164166D01*
X117600167Y-70164166D01*
X117727167Y-70164166D01*
X117727167Y-70238250D01*
X117727167Y-70312333D01*
X117727167Y-70312333D01*
G36*
X117198000Y-70238250D02*
X117195587Y-70266695D01*
X117181974Y-70282539D01*
X117147595Y-70289460D01*
X117082887Y-70291136D01*
X117060417Y-70291166D01*
X116986458Y-70290238D01*
X116945263Y-70285002D01*
X116927270Y-70271780D01*
X116922913Y-70246892D01*
X116922833Y-70238250D01*
X116925246Y-70209804D01*
X116938859Y-70193960D01*
X116973238Y-70187039D01*
X117037946Y-70185363D01*
X117060417Y-70185333D01*
X117134375Y-70186261D01*
X117175570Y-70191497D01*
X117193563Y-70204719D01*
X117197920Y-70229607D01*
X117198000Y-70238250D01*
X117198000Y-70238250D01*
X117198000Y-70238250D01*
G37*
X117198000Y-70238250D02*
X117195587Y-70266695D01*
X117181974Y-70282539D01*
X117147595Y-70289460D01*
X117082887Y-70291136D01*
X117060417Y-70291166D01*
X116986458Y-70290238D01*
X116945263Y-70285002D01*
X116927270Y-70271780D01*
X116922913Y-70246892D01*
X116922833Y-70238250D01*
X116925246Y-70209804D01*
X116938859Y-70193960D01*
X116973238Y-70187039D01*
X117037946Y-70185363D01*
X117060417Y-70185333D01*
X117134375Y-70186261D01*
X117175570Y-70191497D01*
X117193563Y-70204719D01*
X117197920Y-70229607D01*
X117198000Y-70238250D01*
X117198000Y-70238250D01*
G36*
X117198000Y-69941916D02*
X117195311Y-69971243D01*
X117180617Y-69987077D01*
X117143977Y-69993559D01*
X117075451Y-69994832D01*
X117071000Y-69994833D01*
X117000615Y-69993712D01*
X116962614Y-69987590D01*
X116947057Y-69972323D01*
X116944003Y-69943771D01*
X116944000Y-69941916D01*
X116946689Y-69912589D01*
X116961383Y-69896755D01*
X116998023Y-69890273D01*
X117066548Y-69889001D01*
X117071000Y-69889000D01*
X117141385Y-69890120D01*
X117179386Y-69896242D01*
X117194943Y-69911509D01*
X117197997Y-69940061D01*
X117198000Y-69941916D01*
X117198000Y-69941916D01*
X117198000Y-69941916D01*
G37*
X117198000Y-69941916D02*
X117195311Y-69971243D01*
X117180617Y-69987077D01*
X117143977Y-69993559D01*
X117075451Y-69994832D01*
X117071000Y-69994833D01*
X117000615Y-69993712D01*
X116962614Y-69987590D01*
X116947057Y-69972323D01*
X116944003Y-69943771D01*
X116944000Y-69941916D01*
X116946689Y-69912589D01*
X116961383Y-69896755D01*
X116998023Y-69890273D01*
X117066548Y-69889001D01*
X117071000Y-69889000D01*
X117141385Y-69890120D01*
X117179386Y-69896242D01*
X117194943Y-69911509D01*
X117197997Y-69940061D01*
X117198000Y-69941916D01*
X117198000Y-69941916D01*
G36*
X117724609Y-69969684D02*
X117715411Y-69983676D01*
X117687942Y-69991192D01*
X117634393Y-69994242D01*
X117546955Y-69994832D01*
X117538139Y-69994833D01*
X117447543Y-69994438D01*
X117391165Y-69991738D01*
X117360889Y-69984462D01*
X117348599Y-69970337D01*
X117346180Y-69947092D01*
X117346167Y-69941092D01*
X117346167Y-69887351D01*
X117531375Y-69893467D01*
X117620448Y-69897141D01*
X117675728Y-69902570D01*
X117705749Y-69912143D01*
X117719047Y-69928250D01*
X117723347Y-69947208D01*
X117724609Y-69969684D01*
X117724609Y-69969684D01*
X117724609Y-69969684D01*
G37*
X117724609Y-69969684D02*
X117715411Y-69983676D01*
X117687942Y-69991192D01*
X117634393Y-69994242D01*
X117546955Y-69994832D01*
X117538139Y-69994833D01*
X117447543Y-69994438D01*
X117391165Y-69991738D01*
X117360889Y-69984462D01*
X117348599Y-69970337D01*
X117346180Y-69947092D01*
X117346167Y-69941092D01*
X117346167Y-69887351D01*
X117531375Y-69893467D01*
X117620448Y-69897141D01*
X117675728Y-69902570D01*
X117705749Y-69912143D01*
X117719047Y-69928250D01*
X117723347Y-69947208D01*
X117724609Y-69969684D01*
X117724609Y-69969684D01*
D14*
X126220000Y-65420000D02*
X126220000Y-68080000D01*
X138980000Y-65420000D02*
X126220000Y-65420000D01*
X138980000Y-68080000D02*
X126220000Y-68080000D01*
X138980000Y-65420000D02*
X138980000Y-68080000D01*
X140250000Y-65420000D02*
X141580000Y-65420000D01*
X141580000Y-65420000D02*
X141580000Y-66750000D01*
X117500000Y-73250000D02*
X116500000Y-73250000D01*
X116500000Y-74950000D02*
X117500000Y-74950000D01*
X123500000Y-95150000D02*
X122500000Y-95150000D01*
X122500000Y-96850000D02*
X123500000Y-96850000D01*
X138100000Y-73880000D02*
X136900000Y-73880000D01*
X136900000Y-72120000D02*
X138100000Y-72120000D01*
X120400000Y-85420000D02*
X121600000Y-85420000D01*
X121600000Y-87180000D02*
X120400000Y-87180000D01*
X123910000Y-81290000D02*
X123910000Y-80090000D01*
X125670000Y-80090000D02*
X125670000Y-81290000D01*
X125100000Y-77880000D02*
X123900000Y-77880000D01*
X123900000Y-76120000D02*
X125100000Y-76120000D01*
X125100000Y-75380000D02*
X123900000Y-75380000D01*
X123900000Y-73620000D02*
X125100000Y-73620000D01*
X125100000Y-72880000D02*
X123900000Y-72880000D01*
X123900000Y-71120000D02*
X125100000Y-71120000D01*
X136941000Y-69859000D02*
X138141000Y-69859000D01*
X138141000Y-71619000D02*
X136941000Y-71619000D01*
X126360000Y-81290000D02*
X126360000Y-80090000D01*
X128120000Y-80090000D02*
X128120000Y-81290000D01*
X120400000Y-83320000D02*
X121600000Y-83320000D01*
X121600000Y-85080000D02*
X120400000Y-85080000D01*
X117459000Y-94542000D02*
X115459000Y-94542000D01*
X115459000Y-92402000D02*
X117459000Y-92402000D01*
X124500000Y-94570000D02*
X122500000Y-94570000D01*
X122500000Y-92430000D02*
X124500000Y-92430000D01*
X123409000Y-91177000D02*
X122209000Y-91177000D01*
X122209000Y-89417000D02*
X123409000Y-89417000D01*
X138392000Y-101168000D02*
X139992000Y-101168000D01*
X139992000Y-101168000D02*
X139992000Y-98568000D01*
X138392000Y-101168000D02*
X138392000Y-98568000D01*
X143726000Y-101168000D02*
X145326000Y-101168000D01*
X145326000Y-101168000D02*
X145326000Y-98568000D01*
X143726000Y-101168000D02*
X143726000Y-98568000D01*
X140598000Y-99533000D02*
X140598000Y-98333000D01*
X142358000Y-98333000D02*
X142358000Y-99533000D01*
X146567000Y-99660000D02*
X146567000Y-98460000D01*
X148327000Y-98460000D02*
X148327000Y-99660000D01*
D11*
X138777428Y-76716262D02*
X138777428Y-76081262D01*
X138777428Y-76383643D02*
X139140286Y-76383643D01*
X139140286Y-76716262D02*
X139140286Y-76081262D01*
X139775286Y-76716262D02*
X139412428Y-76716262D01*
X139593857Y-76716262D02*
X139593857Y-76081262D01*
X139533381Y-76171976D01*
X139472905Y-76232452D01*
X139412428Y-76262690D01*
X140168381Y-76081262D02*
X140228857Y-76081262D01*
X140289333Y-76111500D01*
X140319571Y-76141738D01*
X140349809Y-76202214D01*
X140380048Y-76323167D01*
X140380048Y-76474357D01*
X140349809Y-76595310D01*
X140319571Y-76655786D01*
X140289333Y-76686024D01*
X140228857Y-76716262D01*
X140168381Y-76716262D01*
X140107905Y-76686024D01*
X140077667Y-76655786D01*
X140047428Y-76595310D01*
X140017190Y-76474357D01*
X140017190Y-76323167D01*
X140047428Y-76202214D01*
X140077667Y-76141738D01*
X140107905Y-76111500D01*
X140168381Y-76081262D01*
X140621952Y-76141738D02*
X140652190Y-76111500D01*
X140712667Y-76081262D01*
X140863857Y-76081262D01*
X140924333Y-76111500D01*
X140954571Y-76141738D01*
X140984810Y-76202214D01*
X140984810Y-76262690D01*
X140954571Y-76353405D01*
X140591714Y-76716262D01*
X140984810Y-76716262D01*
X144520859Y-83876848D02*
X145896692Y-86416848D01*
X146214192Y-83876848D02*
X144203359Y-86416848D01*
X147877289Y-85086371D02*
X148225027Y-85207324D01*
X148330860Y-85328276D01*
X148421573Y-85570181D01*
X148376216Y-85933038D01*
X148225026Y-86174943D01*
X148088955Y-86295895D01*
X147831931Y-86416848D01*
X146864312Y-86416848D01*
X147181812Y-83876848D01*
X148028479Y-83876848D01*
X148255264Y-83997800D01*
X148361098Y-84118752D01*
X148451812Y-84360657D01*
X148421574Y-84602562D01*
X148270384Y-84844467D01*
X148134312Y-84965419D01*
X147877289Y-85086371D01*
X147030622Y-85086371D01*
X150387050Y-86295895D02*
X150130026Y-86416848D01*
X149646217Y-86416848D01*
X149419431Y-86295895D01*
X149328717Y-86053990D01*
X149449670Y-85086371D01*
X149600860Y-84844467D01*
X149857884Y-84723514D01*
X150341693Y-84723514D01*
X150568479Y-84844467D01*
X150659193Y-85086371D01*
X150628955Y-85328276D01*
X149389193Y-85570181D01*
X152564193Y-86295895D02*
X152307169Y-86416848D01*
X151823360Y-86416848D01*
X151596574Y-86295895D01*
X151505860Y-86053990D01*
X151626813Y-85086371D01*
X151778003Y-84844467D01*
X152035027Y-84723514D01*
X152518836Y-84723514D01*
X152745622Y-84844467D01*
X152836336Y-85086371D01*
X152806098Y-85328276D01*
X151566336Y-85570181D01*
X113652262Y-86921191D02*
X113652262Y-86558334D01*
X114287262Y-86739762D02*
X113652262Y-86739762D01*
X114287262Y-86346667D02*
X113652262Y-86346667D01*
X113954643Y-86346667D02*
X113954643Y-85983809D01*
X114287262Y-85983809D02*
X113652262Y-85983809D01*
X113712738Y-85711667D02*
X113682500Y-85681429D01*
X113652262Y-85620952D01*
X113652262Y-85469762D01*
X113682500Y-85409286D01*
X113712738Y-85379048D01*
X113773214Y-85348809D01*
X113833690Y-85348809D01*
X113924405Y-85379048D01*
X114287262Y-85741905D01*
X114287262Y-85348809D01*
X113652262Y-84955714D02*
X113652262Y-84895238D01*
X113682500Y-84834762D01*
X113712738Y-84804524D01*
X113773214Y-84774286D01*
X113894167Y-84744047D01*
X114045357Y-84744047D01*
X114166310Y-84774286D01*
X114226786Y-84804524D01*
X114257024Y-84834762D01*
X114287262Y-84895238D01*
X114287262Y-84955714D01*
X114257024Y-85016190D01*
X114226786Y-85046428D01*
X114166310Y-85076667D01*
X114045357Y-85106905D01*
X113894167Y-85106905D01*
X113773214Y-85076667D01*
X113712738Y-85046428D01*
X113682500Y-85016190D01*
X113652262Y-84955714D01*
X114287262Y-84139285D02*
X114287262Y-84502143D01*
X114287262Y-84320714D02*
X113652262Y-84320714D01*
X113742976Y-84381190D01*
X113803452Y-84441666D01*
X113833690Y-84502143D01*
X113754262Y-80209572D02*
X114268310Y-80209572D01*
X114328786Y-80179333D01*
X114359024Y-80149095D01*
X114389262Y-80088619D01*
X114389262Y-79967667D01*
X114359024Y-79907191D01*
X114328786Y-79876952D01*
X114268310Y-79846714D01*
X113754262Y-79846714D01*
X114389262Y-79211714D02*
X114389262Y-79574572D01*
X114389262Y-79393143D02*
X113754262Y-79393143D01*
X113844976Y-79453619D01*
X113905452Y-79514095D01*
X113935690Y-79574572D01*
X113754262Y-78818619D02*
X113754262Y-78758143D01*
X113784500Y-78697667D01*
X113814738Y-78667429D01*
X113875214Y-78637191D01*
X113996167Y-78606952D01*
X114147357Y-78606952D01*
X114268310Y-78637191D01*
X114328786Y-78667429D01*
X114359024Y-78697667D01*
X114389262Y-78758143D01*
X114389262Y-78818619D01*
X114359024Y-78879095D01*
X114328786Y-78909333D01*
X114268310Y-78939572D01*
X114147357Y-78969810D01*
X113996167Y-78969810D01*
X113875214Y-78939572D01*
X113814738Y-78909333D01*
X113784500Y-78879095D01*
X113754262Y-78818619D01*
X114389262Y-78002190D02*
X114389262Y-78365048D01*
X114389262Y-78183619D02*
X113754262Y-78183619D01*
X113844976Y-78244095D01*
X113905452Y-78304571D01*
X113935690Y-78365048D01*
X114946262Y-89084453D02*
X114311262Y-89084453D01*
X114311262Y-88933262D01*
X114341500Y-88842548D01*
X114401976Y-88782072D01*
X114462452Y-88751833D01*
X114583405Y-88721595D01*
X114674119Y-88721595D01*
X114795071Y-88751833D01*
X114855548Y-88782072D01*
X114916024Y-88842548D01*
X114946262Y-88933262D01*
X114946262Y-89084453D01*
X114371738Y-88479691D02*
X114341500Y-88449453D01*
X114311262Y-88388976D01*
X114311262Y-88237786D01*
X114341500Y-88177310D01*
X114371738Y-88147072D01*
X114432214Y-88116833D01*
X114492690Y-88116833D01*
X114583405Y-88147072D01*
X114946262Y-88509929D01*
X114946262Y-88116833D01*
X114311262Y-87723738D02*
X114311262Y-87663262D01*
X114341500Y-87602786D01*
X114371738Y-87572548D01*
X114432214Y-87542310D01*
X114553167Y-87512071D01*
X114704357Y-87512071D01*
X114825310Y-87542310D01*
X114885786Y-87572548D01*
X114916024Y-87602786D01*
X114946262Y-87663262D01*
X114946262Y-87723738D01*
X114916024Y-87784214D01*
X114885786Y-87814452D01*
X114825310Y-87844691D01*
X114704357Y-87874929D01*
X114553167Y-87874929D01*
X114432214Y-87844691D01*
X114371738Y-87814452D01*
X114341500Y-87784214D01*
X114311262Y-87723738D01*
X114946262Y-86907309D02*
X114946262Y-87270167D01*
X114946262Y-87088738D02*
X114311262Y-87088738D01*
X114401976Y-87149214D01*
X114462452Y-87209690D01*
X114492690Y-87270167D01*
X122666547Y-67291262D02*
X122666547Y-66656262D01*
X122908452Y-66656262D01*
X122968928Y-66686500D01*
X122999167Y-66716738D01*
X123029405Y-66777214D01*
X123029405Y-66867929D01*
X122999167Y-66928405D01*
X122968928Y-66958643D01*
X122908452Y-66988881D01*
X122666547Y-66988881D01*
X123241071Y-66656262D02*
X123634167Y-66656262D01*
X123422500Y-66898167D01*
X123513214Y-66898167D01*
X123573690Y-66928405D01*
X123603928Y-66958643D01*
X123634167Y-67019119D01*
X123634167Y-67170310D01*
X123603928Y-67230786D01*
X123573690Y-67261024D01*
X123513214Y-67291262D01*
X123331786Y-67291262D01*
X123271309Y-67261024D01*
X123241071Y-67230786D01*
X124027262Y-66656262D02*
X124087738Y-66656262D01*
X124148214Y-66686500D01*
X124178452Y-66716738D01*
X124208690Y-66777214D01*
X124238929Y-66898167D01*
X124238929Y-67049357D01*
X124208690Y-67170310D01*
X124178452Y-67230786D01*
X124148214Y-67261024D01*
X124087738Y-67291262D01*
X124027262Y-67291262D01*
X123966786Y-67261024D01*
X123936548Y-67230786D01*
X123906309Y-67170310D01*
X123876071Y-67049357D01*
X123876071Y-66898167D01*
X123906309Y-66777214D01*
X123936548Y-66716738D01*
X123966786Y-66686500D01*
X124027262Y-66656262D01*
X124843691Y-67291262D02*
X124480833Y-67291262D01*
X124662262Y-67291262D02*
X124662262Y-66656262D01*
X124601786Y-66746976D01*
X124541310Y-66807452D01*
X124480833Y-66837690D01*
X116289405Y-72576786D02*
X116259167Y-72607024D01*
X116168452Y-72637262D01*
X116107976Y-72637262D01*
X116017262Y-72607024D01*
X115956786Y-72546548D01*
X115926547Y-72486071D01*
X115896309Y-72365119D01*
X115896309Y-72274405D01*
X115926547Y-72153452D01*
X115956786Y-72092976D01*
X116017262Y-72032500D01*
X116107976Y-72002262D01*
X116168452Y-72002262D01*
X116259167Y-72032500D01*
X116289405Y-72062738D01*
X116894167Y-72637262D02*
X116531309Y-72637262D01*
X116712738Y-72637262D02*
X116712738Y-72002262D01*
X116652262Y-72092976D01*
X116591786Y-72153452D01*
X116531309Y-72183690D01*
X117287262Y-72002262D02*
X117347738Y-72002262D01*
X117408214Y-72032500D01*
X117438452Y-72062738D01*
X117468690Y-72123214D01*
X117498929Y-72244167D01*
X117498929Y-72395357D01*
X117468690Y-72516310D01*
X117438452Y-72576786D01*
X117408214Y-72607024D01*
X117347738Y-72637262D01*
X117287262Y-72637262D01*
X117226786Y-72607024D01*
X117196548Y-72576786D01*
X117166309Y-72516310D01*
X117136071Y-72395357D01*
X117136071Y-72244167D01*
X117166309Y-72123214D01*
X117196548Y-72062738D01*
X117226786Y-72032500D01*
X117287262Y-72002262D01*
X118103691Y-72637262D02*
X117740833Y-72637262D01*
X117922262Y-72637262D02*
X117922262Y-72002262D01*
X117861786Y-72092976D01*
X117801310Y-72153452D01*
X117740833Y-72183690D01*
X122479405Y-97762786D02*
X122449167Y-97793024D01*
X122358452Y-97823262D01*
X122297976Y-97823262D01*
X122207262Y-97793024D01*
X122146786Y-97732548D01*
X122116547Y-97672071D01*
X122086309Y-97551119D01*
X122086309Y-97460405D01*
X122116547Y-97339452D01*
X122146786Y-97278976D01*
X122207262Y-97218500D01*
X122297976Y-97188262D01*
X122358452Y-97188262D01*
X122449167Y-97218500D01*
X122479405Y-97248738D01*
X122721309Y-97248738D02*
X122751547Y-97218500D01*
X122812024Y-97188262D01*
X122963214Y-97188262D01*
X123023690Y-97218500D01*
X123053928Y-97248738D01*
X123084167Y-97309214D01*
X123084167Y-97369690D01*
X123053928Y-97460405D01*
X122691071Y-97823262D01*
X123084167Y-97823262D01*
X123477262Y-97188262D02*
X123537738Y-97188262D01*
X123598214Y-97218500D01*
X123628452Y-97248738D01*
X123658690Y-97309214D01*
X123688929Y-97430167D01*
X123688929Y-97581357D01*
X123658690Y-97702310D01*
X123628452Y-97762786D01*
X123598214Y-97793024D01*
X123537738Y-97823262D01*
X123477262Y-97823262D01*
X123416786Y-97793024D01*
X123386548Y-97762786D01*
X123356309Y-97702310D01*
X123326071Y-97581357D01*
X123326071Y-97430167D01*
X123356309Y-97309214D01*
X123386548Y-97248738D01*
X123416786Y-97218500D01*
X123477262Y-97188262D01*
X124293691Y-97823262D02*
X123930833Y-97823262D01*
X124112262Y-97823262D02*
X124112262Y-97188262D01*
X124051786Y-97278976D01*
X123991310Y-97339452D01*
X123930833Y-97369690D01*
X140386405Y-73312262D02*
X140174738Y-73009881D01*
X140023547Y-73312262D02*
X140023547Y-72677262D01*
X140265452Y-72677262D01*
X140325928Y-72707500D01*
X140356167Y-72737738D01*
X140386405Y-72798214D01*
X140386405Y-72888929D01*
X140356167Y-72949405D01*
X140325928Y-72979643D01*
X140265452Y-73009881D01*
X140023547Y-73009881D01*
X140991167Y-73312262D02*
X140628309Y-73312262D01*
X140809738Y-73312262D02*
X140809738Y-72677262D01*
X140749262Y-72767976D01*
X140688786Y-72828452D01*
X140628309Y-72858690D01*
X141384262Y-72677262D02*
X141444738Y-72677262D01*
X141505214Y-72707500D01*
X141535452Y-72737738D01*
X141565690Y-72798214D01*
X141595929Y-72919167D01*
X141595929Y-73070357D01*
X141565690Y-73191310D01*
X141535452Y-73251786D01*
X141505214Y-73282024D01*
X141444738Y-73312262D01*
X141384262Y-73312262D01*
X141323786Y-73282024D01*
X141293548Y-73251786D01*
X141263309Y-73191310D01*
X141233071Y-73070357D01*
X141233071Y-72919167D01*
X141263309Y-72798214D01*
X141293548Y-72737738D01*
X141323786Y-72707500D01*
X141384262Y-72677262D01*
X142200691Y-73312262D02*
X141837833Y-73312262D01*
X142019262Y-73312262D02*
X142019262Y-72677262D01*
X141958786Y-72767976D01*
X141898310Y-72828452D01*
X141837833Y-72858690D01*
X120232405Y-88019262D02*
X120020738Y-87716881D01*
X119869547Y-88019262D02*
X119869547Y-87384262D01*
X120111452Y-87384262D01*
X120171928Y-87414500D01*
X120202167Y-87444738D01*
X120232405Y-87505214D01*
X120232405Y-87595929D01*
X120202167Y-87656405D01*
X120171928Y-87686643D01*
X120111452Y-87716881D01*
X119869547Y-87716881D01*
X120837167Y-88019262D02*
X120474309Y-88019262D01*
X120655738Y-88019262D02*
X120655738Y-87384262D01*
X120595262Y-87474976D01*
X120534786Y-87535452D01*
X120474309Y-87565690D01*
X121230262Y-87384262D02*
X121290738Y-87384262D01*
X121351214Y-87414500D01*
X121381452Y-87444738D01*
X121411690Y-87505214D01*
X121441929Y-87626167D01*
X121441929Y-87777357D01*
X121411690Y-87898310D01*
X121381452Y-87958786D01*
X121351214Y-87989024D01*
X121290738Y-88019262D01*
X121230262Y-88019262D01*
X121169786Y-87989024D01*
X121139548Y-87958786D01*
X121109309Y-87898310D01*
X121079071Y-87777357D01*
X121079071Y-87626167D01*
X121109309Y-87505214D01*
X121139548Y-87444738D01*
X121169786Y-87414500D01*
X121230262Y-87384262D01*
X121683833Y-87444738D02*
X121714071Y-87414500D01*
X121774548Y-87384262D01*
X121925738Y-87384262D01*
X121986214Y-87414500D01*
X122016452Y-87444738D01*
X122046691Y-87505214D01*
X122046691Y-87565690D01*
X122016452Y-87656405D01*
X121653595Y-88019262D01*
X122046691Y-88019262D01*
X123604262Y-81101595D02*
X123301881Y-81313262D01*
X123604262Y-81464453D02*
X122969262Y-81464453D01*
X122969262Y-81222548D01*
X122999500Y-81162072D01*
X123029738Y-81131833D01*
X123090214Y-81101595D01*
X123180929Y-81101595D01*
X123241405Y-81131833D01*
X123271643Y-81162072D01*
X123301881Y-81222548D01*
X123301881Y-81464453D01*
X123604262Y-80496833D02*
X123604262Y-80859691D01*
X123604262Y-80678262D02*
X122969262Y-80678262D01*
X123059976Y-80738738D01*
X123120452Y-80799214D01*
X123150690Y-80859691D01*
X122969262Y-80103738D02*
X122969262Y-80043262D01*
X122999500Y-79982786D01*
X123029738Y-79952548D01*
X123090214Y-79922310D01*
X123211167Y-79892071D01*
X123362357Y-79892071D01*
X123483310Y-79922310D01*
X123543786Y-79952548D01*
X123574024Y-79982786D01*
X123604262Y-80043262D01*
X123604262Y-80103738D01*
X123574024Y-80164214D01*
X123543786Y-80194452D01*
X123483310Y-80224691D01*
X123362357Y-80254929D01*
X123211167Y-80254929D01*
X123090214Y-80224691D01*
X123029738Y-80194452D01*
X122999500Y-80164214D01*
X122969262Y-80103738D01*
X122969262Y-79680405D02*
X122969262Y-79287309D01*
X123211167Y-79498976D01*
X123211167Y-79408262D01*
X123241405Y-79347786D01*
X123271643Y-79317548D01*
X123332119Y-79287309D01*
X123483310Y-79287309D01*
X123543786Y-79317548D01*
X123574024Y-79347786D01*
X123604262Y-79408262D01*
X123604262Y-79589690D01*
X123574024Y-79650167D01*
X123543786Y-79680405D01*
X121699262Y-77672595D02*
X121396881Y-77884262D01*
X121699262Y-78035453D02*
X121064262Y-78035453D01*
X121064262Y-77793548D01*
X121094500Y-77733072D01*
X121124738Y-77702833D01*
X121185214Y-77672595D01*
X121275929Y-77672595D01*
X121336405Y-77702833D01*
X121366643Y-77733072D01*
X121396881Y-77793548D01*
X121396881Y-78035453D01*
X121699262Y-77067833D02*
X121699262Y-77430691D01*
X121699262Y-77249262D02*
X121064262Y-77249262D01*
X121154976Y-77309738D01*
X121215452Y-77370214D01*
X121245690Y-77430691D01*
X121064262Y-76674738D02*
X121064262Y-76614262D01*
X121094500Y-76553786D01*
X121124738Y-76523548D01*
X121185214Y-76493310D01*
X121306167Y-76463071D01*
X121457357Y-76463071D01*
X121578310Y-76493310D01*
X121638786Y-76523548D01*
X121669024Y-76553786D01*
X121699262Y-76614262D01*
X121699262Y-76674738D01*
X121669024Y-76735214D01*
X121638786Y-76765452D01*
X121578310Y-76795691D01*
X121457357Y-76825929D01*
X121306167Y-76825929D01*
X121185214Y-76795691D01*
X121124738Y-76765452D01*
X121094500Y-76735214D01*
X121064262Y-76674738D01*
X121275929Y-75918786D02*
X121699262Y-75918786D01*
X121034024Y-76069976D02*
X121487595Y-76221167D01*
X121487595Y-75828071D01*
X120193405Y-74836262D02*
X119981738Y-74533881D01*
X119830547Y-74836262D02*
X119830547Y-74201262D01*
X120072452Y-74201262D01*
X120132928Y-74231500D01*
X120163167Y-74261738D01*
X120193405Y-74322214D01*
X120193405Y-74412929D01*
X120163167Y-74473405D01*
X120132928Y-74503643D01*
X120072452Y-74533881D01*
X119830547Y-74533881D01*
X120798167Y-74836262D02*
X120435309Y-74836262D01*
X120616738Y-74836262D02*
X120616738Y-74201262D01*
X120556262Y-74291976D01*
X120495786Y-74352452D01*
X120435309Y-74382690D01*
X121191262Y-74201262D02*
X121251738Y-74201262D01*
X121312214Y-74231500D01*
X121342452Y-74261738D01*
X121372690Y-74322214D01*
X121402929Y-74443167D01*
X121402929Y-74594357D01*
X121372690Y-74715310D01*
X121342452Y-74775786D01*
X121312214Y-74806024D01*
X121251738Y-74836262D01*
X121191262Y-74836262D01*
X121130786Y-74806024D01*
X121100548Y-74775786D01*
X121070309Y-74715310D01*
X121040071Y-74594357D01*
X121040071Y-74443167D01*
X121070309Y-74322214D01*
X121100548Y-74261738D01*
X121130786Y-74231500D01*
X121191262Y-74201262D01*
X121977452Y-74201262D02*
X121675071Y-74201262D01*
X121644833Y-74503643D01*
X121675071Y-74473405D01*
X121735548Y-74443167D01*
X121886738Y-74443167D01*
X121947214Y-74473405D01*
X121977452Y-74503643D01*
X122007691Y-74564119D01*
X122007691Y-74715310D01*
X121977452Y-74775786D01*
X121947214Y-74806024D01*
X121886738Y-74836262D01*
X121735548Y-74836262D01*
X121675071Y-74806024D01*
X121644833Y-74775786D01*
X120193405Y-72296262D02*
X119981738Y-71993881D01*
X119830547Y-72296262D02*
X119830547Y-71661262D01*
X120072452Y-71661262D01*
X120132928Y-71691500D01*
X120163167Y-71721738D01*
X120193405Y-71782214D01*
X120193405Y-71872929D01*
X120163167Y-71933405D01*
X120132928Y-71963643D01*
X120072452Y-71993881D01*
X119830547Y-71993881D01*
X120798167Y-72296262D02*
X120435309Y-72296262D01*
X120616738Y-72296262D02*
X120616738Y-71661262D01*
X120556262Y-71751976D01*
X120495786Y-71812452D01*
X120435309Y-71842690D01*
X121191262Y-71661262D02*
X121251738Y-71661262D01*
X121312214Y-71691500D01*
X121342452Y-71721738D01*
X121372690Y-71782214D01*
X121402929Y-71903167D01*
X121402929Y-72054357D01*
X121372690Y-72175310D01*
X121342452Y-72235786D01*
X121312214Y-72266024D01*
X121251738Y-72296262D01*
X121191262Y-72296262D01*
X121130786Y-72266024D01*
X121100548Y-72235786D01*
X121070309Y-72175310D01*
X121040071Y-72054357D01*
X121040071Y-71903167D01*
X121070309Y-71782214D01*
X121100548Y-71721738D01*
X121130786Y-71691500D01*
X121191262Y-71661262D01*
X121947214Y-71661262D02*
X121826262Y-71661262D01*
X121765786Y-71691500D01*
X121735548Y-71721738D01*
X121675071Y-71812452D01*
X121644833Y-71933405D01*
X121644833Y-72175310D01*
X121675071Y-72235786D01*
X121705310Y-72266024D01*
X121765786Y-72296262D01*
X121886738Y-72296262D01*
X121947214Y-72266024D01*
X121977452Y-72235786D01*
X122007691Y-72175310D01*
X122007691Y-72024119D01*
X121977452Y-71963643D01*
X121947214Y-71933405D01*
X121886738Y-71903167D01*
X121765786Y-71903167D01*
X121705310Y-71933405D01*
X121675071Y-71963643D01*
X121644833Y-72024119D01*
X140640405Y-71026262D02*
X140428738Y-70723881D01*
X140277547Y-71026262D02*
X140277547Y-70391262D01*
X140519452Y-70391262D01*
X140579928Y-70421500D01*
X140610167Y-70451738D01*
X140640405Y-70512214D01*
X140640405Y-70602929D01*
X140610167Y-70663405D01*
X140579928Y-70693643D01*
X140519452Y-70723881D01*
X140277547Y-70723881D01*
X141245167Y-71026262D02*
X140882309Y-71026262D01*
X141063738Y-71026262D02*
X141063738Y-70391262D01*
X141003262Y-70481976D01*
X140942786Y-70542452D01*
X140882309Y-70572690D01*
X141638262Y-70391262D02*
X141698738Y-70391262D01*
X141759214Y-70421500D01*
X141789452Y-70451738D01*
X141819690Y-70512214D01*
X141849929Y-70633167D01*
X141849929Y-70784357D01*
X141819690Y-70905310D01*
X141789452Y-70965786D01*
X141759214Y-70996024D01*
X141698738Y-71026262D01*
X141638262Y-71026262D01*
X141577786Y-70996024D01*
X141547548Y-70965786D01*
X141517309Y-70905310D01*
X141487071Y-70784357D01*
X141487071Y-70633167D01*
X141517309Y-70512214D01*
X141547548Y-70451738D01*
X141577786Y-70421500D01*
X141638262Y-70391262D01*
X142152310Y-71026262D02*
X142273262Y-71026262D01*
X142333738Y-70996024D01*
X142363976Y-70965786D01*
X142424452Y-70875071D01*
X142454691Y-70754119D01*
X142454691Y-70512214D01*
X142424452Y-70451738D01*
X142394214Y-70421500D01*
X142333738Y-70391262D01*
X142212786Y-70391262D01*
X142152310Y-70421500D01*
X142122071Y-70451738D01*
X142091833Y-70512214D01*
X142091833Y-70663405D01*
X142122071Y-70723881D01*
X142152310Y-70754119D01*
X142212786Y-70784357D01*
X142333738Y-70784357D01*
X142394214Y-70754119D01*
X142424452Y-70723881D01*
X142454691Y-70663405D01*
X129227262Y-81400595D02*
X128924881Y-81612262D01*
X129227262Y-81763453D02*
X128592262Y-81763453D01*
X128592262Y-81521548D01*
X128622500Y-81461072D01*
X128652738Y-81430833D01*
X128713214Y-81400595D01*
X128803929Y-81400595D01*
X128864405Y-81430833D01*
X128894643Y-81461072D01*
X128924881Y-81521548D01*
X128924881Y-81763453D01*
X129227262Y-80795833D02*
X129227262Y-81158691D01*
X129227262Y-80977262D02*
X128592262Y-80977262D01*
X128682976Y-81037738D01*
X128743452Y-81098214D01*
X128773690Y-81158691D01*
X129227262Y-80191071D02*
X129227262Y-80553929D01*
X129227262Y-80372500D02*
X128592262Y-80372500D01*
X128682976Y-80432976D01*
X128743452Y-80493452D01*
X128773690Y-80553929D01*
X128592262Y-79797976D02*
X128592262Y-79737500D01*
X128622500Y-79677024D01*
X128652738Y-79646786D01*
X128713214Y-79616548D01*
X128834167Y-79586309D01*
X128985357Y-79586309D01*
X129106310Y-79616548D01*
X129166786Y-79646786D01*
X129197024Y-79677024D01*
X129227262Y-79737500D01*
X129227262Y-79797976D01*
X129197024Y-79858452D01*
X129166786Y-79888690D01*
X129106310Y-79918929D01*
X128985357Y-79949167D01*
X128834167Y-79949167D01*
X128713214Y-79918929D01*
X128652738Y-79888690D01*
X128622500Y-79858452D01*
X128592262Y-79797976D01*
X120289405Y-86187262D02*
X120077738Y-85884881D01*
X119926547Y-86187262D02*
X119926547Y-85552262D01*
X120168452Y-85552262D01*
X120228928Y-85582500D01*
X120259167Y-85612738D01*
X120289405Y-85673214D01*
X120289405Y-85763929D01*
X120259167Y-85824405D01*
X120228928Y-85854643D01*
X120168452Y-85884881D01*
X119926547Y-85884881D01*
X120894167Y-86187262D02*
X120531309Y-86187262D01*
X120712738Y-86187262D02*
X120712738Y-85552262D01*
X120652262Y-85642976D01*
X120591786Y-85703452D01*
X120531309Y-85733690D01*
X121498929Y-86187262D02*
X121136071Y-86187262D01*
X121317500Y-86187262D02*
X121317500Y-85552262D01*
X121257024Y-85642976D01*
X121196548Y-85703452D01*
X121136071Y-85733690D01*
X122103691Y-86187262D02*
X121740833Y-86187262D01*
X121922262Y-86187262D02*
X121922262Y-85552262D01*
X121861786Y-85642976D01*
X121801310Y-85703452D01*
X121740833Y-85733690D01*
X115748405Y-91909262D02*
X115536738Y-91606881D01*
X115385547Y-91909262D02*
X115385547Y-91274262D01*
X115627452Y-91274262D01*
X115687928Y-91304500D01*
X115718167Y-91334738D01*
X115748405Y-91395214D01*
X115748405Y-91485929D01*
X115718167Y-91546405D01*
X115687928Y-91576643D01*
X115627452Y-91606881D01*
X115385547Y-91606881D01*
X115990309Y-91334738D02*
X116020547Y-91304500D01*
X116081024Y-91274262D01*
X116232214Y-91274262D01*
X116292690Y-91304500D01*
X116322928Y-91334738D01*
X116353167Y-91395214D01*
X116353167Y-91455690D01*
X116322928Y-91546405D01*
X115960071Y-91909262D01*
X116353167Y-91909262D01*
X116746262Y-91274262D02*
X116806738Y-91274262D01*
X116867214Y-91304500D01*
X116897452Y-91334738D01*
X116927690Y-91395214D01*
X116957929Y-91516167D01*
X116957929Y-91667357D01*
X116927690Y-91788310D01*
X116897452Y-91848786D01*
X116867214Y-91879024D01*
X116806738Y-91909262D01*
X116746262Y-91909262D01*
X116685786Y-91879024D01*
X116655548Y-91848786D01*
X116625309Y-91788310D01*
X116595071Y-91667357D01*
X116595071Y-91516167D01*
X116625309Y-91395214D01*
X116655548Y-91334738D01*
X116685786Y-91304500D01*
X116746262Y-91274262D01*
X117562691Y-91909262D02*
X117199833Y-91909262D01*
X117381262Y-91909262D02*
X117381262Y-91274262D01*
X117320786Y-91364976D01*
X117260310Y-91425452D01*
X117199833Y-91455690D01*
X122789405Y-91937262D02*
X122577738Y-91634881D01*
X122426547Y-91937262D02*
X122426547Y-91302262D01*
X122668452Y-91302262D01*
X122728928Y-91332500D01*
X122759167Y-91362738D01*
X122789405Y-91423214D01*
X122789405Y-91513929D01*
X122759167Y-91574405D01*
X122728928Y-91604643D01*
X122668452Y-91634881D01*
X122426547Y-91634881D01*
X123031309Y-91362738D02*
X123061547Y-91332500D01*
X123122024Y-91302262D01*
X123273214Y-91302262D01*
X123333690Y-91332500D01*
X123363928Y-91362738D01*
X123394167Y-91423214D01*
X123394167Y-91483690D01*
X123363928Y-91574405D01*
X123001071Y-91937262D01*
X123394167Y-91937262D01*
X123787262Y-91302262D02*
X123847738Y-91302262D01*
X123908214Y-91332500D01*
X123938452Y-91362738D01*
X123968690Y-91423214D01*
X123998929Y-91544167D01*
X123998929Y-91695357D01*
X123968690Y-91816310D01*
X123938452Y-91876786D01*
X123908214Y-91907024D01*
X123847738Y-91937262D01*
X123787262Y-91937262D01*
X123726786Y-91907024D01*
X123696548Y-91876786D01*
X123666309Y-91816310D01*
X123636071Y-91695357D01*
X123636071Y-91544167D01*
X123666309Y-91423214D01*
X123696548Y-91362738D01*
X123726786Y-91332500D01*
X123787262Y-91302262D01*
X124240833Y-91362738D02*
X124271071Y-91332500D01*
X124331548Y-91302262D01*
X124482738Y-91302262D01*
X124543214Y-91332500D01*
X124573452Y-91362738D01*
X124603691Y-91423214D01*
X124603691Y-91483690D01*
X124573452Y-91574405D01*
X124210595Y-91937262D01*
X124603691Y-91937262D01*
X122137405Y-89162262D02*
X121925738Y-88859881D01*
X121774547Y-89162262D02*
X121774547Y-88527262D01*
X122016452Y-88527262D01*
X122076928Y-88557500D01*
X122107167Y-88587738D01*
X122137405Y-88648214D01*
X122137405Y-88738929D01*
X122107167Y-88799405D01*
X122076928Y-88829643D01*
X122016452Y-88859881D01*
X121774547Y-88859881D01*
X122379309Y-88587738D02*
X122409547Y-88557500D01*
X122470024Y-88527262D01*
X122621214Y-88527262D01*
X122681690Y-88557500D01*
X122711928Y-88587738D01*
X122742167Y-88648214D01*
X122742167Y-88708690D01*
X122711928Y-88799405D01*
X122349071Y-89162262D01*
X122742167Y-89162262D01*
X123135262Y-88527262D02*
X123195738Y-88527262D01*
X123256214Y-88557500D01*
X123286452Y-88587738D01*
X123316690Y-88648214D01*
X123346929Y-88769167D01*
X123346929Y-88920357D01*
X123316690Y-89041310D01*
X123286452Y-89101786D01*
X123256214Y-89132024D01*
X123195738Y-89162262D01*
X123135262Y-89162262D01*
X123074786Y-89132024D01*
X123044548Y-89101786D01*
X123014309Y-89041310D01*
X122984071Y-88920357D01*
X122984071Y-88769167D01*
X123014309Y-88648214D01*
X123044548Y-88587738D01*
X123074786Y-88557500D01*
X123135262Y-88527262D01*
X123558595Y-88527262D02*
X123951691Y-88527262D01*
X123740024Y-88769167D01*
X123830738Y-88769167D01*
X123891214Y-88799405D01*
X123921452Y-88829643D01*
X123951691Y-88890119D01*
X123951691Y-89041310D01*
X123921452Y-89101786D01*
X123891214Y-89132024D01*
X123830738Y-89162262D01*
X123649310Y-89162262D01*
X123588833Y-89132024D01*
X123558595Y-89101786D01*
X137879262Y-100641453D02*
X137244262Y-100641453D01*
X137244262Y-100490262D01*
X137274500Y-100399548D01*
X137334976Y-100339072D01*
X137395452Y-100308833D01*
X137516405Y-100278595D01*
X137607119Y-100278595D01*
X137728071Y-100308833D01*
X137788548Y-100339072D01*
X137849024Y-100399548D01*
X137879262Y-100490262D01*
X137879262Y-100641453D01*
X137879262Y-99673833D02*
X137879262Y-100036691D01*
X137879262Y-99855262D02*
X137244262Y-99855262D01*
X137334976Y-99915738D01*
X137395452Y-99976214D01*
X137425690Y-100036691D01*
X137244262Y-99280738D02*
X137244262Y-99220262D01*
X137274500Y-99159786D01*
X137304738Y-99129548D01*
X137365214Y-99099310D01*
X137486167Y-99069071D01*
X137637357Y-99069071D01*
X137758310Y-99099310D01*
X137818786Y-99129548D01*
X137849024Y-99159786D01*
X137879262Y-99220262D01*
X137879262Y-99280738D01*
X137849024Y-99341214D01*
X137818786Y-99371452D01*
X137758310Y-99401691D01*
X137637357Y-99431929D01*
X137486167Y-99431929D01*
X137365214Y-99401691D01*
X137304738Y-99371452D01*
X137274500Y-99341214D01*
X137244262Y-99280738D01*
X137879262Y-98464309D02*
X137879262Y-98827167D01*
X137879262Y-98645738D02*
X137244262Y-98645738D01*
X137334976Y-98706214D01*
X137395452Y-98766690D01*
X137425690Y-98827167D01*
X146210262Y-100387453D02*
X145575262Y-100387453D01*
X145575262Y-100236262D01*
X145605500Y-100145548D01*
X145665976Y-100085072D01*
X145726452Y-100054833D01*
X145847405Y-100024595D01*
X145938119Y-100024595D01*
X146059071Y-100054833D01*
X146119548Y-100085072D01*
X146180024Y-100145548D01*
X146210262Y-100236262D01*
X146210262Y-100387453D01*
X146210262Y-99419833D02*
X146210262Y-99782691D01*
X146210262Y-99601262D02*
X145575262Y-99601262D01*
X145665976Y-99661738D01*
X145726452Y-99722214D01*
X145756690Y-99782691D01*
X145575262Y-99026738D02*
X145575262Y-98966262D01*
X145605500Y-98905786D01*
X145635738Y-98875548D01*
X145696214Y-98845310D01*
X145817167Y-98815071D01*
X145968357Y-98815071D01*
X146089310Y-98845310D01*
X146149786Y-98875548D01*
X146180024Y-98905786D01*
X146210262Y-98966262D01*
X146210262Y-99026738D01*
X146180024Y-99087214D01*
X146149786Y-99117452D01*
X146089310Y-99147691D01*
X145968357Y-99177929D01*
X145817167Y-99177929D01*
X145696214Y-99147691D01*
X145635738Y-99117452D01*
X145605500Y-99087214D01*
X145575262Y-99026738D01*
X145635738Y-98573167D02*
X145605500Y-98542929D01*
X145575262Y-98482452D01*
X145575262Y-98331262D01*
X145605500Y-98270786D01*
X145635738Y-98240548D01*
X145696214Y-98210309D01*
X145756690Y-98210309D01*
X145847405Y-98240548D01*
X146210262Y-98603405D01*
X146210262Y-98210309D01*
X143289262Y-99770595D02*
X142986881Y-99982262D01*
X143289262Y-100133453D02*
X142654262Y-100133453D01*
X142654262Y-99891548D01*
X142684500Y-99831072D01*
X142714738Y-99800833D01*
X142775214Y-99770595D01*
X142865929Y-99770595D01*
X142926405Y-99800833D01*
X142956643Y-99831072D01*
X142986881Y-99891548D01*
X142986881Y-100133453D01*
X143289262Y-99165833D02*
X143289262Y-99528691D01*
X143289262Y-99347262D02*
X142654262Y-99347262D01*
X142744976Y-99407738D01*
X142805452Y-99468214D01*
X142835690Y-99528691D01*
X143289262Y-98561071D02*
X143289262Y-98923929D01*
X143289262Y-98742500D02*
X142654262Y-98742500D01*
X142744976Y-98802976D01*
X142805452Y-98863452D01*
X142835690Y-98923929D01*
X142714738Y-98319167D02*
X142684500Y-98288929D01*
X142654262Y-98228452D01*
X142654262Y-98077262D01*
X142684500Y-98016786D01*
X142714738Y-97986548D01*
X142775214Y-97956309D01*
X142835690Y-97956309D01*
X142926405Y-97986548D01*
X143289262Y-98349405D01*
X143289262Y-97956309D01*
X149170262Y-99745595D02*
X148867881Y-99957262D01*
X149170262Y-100108453D02*
X148535262Y-100108453D01*
X148535262Y-99866548D01*
X148565500Y-99806072D01*
X148595738Y-99775833D01*
X148656214Y-99745595D01*
X148746929Y-99745595D01*
X148807405Y-99775833D01*
X148837643Y-99806072D01*
X148867881Y-99866548D01*
X148867881Y-100108453D01*
X149170262Y-99140833D02*
X149170262Y-99503691D01*
X149170262Y-99322262D02*
X148535262Y-99322262D01*
X148625976Y-99382738D01*
X148686452Y-99443214D01*
X148716690Y-99503691D01*
X149170262Y-98536071D02*
X149170262Y-98898929D01*
X149170262Y-98717500D02*
X148535262Y-98717500D01*
X148625976Y-98777976D01*
X148686452Y-98838452D01*
X148716690Y-98898929D01*
X148535262Y-98324405D02*
X148535262Y-97931309D01*
X148777167Y-98142976D01*
X148777167Y-98052262D01*
X148807405Y-97991786D01*
X148837643Y-97961548D01*
X148898119Y-97931309D01*
X149049310Y-97931309D01*
X149109786Y-97961548D01*
X149140024Y-97991786D01*
X149170262Y-98052262D01*
X149170262Y-98233690D01*
X149140024Y-98294167D01*
X149109786Y-98324405D01*
M02*
