G04 #@! TF.FileFunction,Legend,Bot*
%FSLAX46Y46*%
G04 Gerber Fmt 4.6, Leading zero omitted, Abs format (unit mm)*
G04 Created by KiCad (PCBNEW 4.0.0-rc1-stable) date 13/06/2017 23:09:15*
%MOMM*%
G01*
G04 APERTURE LIST*
%ADD10C,0.076200*%
%ADD11C,0.150000*%
%ADD12C,0.120000*%
%ADD13C,0.127000*%
G04 APERTURE END LIST*
D10*
D11*
X136308000Y-93509400D02*
X138568600Y-93509400D01*
X138568600Y-93509400D02*
X138568600Y-95566800D01*
X138568600Y-95566800D02*
X136714400Y-95566800D01*
X136308000Y-95185800D02*
X136308000Y-74230800D01*
X136308000Y-74230800D02*
X160692000Y-74230800D01*
X160692000Y-74230800D02*
X160692000Y-95185800D01*
X160692000Y-95185800D02*
X153262500Y-102170800D01*
X153262500Y-102170800D02*
X143737500Y-102170800D01*
X143737500Y-102170800D02*
X136308000Y-95185800D01*
D12*
X127500000Y-96850000D02*
X126500000Y-96850000D01*
X126500000Y-95150000D02*
X127500000Y-95150000D01*
D11*
X134397000Y-95257000D02*
X134397000Y-85097000D01*
X134397000Y-85097000D02*
X131730000Y-85097000D01*
X131730000Y-85097000D02*
X131730000Y-79763000D01*
X131730000Y-79763000D02*
X134397000Y-79763000D01*
X134397000Y-79763000D02*
X134397000Y-72270000D01*
X131730000Y-95257000D02*
X134397000Y-95257000D01*
X129063000Y-72270000D02*
X129063000Y-92463000D01*
X129063000Y-92463000D02*
X131730000Y-92463000D01*
X131730000Y-92463000D02*
X131730000Y-95257000D01*
X129070000Y-72270000D02*
X131730000Y-72270000D01*
X131730000Y-72270000D02*
X131730000Y-69603000D01*
D12*
X134390000Y-71000000D02*
X134390000Y-69610000D01*
X134390000Y-69610000D02*
X133000000Y-69610000D01*
X125900000Y-83380000D02*
X127100000Y-83380000D01*
X127100000Y-81620000D02*
X125900000Y-81620000D01*
X127100000Y-88120000D02*
X125900000Y-88120000D01*
X125900000Y-89880000D02*
X127100000Y-89880000D01*
X127100000Y-90620000D02*
X125900000Y-90620000D01*
X125900000Y-92380000D02*
X127100000Y-92380000D01*
X125900000Y-86380000D02*
X127100000Y-86380000D01*
X127100000Y-84620000D02*
X125900000Y-84620000D01*
D13*
X149806285Y-73844714D02*
X149806285Y-73082714D01*
X149806285Y-73445571D02*
X149370857Y-73445571D01*
X149370857Y-73844714D02*
X149370857Y-73082714D01*
X148608857Y-73844714D02*
X149044285Y-73844714D01*
X148826571Y-73844714D02*
X148826571Y-73082714D01*
X148899142Y-73191571D01*
X148971714Y-73264143D01*
X149044285Y-73300429D01*
X148137143Y-73082714D02*
X148064571Y-73082714D01*
X147992000Y-73119000D01*
X147955714Y-73155286D01*
X147919428Y-73227857D01*
X147883143Y-73373000D01*
X147883143Y-73554429D01*
X147919428Y-73699571D01*
X147955714Y-73772143D01*
X147992000Y-73808429D01*
X148064571Y-73844714D01*
X148137143Y-73844714D01*
X148209714Y-73808429D01*
X148246000Y-73772143D01*
X148282285Y-73699571D01*
X148318571Y-73554429D01*
X148318571Y-73373000D01*
X148282285Y-73227857D01*
X148246000Y-73155286D01*
X148209714Y-73119000D01*
X148137143Y-73082714D01*
X147592857Y-73155286D02*
X147556571Y-73119000D01*
X147484000Y-73082714D01*
X147302571Y-73082714D01*
X147230000Y-73119000D01*
X147193714Y-73155286D01*
X147157429Y-73227857D01*
X147157429Y-73300429D01*
X147193714Y-73409286D01*
X147629143Y-73844714D01*
X147157429Y-73844714D01*
X150040782Y-85141914D02*
X149628032Y-85903914D01*
X149532782Y-85141914D02*
X150136032Y-85903914D01*
X149033853Y-85504771D02*
X148929532Y-85541057D01*
X148897783Y-85577343D01*
X148870568Y-85649914D01*
X148884175Y-85758771D01*
X148929533Y-85831343D01*
X148970354Y-85867629D01*
X149047461Y-85903914D01*
X149337746Y-85903914D01*
X149242496Y-85141914D01*
X148988496Y-85141914D01*
X148920461Y-85178200D01*
X148888711Y-85214486D01*
X148861497Y-85287057D01*
X148870569Y-85359629D01*
X148915925Y-85432200D01*
X148956747Y-85468486D01*
X149033853Y-85504771D01*
X149287853Y-85504771D01*
X148280926Y-85867629D02*
X148358032Y-85903914D01*
X148503175Y-85903914D01*
X148571211Y-85867629D01*
X148598425Y-85795057D01*
X148562139Y-85504771D01*
X148516782Y-85432200D01*
X148439675Y-85395914D01*
X148294532Y-85395914D01*
X148226497Y-85432200D01*
X148199282Y-85504771D01*
X148208354Y-85577343D01*
X148580282Y-85649914D01*
X147627783Y-85867629D02*
X147704889Y-85903914D01*
X147850032Y-85903914D01*
X147918068Y-85867629D01*
X147945282Y-85795057D01*
X147908996Y-85504771D01*
X147863639Y-85432200D01*
X147786532Y-85395914D01*
X147641389Y-85395914D01*
X147573354Y-85432200D01*
X147546139Y-85504771D01*
X147555211Y-85577343D01*
X147927139Y-85649914D01*
X127852714Y-97772143D02*
X127889000Y-97808429D01*
X127997857Y-97844714D01*
X128070428Y-97844714D01*
X128179285Y-97808429D01*
X128251857Y-97735857D01*
X128288142Y-97663286D01*
X128324428Y-97518143D01*
X128324428Y-97409286D01*
X128288142Y-97264143D01*
X128251857Y-97191571D01*
X128179285Y-97119000D01*
X128070428Y-97082714D01*
X127997857Y-97082714D01*
X127889000Y-97119000D01*
X127852714Y-97155286D01*
X127598714Y-97082714D02*
X127127000Y-97082714D01*
X127381000Y-97373000D01*
X127272142Y-97373000D01*
X127199571Y-97409286D01*
X127163285Y-97445571D01*
X127127000Y-97518143D01*
X127127000Y-97699571D01*
X127163285Y-97772143D01*
X127199571Y-97808429D01*
X127272142Y-97844714D01*
X127489857Y-97844714D01*
X127562428Y-97808429D01*
X127598714Y-97772143D01*
X126655286Y-97082714D02*
X126582714Y-97082714D01*
X126510143Y-97119000D01*
X126473857Y-97155286D01*
X126437571Y-97227857D01*
X126401286Y-97373000D01*
X126401286Y-97554429D01*
X126437571Y-97699571D01*
X126473857Y-97772143D01*
X126510143Y-97808429D01*
X126582714Y-97844714D01*
X126655286Y-97844714D01*
X126727857Y-97808429D01*
X126764143Y-97772143D01*
X126800428Y-97699571D01*
X126836714Y-97554429D01*
X126836714Y-97373000D01*
X126800428Y-97227857D01*
X126764143Y-97155286D01*
X126727857Y-97119000D01*
X126655286Y-97082714D01*
X126147286Y-97082714D02*
X125675572Y-97082714D01*
X125929572Y-97373000D01*
X125820714Y-97373000D01*
X125748143Y-97409286D01*
X125711857Y-97445571D01*
X125675572Y-97518143D01*
X125675572Y-97699571D01*
X125711857Y-97772143D01*
X125748143Y-97808429D01*
X125820714Y-97844714D01*
X126038429Y-97844714D01*
X126111000Y-97808429D01*
X126147286Y-97772143D01*
X133036285Y-68954714D02*
X133036285Y-68192714D01*
X133036285Y-68555571D02*
X132600857Y-68555571D01*
X132600857Y-68954714D02*
X132600857Y-68192714D01*
X131838857Y-68954714D02*
X132274285Y-68954714D01*
X132056571Y-68954714D02*
X132056571Y-68192714D01*
X132129142Y-68301571D01*
X132201714Y-68374143D01*
X132274285Y-68410429D01*
X131367143Y-68192714D02*
X131294571Y-68192714D01*
X131222000Y-68229000D01*
X131185714Y-68265286D01*
X131149428Y-68337857D01*
X131113143Y-68483000D01*
X131113143Y-68664429D01*
X131149428Y-68809571D01*
X131185714Y-68882143D01*
X131222000Y-68918429D01*
X131294571Y-68954714D01*
X131367143Y-68954714D01*
X131439714Y-68918429D01*
X131476000Y-68882143D01*
X131512285Y-68809571D01*
X131548571Y-68664429D01*
X131548571Y-68483000D01*
X131512285Y-68337857D01*
X131476000Y-68265286D01*
X131439714Y-68229000D01*
X131367143Y-68192714D01*
X130387429Y-68954714D02*
X130822857Y-68954714D01*
X130605143Y-68954714D02*
X130605143Y-68192714D01*
X130677714Y-68301571D01*
X130750286Y-68374143D01*
X130822857Y-68410429D01*
X127352714Y-81194714D02*
X127606714Y-80831857D01*
X127788142Y-81194714D02*
X127788142Y-80432714D01*
X127497857Y-80432714D01*
X127425285Y-80469000D01*
X127389000Y-80505286D01*
X127352714Y-80577857D01*
X127352714Y-80686714D01*
X127389000Y-80759286D01*
X127425285Y-80795571D01*
X127497857Y-80831857D01*
X127788142Y-80831857D01*
X126627000Y-81194714D02*
X127062428Y-81194714D01*
X126844714Y-81194714D02*
X126844714Y-80432714D01*
X126917285Y-80541571D01*
X126989857Y-80614143D01*
X127062428Y-80650429D01*
X126155286Y-80432714D02*
X126082714Y-80432714D01*
X126010143Y-80469000D01*
X125973857Y-80505286D01*
X125937571Y-80577857D01*
X125901286Y-80723000D01*
X125901286Y-80904429D01*
X125937571Y-81049571D01*
X125973857Y-81122143D01*
X126010143Y-81158429D01*
X126082714Y-81194714D01*
X126155286Y-81194714D01*
X126227857Y-81158429D01*
X126264143Y-81122143D01*
X126300428Y-81049571D01*
X126336714Y-80904429D01*
X126336714Y-80723000D01*
X126300428Y-80577857D01*
X126264143Y-80505286D01*
X126227857Y-80469000D01*
X126155286Y-80432714D01*
X125647286Y-80432714D02*
X125175572Y-80432714D01*
X125429572Y-80723000D01*
X125320714Y-80723000D01*
X125248143Y-80759286D01*
X125211857Y-80795571D01*
X125175572Y-80868143D01*
X125175572Y-81049571D01*
X125211857Y-81122143D01*
X125248143Y-81158429D01*
X125320714Y-81194714D01*
X125538429Y-81194714D01*
X125611000Y-81158429D01*
X125647286Y-81122143D01*
X127352714Y-87844714D02*
X127606714Y-87481857D01*
X127788142Y-87844714D02*
X127788142Y-87082714D01*
X127497857Y-87082714D01*
X127425285Y-87119000D01*
X127389000Y-87155286D01*
X127352714Y-87227857D01*
X127352714Y-87336714D01*
X127389000Y-87409286D01*
X127425285Y-87445571D01*
X127497857Y-87481857D01*
X127788142Y-87481857D01*
X126627000Y-87844714D02*
X127062428Y-87844714D01*
X126844714Y-87844714D02*
X126844714Y-87082714D01*
X126917285Y-87191571D01*
X126989857Y-87264143D01*
X127062428Y-87300429D01*
X126155286Y-87082714D02*
X126082714Y-87082714D01*
X126010143Y-87119000D01*
X125973857Y-87155286D01*
X125937571Y-87227857D01*
X125901286Y-87373000D01*
X125901286Y-87554429D01*
X125937571Y-87699571D01*
X125973857Y-87772143D01*
X126010143Y-87808429D01*
X126082714Y-87844714D01*
X126155286Y-87844714D01*
X126227857Y-87808429D01*
X126264143Y-87772143D01*
X126300428Y-87699571D01*
X126336714Y-87554429D01*
X126336714Y-87373000D01*
X126300428Y-87227857D01*
X126264143Y-87155286D01*
X126227857Y-87119000D01*
X126155286Y-87082714D01*
X125647286Y-87082714D02*
X125139286Y-87082714D01*
X125465857Y-87844714D01*
X127352714Y-93494714D02*
X127606714Y-93131857D01*
X127788142Y-93494714D02*
X127788142Y-92732714D01*
X127497857Y-92732714D01*
X127425285Y-92769000D01*
X127389000Y-92805286D01*
X127352714Y-92877857D01*
X127352714Y-92986714D01*
X127389000Y-93059286D01*
X127425285Y-93095571D01*
X127497857Y-93131857D01*
X127788142Y-93131857D01*
X126627000Y-93494714D02*
X127062428Y-93494714D01*
X126844714Y-93494714D02*
X126844714Y-92732714D01*
X126917285Y-92841571D01*
X126989857Y-92914143D01*
X127062428Y-92950429D01*
X126155286Y-92732714D02*
X126082714Y-92732714D01*
X126010143Y-92769000D01*
X125973857Y-92805286D01*
X125937571Y-92877857D01*
X125901286Y-93023000D01*
X125901286Y-93204429D01*
X125937571Y-93349571D01*
X125973857Y-93422143D01*
X126010143Y-93458429D01*
X126082714Y-93494714D01*
X126155286Y-93494714D01*
X126227857Y-93458429D01*
X126264143Y-93422143D01*
X126300428Y-93349571D01*
X126336714Y-93204429D01*
X126336714Y-93023000D01*
X126300428Y-92877857D01*
X126264143Y-92805286D01*
X126227857Y-92769000D01*
X126155286Y-92732714D01*
X125465857Y-93059286D02*
X125538429Y-93023000D01*
X125574714Y-92986714D01*
X125611000Y-92914143D01*
X125611000Y-92877857D01*
X125574714Y-92805286D01*
X125538429Y-92769000D01*
X125465857Y-92732714D01*
X125320714Y-92732714D01*
X125248143Y-92769000D01*
X125211857Y-92805286D01*
X125175572Y-92877857D01*
X125175572Y-92914143D01*
X125211857Y-92986714D01*
X125248143Y-93023000D01*
X125320714Y-93059286D01*
X125465857Y-93059286D01*
X125538429Y-93095571D01*
X125574714Y-93131857D01*
X125611000Y-93204429D01*
X125611000Y-93349571D01*
X125574714Y-93422143D01*
X125538429Y-93458429D01*
X125465857Y-93494714D01*
X125320714Y-93494714D01*
X125248143Y-93458429D01*
X125211857Y-93422143D01*
X125175572Y-93349571D01*
X125175572Y-93204429D01*
X125211857Y-93131857D01*
X125248143Y-93095571D01*
X125320714Y-93059286D01*
X127352714Y-84344714D02*
X127606714Y-83981857D01*
X127788142Y-84344714D02*
X127788142Y-83582714D01*
X127497857Y-83582714D01*
X127425285Y-83619000D01*
X127389000Y-83655286D01*
X127352714Y-83727857D01*
X127352714Y-83836714D01*
X127389000Y-83909286D01*
X127425285Y-83945571D01*
X127497857Y-83981857D01*
X127788142Y-83981857D01*
X126627000Y-84344714D02*
X127062428Y-84344714D01*
X126844714Y-84344714D02*
X126844714Y-83582714D01*
X126917285Y-83691571D01*
X126989857Y-83764143D01*
X127062428Y-83800429D01*
X125901286Y-84344714D02*
X126336714Y-84344714D01*
X126119000Y-84344714D02*
X126119000Y-83582714D01*
X126191571Y-83691571D01*
X126264143Y-83764143D01*
X126336714Y-83800429D01*
X125429572Y-83582714D02*
X125357000Y-83582714D01*
X125284429Y-83619000D01*
X125248143Y-83655286D01*
X125211857Y-83727857D01*
X125175572Y-83873000D01*
X125175572Y-84054429D01*
X125211857Y-84199571D01*
X125248143Y-84272143D01*
X125284429Y-84308429D01*
X125357000Y-84344714D01*
X125429572Y-84344714D01*
X125502143Y-84308429D01*
X125538429Y-84272143D01*
X125574714Y-84199571D01*
X125611000Y-84054429D01*
X125611000Y-83873000D01*
X125574714Y-83727857D01*
X125538429Y-83655286D01*
X125502143Y-83619000D01*
X125429572Y-83582714D01*
M02*
