G04 #@! TF.FileFunction,Soldermask,Bot*
%FSLAX46Y46*%
G04 Gerber Fmt 4.6, Leading zero omitted, Abs format (unit mm)*
G04 Created by KiCad (PCBNEW 4.0.0-rc1-stable) date 06/07/2017 17:27:51*
%MOMM*%
G01*
G04 APERTURE LIST*
%ADD10C,0.076200*%
%ADD11C,1.524000*%
%ADD12R,1.000000X1.250000*%
%ADD13R,1.700000X1.700000*%
%ADD14O,1.700000X1.700000*%
%ADD15R,1.300000X0.700000*%
%ADD16R,0.700000X1.300000*%
%ADD17C,3.200000*%
G04 APERTURE END LIST*
D10*
D11*
X137501800Y-94500000D03*
X137501800Y-92493400D03*
X137501800Y-90486800D03*
X137501800Y-88480200D03*
X137501800Y-86473600D03*
X137501800Y-84467000D03*
X137501800Y-82460400D03*
X137501800Y-80453800D03*
X137501800Y-78447200D03*
X137501800Y-76440600D03*
X159498200Y-76440600D03*
X159498200Y-78447200D03*
X159498200Y-80453800D03*
X159498200Y-82460400D03*
X159498200Y-84467000D03*
X159498200Y-86473600D03*
X159498200Y-88480200D03*
X159498200Y-90486800D03*
X159498200Y-92493400D03*
X159498200Y-94500000D03*
D12*
X126000000Y-96000000D03*
X128000000Y-96000000D03*
D13*
X133000000Y-71000000D03*
D14*
X133000000Y-73540000D03*
X130460000Y-73540000D03*
X133000000Y-76080000D03*
X130460000Y-76080000D03*
X133000000Y-78620000D03*
X130460000Y-78620000D03*
X130460000Y-81160000D03*
X130460000Y-83700000D03*
X133000000Y-86240000D03*
X130460000Y-86240000D03*
X133000000Y-88780000D03*
X130460000Y-88780000D03*
X133000000Y-91320000D03*
X130460000Y-91320000D03*
X133000000Y-93860000D03*
D15*
X127000000Y-82150000D03*
X127000000Y-80250000D03*
D16*
X125550000Y-89000000D03*
X127450000Y-89000000D03*
X125550000Y-91500000D03*
X127450000Y-91500000D03*
D15*
X124600000Y-82150000D03*
X124600000Y-80250000D03*
D13*
X132500000Y-99500000D03*
D14*
X135040000Y-99500000D03*
D17*
X157250000Y-70500000D03*
X112000000Y-71750000D03*
X112000000Y-98750000D03*
D13*
X121500000Y-100000000D03*
X125000000Y-100000000D03*
D11*
X109000000Y-93500000D03*
X111540000Y-93500000D03*
X154720000Y-93500000D03*
X157260000Y-93500000D03*
X157260000Y-65560000D03*
X154720000Y-65560000D03*
X152180000Y-65560000D03*
X149640000Y-65560000D03*
X147100000Y-65560000D03*
X144560000Y-65560000D03*
X142020000Y-65560000D03*
X139480000Y-65560000D03*
X136940000Y-65560000D03*
X134400000Y-65560000D03*
X131860000Y-65560000D03*
X129320000Y-65560000D03*
X126780000Y-65560000D03*
X124240000Y-65560000D03*
X121700000Y-65560000D03*
X119160000Y-65560000D03*
X116620000Y-65560000D03*
X114080000Y-65560000D03*
X111540000Y-65560000D03*
X109000000Y-65560000D03*
M02*
