G04 #@! TF.FileFunction,Copper,L1,Top,Signal*
%FSLAX46Y46*%
G04 Gerber Fmt 4.6, Leading zero omitted, Abs format (unit mm)*
G04 Created by KiCad (PCBNEW 4.0.0-rc1-stable) date 13/06/2017 23:09:15*
%MOMM*%
G01*
G04 APERTURE LIST*
%ADD10C,0.076200*%
%ADD11C,1.524000*%
%ADD12R,1.000000X1.250000*%
%ADD13R,1.000000X1.600000*%
%ADD14R,1.700000X1.700000*%
%ADD15O,1.700000X1.700000*%
%ADD16R,0.700000X1.300000*%
%ADD17R,0.900000X1.700000*%
%ADD18R,3.500000X3.500000*%
%ADD19R,0.600000X1.550000*%
%ADD20R,1.200000X0.900000*%
%ADD21C,0.685800*%
%ADD22C,0.304800*%
%ADD23C,0.609600*%
%ADD24C,0.254000*%
G04 APERTURE END LIST*
D10*
D11*
X137501800Y-94500000D03*
X137501800Y-92493400D03*
X137501800Y-90486800D03*
X137501800Y-88480200D03*
X137501800Y-86473600D03*
X137501800Y-84467000D03*
X137501800Y-82460400D03*
X137501800Y-80453800D03*
X137501800Y-78447200D03*
X137501800Y-76440600D03*
X159498200Y-76440600D03*
X159498200Y-78447200D03*
X159498200Y-80453800D03*
X159498200Y-82460400D03*
X159498200Y-84467000D03*
X159498200Y-86473600D03*
X159498200Y-88480200D03*
X159498200Y-90486800D03*
X159498200Y-92493400D03*
X159498200Y-94500000D03*
D12*
X122000000Y-96000000D03*
X124000000Y-96000000D03*
D13*
X149630000Y-69850000D03*
X152630000Y-69850000D03*
X147677000Y-69850000D03*
X144677000Y-69850000D03*
D14*
X133000000Y-71000000D03*
D15*
X133000000Y-73540000D03*
X130460000Y-73540000D03*
X133000000Y-76080000D03*
X130460000Y-76080000D03*
X133000000Y-78620000D03*
X130460000Y-78620000D03*
X130460000Y-81160000D03*
X130460000Y-83700000D03*
X133000000Y-86240000D03*
X130460000Y-86240000D03*
X133000000Y-88780000D03*
X130460000Y-88780000D03*
X133000000Y-91320000D03*
X130460000Y-91320000D03*
X133000000Y-93860000D03*
D16*
X136550000Y-73000000D03*
X138450000Y-73000000D03*
X121950000Y-84500000D03*
X120050000Y-84500000D03*
X123550000Y-77000000D03*
X125450000Y-77000000D03*
X123550000Y-74500000D03*
X125450000Y-74500000D03*
X123550000Y-72000000D03*
X125450000Y-72000000D03*
X138450000Y-71000000D03*
X136550000Y-71000000D03*
D17*
X116550000Y-93500000D03*
X119450000Y-93500000D03*
X122050000Y-93500000D03*
X124950000Y-93500000D03*
D14*
X132500000Y-99500000D03*
D15*
X135040000Y-99500000D03*
D18*
X111000000Y-88900000D03*
X111000000Y-82100000D03*
D19*
X117595000Y-81700000D03*
X118865000Y-81700000D03*
X120135000Y-81700000D03*
X121405000Y-81700000D03*
X121405000Y-76300000D03*
X120135000Y-76300000D03*
X118865000Y-76300000D03*
X117595000Y-76300000D03*
D14*
X121500000Y-100000000D03*
X125000000Y-100000000D03*
D20*
X117500000Y-86350000D03*
X117500000Y-89650000D03*
D11*
X109000000Y-93500000D03*
X111540000Y-93500000D03*
X154720000Y-93500000D03*
X157260000Y-93500000D03*
X157260000Y-65560000D03*
X154720000Y-65560000D03*
X152180000Y-65560000D03*
X149640000Y-65560000D03*
X147100000Y-65560000D03*
X144560000Y-65560000D03*
X142020000Y-65560000D03*
X139480000Y-65560000D03*
X136940000Y-65560000D03*
X134400000Y-65560000D03*
X131860000Y-65560000D03*
X129320000Y-65560000D03*
X126780000Y-65560000D03*
X124240000Y-65560000D03*
X121700000Y-65560000D03*
X119160000Y-65560000D03*
X116620000Y-65560000D03*
X114080000Y-65560000D03*
X111540000Y-65560000D03*
X109000000Y-65560000D03*
D21*
X143383000Y-69723000D03*
X116000000Y-76000000D03*
X119500000Y-79000000D03*
X118000000Y-80000000D03*
D22*
X133000000Y-88780000D02*
X132970000Y-88780000D01*
X132970000Y-88780000D02*
X131750000Y-90000000D01*
X131750000Y-90000000D02*
X125550000Y-90000000D01*
X125550000Y-90000000D02*
X122050000Y-93500000D01*
D23*
X119450000Y-93500000D02*
X122050000Y-93500000D01*
X122050000Y-93500000D02*
X122050000Y-95950000D01*
X122050000Y-95950000D02*
X122000000Y-96000000D01*
D22*
X149630000Y-69850000D02*
X151916000Y-67564000D01*
X154720000Y-67276000D02*
X154720000Y-65560000D01*
X154432000Y-67564000D02*
X154720000Y-67276000D01*
X151916000Y-67564000D02*
X154432000Y-67564000D01*
X152630000Y-69850000D02*
X153035000Y-69850000D01*
X153035000Y-69850000D02*
X153035000Y-69785000D01*
X153035000Y-69785000D02*
X157260000Y-65560000D01*
X147677000Y-69850000D02*
X147677000Y-68985000D01*
X149640000Y-67022000D02*
X149640000Y-65560000D01*
X147677000Y-68985000D02*
X149640000Y-67022000D01*
X144677000Y-69850000D02*
X143510000Y-69850000D01*
X143510000Y-69850000D02*
X143383000Y-69723000D01*
X117595000Y-76300000D02*
X116300000Y-76300000D01*
X116300000Y-76300000D02*
X116000000Y-76000000D01*
X133000000Y-76080000D02*
X133420000Y-76080000D01*
X133420000Y-76080000D02*
X134500000Y-75000000D01*
X134500000Y-75000000D02*
X134500000Y-68510000D01*
X134500000Y-68510000D02*
X136950000Y-66060000D01*
X133000000Y-78620000D02*
X133880000Y-78620000D01*
X135500000Y-74050000D02*
X136550000Y-73000000D01*
X135500000Y-77000000D02*
X135500000Y-74050000D01*
X133880000Y-78620000D02*
X135500000Y-77000000D01*
X136550000Y-71000000D02*
X136550000Y-71450000D01*
X136550000Y-71450000D02*
X135000000Y-73000000D01*
X135000000Y-73000000D02*
X135000000Y-76500000D01*
X135000000Y-76500000D02*
X134250000Y-77250000D01*
X134250000Y-77250000D02*
X131830000Y-77250000D01*
X131830000Y-77250000D02*
X130460000Y-78620000D01*
X118865000Y-79635000D02*
X118865000Y-81700000D01*
X119500000Y-79000000D02*
X118865000Y-79635000D01*
X117595000Y-80405000D02*
X117595000Y-81700000D01*
X118000000Y-80000000D02*
X117595000Y-80405000D01*
X133000000Y-91320000D02*
X133430000Y-91320000D01*
X133430000Y-91320000D02*
X135000000Y-89750000D01*
X135000000Y-89750000D02*
X135000000Y-88250000D01*
X135000000Y-88250000D02*
X134250000Y-87500000D01*
X134250000Y-87500000D02*
X124950000Y-87500000D01*
X124950000Y-87500000D02*
X121950000Y-84500000D01*
X138450000Y-71000000D02*
X140081000Y-72631000D01*
X140081000Y-89914200D02*
X137501800Y-92493400D01*
X140081000Y-72631000D02*
X140081000Y-89914200D01*
X137001800Y-92493400D02*
X137006600Y-92493400D01*
X137501800Y-90486800D02*
X137859200Y-90486800D01*
X137859200Y-90486800D02*
X139446000Y-88900000D01*
X139446000Y-88900000D02*
X139446000Y-73996000D01*
X139446000Y-73996000D02*
X138450000Y-73000000D01*
X137001800Y-90486800D02*
X137013200Y-90486800D01*
D23*
X121500000Y-100000000D02*
X120000000Y-100000000D01*
X120000000Y-100000000D02*
X116550000Y-96550000D01*
X116550000Y-96550000D02*
X116550000Y-93500000D01*
X111000000Y-88900000D02*
X113400000Y-88900000D01*
X116550000Y-92050000D02*
X116550000Y-93500000D01*
X113400000Y-88900000D02*
X116550000Y-92050000D01*
X111000000Y-88900000D02*
X111000000Y-89000000D01*
D22*
X120050000Y-84500000D02*
X120050000Y-81785000D01*
X120050000Y-81785000D02*
X120135000Y-81700000D01*
X121405000Y-76300000D02*
X122850000Y-76300000D01*
X122850000Y-76300000D02*
X123550000Y-77000000D01*
X120135000Y-76300000D02*
X120135000Y-75365000D01*
X121000000Y-74500000D02*
X123550000Y-74500000D01*
X120135000Y-75365000D02*
X121000000Y-74500000D01*
X118865000Y-76300000D02*
X118865000Y-75885000D01*
X118865000Y-75885000D02*
X122750000Y-72000000D01*
X122750000Y-72000000D02*
X123550000Y-72000000D01*
D23*
X111000000Y-82100000D02*
X114100000Y-82100000D01*
X117500000Y-85500000D02*
X117500000Y-86350000D01*
X114100000Y-82100000D02*
X117500000Y-85500000D01*
X111000000Y-82100000D02*
X112100000Y-82100000D01*
D24*
G36*
X110893388Y-64590446D02*
X110571577Y-64911697D01*
X110397199Y-65331646D01*
X110396802Y-65786359D01*
X110570446Y-66206612D01*
X110891697Y-66528423D01*
X111311646Y-66702801D01*
X111766359Y-66703198D01*
X112186612Y-66529554D01*
X112508423Y-66208303D01*
X112682801Y-65788354D01*
X112683198Y-65333641D01*
X112509554Y-64913388D01*
X112188303Y-64591577D01*
X111861797Y-64456000D01*
X113758774Y-64456000D01*
X113433388Y-64590446D01*
X113111577Y-64911697D01*
X112937199Y-65331646D01*
X112936802Y-65786359D01*
X113110446Y-66206612D01*
X113431697Y-66528423D01*
X113851646Y-66702801D01*
X114306359Y-66703198D01*
X114726612Y-66529554D01*
X114855229Y-66401160D01*
X115958445Y-66401160D01*
X116041824Y-66571856D01*
X116473055Y-66716091D01*
X116926657Y-66684322D01*
X117198176Y-66571856D01*
X117281555Y-66401160D01*
X116620000Y-65739605D01*
X115958445Y-66401160D01*
X114855229Y-66401160D01*
X115048423Y-66208303D01*
X115222801Y-65788354D01*
X115223128Y-65413055D01*
X115463909Y-65413055D01*
X115495678Y-65866657D01*
X115608144Y-66138176D01*
X115778840Y-66221555D01*
X116440395Y-65560000D01*
X116799605Y-65560000D01*
X117461160Y-66221555D01*
X117631856Y-66138176D01*
X117776091Y-65706945D01*
X117744322Y-65253343D01*
X117631856Y-64981824D01*
X117461160Y-64898445D01*
X116799605Y-65560000D01*
X116440395Y-65560000D01*
X115778840Y-64898445D01*
X115608144Y-64981824D01*
X115463909Y-65413055D01*
X115223128Y-65413055D01*
X115223198Y-65333641D01*
X115049554Y-64913388D01*
X114728303Y-64591577D01*
X114401797Y-64456000D01*
X116264281Y-64456000D01*
X116041824Y-64548144D01*
X115958445Y-64718840D01*
X116620000Y-65380395D01*
X117281555Y-64718840D01*
X117198176Y-64548144D01*
X116922686Y-64456000D01*
X118838774Y-64456000D01*
X118513388Y-64590446D01*
X118191577Y-64911697D01*
X118017199Y-65331646D01*
X118016802Y-65786359D01*
X118190446Y-66206612D01*
X118511697Y-66528423D01*
X118931646Y-66702801D01*
X119386359Y-66703198D01*
X119806612Y-66529554D01*
X120128423Y-66208303D01*
X120302801Y-65788354D01*
X120303198Y-65333641D01*
X120129554Y-64913388D01*
X119808303Y-64591577D01*
X119481797Y-64456000D01*
X121378774Y-64456000D01*
X121053388Y-64590446D01*
X120731577Y-64911697D01*
X120557199Y-65331646D01*
X120556802Y-65786359D01*
X120730446Y-66206612D01*
X121051697Y-66528423D01*
X121471646Y-66702801D01*
X121926359Y-66703198D01*
X122346612Y-66529554D01*
X122668423Y-66208303D01*
X122842801Y-65788354D01*
X122843198Y-65333641D01*
X122669554Y-64913388D01*
X122348303Y-64591577D01*
X122021797Y-64456000D01*
X123918774Y-64456000D01*
X123593388Y-64590446D01*
X123271577Y-64911697D01*
X123097199Y-65331646D01*
X123096802Y-65786359D01*
X123270446Y-66206612D01*
X123591697Y-66528423D01*
X124011646Y-66702801D01*
X124466359Y-66703198D01*
X124886612Y-66529554D01*
X125208423Y-66208303D01*
X125382801Y-65788354D01*
X125383198Y-65333641D01*
X125209554Y-64913388D01*
X124888303Y-64591577D01*
X124561797Y-64456000D01*
X126458774Y-64456000D01*
X126133388Y-64590446D01*
X125811577Y-64911697D01*
X125637199Y-65331646D01*
X125636802Y-65786359D01*
X125810446Y-66206612D01*
X126131697Y-66528423D01*
X126551646Y-66702801D01*
X127006359Y-66703198D01*
X127426612Y-66529554D01*
X127748423Y-66208303D01*
X127922801Y-65788354D01*
X127923198Y-65333641D01*
X127749554Y-64913388D01*
X127428303Y-64591577D01*
X127101797Y-64456000D01*
X128998774Y-64456000D01*
X128673388Y-64590446D01*
X128351577Y-64911697D01*
X128177199Y-65331646D01*
X128176802Y-65786359D01*
X128350446Y-66206612D01*
X128671697Y-66528423D01*
X129091646Y-66702801D01*
X129546359Y-66703198D01*
X129966612Y-66529554D01*
X130288423Y-66208303D01*
X130462801Y-65788354D01*
X130463198Y-65333641D01*
X130289554Y-64913388D01*
X129968303Y-64591577D01*
X129641797Y-64456000D01*
X131538774Y-64456000D01*
X131213388Y-64590446D01*
X130891577Y-64911697D01*
X130717199Y-65331646D01*
X130716802Y-65786359D01*
X130890446Y-66206612D01*
X131211697Y-66528423D01*
X131631646Y-66702801D01*
X132086359Y-66703198D01*
X132506612Y-66529554D01*
X132828423Y-66208303D01*
X133002801Y-65788354D01*
X133003198Y-65333641D01*
X132829554Y-64913388D01*
X132508303Y-64591577D01*
X132181797Y-64456000D01*
X134078774Y-64456000D01*
X133753388Y-64590446D01*
X133431577Y-64911697D01*
X133257199Y-65331646D01*
X133256802Y-65786359D01*
X133430446Y-66206612D01*
X133751697Y-66528423D01*
X134171646Y-66702801D01*
X134626359Y-66703198D01*
X135046612Y-66529554D01*
X135368423Y-66208303D01*
X135542801Y-65788354D01*
X135543198Y-65333641D01*
X135369554Y-64913388D01*
X135048303Y-64591577D01*
X134721797Y-64456000D01*
X136618774Y-64456000D01*
X136293388Y-64590446D01*
X135971577Y-64911697D01*
X135797199Y-65331646D01*
X135796802Y-65786359D01*
X135970446Y-66206612D01*
X136009712Y-66245946D01*
X134122829Y-68132829D01*
X134007203Y-68305877D01*
X133966600Y-68510000D01*
X133966600Y-69785148D01*
X133850000Y-69761536D01*
X132150000Y-69761536D01*
X132008810Y-69788103D01*
X131879135Y-69871546D01*
X131792141Y-69998866D01*
X131761536Y-70150000D01*
X131761536Y-71850000D01*
X131788103Y-71991190D01*
X131871546Y-72120865D01*
X131998866Y-72207859D01*
X132150000Y-72238464D01*
X133850000Y-72238464D01*
X133966600Y-72216524D01*
X133966600Y-72777360D01*
X133894565Y-72669552D01*
X133495200Y-72402704D01*
X133024117Y-72309000D01*
X132975883Y-72309000D01*
X132504800Y-72402704D01*
X132105435Y-72669552D01*
X131838587Y-73068917D01*
X131744883Y-73540000D01*
X131838587Y-74011083D01*
X132105435Y-74410448D01*
X132504800Y-74677296D01*
X132975883Y-74771000D01*
X133024117Y-74771000D01*
X133495200Y-74677296D01*
X133894565Y-74410448D01*
X133966600Y-74302640D01*
X133966600Y-74779058D01*
X133679685Y-75065973D01*
X133495200Y-74942704D01*
X133024117Y-74849000D01*
X132975883Y-74849000D01*
X132504800Y-74942704D01*
X132105435Y-75209552D01*
X131838587Y-75608917D01*
X131744883Y-76080000D01*
X131838587Y-76551083D01*
X131949182Y-76716600D01*
X131830005Y-76716600D01*
X131830000Y-76716599D01*
X131625877Y-76757203D01*
X131452829Y-76872829D01*
X131452827Y-76872832D01*
X130861577Y-77464081D01*
X130484117Y-77389000D01*
X130435883Y-77389000D01*
X129964800Y-77482704D01*
X129565435Y-77749552D01*
X129298587Y-78148917D01*
X129204883Y-78620000D01*
X129298587Y-79091083D01*
X129565435Y-79490448D01*
X129964800Y-79757296D01*
X130435883Y-79851000D01*
X130484117Y-79851000D01*
X130955200Y-79757296D01*
X131354565Y-79490448D01*
X131621413Y-79091083D01*
X131715117Y-78620000D01*
X131632033Y-78202308D01*
X132050941Y-77783400D01*
X132082818Y-77783400D01*
X131838587Y-78148917D01*
X131744883Y-78620000D01*
X131838587Y-79091083D01*
X132105435Y-79490448D01*
X132504800Y-79757296D01*
X132975883Y-79851000D01*
X133024117Y-79851000D01*
X133495200Y-79757296D01*
X133894565Y-79490448D01*
X134161413Y-79091083D01*
X134168279Y-79056566D01*
X134257171Y-78997171D01*
X134580783Y-78673559D01*
X136358602Y-78673559D01*
X136532246Y-79093812D01*
X136853497Y-79415623D01*
X136937176Y-79450369D01*
X136855188Y-79484246D01*
X136533377Y-79805497D01*
X136358999Y-80225446D01*
X136358602Y-80680159D01*
X136532246Y-81100412D01*
X136853497Y-81422223D01*
X136937176Y-81456969D01*
X136855188Y-81490846D01*
X136533377Y-81812097D01*
X136358999Y-82232046D01*
X136358602Y-82686759D01*
X136532246Y-83107012D01*
X136853497Y-83428823D01*
X136937176Y-83463569D01*
X136855188Y-83497446D01*
X136533377Y-83818697D01*
X136358999Y-84238646D01*
X136358602Y-84693359D01*
X136532246Y-85113612D01*
X136853497Y-85435423D01*
X136937176Y-85470169D01*
X136855188Y-85504046D01*
X136533377Y-85825297D01*
X136358999Y-86245246D01*
X136358602Y-86699959D01*
X136532246Y-87120212D01*
X136853497Y-87442023D01*
X136937176Y-87476769D01*
X136855188Y-87510646D01*
X136533377Y-87831897D01*
X136358999Y-88251846D01*
X136358602Y-88706559D01*
X136532246Y-89126812D01*
X136853497Y-89448623D01*
X136937176Y-89483369D01*
X136855188Y-89517246D01*
X136533377Y-89838497D01*
X136358999Y-90258446D01*
X136358602Y-90713159D01*
X136532246Y-91133412D01*
X136853497Y-91455223D01*
X136937176Y-91489969D01*
X136855188Y-91523846D01*
X136533377Y-91845097D01*
X136358999Y-92265046D01*
X136358602Y-92719759D01*
X136532246Y-93140012D01*
X136853497Y-93461823D01*
X136937176Y-93496569D01*
X136855188Y-93530446D01*
X136533377Y-93851697D01*
X136358999Y-94271646D01*
X136358602Y-94726359D01*
X136532246Y-95146612D01*
X136853497Y-95468423D01*
X137273446Y-95642801D01*
X137728159Y-95643198D01*
X138148412Y-95469554D01*
X138470223Y-95148303D01*
X138644601Y-94728354D01*
X138644998Y-94273641D01*
X138471354Y-93853388D01*
X138344547Y-93726359D01*
X153576802Y-93726359D01*
X153750446Y-94146612D01*
X154071697Y-94468423D01*
X154491646Y-94642801D01*
X154946359Y-94643198D01*
X155366612Y-94469554D01*
X155688423Y-94148303D01*
X155862801Y-93728354D01*
X155862802Y-93726359D01*
X156116802Y-93726359D01*
X156290446Y-94146612D01*
X156611697Y-94468423D01*
X157031646Y-94642801D01*
X157486359Y-94643198D01*
X157906612Y-94469554D01*
X158228423Y-94148303D01*
X158402801Y-93728354D01*
X158403198Y-93273641D01*
X158229554Y-92853388D01*
X157908303Y-92531577D01*
X157488354Y-92357199D01*
X157033641Y-92356802D01*
X156613388Y-92530446D01*
X156291577Y-92851697D01*
X156117199Y-93271646D01*
X156116802Y-93726359D01*
X155862802Y-93726359D01*
X155863198Y-93273641D01*
X155689554Y-92853388D01*
X155368303Y-92531577D01*
X154948354Y-92357199D01*
X154493641Y-92356802D01*
X154073388Y-92530446D01*
X153751577Y-92851697D01*
X153577199Y-93271646D01*
X153576802Y-93726359D01*
X138344547Y-93726359D01*
X138150103Y-93531577D01*
X138066424Y-93496831D01*
X138148412Y-93462954D01*
X138470223Y-93141703D01*
X138644601Y-92721754D01*
X138644998Y-92267041D01*
X138597487Y-92152055D01*
X140458168Y-90291373D01*
X140458171Y-90291371D01*
X140573797Y-90118323D01*
X140579630Y-90089000D01*
X140614401Y-89914200D01*
X140614400Y-89914195D01*
X140614400Y-72631000D01*
X140589775Y-72507203D01*
X140573797Y-72426876D01*
X140458171Y-72253829D01*
X139188464Y-70984122D01*
X139188464Y-70350000D01*
X139161897Y-70208810D01*
X139078454Y-70079135D01*
X138951134Y-69992141D01*
X138800000Y-69961536D01*
X138100000Y-69961536D01*
X137958810Y-69988103D01*
X137829135Y-70071546D01*
X137742141Y-70198866D01*
X137711536Y-70350000D01*
X137711536Y-71650000D01*
X137738103Y-71791190D01*
X137821546Y-71920865D01*
X137938798Y-72000980D01*
X137829135Y-72071546D01*
X137742141Y-72198866D01*
X137711536Y-72350000D01*
X137711536Y-73650000D01*
X137738103Y-73791190D01*
X137821546Y-73920865D01*
X137948866Y-74007859D01*
X138100000Y-74038464D01*
X138734122Y-74038464D01*
X138912600Y-74216942D01*
X138912600Y-88679058D01*
X138475242Y-89116416D01*
X138644601Y-88708554D01*
X138644998Y-88253841D01*
X138471354Y-87833588D01*
X138150103Y-87511777D01*
X138066424Y-87477031D01*
X138148412Y-87443154D01*
X138470223Y-87121903D01*
X138644601Y-86701954D01*
X138644998Y-86247241D01*
X138471354Y-85826988D01*
X138150103Y-85505177D01*
X138066424Y-85470431D01*
X138148412Y-85436554D01*
X138470223Y-85115303D01*
X138644601Y-84695354D01*
X138644998Y-84240641D01*
X138471354Y-83820388D01*
X138150103Y-83498577D01*
X138066424Y-83463831D01*
X138148412Y-83429954D01*
X138470223Y-83108703D01*
X138644601Y-82688754D01*
X138644998Y-82234041D01*
X138471354Y-81813788D01*
X138150103Y-81491977D01*
X138066424Y-81457231D01*
X138148412Y-81423354D01*
X138470223Y-81102103D01*
X138644601Y-80682154D01*
X138644998Y-80227441D01*
X138471354Y-79807188D01*
X138150103Y-79485377D01*
X138066424Y-79450631D01*
X138148412Y-79416754D01*
X138470223Y-79095503D01*
X138644601Y-78675554D01*
X138644998Y-78220841D01*
X138471354Y-77800588D01*
X138150103Y-77478777D01*
X138081112Y-77450130D01*
X138163355Y-77281760D01*
X137501800Y-76620205D01*
X136840245Y-77281760D01*
X136922369Y-77449887D01*
X136855188Y-77477646D01*
X136533377Y-77798897D01*
X136358999Y-78218846D01*
X136358602Y-78673559D01*
X134580783Y-78673559D01*
X135877171Y-77377171D01*
X135992797Y-77204123D01*
X136033400Y-77000000D01*
X136033400Y-76293655D01*
X136345709Y-76293655D01*
X136377478Y-76747257D01*
X136489944Y-77018776D01*
X136660640Y-77102155D01*
X137322195Y-76440600D01*
X137681405Y-76440600D01*
X138342960Y-77102155D01*
X138513656Y-77018776D01*
X138657891Y-76587545D01*
X138626122Y-76133943D01*
X138513656Y-75862424D01*
X138342960Y-75779045D01*
X137681405Y-76440600D01*
X137322195Y-76440600D01*
X136660640Y-75779045D01*
X136489944Y-75862424D01*
X136345709Y-76293655D01*
X136033400Y-76293655D01*
X136033400Y-75599440D01*
X136840245Y-75599440D01*
X137501800Y-76260995D01*
X138163355Y-75599440D01*
X138079976Y-75428744D01*
X137648745Y-75284509D01*
X137195143Y-75316278D01*
X136923624Y-75428744D01*
X136840245Y-75599440D01*
X136033400Y-75599440D01*
X136033400Y-74270942D01*
X136265878Y-74038464D01*
X136900000Y-74038464D01*
X137041190Y-74011897D01*
X137170865Y-73928454D01*
X137257859Y-73801134D01*
X137288464Y-73650000D01*
X137288464Y-72350000D01*
X137261897Y-72208810D01*
X137178454Y-72079135D01*
X137061202Y-71999020D01*
X137170865Y-71928454D01*
X137257859Y-71801134D01*
X137288464Y-71650000D01*
X137288464Y-70350000D01*
X137261897Y-70208810D01*
X137178454Y-70079135D01*
X137051134Y-69992141D01*
X136900000Y-69961536D01*
X136200000Y-69961536D01*
X136058810Y-69988103D01*
X135929135Y-70071546D01*
X135842141Y-70198866D01*
X135811536Y-70350000D01*
X135811536Y-71434122D01*
X135033400Y-72212258D01*
X135033400Y-69866361D01*
X142658975Y-69866361D01*
X142768950Y-70132521D01*
X142972408Y-70336335D01*
X143238376Y-70446774D01*
X143526361Y-70447025D01*
X143680345Y-70383400D01*
X143788536Y-70383400D01*
X143788536Y-70650000D01*
X143815103Y-70791190D01*
X143898546Y-70920865D01*
X144025866Y-71007859D01*
X144177000Y-71038464D01*
X145177000Y-71038464D01*
X145318190Y-71011897D01*
X145447865Y-70928454D01*
X145534859Y-70801134D01*
X145565464Y-70650000D01*
X145565464Y-69050000D01*
X145538897Y-68908810D01*
X145455454Y-68779135D01*
X145328134Y-68692141D01*
X145177000Y-68661536D01*
X144177000Y-68661536D01*
X144035810Y-68688103D01*
X143906135Y-68771546D01*
X143819141Y-68898866D01*
X143788536Y-69050000D01*
X143788536Y-69107566D01*
X143527624Y-68999226D01*
X143239639Y-68998975D01*
X142973479Y-69108950D01*
X142769665Y-69312408D01*
X142659226Y-69578376D01*
X142658975Y-69866361D01*
X135033400Y-69866361D01*
X135033400Y-68730942D01*
X137061236Y-66703106D01*
X137166359Y-66703198D01*
X137586612Y-66529554D01*
X137908423Y-66208303D01*
X138082801Y-65788354D01*
X138083198Y-65333641D01*
X137909554Y-64913388D01*
X137588303Y-64591577D01*
X137261797Y-64456000D01*
X139158774Y-64456000D01*
X138833388Y-64590446D01*
X138511577Y-64911697D01*
X138337199Y-65331646D01*
X138336802Y-65786359D01*
X138510446Y-66206612D01*
X138831697Y-66528423D01*
X139251646Y-66702801D01*
X139706359Y-66703198D01*
X140126612Y-66529554D01*
X140255229Y-66401160D01*
X141358445Y-66401160D01*
X141441824Y-66571856D01*
X141873055Y-66716091D01*
X142326657Y-66684322D01*
X142598176Y-66571856D01*
X142681555Y-66401160D01*
X142020000Y-65739605D01*
X141358445Y-66401160D01*
X140255229Y-66401160D01*
X140448423Y-66208303D01*
X140622801Y-65788354D01*
X140623128Y-65413055D01*
X140863909Y-65413055D01*
X140895678Y-65866657D01*
X141008144Y-66138176D01*
X141178840Y-66221555D01*
X141840395Y-65560000D01*
X142199605Y-65560000D01*
X142861160Y-66221555D01*
X143031856Y-66138176D01*
X143176091Y-65706945D01*
X143144322Y-65253343D01*
X143031856Y-64981824D01*
X142861160Y-64898445D01*
X142199605Y-65560000D01*
X141840395Y-65560000D01*
X141178840Y-64898445D01*
X141008144Y-64981824D01*
X140863909Y-65413055D01*
X140623128Y-65413055D01*
X140623198Y-65333641D01*
X140449554Y-64913388D01*
X140128303Y-64591577D01*
X139801797Y-64456000D01*
X141664281Y-64456000D01*
X141441824Y-64548144D01*
X141358445Y-64718840D01*
X142020000Y-65380395D01*
X142681555Y-64718840D01*
X142598176Y-64548144D01*
X142322686Y-64456000D01*
X144238774Y-64456000D01*
X143913388Y-64590446D01*
X143591577Y-64911697D01*
X143417199Y-65331646D01*
X143416802Y-65786359D01*
X143590446Y-66206612D01*
X143911697Y-66528423D01*
X144331646Y-66702801D01*
X144786359Y-66703198D01*
X145206612Y-66529554D01*
X145528423Y-66208303D01*
X145702801Y-65788354D01*
X145703198Y-65333641D01*
X145529554Y-64913388D01*
X145208303Y-64591577D01*
X144881797Y-64456000D01*
X146778774Y-64456000D01*
X146453388Y-64590446D01*
X146131577Y-64911697D01*
X145957199Y-65331646D01*
X145956802Y-65786359D01*
X146130446Y-66206612D01*
X146451697Y-66528423D01*
X146871646Y-66702801D01*
X147326359Y-66703198D01*
X147746612Y-66529554D01*
X148068423Y-66208303D01*
X148242801Y-65788354D01*
X148243198Y-65333641D01*
X148069554Y-64913388D01*
X147748303Y-64591577D01*
X147421797Y-64456000D01*
X149318774Y-64456000D01*
X148993388Y-64590446D01*
X148671577Y-64911697D01*
X148497199Y-65331646D01*
X148496802Y-65786359D01*
X148670446Y-66206612D01*
X148991697Y-66528423D01*
X149106600Y-66576135D01*
X149106600Y-66801058D01*
X147299829Y-68607829D01*
X147263943Y-68661536D01*
X147177000Y-68661536D01*
X147035810Y-68688103D01*
X146906135Y-68771546D01*
X146819141Y-68898866D01*
X146788536Y-69050000D01*
X146788536Y-70650000D01*
X146815103Y-70791190D01*
X146898546Y-70920865D01*
X147025866Y-71007859D01*
X147177000Y-71038464D01*
X148177000Y-71038464D01*
X148318190Y-71011897D01*
X148447865Y-70928454D01*
X148534859Y-70801134D01*
X148565464Y-70650000D01*
X148565464Y-69050000D01*
X148538897Y-68908810D01*
X148526617Y-68889725D01*
X150017171Y-67399171D01*
X150132797Y-67226124D01*
X150173400Y-67022000D01*
X150173400Y-66576332D01*
X150286612Y-66529554D01*
X150415229Y-66401160D01*
X151518445Y-66401160D01*
X151601824Y-66571856D01*
X152033055Y-66716091D01*
X152486657Y-66684322D01*
X152758176Y-66571856D01*
X152841555Y-66401160D01*
X152180000Y-65739605D01*
X151518445Y-66401160D01*
X150415229Y-66401160D01*
X150608423Y-66208303D01*
X150782801Y-65788354D01*
X150783128Y-65413055D01*
X151023909Y-65413055D01*
X151055678Y-65866657D01*
X151168144Y-66138176D01*
X151338840Y-66221555D01*
X152000395Y-65560000D01*
X152359605Y-65560000D01*
X153021160Y-66221555D01*
X153191856Y-66138176D01*
X153336091Y-65706945D01*
X153304322Y-65253343D01*
X153191856Y-64981824D01*
X153021160Y-64898445D01*
X152359605Y-65560000D01*
X152000395Y-65560000D01*
X151338840Y-64898445D01*
X151168144Y-64981824D01*
X151023909Y-65413055D01*
X150783128Y-65413055D01*
X150783198Y-65333641D01*
X150609554Y-64913388D01*
X150288303Y-64591577D01*
X149961797Y-64456000D01*
X151824281Y-64456000D01*
X151601824Y-64548144D01*
X151518445Y-64718840D01*
X152180000Y-65380395D01*
X152841555Y-64718840D01*
X152758176Y-64548144D01*
X152482686Y-64456000D01*
X154398774Y-64456000D01*
X154073388Y-64590446D01*
X153751577Y-64911697D01*
X153577199Y-65331646D01*
X153576802Y-65786359D01*
X153750446Y-66206612D01*
X154071697Y-66528423D01*
X154186600Y-66576135D01*
X154186600Y-67030600D01*
X151916000Y-67030600D01*
X151711877Y-67071203D01*
X151538829Y-67186829D01*
X150064122Y-68661536D01*
X149130000Y-68661536D01*
X148988810Y-68688103D01*
X148859135Y-68771546D01*
X148772141Y-68898866D01*
X148741536Y-69050000D01*
X148741536Y-70650000D01*
X148768103Y-70791190D01*
X148851546Y-70920865D01*
X148978866Y-71007859D01*
X149130000Y-71038464D01*
X150130000Y-71038464D01*
X150271190Y-71011897D01*
X150400865Y-70928454D01*
X150487859Y-70801134D01*
X150518464Y-70650000D01*
X150518464Y-69715878D01*
X152136942Y-68097400D01*
X153968258Y-68097400D01*
X153336017Y-68729641D01*
X153281134Y-68692141D01*
X153130000Y-68661536D01*
X152130000Y-68661536D01*
X151988810Y-68688103D01*
X151859135Y-68771546D01*
X151772141Y-68898866D01*
X151741536Y-69050000D01*
X151741536Y-70650000D01*
X151768103Y-70791190D01*
X151851546Y-70920865D01*
X151978866Y-71007859D01*
X152130000Y-71038464D01*
X153130000Y-71038464D01*
X153271190Y-71011897D01*
X153400865Y-70928454D01*
X153425557Y-70892316D01*
X155268657Y-70892316D01*
X155569611Y-71620680D01*
X156126389Y-72178431D01*
X156854226Y-72480655D01*
X157642316Y-72481343D01*
X158370680Y-72180389D01*
X158928431Y-71623611D01*
X159230655Y-70895774D01*
X159231343Y-70107684D01*
X158930389Y-69379320D01*
X158373611Y-68821569D01*
X157645774Y-68519345D01*
X156857684Y-68518657D01*
X156129320Y-68819611D01*
X155571569Y-69376389D01*
X155269345Y-70104226D01*
X155268657Y-70892316D01*
X153425557Y-70892316D01*
X153487859Y-70801134D01*
X153518464Y-70650000D01*
X153518464Y-70068091D01*
X153527797Y-70054123D01*
X153529679Y-70044663D01*
X156918516Y-66655826D01*
X157031646Y-66702801D01*
X157486359Y-66703198D01*
X157906612Y-66529554D01*
X158228423Y-66208303D01*
X158402801Y-65788354D01*
X158403198Y-65333641D01*
X158229554Y-64913388D01*
X157908303Y-64591577D01*
X157581797Y-64456000D01*
X160544000Y-64456000D01*
X160544000Y-75978518D01*
X160467754Y-75793988D01*
X160146503Y-75472177D01*
X159726554Y-75297799D01*
X159271841Y-75297402D01*
X158851588Y-75471046D01*
X158529777Y-75792297D01*
X158355399Y-76212246D01*
X158355002Y-76666959D01*
X158528646Y-77087212D01*
X158849897Y-77409023D01*
X158933576Y-77443769D01*
X158851588Y-77477646D01*
X158529777Y-77798897D01*
X158355399Y-78218846D01*
X158355002Y-78673559D01*
X158528646Y-79093812D01*
X158849897Y-79415623D01*
X158933576Y-79450369D01*
X158851588Y-79484246D01*
X158529777Y-79805497D01*
X158355399Y-80225446D01*
X158355002Y-80680159D01*
X158528646Y-81100412D01*
X158849897Y-81422223D01*
X158933576Y-81456969D01*
X158851588Y-81490846D01*
X158529777Y-81812097D01*
X158355399Y-82232046D01*
X158355002Y-82686759D01*
X158528646Y-83107012D01*
X158849897Y-83428823D01*
X158933576Y-83463569D01*
X158851588Y-83497446D01*
X158529777Y-83818697D01*
X158355399Y-84238646D01*
X158355002Y-84693359D01*
X158528646Y-85113612D01*
X158849897Y-85435423D01*
X158933576Y-85470169D01*
X158851588Y-85504046D01*
X158529777Y-85825297D01*
X158355399Y-86245246D01*
X158355002Y-86699959D01*
X158528646Y-87120212D01*
X158849897Y-87442023D01*
X158933576Y-87476769D01*
X158851588Y-87510646D01*
X158529777Y-87831897D01*
X158355399Y-88251846D01*
X158355002Y-88706559D01*
X158528646Y-89126812D01*
X158849897Y-89448623D01*
X158933576Y-89483369D01*
X158851588Y-89517246D01*
X158529777Y-89838497D01*
X158355399Y-90258446D01*
X158355002Y-90713159D01*
X158528646Y-91133412D01*
X158849897Y-91455223D01*
X158933576Y-91489969D01*
X158851588Y-91523846D01*
X158529777Y-91845097D01*
X158355399Y-92265046D01*
X158355002Y-92719759D01*
X158528646Y-93140012D01*
X158849897Y-93461823D01*
X158933576Y-93496569D01*
X158851588Y-93530446D01*
X158529777Y-93851697D01*
X158355399Y-94271646D01*
X158355002Y-94726359D01*
X158528646Y-95146612D01*
X158849897Y-95468423D01*
X159269846Y-95642801D01*
X159724559Y-95643198D01*
X160144812Y-95469554D01*
X160466623Y-95148303D01*
X160544000Y-94961958D01*
X160544000Y-102044000D01*
X107956000Y-102044000D01*
X107956000Y-99142316D01*
X110018657Y-99142316D01*
X110319611Y-99870680D01*
X110876389Y-100428431D01*
X111604226Y-100730655D01*
X112392316Y-100731343D01*
X113120680Y-100430389D01*
X113678431Y-99873611D01*
X113980655Y-99145774D01*
X113981343Y-98357684D01*
X113680389Y-97629320D01*
X113123611Y-97071569D01*
X112395774Y-96769345D01*
X111607684Y-96768657D01*
X110879320Y-97069611D01*
X110321569Y-97626389D01*
X110019345Y-98354226D01*
X110018657Y-99142316D01*
X107956000Y-99142316D01*
X107956000Y-93966438D01*
X108030446Y-94146612D01*
X108351697Y-94468423D01*
X108771646Y-94642801D01*
X109226359Y-94643198D01*
X109646612Y-94469554D01*
X109968423Y-94148303D01*
X110142801Y-93728354D01*
X110142802Y-93726359D01*
X110396802Y-93726359D01*
X110570446Y-94146612D01*
X110891697Y-94468423D01*
X111311646Y-94642801D01*
X111766359Y-94643198D01*
X112186612Y-94469554D01*
X112508423Y-94148303D01*
X112682801Y-93728354D01*
X112683198Y-93273641D01*
X112509554Y-92853388D01*
X112188303Y-92531577D01*
X111768354Y-92357199D01*
X111313641Y-92356802D01*
X110893388Y-92530446D01*
X110571577Y-92851697D01*
X110397199Y-93271646D01*
X110396802Y-93726359D01*
X110142802Y-93726359D01*
X110143198Y-93273641D01*
X109969554Y-92853388D01*
X109648303Y-92531577D01*
X109228354Y-92357199D01*
X108773641Y-92356802D01*
X108353388Y-92530446D01*
X108031577Y-92851697D01*
X107956000Y-93033707D01*
X107956000Y-87150000D01*
X108861536Y-87150000D01*
X108861536Y-90650000D01*
X108888103Y-90791190D01*
X108971546Y-90920865D01*
X109098866Y-91007859D01*
X109250000Y-91038464D01*
X112750000Y-91038464D01*
X112891190Y-91011897D01*
X113020865Y-90928454D01*
X113107859Y-90801134D01*
X113138464Y-90650000D01*
X113138464Y-89608332D01*
X115864200Y-92334068D01*
X115864200Y-92348982D01*
X115829135Y-92371546D01*
X115742141Y-92498866D01*
X115711536Y-92650000D01*
X115711536Y-94350000D01*
X115738103Y-94491190D01*
X115821546Y-94620865D01*
X115864200Y-94650009D01*
X115864200Y-96550000D01*
X115916403Y-96812445D01*
X116065066Y-97034934D01*
X119515066Y-100484934D01*
X119737555Y-100633597D01*
X120000000Y-100685800D01*
X120261536Y-100685800D01*
X120261536Y-100850000D01*
X120288103Y-100991190D01*
X120371546Y-101120865D01*
X120498866Y-101207859D01*
X120650000Y-101238464D01*
X122350000Y-101238464D01*
X122491190Y-101211897D01*
X122620865Y-101128454D01*
X122707859Y-101001134D01*
X122738464Y-100850000D01*
X122738464Y-100222250D01*
X123769000Y-100222250D01*
X123769000Y-100925785D01*
X123827004Y-101065819D01*
X123934180Y-101172996D01*
X124074214Y-101231000D01*
X124777750Y-101231000D01*
X124873000Y-101135750D01*
X124873000Y-100127000D01*
X125127000Y-100127000D01*
X125127000Y-101135750D01*
X125222250Y-101231000D01*
X125925786Y-101231000D01*
X126065820Y-101172996D01*
X126172996Y-101065819D01*
X126231000Y-100925785D01*
X126231000Y-100222250D01*
X126135750Y-100127000D01*
X125127000Y-100127000D01*
X124873000Y-100127000D01*
X123864250Y-100127000D01*
X123769000Y-100222250D01*
X122738464Y-100222250D01*
X122738464Y-99150000D01*
X122724204Y-99074215D01*
X123769000Y-99074215D01*
X123769000Y-99777750D01*
X123864250Y-99873000D01*
X124873000Y-99873000D01*
X124873000Y-98864250D01*
X125127000Y-98864250D01*
X125127000Y-99873000D01*
X126135750Y-99873000D01*
X126231000Y-99777750D01*
X126231000Y-99074215D01*
X126172996Y-98934181D01*
X126065820Y-98827004D01*
X125925786Y-98769000D01*
X125222250Y-98769000D01*
X125127000Y-98864250D01*
X124873000Y-98864250D01*
X124777750Y-98769000D01*
X124074214Y-98769000D01*
X123934180Y-98827004D01*
X123827004Y-98934181D01*
X123769000Y-99074215D01*
X122724204Y-99074215D01*
X122711897Y-99008810D01*
X122628454Y-98879135D01*
X122501134Y-98792141D01*
X122350000Y-98761536D01*
X120650000Y-98761536D01*
X120508810Y-98788103D01*
X120379135Y-98871546D01*
X120292141Y-98998866D01*
X120261536Y-99150000D01*
X120261536Y-99291668D01*
X119619868Y-98650000D01*
X131261536Y-98650000D01*
X131261536Y-100350000D01*
X131288103Y-100491190D01*
X131371546Y-100620865D01*
X131498866Y-100707859D01*
X131650000Y-100738464D01*
X133350000Y-100738464D01*
X133491190Y-100711897D01*
X133620865Y-100628454D01*
X133707859Y-100501134D01*
X133738464Y-100350000D01*
X133738464Y-99816982D01*
X133850499Y-99816982D01*
X134062348Y-100248056D01*
X134423036Y-100565245D01*
X134723020Y-100689489D01*
X134913000Y-100628627D01*
X134913000Y-99627000D01*
X135167000Y-99627000D01*
X135167000Y-100628627D01*
X135356980Y-100689489D01*
X135656964Y-100565245D01*
X136017652Y-100248056D01*
X136229501Y-99816982D01*
X136169193Y-99627000D01*
X135167000Y-99627000D01*
X134913000Y-99627000D01*
X133910807Y-99627000D01*
X133850499Y-99816982D01*
X133738464Y-99816982D01*
X133738464Y-99183018D01*
X133850499Y-99183018D01*
X133910807Y-99373000D01*
X134913000Y-99373000D01*
X134913000Y-98371373D01*
X135167000Y-98371373D01*
X135167000Y-99373000D01*
X136169193Y-99373000D01*
X136229501Y-99183018D01*
X136017652Y-98751944D01*
X135656964Y-98434755D01*
X135356980Y-98310511D01*
X135167000Y-98371373D01*
X134913000Y-98371373D01*
X134723020Y-98310511D01*
X134423036Y-98434755D01*
X134062348Y-98751944D01*
X133850499Y-99183018D01*
X133738464Y-99183018D01*
X133738464Y-98650000D01*
X133711897Y-98508810D01*
X133628454Y-98379135D01*
X133501134Y-98292141D01*
X133350000Y-98261536D01*
X131650000Y-98261536D01*
X131508810Y-98288103D01*
X131379135Y-98371546D01*
X131292141Y-98498866D01*
X131261536Y-98650000D01*
X119619868Y-98650000D01*
X117235800Y-96265932D01*
X117235800Y-94651018D01*
X117270865Y-94628454D01*
X117357859Y-94501134D01*
X117388464Y-94350000D01*
X117388464Y-92650000D01*
X118611536Y-92650000D01*
X118611536Y-94350000D01*
X118638103Y-94491190D01*
X118721546Y-94620865D01*
X118848866Y-94707859D01*
X119000000Y-94738464D01*
X119900000Y-94738464D01*
X120041190Y-94711897D01*
X120170865Y-94628454D01*
X120257859Y-94501134D01*
X120288464Y-94350000D01*
X120288464Y-94185800D01*
X121211536Y-94185800D01*
X121211536Y-94350000D01*
X121238103Y-94491190D01*
X121321546Y-94620865D01*
X121364200Y-94650009D01*
X121364200Y-95012089D01*
X121358810Y-95013103D01*
X121229135Y-95096546D01*
X121142141Y-95223866D01*
X121111536Y-95375000D01*
X121111536Y-96625000D01*
X121138103Y-96766190D01*
X121221546Y-96895865D01*
X121348866Y-96982859D01*
X121500000Y-97013464D01*
X122500000Y-97013464D01*
X122641190Y-96986897D01*
X122770865Y-96903454D01*
X122857859Y-96776134D01*
X122888464Y-96625000D01*
X122888464Y-96222250D01*
X123119000Y-96222250D01*
X123119000Y-96700785D01*
X123177004Y-96840819D01*
X123284180Y-96947996D01*
X123424214Y-97006000D01*
X123777750Y-97006000D01*
X123873000Y-96910750D01*
X123873000Y-96127000D01*
X124127000Y-96127000D01*
X124127000Y-96910750D01*
X124222250Y-97006000D01*
X124575786Y-97006000D01*
X124715820Y-96947996D01*
X124822996Y-96840819D01*
X124881000Y-96700785D01*
X124881000Y-96222250D01*
X124785750Y-96127000D01*
X124127000Y-96127000D01*
X123873000Y-96127000D01*
X123214250Y-96127000D01*
X123119000Y-96222250D01*
X122888464Y-96222250D01*
X122888464Y-95375000D01*
X122874204Y-95299215D01*
X123119000Y-95299215D01*
X123119000Y-95777750D01*
X123214250Y-95873000D01*
X123873000Y-95873000D01*
X123873000Y-95089250D01*
X124127000Y-95089250D01*
X124127000Y-95873000D01*
X124785750Y-95873000D01*
X124881000Y-95777750D01*
X124881000Y-95299215D01*
X124822996Y-95159181D01*
X124715820Y-95052004D01*
X124575786Y-94994000D01*
X124222250Y-94994000D01*
X124127000Y-95089250D01*
X123873000Y-95089250D01*
X123777750Y-94994000D01*
X123424214Y-94994000D01*
X123284180Y-95052004D01*
X123177004Y-95159181D01*
X123119000Y-95299215D01*
X122874204Y-95299215D01*
X122861897Y-95233810D01*
X122778454Y-95104135D01*
X122735800Y-95074991D01*
X122735800Y-94651018D01*
X122770865Y-94628454D01*
X122857859Y-94501134D01*
X122888464Y-94350000D01*
X122888464Y-93722250D01*
X124119000Y-93722250D01*
X124119000Y-94425785D01*
X124177004Y-94565819D01*
X124284180Y-94672996D01*
X124424214Y-94731000D01*
X124727750Y-94731000D01*
X124823000Y-94635750D01*
X124823000Y-93627000D01*
X125077000Y-93627000D01*
X125077000Y-94635750D01*
X125172250Y-94731000D01*
X125475786Y-94731000D01*
X125615820Y-94672996D01*
X125722996Y-94565819D01*
X125781000Y-94425785D01*
X125781000Y-94176980D01*
X131810511Y-94176980D01*
X131934755Y-94476964D01*
X132251944Y-94837652D01*
X132683018Y-95049501D01*
X132873000Y-94989193D01*
X132873000Y-93987000D01*
X133127000Y-93987000D01*
X133127000Y-94989193D01*
X133316982Y-95049501D01*
X133748056Y-94837652D01*
X134065245Y-94476964D01*
X134189489Y-94176980D01*
X134128627Y-93987000D01*
X133127000Y-93987000D01*
X132873000Y-93987000D01*
X131871373Y-93987000D01*
X131810511Y-94176980D01*
X125781000Y-94176980D01*
X125781000Y-93722250D01*
X125685750Y-93627000D01*
X125077000Y-93627000D01*
X124823000Y-93627000D01*
X124214250Y-93627000D01*
X124119000Y-93722250D01*
X122888464Y-93722250D01*
X122888464Y-93543020D01*
X131810511Y-93543020D01*
X131871373Y-93733000D01*
X132873000Y-93733000D01*
X132873000Y-92730807D01*
X133127000Y-92730807D01*
X133127000Y-93733000D01*
X134128627Y-93733000D01*
X134189489Y-93543020D01*
X134065245Y-93243036D01*
X133748056Y-92882348D01*
X133316982Y-92670499D01*
X133127000Y-92730807D01*
X132873000Y-92730807D01*
X132683018Y-92670499D01*
X132251944Y-92882348D01*
X131934755Y-93243036D01*
X131810511Y-93543020D01*
X122888464Y-93543020D01*
X122888464Y-93415878D01*
X123730126Y-92574215D01*
X124119000Y-92574215D01*
X124119000Y-93277750D01*
X124214250Y-93373000D01*
X124823000Y-93373000D01*
X124823000Y-92364250D01*
X125077000Y-92364250D01*
X125077000Y-93373000D01*
X125685750Y-93373000D01*
X125781000Y-93277750D01*
X125781000Y-92574215D01*
X125722996Y-92434181D01*
X125615820Y-92327004D01*
X125475786Y-92269000D01*
X125172250Y-92269000D01*
X125077000Y-92364250D01*
X124823000Y-92364250D01*
X124727750Y-92269000D01*
X124424214Y-92269000D01*
X124284180Y-92327004D01*
X124177004Y-92434181D01*
X124119000Y-92574215D01*
X123730126Y-92574215D01*
X125770941Y-90533400D01*
X129509409Y-90533400D01*
X129298587Y-90848917D01*
X129204883Y-91320000D01*
X129298587Y-91791083D01*
X129565435Y-92190448D01*
X129964800Y-92457296D01*
X130435883Y-92551000D01*
X130484117Y-92551000D01*
X130955200Y-92457296D01*
X131354565Y-92190448D01*
X131621413Y-91791083D01*
X131715117Y-91320000D01*
X131621413Y-90848917D01*
X131410591Y-90533400D01*
X131750000Y-90533400D01*
X131954123Y-90492797D01*
X132127171Y-90377171D01*
X132573400Y-89930941D01*
X132975883Y-90011000D01*
X133024117Y-90011000D01*
X133495200Y-89917296D01*
X133894565Y-89650448D01*
X134161413Y-89251083D01*
X134255117Y-88780000D01*
X134161413Y-88308917D01*
X133977318Y-88033400D01*
X134029058Y-88033400D01*
X134466600Y-88470942D01*
X134466600Y-89529058D01*
X133685679Y-90309979D01*
X133495200Y-90182704D01*
X133024117Y-90089000D01*
X132975883Y-90089000D01*
X132504800Y-90182704D01*
X132105435Y-90449552D01*
X131838587Y-90848917D01*
X131744883Y-91320000D01*
X131838587Y-91791083D01*
X132105435Y-92190448D01*
X132504800Y-92457296D01*
X132975883Y-92551000D01*
X133024117Y-92551000D01*
X133495200Y-92457296D01*
X133894565Y-92190448D01*
X134161413Y-91791083D01*
X134255117Y-91320000D01*
X134243375Y-91260967D01*
X135377171Y-90127171D01*
X135492797Y-89954124D01*
X135533400Y-89750000D01*
X135533400Y-88250000D01*
X135492797Y-88045877D01*
X135377171Y-87872829D01*
X134627171Y-87122829D01*
X134454123Y-87007203D01*
X134250000Y-86966600D01*
X133990681Y-86966600D01*
X134161413Y-86711083D01*
X134255117Y-86240000D01*
X134161413Y-85768917D01*
X133894565Y-85369552D01*
X133495200Y-85102704D01*
X133024117Y-85009000D01*
X132975883Y-85009000D01*
X132504800Y-85102704D01*
X132105435Y-85369552D01*
X131838587Y-85768917D01*
X131744883Y-86240000D01*
X131838587Y-86711083D01*
X132009319Y-86966600D01*
X131450681Y-86966600D01*
X131621413Y-86711083D01*
X131715117Y-86240000D01*
X131621413Y-85768917D01*
X131354565Y-85369552D01*
X130955200Y-85102704D01*
X130484117Y-85009000D01*
X130435883Y-85009000D01*
X129964800Y-85102704D01*
X129565435Y-85369552D01*
X129298587Y-85768917D01*
X129204883Y-86240000D01*
X129298587Y-86711083D01*
X129469319Y-86966600D01*
X125170942Y-86966600D01*
X122688464Y-84484122D01*
X122688464Y-83850000D01*
X122661897Y-83708810D01*
X122656228Y-83700000D01*
X129204883Y-83700000D01*
X129298587Y-84171083D01*
X129565435Y-84570448D01*
X129964800Y-84837296D01*
X130435883Y-84931000D01*
X130484117Y-84931000D01*
X130955200Y-84837296D01*
X131354565Y-84570448D01*
X131621413Y-84171083D01*
X131715117Y-83700000D01*
X131621413Y-83228917D01*
X131354565Y-82829552D01*
X130955200Y-82562704D01*
X130484117Y-82469000D01*
X130435883Y-82469000D01*
X129964800Y-82562704D01*
X129565435Y-82829552D01*
X129298587Y-83228917D01*
X129204883Y-83700000D01*
X122656228Y-83700000D01*
X122578454Y-83579135D01*
X122451134Y-83492141D01*
X122300000Y-83461536D01*
X121600000Y-83461536D01*
X121458810Y-83488103D01*
X121329135Y-83571546D01*
X121242141Y-83698866D01*
X121211536Y-83850000D01*
X121211536Y-85150000D01*
X121238103Y-85291190D01*
X121321546Y-85420865D01*
X121448866Y-85507859D01*
X121600000Y-85538464D01*
X122234122Y-85538464D01*
X124572829Y-87877171D01*
X124745877Y-87992797D01*
X124950000Y-88033401D01*
X124950005Y-88033400D01*
X129482682Y-88033400D01*
X129298587Y-88308917D01*
X129204883Y-88780000D01*
X129298587Y-89251083D01*
X129442591Y-89466600D01*
X125550000Y-89466600D01*
X125345876Y-89507203D01*
X125306375Y-89533597D01*
X125172829Y-89622829D01*
X125172827Y-89622832D01*
X122528376Y-92267282D01*
X122500000Y-92261536D01*
X121600000Y-92261536D01*
X121458810Y-92288103D01*
X121329135Y-92371546D01*
X121242141Y-92498866D01*
X121211536Y-92650000D01*
X121211536Y-92814200D01*
X120288464Y-92814200D01*
X120288464Y-92650000D01*
X120261897Y-92508810D01*
X120178454Y-92379135D01*
X120051134Y-92292141D01*
X119900000Y-92261536D01*
X119000000Y-92261536D01*
X118858810Y-92288103D01*
X118729135Y-92371546D01*
X118642141Y-92498866D01*
X118611536Y-92650000D01*
X117388464Y-92650000D01*
X117361897Y-92508810D01*
X117278454Y-92379135D01*
X117235800Y-92349991D01*
X117235800Y-92050000D01*
X117183597Y-91787556D01*
X117183597Y-91787555D01*
X117034934Y-91565066D01*
X115342118Y-89872250D01*
X116519000Y-89872250D01*
X116519000Y-90175786D01*
X116577004Y-90315820D01*
X116684181Y-90422996D01*
X116824215Y-90481000D01*
X117277750Y-90481000D01*
X117373000Y-90385750D01*
X117373000Y-89777000D01*
X117627000Y-89777000D01*
X117627000Y-90385750D01*
X117722250Y-90481000D01*
X118175785Y-90481000D01*
X118315819Y-90422996D01*
X118422996Y-90315820D01*
X118481000Y-90175786D01*
X118481000Y-89872250D01*
X118385750Y-89777000D01*
X117627000Y-89777000D01*
X117373000Y-89777000D01*
X116614250Y-89777000D01*
X116519000Y-89872250D01*
X115342118Y-89872250D01*
X114594082Y-89124214D01*
X116519000Y-89124214D01*
X116519000Y-89427750D01*
X116614250Y-89523000D01*
X117373000Y-89523000D01*
X117373000Y-88914250D01*
X117627000Y-88914250D01*
X117627000Y-89523000D01*
X118385750Y-89523000D01*
X118481000Y-89427750D01*
X118481000Y-89124214D01*
X118422996Y-88984180D01*
X118315819Y-88877004D01*
X118175785Y-88819000D01*
X117722250Y-88819000D01*
X117627000Y-88914250D01*
X117373000Y-88914250D01*
X117277750Y-88819000D01*
X116824215Y-88819000D01*
X116684181Y-88877004D01*
X116577004Y-88984180D01*
X116519000Y-89124214D01*
X114594082Y-89124214D01*
X113884934Y-88415066D01*
X113662445Y-88266403D01*
X113400000Y-88214200D01*
X113138464Y-88214200D01*
X113138464Y-87150000D01*
X113111897Y-87008810D01*
X113028454Y-86879135D01*
X112901134Y-86792141D01*
X112750000Y-86761536D01*
X109250000Y-86761536D01*
X109108810Y-86788103D01*
X108979135Y-86871546D01*
X108892141Y-86998866D01*
X108861536Y-87150000D01*
X107956000Y-87150000D01*
X107956000Y-80350000D01*
X108861536Y-80350000D01*
X108861536Y-83850000D01*
X108888103Y-83991190D01*
X108971546Y-84120865D01*
X109098866Y-84207859D01*
X109250000Y-84238464D01*
X112750000Y-84238464D01*
X112891190Y-84211897D01*
X113020865Y-84128454D01*
X113107859Y-84001134D01*
X113138464Y-83850000D01*
X113138464Y-82785800D01*
X113815932Y-82785800D01*
X116642852Y-85612720D01*
X116629135Y-85621546D01*
X116542141Y-85748866D01*
X116511536Y-85900000D01*
X116511536Y-86800000D01*
X116538103Y-86941190D01*
X116621546Y-87070865D01*
X116748866Y-87157859D01*
X116900000Y-87188464D01*
X118100000Y-87188464D01*
X118241190Y-87161897D01*
X118370865Y-87078454D01*
X118457859Y-86951134D01*
X118488464Y-86800000D01*
X118488464Y-85900000D01*
X118461897Y-85758810D01*
X118378454Y-85629135D01*
X118251134Y-85542141D01*
X118185800Y-85528911D01*
X118185800Y-85500000D01*
X118170059Y-85420865D01*
X118133597Y-85237555D01*
X117984934Y-85015066D01*
X114584934Y-81615066D01*
X114362445Y-81466403D01*
X114100000Y-81414200D01*
X113138464Y-81414200D01*
X113138464Y-80925000D01*
X116906536Y-80925000D01*
X116906536Y-82475000D01*
X116933103Y-82616190D01*
X117016546Y-82745865D01*
X117143866Y-82832859D01*
X117295000Y-82863464D01*
X117895000Y-82863464D01*
X118036190Y-82836897D01*
X118165865Y-82753454D01*
X118230530Y-82658813D01*
X118286546Y-82745865D01*
X118413866Y-82832859D01*
X118565000Y-82863464D01*
X119165000Y-82863464D01*
X119306190Y-82836897D01*
X119435865Y-82753454D01*
X119500530Y-82658813D01*
X119516600Y-82683787D01*
X119516600Y-83515264D01*
X119429135Y-83571546D01*
X119342141Y-83698866D01*
X119311536Y-83850000D01*
X119311536Y-85150000D01*
X119338103Y-85291190D01*
X119421546Y-85420865D01*
X119548866Y-85507859D01*
X119700000Y-85538464D01*
X120400000Y-85538464D01*
X120541190Y-85511897D01*
X120670865Y-85428454D01*
X120757859Y-85301134D01*
X120788464Y-85150000D01*
X120788464Y-83850000D01*
X120761897Y-83708810D01*
X120678454Y-83579135D01*
X120583400Y-83514187D01*
X120583400Y-82832258D01*
X120705865Y-82753454D01*
X120769420Y-82660439D01*
X120782004Y-82690820D01*
X120889181Y-82797996D01*
X121029215Y-82856000D01*
X121182750Y-82856000D01*
X121278000Y-82760750D01*
X121278000Y-81827000D01*
X121532000Y-81827000D01*
X121532000Y-82760750D01*
X121627250Y-82856000D01*
X121780785Y-82856000D01*
X121920819Y-82797996D01*
X122027996Y-82690820D01*
X122086000Y-82550786D01*
X122086000Y-81922250D01*
X121990750Y-81827000D01*
X121532000Y-81827000D01*
X121278000Y-81827000D01*
X121258000Y-81827000D01*
X121258000Y-81573000D01*
X121278000Y-81573000D01*
X121278000Y-80639250D01*
X121532000Y-80639250D01*
X121532000Y-81573000D01*
X121990750Y-81573000D01*
X122086000Y-81477750D01*
X122086000Y-81476980D01*
X129270511Y-81476980D01*
X129394755Y-81776964D01*
X129711944Y-82137652D01*
X130143018Y-82349501D01*
X130333000Y-82289193D01*
X130333000Y-81287000D01*
X130587000Y-81287000D01*
X130587000Y-82289193D01*
X130776982Y-82349501D01*
X131208056Y-82137652D01*
X131525245Y-81776964D01*
X131649489Y-81476980D01*
X131588627Y-81287000D01*
X130587000Y-81287000D01*
X130333000Y-81287000D01*
X129331373Y-81287000D01*
X129270511Y-81476980D01*
X122086000Y-81476980D01*
X122086000Y-80849214D01*
X122083435Y-80843020D01*
X129270511Y-80843020D01*
X129331373Y-81033000D01*
X130333000Y-81033000D01*
X130333000Y-80030807D01*
X130587000Y-80030807D01*
X130587000Y-81033000D01*
X131588627Y-81033000D01*
X131649489Y-80843020D01*
X131525245Y-80543036D01*
X131208056Y-80182348D01*
X130776982Y-79970499D01*
X130587000Y-80030807D01*
X130333000Y-80030807D01*
X130143018Y-79970499D01*
X129711944Y-80182348D01*
X129394755Y-80543036D01*
X129270511Y-80843020D01*
X122083435Y-80843020D01*
X122027996Y-80709180D01*
X121920819Y-80602004D01*
X121780785Y-80544000D01*
X121627250Y-80544000D01*
X121532000Y-80639250D01*
X121278000Y-80639250D01*
X121182750Y-80544000D01*
X121029215Y-80544000D01*
X120889181Y-80602004D01*
X120782004Y-80709180D01*
X120769030Y-80740503D01*
X120713454Y-80654135D01*
X120586134Y-80567141D01*
X120435000Y-80536536D01*
X119835000Y-80536536D01*
X119693810Y-80563103D01*
X119564135Y-80646546D01*
X119499470Y-80741187D01*
X119443454Y-80654135D01*
X119398400Y-80623351D01*
X119398400Y-79855942D01*
X119530415Y-79723927D01*
X119643361Y-79724025D01*
X119909521Y-79614050D01*
X120113335Y-79410592D01*
X120223774Y-79144624D01*
X120224025Y-78856639D01*
X120114050Y-78590479D01*
X119910592Y-78386665D01*
X119644624Y-78276226D01*
X119356639Y-78275975D01*
X119090479Y-78385950D01*
X118886665Y-78589408D01*
X118776226Y-78855376D01*
X118776127Y-78969532D01*
X118487829Y-79257829D01*
X118403666Y-79383789D01*
X118144624Y-79276226D01*
X117856639Y-79275975D01*
X117590479Y-79385950D01*
X117386665Y-79589408D01*
X117276226Y-79855376D01*
X117276127Y-79969532D01*
X117217829Y-80027829D01*
X117102203Y-80200877D01*
X117061600Y-80405000D01*
X117061600Y-80622438D01*
X117024135Y-80646546D01*
X116937141Y-80773866D01*
X116906536Y-80925000D01*
X113138464Y-80925000D01*
X113138464Y-80350000D01*
X113111897Y-80208810D01*
X113028454Y-80079135D01*
X112901134Y-79992141D01*
X112750000Y-79961536D01*
X109250000Y-79961536D01*
X109108810Y-79988103D01*
X108979135Y-80071546D01*
X108892141Y-80198866D01*
X108861536Y-80350000D01*
X107956000Y-80350000D01*
X107956000Y-76143361D01*
X115275975Y-76143361D01*
X115385950Y-76409521D01*
X115589408Y-76613335D01*
X115855376Y-76723774D01*
X115992755Y-76723894D01*
X116095877Y-76792797D01*
X116300000Y-76833400D01*
X116906536Y-76833400D01*
X116906536Y-77075000D01*
X116933103Y-77216190D01*
X117016546Y-77345865D01*
X117143866Y-77432859D01*
X117295000Y-77463464D01*
X117895000Y-77463464D01*
X118036190Y-77436897D01*
X118165865Y-77353454D01*
X118230530Y-77258813D01*
X118286546Y-77345865D01*
X118413866Y-77432859D01*
X118565000Y-77463464D01*
X119165000Y-77463464D01*
X119306190Y-77436897D01*
X119435865Y-77353454D01*
X119500530Y-77258813D01*
X119556546Y-77345865D01*
X119683866Y-77432859D01*
X119835000Y-77463464D01*
X120435000Y-77463464D01*
X120576190Y-77436897D01*
X120705865Y-77353454D01*
X120770530Y-77258813D01*
X120826546Y-77345865D01*
X120953866Y-77432859D01*
X121105000Y-77463464D01*
X121705000Y-77463464D01*
X121846190Y-77436897D01*
X121975865Y-77353454D01*
X122062859Y-77226134D01*
X122093464Y-77075000D01*
X122093464Y-76833400D01*
X122629058Y-76833400D01*
X122811536Y-77015878D01*
X122811536Y-77650000D01*
X122838103Y-77791190D01*
X122921546Y-77920865D01*
X123048866Y-78007859D01*
X123200000Y-78038464D01*
X123900000Y-78038464D01*
X124041190Y-78011897D01*
X124170865Y-77928454D01*
X124257859Y-77801134D01*
X124288464Y-77650000D01*
X124288464Y-77222250D01*
X124719000Y-77222250D01*
X124719000Y-77725785D01*
X124777004Y-77865819D01*
X124884180Y-77972996D01*
X125024214Y-78031000D01*
X125227750Y-78031000D01*
X125323000Y-77935750D01*
X125323000Y-77127000D01*
X125577000Y-77127000D01*
X125577000Y-77935750D01*
X125672250Y-78031000D01*
X125875786Y-78031000D01*
X126015820Y-77972996D01*
X126122996Y-77865819D01*
X126181000Y-77725785D01*
X126181000Y-77222250D01*
X126085750Y-77127000D01*
X125577000Y-77127000D01*
X125323000Y-77127000D01*
X124814250Y-77127000D01*
X124719000Y-77222250D01*
X124288464Y-77222250D01*
X124288464Y-76350000D01*
X124274204Y-76274215D01*
X124719000Y-76274215D01*
X124719000Y-76777750D01*
X124814250Y-76873000D01*
X125323000Y-76873000D01*
X125323000Y-76064250D01*
X125577000Y-76064250D01*
X125577000Y-76873000D01*
X126085750Y-76873000D01*
X126181000Y-76777750D01*
X126181000Y-76274215D01*
X126122996Y-76134181D01*
X126068816Y-76080000D01*
X129204883Y-76080000D01*
X129298587Y-76551083D01*
X129565435Y-76950448D01*
X129964800Y-77217296D01*
X130435883Y-77311000D01*
X130484117Y-77311000D01*
X130955200Y-77217296D01*
X131354565Y-76950448D01*
X131621413Y-76551083D01*
X131715117Y-76080000D01*
X131621413Y-75608917D01*
X131354565Y-75209552D01*
X130955200Y-74942704D01*
X130484117Y-74849000D01*
X130435883Y-74849000D01*
X129964800Y-74942704D01*
X129565435Y-75209552D01*
X129298587Y-75608917D01*
X129204883Y-76080000D01*
X126068816Y-76080000D01*
X126015820Y-76027004D01*
X125875786Y-75969000D01*
X125672250Y-75969000D01*
X125577000Y-76064250D01*
X125323000Y-76064250D01*
X125227750Y-75969000D01*
X125024214Y-75969000D01*
X124884180Y-76027004D01*
X124777004Y-76134181D01*
X124719000Y-76274215D01*
X124274204Y-76274215D01*
X124261897Y-76208810D01*
X124178454Y-76079135D01*
X124051134Y-75992141D01*
X123900000Y-75961536D01*
X123265878Y-75961536D01*
X123227171Y-75922829D01*
X123054123Y-75807203D01*
X122850000Y-75766600D01*
X122093464Y-75766600D01*
X122093464Y-75525000D01*
X122066897Y-75383810D01*
X121983454Y-75254135D01*
X121856134Y-75167141D01*
X121705000Y-75136536D01*
X121117806Y-75136536D01*
X121220942Y-75033400D01*
X122811536Y-75033400D01*
X122811536Y-75150000D01*
X122838103Y-75291190D01*
X122921546Y-75420865D01*
X123048866Y-75507859D01*
X123200000Y-75538464D01*
X123900000Y-75538464D01*
X124041190Y-75511897D01*
X124170865Y-75428454D01*
X124257859Y-75301134D01*
X124288464Y-75150000D01*
X124288464Y-74722250D01*
X124719000Y-74722250D01*
X124719000Y-75225785D01*
X124777004Y-75365819D01*
X124884180Y-75472996D01*
X125024214Y-75531000D01*
X125227750Y-75531000D01*
X125323000Y-75435750D01*
X125323000Y-74627000D01*
X125577000Y-74627000D01*
X125577000Y-75435750D01*
X125672250Y-75531000D01*
X125875786Y-75531000D01*
X126015820Y-75472996D01*
X126122996Y-75365819D01*
X126181000Y-75225785D01*
X126181000Y-74722250D01*
X126085750Y-74627000D01*
X125577000Y-74627000D01*
X125323000Y-74627000D01*
X124814250Y-74627000D01*
X124719000Y-74722250D01*
X124288464Y-74722250D01*
X124288464Y-73850000D01*
X124274204Y-73774215D01*
X124719000Y-73774215D01*
X124719000Y-74277750D01*
X124814250Y-74373000D01*
X125323000Y-74373000D01*
X125323000Y-73564250D01*
X125577000Y-73564250D01*
X125577000Y-74373000D01*
X126085750Y-74373000D01*
X126181000Y-74277750D01*
X126181000Y-73774215D01*
X126122996Y-73634181D01*
X126028816Y-73540000D01*
X129204883Y-73540000D01*
X129298587Y-74011083D01*
X129565435Y-74410448D01*
X129964800Y-74677296D01*
X130435883Y-74771000D01*
X130484117Y-74771000D01*
X130955200Y-74677296D01*
X131354565Y-74410448D01*
X131621413Y-74011083D01*
X131715117Y-73540000D01*
X131621413Y-73068917D01*
X131354565Y-72669552D01*
X130955200Y-72402704D01*
X130484117Y-72309000D01*
X130435883Y-72309000D01*
X129964800Y-72402704D01*
X129565435Y-72669552D01*
X129298587Y-73068917D01*
X129204883Y-73540000D01*
X126028816Y-73540000D01*
X126015820Y-73527004D01*
X125875786Y-73469000D01*
X125672250Y-73469000D01*
X125577000Y-73564250D01*
X125323000Y-73564250D01*
X125227750Y-73469000D01*
X125024214Y-73469000D01*
X124884180Y-73527004D01*
X124777004Y-73634181D01*
X124719000Y-73774215D01*
X124274204Y-73774215D01*
X124261897Y-73708810D01*
X124178454Y-73579135D01*
X124051134Y-73492141D01*
X123900000Y-73461536D01*
X123200000Y-73461536D01*
X123058810Y-73488103D01*
X122929135Y-73571546D01*
X122842141Y-73698866D01*
X122811536Y-73850000D01*
X122811536Y-73966600D01*
X121537742Y-73966600D01*
X122818315Y-72686027D01*
X122838103Y-72791190D01*
X122921546Y-72920865D01*
X123048866Y-73007859D01*
X123200000Y-73038464D01*
X123900000Y-73038464D01*
X124041190Y-73011897D01*
X124170865Y-72928454D01*
X124257859Y-72801134D01*
X124288464Y-72650000D01*
X124288464Y-72222250D01*
X124719000Y-72222250D01*
X124719000Y-72725785D01*
X124777004Y-72865819D01*
X124884180Y-72972996D01*
X125024214Y-73031000D01*
X125227750Y-73031000D01*
X125323000Y-72935750D01*
X125323000Y-72127000D01*
X125577000Y-72127000D01*
X125577000Y-72935750D01*
X125672250Y-73031000D01*
X125875786Y-73031000D01*
X126015820Y-72972996D01*
X126122996Y-72865819D01*
X126181000Y-72725785D01*
X126181000Y-72222250D01*
X126085750Y-72127000D01*
X125577000Y-72127000D01*
X125323000Y-72127000D01*
X124814250Y-72127000D01*
X124719000Y-72222250D01*
X124288464Y-72222250D01*
X124288464Y-71350000D01*
X124274204Y-71274215D01*
X124719000Y-71274215D01*
X124719000Y-71777750D01*
X124814250Y-71873000D01*
X125323000Y-71873000D01*
X125323000Y-71064250D01*
X125577000Y-71064250D01*
X125577000Y-71873000D01*
X126085750Y-71873000D01*
X126181000Y-71777750D01*
X126181000Y-71274215D01*
X126122996Y-71134181D01*
X126015820Y-71027004D01*
X125875786Y-70969000D01*
X125672250Y-70969000D01*
X125577000Y-71064250D01*
X125323000Y-71064250D01*
X125227750Y-70969000D01*
X125024214Y-70969000D01*
X124884180Y-71027004D01*
X124777004Y-71134181D01*
X124719000Y-71274215D01*
X124274204Y-71274215D01*
X124261897Y-71208810D01*
X124178454Y-71079135D01*
X124051134Y-70992141D01*
X123900000Y-70961536D01*
X123200000Y-70961536D01*
X123058810Y-70988103D01*
X122929135Y-71071546D01*
X122842141Y-71198866D01*
X122811536Y-71350000D01*
X122811536Y-71466600D01*
X122750005Y-71466600D01*
X122750000Y-71466599D01*
X122545877Y-71507203D01*
X122372829Y-71622829D01*
X118859122Y-75136536D01*
X118565000Y-75136536D01*
X118423810Y-75163103D01*
X118294135Y-75246546D01*
X118229470Y-75341187D01*
X118173454Y-75254135D01*
X118046134Y-75167141D01*
X117895000Y-75136536D01*
X117295000Y-75136536D01*
X117153810Y-75163103D01*
X117024135Y-75246546D01*
X116937141Y-75373866D01*
X116906536Y-75525000D01*
X116906536Y-75766600D01*
X116686822Y-75766600D01*
X116614050Y-75590479D01*
X116410592Y-75386665D01*
X116144624Y-75276226D01*
X115856639Y-75275975D01*
X115590479Y-75385950D01*
X115386665Y-75589408D01*
X115276226Y-75855376D01*
X115275975Y-76143361D01*
X107956000Y-76143361D01*
X107956000Y-72142316D01*
X110018657Y-72142316D01*
X110319611Y-72870680D01*
X110876389Y-73428431D01*
X111604226Y-73730655D01*
X112392316Y-73731343D01*
X113120680Y-73430389D01*
X113678431Y-72873611D01*
X113980655Y-72145774D01*
X113981343Y-71357684D01*
X113680389Y-70629320D01*
X113123611Y-70071569D01*
X112395774Y-69769345D01*
X111607684Y-69768657D01*
X110879320Y-70069611D01*
X110321569Y-70626389D01*
X110019345Y-71354226D01*
X110018657Y-72142316D01*
X107956000Y-72142316D01*
X107956000Y-66026438D01*
X108030446Y-66206612D01*
X108351697Y-66528423D01*
X108771646Y-66702801D01*
X109226359Y-66703198D01*
X109646612Y-66529554D01*
X109968423Y-66208303D01*
X110142801Y-65788354D01*
X110143198Y-65333641D01*
X109969554Y-64913388D01*
X109648303Y-64591577D01*
X109321797Y-64456000D01*
X111218774Y-64456000D01*
X110893388Y-64590446D01*
X110893388Y-64590446D01*
G37*
X110893388Y-64590446D02*
X110571577Y-64911697D01*
X110397199Y-65331646D01*
X110396802Y-65786359D01*
X110570446Y-66206612D01*
X110891697Y-66528423D01*
X111311646Y-66702801D01*
X111766359Y-66703198D01*
X112186612Y-66529554D01*
X112508423Y-66208303D01*
X112682801Y-65788354D01*
X112683198Y-65333641D01*
X112509554Y-64913388D01*
X112188303Y-64591577D01*
X111861797Y-64456000D01*
X113758774Y-64456000D01*
X113433388Y-64590446D01*
X113111577Y-64911697D01*
X112937199Y-65331646D01*
X112936802Y-65786359D01*
X113110446Y-66206612D01*
X113431697Y-66528423D01*
X113851646Y-66702801D01*
X114306359Y-66703198D01*
X114726612Y-66529554D01*
X114855229Y-66401160D01*
X115958445Y-66401160D01*
X116041824Y-66571856D01*
X116473055Y-66716091D01*
X116926657Y-66684322D01*
X117198176Y-66571856D01*
X117281555Y-66401160D01*
X116620000Y-65739605D01*
X115958445Y-66401160D01*
X114855229Y-66401160D01*
X115048423Y-66208303D01*
X115222801Y-65788354D01*
X115223128Y-65413055D01*
X115463909Y-65413055D01*
X115495678Y-65866657D01*
X115608144Y-66138176D01*
X115778840Y-66221555D01*
X116440395Y-65560000D01*
X116799605Y-65560000D01*
X117461160Y-66221555D01*
X117631856Y-66138176D01*
X117776091Y-65706945D01*
X117744322Y-65253343D01*
X117631856Y-64981824D01*
X117461160Y-64898445D01*
X116799605Y-65560000D01*
X116440395Y-65560000D01*
X115778840Y-64898445D01*
X115608144Y-64981824D01*
X115463909Y-65413055D01*
X115223128Y-65413055D01*
X115223198Y-65333641D01*
X115049554Y-64913388D01*
X114728303Y-64591577D01*
X114401797Y-64456000D01*
X116264281Y-64456000D01*
X116041824Y-64548144D01*
X115958445Y-64718840D01*
X116620000Y-65380395D01*
X117281555Y-64718840D01*
X117198176Y-64548144D01*
X116922686Y-64456000D01*
X118838774Y-64456000D01*
X118513388Y-64590446D01*
X118191577Y-64911697D01*
X118017199Y-65331646D01*
X118016802Y-65786359D01*
X118190446Y-66206612D01*
X118511697Y-66528423D01*
X118931646Y-66702801D01*
X119386359Y-66703198D01*
X119806612Y-66529554D01*
X120128423Y-66208303D01*
X120302801Y-65788354D01*
X120303198Y-65333641D01*
X120129554Y-64913388D01*
X119808303Y-64591577D01*
X119481797Y-64456000D01*
X121378774Y-64456000D01*
X121053388Y-64590446D01*
X120731577Y-64911697D01*
X120557199Y-65331646D01*
X120556802Y-65786359D01*
X120730446Y-66206612D01*
X121051697Y-66528423D01*
X121471646Y-66702801D01*
X121926359Y-66703198D01*
X122346612Y-66529554D01*
X122668423Y-66208303D01*
X122842801Y-65788354D01*
X122843198Y-65333641D01*
X122669554Y-64913388D01*
X122348303Y-64591577D01*
X122021797Y-64456000D01*
X123918774Y-64456000D01*
X123593388Y-64590446D01*
X123271577Y-64911697D01*
X123097199Y-65331646D01*
X123096802Y-65786359D01*
X123270446Y-66206612D01*
X123591697Y-66528423D01*
X124011646Y-66702801D01*
X124466359Y-66703198D01*
X124886612Y-66529554D01*
X125208423Y-66208303D01*
X125382801Y-65788354D01*
X125383198Y-65333641D01*
X125209554Y-64913388D01*
X124888303Y-64591577D01*
X124561797Y-64456000D01*
X126458774Y-64456000D01*
X126133388Y-64590446D01*
X125811577Y-64911697D01*
X125637199Y-65331646D01*
X125636802Y-65786359D01*
X125810446Y-66206612D01*
X126131697Y-66528423D01*
X126551646Y-66702801D01*
X127006359Y-66703198D01*
X127426612Y-66529554D01*
X127748423Y-66208303D01*
X127922801Y-65788354D01*
X127923198Y-65333641D01*
X127749554Y-64913388D01*
X127428303Y-64591577D01*
X127101797Y-64456000D01*
X128998774Y-64456000D01*
X128673388Y-64590446D01*
X128351577Y-64911697D01*
X128177199Y-65331646D01*
X128176802Y-65786359D01*
X128350446Y-66206612D01*
X128671697Y-66528423D01*
X129091646Y-66702801D01*
X129546359Y-66703198D01*
X129966612Y-66529554D01*
X130288423Y-66208303D01*
X130462801Y-65788354D01*
X130463198Y-65333641D01*
X130289554Y-64913388D01*
X129968303Y-64591577D01*
X129641797Y-64456000D01*
X131538774Y-64456000D01*
X131213388Y-64590446D01*
X130891577Y-64911697D01*
X130717199Y-65331646D01*
X130716802Y-65786359D01*
X130890446Y-66206612D01*
X131211697Y-66528423D01*
X131631646Y-66702801D01*
X132086359Y-66703198D01*
X132506612Y-66529554D01*
X132828423Y-66208303D01*
X133002801Y-65788354D01*
X133003198Y-65333641D01*
X132829554Y-64913388D01*
X132508303Y-64591577D01*
X132181797Y-64456000D01*
X134078774Y-64456000D01*
X133753388Y-64590446D01*
X133431577Y-64911697D01*
X133257199Y-65331646D01*
X133256802Y-65786359D01*
X133430446Y-66206612D01*
X133751697Y-66528423D01*
X134171646Y-66702801D01*
X134626359Y-66703198D01*
X135046612Y-66529554D01*
X135368423Y-66208303D01*
X135542801Y-65788354D01*
X135543198Y-65333641D01*
X135369554Y-64913388D01*
X135048303Y-64591577D01*
X134721797Y-64456000D01*
X136618774Y-64456000D01*
X136293388Y-64590446D01*
X135971577Y-64911697D01*
X135797199Y-65331646D01*
X135796802Y-65786359D01*
X135970446Y-66206612D01*
X136009712Y-66245946D01*
X134122829Y-68132829D01*
X134007203Y-68305877D01*
X133966600Y-68510000D01*
X133966600Y-69785148D01*
X133850000Y-69761536D01*
X132150000Y-69761536D01*
X132008810Y-69788103D01*
X131879135Y-69871546D01*
X131792141Y-69998866D01*
X131761536Y-70150000D01*
X131761536Y-71850000D01*
X131788103Y-71991190D01*
X131871546Y-72120865D01*
X131998866Y-72207859D01*
X132150000Y-72238464D01*
X133850000Y-72238464D01*
X133966600Y-72216524D01*
X133966600Y-72777360D01*
X133894565Y-72669552D01*
X133495200Y-72402704D01*
X133024117Y-72309000D01*
X132975883Y-72309000D01*
X132504800Y-72402704D01*
X132105435Y-72669552D01*
X131838587Y-73068917D01*
X131744883Y-73540000D01*
X131838587Y-74011083D01*
X132105435Y-74410448D01*
X132504800Y-74677296D01*
X132975883Y-74771000D01*
X133024117Y-74771000D01*
X133495200Y-74677296D01*
X133894565Y-74410448D01*
X133966600Y-74302640D01*
X133966600Y-74779058D01*
X133679685Y-75065973D01*
X133495200Y-74942704D01*
X133024117Y-74849000D01*
X132975883Y-74849000D01*
X132504800Y-74942704D01*
X132105435Y-75209552D01*
X131838587Y-75608917D01*
X131744883Y-76080000D01*
X131838587Y-76551083D01*
X131949182Y-76716600D01*
X131830005Y-76716600D01*
X131830000Y-76716599D01*
X131625877Y-76757203D01*
X131452829Y-76872829D01*
X131452827Y-76872832D01*
X130861577Y-77464081D01*
X130484117Y-77389000D01*
X130435883Y-77389000D01*
X129964800Y-77482704D01*
X129565435Y-77749552D01*
X129298587Y-78148917D01*
X129204883Y-78620000D01*
X129298587Y-79091083D01*
X129565435Y-79490448D01*
X129964800Y-79757296D01*
X130435883Y-79851000D01*
X130484117Y-79851000D01*
X130955200Y-79757296D01*
X131354565Y-79490448D01*
X131621413Y-79091083D01*
X131715117Y-78620000D01*
X131632033Y-78202308D01*
X132050941Y-77783400D01*
X132082818Y-77783400D01*
X131838587Y-78148917D01*
X131744883Y-78620000D01*
X131838587Y-79091083D01*
X132105435Y-79490448D01*
X132504800Y-79757296D01*
X132975883Y-79851000D01*
X133024117Y-79851000D01*
X133495200Y-79757296D01*
X133894565Y-79490448D01*
X134161413Y-79091083D01*
X134168279Y-79056566D01*
X134257171Y-78997171D01*
X134580783Y-78673559D01*
X136358602Y-78673559D01*
X136532246Y-79093812D01*
X136853497Y-79415623D01*
X136937176Y-79450369D01*
X136855188Y-79484246D01*
X136533377Y-79805497D01*
X136358999Y-80225446D01*
X136358602Y-80680159D01*
X136532246Y-81100412D01*
X136853497Y-81422223D01*
X136937176Y-81456969D01*
X136855188Y-81490846D01*
X136533377Y-81812097D01*
X136358999Y-82232046D01*
X136358602Y-82686759D01*
X136532246Y-83107012D01*
X136853497Y-83428823D01*
X136937176Y-83463569D01*
X136855188Y-83497446D01*
X136533377Y-83818697D01*
X136358999Y-84238646D01*
X136358602Y-84693359D01*
X136532246Y-85113612D01*
X136853497Y-85435423D01*
X136937176Y-85470169D01*
X136855188Y-85504046D01*
X136533377Y-85825297D01*
X136358999Y-86245246D01*
X136358602Y-86699959D01*
X136532246Y-87120212D01*
X136853497Y-87442023D01*
X136937176Y-87476769D01*
X136855188Y-87510646D01*
X136533377Y-87831897D01*
X136358999Y-88251846D01*
X136358602Y-88706559D01*
X136532246Y-89126812D01*
X136853497Y-89448623D01*
X136937176Y-89483369D01*
X136855188Y-89517246D01*
X136533377Y-89838497D01*
X136358999Y-90258446D01*
X136358602Y-90713159D01*
X136532246Y-91133412D01*
X136853497Y-91455223D01*
X136937176Y-91489969D01*
X136855188Y-91523846D01*
X136533377Y-91845097D01*
X136358999Y-92265046D01*
X136358602Y-92719759D01*
X136532246Y-93140012D01*
X136853497Y-93461823D01*
X136937176Y-93496569D01*
X136855188Y-93530446D01*
X136533377Y-93851697D01*
X136358999Y-94271646D01*
X136358602Y-94726359D01*
X136532246Y-95146612D01*
X136853497Y-95468423D01*
X137273446Y-95642801D01*
X137728159Y-95643198D01*
X138148412Y-95469554D01*
X138470223Y-95148303D01*
X138644601Y-94728354D01*
X138644998Y-94273641D01*
X138471354Y-93853388D01*
X138344547Y-93726359D01*
X153576802Y-93726359D01*
X153750446Y-94146612D01*
X154071697Y-94468423D01*
X154491646Y-94642801D01*
X154946359Y-94643198D01*
X155366612Y-94469554D01*
X155688423Y-94148303D01*
X155862801Y-93728354D01*
X155862802Y-93726359D01*
X156116802Y-93726359D01*
X156290446Y-94146612D01*
X156611697Y-94468423D01*
X157031646Y-94642801D01*
X157486359Y-94643198D01*
X157906612Y-94469554D01*
X158228423Y-94148303D01*
X158402801Y-93728354D01*
X158403198Y-93273641D01*
X158229554Y-92853388D01*
X157908303Y-92531577D01*
X157488354Y-92357199D01*
X157033641Y-92356802D01*
X156613388Y-92530446D01*
X156291577Y-92851697D01*
X156117199Y-93271646D01*
X156116802Y-93726359D01*
X155862802Y-93726359D01*
X155863198Y-93273641D01*
X155689554Y-92853388D01*
X155368303Y-92531577D01*
X154948354Y-92357199D01*
X154493641Y-92356802D01*
X154073388Y-92530446D01*
X153751577Y-92851697D01*
X153577199Y-93271646D01*
X153576802Y-93726359D01*
X138344547Y-93726359D01*
X138150103Y-93531577D01*
X138066424Y-93496831D01*
X138148412Y-93462954D01*
X138470223Y-93141703D01*
X138644601Y-92721754D01*
X138644998Y-92267041D01*
X138597487Y-92152055D01*
X140458168Y-90291373D01*
X140458171Y-90291371D01*
X140573797Y-90118323D01*
X140579630Y-90089000D01*
X140614401Y-89914200D01*
X140614400Y-89914195D01*
X140614400Y-72631000D01*
X140589775Y-72507203D01*
X140573797Y-72426876D01*
X140458171Y-72253829D01*
X139188464Y-70984122D01*
X139188464Y-70350000D01*
X139161897Y-70208810D01*
X139078454Y-70079135D01*
X138951134Y-69992141D01*
X138800000Y-69961536D01*
X138100000Y-69961536D01*
X137958810Y-69988103D01*
X137829135Y-70071546D01*
X137742141Y-70198866D01*
X137711536Y-70350000D01*
X137711536Y-71650000D01*
X137738103Y-71791190D01*
X137821546Y-71920865D01*
X137938798Y-72000980D01*
X137829135Y-72071546D01*
X137742141Y-72198866D01*
X137711536Y-72350000D01*
X137711536Y-73650000D01*
X137738103Y-73791190D01*
X137821546Y-73920865D01*
X137948866Y-74007859D01*
X138100000Y-74038464D01*
X138734122Y-74038464D01*
X138912600Y-74216942D01*
X138912600Y-88679058D01*
X138475242Y-89116416D01*
X138644601Y-88708554D01*
X138644998Y-88253841D01*
X138471354Y-87833588D01*
X138150103Y-87511777D01*
X138066424Y-87477031D01*
X138148412Y-87443154D01*
X138470223Y-87121903D01*
X138644601Y-86701954D01*
X138644998Y-86247241D01*
X138471354Y-85826988D01*
X138150103Y-85505177D01*
X138066424Y-85470431D01*
X138148412Y-85436554D01*
X138470223Y-85115303D01*
X138644601Y-84695354D01*
X138644998Y-84240641D01*
X138471354Y-83820388D01*
X138150103Y-83498577D01*
X138066424Y-83463831D01*
X138148412Y-83429954D01*
X138470223Y-83108703D01*
X138644601Y-82688754D01*
X138644998Y-82234041D01*
X138471354Y-81813788D01*
X138150103Y-81491977D01*
X138066424Y-81457231D01*
X138148412Y-81423354D01*
X138470223Y-81102103D01*
X138644601Y-80682154D01*
X138644998Y-80227441D01*
X138471354Y-79807188D01*
X138150103Y-79485377D01*
X138066424Y-79450631D01*
X138148412Y-79416754D01*
X138470223Y-79095503D01*
X138644601Y-78675554D01*
X138644998Y-78220841D01*
X138471354Y-77800588D01*
X138150103Y-77478777D01*
X138081112Y-77450130D01*
X138163355Y-77281760D01*
X137501800Y-76620205D01*
X136840245Y-77281760D01*
X136922369Y-77449887D01*
X136855188Y-77477646D01*
X136533377Y-77798897D01*
X136358999Y-78218846D01*
X136358602Y-78673559D01*
X134580783Y-78673559D01*
X135877171Y-77377171D01*
X135992797Y-77204123D01*
X136033400Y-77000000D01*
X136033400Y-76293655D01*
X136345709Y-76293655D01*
X136377478Y-76747257D01*
X136489944Y-77018776D01*
X136660640Y-77102155D01*
X137322195Y-76440600D01*
X137681405Y-76440600D01*
X138342960Y-77102155D01*
X138513656Y-77018776D01*
X138657891Y-76587545D01*
X138626122Y-76133943D01*
X138513656Y-75862424D01*
X138342960Y-75779045D01*
X137681405Y-76440600D01*
X137322195Y-76440600D01*
X136660640Y-75779045D01*
X136489944Y-75862424D01*
X136345709Y-76293655D01*
X136033400Y-76293655D01*
X136033400Y-75599440D01*
X136840245Y-75599440D01*
X137501800Y-76260995D01*
X138163355Y-75599440D01*
X138079976Y-75428744D01*
X137648745Y-75284509D01*
X137195143Y-75316278D01*
X136923624Y-75428744D01*
X136840245Y-75599440D01*
X136033400Y-75599440D01*
X136033400Y-74270942D01*
X136265878Y-74038464D01*
X136900000Y-74038464D01*
X137041190Y-74011897D01*
X137170865Y-73928454D01*
X137257859Y-73801134D01*
X137288464Y-73650000D01*
X137288464Y-72350000D01*
X137261897Y-72208810D01*
X137178454Y-72079135D01*
X137061202Y-71999020D01*
X137170865Y-71928454D01*
X137257859Y-71801134D01*
X137288464Y-71650000D01*
X137288464Y-70350000D01*
X137261897Y-70208810D01*
X137178454Y-70079135D01*
X137051134Y-69992141D01*
X136900000Y-69961536D01*
X136200000Y-69961536D01*
X136058810Y-69988103D01*
X135929135Y-70071546D01*
X135842141Y-70198866D01*
X135811536Y-70350000D01*
X135811536Y-71434122D01*
X135033400Y-72212258D01*
X135033400Y-69866361D01*
X142658975Y-69866361D01*
X142768950Y-70132521D01*
X142972408Y-70336335D01*
X143238376Y-70446774D01*
X143526361Y-70447025D01*
X143680345Y-70383400D01*
X143788536Y-70383400D01*
X143788536Y-70650000D01*
X143815103Y-70791190D01*
X143898546Y-70920865D01*
X144025866Y-71007859D01*
X144177000Y-71038464D01*
X145177000Y-71038464D01*
X145318190Y-71011897D01*
X145447865Y-70928454D01*
X145534859Y-70801134D01*
X145565464Y-70650000D01*
X145565464Y-69050000D01*
X145538897Y-68908810D01*
X145455454Y-68779135D01*
X145328134Y-68692141D01*
X145177000Y-68661536D01*
X144177000Y-68661536D01*
X144035810Y-68688103D01*
X143906135Y-68771546D01*
X143819141Y-68898866D01*
X143788536Y-69050000D01*
X143788536Y-69107566D01*
X143527624Y-68999226D01*
X143239639Y-68998975D01*
X142973479Y-69108950D01*
X142769665Y-69312408D01*
X142659226Y-69578376D01*
X142658975Y-69866361D01*
X135033400Y-69866361D01*
X135033400Y-68730942D01*
X137061236Y-66703106D01*
X137166359Y-66703198D01*
X137586612Y-66529554D01*
X137908423Y-66208303D01*
X138082801Y-65788354D01*
X138083198Y-65333641D01*
X137909554Y-64913388D01*
X137588303Y-64591577D01*
X137261797Y-64456000D01*
X139158774Y-64456000D01*
X138833388Y-64590446D01*
X138511577Y-64911697D01*
X138337199Y-65331646D01*
X138336802Y-65786359D01*
X138510446Y-66206612D01*
X138831697Y-66528423D01*
X139251646Y-66702801D01*
X139706359Y-66703198D01*
X140126612Y-66529554D01*
X140255229Y-66401160D01*
X141358445Y-66401160D01*
X141441824Y-66571856D01*
X141873055Y-66716091D01*
X142326657Y-66684322D01*
X142598176Y-66571856D01*
X142681555Y-66401160D01*
X142020000Y-65739605D01*
X141358445Y-66401160D01*
X140255229Y-66401160D01*
X140448423Y-66208303D01*
X140622801Y-65788354D01*
X140623128Y-65413055D01*
X140863909Y-65413055D01*
X140895678Y-65866657D01*
X141008144Y-66138176D01*
X141178840Y-66221555D01*
X141840395Y-65560000D01*
X142199605Y-65560000D01*
X142861160Y-66221555D01*
X143031856Y-66138176D01*
X143176091Y-65706945D01*
X143144322Y-65253343D01*
X143031856Y-64981824D01*
X142861160Y-64898445D01*
X142199605Y-65560000D01*
X141840395Y-65560000D01*
X141178840Y-64898445D01*
X141008144Y-64981824D01*
X140863909Y-65413055D01*
X140623128Y-65413055D01*
X140623198Y-65333641D01*
X140449554Y-64913388D01*
X140128303Y-64591577D01*
X139801797Y-64456000D01*
X141664281Y-64456000D01*
X141441824Y-64548144D01*
X141358445Y-64718840D01*
X142020000Y-65380395D01*
X142681555Y-64718840D01*
X142598176Y-64548144D01*
X142322686Y-64456000D01*
X144238774Y-64456000D01*
X143913388Y-64590446D01*
X143591577Y-64911697D01*
X143417199Y-65331646D01*
X143416802Y-65786359D01*
X143590446Y-66206612D01*
X143911697Y-66528423D01*
X144331646Y-66702801D01*
X144786359Y-66703198D01*
X145206612Y-66529554D01*
X145528423Y-66208303D01*
X145702801Y-65788354D01*
X145703198Y-65333641D01*
X145529554Y-64913388D01*
X145208303Y-64591577D01*
X144881797Y-64456000D01*
X146778774Y-64456000D01*
X146453388Y-64590446D01*
X146131577Y-64911697D01*
X145957199Y-65331646D01*
X145956802Y-65786359D01*
X146130446Y-66206612D01*
X146451697Y-66528423D01*
X146871646Y-66702801D01*
X147326359Y-66703198D01*
X147746612Y-66529554D01*
X148068423Y-66208303D01*
X148242801Y-65788354D01*
X148243198Y-65333641D01*
X148069554Y-64913388D01*
X147748303Y-64591577D01*
X147421797Y-64456000D01*
X149318774Y-64456000D01*
X148993388Y-64590446D01*
X148671577Y-64911697D01*
X148497199Y-65331646D01*
X148496802Y-65786359D01*
X148670446Y-66206612D01*
X148991697Y-66528423D01*
X149106600Y-66576135D01*
X149106600Y-66801058D01*
X147299829Y-68607829D01*
X147263943Y-68661536D01*
X147177000Y-68661536D01*
X147035810Y-68688103D01*
X146906135Y-68771546D01*
X146819141Y-68898866D01*
X146788536Y-69050000D01*
X146788536Y-70650000D01*
X146815103Y-70791190D01*
X146898546Y-70920865D01*
X147025866Y-71007859D01*
X147177000Y-71038464D01*
X148177000Y-71038464D01*
X148318190Y-71011897D01*
X148447865Y-70928454D01*
X148534859Y-70801134D01*
X148565464Y-70650000D01*
X148565464Y-69050000D01*
X148538897Y-68908810D01*
X148526617Y-68889725D01*
X150017171Y-67399171D01*
X150132797Y-67226124D01*
X150173400Y-67022000D01*
X150173400Y-66576332D01*
X150286612Y-66529554D01*
X150415229Y-66401160D01*
X151518445Y-66401160D01*
X151601824Y-66571856D01*
X152033055Y-66716091D01*
X152486657Y-66684322D01*
X152758176Y-66571856D01*
X152841555Y-66401160D01*
X152180000Y-65739605D01*
X151518445Y-66401160D01*
X150415229Y-66401160D01*
X150608423Y-66208303D01*
X150782801Y-65788354D01*
X150783128Y-65413055D01*
X151023909Y-65413055D01*
X151055678Y-65866657D01*
X151168144Y-66138176D01*
X151338840Y-66221555D01*
X152000395Y-65560000D01*
X152359605Y-65560000D01*
X153021160Y-66221555D01*
X153191856Y-66138176D01*
X153336091Y-65706945D01*
X153304322Y-65253343D01*
X153191856Y-64981824D01*
X153021160Y-64898445D01*
X152359605Y-65560000D01*
X152000395Y-65560000D01*
X151338840Y-64898445D01*
X151168144Y-64981824D01*
X151023909Y-65413055D01*
X150783128Y-65413055D01*
X150783198Y-65333641D01*
X150609554Y-64913388D01*
X150288303Y-64591577D01*
X149961797Y-64456000D01*
X151824281Y-64456000D01*
X151601824Y-64548144D01*
X151518445Y-64718840D01*
X152180000Y-65380395D01*
X152841555Y-64718840D01*
X152758176Y-64548144D01*
X152482686Y-64456000D01*
X154398774Y-64456000D01*
X154073388Y-64590446D01*
X153751577Y-64911697D01*
X153577199Y-65331646D01*
X153576802Y-65786359D01*
X153750446Y-66206612D01*
X154071697Y-66528423D01*
X154186600Y-66576135D01*
X154186600Y-67030600D01*
X151916000Y-67030600D01*
X151711877Y-67071203D01*
X151538829Y-67186829D01*
X150064122Y-68661536D01*
X149130000Y-68661536D01*
X148988810Y-68688103D01*
X148859135Y-68771546D01*
X148772141Y-68898866D01*
X148741536Y-69050000D01*
X148741536Y-70650000D01*
X148768103Y-70791190D01*
X148851546Y-70920865D01*
X148978866Y-71007859D01*
X149130000Y-71038464D01*
X150130000Y-71038464D01*
X150271190Y-71011897D01*
X150400865Y-70928454D01*
X150487859Y-70801134D01*
X150518464Y-70650000D01*
X150518464Y-69715878D01*
X152136942Y-68097400D01*
X153968258Y-68097400D01*
X153336017Y-68729641D01*
X153281134Y-68692141D01*
X153130000Y-68661536D01*
X152130000Y-68661536D01*
X151988810Y-68688103D01*
X151859135Y-68771546D01*
X151772141Y-68898866D01*
X151741536Y-69050000D01*
X151741536Y-70650000D01*
X151768103Y-70791190D01*
X151851546Y-70920865D01*
X151978866Y-71007859D01*
X152130000Y-71038464D01*
X153130000Y-71038464D01*
X153271190Y-71011897D01*
X153400865Y-70928454D01*
X153425557Y-70892316D01*
X155268657Y-70892316D01*
X155569611Y-71620680D01*
X156126389Y-72178431D01*
X156854226Y-72480655D01*
X157642316Y-72481343D01*
X158370680Y-72180389D01*
X158928431Y-71623611D01*
X159230655Y-70895774D01*
X159231343Y-70107684D01*
X158930389Y-69379320D01*
X158373611Y-68821569D01*
X157645774Y-68519345D01*
X156857684Y-68518657D01*
X156129320Y-68819611D01*
X155571569Y-69376389D01*
X155269345Y-70104226D01*
X155268657Y-70892316D01*
X153425557Y-70892316D01*
X153487859Y-70801134D01*
X153518464Y-70650000D01*
X153518464Y-70068091D01*
X153527797Y-70054123D01*
X153529679Y-70044663D01*
X156918516Y-66655826D01*
X157031646Y-66702801D01*
X157486359Y-66703198D01*
X157906612Y-66529554D01*
X158228423Y-66208303D01*
X158402801Y-65788354D01*
X158403198Y-65333641D01*
X158229554Y-64913388D01*
X157908303Y-64591577D01*
X157581797Y-64456000D01*
X160544000Y-64456000D01*
X160544000Y-75978518D01*
X160467754Y-75793988D01*
X160146503Y-75472177D01*
X159726554Y-75297799D01*
X159271841Y-75297402D01*
X158851588Y-75471046D01*
X158529777Y-75792297D01*
X158355399Y-76212246D01*
X158355002Y-76666959D01*
X158528646Y-77087212D01*
X158849897Y-77409023D01*
X158933576Y-77443769D01*
X158851588Y-77477646D01*
X158529777Y-77798897D01*
X158355399Y-78218846D01*
X158355002Y-78673559D01*
X158528646Y-79093812D01*
X158849897Y-79415623D01*
X158933576Y-79450369D01*
X158851588Y-79484246D01*
X158529777Y-79805497D01*
X158355399Y-80225446D01*
X158355002Y-80680159D01*
X158528646Y-81100412D01*
X158849897Y-81422223D01*
X158933576Y-81456969D01*
X158851588Y-81490846D01*
X158529777Y-81812097D01*
X158355399Y-82232046D01*
X158355002Y-82686759D01*
X158528646Y-83107012D01*
X158849897Y-83428823D01*
X158933576Y-83463569D01*
X158851588Y-83497446D01*
X158529777Y-83818697D01*
X158355399Y-84238646D01*
X158355002Y-84693359D01*
X158528646Y-85113612D01*
X158849897Y-85435423D01*
X158933576Y-85470169D01*
X158851588Y-85504046D01*
X158529777Y-85825297D01*
X158355399Y-86245246D01*
X158355002Y-86699959D01*
X158528646Y-87120212D01*
X158849897Y-87442023D01*
X158933576Y-87476769D01*
X158851588Y-87510646D01*
X158529777Y-87831897D01*
X158355399Y-88251846D01*
X158355002Y-88706559D01*
X158528646Y-89126812D01*
X158849897Y-89448623D01*
X158933576Y-89483369D01*
X158851588Y-89517246D01*
X158529777Y-89838497D01*
X158355399Y-90258446D01*
X158355002Y-90713159D01*
X158528646Y-91133412D01*
X158849897Y-91455223D01*
X158933576Y-91489969D01*
X158851588Y-91523846D01*
X158529777Y-91845097D01*
X158355399Y-92265046D01*
X158355002Y-92719759D01*
X158528646Y-93140012D01*
X158849897Y-93461823D01*
X158933576Y-93496569D01*
X158851588Y-93530446D01*
X158529777Y-93851697D01*
X158355399Y-94271646D01*
X158355002Y-94726359D01*
X158528646Y-95146612D01*
X158849897Y-95468423D01*
X159269846Y-95642801D01*
X159724559Y-95643198D01*
X160144812Y-95469554D01*
X160466623Y-95148303D01*
X160544000Y-94961958D01*
X160544000Y-102044000D01*
X107956000Y-102044000D01*
X107956000Y-99142316D01*
X110018657Y-99142316D01*
X110319611Y-99870680D01*
X110876389Y-100428431D01*
X111604226Y-100730655D01*
X112392316Y-100731343D01*
X113120680Y-100430389D01*
X113678431Y-99873611D01*
X113980655Y-99145774D01*
X113981343Y-98357684D01*
X113680389Y-97629320D01*
X113123611Y-97071569D01*
X112395774Y-96769345D01*
X111607684Y-96768657D01*
X110879320Y-97069611D01*
X110321569Y-97626389D01*
X110019345Y-98354226D01*
X110018657Y-99142316D01*
X107956000Y-99142316D01*
X107956000Y-93966438D01*
X108030446Y-94146612D01*
X108351697Y-94468423D01*
X108771646Y-94642801D01*
X109226359Y-94643198D01*
X109646612Y-94469554D01*
X109968423Y-94148303D01*
X110142801Y-93728354D01*
X110142802Y-93726359D01*
X110396802Y-93726359D01*
X110570446Y-94146612D01*
X110891697Y-94468423D01*
X111311646Y-94642801D01*
X111766359Y-94643198D01*
X112186612Y-94469554D01*
X112508423Y-94148303D01*
X112682801Y-93728354D01*
X112683198Y-93273641D01*
X112509554Y-92853388D01*
X112188303Y-92531577D01*
X111768354Y-92357199D01*
X111313641Y-92356802D01*
X110893388Y-92530446D01*
X110571577Y-92851697D01*
X110397199Y-93271646D01*
X110396802Y-93726359D01*
X110142802Y-93726359D01*
X110143198Y-93273641D01*
X109969554Y-92853388D01*
X109648303Y-92531577D01*
X109228354Y-92357199D01*
X108773641Y-92356802D01*
X108353388Y-92530446D01*
X108031577Y-92851697D01*
X107956000Y-93033707D01*
X107956000Y-87150000D01*
X108861536Y-87150000D01*
X108861536Y-90650000D01*
X108888103Y-90791190D01*
X108971546Y-90920865D01*
X109098866Y-91007859D01*
X109250000Y-91038464D01*
X112750000Y-91038464D01*
X112891190Y-91011897D01*
X113020865Y-90928454D01*
X113107859Y-90801134D01*
X113138464Y-90650000D01*
X113138464Y-89608332D01*
X115864200Y-92334068D01*
X115864200Y-92348982D01*
X115829135Y-92371546D01*
X115742141Y-92498866D01*
X115711536Y-92650000D01*
X115711536Y-94350000D01*
X115738103Y-94491190D01*
X115821546Y-94620865D01*
X115864200Y-94650009D01*
X115864200Y-96550000D01*
X115916403Y-96812445D01*
X116065066Y-97034934D01*
X119515066Y-100484934D01*
X119737555Y-100633597D01*
X120000000Y-100685800D01*
X120261536Y-100685800D01*
X120261536Y-100850000D01*
X120288103Y-100991190D01*
X120371546Y-101120865D01*
X120498866Y-101207859D01*
X120650000Y-101238464D01*
X122350000Y-101238464D01*
X122491190Y-101211897D01*
X122620865Y-101128454D01*
X122707859Y-101001134D01*
X122738464Y-100850000D01*
X122738464Y-100222250D01*
X123769000Y-100222250D01*
X123769000Y-100925785D01*
X123827004Y-101065819D01*
X123934180Y-101172996D01*
X124074214Y-101231000D01*
X124777750Y-101231000D01*
X124873000Y-101135750D01*
X124873000Y-100127000D01*
X125127000Y-100127000D01*
X125127000Y-101135750D01*
X125222250Y-101231000D01*
X125925786Y-101231000D01*
X126065820Y-101172996D01*
X126172996Y-101065819D01*
X126231000Y-100925785D01*
X126231000Y-100222250D01*
X126135750Y-100127000D01*
X125127000Y-100127000D01*
X124873000Y-100127000D01*
X123864250Y-100127000D01*
X123769000Y-100222250D01*
X122738464Y-100222250D01*
X122738464Y-99150000D01*
X122724204Y-99074215D01*
X123769000Y-99074215D01*
X123769000Y-99777750D01*
X123864250Y-99873000D01*
X124873000Y-99873000D01*
X124873000Y-98864250D01*
X125127000Y-98864250D01*
X125127000Y-99873000D01*
X126135750Y-99873000D01*
X126231000Y-99777750D01*
X126231000Y-99074215D01*
X126172996Y-98934181D01*
X126065820Y-98827004D01*
X125925786Y-98769000D01*
X125222250Y-98769000D01*
X125127000Y-98864250D01*
X124873000Y-98864250D01*
X124777750Y-98769000D01*
X124074214Y-98769000D01*
X123934180Y-98827004D01*
X123827004Y-98934181D01*
X123769000Y-99074215D01*
X122724204Y-99074215D01*
X122711897Y-99008810D01*
X122628454Y-98879135D01*
X122501134Y-98792141D01*
X122350000Y-98761536D01*
X120650000Y-98761536D01*
X120508810Y-98788103D01*
X120379135Y-98871546D01*
X120292141Y-98998866D01*
X120261536Y-99150000D01*
X120261536Y-99291668D01*
X119619868Y-98650000D01*
X131261536Y-98650000D01*
X131261536Y-100350000D01*
X131288103Y-100491190D01*
X131371546Y-100620865D01*
X131498866Y-100707859D01*
X131650000Y-100738464D01*
X133350000Y-100738464D01*
X133491190Y-100711897D01*
X133620865Y-100628454D01*
X133707859Y-100501134D01*
X133738464Y-100350000D01*
X133738464Y-99816982D01*
X133850499Y-99816982D01*
X134062348Y-100248056D01*
X134423036Y-100565245D01*
X134723020Y-100689489D01*
X134913000Y-100628627D01*
X134913000Y-99627000D01*
X135167000Y-99627000D01*
X135167000Y-100628627D01*
X135356980Y-100689489D01*
X135656964Y-100565245D01*
X136017652Y-100248056D01*
X136229501Y-99816982D01*
X136169193Y-99627000D01*
X135167000Y-99627000D01*
X134913000Y-99627000D01*
X133910807Y-99627000D01*
X133850499Y-99816982D01*
X133738464Y-99816982D01*
X133738464Y-99183018D01*
X133850499Y-99183018D01*
X133910807Y-99373000D01*
X134913000Y-99373000D01*
X134913000Y-98371373D01*
X135167000Y-98371373D01*
X135167000Y-99373000D01*
X136169193Y-99373000D01*
X136229501Y-99183018D01*
X136017652Y-98751944D01*
X135656964Y-98434755D01*
X135356980Y-98310511D01*
X135167000Y-98371373D01*
X134913000Y-98371373D01*
X134723020Y-98310511D01*
X134423036Y-98434755D01*
X134062348Y-98751944D01*
X133850499Y-99183018D01*
X133738464Y-99183018D01*
X133738464Y-98650000D01*
X133711897Y-98508810D01*
X133628454Y-98379135D01*
X133501134Y-98292141D01*
X133350000Y-98261536D01*
X131650000Y-98261536D01*
X131508810Y-98288103D01*
X131379135Y-98371546D01*
X131292141Y-98498866D01*
X131261536Y-98650000D01*
X119619868Y-98650000D01*
X117235800Y-96265932D01*
X117235800Y-94651018D01*
X117270865Y-94628454D01*
X117357859Y-94501134D01*
X117388464Y-94350000D01*
X117388464Y-92650000D01*
X118611536Y-92650000D01*
X118611536Y-94350000D01*
X118638103Y-94491190D01*
X118721546Y-94620865D01*
X118848866Y-94707859D01*
X119000000Y-94738464D01*
X119900000Y-94738464D01*
X120041190Y-94711897D01*
X120170865Y-94628454D01*
X120257859Y-94501134D01*
X120288464Y-94350000D01*
X120288464Y-94185800D01*
X121211536Y-94185800D01*
X121211536Y-94350000D01*
X121238103Y-94491190D01*
X121321546Y-94620865D01*
X121364200Y-94650009D01*
X121364200Y-95012089D01*
X121358810Y-95013103D01*
X121229135Y-95096546D01*
X121142141Y-95223866D01*
X121111536Y-95375000D01*
X121111536Y-96625000D01*
X121138103Y-96766190D01*
X121221546Y-96895865D01*
X121348866Y-96982859D01*
X121500000Y-97013464D01*
X122500000Y-97013464D01*
X122641190Y-96986897D01*
X122770865Y-96903454D01*
X122857859Y-96776134D01*
X122888464Y-96625000D01*
X122888464Y-96222250D01*
X123119000Y-96222250D01*
X123119000Y-96700785D01*
X123177004Y-96840819D01*
X123284180Y-96947996D01*
X123424214Y-97006000D01*
X123777750Y-97006000D01*
X123873000Y-96910750D01*
X123873000Y-96127000D01*
X124127000Y-96127000D01*
X124127000Y-96910750D01*
X124222250Y-97006000D01*
X124575786Y-97006000D01*
X124715820Y-96947996D01*
X124822996Y-96840819D01*
X124881000Y-96700785D01*
X124881000Y-96222250D01*
X124785750Y-96127000D01*
X124127000Y-96127000D01*
X123873000Y-96127000D01*
X123214250Y-96127000D01*
X123119000Y-96222250D01*
X122888464Y-96222250D01*
X122888464Y-95375000D01*
X122874204Y-95299215D01*
X123119000Y-95299215D01*
X123119000Y-95777750D01*
X123214250Y-95873000D01*
X123873000Y-95873000D01*
X123873000Y-95089250D01*
X124127000Y-95089250D01*
X124127000Y-95873000D01*
X124785750Y-95873000D01*
X124881000Y-95777750D01*
X124881000Y-95299215D01*
X124822996Y-95159181D01*
X124715820Y-95052004D01*
X124575786Y-94994000D01*
X124222250Y-94994000D01*
X124127000Y-95089250D01*
X123873000Y-95089250D01*
X123777750Y-94994000D01*
X123424214Y-94994000D01*
X123284180Y-95052004D01*
X123177004Y-95159181D01*
X123119000Y-95299215D01*
X122874204Y-95299215D01*
X122861897Y-95233810D01*
X122778454Y-95104135D01*
X122735800Y-95074991D01*
X122735800Y-94651018D01*
X122770865Y-94628454D01*
X122857859Y-94501134D01*
X122888464Y-94350000D01*
X122888464Y-93722250D01*
X124119000Y-93722250D01*
X124119000Y-94425785D01*
X124177004Y-94565819D01*
X124284180Y-94672996D01*
X124424214Y-94731000D01*
X124727750Y-94731000D01*
X124823000Y-94635750D01*
X124823000Y-93627000D01*
X125077000Y-93627000D01*
X125077000Y-94635750D01*
X125172250Y-94731000D01*
X125475786Y-94731000D01*
X125615820Y-94672996D01*
X125722996Y-94565819D01*
X125781000Y-94425785D01*
X125781000Y-94176980D01*
X131810511Y-94176980D01*
X131934755Y-94476964D01*
X132251944Y-94837652D01*
X132683018Y-95049501D01*
X132873000Y-94989193D01*
X132873000Y-93987000D01*
X133127000Y-93987000D01*
X133127000Y-94989193D01*
X133316982Y-95049501D01*
X133748056Y-94837652D01*
X134065245Y-94476964D01*
X134189489Y-94176980D01*
X134128627Y-93987000D01*
X133127000Y-93987000D01*
X132873000Y-93987000D01*
X131871373Y-93987000D01*
X131810511Y-94176980D01*
X125781000Y-94176980D01*
X125781000Y-93722250D01*
X125685750Y-93627000D01*
X125077000Y-93627000D01*
X124823000Y-93627000D01*
X124214250Y-93627000D01*
X124119000Y-93722250D01*
X122888464Y-93722250D01*
X122888464Y-93543020D01*
X131810511Y-93543020D01*
X131871373Y-93733000D01*
X132873000Y-93733000D01*
X132873000Y-92730807D01*
X133127000Y-92730807D01*
X133127000Y-93733000D01*
X134128627Y-93733000D01*
X134189489Y-93543020D01*
X134065245Y-93243036D01*
X133748056Y-92882348D01*
X133316982Y-92670499D01*
X133127000Y-92730807D01*
X132873000Y-92730807D01*
X132683018Y-92670499D01*
X132251944Y-92882348D01*
X131934755Y-93243036D01*
X131810511Y-93543020D01*
X122888464Y-93543020D01*
X122888464Y-93415878D01*
X123730126Y-92574215D01*
X124119000Y-92574215D01*
X124119000Y-93277750D01*
X124214250Y-93373000D01*
X124823000Y-93373000D01*
X124823000Y-92364250D01*
X125077000Y-92364250D01*
X125077000Y-93373000D01*
X125685750Y-93373000D01*
X125781000Y-93277750D01*
X125781000Y-92574215D01*
X125722996Y-92434181D01*
X125615820Y-92327004D01*
X125475786Y-92269000D01*
X125172250Y-92269000D01*
X125077000Y-92364250D01*
X124823000Y-92364250D01*
X124727750Y-92269000D01*
X124424214Y-92269000D01*
X124284180Y-92327004D01*
X124177004Y-92434181D01*
X124119000Y-92574215D01*
X123730126Y-92574215D01*
X125770941Y-90533400D01*
X129509409Y-90533400D01*
X129298587Y-90848917D01*
X129204883Y-91320000D01*
X129298587Y-91791083D01*
X129565435Y-92190448D01*
X129964800Y-92457296D01*
X130435883Y-92551000D01*
X130484117Y-92551000D01*
X130955200Y-92457296D01*
X131354565Y-92190448D01*
X131621413Y-91791083D01*
X131715117Y-91320000D01*
X131621413Y-90848917D01*
X131410591Y-90533400D01*
X131750000Y-90533400D01*
X131954123Y-90492797D01*
X132127171Y-90377171D01*
X132573400Y-89930941D01*
X132975883Y-90011000D01*
X133024117Y-90011000D01*
X133495200Y-89917296D01*
X133894565Y-89650448D01*
X134161413Y-89251083D01*
X134255117Y-88780000D01*
X134161413Y-88308917D01*
X133977318Y-88033400D01*
X134029058Y-88033400D01*
X134466600Y-88470942D01*
X134466600Y-89529058D01*
X133685679Y-90309979D01*
X133495200Y-90182704D01*
X133024117Y-90089000D01*
X132975883Y-90089000D01*
X132504800Y-90182704D01*
X132105435Y-90449552D01*
X131838587Y-90848917D01*
X131744883Y-91320000D01*
X131838587Y-91791083D01*
X132105435Y-92190448D01*
X132504800Y-92457296D01*
X132975883Y-92551000D01*
X133024117Y-92551000D01*
X133495200Y-92457296D01*
X133894565Y-92190448D01*
X134161413Y-91791083D01*
X134255117Y-91320000D01*
X134243375Y-91260967D01*
X135377171Y-90127171D01*
X135492797Y-89954124D01*
X135533400Y-89750000D01*
X135533400Y-88250000D01*
X135492797Y-88045877D01*
X135377171Y-87872829D01*
X134627171Y-87122829D01*
X134454123Y-87007203D01*
X134250000Y-86966600D01*
X133990681Y-86966600D01*
X134161413Y-86711083D01*
X134255117Y-86240000D01*
X134161413Y-85768917D01*
X133894565Y-85369552D01*
X133495200Y-85102704D01*
X133024117Y-85009000D01*
X132975883Y-85009000D01*
X132504800Y-85102704D01*
X132105435Y-85369552D01*
X131838587Y-85768917D01*
X131744883Y-86240000D01*
X131838587Y-86711083D01*
X132009319Y-86966600D01*
X131450681Y-86966600D01*
X131621413Y-86711083D01*
X131715117Y-86240000D01*
X131621413Y-85768917D01*
X131354565Y-85369552D01*
X130955200Y-85102704D01*
X130484117Y-85009000D01*
X130435883Y-85009000D01*
X129964800Y-85102704D01*
X129565435Y-85369552D01*
X129298587Y-85768917D01*
X129204883Y-86240000D01*
X129298587Y-86711083D01*
X129469319Y-86966600D01*
X125170942Y-86966600D01*
X122688464Y-84484122D01*
X122688464Y-83850000D01*
X122661897Y-83708810D01*
X122656228Y-83700000D01*
X129204883Y-83700000D01*
X129298587Y-84171083D01*
X129565435Y-84570448D01*
X129964800Y-84837296D01*
X130435883Y-84931000D01*
X130484117Y-84931000D01*
X130955200Y-84837296D01*
X131354565Y-84570448D01*
X131621413Y-84171083D01*
X131715117Y-83700000D01*
X131621413Y-83228917D01*
X131354565Y-82829552D01*
X130955200Y-82562704D01*
X130484117Y-82469000D01*
X130435883Y-82469000D01*
X129964800Y-82562704D01*
X129565435Y-82829552D01*
X129298587Y-83228917D01*
X129204883Y-83700000D01*
X122656228Y-83700000D01*
X122578454Y-83579135D01*
X122451134Y-83492141D01*
X122300000Y-83461536D01*
X121600000Y-83461536D01*
X121458810Y-83488103D01*
X121329135Y-83571546D01*
X121242141Y-83698866D01*
X121211536Y-83850000D01*
X121211536Y-85150000D01*
X121238103Y-85291190D01*
X121321546Y-85420865D01*
X121448866Y-85507859D01*
X121600000Y-85538464D01*
X122234122Y-85538464D01*
X124572829Y-87877171D01*
X124745877Y-87992797D01*
X124950000Y-88033401D01*
X124950005Y-88033400D01*
X129482682Y-88033400D01*
X129298587Y-88308917D01*
X129204883Y-88780000D01*
X129298587Y-89251083D01*
X129442591Y-89466600D01*
X125550000Y-89466600D01*
X125345876Y-89507203D01*
X125306375Y-89533597D01*
X125172829Y-89622829D01*
X125172827Y-89622832D01*
X122528376Y-92267282D01*
X122500000Y-92261536D01*
X121600000Y-92261536D01*
X121458810Y-92288103D01*
X121329135Y-92371546D01*
X121242141Y-92498866D01*
X121211536Y-92650000D01*
X121211536Y-92814200D01*
X120288464Y-92814200D01*
X120288464Y-92650000D01*
X120261897Y-92508810D01*
X120178454Y-92379135D01*
X120051134Y-92292141D01*
X119900000Y-92261536D01*
X119000000Y-92261536D01*
X118858810Y-92288103D01*
X118729135Y-92371546D01*
X118642141Y-92498866D01*
X118611536Y-92650000D01*
X117388464Y-92650000D01*
X117361897Y-92508810D01*
X117278454Y-92379135D01*
X117235800Y-92349991D01*
X117235800Y-92050000D01*
X117183597Y-91787556D01*
X117183597Y-91787555D01*
X117034934Y-91565066D01*
X115342118Y-89872250D01*
X116519000Y-89872250D01*
X116519000Y-90175786D01*
X116577004Y-90315820D01*
X116684181Y-90422996D01*
X116824215Y-90481000D01*
X117277750Y-90481000D01*
X117373000Y-90385750D01*
X117373000Y-89777000D01*
X117627000Y-89777000D01*
X117627000Y-90385750D01*
X117722250Y-90481000D01*
X118175785Y-90481000D01*
X118315819Y-90422996D01*
X118422996Y-90315820D01*
X118481000Y-90175786D01*
X118481000Y-89872250D01*
X118385750Y-89777000D01*
X117627000Y-89777000D01*
X117373000Y-89777000D01*
X116614250Y-89777000D01*
X116519000Y-89872250D01*
X115342118Y-89872250D01*
X114594082Y-89124214D01*
X116519000Y-89124214D01*
X116519000Y-89427750D01*
X116614250Y-89523000D01*
X117373000Y-89523000D01*
X117373000Y-88914250D01*
X117627000Y-88914250D01*
X117627000Y-89523000D01*
X118385750Y-89523000D01*
X118481000Y-89427750D01*
X118481000Y-89124214D01*
X118422996Y-88984180D01*
X118315819Y-88877004D01*
X118175785Y-88819000D01*
X117722250Y-88819000D01*
X117627000Y-88914250D01*
X117373000Y-88914250D01*
X117277750Y-88819000D01*
X116824215Y-88819000D01*
X116684181Y-88877004D01*
X116577004Y-88984180D01*
X116519000Y-89124214D01*
X114594082Y-89124214D01*
X113884934Y-88415066D01*
X113662445Y-88266403D01*
X113400000Y-88214200D01*
X113138464Y-88214200D01*
X113138464Y-87150000D01*
X113111897Y-87008810D01*
X113028454Y-86879135D01*
X112901134Y-86792141D01*
X112750000Y-86761536D01*
X109250000Y-86761536D01*
X109108810Y-86788103D01*
X108979135Y-86871546D01*
X108892141Y-86998866D01*
X108861536Y-87150000D01*
X107956000Y-87150000D01*
X107956000Y-80350000D01*
X108861536Y-80350000D01*
X108861536Y-83850000D01*
X108888103Y-83991190D01*
X108971546Y-84120865D01*
X109098866Y-84207859D01*
X109250000Y-84238464D01*
X112750000Y-84238464D01*
X112891190Y-84211897D01*
X113020865Y-84128454D01*
X113107859Y-84001134D01*
X113138464Y-83850000D01*
X113138464Y-82785800D01*
X113815932Y-82785800D01*
X116642852Y-85612720D01*
X116629135Y-85621546D01*
X116542141Y-85748866D01*
X116511536Y-85900000D01*
X116511536Y-86800000D01*
X116538103Y-86941190D01*
X116621546Y-87070865D01*
X116748866Y-87157859D01*
X116900000Y-87188464D01*
X118100000Y-87188464D01*
X118241190Y-87161897D01*
X118370865Y-87078454D01*
X118457859Y-86951134D01*
X118488464Y-86800000D01*
X118488464Y-85900000D01*
X118461897Y-85758810D01*
X118378454Y-85629135D01*
X118251134Y-85542141D01*
X118185800Y-85528911D01*
X118185800Y-85500000D01*
X118170059Y-85420865D01*
X118133597Y-85237555D01*
X117984934Y-85015066D01*
X114584934Y-81615066D01*
X114362445Y-81466403D01*
X114100000Y-81414200D01*
X113138464Y-81414200D01*
X113138464Y-80925000D01*
X116906536Y-80925000D01*
X116906536Y-82475000D01*
X116933103Y-82616190D01*
X117016546Y-82745865D01*
X117143866Y-82832859D01*
X117295000Y-82863464D01*
X117895000Y-82863464D01*
X118036190Y-82836897D01*
X118165865Y-82753454D01*
X118230530Y-82658813D01*
X118286546Y-82745865D01*
X118413866Y-82832859D01*
X118565000Y-82863464D01*
X119165000Y-82863464D01*
X119306190Y-82836897D01*
X119435865Y-82753454D01*
X119500530Y-82658813D01*
X119516600Y-82683787D01*
X119516600Y-83515264D01*
X119429135Y-83571546D01*
X119342141Y-83698866D01*
X119311536Y-83850000D01*
X119311536Y-85150000D01*
X119338103Y-85291190D01*
X119421546Y-85420865D01*
X119548866Y-85507859D01*
X119700000Y-85538464D01*
X120400000Y-85538464D01*
X120541190Y-85511897D01*
X120670865Y-85428454D01*
X120757859Y-85301134D01*
X120788464Y-85150000D01*
X120788464Y-83850000D01*
X120761897Y-83708810D01*
X120678454Y-83579135D01*
X120583400Y-83514187D01*
X120583400Y-82832258D01*
X120705865Y-82753454D01*
X120769420Y-82660439D01*
X120782004Y-82690820D01*
X120889181Y-82797996D01*
X121029215Y-82856000D01*
X121182750Y-82856000D01*
X121278000Y-82760750D01*
X121278000Y-81827000D01*
X121532000Y-81827000D01*
X121532000Y-82760750D01*
X121627250Y-82856000D01*
X121780785Y-82856000D01*
X121920819Y-82797996D01*
X122027996Y-82690820D01*
X122086000Y-82550786D01*
X122086000Y-81922250D01*
X121990750Y-81827000D01*
X121532000Y-81827000D01*
X121278000Y-81827000D01*
X121258000Y-81827000D01*
X121258000Y-81573000D01*
X121278000Y-81573000D01*
X121278000Y-80639250D01*
X121532000Y-80639250D01*
X121532000Y-81573000D01*
X121990750Y-81573000D01*
X122086000Y-81477750D01*
X122086000Y-81476980D01*
X129270511Y-81476980D01*
X129394755Y-81776964D01*
X129711944Y-82137652D01*
X130143018Y-82349501D01*
X130333000Y-82289193D01*
X130333000Y-81287000D01*
X130587000Y-81287000D01*
X130587000Y-82289193D01*
X130776982Y-82349501D01*
X131208056Y-82137652D01*
X131525245Y-81776964D01*
X131649489Y-81476980D01*
X131588627Y-81287000D01*
X130587000Y-81287000D01*
X130333000Y-81287000D01*
X129331373Y-81287000D01*
X129270511Y-81476980D01*
X122086000Y-81476980D01*
X122086000Y-80849214D01*
X122083435Y-80843020D01*
X129270511Y-80843020D01*
X129331373Y-81033000D01*
X130333000Y-81033000D01*
X130333000Y-80030807D01*
X130587000Y-80030807D01*
X130587000Y-81033000D01*
X131588627Y-81033000D01*
X131649489Y-80843020D01*
X131525245Y-80543036D01*
X131208056Y-80182348D01*
X130776982Y-79970499D01*
X130587000Y-80030807D01*
X130333000Y-80030807D01*
X130143018Y-79970499D01*
X129711944Y-80182348D01*
X129394755Y-80543036D01*
X129270511Y-80843020D01*
X122083435Y-80843020D01*
X122027996Y-80709180D01*
X121920819Y-80602004D01*
X121780785Y-80544000D01*
X121627250Y-80544000D01*
X121532000Y-80639250D01*
X121278000Y-80639250D01*
X121182750Y-80544000D01*
X121029215Y-80544000D01*
X120889181Y-80602004D01*
X120782004Y-80709180D01*
X120769030Y-80740503D01*
X120713454Y-80654135D01*
X120586134Y-80567141D01*
X120435000Y-80536536D01*
X119835000Y-80536536D01*
X119693810Y-80563103D01*
X119564135Y-80646546D01*
X119499470Y-80741187D01*
X119443454Y-80654135D01*
X119398400Y-80623351D01*
X119398400Y-79855942D01*
X119530415Y-79723927D01*
X119643361Y-79724025D01*
X119909521Y-79614050D01*
X120113335Y-79410592D01*
X120223774Y-79144624D01*
X120224025Y-78856639D01*
X120114050Y-78590479D01*
X119910592Y-78386665D01*
X119644624Y-78276226D01*
X119356639Y-78275975D01*
X119090479Y-78385950D01*
X118886665Y-78589408D01*
X118776226Y-78855376D01*
X118776127Y-78969532D01*
X118487829Y-79257829D01*
X118403666Y-79383789D01*
X118144624Y-79276226D01*
X117856639Y-79275975D01*
X117590479Y-79385950D01*
X117386665Y-79589408D01*
X117276226Y-79855376D01*
X117276127Y-79969532D01*
X117217829Y-80027829D01*
X117102203Y-80200877D01*
X117061600Y-80405000D01*
X117061600Y-80622438D01*
X117024135Y-80646546D01*
X116937141Y-80773866D01*
X116906536Y-80925000D01*
X113138464Y-80925000D01*
X113138464Y-80350000D01*
X113111897Y-80208810D01*
X113028454Y-80079135D01*
X112901134Y-79992141D01*
X112750000Y-79961536D01*
X109250000Y-79961536D01*
X109108810Y-79988103D01*
X108979135Y-80071546D01*
X108892141Y-80198866D01*
X108861536Y-80350000D01*
X107956000Y-80350000D01*
X107956000Y-76143361D01*
X115275975Y-76143361D01*
X115385950Y-76409521D01*
X115589408Y-76613335D01*
X115855376Y-76723774D01*
X115992755Y-76723894D01*
X116095877Y-76792797D01*
X116300000Y-76833400D01*
X116906536Y-76833400D01*
X116906536Y-77075000D01*
X116933103Y-77216190D01*
X117016546Y-77345865D01*
X117143866Y-77432859D01*
X117295000Y-77463464D01*
X117895000Y-77463464D01*
X118036190Y-77436897D01*
X118165865Y-77353454D01*
X118230530Y-77258813D01*
X118286546Y-77345865D01*
X118413866Y-77432859D01*
X118565000Y-77463464D01*
X119165000Y-77463464D01*
X119306190Y-77436897D01*
X119435865Y-77353454D01*
X119500530Y-77258813D01*
X119556546Y-77345865D01*
X119683866Y-77432859D01*
X119835000Y-77463464D01*
X120435000Y-77463464D01*
X120576190Y-77436897D01*
X120705865Y-77353454D01*
X120770530Y-77258813D01*
X120826546Y-77345865D01*
X120953866Y-77432859D01*
X121105000Y-77463464D01*
X121705000Y-77463464D01*
X121846190Y-77436897D01*
X121975865Y-77353454D01*
X122062859Y-77226134D01*
X122093464Y-77075000D01*
X122093464Y-76833400D01*
X122629058Y-76833400D01*
X122811536Y-77015878D01*
X122811536Y-77650000D01*
X122838103Y-77791190D01*
X122921546Y-77920865D01*
X123048866Y-78007859D01*
X123200000Y-78038464D01*
X123900000Y-78038464D01*
X124041190Y-78011897D01*
X124170865Y-77928454D01*
X124257859Y-77801134D01*
X124288464Y-77650000D01*
X124288464Y-77222250D01*
X124719000Y-77222250D01*
X124719000Y-77725785D01*
X124777004Y-77865819D01*
X124884180Y-77972996D01*
X125024214Y-78031000D01*
X125227750Y-78031000D01*
X125323000Y-77935750D01*
X125323000Y-77127000D01*
X125577000Y-77127000D01*
X125577000Y-77935750D01*
X125672250Y-78031000D01*
X125875786Y-78031000D01*
X126015820Y-77972996D01*
X126122996Y-77865819D01*
X126181000Y-77725785D01*
X126181000Y-77222250D01*
X126085750Y-77127000D01*
X125577000Y-77127000D01*
X125323000Y-77127000D01*
X124814250Y-77127000D01*
X124719000Y-77222250D01*
X124288464Y-77222250D01*
X124288464Y-76350000D01*
X124274204Y-76274215D01*
X124719000Y-76274215D01*
X124719000Y-76777750D01*
X124814250Y-76873000D01*
X125323000Y-76873000D01*
X125323000Y-76064250D01*
X125577000Y-76064250D01*
X125577000Y-76873000D01*
X126085750Y-76873000D01*
X126181000Y-76777750D01*
X126181000Y-76274215D01*
X126122996Y-76134181D01*
X126068816Y-76080000D01*
X129204883Y-76080000D01*
X129298587Y-76551083D01*
X129565435Y-76950448D01*
X129964800Y-77217296D01*
X130435883Y-77311000D01*
X130484117Y-77311000D01*
X130955200Y-77217296D01*
X131354565Y-76950448D01*
X131621413Y-76551083D01*
X131715117Y-76080000D01*
X131621413Y-75608917D01*
X131354565Y-75209552D01*
X130955200Y-74942704D01*
X130484117Y-74849000D01*
X130435883Y-74849000D01*
X129964800Y-74942704D01*
X129565435Y-75209552D01*
X129298587Y-75608917D01*
X129204883Y-76080000D01*
X126068816Y-76080000D01*
X126015820Y-76027004D01*
X125875786Y-75969000D01*
X125672250Y-75969000D01*
X125577000Y-76064250D01*
X125323000Y-76064250D01*
X125227750Y-75969000D01*
X125024214Y-75969000D01*
X124884180Y-76027004D01*
X124777004Y-76134181D01*
X124719000Y-76274215D01*
X124274204Y-76274215D01*
X124261897Y-76208810D01*
X124178454Y-76079135D01*
X124051134Y-75992141D01*
X123900000Y-75961536D01*
X123265878Y-75961536D01*
X123227171Y-75922829D01*
X123054123Y-75807203D01*
X122850000Y-75766600D01*
X122093464Y-75766600D01*
X122093464Y-75525000D01*
X122066897Y-75383810D01*
X121983454Y-75254135D01*
X121856134Y-75167141D01*
X121705000Y-75136536D01*
X121117806Y-75136536D01*
X121220942Y-75033400D01*
X122811536Y-75033400D01*
X122811536Y-75150000D01*
X122838103Y-75291190D01*
X122921546Y-75420865D01*
X123048866Y-75507859D01*
X123200000Y-75538464D01*
X123900000Y-75538464D01*
X124041190Y-75511897D01*
X124170865Y-75428454D01*
X124257859Y-75301134D01*
X124288464Y-75150000D01*
X124288464Y-74722250D01*
X124719000Y-74722250D01*
X124719000Y-75225785D01*
X124777004Y-75365819D01*
X124884180Y-75472996D01*
X125024214Y-75531000D01*
X125227750Y-75531000D01*
X125323000Y-75435750D01*
X125323000Y-74627000D01*
X125577000Y-74627000D01*
X125577000Y-75435750D01*
X125672250Y-75531000D01*
X125875786Y-75531000D01*
X126015820Y-75472996D01*
X126122996Y-75365819D01*
X126181000Y-75225785D01*
X126181000Y-74722250D01*
X126085750Y-74627000D01*
X125577000Y-74627000D01*
X125323000Y-74627000D01*
X124814250Y-74627000D01*
X124719000Y-74722250D01*
X124288464Y-74722250D01*
X124288464Y-73850000D01*
X124274204Y-73774215D01*
X124719000Y-73774215D01*
X124719000Y-74277750D01*
X124814250Y-74373000D01*
X125323000Y-74373000D01*
X125323000Y-73564250D01*
X125577000Y-73564250D01*
X125577000Y-74373000D01*
X126085750Y-74373000D01*
X126181000Y-74277750D01*
X126181000Y-73774215D01*
X126122996Y-73634181D01*
X126028816Y-73540000D01*
X129204883Y-73540000D01*
X129298587Y-74011083D01*
X129565435Y-74410448D01*
X129964800Y-74677296D01*
X130435883Y-74771000D01*
X130484117Y-74771000D01*
X130955200Y-74677296D01*
X131354565Y-74410448D01*
X131621413Y-74011083D01*
X131715117Y-73540000D01*
X131621413Y-73068917D01*
X131354565Y-72669552D01*
X130955200Y-72402704D01*
X130484117Y-72309000D01*
X130435883Y-72309000D01*
X129964800Y-72402704D01*
X129565435Y-72669552D01*
X129298587Y-73068917D01*
X129204883Y-73540000D01*
X126028816Y-73540000D01*
X126015820Y-73527004D01*
X125875786Y-73469000D01*
X125672250Y-73469000D01*
X125577000Y-73564250D01*
X125323000Y-73564250D01*
X125227750Y-73469000D01*
X125024214Y-73469000D01*
X124884180Y-73527004D01*
X124777004Y-73634181D01*
X124719000Y-73774215D01*
X124274204Y-73774215D01*
X124261897Y-73708810D01*
X124178454Y-73579135D01*
X124051134Y-73492141D01*
X123900000Y-73461536D01*
X123200000Y-73461536D01*
X123058810Y-73488103D01*
X122929135Y-73571546D01*
X122842141Y-73698866D01*
X122811536Y-73850000D01*
X122811536Y-73966600D01*
X121537742Y-73966600D01*
X122818315Y-72686027D01*
X122838103Y-72791190D01*
X122921546Y-72920865D01*
X123048866Y-73007859D01*
X123200000Y-73038464D01*
X123900000Y-73038464D01*
X124041190Y-73011897D01*
X124170865Y-72928454D01*
X124257859Y-72801134D01*
X124288464Y-72650000D01*
X124288464Y-72222250D01*
X124719000Y-72222250D01*
X124719000Y-72725785D01*
X124777004Y-72865819D01*
X124884180Y-72972996D01*
X125024214Y-73031000D01*
X125227750Y-73031000D01*
X125323000Y-72935750D01*
X125323000Y-72127000D01*
X125577000Y-72127000D01*
X125577000Y-72935750D01*
X125672250Y-73031000D01*
X125875786Y-73031000D01*
X126015820Y-72972996D01*
X126122996Y-72865819D01*
X126181000Y-72725785D01*
X126181000Y-72222250D01*
X126085750Y-72127000D01*
X125577000Y-72127000D01*
X125323000Y-72127000D01*
X124814250Y-72127000D01*
X124719000Y-72222250D01*
X124288464Y-72222250D01*
X124288464Y-71350000D01*
X124274204Y-71274215D01*
X124719000Y-71274215D01*
X124719000Y-71777750D01*
X124814250Y-71873000D01*
X125323000Y-71873000D01*
X125323000Y-71064250D01*
X125577000Y-71064250D01*
X125577000Y-71873000D01*
X126085750Y-71873000D01*
X126181000Y-71777750D01*
X126181000Y-71274215D01*
X126122996Y-71134181D01*
X126015820Y-71027004D01*
X125875786Y-70969000D01*
X125672250Y-70969000D01*
X125577000Y-71064250D01*
X125323000Y-71064250D01*
X125227750Y-70969000D01*
X125024214Y-70969000D01*
X124884180Y-71027004D01*
X124777004Y-71134181D01*
X124719000Y-71274215D01*
X124274204Y-71274215D01*
X124261897Y-71208810D01*
X124178454Y-71079135D01*
X124051134Y-70992141D01*
X123900000Y-70961536D01*
X123200000Y-70961536D01*
X123058810Y-70988103D01*
X122929135Y-71071546D01*
X122842141Y-71198866D01*
X122811536Y-71350000D01*
X122811536Y-71466600D01*
X122750005Y-71466600D01*
X122750000Y-71466599D01*
X122545877Y-71507203D01*
X122372829Y-71622829D01*
X118859122Y-75136536D01*
X118565000Y-75136536D01*
X118423810Y-75163103D01*
X118294135Y-75246546D01*
X118229470Y-75341187D01*
X118173454Y-75254135D01*
X118046134Y-75167141D01*
X117895000Y-75136536D01*
X117295000Y-75136536D01*
X117153810Y-75163103D01*
X117024135Y-75246546D01*
X116937141Y-75373866D01*
X116906536Y-75525000D01*
X116906536Y-75766600D01*
X116686822Y-75766600D01*
X116614050Y-75590479D01*
X116410592Y-75386665D01*
X116144624Y-75276226D01*
X115856639Y-75275975D01*
X115590479Y-75385950D01*
X115386665Y-75589408D01*
X115276226Y-75855376D01*
X115275975Y-76143361D01*
X107956000Y-76143361D01*
X107956000Y-72142316D01*
X110018657Y-72142316D01*
X110319611Y-72870680D01*
X110876389Y-73428431D01*
X111604226Y-73730655D01*
X112392316Y-73731343D01*
X113120680Y-73430389D01*
X113678431Y-72873611D01*
X113980655Y-72145774D01*
X113981343Y-71357684D01*
X113680389Y-70629320D01*
X113123611Y-70071569D01*
X112395774Y-69769345D01*
X111607684Y-69768657D01*
X110879320Y-70069611D01*
X110321569Y-70626389D01*
X110019345Y-71354226D01*
X110018657Y-72142316D01*
X107956000Y-72142316D01*
X107956000Y-66026438D01*
X108030446Y-66206612D01*
X108351697Y-66528423D01*
X108771646Y-66702801D01*
X109226359Y-66703198D01*
X109646612Y-66529554D01*
X109968423Y-66208303D01*
X110142801Y-65788354D01*
X110143198Y-65333641D01*
X109969554Y-64913388D01*
X109648303Y-64591577D01*
X109321797Y-64456000D01*
X111218774Y-64456000D01*
X110893388Y-64590446D01*
M02*
