G04 #@! TF.FileFunction,Copper,L2,Bot,Signal*
%FSLAX46Y46*%
G04 Gerber Fmt 4.6, Leading zero omitted, Abs format (unit mm)*
G04 Created by KiCad (PCBNEW 4.0.7-e2-6376~58~ubuntu14.04.1) date Sun Jul  1 13:34:02 2018*
%MOMM*%
%LPD*%
G01*
G04 APERTURE LIST*
%ADD10C,0.076200*%
%ADD11C,1.524000*%
%ADD12R,1.700000X1.700000*%
%ADD13O,1.700000X1.700000*%
%ADD14R,1.500000X1.250000*%
%ADD15R,1.500000X1.300000*%
%ADD16C,0.685800*%
%ADD17C,0.304800*%
%ADD18C,0.152400*%
%ADD19C,0.254000*%
G04 APERTURE END LIST*
D10*
D11*
X137337800Y-76327000D03*
X137337800Y-78333600D03*
X137337800Y-80340200D03*
X137337800Y-82346800D03*
X137337800Y-84353400D03*
X137337800Y-86360000D03*
X137337800Y-88366600D03*
X137337800Y-90373200D03*
X137337800Y-92379800D03*
X137337800Y-94386400D03*
X159334200Y-94386400D03*
X159334200Y-92379800D03*
X159334200Y-90373200D03*
X159334200Y-88366600D03*
X159334200Y-86360000D03*
X159334200Y-84353400D03*
X159334200Y-82346800D03*
X159334200Y-80340200D03*
X159334200Y-78333600D03*
X159334200Y-76327000D03*
D12*
X132500000Y-99500000D03*
D13*
X135040000Y-99500000D03*
D12*
X120396000Y-100076000D03*
X125476000Y-100076000D03*
X140250000Y-66750000D03*
D13*
X137710000Y-66750000D03*
X135170000Y-66750000D03*
X132630000Y-66750000D03*
X130090000Y-66750000D03*
X127550000Y-66750000D03*
D14*
X124353000Y-96139000D03*
X126853000Y-96139000D03*
D15*
X124253000Y-87249000D03*
X126953000Y-87249000D03*
X124253000Y-89535000D03*
X126953000Y-89535000D03*
D12*
X130302000Y-70866000D03*
D13*
X130302000Y-73406000D03*
X132842000Y-73406000D03*
X130302000Y-75946000D03*
X132842000Y-75946000D03*
X130302000Y-78486000D03*
X132842000Y-78486000D03*
X132842000Y-81026000D03*
X132842000Y-83566000D03*
X130302000Y-86106000D03*
X132842000Y-86106000D03*
X130302000Y-88646000D03*
X132842000Y-88646000D03*
X130302000Y-91186000D03*
X132842000Y-91186000D03*
X130302000Y-93726000D03*
D16*
X113919000Y-74422000D03*
X124079000Y-84201000D03*
X123260000Y-82130000D03*
X139231000Y-97257000D03*
X127889000Y-69342000D03*
D17*
X124353000Y-96139000D02*
X124353000Y-98953000D01*
X124353000Y-98953000D02*
X125476000Y-100076000D01*
X126853000Y-96139000D02*
X129139000Y-96139000D01*
X129139000Y-96139000D02*
X132500000Y-99500000D01*
X124253000Y-89535000D02*
X126853000Y-92135000D01*
X126853000Y-92135000D02*
X126853000Y-96139000D01*
X130090000Y-66750000D02*
X130090000Y-67090000D01*
X130090000Y-67090000D02*
X131500000Y-68500000D01*
X131500000Y-68500000D02*
X131500000Y-74604000D01*
X131500000Y-74604000D02*
X132842000Y-75946000D01*
X126953000Y-87249000D02*
X127080000Y-87376000D01*
X127080000Y-87376000D02*
X131572000Y-87376000D01*
X131572000Y-87376000D02*
X132842000Y-88646000D01*
D18*
X130280000Y-91500000D02*
X130460000Y-91320000D01*
D17*
X126953000Y-89535000D02*
X127334000Y-89916000D01*
X127334000Y-89916000D02*
X131572000Y-89916000D01*
X131572000Y-89916000D02*
X132842000Y-91186000D01*
X137337800Y-78333600D02*
X138087600Y-78333600D01*
X138087600Y-78333600D02*
X139231000Y-79477000D01*
X139231000Y-79477000D02*
X139231000Y-97257000D01*
X124253000Y-87249000D02*
X127889000Y-83613000D01*
X127889000Y-83613000D02*
X127889000Y-69342000D01*
X132630000Y-66750000D02*
X132500000Y-66750000D01*
X130302000Y-75946000D02*
X130302000Y-76200000D01*
X130302000Y-76200000D02*
X131318000Y-77216000D01*
X131318000Y-77216000D02*
X134493000Y-77216000D01*
X134493000Y-77216000D02*
X135170000Y-76539000D01*
X135170000Y-76539000D02*
X135170000Y-66750000D01*
D19*
G36*
X160696400Y-102196400D02*
X107803600Y-102196400D01*
X107803600Y-99122196D01*
X109372274Y-99122196D01*
X109657793Y-99813204D01*
X110186015Y-100342349D01*
X110876524Y-100629073D01*
X111624196Y-100629726D01*
X112315204Y-100344207D01*
X112844349Y-99815985D01*
X113089331Y-99226000D01*
X119261127Y-99226000D01*
X119261127Y-100926000D01*
X119280609Y-101029539D01*
X119341801Y-101124634D01*
X119435168Y-101188429D01*
X119546000Y-101210873D01*
X121246000Y-101210873D01*
X121349539Y-101191391D01*
X121444634Y-101130199D01*
X121508429Y-101036832D01*
X121530873Y-100926000D01*
X121530873Y-99226000D01*
X121511391Y-99122461D01*
X121450199Y-99027366D01*
X121356832Y-98963571D01*
X121246000Y-98941127D01*
X119546000Y-98941127D01*
X119442461Y-98960609D01*
X119347366Y-99021801D01*
X119283571Y-99115168D01*
X119261127Y-99226000D01*
X113089331Y-99226000D01*
X113131073Y-99125476D01*
X113131726Y-98377804D01*
X112846207Y-97686796D01*
X112317985Y-97157651D01*
X111627476Y-96870927D01*
X110879804Y-96870274D01*
X110188796Y-97155793D01*
X109659651Y-97684015D01*
X109372927Y-98374524D01*
X109372274Y-99122196D01*
X107803600Y-99122196D01*
X107803600Y-95514000D01*
X123318127Y-95514000D01*
X123318127Y-96764000D01*
X123337609Y-96867539D01*
X123398801Y-96962634D01*
X123492168Y-97026429D01*
X123603000Y-97048873D01*
X123921200Y-97048873D01*
X123921200Y-98953000D01*
X123954069Y-99118243D01*
X124026070Y-99226000D01*
X124047671Y-99258329D01*
X124341127Y-99551785D01*
X124341127Y-100926000D01*
X124360609Y-101029539D01*
X124421801Y-101124634D01*
X124515168Y-101188429D01*
X124626000Y-101210873D01*
X126326000Y-101210873D01*
X126429539Y-101191391D01*
X126524634Y-101130199D01*
X126588429Y-101036832D01*
X126610873Y-100926000D01*
X126610873Y-99226000D01*
X126591391Y-99122461D01*
X126530199Y-99027366D01*
X126436832Y-98963571D01*
X126326000Y-98941127D01*
X124951785Y-98941127D01*
X124784800Y-98774142D01*
X124784800Y-97048873D01*
X125103000Y-97048873D01*
X125206539Y-97029391D01*
X125301634Y-96968199D01*
X125365429Y-96874832D01*
X125387873Y-96764000D01*
X125387873Y-95514000D01*
X125368391Y-95410461D01*
X125307199Y-95315366D01*
X125213832Y-95251571D01*
X125103000Y-95229127D01*
X123603000Y-95229127D01*
X123499461Y-95248609D01*
X123404366Y-95309801D01*
X123340571Y-95403168D01*
X123318127Y-95514000D01*
X107803600Y-95514000D01*
X107803600Y-88885000D01*
X123218127Y-88885000D01*
X123218127Y-90185000D01*
X123237609Y-90288539D01*
X123298801Y-90383634D01*
X123392168Y-90447429D01*
X123503000Y-90469873D01*
X124577215Y-90469873D01*
X126421200Y-92313858D01*
X126421200Y-95229127D01*
X126103000Y-95229127D01*
X125999461Y-95248609D01*
X125904366Y-95309801D01*
X125840571Y-95403168D01*
X125818127Y-95514000D01*
X125818127Y-96764000D01*
X125837609Y-96867539D01*
X125898801Y-96962634D01*
X125992168Y-97026429D01*
X126103000Y-97048873D01*
X127603000Y-97048873D01*
X127706539Y-97029391D01*
X127801634Y-96968199D01*
X127865429Y-96874832D01*
X127887873Y-96764000D01*
X127887873Y-96570800D01*
X128960142Y-96570800D01*
X131365127Y-98975785D01*
X131365127Y-100350000D01*
X131384609Y-100453539D01*
X131445801Y-100548634D01*
X131539168Y-100612429D01*
X131650000Y-100634873D01*
X133350000Y-100634873D01*
X133453539Y-100615391D01*
X133548634Y-100554199D01*
X133612429Y-100460832D01*
X133634873Y-100350000D01*
X133634873Y-99477874D01*
X133910600Y-99477874D01*
X133910600Y-99522126D01*
X133996570Y-99954329D01*
X134241394Y-100320732D01*
X134607797Y-100565556D01*
X135040000Y-100651526D01*
X135472203Y-100565556D01*
X135838606Y-100320732D01*
X136083430Y-99954329D01*
X136169400Y-99522126D01*
X136169400Y-99477874D01*
X136098652Y-99122196D01*
X155370274Y-99122196D01*
X155655793Y-99813204D01*
X156184015Y-100342349D01*
X156874524Y-100629073D01*
X157622196Y-100629726D01*
X158313204Y-100344207D01*
X158842349Y-99815985D01*
X159129073Y-99125476D01*
X159129726Y-98377804D01*
X158844207Y-97686796D01*
X158315985Y-97157651D01*
X157625476Y-96870927D01*
X156877804Y-96870274D01*
X156186796Y-97155793D01*
X155657651Y-97684015D01*
X155370927Y-98374524D01*
X155370274Y-99122196D01*
X136098652Y-99122196D01*
X136083430Y-99045671D01*
X135838606Y-98679268D01*
X135472203Y-98434444D01*
X135040000Y-98348474D01*
X134607797Y-98434444D01*
X134241394Y-98679268D01*
X133996570Y-99045671D01*
X133910600Y-99477874D01*
X133634873Y-99477874D01*
X133634873Y-98650000D01*
X133615391Y-98546461D01*
X133554199Y-98451366D01*
X133460832Y-98387571D01*
X133350000Y-98365127D01*
X131975785Y-98365127D01*
X129444329Y-95833671D01*
X129304243Y-95740069D01*
X129139000Y-95707200D01*
X127887873Y-95707200D01*
X127887873Y-95514000D01*
X127868391Y-95410461D01*
X127807199Y-95315366D01*
X127713832Y-95251571D01*
X127603000Y-95229127D01*
X127284800Y-95229127D01*
X127284800Y-93726000D01*
X129150474Y-93726000D01*
X129236444Y-94158203D01*
X129481268Y-94524606D01*
X129847671Y-94769430D01*
X130279874Y-94855400D01*
X130324126Y-94855400D01*
X130756329Y-94769430D01*
X131122732Y-94524606D01*
X131367556Y-94158203D01*
X131453526Y-93726000D01*
X131367556Y-93293797D01*
X131122732Y-92927394D01*
X130756329Y-92682570D01*
X130324126Y-92596600D01*
X130279874Y-92596600D01*
X129847671Y-92682570D01*
X129481268Y-92927394D01*
X129236444Y-93293797D01*
X129150474Y-93726000D01*
X127284800Y-93726000D01*
X127284800Y-92135000D01*
X127251931Y-91969757D01*
X127158329Y-91829671D01*
X125287873Y-89959215D01*
X125287873Y-88885000D01*
X125268391Y-88781461D01*
X125207199Y-88686366D01*
X125113832Y-88622571D01*
X125003000Y-88600127D01*
X123503000Y-88600127D01*
X123399461Y-88619609D01*
X123304366Y-88680801D01*
X123240571Y-88774168D01*
X123218127Y-88885000D01*
X107803600Y-88885000D01*
X107803600Y-86599000D01*
X123218127Y-86599000D01*
X123218127Y-87899000D01*
X123237609Y-88002539D01*
X123298801Y-88097634D01*
X123392168Y-88161429D01*
X123503000Y-88183873D01*
X125003000Y-88183873D01*
X125106539Y-88164391D01*
X125201634Y-88103199D01*
X125265429Y-88009832D01*
X125287873Y-87899000D01*
X125287873Y-86824785D01*
X125513657Y-86599000D01*
X125918127Y-86599000D01*
X125918127Y-87899000D01*
X125937609Y-88002539D01*
X125998801Y-88097634D01*
X126092168Y-88161429D01*
X126203000Y-88183873D01*
X127703000Y-88183873D01*
X127806539Y-88164391D01*
X127901634Y-88103199D01*
X127965429Y-88009832D01*
X127987873Y-87899000D01*
X127987873Y-87807800D01*
X129540524Y-87807800D01*
X129481268Y-87847394D01*
X129236444Y-88213797D01*
X129150474Y-88646000D01*
X129236444Y-89078203D01*
X129481268Y-89444606D01*
X129540524Y-89484200D01*
X127987873Y-89484200D01*
X127987873Y-88885000D01*
X127968391Y-88781461D01*
X127907199Y-88686366D01*
X127813832Y-88622571D01*
X127703000Y-88600127D01*
X126203000Y-88600127D01*
X126099461Y-88619609D01*
X126004366Y-88680801D01*
X125940571Y-88774168D01*
X125918127Y-88885000D01*
X125918127Y-90185000D01*
X125937609Y-90288539D01*
X125998801Y-90383634D01*
X126092168Y-90447429D01*
X126203000Y-90469873D01*
X127703000Y-90469873D01*
X127806539Y-90450391D01*
X127901634Y-90389199D01*
X127929921Y-90347800D01*
X129540524Y-90347800D01*
X129481268Y-90387394D01*
X129236444Y-90753797D01*
X129150474Y-91186000D01*
X129236444Y-91618203D01*
X129481268Y-91984606D01*
X129847671Y-92229430D01*
X130279874Y-92315400D01*
X130324126Y-92315400D01*
X130756329Y-92229430D01*
X131122732Y-91984606D01*
X131367556Y-91618203D01*
X131453526Y-91186000D01*
X131367556Y-90753797D01*
X131122732Y-90387394D01*
X131063476Y-90347800D01*
X131393142Y-90347800D01*
X131785534Y-90740192D01*
X131776444Y-90753797D01*
X131690474Y-91186000D01*
X131776444Y-91618203D01*
X132021268Y-91984606D01*
X132387671Y-92229430D01*
X132819874Y-92315400D01*
X132864126Y-92315400D01*
X133296329Y-92229430D01*
X133662732Y-91984606D01*
X133907556Y-91618203D01*
X133993526Y-91186000D01*
X133907556Y-90753797D01*
X133662732Y-90387394D01*
X133296329Y-90142570D01*
X132864126Y-90056600D01*
X132819874Y-90056600D01*
X132405651Y-90138993D01*
X131877329Y-89610671D01*
X131737243Y-89517069D01*
X131572000Y-89484200D01*
X131063476Y-89484200D01*
X131122732Y-89444606D01*
X131367556Y-89078203D01*
X131453526Y-88646000D01*
X131367556Y-88213797D01*
X131122732Y-87847394D01*
X131063476Y-87807800D01*
X131393142Y-87807800D01*
X131785534Y-88200192D01*
X131776444Y-88213797D01*
X131690474Y-88646000D01*
X131776444Y-89078203D01*
X132021268Y-89444606D01*
X132387671Y-89689430D01*
X132819874Y-89775400D01*
X132864126Y-89775400D01*
X133296329Y-89689430D01*
X133662732Y-89444606D01*
X133907556Y-89078203D01*
X133993526Y-88646000D01*
X133907556Y-88213797D01*
X133662732Y-87847394D01*
X133296329Y-87602570D01*
X132864126Y-87516600D01*
X132819874Y-87516600D01*
X132405651Y-87598993D01*
X131877329Y-87070671D01*
X131737243Y-86977069D01*
X131572000Y-86944200D01*
X131063476Y-86944200D01*
X131122732Y-86904606D01*
X131367556Y-86538203D01*
X131453526Y-86106000D01*
X131690474Y-86106000D01*
X131776444Y-86538203D01*
X132021268Y-86904606D01*
X132387671Y-87149430D01*
X132819874Y-87235400D01*
X132864126Y-87235400D01*
X133296329Y-87149430D01*
X133662732Y-86904606D01*
X133907556Y-86538203D01*
X133993526Y-86106000D01*
X133907556Y-85673797D01*
X133662732Y-85307394D01*
X133296329Y-85062570D01*
X132864126Y-84976600D01*
X132819874Y-84976600D01*
X132387671Y-85062570D01*
X132021268Y-85307394D01*
X131776444Y-85673797D01*
X131690474Y-86106000D01*
X131453526Y-86106000D01*
X131367556Y-85673797D01*
X131122732Y-85307394D01*
X130756329Y-85062570D01*
X130324126Y-84976600D01*
X130279874Y-84976600D01*
X129847671Y-85062570D01*
X129481268Y-85307394D01*
X129236444Y-85673797D01*
X129150474Y-86106000D01*
X129236444Y-86538203D01*
X129481268Y-86904606D01*
X129540524Y-86944200D01*
X127987873Y-86944200D01*
X127987873Y-86599000D01*
X127968391Y-86495461D01*
X127907199Y-86400366D01*
X127813832Y-86336571D01*
X127703000Y-86314127D01*
X126203000Y-86314127D01*
X126099461Y-86333609D01*
X126004366Y-86394801D01*
X125940571Y-86488168D01*
X125918127Y-86599000D01*
X125513657Y-86599000D01*
X128194326Y-83918331D01*
X128194329Y-83918329D01*
X128233975Y-83858993D01*
X131803957Y-83858993D01*
X131900805Y-84092837D01*
X132174061Y-84412914D01*
X132549005Y-84604056D01*
X132715000Y-84579960D01*
X132715000Y-83693000D01*
X132969000Y-83693000D01*
X132969000Y-84579960D01*
X133134995Y-84604056D01*
X133509939Y-84412914D01*
X133783195Y-84092837D01*
X133880043Y-83858993D01*
X133855524Y-83693000D01*
X132969000Y-83693000D01*
X132715000Y-83693000D01*
X131828476Y-83693000D01*
X131803957Y-83858993D01*
X128233975Y-83858993D01*
X128287931Y-83778243D01*
X128287932Y-83778242D01*
X128320801Y-83613000D01*
X128320800Y-83612995D01*
X128320800Y-83273007D01*
X131803957Y-83273007D01*
X131828476Y-83439000D01*
X132715000Y-83439000D01*
X132715000Y-82552040D01*
X132969000Y-82552040D01*
X132969000Y-83439000D01*
X133855524Y-83439000D01*
X133880043Y-83273007D01*
X133783195Y-83039163D01*
X133509939Y-82719086D01*
X133134995Y-82527944D01*
X132969000Y-82552040D01*
X132715000Y-82552040D01*
X132549005Y-82527944D01*
X132174061Y-82719086D01*
X131900805Y-83039163D01*
X131803957Y-83273007D01*
X128320800Y-83273007D01*
X128320800Y-81026000D01*
X131690474Y-81026000D01*
X131776444Y-81458203D01*
X132021268Y-81824606D01*
X132387671Y-82069430D01*
X132819874Y-82155400D01*
X132864126Y-82155400D01*
X133296329Y-82069430D01*
X133662732Y-81824606D01*
X133907556Y-81458203D01*
X133993526Y-81026000D01*
X133907556Y-80593797D01*
X133662732Y-80227394D01*
X133296329Y-79982570D01*
X132864126Y-79896600D01*
X132819874Y-79896600D01*
X132387671Y-79982570D01*
X132021268Y-80227394D01*
X131776444Y-80593797D01*
X131690474Y-81026000D01*
X128320800Y-81026000D01*
X128320800Y-78486000D01*
X129150474Y-78486000D01*
X129236444Y-78918203D01*
X129481268Y-79284606D01*
X129847671Y-79529430D01*
X130279874Y-79615400D01*
X130324126Y-79615400D01*
X130756329Y-79529430D01*
X131122732Y-79284606D01*
X131367556Y-78918203D01*
X131453526Y-78486000D01*
X131367556Y-78053797D01*
X131122732Y-77687394D01*
X130756329Y-77442570D01*
X130324126Y-77356600D01*
X130279874Y-77356600D01*
X129847671Y-77442570D01*
X129481268Y-77687394D01*
X129236444Y-78053797D01*
X129150474Y-78486000D01*
X128320800Y-78486000D01*
X128320800Y-69790251D01*
X128416253Y-69694965D01*
X128511192Y-69466326D01*
X128511408Y-69218760D01*
X128416868Y-68989956D01*
X128241965Y-68814747D01*
X128013326Y-68719808D01*
X127765760Y-68719592D01*
X127536956Y-68814132D01*
X127361747Y-68989035D01*
X127266808Y-69217674D01*
X127266592Y-69465240D01*
X127361132Y-69694044D01*
X127457200Y-69790280D01*
X127457200Y-83434143D01*
X124577215Y-86314127D01*
X123503000Y-86314127D01*
X123399461Y-86333609D01*
X123304366Y-86394801D01*
X123240571Y-86488168D01*
X123218127Y-86599000D01*
X107803600Y-86599000D01*
X107803600Y-67961596D01*
X109372274Y-67961596D01*
X109657793Y-68652604D01*
X110186015Y-69181749D01*
X110876524Y-69468473D01*
X111624196Y-69469126D01*
X112315204Y-69183607D01*
X112844349Y-68655385D01*
X113131073Y-67964876D01*
X113131726Y-67217204D01*
X112929539Y-66727874D01*
X126420600Y-66727874D01*
X126420600Y-66772126D01*
X126506570Y-67204329D01*
X126751394Y-67570732D01*
X127117797Y-67815556D01*
X127550000Y-67901526D01*
X127982203Y-67815556D01*
X128348606Y-67570732D01*
X128593430Y-67204329D01*
X128679400Y-66772126D01*
X128679400Y-66727874D01*
X128960600Y-66727874D01*
X128960600Y-66772126D01*
X129046570Y-67204329D01*
X129291394Y-67570732D01*
X129657797Y-67815556D01*
X130090000Y-67901526D01*
X130257542Y-67868200D01*
X131068200Y-68678858D01*
X131068200Y-69731127D01*
X129452000Y-69731127D01*
X129348461Y-69750609D01*
X129253366Y-69811801D01*
X129189571Y-69905168D01*
X129167127Y-70016000D01*
X129167127Y-71716000D01*
X129186609Y-71819539D01*
X129247801Y-71914634D01*
X129341168Y-71978429D01*
X129452000Y-72000873D01*
X131068200Y-72000873D01*
X131068200Y-72570957D01*
X130756329Y-72362570D01*
X130324126Y-72276600D01*
X130279874Y-72276600D01*
X129847671Y-72362570D01*
X129481268Y-72607394D01*
X129236444Y-72973797D01*
X129150474Y-73406000D01*
X129236444Y-73838203D01*
X129481268Y-74204606D01*
X129847671Y-74449430D01*
X130279874Y-74535400D01*
X130324126Y-74535400D01*
X130756329Y-74449430D01*
X131068200Y-74241043D01*
X131068200Y-74604000D01*
X131101069Y-74769243D01*
X131132712Y-74816600D01*
X131194671Y-74909329D01*
X131785535Y-75500192D01*
X131776444Y-75513797D01*
X131690474Y-75946000D01*
X131776444Y-76378203D01*
X132021268Y-76744606D01*
X132080524Y-76784200D01*
X131496858Y-76784200D01*
X131256727Y-76544069D01*
X131367556Y-76378203D01*
X131453526Y-75946000D01*
X131367556Y-75513797D01*
X131122732Y-75147394D01*
X130756329Y-74902570D01*
X130324126Y-74816600D01*
X130279874Y-74816600D01*
X129847671Y-74902570D01*
X129481268Y-75147394D01*
X129236444Y-75513797D01*
X129150474Y-75946000D01*
X129236444Y-76378203D01*
X129481268Y-76744606D01*
X129847671Y-76989430D01*
X130279874Y-77075400D01*
X130324126Y-77075400D01*
X130526490Y-77035148D01*
X131012671Y-77521329D01*
X131152757Y-77614931D01*
X131318000Y-77647800D01*
X132080524Y-77647800D01*
X132021268Y-77687394D01*
X131776444Y-78053797D01*
X131690474Y-78486000D01*
X131776444Y-78918203D01*
X132021268Y-79284606D01*
X132387671Y-79529430D01*
X132819874Y-79615400D01*
X132864126Y-79615400D01*
X133296329Y-79529430D01*
X133662732Y-79284606D01*
X133907556Y-78918203D01*
X133982817Y-78539838D01*
X136296220Y-78539838D01*
X136454429Y-78922735D01*
X136747124Y-79215941D01*
X137038670Y-79337002D01*
X136748665Y-79456829D01*
X136455459Y-79749524D01*
X136296581Y-80132144D01*
X136296220Y-80546438D01*
X136454429Y-80929335D01*
X136747124Y-81222541D01*
X137038670Y-81343602D01*
X136748665Y-81463429D01*
X136455459Y-81756124D01*
X136296581Y-82138744D01*
X136296220Y-82553038D01*
X136454429Y-82935935D01*
X136747124Y-83229141D01*
X137038670Y-83350202D01*
X136748665Y-83470029D01*
X136455459Y-83762724D01*
X136296581Y-84145344D01*
X136296220Y-84559638D01*
X136454429Y-84942535D01*
X136747124Y-85235741D01*
X137038670Y-85356802D01*
X136748665Y-85476629D01*
X136455459Y-85769324D01*
X136296581Y-86151944D01*
X136296220Y-86566238D01*
X136454429Y-86949135D01*
X136747124Y-87242341D01*
X137038670Y-87363402D01*
X136748665Y-87483229D01*
X136455459Y-87775924D01*
X136296581Y-88158544D01*
X136296220Y-88572838D01*
X136454429Y-88955735D01*
X136747124Y-89248941D01*
X137038670Y-89370002D01*
X136748665Y-89489829D01*
X136455459Y-89782524D01*
X136296581Y-90165144D01*
X136296220Y-90579438D01*
X136454429Y-90962335D01*
X136747124Y-91255541D01*
X137038670Y-91376602D01*
X136748665Y-91496429D01*
X136455459Y-91789124D01*
X136296581Y-92171744D01*
X136296220Y-92586038D01*
X136454429Y-92968935D01*
X136747124Y-93262141D01*
X137038670Y-93383202D01*
X136748665Y-93503029D01*
X136455459Y-93795724D01*
X136296581Y-94178344D01*
X136296220Y-94592638D01*
X136454429Y-94975535D01*
X136747124Y-95268741D01*
X137129744Y-95427619D01*
X137544038Y-95427980D01*
X137926935Y-95269771D01*
X138220141Y-94977076D01*
X138379019Y-94594456D01*
X138379380Y-94180162D01*
X138221171Y-93797265D01*
X137928476Y-93504059D01*
X137636930Y-93382998D01*
X137926935Y-93263171D01*
X138220141Y-92970476D01*
X138379019Y-92587856D01*
X138379380Y-92173562D01*
X138221171Y-91790665D01*
X137928476Y-91497459D01*
X137636930Y-91376398D01*
X137926935Y-91256571D01*
X138220141Y-90963876D01*
X138379019Y-90581256D01*
X138379380Y-90166962D01*
X138221171Y-89784065D01*
X137928476Y-89490859D01*
X137636930Y-89369798D01*
X137926935Y-89249971D01*
X138220141Y-88957276D01*
X138379019Y-88574656D01*
X138379380Y-88160362D01*
X138221171Y-87777465D01*
X137928476Y-87484259D01*
X137636930Y-87363198D01*
X137926935Y-87243371D01*
X138220141Y-86950676D01*
X138379019Y-86568056D01*
X138379380Y-86153762D01*
X138221171Y-85770865D01*
X137928476Y-85477659D01*
X137636930Y-85356598D01*
X137926935Y-85236771D01*
X138220141Y-84944076D01*
X138379019Y-84561456D01*
X138379380Y-84147162D01*
X138221171Y-83764265D01*
X137928476Y-83471059D01*
X137636930Y-83349998D01*
X137926935Y-83230171D01*
X138220141Y-82937476D01*
X138379019Y-82554856D01*
X138379380Y-82140562D01*
X138221171Y-81757665D01*
X137928476Y-81464459D01*
X137636930Y-81343398D01*
X137926935Y-81223571D01*
X138220141Y-80930876D01*
X138379019Y-80548256D01*
X138379380Y-80133962D01*
X138221171Y-79751065D01*
X137928476Y-79457859D01*
X137636930Y-79336798D01*
X137926935Y-79216971D01*
X138143813Y-79000471D01*
X138799200Y-79655858D01*
X138799200Y-96808749D01*
X138703747Y-96904035D01*
X138608808Y-97132674D01*
X138608592Y-97380240D01*
X138703132Y-97609044D01*
X138878035Y-97784253D01*
X139106674Y-97879192D01*
X139354240Y-97879408D01*
X139583044Y-97784868D01*
X139758253Y-97609965D01*
X139853192Y-97381326D01*
X139853408Y-97133760D01*
X139758868Y-96904956D01*
X139662800Y-96808720D01*
X139662800Y-79477005D01*
X139662801Y-79477000D01*
X139629931Y-79311758D01*
X139629931Y-79311757D01*
X139536329Y-79171671D01*
X138392929Y-78028271D01*
X138317655Y-77977975D01*
X138221171Y-77744465D01*
X137928476Y-77451259D01*
X137567474Y-77301358D01*
X137619982Y-77296788D01*
X137824011Y-77212276D01*
X137915758Y-77084563D01*
X137337800Y-76506605D01*
X136759842Y-77084563D01*
X136851589Y-77212276D01*
X137119664Y-77296936D01*
X136748665Y-77450229D01*
X136455459Y-77742924D01*
X136296581Y-78125544D01*
X136296220Y-78539838D01*
X133982817Y-78539838D01*
X133993526Y-78486000D01*
X133907556Y-78053797D01*
X133662732Y-77687394D01*
X133603476Y-77647800D01*
X134493000Y-77647800D01*
X134658243Y-77614931D01*
X134798329Y-77521329D01*
X135475326Y-76844331D01*
X135475329Y-76844329D01*
X135568931Y-76704243D01*
X135568932Y-76704242D01*
X135601801Y-76539000D01*
X135601800Y-76538995D01*
X135601800Y-76216580D01*
X136333846Y-76216580D01*
X136368012Y-76609182D01*
X136452524Y-76813211D01*
X136580237Y-76904958D01*
X137158195Y-76327000D01*
X137517405Y-76327000D01*
X138095363Y-76904958D01*
X138223076Y-76813211D01*
X138311493Y-76533238D01*
X158292620Y-76533238D01*
X158450829Y-76916135D01*
X158743524Y-77209341D01*
X159035070Y-77330402D01*
X158745065Y-77450229D01*
X158451859Y-77742924D01*
X158292981Y-78125544D01*
X158292620Y-78539838D01*
X158450829Y-78922735D01*
X158743524Y-79215941D01*
X159035070Y-79337002D01*
X158745065Y-79456829D01*
X158451859Y-79749524D01*
X158292981Y-80132144D01*
X158292620Y-80546438D01*
X158450829Y-80929335D01*
X158743524Y-81222541D01*
X159035070Y-81343602D01*
X158745065Y-81463429D01*
X158451859Y-81756124D01*
X158292981Y-82138744D01*
X158292620Y-82553038D01*
X158450829Y-82935935D01*
X158743524Y-83229141D01*
X159035070Y-83350202D01*
X158745065Y-83470029D01*
X158451859Y-83762724D01*
X158292981Y-84145344D01*
X158292620Y-84559638D01*
X158450829Y-84942535D01*
X158743524Y-85235741D01*
X159035070Y-85356802D01*
X158745065Y-85476629D01*
X158451859Y-85769324D01*
X158292981Y-86151944D01*
X158292620Y-86566238D01*
X158450829Y-86949135D01*
X158743524Y-87242341D01*
X159035070Y-87363402D01*
X158745065Y-87483229D01*
X158451859Y-87775924D01*
X158292981Y-88158544D01*
X158292620Y-88572838D01*
X158450829Y-88955735D01*
X158743524Y-89248941D01*
X159035070Y-89370002D01*
X158745065Y-89489829D01*
X158451859Y-89782524D01*
X158292981Y-90165144D01*
X158292620Y-90579438D01*
X158450829Y-90962335D01*
X158743524Y-91255541D01*
X159035070Y-91376602D01*
X158745065Y-91496429D01*
X158451859Y-91789124D01*
X158292981Y-92171744D01*
X158292620Y-92586038D01*
X158450829Y-92968935D01*
X158743524Y-93262141D01*
X159035070Y-93383202D01*
X158745065Y-93503029D01*
X158451859Y-93795724D01*
X158292981Y-94178344D01*
X158292620Y-94592638D01*
X158450829Y-94975535D01*
X158743524Y-95268741D01*
X159126144Y-95427619D01*
X159540438Y-95427980D01*
X159923335Y-95269771D01*
X160216541Y-94977076D01*
X160375419Y-94594456D01*
X160375780Y-94180162D01*
X160217571Y-93797265D01*
X159924876Y-93504059D01*
X159633330Y-93382998D01*
X159923335Y-93263171D01*
X160216541Y-92970476D01*
X160375419Y-92587856D01*
X160375780Y-92173562D01*
X160217571Y-91790665D01*
X159924876Y-91497459D01*
X159633330Y-91376398D01*
X159923335Y-91256571D01*
X160216541Y-90963876D01*
X160375419Y-90581256D01*
X160375780Y-90166962D01*
X160217571Y-89784065D01*
X159924876Y-89490859D01*
X159633330Y-89369798D01*
X159923335Y-89249971D01*
X160216541Y-88957276D01*
X160375419Y-88574656D01*
X160375780Y-88160362D01*
X160217571Y-87777465D01*
X159924876Y-87484259D01*
X159633330Y-87363198D01*
X159923335Y-87243371D01*
X160216541Y-86950676D01*
X160375419Y-86568056D01*
X160375780Y-86153762D01*
X160217571Y-85770865D01*
X159924876Y-85477659D01*
X159633330Y-85356598D01*
X159923335Y-85236771D01*
X160216541Y-84944076D01*
X160375419Y-84561456D01*
X160375780Y-84147162D01*
X160217571Y-83764265D01*
X159924876Y-83471059D01*
X159633330Y-83349998D01*
X159923335Y-83230171D01*
X160216541Y-82937476D01*
X160375419Y-82554856D01*
X160375780Y-82140562D01*
X160217571Y-81757665D01*
X159924876Y-81464459D01*
X159633330Y-81343398D01*
X159923335Y-81223571D01*
X160216541Y-80930876D01*
X160375419Y-80548256D01*
X160375780Y-80133962D01*
X160217571Y-79751065D01*
X159924876Y-79457859D01*
X159633330Y-79336798D01*
X159923335Y-79216971D01*
X160216541Y-78924276D01*
X160375419Y-78541656D01*
X160375780Y-78127362D01*
X160217571Y-77744465D01*
X159924876Y-77451259D01*
X159633330Y-77330198D01*
X159923335Y-77210371D01*
X160216541Y-76917676D01*
X160375419Y-76535056D01*
X160375780Y-76120762D01*
X160217571Y-75737865D01*
X159924876Y-75444659D01*
X159542256Y-75285781D01*
X159127962Y-75285420D01*
X158745065Y-75443629D01*
X158451859Y-75736324D01*
X158292981Y-76118944D01*
X158292620Y-76533238D01*
X138311493Y-76533238D01*
X138341754Y-76437420D01*
X138307588Y-76044818D01*
X138223076Y-75840789D01*
X138095363Y-75749042D01*
X137517405Y-76327000D01*
X137158195Y-76327000D01*
X136580237Y-75749042D01*
X136452524Y-75840789D01*
X136333846Y-76216580D01*
X135601800Y-76216580D01*
X135601800Y-75569437D01*
X136759842Y-75569437D01*
X137337800Y-76147395D01*
X137915758Y-75569437D01*
X137824011Y-75441724D01*
X137448220Y-75323046D01*
X137055618Y-75357212D01*
X136851589Y-75441724D01*
X136759842Y-75569437D01*
X135601800Y-75569437D01*
X135601800Y-67961596D01*
X155370274Y-67961596D01*
X155655793Y-68652604D01*
X156184015Y-69181749D01*
X156874524Y-69468473D01*
X157622196Y-69469126D01*
X158313204Y-69183607D01*
X158842349Y-68655385D01*
X159129073Y-67964876D01*
X159129726Y-67217204D01*
X158844207Y-66526196D01*
X158315985Y-65997051D01*
X157625476Y-65710327D01*
X156877804Y-65709674D01*
X156186796Y-65995193D01*
X155657651Y-66523415D01*
X155370927Y-67213924D01*
X155370274Y-67961596D01*
X135601800Y-67961596D01*
X135601800Y-67815636D01*
X135602203Y-67815556D01*
X135968606Y-67570732D01*
X136213430Y-67204329D01*
X136299400Y-66772126D01*
X136299400Y-66727874D01*
X136580600Y-66727874D01*
X136580600Y-66772126D01*
X136666570Y-67204329D01*
X136911394Y-67570732D01*
X137277797Y-67815556D01*
X137710000Y-67901526D01*
X138142203Y-67815556D01*
X138508606Y-67570732D01*
X138753430Y-67204329D01*
X138807171Y-66934150D01*
X139171400Y-66934150D01*
X139171400Y-67645471D01*
X139206202Y-67729491D01*
X139270508Y-67793797D01*
X139354528Y-67828600D01*
X140065850Y-67828600D01*
X140123000Y-67771450D01*
X140123000Y-66877000D01*
X140377000Y-66877000D01*
X140377000Y-67771450D01*
X140434150Y-67828600D01*
X141145472Y-67828600D01*
X141229492Y-67793797D01*
X141293798Y-67729491D01*
X141328600Y-67645471D01*
X141328600Y-66934150D01*
X141271450Y-66877000D01*
X140377000Y-66877000D01*
X140123000Y-66877000D01*
X139228550Y-66877000D01*
X139171400Y-66934150D01*
X138807171Y-66934150D01*
X138839400Y-66772126D01*
X138839400Y-66727874D01*
X138753430Y-66295671D01*
X138508606Y-65929268D01*
X138396752Y-65854529D01*
X139171400Y-65854529D01*
X139171400Y-66565850D01*
X139228550Y-66623000D01*
X140123000Y-66623000D01*
X140123000Y-65728550D01*
X140377000Y-65728550D01*
X140377000Y-66623000D01*
X141271450Y-66623000D01*
X141328600Y-66565850D01*
X141328600Y-65854529D01*
X141293798Y-65770509D01*
X141229492Y-65706203D01*
X141145472Y-65671400D01*
X140434150Y-65671400D01*
X140377000Y-65728550D01*
X140123000Y-65728550D01*
X140065850Y-65671400D01*
X139354528Y-65671400D01*
X139270508Y-65706203D01*
X139206202Y-65770509D01*
X139171400Y-65854529D01*
X138396752Y-65854529D01*
X138142203Y-65684444D01*
X137710000Y-65598474D01*
X137277797Y-65684444D01*
X136911394Y-65929268D01*
X136666570Y-66295671D01*
X136580600Y-66727874D01*
X136299400Y-66727874D01*
X136213430Y-66295671D01*
X135968606Y-65929268D01*
X135602203Y-65684444D01*
X135170000Y-65598474D01*
X134737797Y-65684444D01*
X134371394Y-65929268D01*
X134126570Y-66295671D01*
X134040600Y-66727874D01*
X134040600Y-66772126D01*
X134126570Y-67204329D01*
X134371394Y-67570732D01*
X134737797Y-67815556D01*
X134738200Y-67815636D01*
X134738200Y-76360143D01*
X134314142Y-76784200D01*
X133603476Y-76784200D01*
X133662732Y-76744606D01*
X133907556Y-76378203D01*
X133993526Y-75946000D01*
X133907556Y-75513797D01*
X133662732Y-75147394D01*
X133296329Y-74902570D01*
X132864126Y-74816600D01*
X132819874Y-74816600D01*
X132405651Y-74898994D01*
X131931800Y-74425142D01*
X131931800Y-74070708D01*
X132021268Y-74204606D01*
X132387671Y-74449430D01*
X132819874Y-74535400D01*
X132864126Y-74535400D01*
X133296329Y-74449430D01*
X133662732Y-74204606D01*
X133907556Y-73838203D01*
X133993526Y-73406000D01*
X133907556Y-72973797D01*
X133662732Y-72607394D01*
X133296329Y-72362570D01*
X132864126Y-72276600D01*
X132819874Y-72276600D01*
X132387671Y-72362570D01*
X132021268Y-72607394D01*
X131931800Y-72741292D01*
X131931800Y-68500000D01*
X131898931Y-68334757D01*
X131805329Y-68194671D01*
X131005879Y-67395221D01*
X131133430Y-67204329D01*
X131219400Y-66772126D01*
X131219400Y-66727874D01*
X131500600Y-66727874D01*
X131500600Y-66772126D01*
X131586570Y-67204329D01*
X131831394Y-67570732D01*
X132197797Y-67815556D01*
X132630000Y-67901526D01*
X133062203Y-67815556D01*
X133428606Y-67570732D01*
X133673430Y-67204329D01*
X133759400Y-66772126D01*
X133759400Y-66727874D01*
X133673430Y-66295671D01*
X133428606Y-65929268D01*
X133062203Y-65684444D01*
X132630000Y-65598474D01*
X132197797Y-65684444D01*
X131831394Y-65929268D01*
X131586570Y-66295671D01*
X131500600Y-66727874D01*
X131219400Y-66727874D01*
X131133430Y-66295671D01*
X130888606Y-65929268D01*
X130522203Y-65684444D01*
X130090000Y-65598474D01*
X129657797Y-65684444D01*
X129291394Y-65929268D01*
X129046570Y-66295671D01*
X128960600Y-66727874D01*
X128679400Y-66727874D01*
X128593430Y-66295671D01*
X128348606Y-65929268D01*
X127982203Y-65684444D01*
X127550000Y-65598474D01*
X127117797Y-65684444D01*
X126751394Y-65929268D01*
X126506570Y-66295671D01*
X126420600Y-66727874D01*
X112929539Y-66727874D01*
X112846207Y-66526196D01*
X112317985Y-65997051D01*
X111627476Y-65710327D01*
X110879804Y-65709674D01*
X110188796Y-65995193D01*
X109659651Y-66523415D01*
X109372927Y-67213924D01*
X109372274Y-67961596D01*
X107803600Y-67961596D01*
X107803600Y-64303600D01*
X160696400Y-64303600D01*
X160696400Y-102196400D01*
X160696400Y-102196400D01*
G37*
X160696400Y-102196400D02*
X107803600Y-102196400D01*
X107803600Y-99122196D01*
X109372274Y-99122196D01*
X109657793Y-99813204D01*
X110186015Y-100342349D01*
X110876524Y-100629073D01*
X111624196Y-100629726D01*
X112315204Y-100344207D01*
X112844349Y-99815985D01*
X113089331Y-99226000D01*
X119261127Y-99226000D01*
X119261127Y-100926000D01*
X119280609Y-101029539D01*
X119341801Y-101124634D01*
X119435168Y-101188429D01*
X119546000Y-101210873D01*
X121246000Y-101210873D01*
X121349539Y-101191391D01*
X121444634Y-101130199D01*
X121508429Y-101036832D01*
X121530873Y-100926000D01*
X121530873Y-99226000D01*
X121511391Y-99122461D01*
X121450199Y-99027366D01*
X121356832Y-98963571D01*
X121246000Y-98941127D01*
X119546000Y-98941127D01*
X119442461Y-98960609D01*
X119347366Y-99021801D01*
X119283571Y-99115168D01*
X119261127Y-99226000D01*
X113089331Y-99226000D01*
X113131073Y-99125476D01*
X113131726Y-98377804D01*
X112846207Y-97686796D01*
X112317985Y-97157651D01*
X111627476Y-96870927D01*
X110879804Y-96870274D01*
X110188796Y-97155793D01*
X109659651Y-97684015D01*
X109372927Y-98374524D01*
X109372274Y-99122196D01*
X107803600Y-99122196D01*
X107803600Y-95514000D01*
X123318127Y-95514000D01*
X123318127Y-96764000D01*
X123337609Y-96867539D01*
X123398801Y-96962634D01*
X123492168Y-97026429D01*
X123603000Y-97048873D01*
X123921200Y-97048873D01*
X123921200Y-98953000D01*
X123954069Y-99118243D01*
X124026070Y-99226000D01*
X124047671Y-99258329D01*
X124341127Y-99551785D01*
X124341127Y-100926000D01*
X124360609Y-101029539D01*
X124421801Y-101124634D01*
X124515168Y-101188429D01*
X124626000Y-101210873D01*
X126326000Y-101210873D01*
X126429539Y-101191391D01*
X126524634Y-101130199D01*
X126588429Y-101036832D01*
X126610873Y-100926000D01*
X126610873Y-99226000D01*
X126591391Y-99122461D01*
X126530199Y-99027366D01*
X126436832Y-98963571D01*
X126326000Y-98941127D01*
X124951785Y-98941127D01*
X124784800Y-98774142D01*
X124784800Y-97048873D01*
X125103000Y-97048873D01*
X125206539Y-97029391D01*
X125301634Y-96968199D01*
X125365429Y-96874832D01*
X125387873Y-96764000D01*
X125387873Y-95514000D01*
X125368391Y-95410461D01*
X125307199Y-95315366D01*
X125213832Y-95251571D01*
X125103000Y-95229127D01*
X123603000Y-95229127D01*
X123499461Y-95248609D01*
X123404366Y-95309801D01*
X123340571Y-95403168D01*
X123318127Y-95514000D01*
X107803600Y-95514000D01*
X107803600Y-88885000D01*
X123218127Y-88885000D01*
X123218127Y-90185000D01*
X123237609Y-90288539D01*
X123298801Y-90383634D01*
X123392168Y-90447429D01*
X123503000Y-90469873D01*
X124577215Y-90469873D01*
X126421200Y-92313858D01*
X126421200Y-95229127D01*
X126103000Y-95229127D01*
X125999461Y-95248609D01*
X125904366Y-95309801D01*
X125840571Y-95403168D01*
X125818127Y-95514000D01*
X125818127Y-96764000D01*
X125837609Y-96867539D01*
X125898801Y-96962634D01*
X125992168Y-97026429D01*
X126103000Y-97048873D01*
X127603000Y-97048873D01*
X127706539Y-97029391D01*
X127801634Y-96968199D01*
X127865429Y-96874832D01*
X127887873Y-96764000D01*
X127887873Y-96570800D01*
X128960142Y-96570800D01*
X131365127Y-98975785D01*
X131365127Y-100350000D01*
X131384609Y-100453539D01*
X131445801Y-100548634D01*
X131539168Y-100612429D01*
X131650000Y-100634873D01*
X133350000Y-100634873D01*
X133453539Y-100615391D01*
X133548634Y-100554199D01*
X133612429Y-100460832D01*
X133634873Y-100350000D01*
X133634873Y-99477874D01*
X133910600Y-99477874D01*
X133910600Y-99522126D01*
X133996570Y-99954329D01*
X134241394Y-100320732D01*
X134607797Y-100565556D01*
X135040000Y-100651526D01*
X135472203Y-100565556D01*
X135838606Y-100320732D01*
X136083430Y-99954329D01*
X136169400Y-99522126D01*
X136169400Y-99477874D01*
X136098652Y-99122196D01*
X155370274Y-99122196D01*
X155655793Y-99813204D01*
X156184015Y-100342349D01*
X156874524Y-100629073D01*
X157622196Y-100629726D01*
X158313204Y-100344207D01*
X158842349Y-99815985D01*
X159129073Y-99125476D01*
X159129726Y-98377804D01*
X158844207Y-97686796D01*
X158315985Y-97157651D01*
X157625476Y-96870927D01*
X156877804Y-96870274D01*
X156186796Y-97155793D01*
X155657651Y-97684015D01*
X155370927Y-98374524D01*
X155370274Y-99122196D01*
X136098652Y-99122196D01*
X136083430Y-99045671D01*
X135838606Y-98679268D01*
X135472203Y-98434444D01*
X135040000Y-98348474D01*
X134607797Y-98434444D01*
X134241394Y-98679268D01*
X133996570Y-99045671D01*
X133910600Y-99477874D01*
X133634873Y-99477874D01*
X133634873Y-98650000D01*
X133615391Y-98546461D01*
X133554199Y-98451366D01*
X133460832Y-98387571D01*
X133350000Y-98365127D01*
X131975785Y-98365127D01*
X129444329Y-95833671D01*
X129304243Y-95740069D01*
X129139000Y-95707200D01*
X127887873Y-95707200D01*
X127887873Y-95514000D01*
X127868391Y-95410461D01*
X127807199Y-95315366D01*
X127713832Y-95251571D01*
X127603000Y-95229127D01*
X127284800Y-95229127D01*
X127284800Y-93726000D01*
X129150474Y-93726000D01*
X129236444Y-94158203D01*
X129481268Y-94524606D01*
X129847671Y-94769430D01*
X130279874Y-94855400D01*
X130324126Y-94855400D01*
X130756329Y-94769430D01*
X131122732Y-94524606D01*
X131367556Y-94158203D01*
X131453526Y-93726000D01*
X131367556Y-93293797D01*
X131122732Y-92927394D01*
X130756329Y-92682570D01*
X130324126Y-92596600D01*
X130279874Y-92596600D01*
X129847671Y-92682570D01*
X129481268Y-92927394D01*
X129236444Y-93293797D01*
X129150474Y-93726000D01*
X127284800Y-93726000D01*
X127284800Y-92135000D01*
X127251931Y-91969757D01*
X127158329Y-91829671D01*
X125287873Y-89959215D01*
X125287873Y-88885000D01*
X125268391Y-88781461D01*
X125207199Y-88686366D01*
X125113832Y-88622571D01*
X125003000Y-88600127D01*
X123503000Y-88600127D01*
X123399461Y-88619609D01*
X123304366Y-88680801D01*
X123240571Y-88774168D01*
X123218127Y-88885000D01*
X107803600Y-88885000D01*
X107803600Y-86599000D01*
X123218127Y-86599000D01*
X123218127Y-87899000D01*
X123237609Y-88002539D01*
X123298801Y-88097634D01*
X123392168Y-88161429D01*
X123503000Y-88183873D01*
X125003000Y-88183873D01*
X125106539Y-88164391D01*
X125201634Y-88103199D01*
X125265429Y-88009832D01*
X125287873Y-87899000D01*
X125287873Y-86824785D01*
X125513657Y-86599000D01*
X125918127Y-86599000D01*
X125918127Y-87899000D01*
X125937609Y-88002539D01*
X125998801Y-88097634D01*
X126092168Y-88161429D01*
X126203000Y-88183873D01*
X127703000Y-88183873D01*
X127806539Y-88164391D01*
X127901634Y-88103199D01*
X127965429Y-88009832D01*
X127987873Y-87899000D01*
X127987873Y-87807800D01*
X129540524Y-87807800D01*
X129481268Y-87847394D01*
X129236444Y-88213797D01*
X129150474Y-88646000D01*
X129236444Y-89078203D01*
X129481268Y-89444606D01*
X129540524Y-89484200D01*
X127987873Y-89484200D01*
X127987873Y-88885000D01*
X127968391Y-88781461D01*
X127907199Y-88686366D01*
X127813832Y-88622571D01*
X127703000Y-88600127D01*
X126203000Y-88600127D01*
X126099461Y-88619609D01*
X126004366Y-88680801D01*
X125940571Y-88774168D01*
X125918127Y-88885000D01*
X125918127Y-90185000D01*
X125937609Y-90288539D01*
X125998801Y-90383634D01*
X126092168Y-90447429D01*
X126203000Y-90469873D01*
X127703000Y-90469873D01*
X127806539Y-90450391D01*
X127901634Y-90389199D01*
X127929921Y-90347800D01*
X129540524Y-90347800D01*
X129481268Y-90387394D01*
X129236444Y-90753797D01*
X129150474Y-91186000D01*
X129236444Y-91618203D01*
X129481268Y-91984606D01*
X129847671Y-92229430D01*
X130279874Y-92315400D01*
X130324126Y-92315400D01*
X130756329Y-92229430D01*
X131122732Y-91984606D01*
X131367556Y-91618203D01*
X131453526Y-91186000D01*
X131367556Y-90753797D01*
X131122732Y-90387394D01*
X131063476Y-90347800D01*
X131393142Y-90347800D01*
X131785534Y-90740192D01*
X131776444Y-90753797D01*
X131690474Y-91186000D01*
X131776444Y-91618203D01*
X132021268Y-91984606D01*
X132387671Y-92229430D01*
X132819874Y-92315400D01*
X132864126Y-92315400D01*
X133296329Y-92229430D01*
X133662732Y-91984606D01*
X133907556Y-91618203D01*
X133993526Y-91186000D01*
X133907556Y-90753797D01*
X133662732Y-90387394D01*
X133296329Y-90142570D01*
X132864126Y-90056600D01*
X132819874Y-90056600D01*
X132405651Y-90138993D01*
X131877329Y-89610671D01*
X131737243Y-89517069D01*
X131572000Y-89484200D01*
X131063476Y-89484200D01*
X131122732Y-89444606D01*
X131367556Y-89078203D01*
X131453526Y-88646000D01*
X131367556Y-88213797D01*
X131122732Y-87847394D01*
X131063476Y-87807800D01*
X131393142Y-87807800D01*
X131785534Y-88200192D01*
X131776444Y-88213797D01*
X131690474Y-88646000D01*
X131776444Y-89078203D01*
X132021268Y-89444606D01*
X132387671Y-89689430D01*
X132819874Y-89775400D01*
X132864126Y-89775400D01*
X133296329Y-89689430D01*
X133662732Y-89444606D01*
X133907556Y-89078203D01*
X133993526Y-88646000D01*
X133907556Y-88213797D01*
X133662732Y-87847394D01*
X133296329Y-87602570D01*
X132864126Y-87516600D01*
X132819874Y-87516600D01*
X132405651Y-87598993D01*
X131877329Y-87070671D01*
X131737243Y-86977069D01*
X131572000Y-86944200D01*
X131063476Y-86944200D01*
X131122732Y-86904606D01*
X131367556Y-86538203D01*
X131453526Y-86106000D01*
X131690474Y-86106000D01*
X131776444Y-86538203D01*
X132021268Y-86904606D01*
X132387671Y-87149430D01*
X132819874Y-87235400D01*
X132864126Y-87235400D01*
X133296329Y-87149430D01*
X133662732Y-86904606D01*
X133907556Y-86538203D01*
X133993526Y-86106000D01*
X133907556Y-85673797D01*
X133662732Y-85307394D01*
X133296329Y-85062570D01*
X132864126Y-84976600D01*
X132819874Y-84976600D01*
X132387671Y-85062570D01*
X132021268Y-85307394D01*
X131776444Y-85673797D01*
X131690474Y-86106000D01*
X131453526Y-86106000D01*
X131367556Y-85673797D01*
X131122732Y-85307394D01*
X130756329Y-85062570D01*
X130324126Y-84976600D01*
X130279874Y-84976600D01*
X129847671Y-85062570D01*
X129481268Y-85307394D01*
X129236444Y-85673797D01*
X129150474Y-86106000D01*
X129236444Y-86538203D01*
X129481268Y-86904606D01*
X129540524Y-86944200D01*
X127987873Y-86944200D01*
X127987873Y-86599000D01*
X127968391Y-86495461D01*
X127907199Y-86400366D01*
X127813832Y-86336571D01*
X127703000Y-86314127D01*
X126203000Y-86314127D01*
X126099461Y-86333609D01*
X126004366Y-86394801D01*
X125940571Y-86488168D01*
X125918127Y-86599000D01*
X125513657Y-86599000D01*
X128194326Y-83918331D01*
X128194329Y-83918329D01*
X128233975Y-83858993D01*
X131803957Y-83858993D01*
X131900805Y-84092837D01*
X132174061Y-84412914D01*
X132549005Y-84604056D01*
X132715000Y-84579960D01*
X132715000Y-83693000D01*
X132969000Y-83693000D01*
X132969000Y-84579960D01*
X133134995Y-84604056D01*
X133509939Y-84412914D01*
X133783195Y-84092837D01*
X133880043Y-83858993D01*
X133855524Y-83693000D01*
X132969000Y-83693000D01*
X132715000Y-83693000D01*
X131828476Y-83693000D01*
X131803957Y-83858993D01*
X128233975Y-83858993D01*
X128287931Y-83778243D01*
X128287932Y-83778242D01*
X128320801Y-83613000D01*
X128320800Y-83612995D01*
X128320800Y-83273007D01*
X131803957Y-83273007D01*
X131828476Y-83439000D01*
X132715000Y-83439000D01*
X132715000Y-82552040D01*
X132969000Y-82552040D01*
X132969000Y-83439000D01*
X133855524Y-83439000D01*
X133880043Y-83273007D01*
X133783195Y-83039163D01*
X133509939Y-82719086D01*
X133134995Y-82527944D01*
X132969000Y-82552040D01*
X132715000Y-82552040D01*
X132549005Y-82527944D01*
X132174061Y-82719086D01*
X131900805Y-83039163D01*
X131803957Y-83273007D01*
X128320800Y-83273007D01*
X128320800Y-81026000D01*
X131690474Y-81026000D01*
X131776444Y-81458203D01*
X132021268Y-81824606D01*
X132387671Y-82069430D01*
X132819874Y-82155400D01*
X132864126Y-82155400D01*
X133296329Y-82069430D01*
X133662732Y-81824606D01*
X133907556Y-81458203D01*
X133993526Y-81026000D01*
X133907556Y-80593797D01*
X133662732Y-80227394D01*
X133296329Y-79982570D01*
X132864126Y-79896600D01*
X132819874Y-79896600D01*
X132387671Y-79982570D01*
X132021268Y-80227394D01*
X131776444Y-80593797D01*
X131690474Y-81026000D01*
X128320800Y-81026000D01*
X128320800Y-78486000D01*
X129150474Y-78486000D01*
X129236444Y-78918203D01*
X129481268Y-79284606D01*
X129847671Y-79529430D01*
X130279874Y-79615400D01*
X130324126Y-79615400D01*
X130756329Y-79529430D01*
X131122732Y-79284606D01*
X131367556Y-78918203D01*
X131453526Y-78486000D01*
X131367556Y-78053797D01*
X131122732Y-77687394D01*
X130756329Y-77442570D01*
X130324126Y-77356600D01*
X130279874Y-77356600D01*
X129847671Y-77442570D01*
X129481268Y-77687394D01*
X129236444Y-78053797D01*
X129150474Y-78486000D01*
X128320800Y-78486000D01*
X128320800Y-69790251D01*
X128416253Y-69694965D01*
X128511192Y-69466326D01*
X128511408Y-69218760D01*
X128416868Y-68989956D01*
X128241965Y-68814747D01*
X128013326Y-68719808D01*
X127765760Y-68719592D01*
X127536956Y-68814132D01*
X127361747Y-68989035D01*
X127266808Y-69217674D01*
X127266592Y-69465240D01*
X127361132Y-69694044D01*
X127457200Y-69790280D01*
X127457200Y-83434143D01*
X124577215Y-86314127D01*
X123503000Y-86314127D01*
X123399461Y-86333609D01*
X123304366Y-86394801D01*
X123240571Y-86488168D01*
X123218127Y-86599000D01*
X107803600Y-86599000D01*
X107803600Y-67961596D01*
X109372274Y-67961596D01*
X109657793Y-68652604D01*
X110186015Y-69181749D01*
X110876524Y-69468473D01*
X111624196Y-69469126D01*
X112315204Y-69183607D01*
X112844349Y-68655385D01*
X113131073Y-67964876D01*
X113131726Y-67217204D01*
X112929539Y-66727874D01*
X126420600Y-66727874D01*
X126420600Y-66772126D01*
X126506570Y-67204329D01*
X126751394Y-67570732D01*
X127117797Y-67815556D01*
X127550000Y-67901526D01*
X127982203Y-67815556D01*
X128348606Y-67570732D01*
X128593430Y-67204329D01*
X128679400Y-66772126D01*
X128679400Y-66727874D01*
X128960600Y-66727874D01*
X128960600Y-66772126D01*
X129046570Y-67204329D01*
X129291394Y-67570732D01*
X129657797Y-67815556D01*
X130090000Y-67901526D01*
X130257542Y-67868200D01*
X131068200Y-68678858D01*
X131068200Y-69731127D01*
X129452000Y-69731127D01*
X129348461Y-69750609D01*
X129253366Y-69811801D01*
X129189571Y-69905168D01*
X129167127Y-70016000D01*
X129167127Y-71716000D01*
X129186609Y-71819539D01*
X129247801Y-71914634D01*
X129341168Y-71978429D01*
X129452000Y-72000873D01*
X131068200Y-72000873D01*
X131068200Y-72570957D01*
X130756329Y-72362570D01*
X130324126Y-72276600D01*
X130279874Y-72276600D01*
X129847671Y-72362570D01*
X129481268Y-72607394D01*
X129236444Y-72973797D01*
X129150474Y-73406000D01*
X129236444Y-73838203D01*
X129481268Y-74204606D01*
X129847671Y-74449430D01*
X130279874Y-74535400D01*
X130324126Y-74535400D01*
X130756329Y-74449430D01*
X131068200Y-74241043D01*
X131068200Y-74604000D01*
X131101069Y-74769243D01*
X131132712Y-74816600D01*
X131194671Y-74909329D01*
X131785535Y-75500192D01*
X131776444Y-75513797D01*
X131690474Y-75946000D01*
X131776444Y-76378203D01*
X132021268Y-76744606D01*
X132080524Y-76784200D01*
X131496858Y-76784200D01*
X131256727Y-76544069D01*
X131367556Y-76378203D01*
X131453526Y-75946000D01*
X131367556Y-75513797D01*
X131122732Y-75147394D01*
X130756329Y-74902570D01*
X130324126Y-74816600D01*
X130279874Y-74816600D01*
X129847671Y-74902570D01*
X129481268Y-75147394D01*
X129236444Y-75513797D01*
X129150474Y-75946000D01*
X129236444Y-76378203D01*
X129481268Y-76744606D01*
X129847671Y-76989430D01*
X130279874Y-77075400D01*
X130324126Y-77075400D01*
X130526490Y-77035148D01*
X131012671Y-77521329D01*
X131152757Y-77614931D01*
X131318000Y-77647800D01*
X132080524Y-77647800D01*
X132021268Y-77687394D01*
X131776444Y-78053797D01*
X131690474Y-78486000D01*
X131776444Y-78918203D01*
X132021268Y-79284606D01*
X132387671Y-79529430D01*
X132819874Y-79615400D01*
X132864126Y-79615400D01*
X133296329Y-79529430D01*
X133662732Y-79284606D01*
X133907556Y-78918203D01*
X133982817Y-78539838D01*
X136296220Y-78539838D01*
X136454429Y-78922735D01*
X136747124Y-79215941D01*
X137038670Y-79337002D01*
X136748665Y-79456829D01*
X136455459Y-79749524D01*
X136296581Y-80132144D01*
X136296220Y-80546438D01*
X136454429Y-80929335D01*
X136747124Y-81222541D01*
X137038670Y-81343602D01*
X136748665Y-81463429D01*
X136455459Y-81756124D01*
X136296581Y-82138744D01*
X136296220Y-82553038D01*
X136454429Y-82935935D01*
X136747124Y-83229141D01*
X137038670Y-83350202D01*
X136748665Y-83470029D01*
X136455459Y-83762724D01*
X136296581Y-84145344D01*
X136296220Y-84559638D01*
X136454429Y-84942535D01*
X136747124Y-85235741D01*
X137038670Y-85356802D01*
X136748665Y-85476629D01*
X136455459Y-85769324D01*
X136296581Y-86151944D01*
X136296220Y-86566238D01*
X136454429Y-86949135D01*
X136747124Y-87242341D01*
X137038670Y-87363402D01*
X136748665Y-87483229D01*
X136455459Y-87775924D01*
X136296581Y-88158544D01*
X136296220Y-88572838D01*
X136454429Y-88955735D01*
X136747124Y-89248941D01*
X137038670Y-89370002D01*
X136748665Y-89489829D01*
X136455459Y-89782524D01*
X136296581Y-90165144D01*
X136296220Y-90579438D01*
X136454429Y-90962335D01*
X136747124Y-91255541D01*
X137038670Y-91376602D01*
X136748665Y-91496429D01*
X136455459Y-91789124D01*
X136296581Y-92171744D01*
X136296220Y-92586038D01*
X136454429Y-92968935D01*
X136747124Y-93262141D01*
X137038670Y-93383202D01*
X136748665Y-93503029D01*
X136455459Y-93795724D01*
X136296581Y-94178344D01*
X136296220Y-94592638D01*
X136454429Y-94975535D01*
X136747124Y-95268741D01*
X137129744Y-95427619D01*
X137544038Y-95427980D01*
X137926935Y-95269771D01*
X138220141Y-94977076D01*
X138379019Y-94594456D01*
X138379380Y-94180162D01*
X138221171Y-93797265D01*
X137928476Y-93504059D01*
X137636930Y-93382998D01*
X137926935Y-93263171D01*
X138220141Y-92970476D01*
X138379019Y-92587856D01*
X138379380Y-92173562D01*
X138221171Y-91790665D01*
X137928476Y-91497459D01*
X137636930Y-91376398D01*
X137926935Y-91256571D01*
X138220141Y-90963876D01*
X138379019Y-90581256D01*
X138379380Y-90166962D01*
X138221171Y-89784065D01*
X137928476Y-89490859D01*
X137636930Y-89369798D01*
X137926935Y-89249971D01*
X138220141Y-88957276D01*
X138379019Y-88574656D01*
X138379380Y-88160362D01*
X138221171Y-87777465D01*
X137928476Y-87484259D01*
X137636930Y-87363198D01*
X137926935Y-87243371D01*
X138220141Y-86950676D01*
X138379019Y-86568056D01*
X138379380Y-86153762D01*
X138221171Y-85770865D01*
X137928476Y-85477659D01*
X137636930Y-85356598D01*
X137926935Y-85236771D01*
X138220141Y-84944076D01*
X138379019Y-84561456D01*
X138379380Y-84147162D01*
X138221171Y-83764265D01*
X137928476Y-83471059D01*
X137636930Y-83349998D01*
X137926935Y-83230171D01*
X138220141Y-82937476D01*
X138379019Y-82554856D01*
X138379380Y-82140562D01*
X138221171Y-81757665D01*
X137928476Y-81464459D01*
X137636930Y-81343398D01*
X137926935Y-81223571D01*
X138220141Y-80930876D01*
X138379019Y-80548256D01*
X138379380Y-80133962D01*
X138221171Y-79751065D01*
X137928476Y-79457859D01*
X137636930Y-79336798D01*
X137926935Y-79216971D01*
X138143813Y-79000471D01*
X138799200Y-79655858D01*
X138799200Y-96808749D01*
X138703747Y-96904035D01*
X138608808Y-97132674D01*
X138608592Y-97380240D01*
X138703132Y-97609044D01*
X138878035Y-97784253D01*
X139106674Y-97879192D01*
X139354240Y-97879408D01*
X139583044Y-97784868D01*
X139758253Y-97609965D01*
X139853192Y-97381326D01*
X139853408Y-97133760D01*
X139758868Y-96904956D01*
X139662800Y-96808720D01*
X139662800Y-79477005D01*
X139662801Y-79477000D01*
X139629931Y-79311758D01*
X139629931Y-79311757D01*
X139536329Y-79171671D01*
X138392929Y-78028271D01*
X138317655Y-77977975D01*
X138221171Y-77744465D01*
X137928476Y-77451259D01*
X137567474Y-77301358D01*
X137619982Y-77296788D01*
X137824011Y-77212276D01*
X137915758Y-77084563D01*
X137337800Y-76506605D01*
X136759842Y-77084563D01*
X136851589Y-77212276D01*
X137119664Y-77296936D01*
X136748665Y-77450229D01*
X136455459Y-77742924D01*
X136296581Y-78125544D01*
X136296220Y-78539838D01*
X133982817Y-78539838D01*
X133993526Y-78486000D01*
X133907556Y-78053797D01*
X133662732Y-77687394D01*
X133603476Y-77647800D01*
X134493000Y-77647800D01*
X134658243Y-77614931D01*
X134798329Y-77521329D01*
X135475326Y-76844331D01*
X135475329Y-76844329D01*
X135568931Y-76704243D01*
X135568932Y-76704242D01*
X135601801Y-76539000D01*
X135601800Y-76538995D01*
X135601800Y-76216580D01*
X136333846Y-76216580D01*
X136368012Y-76609182D01*
X136452524Y-76813211D01*
X136580237Y-76904958D01*
X137158195Y-76327000D01*
X137517405Y-76327000D01*
X138095363Y-76904958D01*
X138223076Y-76813211D01*
X138311493Y-76533238D01*
X158292620Y-76533238D01*
X158450829Y-76916135D01*
X158743524Y-77209341D01*
X159035070Y-77330402D01*
X158745065Y-77450229D01*
X158451859Y-77742924D01*
X158292981Y-78125544D01*
X158292620Y-78539838D01*
X158450829Y-78922735D01*
X158743524Y-79215941D01*
X159035070Y-79337002D01*
X158745065Y-79456829D01*
X158451859Y-79749524D01*
X158292981Y-80132144D01*
X158292620Y-80546438D01*
X158450829Y-80929335D01*
X158743524Y-81222541D01*
X159035070Y-81343602D01*
X158745065Y-81463429D01*
X158451859Y-81756124D01*
X158292981Y-82138744D01*
X158292620Y-82553038D01*
X158450829Y-82935935D01*
X158743524Y-83229141D01*
X159035070Y-83350202D01*
X158745065Y-83470029D01*
X158451859Y-83762724D01*
X158292981Y-84145344D01*
X158292620Y-84559638D01*
X158450829Y-84942535D01*
X158743524Y-85235741D01*
X159035070Y-85356802D01*
X158745065Y-85476629D01*
X158451859Y-85769324D01*
X158292981Y-86151944D01*
X158292620Y-86566238D01*
X158450829Y-86949135D01*
X158743524Y-87242341D01*
X159035070Y-87363402D01*
X158745065Y-87483229D01*
X158451859Y-87775924D01*
X158292981Y-88158544D01*
X158292620Y-88572838D01*
X158450829Y-88955735D01*
X158743524Y-89248941D01*
X159035070Y-89370002D01*
X158745065Y-89489829D01*
X158451859Y-89782524D01*
X158292981Y-90165144D01*
X158292620Y-90579438D01*
X158450829Y-90962335D01*
X158743524Y-91255541D01*
X159035070Y-91376602D01*
X158745065Y-91496429D01*
X158451859Y-91789124D01*
X158292981Y-92171744D01*
X158292620Y-92586038D01*
X158450829Y-92968935D01*
X158743524Y-93262141D01*
X159035070Y-93383202D01*
X158745065Y-93503029D01*
X158451859Y-93795724D01*
X158292981Y-94178344D01*
X158292620Y-94592638D01*
X158450829Y-94975535D01*
X158743524Y-95268741D01*
X159126144Y-95427619D01*
X159540438Y-95427980D01*
X159923335Y-95269771D01*
X160216541Y-94977076D01*
X160375419Y-94594456D01*
X160375780Y-94180162D01*
X160217571Y-93797265D01*
X159924876Y-93504059D01*
X159633330Y-93382998D01*
X159923335Y-93263171D01*
X160216541Y-92970476D01*
X160375419Y-92587856D01*
X160375780Y-92173562D01*
X160217571Y-91790665D01*
X159924876Y-91497459D01*
X159633330Y-91376398D01*
X159923335Y-91256571D01*
X160216541Y-90963876D01*
X160375419Y-90581256D01*
X160375780Y-90166962D01*
X160217571Y-89784065D01*
X159924876Y-89490859D01*
X159633330Y-89369798D01*
X159923335Y-89249971D01*
X160216541Y-88957276D01*
X160375419Y-88574656D01*
X160375780Y-88160362D01*
X160217571Y-87777465D01*
X159924876Y-87484259D01*
X159633330Y-87363198D01*
X159923335Y-87243371D01*
X160216541Y-86950676D01*
X160375419Y-86568056D01*
X160375780Y-86153762D01*
X160217571Y-85770865D01*
X159924876Y-85477659D01*
X159633330Y-85356598D01*
X159923335Y-85236771D01*
X160216541Y-84944076D01*
X160375419Y-84561456D01*
X160375780Y-84147162D01*
X160217571Y-83764265D01*
X159924876Y-83471059D01*
X159633330Y-83349998D01*
X159923335Y-83230171D01*
X160216541Y-82937476D01*
X160375419Y-82554856D01*
X160375780Y-82140562D01*
X160217571Y-81757665D01*
X159924876Y-81464459D01*
X159633330Y-81343398D01*
X159923335Y-81223571D01*
X160216541Y-80930876D01*
X160375419Y-80548256D01*
X160375780Y-80133962D01*
X160217571Y-79751065D01*
X159924876Y-79457859D01*
X159633330Y-79336798D01*
X159923335Y-79216971D01*
X160216541Y-78924276D01*
X160375419Y-78541656D01*
X160375780Y-78127362D01*
X160217571Y-77744465D01*
X159924876Y-77451259D01*
X159633330Y-77330198D01*
X159923335Y-77210371D01*
X160216541Y-76917676D01*
X160375419Y-76535056D01*
X160375780Y-76120762D01*
X160217571Y-75737865D01*
X159924876Y-75444659D01*
X159542256Y-75285781D01*
X159127962Y-75285420D01*
X158745065Y-75443629D01*
X158451859Y-75736324D01*
X158292981Y-76118944D01*
X158292620Y-76533238D01*
X138311493Y-76533238D01*
X138341754Y-76437420D01*
X138307588Y-76044818D01*
X138223076Y-75840789D01*
X138095363Y-75749042D01*
X137517405Y-76327000D01*
X137158195Y-76327000D01*
X136580237Y-75749042D01*
X136452524Y-75840789D01*
X136333846Y-76216580D01*
X135601800Y-76216580D01*
X135601800Y-75569437D01*
X136759842Y-75569437D01*
X137337800Y-76147395D01*
X137915758Y-75569437D01*
X137824011Y-75441724D01*
X137448220Y-75323046D01*
X137055618Y-75357212D01*
X136851589Y-75441724D01*
X136759842Y-75569437D01*
X135601800Y-75569437D01*
X135601800Y-67961596D01*
X155370274Y-67961596D01*
X155655793Y-68652604D01*
X156184015Y-69181749D01*
X156874524Y-69468473D01*
X157622196Y-69469126D01*
X158313204Y-69183607D01*
X158842349Y-68655385D01*
X159129073Y-67964876D01*
X159129726Y-67217204D01*
X158844207Y-66526196D01*
X158315985Y-65997051D01*
X157625476Y-65710327D01*
X156877804Y-65709674D01*
X156186796Y-65995193D01*
X155657651Y-66523415D01*
X155370927Y-67213924D01*
X155370274Y-67961596D01*
X135601800Y-67961596D01*
X135601800Y-67815636D01*
X135602203Y-67815556D01*
X135968606Y-67570732D01*
X136213430Y-67204329D01*
X136299400Y-66772126D01*
X136299400Y-66727874D01*
X136580600Y-66727874D01*
X136580600Y-66772126D01*
X136666570Y-67204329D01*
X136911394Y-67570732D01*
X137277797Y-67815556D01*
X137710000Y-67901526D01*
X138142203Y-67815556D01*
X138508606Y-67570732D01*
X138753430Y-67204329D01*
X138807171Y-66934150D01*
X139171400Y-66934150D01*
X139171400Y-67645471D01*
X139206202Y-67729491D01*
X139270508Y-67793797D01*
X139354528Y-67828600D01*
X140065850Y-67828600D01*
X140123000Y-67771450D01*
X140123000Y-66877000D01*
X140377000Y-66877000D01*
X140377000Y-67771450D01*
X140434150Y-67828600D01*
X141145472Y-67828600D01*
X141229492Y-67793797D01*
X141293798Y-67729491D01*
X141328600Y-67645471D01*
X141328600Y-66934150D01*
X141271450Y-66877000D01*
X140377000Y-66877000D01*
X140123000Y-66877000D01*
X139228550Y-66877000D01*
X139171400Y-66934150D01*
X138807171Y-66934150D01*
X138839400Y-66772126D01*
X138839400Y-66727874D01*
X138753430Y-66295671D01*
X138508606Y-65929268D01*
X138396752Y-65854529D01*
X139171400Y-65854529D01*
X139171400Y-66565850D01*
X139228550Y-66623000D01*
X140123000Y-66623000D01*
X140123000Y-65728550D01*
X140377000Y-65728550D01*
X140377000Y-66623000D01*
X141271450Y-66623000D01*
X141328600Y-66565850D01*
X141328600Y-65854529D01*
X141293798Y-65770509D01*
X141229492Y-65706203D01*
X141145472Y-65671400D01*
X140434150Y-65671400D01*
X140377000Y-65728550D01*
X140123000Y-65728550D01*
X140065850Y-65671400D01*
X139354528Y-65671400D01*
X139270508Y-65706203D01*
X139206202Y-65770509D01*
X139171400Y-65854529D01*
X138396752Y-65854529D01*
X138142203Y-65684444D01*
X137710000Y-65598474D01*
X137277797Y-65684444D01*
X136911394Y-65929268D01*
X136666570Y-66295671D01*
X136580600Y-66727874D01*
X136299400Y-66727874D01*
X136213430Y-66295671D01*
X135968606Y-65929268D01*
X135602203Y-65684444D01*
X135170000Y-65598474D01*
X134737797Y-65684444D01*
X134371394Y-65929268D01*
X134126570Y-66295671D01*
X134040600Y-66727874D01*
X134040600Y-66772126D01*
X134126570Y-67204329D01*
X134371394Y-67570732D01*
X134737797Y-67815556D01*
X134738200Y-67815636D01*
X134738200Y-76360143D01*
X134314142Y-76784200D01*
X133603476Y-76784200D01*
X133662732Y-76744606D01*
X133907556Y-76378203D01*
X133993526Y-75946000D01*
X133907556Y-75513797D01*
X133662732Y-75147394D01*
X133296329Y-74902570D01*
X132864126Y-74816600D01*
X132819874Y-74816600D01*
X132405651Y-74898994D01*
X131931800Y-74425142D01*
X131931800Y-74070708D01*
X132021268Y-74204606D01*
X132387671Y-74449430D01*
X132819874Y-74535400D01*
X132864126Y-74535400D01*
X133296329Y-74449430D01*
X133662732Y-74204606D01*
X133907556Y-73838203D01*
X133993526Y-73406000D01*
X133907556Y-72973797D01*
X133662732Y-72607394D01*
X133296329Y-72362570D01*
X132864126Y-72276600D01*
X132819874Y-72276600D01*
X132387671Y-72362570D01*
X132021268Y-72607394D01*
X131931800Y-72741292D01*
X131931800Y-68500000D01*
X131898931Y-68334757D01*
X131805329Y-68194671D01*
X131005879Y-67395221D01*
X131133430Y-67204329D01*
X131219400Y-66772126D01*
X131219400Y-66727874D01*
X131500600Y-66727874D01*
X131500600Y-66772126D01*
X131586570Y-67204329D01*
X131831394Y-67570732D01*
X132197797Y-67815556D01*
X132630000Y-67901526D01*
X133062203Y-67815556D01*
X133428606Y-67570732D01*
X133673430Y-67204329D01*
X133759400Y-66772126D01*
X133759400Y-66727874D01*
X133673430Y-66295671D01*
X133428606Y-65929268D01*
X133062203Y-65684444D01*
X132630000Y-65598474D01*
X132197797Y-65684444D01*
X131831394Y-65929268D01*
X131586570Y-66295671D01*
X131500600Y-66727874D01*
X131219400Y-66727874D01*
X131133430Y-66295671D01*
X130888606Y-65929268D01*
X130522203Y-65684444D01*
X130090000Y-65598474D01*
X129657797Y-65684444D01*
X129291394Y-65929268D01*
X129046570Y-66295671D01*
X128960600Y-66727874D01*
X128679400Y-66727874D01*
X128593430Y-66295671D01*
X128348606Y-65929268D01*
X127982203Y-65684444D01*
X127550000Y-65598474D01*
X127117797Y-65684444D01*
X126751394Y-65929268D01*
X126506570Y-66295671D01*
X126420600Y-66727874D01*
X112929539Y-66727874D01*
X112846207Y-66526196D01*
X112317985Y-65997051D01*
X111627476Y-65710327D01*
X110879804Y-65709674D01*
X110188796Y-65995193D01*
X109659651Y-66523415D01*
X109372927Y-67213924D01*
X109372274Y-67961596D01*
X107803600Y-67961596D01*
X107803600Y-64303600D01*
X160696400Y-64303600D01*
X160696400Y-102196400D01*
M02*
