G04 #@! TF.FileFunction,Copper,L1,Top,Signal*
%FSLAX46Y46*%
G04 Gerber Fmt 4.6, Leading zero omitted, Abs format (unit mm)*
G04 Created by KiCad (PCBNEW 4.0.0-rc1-stable) date 06/07/2017 17:27:51*
%MOMM*%
G01*
G04 APERTURE LIST*
%ADD10C,0.076200*%
%ADD11C,1.524000*%
%ADD12R,1.000000X1.250000*%
%ADD13R,1.000000X1.600000*%
%ADD14R,1.700000X1.700000*%
%ADD15O,1.700000X1.700000*%
%ADD16R,0.700000X1.300000*%
%ADD17R,0.900000X1.700000*%
%ADD18R,3.500000X3.500000*%
%ADD19R,0.600000X1.550000*%
%ADD20R,1.200000X0.900000*%
%ADD21C,0.685800*%
%ADD22C,0.304800*%
%ADD23C,0.609600*%
%ADD24C,0.254000*%
G04 APERTURE END LIST*
D10*
D11*
X137501800Y-94500000D03*
X137501800Y-92493400D03*
X137501800Y-90486800D03*
X137501800Y-88480200D03*
X137501800Y-86473600D03*
X137501800Y-84467000D03*
X137501800Y-82460400D03*
X137501800Y-80453800D03*
X137501800Y-78447200D03*
X137501800Y-76440600D03*
X159498200Y-76440600D03*
X159498200Y-78447200D03*
X159498200Y-80453800D03*
X159498200Y-82460400D03*
X159498200Y-84467000D03*
X159498200Y-86473600D03*
X159498200Y-88480200D03*
X159498200Y-90486800D03*
X159498200Y-92493400D03*
X159498200Y-94500000D03*
D12*
X122000000Y-96000000D03*
X124000000Y-96000000D03*
D13*
X149630000Y-69850000D03*
X152630000Y-69850000D03*
X147677000Y-69850000D03*
X144677000Y-69850000D03*
D14*
X133000000Y-71000000D03*
D15*
X133000000Y-73540000D03*
X130460000Y-73540000D03*
X133000000Y-76080000D03*
X130460000Y-76080000D03*
X133000000Y-78620000D03*
X130460000Y-78620000D03*
X130460000Y-81160000D03*
X130460000Y-83700000D03*
X133000000Y-86240000D03*
X130460000Y-86240000D03*
X133000000Y-88780000D03*
X130460000Y-88780000D03*
X133000000Y-91320000D03*
X130460000Y-91320000D03*
X133000000Y-93860000D03*
D16*
X136550000Y-73000000D03*
X138450000Y-73000000D03*
X121950000Y-86300000D03*
X120050000Y-86300000D03*
X123550000Y-77000000D03*
X125450000Y-77000000D03*
X123550000Y-74500000D03*
X125450000Y-74500000D03*
X123550000Y-72000000D03*
X125450000Y-72000000D03*
X138450000Y-71000000D03*
X136550000Y-71000000D03*
D17*
X116550000Y-93500000D03*
X119450000Y-93500000D03*
X122050000Y-93500000D03*
X124950000Y-93500000D03*
D14*
X132500000Y-99500000D03*
D15*
X135040000Y-99500000D03*
D18*
X111000000Y-88900000D03*
X111000000Y-82100000D03*
D19*
X117595000Y-81700000D03*
X118865000Y-81700000D03*
X120135000Y-81700000D03*
X121405000Y-81700000D03*
X121405000Y-76300000D03*
X120135000Y-76300000D03*
X118865000Y-76300000D03*
X117595000Y-76300000D03*
D14*
X121500000Y-100000000D03*
X125000000Y-100000000D03*
D20*
X117500000Y-86350000D03*
X117500000Y-89650000D03*
D11*
X109000000Y-93500000D03*
X111540000Y-93500000D03*
X154720000Y-93500000D03*
X157260000Y-93500000D03*
X157260000Y-65560000D03*
X154720000Y-65560000D03*
X152180000Y-65560000D03*
X149640000Y-65560000D03*
X147100000Y-65560000D03*
X144560000Y-65560000D03*
X142020000Y-65560000D03*
X139480000Y-65560000D03*
X136940000Y-65560000D03*
X134400000Y-65560000D03*
X131860000Y-65560000D03*
X129320000Y-65560000D03*
X126780000Y-65560000D03*
X124240000Y-65560000D03*
X121700000Y-65560000D03*
X119160000Y-65560000D03*
X116620000Y-65560000D03*
X114080000Y-65560000D03*
X111540000Y-65560000D03*
X109000000Y-65560000D03*
D16*
X121950000Y-84200000D03*
X120050000Y-84200000D03*
X125750000Y-90100000D03*
X127650000Y-90100000D03*
D12*
X116000000Y-74100000D03*
X118000000Y-74100000D03*
D21*
X123100000Y-84400000D03*
X116000000Y-76000000D03*
X143383000Y-69723000D03*
X119700000Y-79900000D03*
X118300000Y-79900000D03*
D22*
X133000000Y-88780000D02*
X133000000Y-88800000D01*
X133000000Y-88800000D02*
X131700000Y-90100000D01*
X131700000Y-90100000D02*
X127650000Y-90100000D01*
X133000000Y-88780000D02*
X132970000Y-88780000D01*
X149630000Y-69850000D02*
X149650000Y-69850000D01*
X149650000Y-69850000D02*
X152000000Y-67500000D01*
X152000000Y-67500000D02*
X152780000Y-67500000D01*
X152780000Y-67500000D02*
X154720000Y-65560000D01*
X152630000Y-69850000D02*
X153035000Y-69850000D01*
X153035000Y-69850000D02*
X153035000Y-69785000D01*
X153035000Y-69785000D02*
X157260000Y-65560000D01*
X147677000Y-69850000D02*
X147677000Y-68985000D01*
X149640000Y-67022000D02*
X149640000Y-65560000D01*
X147677000Y-68985000D02*
X149640000Y-67022000D01*
X121950000Y-84200000D02*
X122900000Y-84200000D01*
X122900000Y-84200000D02*
X123100000Y-84400000D01*
X116000000Y-74100000D02*
X116000000Y-76000000D01*
X116300000Y-76300000D02*
X116000000Y-76000000D01*
X116300000Y-76300000D02*
X117595000Y-76300000D01*
X144677000Y-69850000D02*
X143510000Y-69850000D01*
X143510000Y-69850000D02*
X143383000Y-69723000D01*
X133000000Y-76080000D02*
X133420000Y-76080000D01*
X133420000Y-76080000D02*
X134500000Y-75000000D01*
X134500000Y-75000000D02*
X134500000Y-68510000D01*
X134500000Y-68510000D02*
X136950000Y-66060000D01*
X133000000Y-78620000D02*
X133880000Y-78620000D01*
X135500000Y-74050000D02*
X136550000Y-73000000D01*
X135500000Y-77000000D02*
X135500000Y-74050000D01*
X133880000Y-78620000D02*
X135500000Y-77000000D01*
X136550000Y-71000000D02*
X136550000Y-71450000D01*
X136550000Y-71450000D02*
X135000000Y-73000000D01*
X135000000Y-73000000D02*
X135000000Y-76500000D01*
X135000000Y-76500000D02*
X134250000Y-77250000D01*
X134250000Y-77250000D02*
X131830000Y-77250000D01*
X131830000Y-77250000D02*
X130460000Y-78620000D01*
X118865000Y-80735000D02*
X118865000Y-81700000D01*
X119700000Y-79900000D02*
X118865000Y-80735000D01*
X117595000Y-80605000D02*
X117595000Y-81700000D01*
X118300000Y-79900000D02*
X117595000Y-80605000D01*
X124950000Y-87500000D02*
X123150000Y-87500000D01*
X134250000Y-87500000D02*
X124950000Y-87500000D01*
X135000000Y-88250000D02*
X134250000Y-87500000D01*
X135000000Y-89750000D02*
X135000000Y-88250000D01*
X133430000Y-91320000D02*
X135000000Y-89750000D01*
X123150000Y-87500000D02*
X121950000Y-86300000D01*
X133000000Y-91320000D02*
X133430000Y-91320000D01*
X138450000Y-71000000D02*
X140081000Y-72631000D01*
X140081000Y-89914200D02*
X137501800Y-92493400D01*
X140081000Y-72631000D02*
X140081000Y-89914200D01*
X137001800Y-92493400D02*
X137006600Y-92493400D01*
X137501800Y-90486800D02*
X137859200Y-90486800D01*
X137859200Y-90486800D02*
X139446000Y-88900000D01*
X139446000Y-88900000D02*
X139446000Y-73996000D01*
X139446000Y-73996000D02*
X138450000Y-73000000D01*
X137001800Y-90486800D02*
X137013200Y-90486800D01*
D23*
X121500000Y-100000000D02*
X120000000Y-100000000D01*
X120000000Y-100000000D02*
X116550000Y-96550000D01*
X116550000Y-96550000D02*
X116550000Y-93500000D01*
X111000000Y-88900000D02*
X113400000Y-88900000D01*
X116550000Y-92050000D02*
X116550000Y-93500000D01*
X113400000Y-88900000D02*
X116550000Y-92050000D01*
X111000000Y-88900000D02*
X111000000Y-89000000D01*
D22*
X120050000Y-86300000D02*
X120050000Y-84200000D01*
X120050000Y-84500000D02*
X120050000Y-81785000D01*
X120050000Y-81785000D02*
X120135000Y-81700000D01*
X121405000Y-76300000D02*
X122850000Y-76300000D01*
X122850000Y-76300000D02*
X123550000Y-77000000D01*
X120135000Y-76300000D02*
X120135000Y-75365000D01*
X121000000Y-74500000D02*
X123550000Y-74500000D01*
X120135000Y-75365000D02*
X121000000Y-74500000D01*
X118865000Y-76300000D02*
X118865000Y-75885000D01*
X118865000Y-75885000D02*
X122750000Y-72000000D01*
X122750000Y-72000000D02*
X123550000Y-72000000D01*
D23*
X111000000Y-82100000D02*
X114100000Y-82100000D01*
X117500000Y-85500000D02*
X117500000Y-86350000D01*
X114100000Y-82100000D02*
X117500000Y-85500000D01*
X111000000Y-82100000D02*
X112100000Y-82100000D01*
D22*
X125750000Y-90100000D02*
X123300000Y-90100000D01*
X122050000Y-91350000D02*
X122050000Y-93500000D01*
X123300000Y-90100000D02*
X122050000Y-91350000D01*
D23*
X119450000Y-93500000D02*
X122050000Y-93500000D01*
X122050000Y-93500000D02*
X122050000Y-95950000D01*
X122050000Y-95950000D02*
X122000000Y-96000000D01*
D24*
G36*
X160696400Y-102196400D02*
X107803600Y-102196400D01*
X107803600Y-99122196D01*
X110120274Y-99122196D01*
X110405793Y-99813204D01*
X110934015Y-100342349D01*
X111624524Y-100629073D01*
X112372196Y-100629726D01*
X113063204Y-100344207D01*
X113592349Y-99815985D01*
X113879073Y-99125476D01*
X113879726Y-98377804D01*
X113594207Y-97686796D01*
X113065985Y-97157651D01*
X112375476Y-96870927D01*
X111627804Y-96870274D01*
X110936796Y-97155793D01*
X110407651Y-97684015D01*
X110120927Y-98374524D01*
X110120274Y-99122196D01*
X107803600Y-99122196D01*
X107803600Y-93706238D01*
X107958420Y-93706238D01*
X108116629Y-94089135D01*
X108409324Y-94382341D01*
X108791944Y-94541219D01*
X109206238Y-94541580D01*
X109589135Y-94383371D01*
X109882341Y-94090676D01*
X110041219Y-93708056D01*
X110041220Y-93706238D01*
X110498420Y-93706238D01*
X110656629Y-94089135D01*
X110949324Y-94382341D01*
X111331944Y-94541219D01*
X111746238Y-94541580D01*
X112129135Y-94383371D01*
X112422341Y-94090676D01*
X112581219Y-93708056D01*
X112581580Y-93293762D01*
X112423371Y-92910865D01*
X112130676Y-92617659D01*
X111748056Y-92458781D01*
X111333762Y-92458420D01*
X110950865Y-92616629D01*
X110657659Y-92909324D01*
X110498781Y-93291944D01*
X110498420Y-93706238D01*
X110041220Y-93706238D01*
X110041580Y-93293762D01*
X109883371Y-92910865D01*
X109590676Y-92617659D01*
X109208056Y-92458781D01*
X108793762Y-92458420D01*
X108410865Y-92616629D01*
X108117659Y-92909324D01*
X107958781Y-93291944D01*
X107958420Y-93706238D01*
X107803600Y-93706238D01*
X107803600Y-87150000D01*
X108965127Y-87150000D01*
X108965127Y-90650000D01*
X108984609Y-90753539D01*
X109045801Y-90848634D01*
X109139168Y-90912429D01*
X109250000Y-90934873D01*
X112750000Y-90934873D01*
X112853539Y-90915391D01*
X112948634Y-90854199D01*
X113012429Y-90760832D01*
X113034873Y-90650000D01*
X113034873Y-89484200D01*
X113158016Y-89484200D01*
X115965800Y-92291984D01*
X115965800Y-92404339D01*
X115901366Y-92445801D01*
X115837571Y-92539168D01*
X115815127Y-92650000D01*
X115815127Y-94350000D01*
X115834609Y-94453539D01*
X115895801Y-94548634D01*
X115965800Y-94596462D01*
X115965800Y-96550000D01*
X116010270Y-96773564D01*
X116136908Y-96963092D01*
X119586908Y-100413092D01*
X119776437Y-100539731D01*
X120000000Y-100584200D01*
X120365127Y-100584200D01*
X120365127Y-100850000D01*
X120384609Y-100953539D01*
X120445801Y-101048634D01*
X120539168Y-101112429D01*
X120650000Y-101134873D01*
X122350000Y-101134873D01*
X122453539Y-101115391D01*
X122548634Y-101054199D01*
X122612429Y-100960832D01*
X122634873Y-100850000D01*
X122634873Y-100184150D01*
X123921400Y-100184150D01*
X123921400Y-100895472D01*
X123956203Y-100979492D01*
X124020509Y-101043798D01*
X124104529Y-101078600D01*
X124815850Y-101078600D01*
X124873000Y-101021450D01*
X124873000Y-100127000D01*
X125127000Y-100127000D01*
X125127000Y-101021450D01*
X125184150Y-101078600D01*
X125895471Y-101078600D01*
X125979491Y-101043798D01*
X126043797Y-100979492D01*
X126078600Y-100895472D01*
X126078600Y-100184150D01*
X126021450Y-100127000D01*
X125127000Y-100127000D01*
X124873000Y-100127000D01*
X123978550Y-100127000D01*
X123921400Y-100184150D01*
X122634873Y-100184150D01*
X122634873Y-99150000D01*
X122626317Y-99104528D01*
X123921400Y-99104528D01*
X123921400Y-99815850D01*
X123978550Y-99873000D01*
X124873000Y-99873000D01*
X124873000Y-98978550D01*
X125127000Y-98978550D01*
X125127000Y-99873000D01*
X126021450Y-99873000D01*
X126078600Y-99815850D01*
X126078600Y-99104528D01*
X126043797Y-99020508D01*
X125979491Y-98956202D01*
X125895471Y-98921400D01*
X125184150Y-98921400D01*
X125127000Y-98978550D01*
X124873000Y-98978550D01*
X124815850Y-98921400D01*
X124104529Y-98921400D01*
X124020509Y-98956202D01*
X123956203Y-99020508D01*
X123921400Y-99104528D01*
X122626317Y-99104528D01*
X122615391Y-99046461D01*
X122554199Y-98951366D01*
X122460832Y-98887571D01*
X122350000Y-98865127D01*
X120650000Y-98865127D01*
X120546461Y-98884609D01*
X120451366Y-98945801D01*
X120387571Y-99039168D01*
X120365127Y-99150000D01*
X120365127Y-99415800D01*
X120241984Y-99415800D01*
X119476184Y-98650000D01*
X131365127Y-98650000D01*
X131365127Y-100350000D01*
X131384609Y-100453539D01*
X131445801Y-100548634D01*
X131539168Y-100612429D01*
X131650000Y-100634873D01*
X133350000Y-100634873D01*
X133453539Y-100615391D01*
X133548634Y-100554199D01*
X133612429Y-100460832D01*
X133634873Y-100350000D01*
X133634873Y-99792995D01*
X134001944Y-99792995D01*
X134193086Y-100167939D01*
X134513163Y-100441195D01*
X134747007Y-100538043D01*
X134913000Y-100513524D01*
X134913000Y-99627000D01*
X135167000Y-99627000D01*
X135167000Y-100513524D01*
X135332993Y-100538043D01*
X135566837Y-100441195D01*
X135886914Y-100167939D01*
X136078056Y-99792995D01*
X136053960Y-99627000D01*
X135167000Y-99627000D01*
X134913000Y-99627000D01*
X134026040Y-99627000D01*
X134001944Y-99792995D01*
X133634873Y-99792995D01*
X133634873Y-99207005D01*
X134001944Y-99207005D01*
X134026040Y-99373000D01*
X134913000Y-99373000D01*
X134913000Y-98486476D01*
X135167000Y-98486476D01*
X135167000Y-99373000D01*
X136053960Y-99373000D01*
X136078056Y-99207005D01*
X135886914Y-98832061D01*
X135566837Y-98558805D01*
X135332993Y-98461957D01*
X135167000Y-98486476D01*
X134913000Y-98486476D01*
X134747007Y-98461957D01*
X134513163Y-98558805D01*
X134193086Y-98832061D01*
X134001944Y-99207005D01*
X133634873Y-99207005D01*
X133634873Y-98650000D01*
X133615391Y-98546461D01*
X133554199Y-98451366D01*
X133460832Y-98387571D01*
X133350000Y-98365127D01*
X131650000Y-98365127D01*
X131546461Y-98384609D01*
X131451366Y-98445801D01*
X131387571Y-98539168D01*
X131365127Y-98650000D01*
X119476184Y-98650000D01*
X117134200Y-96308016D01*
X117134200Y-94595661D01*
X117198634Y-94554199D01*
X117262429Y-94460832D01*
X117284873Y-94350000D01*
X117284873Y-92650000D01*
X118715127Y-92650000D01*
X118715127Y-94350000D01*
X118734609Y-94453539D01*
X118795801Y-94548634D01*
X118889168Y-94612429D01*
X119000000Y-94634873D01*
X119900000Y-94634873D01*
X120003539Y-94615391D01*
X120098634Y-94554199D01*
X120162429Y-94460832D01*
X120184873Y-94350000D01*
X120184873Y-94084200D01*
X121315127Y-94084200D01*
X121315127Y-94350000D01*
X121334609Y-94453539D01*
X121395801Y-94548634D01*
X121465800Y-94596462D01*
X121465800Y-95096562D01*
X121396461Y-95109609D01*
X121301366Y-95170801D01*
X121237571Y-95264168D01*
X121215127Y-95375000D01*
X121215127Y-96625000D01*
X121234609Y-96728539D01*
X121295801Y-96823634D01*
X121389168Y-96887429D01*
X121500000Y-96909873D01*
X122500000Y-96909873D01*
X122603539Y-96890391D01*
X122698634Y-96829199D01*
X122762429Y-96735832D01*
X122784873Y-96625000D01*
X122784873Y-96184150D01*
X123271400Y-96184150D01*
X123271400Y-96670472D01*
X123306203Y-96754492D01*
X123370509Y-96818798D01*
X123454529Y-96853600D01*
X123815850Y-96853600D01*
X123873000Y-96796450D01*
X123873000Y-96127000D01*
X124127000Y-96127000D01*
X124127000Y-96796450D01*
X124184150Y-96853600D01*
X124545471Y-96853600D01*
X124629491Y-96818798D01*
X124693797Y-96754492D01*
X124728600Y-96670472D01*
X124728600Y-96184150D01*
X124671450Y-96127000D01*
X124127000Y-96127000D01*
X123873000Y-96127000D01*
X123328550Y-96127000D01*
X123271400Y-96184150D01*
X122784873Y-96184150D01*
X122784873Y-95375000D01*
X122776317Y-95329528D01*
X123271400Y-95329528D01*
X123271400Y-95815850D01*
X123328550Y-95873000D01*
X123873000Y-95873000D01*
X123873000Y-95203550D01*
X124127000Y-95203550D01*
X124127000Y-95873000D01*
X124671450Y-95873000D01*
X124728600Y-95815850D01*
X124728600Y-95329528D01*
X124693797Y-95245508D01*
X124629491Y-95181202D01*
X124545471Y-95146400D01*
X124184150Y-95146400D01*
X124127000Y-95203550D01*
X123873000Y-95203550D01*
X123815850Y-95146400D01*
X123454529Y-95146400D01*
X123370509Y-95181202D01*
X123306203Y-95245508D01*
X123271400Y-95329528D01*
X122776317Y-95329528D01*
X122765391Y-95271461D01*
X122704199Y-95176366D01*
X122634200Y-95128538D01*
X122634200Y-94595661D01*
X122698634Y-94554199D01*
X122762429Y-94460832D01*
X122784873Y-94350000D01*
X122784873Y-93684150D01*
X124271400Y-93684150D01*
X124271400Y-94395472D01*
X124306203Y-94479492D01*
X124370509Y-94543798D01*
X124454529Y-94578600D01*
X124765850Y-94578600D01*
X124823000Y-94521450D01*
X124823000Y-93627000D01*
X125077000Y-93627000D01*
X125077000Y-94521450D01*
X125134150Y-94578600D01*
X125445471Y-94578600D01*
X125529491Y-94543798D01*
X125593797Y-94479492D01*
X125628600Y-94395472D01*
X125628600Y-94152993D01*
X131961957Y-94152993D01*
X132058805Y-94386837D01*
X132332061Y-94706914D01*
X132707005Y-94898056D01*
X132873000Y-94873960D01*
X132873000Y-93987000D01*
X133127000Y-93987000D01*
X133127000Y-94873960D01*
X133292995Y-94898056D01*
X133667939Y-94706914D01*
X133941195Y-94386837D01*
X134038043Y-94152993D01*
X134013524Y-93987000D01*
X133127000Y-93987000D01*
X132873000Y-93987000D01*
X131986476Y-93987000D01*
X131961957Y-94152993D01*
X125628600Y-94152993D01*
X125628600Y-93684150D01*
X125571450Y-93627000D01*
X125077000Y-93627000D01*
X124823000Y-93627000D01*
X124328550Y-93627000D01*
X124271400Y-93684150D01*
X122784873Y-93684150D01*
X122784873Y-93567007D01*
X131961957Y-93567007D01*
X131986476Y-93733000D01*
X132873000Y-93733000D01*
X132873000Y-92846040D01*
X133127000Y-92846040D01*
X133127000Y-93733000D01*
X134013524Y-93733000D01*
X134038043Y-93567007D01*
X133941195Y-93333163D01*
X133667939Y-93013086D01*
X133292995Y-92821944D01*
X133127000Y-92846040D01*
X132873000Y-92846040D01*
X132707005Y-92821944D01*
X132332061Y-93013086D01*
X132058805Y-93333163D01*
X131961957Y-93567007D01*
X122784873Y-93567007D01*
X122784873Y-92650000D01*
X122776317Y-92604528D01*
X124271400Y-92604528D01*
X124271400Y-93315850D01*
X124328550Y-93373000D01*
X124823000Y-93373000D01*
X124823000Y-92478550D01*
X125077000Y-92478550D01*
X125077000Y-93373000D01*
X125571450Y-93373000D01*
X125628600Y-93315850D01*
X125628600Y-92604528D01*
X125593797Y-92520508D01*
X125529491Y-92456202D01*
X125445471Y-92421400D01*
X125134150Y-92421400D01*
X125077000Y-92478550D01*
X124823000Y-92478550D01*
X124765850Y-92421400D01*
X124454529Y-92421400D01*
X124370509Y-92456202D01*
X124306203Y-92520508D01*
X124271400Y-92604528D01*
X122776317Y-92604528D01*
X122765391Y-92546461D01*
X122704199Y-92451366D01*
X122610832Y-92387571D01*
X122500000Y-92365127D01*
X122481800Y-92365127D01*
X122481800Y-91528858D01*
X123478858Y-90531800D01*
X125115127Y-90531800D01*
X125115127Y-90750000D01*
X125134609Y-90853539D01*
X125195801Y-90948634D01*
X125289168Y-91012429D01*
X125400000Y-91034873D01*
X126100000Y-91034873D01*
X126203539Y-91015391D01*
X126298634Y-90954199D01*
X126362429Y-90860832D01*
X126384873Y-90750000D01*
X126384873Y-89450000D01*
X126365391Y-89346461D01*
X126304199Y-89251366D01*
X126210832Y-89187571D01*
X126100000Y-89165127D01*
X125400000Y-89165127D01*
X125296461Y-89184609D01*
X125201366Y-89245801D01*
X125137571Y-89339168D01*
X125115127Y-89450000D01*
X125115127Y-89668200D01*
X123300000Y-89668200D01*
X123134757Y-89701069D01*
X123021118Y-89777000D01*
X122994671Y-89794671D01*
X121744671Y-91044671D01*
X121651069Y-91184757D01*
X121618200Y-91350000D01*
X121618200Y-92365127D01*
X121600000Y-92365127D01*
X121496461Y-92384609D01*
X121401366Y-92445801D01*
X121337571Y-92539168D01*
X121315127Y-92650000D01*
X121315127Y-92915800D01*
X120184873Y-92915800D01*
X120184873Y-92650000D01*
X120165391Y-92546461D01*
X120104199Y-92451366D01*
X120010832Y-92387571D01*
X119900000Y-92365127D01*
X119000000Y-92365127D01*
X118896461Y-92384609D01*
X118801366Y-92445801D01*
X118737571Y-92539168D01*
X118715127Y-92650000D01*
X117284873Y-92650000D01*
X117265391Y-92546461D01*
X117204199Y-92451366D01*
X117134200Y-92403538D01*
X117134200Y-92050005D01*
X117134201Y-92050000D01*
X117089731Y-91826437D01*
X116963092Y-91636908D01*
X115160334Y-89834150D01*
X116671400Y-89834150D01*
X116671400Y-90145471D01*
X116706202Y-90229491D01*
X116770508Y-90293797D01*
X116854528Y-90328600D01*
X117315850Y-90328600D01*
X117373000Y-90271450D01*
X117373000Y-89777000D01*
X117627000Y-89777000D01*
X117627000Y-90271450D01*
X117684150Y-90328600D01*
X118145472Y-90328600D01*
X118229492Y-90293797D01*
X118293798Y-90229491D01*
X118328600Y-90145471D01*
X118328600Y-89834150D01*
X118271450Y-89777000D01*
X117627000Y-89777000D01*
X117373000Y-89777000D01*
X116728550Y-89777000D01*
X116671400Y-89834150D01*
X115160334Y-89834150D01*
X114480713Y-89154529D01*
X116671400Y-89154529D01*
X116671400Y-89465850D01*
X116728550Y-89523000D01*
X117373000Y-89523000D01*
X117373000Y-89028550D01*
X117627000Y-89028550D01*
X117627000Y-89523000D01*
X118271450Y-89523000D01*
X118328600Y-89465850D01*
X118328600Y-89154529D01*
X118293798Y-89070509D01*
X118229492Y-89006203D01*
X118145472Y-88971400D01*
X117684150Y-88971400D01*
X117627000Y-89028550D01*
X117373000Y-89028550D01*
X117315850Y-88971400D01*
X116854528Y-88971400D01*
X116770508Y-89006203D01*
X116706202Y-89070509D01*
X116671400Y-89154529D01*
X114480713Y-89154529D01*
X113813092Y-88486908D01*
X113785093Y-88468200D01*
X113623564Y-88360270D01*
X113400000Y-88315800D01*
X113034873Y-88315800D01*
X113034873Y-87150000D01*
X113015391Y-87046461D01*
X112954199Y-86951366D01*
X112860832Y-86887571D01*
X112750000Y-86865127D01*
X109250000Y-86865127D01*
X109146461Y-86884609D01*
X109051366Y-86945801D01*
X108987571Y-87039168D01*
X108965127Y-87150000D01*
X107803600Y-87150000D01*
X107803600Y-80350000D01*
X108965127Y-80350000D01*
X108965127Y-83850000D01*
X108984609Y-83953539D01*
X109045801Y-84048634D01*
X109139168Y-84112429D01*
X109250000Y-84134873D01*
X112750000Y-84134873D01*
X112853539Y-84115391D01*
X112948634Y-84054199D01*
X113012429Y-83960832D01*
X113034873Y-83850000D01*
X113034873Y-82684200D01*
X113858016Y-82684200D01*
X116806530Y-85632714D01*
X116796461Y-85634609D01*
X116701366Y-85695801D01*
X116637571Y-85789168D01*
X116615127Y-85900000D01*
X116615127Y-86800000D01*
X116634609Y-86903539D01*
X116695801Y-86998634D01*
X116789168Y-87062429D01*
X116900000Y-87084873D01*
X118100000Y-87084873D01*
X118203539Y-87065391D01*
X118298634Y-87004199D01*
X118362429Y-86910832D01*
X118384873Y-86800000D01*
X118384873Y-85900000D01*
X118365391Y-85796461D01*
X118304199Y-85701366D01*
X118210832Y-85637571D01*
X118100000Y-85615127D01*
X118084200Y-85615127D01*
X118084200Y-85500000D01*
X118039730Y-85276436D01*
X117913092Y-85086908D01*
X116376184Y-83550000D01*
X119415127Y-83550000D01*
X119415127Y-84850000D01*
X119434609Y-84953539D01*
X119495801Y-85048634D01*
X119589168Y-85112429D01*
X119618200Y-85118308D01*
X119618200Y-85380519D01*
X119596461Y-85384609D01*
X119501366Y-85445801D01*
X119437571Y-85539168D01*
X119415127Y-85650000D01*
X119415127Y-86950000D01*
X119434609Y-87053539D01*
X119495801Y-87148634D01*
X119589168Y-87212429D01*
X119700000Y-87234873D01*
X120400000Y-87234873D01*
X120503539Y-87215391D01*
X120598634Y-87154199D01*
X120662429Y-87060832D01*
X120684873Y-86950000D01*
X120684873Y-85650000D01*
X121315127Y-85650000D01*
X121315127Y-86950000D01*
X121334609Y-87053539D01*
X121395801Y-87148634D01*
X121489168Y-87212429D01*
X121600000Y-87234873D01*
X122274215Y-87234873D01*
X122844671Y-87805329D01*
X122984757Y-87898931D01*
X123150000Y-87931800D01*
X129713490Y-87931800D01*
X129639268Y-87981394D01*
X129394444Y-88347797D01*
X129308474Y-88780000D01*
X129394444Y-89212203D01*
X129639268Y-89578606D01*
X129773354Y-89668200D01*
X128284873Y-89668200D01*
X128284873Y-89450000D01*
X128265391Y-89346461D01*
X128204199Y-89251366D01*
X128110832Y-89187571D01*
X128000000Y-89165127D01*
X127300000Y-89165127D01*
X127196461Y-89184609D01*
X127101366Y-89245801D01*
X127037571Y-89339168D01*
X127015127Y-89450000D01*
X127015127Y-90750000D01*
X127034609Y-90853539D01*
X127095801Y-90948634D01*
X127189168Y-91012429D01*
X127300000Y-91034873D01*
X128000000Y-91034873D01*
X128103539Y-91015391D01*
X128198634Y-90954199D01*
X128262429Y-90860832D01*
X128284873Y-90750000D01*
X128284873Y-90531800D01*
X129632315Y-90531800D01*
X129394444Y-90887797D01*
X129308474Y-91320000D01*
X129394444Y-91752203D01*
X129639268Y-92118606D01*
X130005671Y-92363430D01*
X130437874Y-92449400D01*
X130482126Y-92449400D01*
X130914329Y-92363430D01*
X131280732Y-92118606D01*
X131525556Y-91752203D01*
X131611526Y-91320000D01*
X131525556Y-90887797D01*
X131287685Y-90531800D01*
X131700000Y-90531800D01*
X131865243Y-90498931D01*
X132005329Y-90405329D01*
X132580333Y-89830325D01*
X132977874Y-89909400D01*
X133022126Y-89909400D01*
X133454329Y-89823430D01*
X133820732Y-89578606D01*
X134065556Y-89212203D01*
X134151526Y-88780000D01*
X134065556Y-88347797D01*
X133820732Y-87981394D01*
X133746510Y-87931800D01*
X134071142Y-87931800D01*
X134568200Y-88428858D01*
X134568200Y-89571142D01*
X133699172Y-90440170D01*
X133454329Y-90276570D01*
X133022126Y-90190600D01*
X132977874Y-90190600D01*
X132545671Y-90276570D01*
X132179268Y-90521394D01*
X131934444Y-90887797D01*
X131848474Y-91320000D01*
X131934444Y-91752203D01*
X132179268Y-92118606D01*
X132545671Y-92363430D01*
X132977874Y-92449400D01*
X133022126Y-92449400D01*
X133454329Y-92363430D01*
X133820732Y-92118606D01*
X134065556Y-91752203D01*
X134151526Y-91320000D01*
X134133132Y-91227526D01*
X135305329Y-90055329D01*
X135398931Y-89915243D01*
X135431800Y-89750000D01*
X135431800Y-88250000D01*
X135398931Y-88084757D01*
X135305329Y-87944671D01*
X134555329Y-87194671D01*
X134494758Y-87154199D01*
X134415243Y-87101069D01*
X134250000Y-87068200D01*
X133776442Y-87068200D01*
X133820732Y-87038606D01*
X134065556Y-86672203D01*
X134151526Y-86240000D01*
X134065556Y-85807797D01*
X133820732Y-85441394D01*
X133454329Y-85196570D01*
X133022126Y-85110600D01*
X132977874Y-85110600D01*
X132545671Y-85196570D01*
X132179268Y-85441394D01*
X131934444Y-85807797D01*
X131848474Y-86240000D01*
X131934444Y-86672203D01*
X132179268Y-87038606D01*
X132223558Y-87068200D01*
X131236442Y-87068200D01*
X131280732Y-87038606D01*
X131525556Y-86672203D01*
X131611526Y-86240000D01*
X131525556Y-85807797D01*
X131280732Y-85441394D01*
X130914329Y-85196570D01*
X130482126Y-85110600D01*
X130437874Y-85110600D01*
X130005671Y-85196570D01*
X129639268Y-85441394D01*
X129394444Y-85807797D01*
X129308474Y-86240000D01*
X129394444Y-86672203D01*
X129639268Y-87038606D01*
X129683558Y-87068200D01*
X123328858Y-87068200D01*
X122584873Y-86324215D01*
X122584873Y-85650000D01*
X122565391Y-85546461D01*
X122504199Y-85451366D01*
X122410832Y-85387571D01*
X122300000Y-85365127D01*
X121600000Y-85365127D01*
X121496461Y-85384609D01*
X121401366Y-85445801D01*
X121337571Y-85539168D01*
X121315127Y-85650000D01*
X120684873Y-85650000D01*
X120665391Y-85546461D01*
X120604199Y-85451366D01*
X120510832Y-85387571D01*
X120481800Y-85381692D01*
X120481800Y-85119481D01*
X120503539Y-85115391D01*
X120598634Y-85054199D01*
X120662429Y-84960832D01*
X120684873Y-84850000D01*
X120684873Y-83550000D01*
X121315127Y-83550000D01*
X121315127Y-84850000D01*
X121334609Y-84953539D01*
X121395801Y-85048634D01*
X121489168Y-85112429D01*
X121600000Y-85134873D01*
X122300000Y-85134873D01*
X122403539Y-85115391D01*
X122498634Y-85054199D01*
X122562429Y-84960832D01*
X122584873Y-84850000D01*
X122584873Y-84764807D01*
X122747035Y-84927253D01*
X122975674Y-85022192D01*
X123223240Y-85022408D01*
X123452044Y-84927868D01*
X123627253Y-84752965D01*
X123722192Y-84524326D01*
X123722408Y-84276760D01*
X123627868Y-84047956D01*
X123452965Y-83872747D01*
X123224326Y-83777808D01*
X122976760Y-83777592D01*
X122967159Y-83781559D01*
X122900000Y-83768200D01*
X122584873Y-83768200D01*
X122584873Y-83700000D01*
X129308474Y-83700000D01*
X129394444Y-84132203D01*
X129639268Y-84498606D01*
X130005671Y-84743430D01*
X130437874Y-84829400D01*
X130482126Y-84829400D01*
X130914329Y-84743430D01*
X131280732Y-84498606D01*
X131525556Y-84132203D01*
X131611526Y-83700000D01*
X131525556Y-83267797D01*
X131280732Y-82901394D01*
X130914329Y-82656570D01*
X130482126Y-82570600D01*
X130437874Y-82570600D01*
X130005671Y-82656570D01*
X129639268Y-82901394D01*
X129394444Y-83267797D01*
X129308474Y-83700000D01*
X122584873Y-83700000D01*
X122584873Y-83550000D01*
X122565391Y-83446461D01*
X122504199Y-83351366D01*
X122410832Y-83287571D01*
X122300000Y-83265127D01*
X121600000Y-83265127D01*
X121496461Y-83284609D01*
X121401366Y-83345801D01*
X121337571Y-83439168D01*
X121315127Y-83550000D01*
X120684873Y-83550000D01*
X120665391Y-83446461D01*
X120604199Y-83351366D01*
X120510832Y-83287571D01*
X120481800Y-83281692D01*
X120481800Y-82751067D01*
X120538539Y-82740391D01*
X120633634Y-82679199D01*
X120697429Y-82585832D01*
X120719873Y-82475000D01*
X120719873Y-81884150D01*
X120876400Y-81884150D01*
X120876400Y-82520471D01*
X120911202Y-82604491D01*
X120975508Y-82668797D01*
X121059528Y-82703600D01*
X121220850Y-82703600D01*
X121278000Y-82646450D01*
X121278000Y-81827000D01*
X121532000Y-81827000D01*
X121532000Y-82646450D01*
X121589150Y-82703600D01*
X121750472Y-82703600D01*
X121834492Y-82668797D01*
X121898798Y-82604491D01*
X121933600Y-82520471D01*
X121933600Y-81884150D01*
X121876450Y-81827000D01*
X121532000Y-81827000D01*
X121278000Y-81827000D01*
X120933550Y-81827000D01*
X120876400Y-81884150D01*
X120719873Y-81884150D01*
X120719873Y-80925000D01*
X120711318Y-80879529D01*
X120876400Y-80879529D01*
X120876400Y-81515850D01*
X120933550Y-81573000D01*
X121278000Y-81573000D01*
X121278000Y-80753550D01*
X121532000Y-80753550D01*
X121532000Y-81573000D01*
X121876450Y-81573000D01*
X121933600Y-81515850D01*
X121933600Y-81452993D01*
X129421957Y-81452993D01*
X129518805Y-81686837D01*
X129792061Y-82006914D01*
X130167005Y-82198056D01*
X130333000Y-82173960D01*
X130333000Y-81287000D01*
X130587000Y-81287000D01*
X130587000Y-82173960D01*
X130752995Y-82198056D01*
X131127939Y-82006914D01*
X131401195Y-81686837D01*
X131498043Y-81452993D01*
X131473524Y-81287000D01*
X130587000Y-81287000D01*
X130333000Y-81287000D01*
X129446476Y-81287000D01*
X129421957Y-81452993D01*
X121933600Y-81452993D01*
X121933600Y-80879529D01*
X121928414Y-80867007D01*
X129421957Y-80867007D01*
X129446476Y-81033000D01*
X130333000Y-81033000D01*
X130333000Y-80146040D01*
X130587000Y-80146040D01*
X130587000Y-81033000D01*
X131473524Y-81033000D01*
X131498043Y-80867007D01*
X131401195Y-80633163D01*
X131127939Y-80313086D01*
X130752995Y-80121944D01*
X130587000Y-80146040D01*
X130333000Y-80146040D01*
X130167005Y-80121944D01*
X129792061Y-80313086D01*
X129518805Y-80633163D01*
X129421957Y-80867007D01*
X121928414Y-80867007D01*
X121898798Y-80795509D01*
X121834492Y-80731203D01*
X121750472Y-80696400D01*
X121589150Y-80696400D01*
X121532000Y-80753550D01*
X121278000Y-80753550D01*
X121220850Y-80696400D01*
X121059528Y-80696400D01*
X120975508Y-80731203D01*
X120911202Y-80795509D01*
X120876400Y-80879529D01*
X120711318Y-80879529D01*
X120700391Y-80821461D01*
X120639199Y-80726366D01*
X120545832Y-80662571D01*
X120435000Y-80640127D01*
X119835000Y-80640127D01*
X119731461Y-80659609D01*
X119636366Y-80720801D01*
X119572571Y-80814168D01*
X119550127Y-80925000D01*
X119550127Y-82475000D01*
X119569609Y-82578539D01*
X119618200Y-82654052D01*
X119618200Y-83280519D01*
X119596461Y-83284609D01*
X119501366Y-83345801D01*
X119437571Y-83439168D01*
X119415127Y-83550000D01*
X116376184Y-83550000D01*
X114513092Y-81686908D01*
X114412594Y-81619758D01*
X114323564Y-81560270D01*
X114100000Y-81515800D01*
X113034873Y-81515800D01*
X113034873Y-80925000D01*
X117010127Y-80925000D01*
X117010127Y-82475000D01*
X117029609Y-82578539D01*
X117090801Y-82673634D01*
X117184168Y-82737429D01*
X117295000Y-82759873D01*
X117895000Y-82759873D01*
X117998539Y-82740391D01*
X118093634Y-82679199D01*
X118157429Y-82585832D01*
X118179873Y-82475000D01*
X118179873Y-80925000D01*
X118160391Y-80821461D01*
X118099199Y-80726366D01*
X118090343Y-80720315D01*
X118288367Y-80522290D01*
X118423240Y-80522408D01*
X118526106Y-80479904D01*
X118466069Y-80569757D01*
X118446249Y-80669398D01*
X118366366Y-80720801D01*
X118302571Y-80814168D01*
X118280127Y-80925000D01*
X118280127Y-82475000D01*
X118299609Y-82578539D01*
X118360801Y-82673634D01*
X118454168Y-82737429D01*
X118565000Y-82759873D01*
X119165000Y-82759873D01*
X119268539Y-82740391D01*
X119363634Y-82679199D01*
X119427429Y-82585832D01*
X119449873Y-82475000D01*
X119449873Y-80925000D01*
X119430391Y-80821461D01*
X119414262Y-80796396D01*
X119688367Y-80522290D01*
X119823240Y-80522408D01*
X120052044Y-80427868D01*
X120227253Y-80252965D01*
X120322192Y-80024326D01*
X120322408Y-79776760D01*
X120227868Y-79547956D01*
X120052965Y-79372747D01*
X119824326Y-79277808D01*
X119576760Y-79277592D01*
X119347956Y-79372132D01*
X119172747Y-79547035D01*
X119077808Y-79775674D01*
X119077689Y-79911653D01*
X118891783Y-80097560D01*
X118922192Y-80024326D01*
X118922408Y-79776760D01*
X118827868Y-79547956D01*
X118652965Y-79372747D01*
X118424326Y-79277808D01*
X118176760Y-79277592D01*
X117947956Y-79372132D01*
X117772747Y-79547035D01*
X117677808Y-79775674D01*
X117677689Y-79911653D01*
X117289671Y-80299671D01*
X117196069Y-80439757D01*
X117163200Y-80605000D01*
X117163200Y-80677794D01*
X117096366Y-80720801D01*
X117032571Y-80814168D01*
X117010127Y-80925000D01*
X113034873Y-80925000D01*
X113034873Y-80350000D01*
X113015391Y-80246461D01*
X112954199Y-80151366D01*
X112860832Y-80087571D01*
X112750000Y-80065127D01*
X109250000Y-80065127D01*
X109146461Y-80084609D01*
X109051366Y-80145801D01*
X108987571Y-80239168D01*
X108965127Y-80350000D01*
X107803600Y-80350000D01*
X107803600Y-78620000D01*
X129308474Y-78620000D01*
X129394444Y-79052203D01*
X129639268Y-79418606D01*
X130005671Y-79663430D01*
X130437874Y-79749400D01*
X130482126Y-79749400D01*
X130914329Y-79663430D01*
X131280732Y-79418606D01*
X131525556Y-79052203D01*
X131611526Y-78620000D01*
X131525556Y-78187797D01*
X131516465Y-78174192D01*
X132008857Y-77681800D01*
X132388184Y-77681800D01*
X132179268Y-77821394D01*
X131934444Y-78187797D01*
X131848474Y-78620000D01*
X131934444Y-79052203D01*
X132179268Y-79418606D01*
X132545671Y-79663430D01*
X132977874Y-79749400D01*
X133022126Y-79749400D01*
X133454329Y-79663430D01*
X133820732Y-79418606D01*
X134065556Y-79052203D01*
X134076302Y-78998178D01*
X134185329Y-78925329D01*
X134457220Y-78653438D01*
X136460220Y-78653438D01*
X136618429Y-79036335D01*
X136911124Y-79329541D01*
X137202670Y-79450602D01*
X136912665Y-79570429D01*
X136619459Y-79863124D01*
X136460581Y-80245744D01*
X136460220Y-80660038D01*
X136618429Y-81042935D01*
X136911124Y-81336141D01*
X137202670Y-81457202D01*
X136912665Y-81577029D01*
X136619459Y-81869724D01*
X136460581Y-82252344D01*
X136460220Y-82666638D01*
X136618429Y-83049535D01*
X136911124Y-83342741D01*
X137202670Y-83463802D01*
X136912665Y-83583629D01*
X136619459Y-83876324D01*
X136460581Y-84258944D01*
X136460220Y-84673238D01*
X136618429Y-85056135D01*
X136911124Y-85349341D01*
X137202670Y-85470402D01*
X136912665Y-85590229D01*
X136619459Y-85882924D01*
X136460581Y-86265544D01*
X136460220Y-86679838D01*
X136618429Y-87062735D01*
X136911124Y-87355941D01*
X137202670Y-87477002D01*
X136912665Y-87596829D01*
X136619459Y-87889524D01*
X136460581Y-88272144D01*
X136460220Y-88686438D01*
X136618429Y-89069335D01*
X136911124Y-89362541D01*
X137202670Y-89483602D01*
X136912665Y-89603429D01*
X136619459Y-89896124D01*
X136460581Y-90278744D01*
X136460220Y-90693038D01*
X136618429Y-91075935D01*
X136911124Y-91369141D01*
X137202670Y-91490202D01*
X136912665Y-91610029D01*
X136619459Y-91902724D01*
X136460581Y-92285344D01*
X136460220Y-92699638D01*
X136618429Y-93082535D01*
X136911124Y-93375741D01*
X137202670Y-93496802D01*
X136912665Y-93616629D01*
X136619459Y-93909324D01*
X136460581Y-94291944D01*
X136460220Y-94706238D01*
X136618429Y-95089135D01*
X136911124Y-95382341D01*
X137293744Y-95541219D01*
X137708038Y-95541580D01*
X138090935Y-95383371D01*
X138384141Y-95090676D01*
X138543019Y-94708056D01*
X138543380Y-94293762D01*
X138385171Y-93910865D01*
X138180901Y-93706238D01*
X153678420Y-93706238D01*
X153836629Y-94089135D01*
X154129324Y-94382341D01*
X154511944Y-94541219D01*
X154926238Y-94541580D01*
X155309135Y-94383371D01*
X155602341Y-94090676D01*
X155761219Y-93708056D01*
X155761220Y-93706238D01*
X156218420Y-93706238D01*
X156376629Y-94089135D01*
X156669324Y-94382341D01*
X157051944Y-94541219D01*
X157466238Y-94541580D01*
X157849135Y-94383371D01*
X158142341Y-94090676D01*
X158301219Y-93708056D01*
X158301580Y-93293762D01*
X158143371Y-92910865D01*
X157850676Y-92617659D01*
X157468056Y-92458781D01*
X157053762Y-92458420D01*
X156670865Y-92616629D01*
X156377659Y-92909324D01*
X156218781Y-93291944D01*
X156218420Y-93706238D01*
X155761220Y-93706238D01*
X155761580Y-93293762D01*
X155603371Y-92910865D01*
X155310676Y-92617659D01*
X154928056Y-92458781D01*
X154513762Y-92458420D01*
X154130865Y-92616629D01*
X153837659Y-92909324D01*
X153678781Y-93291944D01*
X153678420Y-93706238D01*
X138180901Y-93706238D01*
X138092476Y-93617659D01*
X137800930Y-93496598D01*
X138090935Y-93376771D01*
X138384141Y-93084076D01*
X138543019Y-92701456D01*
X138543380Y-92287162D01*
X138477687Y-92128171D01*
X140386326Y-90219531D01*
X140386329Y-90219529D01*
X140448872Y-90125926D01*
X140479932Y-90079442D01*
X140512801Y-89914200D01*
X140512800Y-89914195D01*
X140512800Y-76646838D01*
X158456620Y-76646838D01*
X158614829Y-77029735D01*
X158907524Y-77322941D01*
X159199070Y-77444002D01*
X158909065Y-77563829D01*
X158615859Y-77856524D01*
X158456981Y-78239144D01*
X158456620Y-78653438D01*
X158614829Y-79036335D01*
X158907524Y-79329541D01*
X159199070Y-79450602D01*
X158909065Y-79570429D01*
X158615859Y-79863124D01*
X158456981Y-80245744D01*
X158456620Y-80660038D01*
X158614829Y-81042935D01*
X158907524Y-81336141D01*
X159199070Y-81457202D01*
X158909065Y-81577029D01*
X158615859Y-81869724D01*
X158456981Y-82252344D01*
X158456620Y-82666638D01*
X158614829Y-83049535D01*
X158907524Y-83342741D01*
X159199070Y-83463802D01*
X158909065Y-83583629D01*
X158615859Y-83876324D01*
X158456981Y-84258944D01*
X158456620Y-84673238D01*
X158614829Y-85056135D01*
X158907524Y-85349341D01*
X159199070Y-85470402D01*
X158909065Y-85590229D01*
X158615859Y-85882924D01*
X158456981Y-86265544D01*
X158456620Y-86679838D01*
X158614829Y-87062735D01*
X158907524Y-87355941D01*
X159199070Y-87477002D01*
X158909065Y-87596829D01*
X158615859Y-87889524D01*
X158456981Y-88272144D01*
X158456620Y-88686438D01*
X158614829Y-89069335D01*
X158907524Y-89362541D01*
X159199070Y-89483602D01*
X158909065Y-89603429D01*
X158615859Y-89896124D01*
X158456981Y-90278744D01*
X158456620Y-90693038D01*
X158614829Y-91075935D01*
X158907524Y-91369141D01*
X159199070Y-91490202D01*
X158909065Y-91610029D01*
X158615859Y-91902724D01*
X158456981Y-92285344D01*
X158456620Y-92699638D01*
X158614829Y-93082535D01*
X158907524Y-93375741D01*
X159199070Y-93496802D01*
X158909065Y-93616629D01*
X158615859Y-93909324D01*
X158456981Y-94291944D01*
X158456620Y-94706238D01*
X158614829Y-95089135D01*
X158907524Y-95382341D01*
X159290144Y-95541219D01*
X159704438Y-95541580D01*
X160087335Y-95383371D01*
X160380541Y-95090676D01*
X160539419Y-94708056D01*
X160539780Y-94293762D01*
X160381571Y-93910865D01*
X160088876Y-93617659D01*
X159797330Y-93496598D01*
X160087335Y-93376771D01*
X160380541Y-93084076D01*
X160539419Y-92701456D01*
X160539780Y-92287162D01*
X160381571Y-91904265D01*
X160088876Y-91611059D01*
X159797330Y-91489998D01*
X160087335Y-91370171D01*
X160380541Y-91077476D01*
X160539419Y-90694856D01*
X160539780Y-90280562D01*
X160381571Y-89897665D01*
X160088876Y-89604459D01*
X159797330Y-89483398D01*
X160087335Y-89363571D01*
X160380541Y-89070876D01*
X160539419Y-88688256D01*
X160539780Y-88273962D01*
X160381571Y-87891065D01*
X160088876Y-87597859D01*
X159797330Y-87476798D01*
X160087335Y-87356971D01*
X160380541Y-87064276D01*
X160539419Y-86681656D01*
X160539780Y-86267362D01*
X160381571Y-85884465D01*
X160088876Y-85591259D01*
X159797330Y-85470198D01*
X160087335Y-85350371D01*
X160380541Y-85057676D01*
X160539419Y-84675056D01*
X160539780Y-84260762D01*
X160381571Y-83877865D01*
X160088876Y-83584659D01*
X159797330Y-83463598D01*
X160087335Y-83343771D01*
X160380541Y-83051076D01*
X160539419Y-82668456D01*
X160539780Y-82254162D01*
X160381571Y-81871265D01*
X160088876Y-81578059D01*
X159797330Y-81456998D01*
X160087335Y-81337171D01*
X160380541Y-81044476D01*
X160539419Y-80661856D01*
X160539780Y-80247562D01*
X160381571Y-79864665D01*
X160088876Y-79571459D01*
X159797330Y-79450398D01*
X160087335Y-79330571D01*
X160380541Y-79037876D01*
X160539419Y-78655256D01*
X160539780Y-78240962D01*
X160381571Y-77858065D01*
X160088876Y-77564859D01*
X159797330Y-77443798D01*
X160087335Y-77323971D01*
X160380541Y-77031276D01*
X160539419Y-76648656D01*
X160539780Y-76234362D01*
X160381571Y-75851465D01*
X160088876Y-75558259D01*
X159706256Y-75399381D01*
X159291962Y-75399020D01*
X158909065Y-75557229D01*
X158615859Y-75849924D01*
X158456981Y-76232544D01*
X158456620Y-76646838D01*
X140512800Y-76646838D01*
X140512800Y-72631000D01*
X140479931Y-72465757D01*
X140386329Y-72325671D01*
X140386326Y-72325669D01*
X139084873Y-71024215D01*
X139084873Y-70350000D01*
X139065391Y-70246461D01*
X139004199Y-70151366D01*
X138910832Y-70087571D01*
X138800000Y-70065127D01*
X138100000Y-70065127D01*
X137996461Y-70084609D01*
X137901366Y-70145801D01*
X137837571Y-70239168D01*
X137815127Y-70350000D01*
X137815127Y-71650000D01*
X137834609Y-71753539D01*
X137895801Y-71848634D01*
X137989168Y-71912429D01*
X138100000Y-71934873D01*
X138774215Y-71934873D01*
X138961606Y-72122263D01*
X138910832Y-72087571D01*
X138800000Y-72065127D01*
X138100000Y-72065127D01*
X137996461Y-72084609D01*
X137901366Y-72145801D01*
X137837571Y-72239168D01*
X137815127Y-72350000D01*
X137815127Y-73650000D01*
X137834609Y-73753539D01*
X137895801Y-73848634D01*
X137989168Y-73912429D01*
X138100000Y-73934873D01*
X138774215Y-73934873D01*
X139014200Y-74174858D01*
X139014200Y-88721142D01*
X138111663Y-89623679D01*
X138092476Y-89604459D01*
X137800930Y-89483398D01*
X138090935Y-89363571D01*
X138384141Y-89070876D01*
X138543019Y-88688256D01*
X138543380Y-88273962D01*
X138385171Y-87891065D01*
X138092476Y-87597859D01*
X137800930Y-87476798D01*
X138090935Y-87356971D01*
X138384141Y-87064276D01*
X138543019Y-86681656D01*
X138543380Y-86267362D01*
X138385171Y-85884465D01*
X138092476Y-85591259D01*
X137800930Y-85470198D01*
X138090935Y-85350371D01*
X138384141Y-85057676D01*
X138543019Y-84675056D01*
X138543380Y-84260762D01*
X138385171Y-83877865D01*
X138092476Y-83584659D01*
X137800930Y-83463598D01*
X138090935Y-83343771D01*
X138384141Y-83051076D01*
X138543019Y-82668456D01*
X138543380Y-82254162D01*
X138385171Y-81871265D01*
X138092476Y-81578059D01*
X137800930Y-81456998D01*
X138090935Y-81337171D01*
X138384141Y-81044476D01*
X138543019Y-80661856D01*
X138543380Y-80247562D01*
X138385171Y-79864665D01*
X138092476Y-79571459D01*
X137800930Y-79450398D01*
X138090935Y-79330571D01*
X138384141Y-79037876D01*
X138543019Y-78655256D01*
X138543380Y-78240962D01*
X138385171Y-77858065D01*
X138092476Y-77564859D01*
X137731474Y-77414958D01*
X137783982Y-77410388D01*
X137988011Y-77325876D01*
X138079758Y-77198163D01*
X137501800Y-76620205D01*
X136923842Y-77198163D01*
X137015589Y-77325876D01*
X137283664Y-77410536D01*
X136912665Y-77563829D01*
X136619459Y-77856524D01*
X136460581Y-78239144D01*
X136460220Y-78653438D01*
X134457220Y-78653438D01*
X135805329Y-77305329D01*
X135869426Y-77209400D01*
X135898931Y-77165243D01*
X135931800Y-77000000D01*
X135931800Y-76330180D01*
X136497846Y-76330180D01*
X136532012Y-76722782D01*
X136616524Y-76926811D01*
X136744237Y-77018558D01*
X137322195Y-76440600D01*
X137681405Y-76440600D01*
X138259363Y-77018558D01*
X138387076Y-76926811D01*
X138505754Y-76551020D01*
X138471588Y-76158418D01*
X138387076Y-75954389D01*
X138259363Y-75862642D01*
X137681405Y-76440600D01*
X137322195Y-76440600D01*
X136744237Y-75862642D01*
X136616524Y-75954389D01*
X136497846Y-76330180D01*
X135931800Y-76330180D01*
X135931800Y-75683037D01*
X136923842Y-75683037D01*
X137501800Y-76260995D01*
X138079758Y-75683037D01*
X137988011Y-75555324D01*
X137612220Y-75436646D01*
X137219618Y-75470812D01*
X137015589Y-75555324D01*
X136923842Y-75683037D01*
X135931800Y-75683037D01*
X135931800Y-74228858D01*
X136225785Y-73934873D01*
X136900000Y-73934873D01*
X137003539Y-73915391D01*
X137098634Y-73854199D01*
X137162429Y-73760832D01*
X137184873Y-73650000D01*
X137184873Y-72350000D01*
X137165391Y-72246461D01*
X137104199Y-72151366D01*
X137010832Y-72087571D01*
X136900000Y-72065127D01*
X136545531Y-72065127D01*
X136675785Y-71934873D01*
X136900000Y-71934873D01*
X137003539Y-71915391D01*
X137098634Y-71854199D01*
X137162429Y-71760832D01*
X137184873Y-71650000D01*
X137184873Y-70350000D01*
X137165391Y-70246461D01*
X137104199Y-70151366D01*
X137010832Y-70087571D01*
X136900000Y-70065127D01*
X136200000Y-70065127D01*
X136096461Y-70084609D01*
X136001366Y-70145801D01*
X135937571Y-70239168D01*
X135915127Y-70350000D01*
X135915127Y-71474215D01*
X134931800Y-72457542D01*
X134931800Y-69846240D01*
X142760592Y-69846240D01*
X142855132Y-70075044D01*
X143030035Y-70250253D01*
X143258674Y-70345192D01*
X143506240Y-70345408D01*
X143660183Y-70281800D01*
X143892127Y-70281800D01*
X143892127Y-70650000D01*
X143911609Y-70753539D01*
X143972801Y-70848634D01*
X144066168Y-70912429D01*
X144177000Y-70934873D01*
X145177000Y-70934873D01*
X145280539Y-70915391D01*
X145375634Y-70854199D01*
X145439429Y-70760832D01*
X145461873Y-70650000D01*
X145461873Y-69050000D01*
X146892127Y-69050000D01*
X146892127Y-70650000D01*
X146911609Y-70753539D01*
X146972801Y-70848634D01*
X147066168Y-70912429D01*
X147177000Y-70934873D01*
X148177000Y-70934873D01*
X148280539Y-70915391D01*
X148375634Y-70854199D01*
X148439429Y-70760832D01*
X148461873Y-70650000D01*
X148461873Y-69050000D01*
X148845127Y-69050000D01*
X148845127Y-70650000D01*
X148864609Y-70753539D01*
X148925801Y-70848634D01*
X149019168Y-70912429D01*
X149130000Y-70934873D01*
X150130000Y-70934873D01*
X150233539Y-70915391D01*
X150328634Y-70854199D01*
X150392429Y-70760832D01*
X150414873Y-70650000D01*
X150414873Y-69695785D01*
X151060658Y-69050000D01*
X151845127Y-69050000D01*
X151845127Y-70650000D01*
X151864609Y-70753539D01*
X151925801Y-70848634D01*
X152019168Y-70912429D01*
X152130000Y-70934873D01*
X153130000Y-70934873D01*
X153233539Y-70915391D01*
X153300665Y-70872196D01*
X155370274Y-70872196D01*
X155655793Y-71563204D01*
X156184015Y-72092349D01*
X156874524Y-72379073D01*
X157622196Y-72379726D01*
X158313204Y-72094207D01*
X158842349Y-71565985D01*
X159129073Y-70875476D01*
X159129726Y-70127804D01*
X158844207Y-69436796D01*
X158315985Y-68907651D01*
X157625476Y-68620927D01*
X156877804Y-68620274D01*
X156186796Y-68905793D01*
X155657651Y-69434015D01*
X155370927Y-70124524D01*
X155370274Y-70872196D01*
X153300665Y-70872196D01*
X153328634Y-70854199D01*
X153392429Y-70760832D01*
X153414873Y-70650000D01*
X153414873Y-70043765D01*
X153433931Y-70015243D01*
X153438529Y-69992129D01*
X156894722Y-66535935D01*
X157051944Y-66601219D01*
X157466238Y-66601580D01*
X157849135Y-66443371D01*
X158142341Y-66150676D01*
X158301219Y-65768056D01*
X158301580Y-65353762D01*
X158143371Y-64970865D01*
X157850676Y-64677659D01*
X157468056Y-64518781D01*
X157053762Y-64518420D01*
X156670865Y-64676629D01*
X156377659Y-64969324D01*
X156218781Y-65351944D01*
X156218420Y-65766238D01*
X156284114Y-65925229D01*
X153343509Y-68865834D01*
X153334199Y-68851366D01*
X153240832Y-68787571D01*
X153130000Y-68765127D01*
X152130000Y-68765127D01*
X152026461Y-68784609D01*
X151931366Y-68845801D01*
X151867571Y-68939168D01*
X151845127Y-69050000D01*
X151060658Y-69050000D01*
X152178858Y-67931800D01*
X152780000Y-67931800D01*
X152945243Y-67898931D01*
X153085329Y-67805329D01*
X154354723Y-66535935D01*
X154511944Y-66601219D01*
X154926238Y-66601580D01*
X155309135Y-66443371D01*
X155602341Y-66150676D01*
X155761219Y-65768056D01*
X155761580Y-65353762D01*
X155603371Y-64970865D01*
X155310676Y-64677659D01*
X154928056Y-64518781D01*
X154513762Y-64518420D01*
X154130865Y-64676629D01*
X153837659Y-64969324D01*
X153678781Y-65351944D01*
X153678420Y-65766238D01*
X153744113Y-65925229D01*
X152601142Y-67068200D01*
X152000005Y-67068200D01*
X152000000Y-67068199D01*
X151862173Y-67095615D01*
X151834757Y-67101069D01*
X151705788Y-67187243D01*
X151694671Y-67194671D01*
X150124215Y-68765127D01*
X149130000Y-68765127D01*
X149026461Y-68784609D01*
X148931366Y-68845801D01*
X148867571Y-68939168D01*
X148845127Y-69050000D01*
X148461873Y-69050000D01*
X148442391Y-68946461D01*
X148396897Y-68875761D01*
X149945329Y-67327329D01*
X150038931Y-67187243D01*
X150071800Y-67022000D01*
X150071800Y-66508380D01*
X150229135Y-66443371D01*
X150355162Y-66317563D01*
X151602042Y-66317563D01*
X151693789Y-66445276D01*
X152069580Y-66563954D01*
X152462182Y-66529788D01*
X152666211Y-66445276D01*
X152757958Y-66317563D01*
X152180000Y-65739605D01*
X151602042Y-66317563D01*
X150355162Y-66317563D01*
X150522341Y-66150676D01*
X150681219Y-65768056D01*
X150681496Y-65449580D01*
X151176046Y-65449580D01*
X151210212Y-65842182D01*
X151294724Y-66046211D01*
X151422437Y-66137958D01*
X152000395Y-65560000D01*
X152359605Y-65560000D01*
X152937563Y-66137958D01*
X153065276Y-66046211D01*
X153183954Y-65670420D01*
X153149788Y-65277818D01*
X153065276Y-65073789D01*
X152937563Y-64982042D01*
X152359605Y-65560000D01*
X152000395Y-65560000D01*
X151422437Y-64982042D01*
X151294724Y-65073789D01*
X151176046Y-65449580D01*
X150681496Y-65449580D01*
X150681580Y-65353762D01*
X150523371Y-64970865D01*
X150355237Y-64802437D01*
X151602042Y-64802437D01*
X152180000Y-65380395D01*
X152757958Y-64802437D01*
X152666211Y-64674724D01*
X152290420Y-64556046D01*
X151897818Y-64590212D01*
X151693789Y-64674724D01*
X151602042Y-64802437D01*
X150355237Y-64802437D01*
X150230676Y-64677659D01*
X149848056Y-64518781D01*
X149433762Y-64518420D01*
X149050865Y-64676629D01*
X148757659Y-64969324D01*
X148598781Y-65351944D01*
X148598420Y-65766238D01*
X148756629Y-66149135D01*
X149049324Y-66442341D01*
X149208200Y-66508312D01*
X149208200Y-66843142D01*
X147371671Y-68679671D01*
X147314571Y-68765127D01*
X147177000Y-68765127D01*
X147073461Y-68784609D01*
X146978366Y-68845801D01*
X146914571Y-68939168D01*
X146892127Y-69050000D01*
X145461873Y-69050000D01*
X145442391Y-68946461D01*
X145381199Y-68851366D01*
X145287832Y-68787571D01*
X145177000Y-68765127D01*
X144177000Y-68765127D01*
X144073461Y-68784609D01*
X143978366Y-68845801D01*
X143914571Y-68939168D01*
X143892127Y-69050000D01*
X143892127Y-69352182D01*
X143735965Y-69195747D01*
X143507326Y-69100808D01*
X143259760Y-69100592D01*
X143030956Y-69195132D01*
X142855747Y-69370035D01*
X142760808Y-69598674D01*
X142760592Y-69846240D01*
X134931800Y-69846240D01*
X134931800Y-68688858D01*
X137019189Y-66601469D01*
X137146238Y-66601580D01*
X137529135Y-66443371D01*
X137822341Y-66150676D01*
X137981219Y-65768056D01*
X137981220Y-65766238D01*
X138438420Y-65766238D01*
X138596629Y-66149135D01*
X138889324Y-66442341D01*
X139271944Y-66601219D01*
X139686238Y-66601580D01*
X140069135Y-66443371D01*
X140195162Y-66317563D01*
X141442042Y-66317563D01*
X141533789Y-66445276D01*
X141909580Y-66563954D01*
X142302182Y-66529788D01*
X142506211Y-66445276D01*
X142597958Y-66317563D01*
X142020000Y-65739605D01*
X141442042Y-66317563D01*
X140195162Y-66317563D01*
X140362341Y-66150676D01*
X140521219Y-65768056D01*
X140521496Y-65449580D01*
X141016046Y-65449580D01*
X141050212Y-65842182D01*
X141134724Y-66046211D01*
X141262437Y-66137958D01*
X141840395Y-65560000D01*
X142199605Y-65560000D01*
X142777563Y-66137958D01*
X142905276Y-66046211D01*
X142993693Y-65766238D01*
X143518420Y-65766238D01*
X143676629Y-66149135D01*
X143969324Y-66442341D01*
X144351944Y-66601219D01*
X144766238Y-66601580D01*
X145149135Y-66443371D01*
X145442341Y-66150676D01*
X145601219Y-65768056D01*
X145601220Y-65766238D01*
X146058420Y-65766238D01*
X146216629Y-66149135D01*
X146509324Y-66442341D01*
X146891944Y-66601219D01*
X147306238Y-66601580D01*
X147689135Y-66443371D01*
X147982341Y-66150676D01*
X148141219Y-65768056D01*
X148141580Y-65353762D01*
X147983371Y-64970865D01*
X147690676Y-64677659D01*
X147308056Y-64518781D01*
X146893762Y-64518420D01*
X146510865Y-64676629D01*
X146217659Y-64969324D01*
X146058781Y-65351944D01*
X146058420Y-65766238D01*
X145601220Y-65766238D01*
X145601580Y-65353762D01*
X145443371Y-64970865D01*
X145150676Y-64677659D01*
X144768056Y-64518781D01*
X144353762Y-64518420D01*
X143970865Y-64676629D01*
X143677659Y-64969324D01*
X143518781Y-65351944D01*
X143518420Y-65766238D01*
X142993693Y-65766238D01*
X143023954Y-65670420D01*
X142989788Y-65277818D01*
X142905276Y-65073789D01*
X142777563Y-64982042D01*
X142199605Y-65560000D01*
X141840395Y-65560000D01*
X141262437Y-64982042D01*
X141134724Y-65073789D01*
X141016046Y-65449580D01*
X140521496Y-65449580D01*
X140521580Y-65353762D01*
X140363371Y-64970865D01*
X140195237Y-64802437D01*
X141442042Y-64802437D01*
X142020000Y-65380395D01*
X142597958Y-64802437D01*
X142506211Y-64674724D01*
X142130420Y-64556046D01*
X141737818Y-64590212D01*
X141533789Y-64674724D01*
X141442042Y-64802437D01*
X140195237Y-64802437D01*
X140070676Y-64677659D01*
X139688056Y-64518781D01*
X139273762Y-64518420D01*
X138890865Y-64676629D01*
X138597659Y-64969324D01*
X138438781Y-65351944D01*
X138438420Y-65766238D01*
X137981220Y-65766238D01*
X137981580Y-65353762D01*
X137823371Y-64970865D01*
X137530676Y-64677659D01*
X137148056Y-64518781D01*
X136733762Y-64518420D01*
X136350865Y-64676629D01*
X136057659Y-64969324D01*
X135898781Y-65351944D01*
X135898420Y-65766238D01*
X136056629Y-66149135D01*
X136153334Y-66246008D01*
X134194671Y-68204671D01*
X134101069Y-68344757D01*
X134068200Y-68510000D01*
X134068200Y-69973124D01*
X134054199Y-69951366D01*
X133960832Y-69887571D01*
X133850000Y-69865127D01*
X132150000Y-69865127D01*
X132046461Y-69884609D01*
X131951366Y-69945801D01*
X131887571Y-70039168D01*
X131865127Y-70150000D01*
X131865127Y-71850000D01*
X131884609Y-71953539D01*
X131945801Y-72048634D01*
X132039168Y-72112429D01*
X132150000Y-72134873D01*
X133850000Y-72134873D01*
X133953539Y-72115391D01*
X134048634Y-72054199D01*
X134068200Y-72025563D01*
X134068200Y-73121089D01*
X134065556Y-73107797D01*
X133820732Y-72741394D01*
X133454329Y-72496570D01*
X133022126Y-72410600D01*
X132977874Y-72410600D01*
X132545671Y-72496570D01*
X132179268Y-72741394D01*
X131934444Y-73107797D01*
X131848474Y-73540000D01*
X131934444Y-73972203D01*
X132179268Y-74338606D01*
X132545671Y-74583430D01*
X132977874Y-74669400D01*
X133022126Y-74669400D01*
X133454329Y-74583430D01*
X133820732Y-74338606D01*
X134065556Y-73972203D01*
X134068200Y-73958911D01*
X134068200Y-74821143D01*
X133693178Y-75196165D01*
X133454329Y-75036570D01*
X133022126Y-74950600D01*
X132977874Y-74950600D01*
X132545671Y-75036570D01*
X132179268Y-75281394D01*
X131934444Y-75647797D01*
X131848474Y-76080000D01*
X131934444Y-76512203D01*
X132138906Y-76818200D01*
X131830005Y-76818200D01*
X131830000Y-76818199D01*
X131664758Y-76851068D01*
X131664756Y-76851069D01*
X131664757Y-76851069D01*
X131524671Y-76944671D01*
X131524669Y-76944674D01*
X130896349Y-77572994D01*
X130482126Y-77490600D01*
X130437874Y-77490600D01*
X130005671Y-77576570D01*
X129639268Y-77821394D01*
X129394444Y-78187797D01*
X129308474Y-78620000D01*
X107803600Y-78620000D01*
X107803600Y-72122196D01*
X110120274Y-72122196D01*
X110405793Y-72813204D01*
X110934015Y-73342349D01*
X111624524Y-73629073D01*
X112372196Y-73629726D01*
X112746661Y-73475000D01*
X115215127Y-73475000D01*
X115215127Y-74725000D01*
X115234609Y-74828539D01*
X115295801Y-74923634D01*
X115389168Y-74987429D01*
X115500000Y-75009873D01*
X115568200Y-75009873D01*
X115568200Y-75551749D01*
X115472747Y-75647035D01*
X115377808Y-75875674D01*
X115377592Y-76123240D01*
X115472132Y-76352044D01*
X115647035Y-76527253D01*
X115875674Y-76622192D01*
X116020097Y-76622318D01*
X116134757Y-76698931D01*
X116300000Y-76731800D01*
X117010127Y-76731800D01*
X117010127Y-77075000D01*
X117029609Y-77178539D01*
X117090801Y-77273634D01*
X117184168Y-77337429D01*
X117295000Y-77359873D01*
X117895000Y-77359873D01*
X117998539Y-77340391D01*
X118093634Y-77279199D01*
X118157429Y-77185832D01*
X118179873Y-77075000D01*
X118179873Y-75525000D01*
X118280127Y-75525000D01*
X118280127Y-77075000D01*
X118299609Y-77178539D01*
X118360801Y-77273634D01*
X118454168Y-77337429D01*
X118565000Y-77359873D01*
X119165000Y-77359873D01*
X119268539Y-77340391D01*
X119363634Y-77279199D01*
X119427429Y-77185832D01*
X119449873Y-77075000D01*
X119449873Y-75910785D01*
X119550127Y-75810531D01*
X119550127Y-77075000D01*
X119569609Y-77178539D01*
X119630801Y-77273634D01*
X119724168Y-77337429D01*
X119835000Y-77359873D01*
X120435000Y-77359873D01*
X120538539Y-77340391D01*
X120633634Y-77279199D01*
X120697429Y-77185832D01*
X120719873Y-77075000D01*
X120719873Y-75525000D01*
X120820127Y-75525000D01*
X120820127Y-77075000D01*
X120839609Y-77178539D01*
X120900801Y-77273634D01*
X120994168Y-77337429D01*
X121105000Y-77359873D01*
X121705000Y-77359873D01*
X121808539Y-77340391D01*
X121903634Y-77279199D01*
X121967429Y-77185832D01*
X121989873Y-77075000D01*
X121989873Y-76731800D01*
X122671142Y-76731800D01*
X122915127Y-76975784D01*
X122915127Y-77650000D01*
X122934609Y-77753539D01*
X122995801Y-77848634D01*
X123089168Y-77912429D01*
X123200000Y-77934873D01*
X123900000Y-77934873D01*
X124003539Y-77915391D01*
X124098634Y-77854199D01*
X124162429Y-77760832D01*
X124184873Y-77650000D01*
X124184873Y-77184150D01*
X124871400Y-77184150D01*
X124871400Y-77695472D01*
X124906203Y-77779492D01*
X124970509Y-77843798D01*
X125054529Y-77878600D01*
X125265850Y-77878600D01*
X125323000Y-77821450D01*
X125323000Y-77127000D01*
X125577000Y-77127000D01*
X125577000Y-77821450D01*
X125634150Y-77878600D01*
X125845471Y-77878600D01*
X125929491Y-77843798D01*
X125993797Y-77779492D01*
X126028600Y-77695472D01*
X126028600Y-77184150D01*
X125971450Y-77127000D01*
X125577000Y-77127000D01*
X125323000Y-77127000D01*
X124928550Y-77127000D01*
X124871400Y-77184150D01*
X124184873Y-77184150D01*
X124184873Y-76350000D01*
X124176317Y-76304528D01*
X124871400Y-76304528D01*
X124871400Y-76815850D01*
X124928550Y-76873000D01*
X125323000Y-76873000D01*
X125323000Y-76178550D01*
X125577000Y-76178550D01*
X125577000Y-76873000D01*
X125971450Y-76873000D01*
X126028600Y-76815850D01*
X126028600Y-76304528D01*
X125993797Y-76220508D01*
X125929491Y-76156202D01*
X125845471Y-76121400D01*
X125634150Y-76121400D01*
X125577000Y-76178550D01*
X125323000Y-76178550D01*
X125265850Y-76121400D01*
X125054529Y-76121400D01*
X124970509Y-76156202D01*
X124906203Y-76220508D01*
X124871400Y-76304528D01*
X124176317Y-76304528D01*
X124165391Y-76246461D01*
X124104199Y-76151366D01*
X124010832Y-76087571D01*
X123973446Y-76080000D01*
X129308474Y-76080000D01*
X129394444Y-76512203D01*
X129639268Y-76878606D01*
X130005671Y-77123430D01*
X130437874Y-77209400D01*
X130482126Y-77209400D01*
X130914329Y-77123430D01*
X131280732Y-76878606D01*
X131525556Y-76512203D01*
X131611526Y-76080000D01*
X131525556Y-75647797D01*
X131280732Y-75281394D01*
X130914329Y-75036570D01*
X130482126Y-74950600D01*
X130437874Y-74950600D01*
X130005671Y-75036570D01*
X129639268Y-75281394D01*
X129394444Y-75647797D01*
X129308474Y-76080000D01*
X123973446Y-76080000D01*
X123900000Y-76065127D01*
X123225785Y-76065127D01*
X123155329Y-75994671D01*
X123095042Y-75954389D01*
X123015243Y-75901069D01*
X122850000Y-75868200D01*
X121989873Y-75868200D01*
X121989873Y-75525000D01*
X121970391Y-75421461D01*
X121909199Y-75326366D01*
X121815832Y-75262571D01*
X121705000Y-75240127D01*
X121105000Y-75240127D01*
X121001461Y-75259609D01*
X120906366Y-75320801D01*
X120842571Y-75414168D01*
X120820127Y-75525000D01*
X120719873Y-75525000D01*
X120700391Y-75421461D01*
X120696008Y-75414650D01*
X121178858Y-74931800D01*
X122915127Y-74931800D01*
X122915127Y-75150000D01*
X122934609Y-75253539D01*
X122995801Y-75348634D01*
X123089168Y-75412429D01*
X123200000Y-75434873D01*
X123900000Y-75434873D01*
X124003539Y-75415391D01*
X124098634Y-75354199D01*
X124162429Y-75260832D01*
X124184873Y-75150000D01*
X124184873Y-74684150D01*
X124871400Y-74684150D01*
X124871400Y-75195472D01*
X124906203Y-75279492D01*
X124970509Y-75343798D01*
X125054529Y-75378600D01*
X125265850Y-75378600D01*
X125323000Y-75321450D01*
X125323000Y-74627000D01*
X125577000Y-74627000D01*
X125577000Y-75321450D01*
X125634150Y-75378600D01*
X125845471Y-75378600D01*
X125929491Y-75343798D01*
X125993797Y-75279492D01*
X126028600Y-75195472D01*
X126028600Y-74684150D01*
X125971450Y-74627000D01*
X125577000Y-74627000D01*
X125323000Y-74627000D01*
X124928550Y-74627000D01*
X124871400Y-74684150D01*
X124184873Y-74684150D01*
X124184873Y-73850000D01*
X124176317Y-73804528D01*
X124871400Y-73804528D01*
X124871400Y-74315850D01*
X124928550Y-74373000D01*
X125323000Y-74373000D01*
X125323000Y-73678550D01*
X125577000Y-73678550D01*
X125577000Y-74373000D01*
X125971450Y-74373000D01*
X126028600Y-74315850D01*
X126028600Y-73804528D01*
X125993797Y-73720508D01*
X125929491Y-73656202D01*
X125845471Y-73621400D01*
X125634150Y-73621400D01*
X125577000Y-73678550D01*
X125323000Y-73678550D01*
X125265850Y-73621400D01*
X125054529Y-73621400D01*
X124970509Y-73656202D01*
X124906203Y-73720508D01*
X124871400Y-73804528D01*
X124176317Y-73804528D01*
X124165391Y-73746461D01*
X124104199Y-73651366D01*
X124010832Y-73587571D01*
X123900000Y-73565127D01*
X123200000Y-73565127D01*
X123096461Y-73584609D01*
X123001366Y-73645801D01*
X122937571Y-73739168D01*
X122915127Y-73850000D01*
X122915127Y-74068200D01*
X121292457Y-74068200D01*
X121820657Y-73540000D01*
X129308474Y-73540000D01*
X129394444Y-73972203D01*
X129639268Y-74338606D01*
X130005671Y-74583430D01*
X130437874Y-74669400D01*
X130482126Y-74669400D01*
X130914329Y-74583430D01*
X131280732Y-74338606D01*
X131525556Y-73972203D01*
X131611526Y-73540000D01*
X131525556Y-73107797D01*
X131280732Y-72741394D01*
X130914329Y-72496570D01*
X130482126Y-72410600D01*
X130437874Y-72410600D01*
X130005671Y-72496570D01*
X129639268Y-72741394D01*
X129394444Y-73107797D01*
X129308474Y-73540000D01*
X121820657Y-73540000D01*
X122915127Y-72445530D01*
X122915127Y-72650000D01*
X122934609Y-72753539D01*
X122995801Y-72848634D01*
X123089168Y-72912429D01*
X123200000Y-72934873D01*
X123900000Y-72934873D01*
X124003539Y-72915391D01*
X124098634Y-72854199D01*
X124162429Y-72760832D01*
X124184873Y-72650000D01*
X124184873Y-72184150D01*
X124871400Y-72184150D01*
X124871400Y-72695472D01*
X124906203Y-72779492D01*
X124970509Y-72843798D01*
X125054529Y-72878600D01*
X125265850Y-72878600D01*
X125323000Y-72821450D01*
X125323000Y-72127000D01*
X125577000Y-72127000D01*
X125577000Y-72821450D01*
X125634150Y-72878600D01*
X125845471Y-72878600D01*
X125929491Y-72843798D01*
X125993797Y-72779492D01*
X126028600Y-72695472D01*
X126028600Y-72184150D01*
X125971450Y-72127000D01*
X125577000Y-72127000D01*
X125323000Y-72127000D01*
X124928550Y-72127000D01*
X124871400Y-72184150D01*
X124184873Y-72184150D01*
X124184873Y-71350000D01*
X124176317Y-71304528D01*
X124871400Y-71304528D01*
X124871400Y-71815850D01*
X124928550Y-71873000D01*
X125323000Y-71873000D01*
X125323000Y-71178550D01*
X125577000Y-71178550D01*
X125577000Y-71873000D01*
X125971450Y-71873000D01*
X126028600Y-71815850D01*
X126028600Y-71304528D01*
X125993797Y-71220508D01*
X125929491Y-71156202D01*
X125845471Y-71121400D01*
X125634150Y-71121400D01*
X125577000Y-71178550D01*
X125323000Y-71178550D01*
X125265850Y-71121400D01*
X125054529Y-71121400D01*
X124970509Y-71156202D01*
X124906203Y-71220508D01*
X124871400Y-71304528D01*
X124176317Y-71304528D01*
X124165391Y-71246461D01*
X124104199Y-71151366D01*
X124010832Y-71087571D01*
X123900000Y-71065127D01*
X123200000Y-71065127D01*
X123096461Y-71084609D01*
X123001366Y-71145801D01*
X122937571Y-71239168D01*
X122915127Y-71350000D01*
X122915127Y-71568200D01*
X122750005Y-71568200D01*
X122750000Y-71568199D01*
X122612173Y-71595615D01*
X122584757Y-71601069D01*
X122444671Y-71694671D01*
X122444669Y-71694674D01*
X118899215Y-75240127D01*
X118565000Y-75240127D01*
X118461461Y-75259609D01*
X118366366Y-75320801D01*
X118302571Y-75414168D01*
X118280127Y-75525000D01*
X118179873Y-75525000D01*
X118160391Y-75421461D01*
X118099199Y-75326366D01*
X118005832Y-75262571D01*
X117895000Y-75240127D01*
X117295000Y-75240127D01*
X117191461Y-75259609D01*
X117096366Y-75320801D01*
X117032571Y-75414168D01*
X117010127Y-75525000D01*
X117010127Y-75868200D01*
X116618871Y-75868200D01*
X116527868Y-75647956D01*
X116431800Y-75551720D01*
X116431800Y-75009873D01*
X116500000Y-75009873D01*
X116603539Y-74990391D01*
X116698634Y-74929199D01*
X116762429Y-74835832D01*
X116784873Y-74725000D01*
X116784873Y-74284150D01*
X117271400Y-74284150D01*
X117271400Y-74770472D01*
X117306203Y-74854492D01*
X117370509Y-74918798D01*
X117454529Y-74953600D01*
X117815850Y-74953600D01*
X117873000Y-74896450D01*
X117873000Y-74227000D01*
X118127000Y-74227000D01*
X118127000Y-74896450D01*
X118184150Y-74953600D01*
X118545471Y-74953600D01*
X118629491Y-74918798D01*
X118693797Y-74854492D01*
X118728600Y-74770472D01*
X118728600Y-74284150D01*
X118671450Y-74227000D01*
X118127000Y-74227000D01*
X117873000Y-74227000D01*
X117328550Y-74227000D01*
X117271400Y-74284150D01*
X116784873Y-74284150D01*
X116784873Y-73475000D01*
X116776317Y-73429528D01*
X117271400Y-73429528D01*
X117271400Y-73915850D01*
X117328550Y-73973000D01*
X117873000Y-73973000D01*
X117873000Y-73303550D01*
X118127000Y-73303550D01*
X118127000Y-73973000D01*
X118671450Y-73973000D01*
X118728600Y-73915850D01*
X118728600Y-73429528D01*
X118693797Y-73345508D01*
X118629491Y-73281202D01*
X118545471Y-73246400D01*
X118184150Y-73246400D01*
X118127000Y-73303550D01*
X117873000Y-73303550D01*
X117815850Y-73246400D01*
X117454529Y-73246400D01*
X117370509Y-73281202D01*
X117306203Y-73345508D01*
X117271400Y-73429528D01*
X116776317Y-73429528D01*
X116765391Y-73371461D01*
X116704199Y-73276366D01*
X116610832Y-73212571D01*
X116500000Y-73190127D01*
X115500000Y-73190127D01*
X115396461Y-73209609D01*
X115301366Y-73270801D01*
X115237571Y-73364168D01*
X115215127Y-73475000D01*
X112746661Y-73475000D01*
X113063204Y-73344207D01*
X113592349Y-72815985D01*
X113879073Y-72125476D01*
X113879726Y-71377804D01*
X113594207Y-70686796D01*
X113065985Y-70157651D01*
X112375476Y-69870927D01*
X111627804Y-69870274D01*
X110936796Y-70155793D01*
X110407651Y-70684015D01*
X110120927Y-71374524D01*
X110120274Y-72122196D01*
X107803600Y-72122196D01*
X107803600Y-65766238D01*
X107958420Y-65766238D01*
X108116629Y-66149135D01*
X108409324Y-66442341D01*
X108791944Y-66601219D01*
X109206238Y-66601580D01*
X109589135Y-66443371D01*
X109882341Y-66150676D01*
X110041219Y-65768056D01*
X110041220Y-65766238D01*
X110498420Y-65766238D01*
X110656629Y-66149135D01*
X110949324Y-66442341D01*
X111331944Y-66601219D01*
X111746238Y-66601580D01*
X112129135Y-66443371D01*
X112422341Y-66150676D01*
X112581219Y-65768056D01*
X112581220Y-65766238D01*
X113038420Y-65766238D01*
X113196629Y-66149135D01*
X113489324Y-66442341D01*
X113871944Y-66601219D01*
X114286238Y-66601580D01*
X114669135Y-66443371D01*
X114795162Y-66317563D01*
X116042042Y-66317563D01*
X116133789Y-66445276D01*
X116509580Y-66563954D01*
X116902182Y-66529788D01*
X117106211Y-66445276D01*
X117197958Y-66317563D01*
X116620000Y-65739605D01*
X116042042Y-66317563D01*
X114795162Y-66317563D01*
X114962341Y-66150676D01*
X115121219Y-65768056D01*
X115121496Y-65449580D01*
X115616046Y-65449580D01*
X115650212Y-65842182D01*
X115734724Y-66046211D01*
X115862437Y-66137958D01*
X116440395Y-65560000D01*
X116799605Y-65560000D01*
X117377563Y-66137958D01*
X117505276Y-66046211D01*
X117593693Y-65766238D01*
X118118420Y-65766238D01*
X118276629Y-66149135D01*
X118569324Y-66442341D01*
X118951944Y-66601219D01*
X119366238Y-66601580D01*
X119749135Y-66443371D01*
X120042341Y-66150676D01*
X120201219Y-65768056D01*
X120201220Y-65766238D01*
X120658420Y-65766238D01*
X120816629Y-66149135D01*
X121109324Y-66442341D01*
X121491944Y-66601219D01*
X121906238Y-66601580D01*
X122289135Y-66443371D01*
X122582341Y-66150676D01*
X122741219Y-65768056D01*
X122741220Y-65766238D01*
X123198420Y-65766238D01*
X123356629Y-66149135D01*
X123649324Y-66442341D01*
X124031944Y-66601219D01*
X124446238Y-66601580D01*
X124829135Y-66443371D01*
X125122341Y-66150676D01*
X125281219Y-65768056D01*
X125281220Y-65766238D01*
X125738420Y-65766238D01*
X125896629Y-66149135D01*
X126189324Y-66442341D01*
X126571944Y-66601219D01*
X126986238Y-66601580D01*
X127369135Y-66443371D01*
X127662341Y-66150676D01*
X127821219Y-65768056D01*
X127821220Y-65766238D01*
X128278420Y-65766238D01*
X128436629Y-66149135D01*
X128729324Y-66442341D01*
X129111944Y-66601219D01*
X129526238Y-66601580D01*
X129909135Y-66443371D01*
X130202341Y-66150676D01*
X130361219Y-65768056D01*
X130361220Y-65766238D01*
X130818420Y-65766238D01*
X130976629Y-66149135D01*
X131269324Y-66442341D01*
X131651944Y-66601219D01*
X132066238Y-66601580D01*
X132449135Y-66443371D01*
X132742341Y-66150676D01*
X132901219Y-65768056D01*
X132901220Y-65766238D01*
X133358420Y-65766238D01*
X133516629Y-66149135D01*
X133809324Y-66442341D01*
X134191944Y-66601219D01*
X134606238Y-66601580D01*
X134989135Y-66443371D01*
X135282341Y-66150676D01*
X135441219Y-65768056D01*
X135441580Y-65353762D01*
X135283371Y-64970865D01*
X134990676Y-64677659D01*
X134608056Y-64518781D01*
X134193762Y-64518420D01*
X133810865Y-64676629D01*
X133517659Y-64969324D01*
X133358781Y-65351944D01*
X133358420Y-65766238D01*
X132901220Y-65766238D01*
X132901580Y-65353762D01*
X132743371Y-64970865D01*
X132450676Y-64677659D01*
X132068056Y-64518781D01*
X131653762Y-64518420D01*
X131270865Y-64676629D01*
X130977659Y-64969324D01*
X130818781Y-65351944D01*
X130818420Y-65766238D01*
X130361220Y-65766238D01*
X130361580Y-65353762D01*
X130203371Y-64970865D01*
X129910676Y-64677659D01*
X129528056Y-64518781D01*
X129113762Y-64518420D01*
X128730865Y-64676629D01*
X128437659Y-64969324D01*
X128278781Y-65351944D01*
X128278420Y-65766238D01*
X127821220Y-65766238D01*
X127821580Y-65353762D01*
X127663371Y-64970865D01*
X127370676Y-64677659D01*
X126988056Y-64518781D01*
X126573762Y-64518420D01*
X126190865Y-64676629D01*
X125897659Y-64969324D01*
X125738781Y-65351944D01*
X125738420Y-65766238D01*
X125281220Y-65766238D01*
X125281580Y-65353762D01*
X125123371Y-64970865D01*
X124830676Y-64677659D01*
X124448056Y-64518781D01*
X124033762Y-64518420D01*
X123650865Y-64676629D01*
X123357659Y-64969324D01*
X123198781Y-65351944D01*
X123198420Y-65766238D01*
X122741220Y-65766238D01*
X122741580Y-65353762D01*
X122583371Y-64970865D01*
X122290676Y-64677659D01*
X121908056Y-64518781D01*
X121493762Y-64518420D01*
X121110865Y-64676629D01*
X120817659Y-64969324D01*
X120658781Y-65351944D01*
X120658420Y-65766238D01*
X120201220Y-65766238D01*
X120201580Y-65353762D01*
X120043371Y-64970865D01*
X119750676Y-64677659D01*
X119368056Y-64518781D01*
X118953762Y-64518420D01*
X118570865Y-64676629D01*
X118277659Y-64969324D01*
X118118781Y-65351944D01*
X118118420Y-65766238D01*
X117593693Y-65766238D01*
X117623954Y-65670420D01*
X117589788Y-65277818D01*
X117505276Y-65073789D01*
X117377563Y-64982042D01*
X116799605Y-65560000D01*
X116440395Y-65560000D01*
X115862437Y-64982042D01*
X115734724Y-65073789D01*
X115616046Y-65449580D01*
X115121496Y-65449580D01*
X115121580Y-65353762D01*
X114963371Y-64970865D01*
X114795237Y-64802437D01*
X116042042Y-64802437D01*
X116620000Y-65380395D01*
X117197958Y-64802437D01*
X117106211Y-64674724D01*
X116730420Y-64556046D01*
X116337818Y-64590212D01*
X116133789Y-64674724D01*
X116042042Y-64802437D01*
X114795237Y-64802437D01*
X114670676Y-64677659D01*
X114288056Y-64518781D01*
X113873762Y-64518420D01*
X113490865Y-64676629D01*
X113197659Y-64969324D01*
X113038781Y-65351944D01*
X113038420Y-65766238D01*
X112581220Y-65766238D01*
X112581580Y-65353762D01*
X112423371Y-64970865D01*
X112130676Y-64677659D01*
X111748056Y-64518781D01*
X111333762Y-64518420D01*
X110950865Y-64676629D01*
X110657659Y-64969324D01*
X110498781Y-65351944D01*
X110498420Y-65766238D01*
X110041220Y-65766238D01*
X110041580Y-65353762D01*
X109883371Y-64970865D01*
X109590676Y-64677659D01*
X109208056Y-64518781D01*
X108793762Y-64518420D01*
X108410865Y-64676629D01*
X108117659Y-64969324D01*
X107958781Y-65351944D01*
X107958420Y-65766238D01*
X107803600Y-65766238D01*
X107803600Y-64303600D01*
X160696400Y-64303600D01*
X160696400Y-102196400D01*
X160696400Y-102196400D01*
G37*
X160696400Y-102196400D02*
X107803600Y-102196400D01*
X107803600Y-99122196D01*
X110120274Y-99122196D01*
X110405793Y-99813204D01*
X110934015Y-100342349D01*
X111624524Y-100629073D01*
X112372196Y-100629726D01*
X113063204Y-100344207D01*
X113592349Y-99815985D01*
X113879073Y-99125476D01*
X113879726Y-98377804D01*
X113594207Y-97686796D01*
X113065985Y-97157651D01*
X112375476Y-96870927D01*
X111627804Y-96870274D01*
X110936796Y-97155793D01*
X110407651Y-97684015D01*
X110120927Y-98374524D01*
X110120274Y-99122196D01*
X107803600Y-99122196D01*
X107803600Y-93706238D01*
X107958420Y-93706238D01*
X108116629Y-94089135D01*
X108409324Y-94382341D01*
X108791944Y-94541219D01*
X109206238Y-94541580D01*
X109589135Y-94383371D01*
X109882341Y-94090676D01*
X110041219Y-93708056D01*
X110041220Y-93706238D01*
X110498420Y-93706238D01*
X110656629Y-94089135D01*
X110949324Y-94382341D01*
X111331944Y-94541219D01*
X111746238Y-94541580D01*
X112129135Y-94383371D01*
X112422341Y-94090676D01*
X112581219Y-93708056D01*
X112581580Y-93293762D01*
X112423371Y-92910865D01*
X112130676Y-92617659D01*
X111748056Y-92458781D01*
X111333762Y-92458420D01*
X110950865Y-92616629D01*
X110657659Y-92909324D01*
X110498781Y-93291944D01*
X110498420Y-93706238D01*
X110041220Y-93706238D01*
X110041580Y-93293762D01*
X109883371Y-92910865D01*
X109590676Y-92617659D01*
X109208056Y-92458781D01*
X108793762Y-92458420D01*
X108410865Y-92616629D01*
X108117659Y-92909324D01*
X107958781Y-93291944D01*
X107958420Y-93706238D01*
X107803600Y-93706238D01*
X107803600Y-87150000D01*
X108965127Y-87150000D01*
X108965127Y-90650000D01*
X108984609Y-90753539D01*
X109045801Y-90848634D01*
X109139168Y-90912429D01*
X109250000Y-90934873D01*
X112750000Y-90934873D01*
X112853539Y-90915391D01*
X112948634Y-90854199D01*
X113012429Y-90760832D01*
X113034873Y-90650000D01*
X113034873Y-89484200D01*
X113158016Y-89484200D01*
X115965800Y-92291984D01*
X115965800Y-92404339D01*
X115901366Y-92445801D01*
X115837571Y-92539168D01*
X115815127Y-92650000D01*
X115815127Y-94350000D01*
X115834609Y-94453539D01*
X115895801Y-94548634D01*
X115965800Y-94596462D01*
X115965800Y-96550000D01*
X116010270Y-96773564D01*
X116136908Y-96963092D01*
X119586908Y-100413092D01*
X119776437Y-100539731D01*
X120000000Y-100584200D01*
X120365127Y-100584200D01*
X120365127Y-100850000D01*
X120384609Y-100953539D01*
X120445801Y-101048634D01*
X120539168Y-101112429D01*
X120650000Y-101134873D01*
X122350000Y-101134873D01*
X122453539Y-101115391D01*
X122548634Y-101054199D01*
X122612429Y-100960832D01*
X122634873Y-100850000D01*
X122634873Y-100184150D01*
X123921400Y-100184150D01*
X123921400Y-100895472D01*
X123956203Y-100979492D01*
X124020509Y-101043798D01*
X124104529Y-101078600D01*
X124815850Y-101078600D01*
X124873000Y-101021450D01*
X124873000Y-100127000D01*
X125127000Y-100127000D01*
X125127000Y-101021450D01*
X125184150Y-101078600D01*
X125895471Y-101078600D01*
X125979491Y-101043798D01*
X126043797Y-100979492D01*
X126078600Y-100895472D01*
X126078600Y-100184150D01*
X126021450Y-100127000D01*
X125127000Y-100127000D01*
X124873000Y-100127000D01*
X123978550Y-100127000D01*
X123921400Y-100184150D01*
X122634873Y-100184150D01*
X122634873Y-99150000D01*
X122626317Y-99104528D01*
X123921400Y-99104528D01*
X123921400Y-99815850D01*
X123978550Y-99873000D01*
X124873000Y-99873000D01*
X124873000Y-98978550D01*
X125127000Y-98978550D01*
X125127000Y-99873000D01*
X126021450Y-99873000D01*
X126078600Y-99815850D01*
X126078600Y-99104528D01*
X126043797Y-99020508D01*
X125979491Y-98956202D01*
X125895471Y-98921400D01*
X125184150Y-98921400D01*
X125127000Y-98978550D01*
X124873000Y-98978550D01*
X124815850Y-98921400D01*
X124104529Y-98921400D01*
X124020509Y-98956202D01*
X123956203Y-99020508D01*
X123921400Y-99104528D01*
X122626317Y-99104528D01*
X122615391Y-99046461D01*
X122554199Y-98951366D01*
X122460832Y-98887571D01*
X122350000Y-98865127D01*
X120650000Y-98865127D01*
X120546461Y-98884609D01*
X120451366Y-98945801D01*
X120387571Y-99039168D01*
X120365127Y-99150000D01*
X120365127Y-99415800D01*
X120241984Y-99415800D01*
X119476184Y-98650000D01*
X131365127Y-98650000D01*
X131365127Y-100350000D01*
X131384609Y-100453539D01*
X131445801Y-100548634D01*
X131539168Y-100612429D01*
X131650000Y-100634873D01*
X133350000Y-100634873D01*
X133453539Y-100615391D01*
X133548634Y-100554199D01*
X133612429Y-100460832D01*
X133634873Y-100350000D01*
X133634873Y-99792995D01*
X134001944Y-99792995D01*
X134193086Y-100167939D01*
X134513163Y-100441195D01*
X134747007Y-100538043D01*
X134913000Y-100513524D01*
X134913000Y-99627000D01*
X135167000Y-99627000D01*
X135167000Y-100513524D01*
X135332993Y-100538043D01*
X135566837Y-100441195D01*
X135886914Y-100167939D01*
X136078056Y-99792995D01*
X136053960Y-99627000D01*
X135167000Y-99627000D01*
X134913000Y-99627000D01*
X134026040Y-99627000D01*
X134001944Y-99792995D01*
X133634873Y-99792995D01*
X133634873Y-99207005D01*
X134001944Y-99207005D01*
X134026040Y-99373000D01*
X134913000Y-99373000D01*
X134913000Y-98486476D01*
X135167000Y-98486476D01*
X135167000Y-99373000D01*
X136053960Y-99373000D01*
X136078056Y-99207005D01*
X135886914Y-98832061D01*
X135566837Y-98558805D01*
X135332993Y-98461957D01*
X135167000Y-98486476D01*
X134913000Y-98486476D01*
X134747007Y-98461957D01*
X134513163Y-98558805D01*
X134193086Y-98832061D01*
X134001944Y-99207005D01*
X133634873Y-99207005D01*
X133634873Y-98650000D01*
X133615391Y-98546461D01*
X133554199Y-98451366D01*
X133460832Y-98387571D01*
X133350000Y-98365127D01*
X131650000Y-98365127D01*
X131546461Y-98384609D01*
X131451366Y-98445801D01*
X131387571Y-98539168D01*
X131365127Y-98650000D01*
X119476184Y-98650000D01*
X117134200Y-96308016D01*
X117134200Y-94595661D01*
X117198634Y-94554199D01*
X117262429Y-94460832D01*
X117284873Y-94350000D01*
X117284873Y-92650000D01*
X118715127Y-92650000D01*
X118715127Y-94350000D01*
X118734609Y-94453539D01*
X118795801Y-94548634D01*
X118889168Y-94612429D01*
X119000000Y-94634873D01*
X119900000Y-94634873D01*
X120003539Y-94615391D01*
X120098634Y-94554199D01*
X120162429Y-94460832D01*
X120184873Y-94350000D01*
X120184873Y-94084200D01*
X121315127Y-94084200D01*
X121315127Y-94350000D01*
X121334609Y-94453539D01*
X121395801Y-94548634D01*
X121465800Y-94596462D01*
X121465800Y-95096562D01*
X121396461Y-95109609D01*
X121301366Y-95170801D01*
X121237571Y-95264168D01*
X121215127Y-95375000D01*
X121215127Y-96625000D01*
X121234609Y-96728539D01*
X121295801Y-96823634D01*
X121389168Y-96887429D01*
X121500000Y-96909873D01*
X122500000Y-96909873D01*
X122603539Y-96890391D01*
X122698634Y-96829199D01*
X122762429Y-96735832D01*
X122784873Y-96625000D01*
X122784873Y-96184150D01*
X123271400Y-96184150D01*
X123271400Y-96670472D01*
X123306203Y-96754492D01*
X123370509Y-96818798D01*
X123454529Y-96853600D01*
X123815850Y-96853600D01*
X123873000Y-96796450D01*
X123873000Y-96127000D01*
X124127000Y-96127000D01*
X124127000Y-96796450D01*
X124184150Y-96853600D01*
X124545471Y-96853600D01*
X124629491Y-96818798D01*
X124693797Y-96754492D01*
X124728600Y-96670472D01*
X124728600Y-96184150D01*
X124671450Y-96127000D01*
X124127000Y-96127000D01*
X123873000Y-96127000D01*
X123328550Y-96127000D01*
X123271400Y-96184150D01*
X122784873Y-96184150D01*
X122784873Y-95375000D01*
X122776317Y-95329528D01*
X123271400Y-95329528D01*
X123271400Y-95815850D01*
X123328550Y-95873000D01*
X123873000Y-95873000D01*
X123873000Y-95203550D01*
X124127000Y-95203550D01*
X124127000Y-95873000D01*
X124671450Y-95873000D01*
X124728600Y-95815850D01*
X124728600Y-95329528D01*
X124693797Y-95245508D01*
X124629491Y-95181202D01*
X124545471Y-95146400D01*
X124184150Y-95146400D01*
X124127000Y-95203550D01*
X123873000Y-95203550D01*
X123815850Y-95146400D01*
X123454529Y-95146400D01*
X123370509Y-95181202D01*
X123306203Y-95245508D01*
X123271400Y-95329528D01*
X122776317Y-95329528D01*
X122765391Y-95271461D01*
X122704199Y-95176366D01*
X122634200Y-95128538D01*
X122634200Y-94595661D01*
X122698634Y-94554199D01*
X122762429Y-94460832D01*
X122784873Y-94350000D01*
X122784873Y-93684150D01*
X124271400Y-93684150D01*
X124271400Y-94395472D01*
X124306203Y-94479492D01*
X124370509Y-94543798D01*
X124454529Y-94578600D01*
X124765850Y-94578600D01*
X124823000Y-94521450D01*
X124823000Y-93627000D01*
X125077000Y-93627000D01*
X125077000Y-94521450D01*
X125134150Y-94578600D01*
X125445471Y-94578600D01*
X125529491Y-94543798D01*
X125593797Y-94479492D01*
X125628600Y-94395472D01*
X125628600Y-94152993D01*
X131961957Y-94152993D01*
X132058805Y-94386837D01*
X132332061Y-94706914D01*
X132707005Y-94898056D01*
X132873000Y-94873960D01*
X132873000Y-93987000D01*
X133127000Y-93987000D01*
X133127000Y-94873960D01*
X133292995Y-94898056D01*
X133667939Y-94706914D01*
X133941195Y-94386837D01*
X134038043Y-94152993D01*
X134013524Y-93987000D01*
X133127000Y-93987000D01*
X132873000Y-93987000D01*
X131986476Y-93987000D01*
X131961957Y-94152993D01*
X125628600Y-94152993D01*
X125628600Y-93684150D01*
X125571450Y-93627000D01*
X125077000Y-93627000D01*
X124823000Y-93627000D01*
X124328550Y-93627000D01*
X124271400Y-93684150D01*
X122784873Y-93684150D01*
X122784873Y-93567007D01*
X131961957Y-93567007D01*
X131986476Y-93733000D01*
X132873000Y-93733000D01*
X132873000Y-92846040D01*
X133127000Y-92846040D01*
X133127000Y-93733000D01*
X134013524Y-93733000D01*
X134038043Y-93567007D01*
X133941195Y-93333163D01*
X133667939Y-93013086D01*
X133292995Y-92821944D01*
X133127000Y-92846040D01*
X132873000Y-92846040D01*
X132707005Y-92821944D01*
X132332061Y-93013086D01*
X132058805Y-93333163D01*
X131961957Y-93567007D01*
X122784873Y-93567007D01*
X122784873Y-92650000D01*
X122776317Y-92604528D01*
X124271400Y-92604528D01*
X124271400Y-93315850D01*
X124328550Y-93373000D01*
X124823000Y-93373000D01*
X124823000Y-92478550D01*
X125077000Y-92478550D01*
X125077000Y-93373000D01*
X125571450Y-93373000D01*
X125628600Y-93315850D01*
X125628600Y-92604528D01*
X125593797Y-92520508D01*
X125529491Y-92456202D01*
X125445471Y-92421400D01*
X125134150Y-92421400D01*
X125077000Y-92478550D01*
X124823000Y-92478550D01*
X124765850Y-92421400D01*
X124454529Y-92421400D01*
X124370509Y-92456202D01*
X124306203Y-92520508D01*
X124271400Y-92604528D01*
X122776317Y-92604528D01*
X122765391Y-92546461D01*
X122704199Y-92451366D01*
X122610832Y-92387571D01*
X122500000Y-92365127D01*
X122481800Y-92365127D01*
X122481800Y-91528858D01*
X123478858Y-90531800D01*
X125115127Y-90531800D01*
X125115127Y-90750000D01*
X125134609Y-90853539D01*
X125195801Y-90948634D01*
X125289168Y-91012429D01*
X125400000Y-91034873D01*
X126100000Y-91034873D01*
X126203539Y-91015391D01*
X126298634Y-90954199D01*
X126362429Y-90860832D01*
X126384873Y-90750000D01*
X126384873Y-89450000D01*
X126365391Y-89346461D01*
X126304199Y-89251366D01*
X126210832Y-89187571D01*
X126100000Y-89165127D01*
X125400000Y-89165127D01*
X125296461Y-89184609D01*
X125201366Y-89245801D01*
X125137571Y-89339168D01*
X125115127Y-89450000D01*
X125115127Y-89668200D01*
X123300000Y-89668200D01*
X123134757Y-89701069D01*
X123021118Y-89777000D01*
X122994671Y-89794671D01*
X121744671Y-91044671D01*
X121651069Y-91184757D01*
X121618200Y-91350000D01*
X121618200Y-92365127D01*
X121600000Y-92365127D01*
X121496461Y-92384609D01*
X121401366Y-92445801D01*
X121337571Y-92539168D01*
X121315127Y-92650000D01*
X121315127Y-92915800D01*
X120184873Y-92915800D01*
X120184873Y-92650000D01*
X120165391Y-92546461D01*
X120104199Y-92451366D01*
X120010832Y-92387571D01*
X119900000Y-92365127D01*
X119000000Y-92365127D01*
X118896461Y-92384609D01*
X118801366Y-92445801D01*
X118737571Y-92539168D01*
X118715127Y-92650000D01*
X117284873Y-92650000D01*
X117265391Y-92546461D01*
X117204199Y-92451366D01*
X117134200Y-92403538D01*
X117134200Y-92050005D01*
X117134201Y-92050000D01*
X117089731Y-91826437D01*
X116963092Y-91636908D01*
X115160334Y-89834150D01*
X116671400Y-89834150D01*
X116671400Y-90145471D01*
X116706202Y-90229491D01*
X116770508Y-90293797D01*
X116854528Y-90328600D01*
X117315850Y-90328600D01*
X117373000Y-90271450D01*
X117373000Y-89777000D01*
X117627000Y-89777000D01*
X117627000Y-90271450D01*
X117684150Y-90328600D01*
X118145472Y-90328600D01*
X118229492Y-90293797D01*
X118293798Y-90229491D01*
X118328600Y-90145471D01*
X118328600Y-89834150D01*
X118271450Y-89777000D01*
X117627000Y-89777000D01*
X117373000Y-89777000D01*
X116728550Y-89777000D01*
X116671400Y-89834150D01*
X115160334Y-89834150D01*
X114480713Y-89154529D01*
X116671400Y-89154529D01*
X116671400Y-89465850D01*
X116728550Y-89523000D01*
X117373000Y-89523000D01*
X117373000Y-89028550D01*
X117627000Y-89028550D01*
X117627000Y-89523000D01*
X118271450Y-89523000D01*
X118328600Y-89465850D01*
X118328600Y-89154529D01*
X118293798Y-89070509D01*
X118229492Y-89006203D01*
X118145472Y-88971400D01*
X117684150Y-88971400D01*
X117627000Y-89028550D01*
X117373000Y-89028550D01*
X117315850Y-88971400D01*
X116854528Y-88971400D01*
X116770508Y-89006203D01*
X116706202Y-89070509D01*
X116671400Y-89154529D01*
X114480713Y-89154529D01*
X113813092Y-88486908D01*
X113785093Y-88468200D01*
X113623564Y-88360270D01*
X113400000Y-88315800D01*
X113034873Y-88315800D01*
X113034873Y-87150000D01*
X113015391Y-87046461D01*
X112954199Y-86951366D01*
X112860832Y-86887571D01*
X112750000Y-86865127D01*
X109250000Y-86865127D01*
X109146461Y-86884609D01*
X109051366Y-86945801D01*
X108987571Y-87039168D01*
X108965127Y-87150000D01*
X107803600Y-87150000D01*
X107803600Y-80350000D01*
X108965127Y-80350000D01*
X108965127Y-83850000D01*
X108984609Y-83953539D01*
X109045801Y-84048634D01*
X109139168Y-84112429D01*
X109250000Y-84134873D01*
X112750000Y-84134873D01*
X112853539Y-84115391D01*
X112948634Y-84054199D01*
X113012429Y-83960832D01*
X113034873Y-83850000D01*
X113034873Y-82684200D01*
X113858016Y-82684200D01*
X116806530Y-85632714D01*
X116796461Y-85634609D01*
X116701366Y-85695801D01*
X116637571Y-85789168D01*
X116615127Y-85900000D01*
X116615127Y-86800000D01*
X116634609Y-86903539D01*
X116695801Y-86998634D01*
X116789168Y-87062429D01*
X116900000Y-87084873D01*
X118100000Y-87084873D01*
X118203539Y-87065391D01*
X118298634Y-87004199D01*
X118362429Y-86910832D01*
X118384873Y-86800000D01*
X118384873Y-85900000D01*
X118365391Y-85796461D01*
X118304199Y-85701366D01*
X118210832Y-85637571D01*
X118100000Y-85615127D01*
X118084200Y-85615127D01*
X118084200Y-85500000D01*
X118039730Y-85276436D01*
X117913092Y-85086908D01*
X116376184Y-83550000D01*
X119415127Y-83550000D01*
X119415127Y-84850000D01*
X119434609Y-84953539D01*
X119495801Y-85048634D01*
X119589168Y-85112429D01*
X119618200Y-85118308D01*
X119618200Y-85380519D01*
X119596461Y-85384609D01*
X119501366Y-85445801D01*
X119437571Y-85539168D01*
X119415127Y-85650000D01*
X119415127Y-86950000D01*
X119434609Y-87053539D01*
X119495801Y-87148634D01*
X119589168Y-87212429D01*
X119700000Y-87234873D01*
X120400000Y-87234873D01*
X120503539Y-87215391D01*
X120598634Y-87154199D01*
X120662429Y-87060832D01*
X120684873Y-86950000D01*
X120684873Y-85650000D01*
X121315127Y-85650000D01*
X121315127Y-86950000D01*
X121334609Y-87053539D01*
X121395801Y-87148634D01*
X121489168Y-87212429D01*
X121600000Y-87234873D01*
X122274215Y-87234873D01*
X122844671Y-87805329D01*
X122984757Y-87898931D01*
X123150000Y-87931800D01*
X129713490Y-87931800D01*
X129639268Y-87981394D01*
X129394444Y-88347797D01*
X129308474Y-88780000D01*
X129394444Y-89212203D01*
X129639268Y-89578606D01*
X129773354Y-89668200D01*
X128284873Y-89668200D01*
X128284873Y-89450000D01*
X128265391Y-89346461D01*
X128204199Y-89251366D01*
X128110832Y-89187571D01*
X128000000Y-89165127D01*
X127300000Y-89165127D01*
X127196461Y-89184609D01*
X127101366Y-89245801D01*
X127037571Y-89339168D01*
X127015127Y-89450000D01*
X127015127Y-90750000D01*
X127034609Y-90853539D01*
X127095801Y-90948634D01*
X127189168Y-91012429D01*
X127300000Y-91034873D01*
X128000000Y-91034873D01*
X128103539Y-91015391D01*
X128198634Y-90954199D01*
X128262429Y-90860832D01*
X128284873Y-90750000D01*
X128284873Y-90531800D01*
X129632315Y-90531800D01*
X129394444Y-90887797D01*
X129308474Y-91320000D01*
X129394444Y-91752203D01*
X129639268Y-92118606D01*
X130005671Y-92363430D01*
X130437874Y-92449400D01*
X130482126Y-92449400D01*
X130914329Y-92363430D01*
X131280732Y-92118606D01*
X131525556Y-91752203D01*
X131611526Y-91320000D01*
X131525556Y-90887797D01*
X131287685Y-90531800D01*
X131700000Y-90531800D01*
X131865243Y-90498931D01*
X132005329Y-90405329D01*
X132580333Y-89830325D01*
X132977874Y-89909400D01*
X133022126Y-89909400D01*
X133454329Y-89823430D01*
X133820732Y-89578606D01*
X134065556Y-89212203D01*
X134151526Y-88780000D01*
X134065556Y-88347797D01*
X133820732Y-87981394D01*
X133746510Y-87931800D01*
X134071142Y-87931800D01*
X134568200Y-88428858D01*
X134568200Y-89571142D01*
X133699172Y-90440170D01*
X133454329Y-90276570D01*
X133022126Y-90190600D01*
X132977874Y-90190600D01*
X132545671Y-90276570D01*
X132179268Y-90521394D01*
X131934444Y-90887797D01*
X131848474Y-91320000D01*
X131934444Y-91752203D01*
X132179268Y-92118606D01*
X132545671Y-92363430D01*
X132977874Y-92449400D01*
X133022126Y-92449400D01*
X133454329Y-92363430D01*
X133820732Y-92118606D01*
X134065556Y-91752203D01*
X134151526Y-91320000D01*
X134133132Y-91227526D01*
X135305329Y-90055329D01*
X135398931Y-89915243D01*
X135431800Y-89750000D01*
X135431800Y-88250000D01*
X135398931Y-88084757D01*
X135305329Y-87944671D01*
X134555329Y-87194671D01*
X134494758Y-87154199D01*
X134415243Y-87101069D01*
X134250000Y-87068200D01*
X133776442Y-87068200D01*
X133820732Y-87038606D01*
X134065556Y-86672203D01*
X134151526Y-86240000D01*
X134065556Y-85807797D01*
X133820732Y-85441394D01*
X133454329Y-85196570D01*
X133022126Y-85110600D01*
X132977874Y-85110600D01*
X132545671Y-85196570D01*
X132179268Y-85441394D01*
X131934444Y-85807797D01*
X131848474Y-86240000D01*
X131934444Y-86672203D01*
X132179268Y-87038606D01*
X132223558Y-87068200D01*
X131236442Y-87068200D01*
X131280732Y-87038606D01*
X131525556Y-86672203D01*
X131611526Y-86240000D01*
X131525556Y-85807797D01*
X131280732Y-85441394D01*
X130914329Y-85196570D01*
X130482126Y-85110600D01*
X130437874Y-85110600D01*
X130005671Y-85196570D01*
X129639268Y-85441394D01*
X129394444Y-85807797D01*
X129308474Y-86240000D01*
X129394444Y-86672203D01*
X129639268Y-87038606D01*
X129683558Y-87068200D01*
X123328858Y-87068200D01*
X122584873Y-86324215D01*
X122584873Y-85650000D01*
X122565391Y-85546461D01*
X122504199Y-85451366D01*
X122410832Y-85387571D01*
X122300000Y-85365127D01*
X121600000Y-85365127D01*
X121496461Y-85384609D01*
X121401366Y-85445801D01*
X121337571Y-85539168D01*
X121315127Y-85650000D01*
X120684873Y-85650000D01*
X120665391Y-85546461D01*
X120604199Y-85451366D01*
X120510832Y-85387571D01*
X120481800Y-85381692D01*
X120481800Y-85119481D01*
X120503539Y-85115391D01*
X120598634Y-85054199D01*
X120662429Y-84960832D01*
X120684873Y-84850000D01*
X120684873Y-83550000D01*
X121315127Y-83550000D01*
X121315127Y-84850000D01*
X121334609Y-84953539D01*
X121395801Y-85048634D01*
X121489168Y-85112429D01*
X121600000Y-85134873D01*
X122300000Y-85134873D01*
X122403539Y-85115391D01*
X122498634Y-85054199D01*
X122562429Y-84960832D01*
X122584873Y-84850000D01*
X122584873Y-84764807D01*
X122747035Y-84927253D01*
X122975674Y-85022192D01*
X123223240Y-85022408D01*
X123452044Y-84927868D01*
X123627253Y-84752965D01*
X123722192Y-84524326D01*
X123722408Y-84276760D01*
X123627868Y-84047956D01*
X123452965Y-83872747D01*
X123224326Y-83777808D01*
X122976760Y-83777592D01*
X122967159Y-83781559D01*
X122900000Y-83768200D01*
X122584873Y-83768200D01*
X122584873Y-83700000D01*
X129308474Y-83700000D01*
X129394444Y-84132203D01*
X129639268Y-84498606D01*
X130005671Y-84743430D01*
X130437874Y-84829400D01*
X130482126Y-84829400D01*
X130914329Y-84743430D01*
X131280732Y-84498606D01*
X131525556Y-84132203D01*
X131611526Y-83700000D01*
X131525556Y-83267797D01*
X131280732Y-82901394D01*
X130914329Y-82656570D01*
X130482126Y-82570600D01*
X130437874Y-82570600D01*
X130005671Y-82656570D01*
X129639268Y-82901394D01*
X129394444Y-83267797D01*
X129308474Y-83700000D01*
X122584873Y-83700000D01*
X122584873Y-83550000D01*
X122565391Y-83446461D01*
X122504199Y-83351366D01*
X122410832Y-83287571D01*
X122300000Y-83265127D01*
X121600000Y-83265127D01*
X121496461Y-83284609D01*
X121401366Y-83345801D01*
X121337571Y-83439168D01*
X121315127Y-83550000D01*
X120684873Y-83550000D01*
X120665391Y-83446461D01*
X120604199Y-83351366D01*
X120510832Y-83287571D01*
X120481800Y-83281692D01*
X120481800Y-82751067D01*
X120538539Y-82740391D01*
X120633634Y-82679199D01*
X120697429Y-82585832D01*
X120719873Y-82475000D01*
X120719873Y-81884150D01*
X120876400Y-81884150D01*
X120876400Y-82520471D01*
X120911202Y-82604491D01*
X120975508Y-82668797D01*
X121059528Y-82703600D01*
X121220850Y-82703600D01*
X121278000Y-82646450D01*
X121278000Y-81827000D01*
X121532000Y-81827000D01*
X121532000Y-82646450D01*
X121589150Y-82703600D01*
X121750472Y-82703600D01*
X121834492Y-82668797D01*
X121898798Y-82604491D01*
X121933600Y-82520471D01*
X121933600Y-81884150D01*
X121876450Y-81827000D01*
X121532000Y-81827000D01*
X121278000Y-81827000D01*
X120933550Y-81827000D01*
X120876400Y-81884150D01*
X120719873Y-81884150D01*
X120719873Y-80925000D01*
X120711318Y-80879529D01*
X120876400Y-80879529D01*
X120876400Y-81515850D01*
X120933550Y-81573000D01*
X121278000Y-81573000D01*
X121278000Y-80753550D01*
X121532000Y-80753550D01*
X121532000Y-81573000D01*
X121876450Y-81573000D01*
X121933600Y-81515850D01*
X121933600Y-81452993D01*
X129421957Y-81452993D01*
X129518805Y-81686837D01*
X129792061Y-82006914D01*
X130167005Y-82198056D01*
X130333000Y-82173960D01*
X130333000Y-81287000D01*
X130587000Y-81287000D01*
X130587000Y-82173960D01*
X130752995Y-82198056D01*
X131127939Y-82006914D01*
X131401195Y-81686837D01*
X131498043Y-81452993D01*
X131473524Y-81287000D01*
X130587000Y-81287000D01*
X130333000Y-81287000D01*
X129446476Y-81287000D01*
X129421957Y-81452993D01*
X121933600Y-81452993D01*
X121933600Y-80879529D01*
X121928414Y-80867007D01*
X129421957Y-80867007D01*
X129446476Y-81033000D01*
X130333000Y-81033000D01*
X130333000Y-80146040D01*
X130587000Y-80146040D01*
X130587000Y-81033000D01*
X131473524Y-81033000D01*
X131498043Y-80867007D01*
X131401195Y-80633163D01*
X131127939Y-80313086D01*
X130752995Y-80121944D01*
X130587000Y-80146040D01*
X130333000Y-80146040D01*
X130167005Y-80121944D01*
X129792061Y-80313086D01*
X129518805Y-80633163D01*
X129421957Y-80867007D01*
X121928414Y-80867007D01*
X121898798Y-80795509D01*
X121834492Y-80731203D01*
X121750472Y-80696400D01*
X121589150Y-80696400D01*
X121532000Y-80753550D01*
X121278000Y-80753550D01*
X121220850Y-80696400D01*
X121059528Y-80696400D01*
X120975508Y-80731203D01*
X120911202Y-80795509D01*
X120876400Y-80879529D01*
X120711318Y-80879529D01*
X120700391Y-80821461D01*
X120639199Y-80726366D01*
X120545832Y-80662571D01*
X120435000Y-80640127D01*
X119835000Y-80640127D01*
X119731461Y-80659609D01*
X119636366Y-80720801D01*
X119572571Y-80814168D01*
X119550127Y-80925000D01*
X119550127Y-82475000D01*
X119569609Y-82578539D01*
X119618200Y-82654052D01*
X119618200Y-83280519D01*
X119596461Y-83284609D01*
X119501366Y-83345801D01*
X119437571Y-83439168D01*
X119415127Y-83550000D01*
X116376184Y-83550000D01*
X114513092Y-81686908D01*
X114412594Y-81619758D01*
X114323564Y-81560270D01*
X114100000Y-81515800D01*
X113034873Y-81515800D01*
X113034873Y-80925000D01*
X117010127Y-80925000D01*
X117010127Y-82475000D01*
X117029609Y-82578539D01*
X117090801Y-82673634D01*
X117184168Y-82737429D01*
X117295000Y-82759873D01*
X117895000Y-82759873D01*
X117998539Y-82740391D01*
X118093634Y-82679199D01*
X118157429Y-82585832D01*
X118179873Y-82475000D01*
X118179873Y-80925000D01*
X118160391Y-80821461D01*
X118099199Y-80726366D01*
X118090343Y-80720315D01*
X118288367Y-80522290D01*
X118423240Y-80522408D01*
X118526106Y-80479904D01*
X118466069Y-80569757D01*
X118446249Y-80669398D01*
X118366366Y-80720801D01*
X118302571Y-80814168D01*
X118280127Y-80925000D01*
X118280127Y-82475000D01*
X118299609Y-82578539D01*
X118360801Y-82673634D01*
X118454168Y-82737429D01*
X118565000Y-82759873D01*
X119165000Y-82759873D01*
X119268539Y-82740391D01*
X119363634Y-82679199D01*
X119427429Y-82585832D01*
X119449873Y-82475000D01*
X119449873Y-80925000D01*
X119430391Y-80821461D01*
X119414262Y-80796396D01*
X119688367Y-80522290D01*
X119823240Y-80522408D01*
X120052044Y-80427868D01*
X120227253Y-80252965D01*
X120322192Y-80024326D01*
X120322408Y-79776760D01*
X120227868Y-79547956D01*
X120052965Y-79372747D01*
X119824326Y-79277808D01*
X119576760Y-79277592D01*
X119347956Y-79372132D01*
X119172747Y-79547035D01*
X119077808Y-79775674D01*
X119077689Y-79911653D01*
X118891783Y-80097560D01*
X118922192Y-80024326D01*
X118922408Y-79776760D01*
X118827868Y-79547956D01*
X118652965Y-79372747D01*
X118424326Y-79277808D01*
X118176760Y-79277592D01*
X117947956Y-79372132D01*
X117772747Y-79547035D01*
X117677808Y-79775674D01*
X117677689Y-79911653D01*
X117289671Y-80299671D01*
X117196069Y-80439757D01*
X117163200Y-80605000D01*
X117163200Y-80677794D01*
X117096366Y-80720801D01*
X117032571Y-80814168D01*
X117010127Y-80925000D01*
X113034873Y-80925000D01*
X113034873Y-80350000D01*
X113015391Y-80246461D01*
X112954199Y-80151366D01*
X112860832Y-80087571D01*
X112750000Y-80065127D01*
X109250000Y-80065127D01*
X109146461Y-80084609D01*
X109051366Y-80145801D01*
X108987571Y-80239168D01*
X108965127Y-80350000D01*
X107803600Y-80350000D01*
X107803600Y-78620000D01*
X129308474Y-78620000D01*
X129394444Y-79052203D01*
X129639268Y-79418606D01*
X130005671Y-79663430D01*
X130437874Y-79749400D01*
X130482126Y-79749400D01*
X130914329Y-79663430D01*
X131280732Y-79418606D01*
X131525556Y-79052203D01*
X131611526Y-78620000D01*
X131525556Y-78187797D01*
X131516465Y-78174192D01*
X132008857Y-77681800D01*
X132388184Y-77681800D01*
X132179268Y-77821394D01*
X131934444Y-78187797D01*
X131848474Y-78620000D01*
X131934444Y-79052203D01*
X132179268Y-79418606D01*
X132545671Y-79663430D01*
X132977874Y-79749400D01*
X133022126Y-79749400D01*
X133454329Y-79663430D01*
X133820732Y-79418606D01*
X134065556Y-79052203D01*
X134076302Y-78998178D01*
X134185329Y-78925329D01*
X134457220Y-78653438D01*
X136460220Y-78653438D01*
X136618429Y-79036335D01*
X136911124Y-79329541D01*
X137202670Y-79450602D01*
X136912665Y-79570429D01*
X136619459Y-79863124D01*
X136460581Y-80245744D01*
X136460220Y-80660038D01*
X136618429Y-81042935D01*
X136911124Y-81336141D01*
X137202670Y-81457202D01*
X136912665Y-81577029D01*
X136619459Y-81869724D01*
X136460581Y-82252344D01*
X136460220Y-82666638D01*
X136618429Y-83049535D01*
X136911124Y-83342741D01*
X137202670Y-83463802D01*
X136912665Y-83583629D01*
X136619459Y-83876324D01*
X136460581Y-84258944D01*
X136460220Y-84673238D01*
X136618429Y-85056135D01*
X136911124Y-85349341D01*
X137202670Y-85470402D01*
X136912665Y-85590229D01*
X136619459Y-85882924D01*
X136460581Y-86265544D01*
X136460220Y-86679838D01*
X136618429Y-87062735D01*
X136911124Y-87355941D01*
X137202670Y-87477002D01*
X136912665Y-87596829D01*
X136619459Y-87889524D01*
X136460581Y-88272144D01*
X136460220Y-88686438D01*
X136618429Y-89069335D01*
X136911124Y-89362541D01*
X137202670Y-89483602D01*
X136912665Y-89603429D01*
X136619459Y-89896124D01*
X136460581Y-90278744D01*
X136460220Y-90693038D01*
X136618429Y-91075935D01*
X136911124Y-91369141D01*
X137202670Y-91490202D01*
X136912665Y-91610029D01*
X136619459Y-91902724D01*
X136460581Y-92285344D01*
X136460220Y-92699638D01*
X136618429Y-93082535D01*
X136911124Y-93375741D01*
X137202670Y-93496802D01*
X136912665Y-93616629D01*
X136619459Y-93909324D01*
X136460581Y-94291944D01*
X136460220Y-94706238D01*
X136618429Y-95089135D01*
X136911124Y-95382341D01*
X137293744Y-95541219D01*
X137708038Y-95541580D01*
X138090935Y-95383371D01*
X138384141Y-95090676D01*
X138543019Y-94708056D01*
X138543380Y-94293762D01*
X138385171Y-93910865D01*
X138180901Y-93706238D01*
X153678420Y-93706238D01*
X153836629Y-94089135D01*
X154129324Y-94382341D01*
X154511944Y-94541219D01*
X154926238Y-94541580D01*
X155309135Y-94383371D01*
X155602341Y-94090676D01*
X155761219Y-93708056D01*
X155761220Y-93706238D01*
X156218420Y-93706238D01*
X156376629Y-94089135D01*
X156669324Y-94382341D01*
X157051944Y-94541219D01*
X157466238Y-94541580D01*
X157849135Y-94383371D01*
X158142341Y-94090676D01*
X158301219Y-93708056D01*
X158301580Y-93293762D01*
X158143371Y-92910865D01*
X157850676Y-92617659D01*
X157468056Y-92458781D01*
X157053762Y-92458420D01*
X156670865Y-92616629D01*
X156377659Y-92909324D01*
X156218781Y-93291944D01*
X156218420Y-93706238D01*
X155761220Y-93706238D01*
X155761580Y-93293762D01*
X155603371Y-92910865D01*
X155310676Y-92617659D01*
X154928056Y-92458781D01*
X154513762Y-92458420D01*
X154130865Y-92616629D01*
X153837659Y-92909324D01*
X153678781Y-93291944D01*
X153678420Y-93706238D01*
X138180901Y-93706238D01*
X138092476Y-93617659D01*
X137800930Y-93496598D01*
X138090935Y-93376771D01*
X138384141Y-93084076D01*
X138543019Y-92701456D01*
X138543380Y-92287162D01*
X138477687Y-92128171D01*
X140386326Y-90219531D01*
X140386329Y-90219529D01*
X140448872Y-90125926D01*
X140479932Y-90079442D01*
X140512801Y-89914200D01*
X140512800Y-89914195D01*
X140512800Y-76646838D01*
X158456620Y-76646838D01*
X158614829Y-77029735D01*
X158907524Y-77322941D01*
X159199070Y-77444002D01*
X158909065Y-77563829D01*
X158615859Y-77856524D01*
X158456981Y-78239144D01*
X158456620Y-78653438D01*
X158614829Y-79036335D01*
X158907524Y-79329541D01*
X159199070Y-79450602D01*
X158909065Y-79570429D01*
X158615859Y-79863124D01*
X158456981Y-80245744D01*
X158456620Y-80660038D01*
X158614829Y-81042935D01*
X158907524Y-81336141D01*
X159199070Y-81457202D01*
X158909065Y-81577029D01*
X158615859Y-81869724D01*
X158456981Y-82252344D01*
X158456620Y-82666638D01*
X158614829Y-83049535D01*
X158907524Y-83342741D01*
X159199070Y-83463802D01*
X158909065Y-83583629D01*
X158615859Y-83876324D01*
X158456981Y-84258944D01*
X158456620Y-84673238D01*
X158614829Y-85056135D01*
X158907524Y-85349341D01*
X159199070Y-85470402D01*
X158909065Y-85590229D01*
X158615859Y-85882924D01*
X158456981Y-86265544D01*
X158456620Y-86679838D01*
X158614829Y-87062735D01*
X158907524Y-87355941D01*
X159199070Y-87477002D01*
X158909065Y-87596829D01*
X158615859Y-87889524D01*
X158456981Y-88272144D01*
X158456620Y-88686438D01*
X158614829Y-89069335D01*
X158907524Y-89362541D01*
X159199070Y-89483602D01*
X158909065Y-89603429D01*
X158615859Y-89896124D01*
X158456981Y-90278744D01*
X158456620Y-90693038D01*
X158614829Y-91075935D01*
X158907524Y-91369141D01*
X159199070Y-91490202D01*
X158909065Y-91610029D01*
X158615859Y-91902724D01*
X158456981Y-92285344D01*
X158456620Y-92699638D01*
X158614829Y-93082535D01*
X158907524Y-93375741D01*
X159199070Y-93496802D01*
X158909065Y-93616629D01*
X158615859Y-93909324D01*
X158456981Y-94291944D01*
X158456620Y-94706238D01*
X158614829Y-95089135D01*
X158907524Y-95382341D01*
X159290144Y-95541219D01*
X159704438Y-95541580D01*
X160087335Y-95383371D01*
X160380541Y-95090676D01*
X160539419Y-94708056D01*
X160539780Y-94293762D01*
X160381571Y-93910865D01*
X160088876Y-93617659D01*
X159797330Y-93496598D01*
X160087335Y-93376771D01*
X160380541Y-93084076D01*
X160539419Y-92701456D01*
X160539780Y-92287162D01*
X160381571Y-91904265D01*
X160088876Y-91611059D01*
X159797330Y-91489998D01*
X160087335Y-91370171D01*
X160380541Y-91077476D01*
X160539419Y-90694856D01*
X160539780Y-90280562D01*
X160381571Y-89897665D01*
X160088876Y-89604459D01*
X159797330Y-89483398D01*
X160087335Y-89363571D01*
X160380541Y-89070876D01*
X160539419Y-88688256D01*
X160539780Y-88273962D01*
X160381571Y-87891065D01*
X160088876Y-87597859D01*
X159797330Y-87476798D01*
X160087335Y-87356971D01*
X160380541Y-87064276D01*
X160539419Y-86681656D01*
X160539780Y-86267362D01*
X160381571Y-85884465D01*
X160088876Y-85591259D01*
X159797330Y-85470198D01*
X160087335Y-85350371D01*
X160380541Y-85057676D01*
X160539419Y-84675056D01*
X160539780Y-84260762D01*
X160381571Y-83877865D01*
X160088876Y-83584659D01*
X159797330Y-83463598D01*
X160087335Y-83343771D01*
X160380541Y-83051076D01*
X160539419Y-82668456D01*
X160539780Y-82254162D01*
X160381571Y-81871265D01*
X160088876Y-81578059D01*
X159797330Y-81456998D01*
X160087335Y-81337171D01*
X160380541Y-81044476D01*
X160539419Y-80661856D01*
X160539780Y-80247562D01*
X160381571Y-79864665D01*
X160088876Y-79571459D01*
X159797330Y-79450398D01*
X160087335Y-79330571D01*
X160380541Y-79037876D01*
X160539419Y-78655256D01*
X160539780Y-78240962D01*
X160381571Y-77858065D01*
X160088876Y-77564859D01*
X159797330Y-77443798D01*
X160087335Y-77323971D01*
X160380541Y-77031276D01*
X160539419Y-76648656D01*
X160539780Y-76234362D01*
X160381571Y-75851465D01*
X160088876Y-75558259D01*
X159706256Y-75399381D01*
X159291962Y-75399020D01*
X158909065Y-75557229D01*
X158615859Y-75849924D01*
X158456981Y-76232544D01*
X158456620Y-76646838D01*
X140512800Y-76646838D01*
X140512800Y-72631000D01*
X140479931Y-72465757D01*
X140386329Y-72325671D01*
X140386326Y-72325669D01*
X139084873Y-71024215D01*
X139084873Y-70350000D01*
X139065391Y-70246461D01*
X139004199Y-70151366D01*
X138910832Y-70087571D01*
X138800000Y-70065127D01*
X138100000Y-70065127D01*
X137996461Y-70084609D01*
X137901366Y-70145801D01*
X137837571Y-70239168D01*
X137815127Y-70350000D01*
X137815127Y-71650000D01*
X137834609Y-71753539D01*
X137895801Y-71848634D01*
X137989168Y-71912429D01*
X138100000Y-71934873D01*
X138774215Y-71934873D01*
X138961606Y-72122263D01*
X138910832Y-72087571D01*
X138800000Y-72065127D01*
X138100000Y-72065127D01*
X137996461Y-72084609D01*
X137901366Y-72145801D01*
X137837571Y-72239168D01*
X137815127Y-72350000D01*
X137815127Y-73650000D01*
X137834609Y-73753539D01*
X137895801Y-73848634D01*
X137989168Y-73912429D01*
X138100000Y-73934873D01*
X138774215Y-73934873D01*
X139014200Y-74174858D01*
X139014200Y-88721142D01*
X138111663Y-89623679D01*
X138092476Y-89604459D01*
X137800930Y-89483398D01*
X138090935Y-89363571D01*
X138384141Y-89070876D01*
X138543019Y-88688256D01*
X138543380Y-88273962D01*
X138385171Y-87891065D01*
X138092476Y-87597859D01*
X137800930Y-87476798D01*
X138090935Y-87356971D01*
X138384141Y-87064276D01*
X138543019Y-86681656D01*
X138543380Y-86267362D01*
X138385171Y-85884465D01*
X138092476Y-85591259D01*
X137800930Y-85470198D01*
X138090935Y-85350371D01*
X138384141Y-85057676D01*
X138543019Y-84675056D01*
X138543380Y-84260762D01*
X138385171Y-83877865D01*
X138092476Y-83584659D01*
X137800930Y-83463598D01*
X138090935Y-83343771D01*
X138384141Y-83051076D01*
X138543019Y-82668456D01*
X138543380Y-82254162D01*
X138385171Y-81871265D01*
X138092476Y-81578059D01*
X137800930Y-81456998D01*
X138090935Y-81337171D01*
X138384141Y-81044476D01*
X138543019Y-80661856D01*
X138543380Y-80247562D01*
X138385171Y-79864665D01*
X138092476Y-79571459D01*
X137800930Y-79450398D01*
X138090935Y-79330571D01*
X138384141Y-79037876D01*
X138543019Y-78655256D01*
X138543380Y-78240962D01*
X138385171Y-77858065D01*
X138092476Y-77564859D01*
X137731474Y-77414958D01*
X137783982Y-77410388D01*
X137988011Y-77325876D01*
X138079758Y-77198163D01*
X137501800Y-76620205D01*
X136923842Y-77198163D01*
X137015589Y-77325876D01*
X137283664Y-77410536D01*
X136912665Y-77563829D01*
X136619459Y-77856524D01*
X136460581Y-78239144D01*
X136460220Y-78653438D01*
X134457220Y-78653438D01*
X135805329Y-77305329D01*
X135869426Y-77209400D01*
X135898931Y-77165243D01*
X135931800Y-77000000D01*
X135931800Y-76330180D01*
X136497846Y-76330180D01*
X136532012Y-76722782D01*
X136616524Y-76926811D01*
X136744237Y-77018558D01*
X137322195Y-76440600D01*
X137681405Y-76440600D01*
X138259363Y-77018558D01*
X138387076Y-76926811D01*
X138505754Y-76551020D01*
X138471588Y-76158418D01*
X138387076Y-75954389D01*
X138259363Y-75862642D01*
X137681405Y-76440600D01*
X137322195Y-76440600D01*
X136744237Y-75862642D01*
X136616524Y-75954389D01*
X136497846Y-76330180D01*
X135931800Y-76330180D01*
X135931800Y-75683037D01*
X136923842Y-75683037D01*
X137501800Y-76260995D01*
X138079758Y-75683037D01*
X137988011Y-75555324D01*
X137612220Y-75436646D01*
X137219618Y-75470812D01*
X137015589Y-75555324D01*
X136923842Y-75683037D01*
X135931800Y-75683037D01*
X135931800Y-74228858D01*
X136225785Y-73934873D01*
X136900000Y-73934873D01*
X137003539Y-73915391D01*
X137098634Y-73854199D01*
X137162429Y-73760832D01*
X137184873Y-73650000D01*
X137184873Y-72350000D01*
X137165391Y-72246461D01*
X137104199Y-72151366D01*
X137010832Y-72087571D01*
X136900000Y-72065127D01*
X136545531Y-72065127D01*
X136675785Y-71934873D01*
X136900000Y-71934873D01*
X137003539Y-71915391D01*
X137098634Y-71854199D01*
X137162429Y-71760832D01*
X137184873Y-71650000D01*
X137184873Y-70350000D01*
X137165391Y-70246461D01*
X137104199Y-70151366D01*
X137010832Y-70087571D01*
X136900000Y-70065127D01*
X136200000Y-70065127D01*
X136096461Y-70084609D01*
X136001366Y-70145801D01*
X135937571Y-70239168D01*
X135915127Y-70350000D01*
X135915127Y-71474215D01*
X134931800Y-72457542D01*
X134931800Y-69846240D01*
X142760592Y-69846240D01*
X142855132Y-70075044D01*
X143030035Y-70250253D01*
X143258674Y-70345192D01*
X143506240Y-70345408D01*
X143660183Y-70281800D01*
X143892127Y-70281800D01*
X143892127Y-70650000D01*
X143911609Y-70753539D01*
X143972801Y-70848634D01*
X144066168Y-70912429D01*
X144177000Y-70934873D01*
X145177000Y-70934873D01*
X145280539Y-70915391D01*
X145375634Y-70854199D01*
X145439429Y-70760832D01*
X145461873Y-70650000D01*
X145461873Y-69050000D01*
X146892127Y-69050000D01*
X146892127Y-70650000D01*
X146911609Y-70753539D01*
X146972801Y-70848634D01*
X147066168Y-70912429D01*
X147177000Y-70934873D01*
X148177000Y-70934873D01*
X148280539Y-70915391D01*
X148375634Y-70854199D01*
X148439429Y-70760832D01*
X148461873Y-70650000D01*
X148461873Y-69050000D01*
X148845127Y-69050000D01*
X148845127Y-70650000D01*
X148864609Y-70753539D01*
X148925801Y-70848634D01*
X149019168Y-70912429D01*
X149130000Y-70934873D01*
X150130000Y-70934873D01*
X150233539Y-70915391D01*
X150328634Y-70854199D01*
X150392429Y-70760832D01*
X150414873Y-70650000D01*
X150414873Y-69695785D01*
X151060658Y-69050000D01*
X151845127Y-69050000D01*
X151845127Y-70650000D01*
X151864609Y-70753539D01*
X151925801Y-70848634D01*
X152019168Y-70912429D01*
X152130000Y-70934873D01*
X153130000Y-70934873D01*
X153233539Y-70915391D01*
X153300665Y-70872196D01*
X155370274Y-70872196D01*
X155655793Y-71563204D01*
X156184015Y-72092349D01*
X156874524Y-72379073D01*
X157622196Y-72379726D01*
X158313204Y-72094207D01*
X158842349Y-71565985D01*
X159129073Y-70875476D01*
X159129726Y-70127804D01*
X158844207Y-69436796D01*
X158315985Y-68907651D01*
X157625476Y-68620927D01*
X156877804Y-68620274D01*
X156186796Y-68905793D01*
X155657651Y-69434015D01*
X155370927Y-70124524D01*
X155370274Y-70872196D01*
X153300665Y-70872196D01*
X153328634Y-70854199D01*
X153392429Y-70760832D01*
X153414873Y-70650000D01*
X153414873Y-70043765D01*
X153433931Y-70015243D01*
X153438529Y-69992129D01*
X156894722Y-66535935D01*
X157051944Y-66601219D01*
X157466238Y-66601580D01*
X157849135Y-66443371D01*
X158142341Y-66150676D01*
X158301219Y-65768056D01*
X158301580Y-65353762D01*
X158143371Y-64970865D01*
X157850676Y-64677659D01*
X157468056Y-64518781D01*
X157053762Y-64518420D01*
X156670865Y-64676629D01*
X156377659Y-64969324D01*
X156218781Y-65351944D01*
X156218420Y-65766238D01*
X156284114Y-65925229D01*
X153343509Y-68865834D01*
X153334199Y-68851366D01*
X153240832Y-68787571D01*
X153130000Y-68765127D01*
X152130000Y-68765127D01*
X152026461Y-68784609D01*
X151931366Y-68845801D01*
X151867571Y-68939168D01*
X151845127Y-69050000D01*
X151060658Y-69050000D01*
X152178858Y-67931800D01*
X152780000Y-67931800D01*
X152945243Y-67898931D01*
X153085329Y-67805329D01*
X154354723Y-66535935D01*
X154511944Y-66601219D01*
X154926238Y-66601580D01*
X155309135Y-66443371D01*
X155602341Y-66150676D01*
X155761219Y-65768056D01*
X155761580Y-65353762D01*
X155603371Y-64970865D01*
X155310676Y-64677659D01*
X154928056Y-64518781D01*
X154513762Y-64518420D01*
X154130865Y-64676629D01*
X153837659Y-64969324D01*
X153678781Y-65351944D01*
X153678420Y-65766238D01*
X153744113Y-65925229D01*
X152601142Y-67068200D01*
X152000005Y-67068200D01*
X152000000Y-67068199D01*
X151862173Y-67095615D01*
X151834757Y-67101069D01*
X151705788Y-67187243D01*
X151694671Y-67194671D01*
X150124215Y-68765127D01*
X149130000Y-68765127D01*
X149026461Y-68784609D01*
X148931366Y-68845801D01*
X148867571Y-68939168D01*
X148845127Y-69050000D01*
X148461873Y-69050000D01*
X148442391Y-68946461D01*
X148396897Y-68875761D01*
X149945329Y-67327329D01*
X150038931Y-67187243D01*
X150071800Y-67022000D01*
X150071800Y-66508380D01*
X150229135Y-66443371D01*
X150355162Y-66317563D01*
X151602042Y-66317563D01*
X151693789Y-66445276D01*
X152069580Y-66563954D01*
X152462182Y-66529788D01*
X152666211Y-66445276D01*
X152757958Y-66317563D01*
X152180000Y-65739605D01*
X151602042Y-66317563D01*
X150355162Y-66317563D01*
X150522341Y-66150676D01*
X150681219Y-65768056D01*
X150681496Y-65449580D01*
X151176046Y-65449580D01*
X151210212Y-65842182D01*
X151294724Y-66046211D01*
X151422437Y-66137958D01*
X152000395Y-65560000D01*
X152359605Y-65560000D01*
X152937563Y-66137958D01*
X153065276Y-66046211D01*
X153183954Y-65670420D01*
X153149788Y-65277818D01*
X153065276Y-65073789D01*
X152937563Y-64982042D01*
X152359605Y-65560000D01*
X152000395Y-65560000D01*
X151422437Y-64982042D01*
X151294724Y-65073789D01*
X151176046Y-65449580D01*
X150681496Y-65449580D01*
X150681580Y-65353762D01*
X150523371Y-64970865D01*
X150355237Y-64802437D01*
X151602042Y-64802437D01*
X152180000Y-65380395D01*
X152757958Y-64802437D01*
X152666211Y-64674724D01*
X152290420Y-64556046D01*
X151897818Y-64590212D01*
X151693789Y-64674724D01*
X151602042Y-64802437D01*
X150355237Y-64802437D01*
X150230676Y-64677659D01*
X149848056Y-64518781D01*
X149433762Y-64518420D01*
X149050865Y-64676629D01*
X148757659Y-64969324D01*
X148598781Y-65351944D01*
X148598420Y-65766238D01*
X148756629Y-66149135D01*
X149049324Y-66442341D01*
X149208200Y-66508312D01*
X149208200Y-66843142D01*
X147371671Y-68679671D01*
X147314571Y-68765127D01*
X147177000Y-68765127D01*
X147073461Y-68784609D01*
X146978366Y-68845801D01*
X146914571Y-68939168D01*
X146892127Y-69050000D01*
X145461873Y-69050000D01*
X145442391Y-68946461D01*
X145381199Y-68851366D01*
X145287832Y-68787571D01*
X145177000Y-68765127D01*
X144177000Y-68765127D01*
X144073461Y-68784609D01*
X143978366Y-68845801D01*
X143914571Y-68939168D01*
X143892127Y-69050000D01*
X143892127Y-69352182D01*
X143735965Y-69195747D01*
X143507326Y-69100808D01*
X143259760Y-69100592D01*
X143030956Y-69195132D01*
X142855747Y-69370035D01*
X142760808Y-69598674D01*
X142760592Y-69846240D01*
X134931800Y-69846240D01*
X134931800Y-68688858D01*
X137019189Y-66601469D01*
X137146238Y-66601580D01*
X137529135Y-66443371D01*
X137822341Y-66150676D01*
X137981219Y-65768056D01*
X137981220Y-65766238D01*
X138438420Y-65766238D01*
X138596629Y-66149135D01*
X138889324Y-66442341D01*
X139271944Y-66601219D01*
X139686238Y-66601580D01*
X140069135Y-66443371D01*
X140195162Y-66317563D01*
X141442042Y-66317563D01*
X141533789Y-66445276D01*
X141909580Y-66563954D01*
X142302182Y-66529788D01*
X142506211Y-66445276D01*
X142597958Y-66317563D01*
X142020000Y-65739605D01*
X141442042Y-66317563D01*
X140195162Y-66317563D01*
X140362341Y-66150676D01*
X140521219Y-65768056D01*
X140521496Y-65449580D01*
X141016046Y-65449580D01*
X141050212Y-65842182D01*
X141134724Y-66046211D01*
X141262437Y-66137958D01*
X141840395Y-65560000D01*
X142199605Y-65560000D01*
X142777563Y-66137958D01*
X142905276Y-66046211D01*
X142993693Y-65766238D01*
X143518420Y-65766238D01*
X143676629Y-66149135D01*
X143969324Y-66442341D01*
X144351944Y-66601219D01*
X144766238Y-66601580D01*
X145149135Y-66443371D01*
X145442341Y-66150676D01*
X145601219Y-65768056D01*
X145601220Y-65766238D01*
X146058420Y-65766238D01*
X146216629Y-66149135D01*
X146509324Y-66442341D01*
X146891944Y-66601219D01*
X147306238Y-66601580D01*
X147689135Y-66443371D01*
X147982341Y-66150676D01*
X148141219Y-65768056D01*
X148141580Y-65353762D01*
X147983371Y-64970865D01*
X147690676Y-64677659D01*
X147308056Y-64518781D01*
X146893762Y-64518420D01*
X146510865Y-64676629D01*
X146217659Y-64969324D01*
X146058781Y-65351944D01*
X146058420Y-65766238D01*
X145601220Y-65766238D01*
X145601580Y-65353762D01*
X145443371Y-64970865D01*
X145150676Y-64677659D01*
X144768056Y-64518781D01*
X144353762Y-64518420D01*
X143970865Y-64676629D01*
X143677659Y-64969324D01*
X143518781Y-65351944D01*
X143518420Y-65766238D01*
X142993693Y-65766238D01*
X143023954Y-65670420D01*
X142989788Y-65277818D01*
X142905276Y-65073789D01*
X142777563Y-64982042D01*
X142199605Y-65560000D01*
X141840395Y-65560000D01*
X141262437Y-64982042D01*
X141134724Y-65073789D01*
X141016046Y-65449580D01*
X140521496Y-65449580D01*
X140521580Y-65353762D01*
X140363371Y-64970865D01*
X140195237Y-64802437D01*
X141442042Y-64802437D01*
X142020000Y-65380395D01*
X142597958Y-64802437D01*
X142506211Y-64674724D01*
X142130420Y-64556046D01*
X141737818Y-64590212D01*
X141533789Y-64674724D01*
X141442042Y-64802437D01*
X140195237Y-64802437D01*
X140070676Y-64677659D01*
X139688056Y-64518781D01*
X139273762Y-64518420D01*
X138890865Y-64676629D01*
X138597659Y-64969324D01*
X138438781Y-65351944D01*
X138438420Y-65766238D01*
X137981220Y-65766238D01*
X137981580Y-65353762D01*
X137823371Y-64970865D01*
X137530676Y-64677659D01*
X137148056Y-64518781D01*
X136733762Y-64518420D01*
X136350865Y-64676629D01*
X136057659Y-64969324D01*
X135898781Y-65351944D01*
X135898420Y-65766238D01*
X136056629Y-66149135D01*
X136153334Y-66246008D01*
X134194671Y-68204671D01*
X134101069Y-68344757D01*
X134068200Y-68510000D01*
X134068200Y-69973124D01*
X134054199Y-69951366D01*
X133960832Y-69887571D01*
X133850000Y-69865127D01*
X132150000Y-69865127D01*
X132046461Y-69884609D01*
X131951366Y-69945801D01*
X131887571Y-70039168D01*
X131865127Y-70150000D01*
X131865127Y-71850000D01*
X131884609Y-71953539D01*
X131945801Y-72048634D01*
X132039168Y-72112429D01*
X132150000Y-72134873D01*
X133850000Y-72134873D01*
X133953539Y-72115391D01*
X134048634Y-72054199D01*
X134068200Y-72025563D01*
X134068200Y-73121089D01*
X134065556Y-73107797D01*
X133820732Y-72741394D01*
X133454329Y-72496570D01*
X133022126Y-72410600D01*
X132977874Y-72410600D01*
X132545671Y-72496570D01*
X132179268Y-72741394D01*
X131934444Y-73107797D01*
X131848474Y-73540000D01*
X131934444Y-73972203D01*
X132179268Y-74338606D01*
X132545671Y-74583430D01*
X132977874Y-74669400D01*
X133022126Y-74669400D01*
X133454329Y-74583430D01*
X133820732Y-74338606D01*
X134065556Y-73972203D01*
X134068200Y-73958911D01*
X134068200Y-74821143D01*
X133693178Y-75196165D01*
X133454329Y-75036570D01*
X133022126Y-74950600D01*
X132977874Y-74950600D01*
X132545671Y-75036570D01*
X132179268Y-75281394D01*
X131934444Y-75647797D01*
X131848474Y-76080000D01*
X131934444Y-76512203D01*
X132138906Y-76818200D01*
X131830005Y-76818200D01*
X131830000Y-76818199D01*
X131664758Y-76851068D01*
X131664756Y-76851069D01*
X131664757Y-76851069D01*
X131524671Y-76944671D01*
X131524669Y-76944674D01*
X130896349Y-77572994D01*
X130482126Y-77490600D01*
X130437874Y-77490600D01*
X130005671Y-77576570D01*
X129639268Y-77821394D01*
X129394444Y-78187797D01*
X129308474Y-78620000D01*
X107803600Y-78620000D01*
X107803600Y-72122196D01*
X110120274Y-72122196D01*
X110405793Y-72813204D01*
X110934015Y-73342349D01*
X111624524Y-73629073D01*
X112372196Y-73629726D01*
X112746661Y-73475000D01*
X115215127Y-73475000D01*
X115215127Y-74725000D01*
X115234609Y-74828539D01*
X115295801Y-74923634D01*
X115389168Y-74987429D01*
X115500000Y-75009873D01*
X115568200Y-75009873D01*
X115568200Y-75551749D01*
X115472747Y-75647035D01*
X115377808Y-75875674D01*
X115377592Y-76123240D01*
X115472132Y-76352044D01*
X115647035Y-76527253D01*
X115875674Y-76622192D01*
X116020097Y-76622318D01*
X116134757Y-76698931D01*
X116300000Y-76731800D01*
X117010127Y-76731800D01*
X117010127Y-77075000D01*
X117029609Y-77178539D01*
X117090801Y-77273634D01*
X117184168Y-77337429D01*
X117295000Y-77359873D01*
X117895000Y-77359873D01*
X117998539Y-77340391D01*
X118093634Y-77279199D01*
X118157429Y-77185832D01*
X118179873Y-77075000D01*
X118179873Y-75525000D01*
X118280127Y-75525000D01*
X118280127Y-77075000D01*
X118299609Y-77178539D01*
X118360801Y-77273634D01*
X118454168Y-77337429D01*
X118565000Y-77359873D01*
X119165000Y-77359873D01*
X119268539Y-77340391D01*
X119363634Y-77279199D01*
X119427429Y-77185832D01*
X119449873Y-77075000D01*
X119449873Y-75910785D01*
X119550127Y-75810531D01*
X119550127Y-77075000D01*
X119569609Y-77178539D01*
X119630801Y-77273634D01*
X119724168Y-77337429D01*
X119835000Y-77359873D01*
X120435000Y-77359873D01*
X120538539Y-77340391D01*
X120633634Y-77279199D01*
X120697429Y-77185832D01*
X120719873Y-77075000D01*
X120719873Y-75525000D01*
X120820127Y-75525000D01*
X120820127Y-77075000D01*
X120839609Y-77178539D01*
X120900801Y-77273634D01*
X120994168Y-77337429D01*
X121105000Y-77359873D01*
X121705000Y-77359873D01*
X121808539Y-77340391D01*
X121903634Y-77279199D01*
X121967429Y-77185832D01*
X121989873Y-77075000D01*
X121989873Y-76731800D01*
X122671142Y-76731800D01*
X122915127Y-76975784D01*
X122915127Y-77650000D01*
X122934609Y-77753539D01*
X122995801Y-77848634D01*
X123089168Y-77912429D01*
X123200000Y-77934873D01*
X123900000Y-77934873D01*
X124003539Y-77915391D01*
X124098634Y-77854199D01*
X124162429Y-77760832D01*
X124184873Y-77650000D01*
X124184873Y-77184150D01*
X124871400Y-77184150D01*
X124871400Y-77695472D01*
X124906203Y-77779492D01*
X124970509Y-77843798D01*
X125054529Y-77878600D01*
X125265850Y-77878600D01*
X125323000Y-77821450D01*
X125323000Y-77127000D01*
X125577000Y-77127000D01*
X125577000Y-77821450D01*
X125634150Y-77878600D01*
X125845471Y-77878600D01*
X125929491Y-77843798D01*
X125993797Y-77779492D01*
X126028600Y-77695472D01*
X126028600Y-77184150D01*
X125971450Y-77127000D01*
X125577000Y-77127000D01*
X125323000Y-77127000D01*
X124928550Y-77127000D01*
X124871400Y-77184150D01*
X124184873Y-77184150D01*
X124184873Y-76350000D01*
X124176317Y-76304528D01*
X124871400Y-76304528D01*
X124871400Y-76815850D01*
X124928550Y-76873000D01*
X125323000Y-76873000D01*
X125323000Y-76178550D01*
X125577000Y-76178550D01*
X125577000Y-76873000D01*
X125971450Y-76873000D01*
X126028600Y-76815850D01*
X126028600Y-76304528D01*
X125993797Y-76220508D01*
X125929491Y-76156202D01*
X125845471Y-76121400D01*
X125634150Y-76121400D01*
X125577000Y-76178550D01*
X125323000Y-76178550D01*
X125265850Y-76121400D01*
X125054529Y-76121400D01*
X124970509Y-76156202D01*
X124906203Y-76220508D01*
X124871400Y-76304528D01*
X124176317Y-76304528D01*
X124165391Y-76246461D01*
X124104199Y-76151366D01*
X124010832Y-76087571D01*
X123973446Y-76080000D01*
X129308474Y-76080000D01*
X129394444Y-76512203D01*
X129639268Y-76878606D01*
X130005671Y-77123430D01*
X130437874Y-77209400D01*
X130482126Y-77209400D01*
X130914329Y-77123430D01*
X131280732Y-76878606D01*
X131525556Y-76512203D01*
X131611526Y-76080000D01*
X131525556Y-75647797D01*
X131280732Y-75281394D01*
X130914329Y-75036570D01*
X130482126Y-74950600D01*
X130437874Y-74950600D01*
X130005671Y-75036570D01*
X129639268Y-75281394D01*
X129394444Y-75647797D01*
X129308474Y-76080000D01*
X123973446Y-76080000D01*
X123900000Y-76065127D01*
X123225785Y-76065127D01*
X123155329Y-75994671D01*
X123095042Y-75954389D01*
X123015243Y-75901069D01*
X122850000Y-75868200D01*
X121989873Y-75868200D01*
X121989873Y-75525000D01*
X121970391Y-75421461D01*
X121909199Y-75326366D01*
X121815832Y-75262571D01*
X121705000Y-75240127D01*
X121105000Y-75240127D01*
X121001461Y-75259609D01*
X120906366Y-75320801D01*
X120842571Y-75414168D01*
X120820127Y-75525000D01*
X120719873Y-75525000D01*
X120700391Y-75421461D01*
X120696008Y-75414650D01*
X121178858Y-74931800D01*
X122915127Y-74931800D01*
X122915127Y-75150000D01*
X122934609Y-75253539D01*
X122995801Y-75348634D01*
X123089168Y-75412429D01*
X123200000Y-75434873D01*
X123900000Y-75434873D01*
X124003539Y-75415391D01*
X124098634Y-75354199D01*
X124162429Y-75260832D01*
X124184873Y-75150000D01*
X124184873Y-74684150D01*
X124871400Y-74684150D01*
X124871400Y-75195472D01*
X124906203Y-75279492D01*
X124970509Y-75343798D01*
X125054529Y-75378600D01*
X125265850Y-75378600D01*
X125323000Y-75321450D01*
X125323000Y-74627000D01*
X125577000Y-74627000D01*
X125577000Y-75321450D01*
X125634150Y-75378600D01*
X125845471Y-75378600D01*
X125929491Y-75343798D01*
X125993797Y-75279492D01*
X126028600Y-75195472D01*
X126028600Y-74684150D01*
X125971450Y-74627000D01*
X125577000Y-74627000D01*
X125323000Y-74627000D01*
X124928550Y-74627000D01*
X124871400Y-74684150D01*
X124184873Y-74684150D01*
X124184873Y-73850000D01*
X124176317Y-73804528D01*
X124871400Y-73804528D01*
X124871400Y-74315850D01*
X124928550Y-74373000D01*
X125323000Y-74373000D01*
X125323000Y-73678550D01*
X125577000Y-73678550D01*
X125577000Y-74373000D01*
X125971450Y-74373000D01*
X126028600Y-74315850D01*
X126028600Y-73804528D01*
X125993797Y-73720508D01*
X125929491Y-73656202D01*
X125845471Y-73621400D01*
X125634150Y-73621400D01*
X125577000Y-73678550D01*
X125323000Y-73678550D01*
X125265850Y-73621400D01*
X125054529Y-73621400D01*
X124970509Y-73656202D01*
X124906203Y-73720508D01*
X124871400Y-73804528D01*
X124176317Y-73804528D01*
X124165391Y-73746461D01*
X124104199Y-73651366D01*
X124010832Y-73587571D01*
X123900000Y-73565127D01*
X123200000Y-73565127D01*
X123096461Y-73584609D01*
X123001366Y-73645801D01*
X122937571Y-73739168D01*
X122915127Y-73850000D01*
X122915127Y-74068200D01*
X121292457Y-74068200D01*
X121820657Y-73540000D01*
X129308474Y-73540000D01*
X129394444Y-73972203D01*
X129639268Y-74338606D01*
X130005671Y-74583430D01*
X130437874Y-74669400D01*
X130482126Y-74669400D01*
X130914329Y-74583430D01*
X131280732Y-74338606D01*
X131525556Y-73972203D01*
X131611526Y-73540000D01*
X131525556Y-73107797D01*
X131280732Y-72741394D01*
X130914329Y-72496570D01*
X130482126Y-72410600D01*
X130437874Y-72410600D01*
X130005671Y-72496570D01*
X129639268Y-72741394D01*
X129394444Y-73107797D01*
X129308474Y-73540000D01*
X121820657Y-73540000D01*
X122915127Y-72445530D01*
X122915127Y-72650000D01*
X122934609Y-72753539D01*
X122995801Y-72848634D01*
X123089168Y-72912429D01*
X123200000Y-72934873D01*
X123900000Y-72934873D01*
X124003539Y-72915391D01*
X124098634Y-72854199D01*
X124162429Y-72760832D01*
X124184873Y-72650000D01*
X124184873Y-72184150D01*
X124871400Y-72184150D01*
X124871400Y-72695472D01*
X124906203Y-72779492D01*
X124970509Y-72843798D01*
X125054529Y-72878600D01*
X125265850Y-72878600D01*
X125323000Y-72821450D01*
X125323000Y-72127000D01*
X125577000Y-72127000D01*
X125577000Y-72821450D01*
X125634150Y-72878600D01*
X125845471Y-72878600D01*
X125929491Y-72843798D01*
X125993797Y-72779492D01*
X126028600Y-72695472D01*
X126028600Y-72184150D01*
X125971450Y-72127000D01*
X125577000Y-72127000D01*
X125323000Y-72127000D01*
X124928550Y-72127000D01*
X124871400Y-72184150D01*
X124184873Y-72184150D01*
X124184873Y-71350000D01*
X124176317Y-71304528D01*
X124871400Y-71304528D01*
X124871400Y-71815850D01*
X124928550Y-71873000D01*
X125323000Y-71873000D01*
X125323000Y-71178550D01*
X125577000Y-71178550D01*
X125577000Y-71873000D01*
X125971450Y-71873000D01*
X126028600Y-71815850D01*
X126028600Y-71304528D01*
X125993797Y-71220508D01*
X125929491Y-71156202D01*
X125845471Y-71121400D01*
X125634150Y-71121400D01*
X125577000Y-71178550D01*
X125323000Y-71178550D01*
X125265850Y-71121400D01*
X125054529Y-71121400D01*
X124970509Y-71156202D01*
X124906203Y-71220508D01*
X124871400Y-71304528D01*
X124176317Y-71304528D01*
X124165391Y-71246461D01*
X124104199Y-71151366D01*
X124010832Y-71087571D01*
X123900000Y-71065127D01*
X123200000Y-71065127D01*
X123096461Y-71084609D01*
X123001366Y-71145801D01*
X122937571Y-71239168D01*
X122915127Y-71350000D01*
X122915127Y-71568200D01*
X122750005Y-71568200D01*
X122750000Y-71568199D01*
X122612173Y-71595615D01*
X122584757Y-71601069D01*
X122444671Y-71694671D01*
X122444669Y-71694674D01*
X118899215Y-75240127D01*
X118565000Y-75240127D01*
X118461461Y-75259609D01*
X118366366Y-75320801D01*
X118302571Y-75414168D01*
X118280127Y-75525000D01*
X118179873Y-75525000D01*
X118160391Y-75421461D01*
X118099199Y-75326366D01*
X118005832Y-75262571D01*
X117895000Y-75240127D01*
X117295000Y-75240127D01*
X117191461Y-75259609D01*
X117096366Y-75320801D01*
X117032571Y-75414168D01*
X117010127Y-75525000D01*
X117010127Y-75868200D01*
X116618871Y-75868200D01*
X116527868Y-75647956D01*
X116431800Y-75551720D01*
X116431800Y-75009873D01*
X116500000Y-75009873D01*
X116603539Y-74990391D01*
X116698634Y-74929199D01*
X116762429Y-74835832D01*
X116784873Y-74725000D01*
X116784873Y-74284150D01*
X117271400Y-74284150D01*
X117271400Y-74770472D01*
X117306203Y-74854492D01*
X117370509Y-74918798D01*
X117454529Y-74953600D01*
X117815850Y-74953600D01*
X117873000Y-74896450D01*
X117873000Y-74227000D01*
X118127000Y-74227000D01*
X118127000Y-74896450D01*
X118184150Y-74953600D01*
X118545471Y-74953600D01*
X118629491Y-74918798D01*
X118693797Y-74854492D01*
X118728600Y-74770472D01*
X118728600Y-74284150D01*
X118671450Y-74227000D01*
X118127000Y-74227000D01*
X117873000Y-74227000D01*
X117328550Y-74227000D01*
X117271400Y-74284150D01*
X116784873Y-74284150D01*
X116784873Y-73475000D01*
X116776317Y-73429528D01*
X117271400Y-73429528D01*
X117271400Y-73915850D01*
X117328550Y-73973000D01*
X117873000Y-73973000D01*
X117873000Y-73303550D01*
X118127000Y-73303550D01*
X118127000Y-73973000D01*
X118671450Y-73973000D01*
X118728600Y-73915850D01*
X118728600Y-73429528D01*
X118693797Y-73345508D01*
X118629491Y-73281202D01*
X118545471Y-73246400D01*
X118184150Y-73246400D01*
X118127000Y-73303550D01*
X117873000Y-73303550D01*
X117815850Y-73246400D01*
X117454529Y-73246400D01*
X117370509Y-73281202D01*
X117306203Y-73345508D01*
X117271400Y-73429528D01*
X116776317Y-73429528D01*
X116765391Y-73371461D01*
X116704199Y-73276366D01*
X116610832Y-73212571D01*
X116500000Y-73190127D01*
X115500000Y-73190127D01*
X115396461Y-73209609D01*
X115301366Y-73270801D01*
X115237571Y-73364168D01*
X115215127Y-73475000D01*
X112746661Y-73475000D01*
X113063204Y-73344207D01*
X113592349Y-72815985D01*
X113879073Y-72125476D01*
X113879726Y-71377804D01*
X113594207Y-70686796D01*
X113065985Y-70157651D01*
X112375476Y-69870927D01*
X111627804Y-69870274D01*
X110936796Y-70155793D01*
X110407651Y-70684015D01*
X110120927Y-71374524D01*
X110120274Y-72122196D01*
X107803600Y-72122196D01*
X107803600Y-65766238D01*
X107958420Y-65766238D01*
X108116629Y-66149135D01*
X108409324Y-66442341D01*
X108791944Y-66601219D01*
X109206238Y-66601580D01*
X109589135Y-66443371D01*
X109882341Y-66150676D01*
X110041219Y-65768056D01*
X110041220Y-65766238D01*
X110498420Y-65766238D01*
X110656629Y-66149135D01*
X110949324Y-66442341D01*
X111331944Y-66601219D01*
X111746238Y-66601580D01*
X112129135Y-66443371D01*
X112422341Y-66150676D01*
X112581219Y-65768056D01*
X112581220Y-65766238D01*
X113038420Y-65766238D01*
X113196629Y-66149135D01*
X113489324Y-66442341D01*
X113871944Y-66601219D01*
X114286238Y-66601580D01*
X114669135Y-66443371D01*
X114795162Y-66317563D01*
X116042042Y-66317563D01*
X116133789Y-66445276D01*
X116509580Y-66563954D01*
X116902182Y-66529788D01*
X117106211Y-66445276D01*
X117197958Y-66317563D01*
X116620000Y-65739605D01*
X116042042Y-66317563D01*
X114795162Y-66317563D01*
X114962341Y-66150676D01*
X115121219Y-65768056D01*
X115121496Y-65449580D01*
X115616046Y-65449580D01*
X115650212Y-65842182D01*
X115734724Y-66046211D01*
X115862437Y-66137958D01*
X116440395Y-65560000D01*
X116799605Y-65560000D01*
X117377563Y-66137958D01*
X117505276Y-66046211D01*
X117593693Y-65766238D01*
X118118420Y-65766238D01*
X118276629Y-66149135D01*
X118569324Y-66442341D01*
X118951944Y-66601219D01*
X119366238Y-66601580D01*
X119749135Y-66443371D01*
X120042341Y-66150676D01*
X120201219Y-65768056D01*
X120201220Y-65766238D01*
X120658420Y-65766238D01*
X120816629Y-66149135D01*
X121109324Y-66442341D01*
X121491944Y-66601219D01*
X121906238Y-66601580D01*
X122289135Y-66443371D01*
X122582341Y-66150676D01*
X122741219Y-65768056D01*
X122741220Y-65766238D01*
X123198420Y-65766238D01*
X123356629Y-66149135D01*
X123649324Y-66442341D01*
X124031944Y-66601219D01*
X124446238Y-66601580D01*
X124829135Y-66443371D01*
X125122341Y-66150676D01*
X125281219Y-65768056D01*
X125281220Y-65766238D01*
X125738420Y-65766238D01*
X125896629Y-66149135D01*
X126189324Y-66442341D01*
X126571944Y-66601219D01*
X126986238Y-66601580D01*
X127369135Y-66443371D01*
X127662341Y-66150676D01*
X127821219Y-65768056D01*
X127821220Y-65766238D01*
X128278420Y-65766238D01*
X128436629Y-66149135D01*
X128729324Y-66442341D01*
X129111944Y-66601219D01*
X129526238Y-66601580D01*
X129909135Y-66443371D01*
X130202341Y-66150676D01*
X130361219Y-65768056D01*
X130361220Y-65766238D01*
X130818420Y-65766238D01*
X130976629Y-66149135D01*
X131269324Y-66442341D01*
X131651944Y-66601219D01*
X132066238Y-66601580D01*
X132449135Y-66443371D01*
X132742341Y-66150676D01*
X132901219Y-65768056D01*
X132901220Y-65766238D01*
X133358420Y-65766238D01*
X133516629Y-66149135D01*
X133809324Y-66442341D01*
X134191944Y-66601219D01*
X134606238Y-66601580D01*
X134989135Y-66443371D01*
X135282341Y-66150676D01*
X135441219Y-65768056D01*
X135441580Y-65353762D01*
X135283371Y-64970865D01*
X134990676Y-64677659D01*
X134608056Y-64518781D01*
X134193762Y-64518420D01*
X133810865Y-64676629D01*
X133517659Y-64969324D01*
X133358781Y-65351944D01*
X133358420Y-65766238D01*
X132901220Y-65766238D01*
X132901580Y-65353762D01*
X132743371Y-64970865D01*
X132450676Y-64677659D01*
X132068056Y-64518781D01*
X131653762Y-64518420D01*
X131270865Y-64676629D01*
X130977659Y-64969324D01*
X130818781Y-65351944D01*
X130818420Y-65766238D01*
X130361220Y-65766238D01*
X130361580Y-65353762D01*
X130203371Y-64970865D01*
X129910676Y-64677659D01*
X129528056Y-64518781D01*
X129113762Y-64518420D01*
X128730865Y-64676629D01*
X128437659Y-64969324D01*
X128278781Y-65351944D01*
X128278420Y-65766238D01*
X127821220Y-65766238D01*
X127821580Y-65353762D01*
X127663371Y-64970865D01*
X127370676Y-64677659D01*
X126988056Y-64518781D01*
X126573762Y-64518420D01*
X126190865Y-64676629D01*
X125897659Y-64969324D01*
X125738781Y-65351944D01*
X125738420Y-65766238D01*
X125281220Y-65766238D01*
X125281580Y-65353762D01*
X125123371Y-64970865D01*
X124830676Y-64677659D01*
X124448056Y-64518781D01*
X124033762Y-64518420D01*
X123650865Y-64676629D01*
X123357659Y-64969324D01*
X123198781Y-65351944D01*
X123198420Y-65766238D01*
X122741220Y-65766238D01*
X122741580Y-65353762D01*
X122583371Y-64970865D01*
X122290676Y-64677659D01*
X121908056Y-64518781D01*
X121493762Y-64518420D01*
X121110865Y-64676629D01*
X120817659Y-64969324D01*
X120658781Y-65351944D01*
X120658420Y-65766238D01*
X120201220Y-65766238D01*
X120201580Y-65353762D01*
X120043371Y-64970865D01*
X119750676Y-64677659D01*
X119368056Y-64518781D01*
X118953762Y-64518420D01*
X118570865Y-64676629D01*
X118277659Y-64969324D01*
X118118781Y-65351944D01*
X118118420Y-65766238D01*
X117593693Y-65766238D01*
X117623954Y-65670420D01*
X117589788Y-65277818D01*
X117505276Y-65073789D01*
X117377563Y-64982042D01*
X116799605Y-65560000D01*
X116440395Y-65560000D01*
X115862437Y-64982042D01*
X115734724Y-65073789D01*
X115616046Y-65449580D01*
X115121496Y-65449580D01*
X115121580Y-65353762D01*
X114963371Y-64970865D01*
X114795237Y-64802437D01*
X116042042Y-64802437D01*
X116620000Y-65380395D01*
X117197958Y-64802437D01*
X117106211Y-64674724D01*
X116730420Y-64556046D01*
X116337818Y-64590212D01*
X116133789Y-64674724D01*
X116042042Y-64802437D01*
X114795237Y-64802437D01*
X114670676Y-64677659D01*
X114288056Y-64518781D01*
X113873762Y-64518420D01*
X113490865Y-64676629D01*
X113197659Y-64969324D01*
X113038781Y-65351944D01*
X113038420Y-65766238D01*
X112581220Y-65766238D01*
X112581580Y-65353762D01*
X112423371Y-64970865D01*
X112130676Y-64677659D01*
X111748056Y-64518781D01*
X111333762Y-64518420D01*
X110950865Y-64676629D01*
X110657659Y-64969324D01*
X110498781Y-65351944D01*
X110498420Y-65766238D01*
X110041220Y-65766238D01*
X110041580Y-65353762D01*
X109883371Y-64970865D01*
X109590676Y-64677659D01*
X109208056Y-64518781D01*
X108793762Y-64518420D01*
X108410865Y-64676629D01*
X108117659Y-64969324D01*
X107958781Y-65351944D01*
X107958420Y-65766238D01*
X107803600Y-65766238D01*
X107803600Y-64303600D01*
X160696400Y-64303600D01*
X160696400Y-102196400D01*
M02*
