G04 #@! TF.FileFunction,Copper,L2,Bot,Signal*
%FSLAX46Y46*%
G04 Gerber Fmt 4.6, Leading zero omitted, Abs format (unit mm)*
G04 Created by KiCad (PCBNEW 4.0.0-rc1-stable) date 06/07/2017 17:27:51*
%MOMM*%
G01*
G04 APERTURE LIST*
%ADD10C,0.076200*%
%ADD11C,1.524000*%
%ADD12R,1.000000X1.250000*%
%ADD13R,1.700000X1.700000*%
%ADD14O,1.700000X1.700000*%
%ADD15R,1.300000X0.700000*%
%ADD16R,0.700000X1.300000*%
%ADD17C,0.685800*%
%ADD18C,0.304800*%
%ADD19C,0.152400*%
%ADD20C,0.254000*%
G04 APERTURE END LIST*
D10*
D11*
X137501800Y-94500000D03*
X137501800Y-92493400D03*
X137501800Y-90486800D03*
X137501800Y-88480200D03*
X137501800Y-86473600D03*
X137501800Y-84467000D03*
X137501800Y-82460400D03*
X137501800Y-80453800D03*
X137501800Y-78447200D03*
X137501800Y-76440600D03*
X159498200Y-76440600D03*
X159498200Y-78447200D03*
X159498200Y-80453800D03*
X159498200Y-82460400D03*
X159498200Y-84467000D03*
X159498200Y-86473600D03*
X159498200Y-88480200D03*
X159498200Y-90486800D03*
X159498200Y-92493400D03*
X159498200Y-94500000D03*
D12*
X126000000Y-96000000D03*
X128000000Y-96000000D03*
D13*
X133000000Y-71000000D03*
D14*
X133000000Y-73540000D03*
X130460000Y-73540000D03*
X133000000Y-76080000D03*
X130460000Y-76080000D03*
X133000000Y-78620000D03*
X130460000Y-78620000D03*
X130460000Y-81160000D03*
X130460000Y-83700000D03*
X133000000Y-86240000D03*
X130460000Y-86240000D03*
X133000000Y-88780000D03*
X130460000Y-88780000D03*
X133000000Y-91320000D03*
X130460000Y-91320000D03*
X133000000Y-93860000D03*
D15*
X127000000Y-82150000D03*
X127000000Y-80250000D03*
D16*
X125550000Y-89000000D03*
X127450000Y-89000000D03*
X125550000Y-91500000D03*
X127450000Y-91500000D03*
D15*
X124600000Y-82150000D03*
X124600000Y-80250000D03*
D13*
X132500000Y-99500000D03*
D14*
X135040000Y-99500000D03*
D13*
X121500000Y-100000000D03*
X125000000Y-100000000D03*
D11*
X109000000Y-93500000D03*
X111540000Y-93500000D03*
X154720000Y-93500000D03*
X157260000Y-93500000D03*
X157260000Y-65560000D03*
X154720000Y-65560000D03*
X152180000Y-65560000D03*
X149640000Y-65560000D03*
X147100000Y-65560000D03*
X144560000Y-65560000D03*
X142020000Y-65560000D03*
X139480000Y-65560000D03*
X136940000Y-65560000D03*
X134400000Y-65560000D03*
X131860000Y-65560000D03*
X129320000Y-65560000D03*
X126780000Y-65560000D03*
X124240000Y-65560000D03*
X121700000Y-65560000D03*
X119160000Y-65560000D03*
X116620000Y-65560000D03*
X114080000Y-65560000D03*
X111540000Y-65560000D03*
X109000000Y-65560000D03*
D17*
X123100000Y-84400000D03*
X116000000Y-76000000D03*
X143383000Y-69723000D03*
X119700000Y-79900000D03*
X118300000Y-79900000D03*
D18*
X126000000Y-96000000D02*
X126000000Y-99000000D01*
X126000000Y-99000000D02*
X125000000Y-100000000D01*
X128000000Y-96000000D02*
X128000000Y-97000000D01*
X128000000Y-97000000D02*
X130500000Y-99500000D01*
X128000000Y-96000000D02*
X128000000Y-95000000D01*
X128000000Y-95000000D02*
X125550000Y-92550000D01*
X130500000Y-99500000D02*
X132500000Y-99500000D01*
X125550000Y-92550000D02*
X125550000Y-91500000D01*
X133000000Y-73540000D02*
X133710000Y-73540000D01*
X133710000Y-73540000D02*
X139400000Y-67850000D01*
X139400000Y-67850000D02*
X139400000Y-66060000D01*
X130460000Y-76080000D02*
X124600000Y-76080000D01*
X124600000Y-76080000D02*
X114080000Y-65560000D01*
X127000000Y-82150000D02*
X127000000Y-82000000D01*
X127000000Y-82000000D02*
X126200000Y-81200000D01*
X121000000Y-81200000D02*
X119700000Y-79900000D01*
X126200000Y-81200000D02*
X121000000Y-81200000D01*
X133000000Y-86240000D02*
X132540000Y-86240000D01*
X132540000Y-86240000D02*
X131300000Y-85000000D01*
X131300000Y-85000000D02*
X129850000Y-85000000D01*
X129850000Y-85000000D02*
X127000000Y-82150000D01*
X124600000Y-82150000D02*
X120550000Y-82150000D01*
X120550000Y-82150000D02*
X118300000Y-79900000D01*
X124600000Y-82150000D02*
X124150000Y-82150000D01*
X130460000Y-86240000D02*
X128690000Y-86240000D01*
X128690000Y-86240000D02*
X124600000Y-82150000D01*
D19*
X130200000Y-86500000D02*
X130460000Y-86240000D01*
D18*
X127450000Y-89000000D02*
X130240000Y-89000000D01*
X130240000Y-89000000D02*
X130460000Y-88780000D01*
D19*
X130240000Y-89000000D02*
X130460000Y-88780000D01*
D18*
X127450000Y-91500000D02*
X130280000Y-91500000D01*
X130280000Y-91500000D02*
X130460000Y-91320000D01*
D19*
X130280000Y-91500000D02*
X130460000Y-91320000D01*
D18*
X125550000Y-89000000D02*
X124814000Y-89000000D01*
X116967000Y-70987000D02*
X111540000Y-65560000D01*
X116967000Y-81153000D02*
X116967000Y-70987000D01*
X124814000Y-89000000D02*
X116967000Y-81153000D01*
D20*
G36*
X160696400Y-102196400D02*
X107803600Y-102196400D01*
X107803600Y-99122196D01*
X110120274Y-99122196D01*
X110405793Y-99813204D01*
X110934015Y-100342349D01*
X111624524Y-100629073D01*
X112372196Y-100629726D01*
X113063204Y-100344207D01*
X113592349Y-99815985D01*
X113868889Y-99150000D01*
X120365127Y-99150000D01*
X120365127Y-100850000D01*
X120384609Y-100953539D01*
X120445801Y-101048634D01*
X120539168Y-101112429D01*
X120650000Y-101134873D01*
X122350000Y-101134873D01*
X122453539Y-101115391D01*
X122548634Y-101054199D01*
X122612429Y-100960832D01*
X122634873Y-100850000D01*
X122634873Y-99150000D01*
X123865127Y-99150000D01*
X123865127Y-100850000D01*
X123884609Y-100953539D01*
X123945801Y-101048634D01*
X124039168Y-101112429D01*
X124150000Y-101134873D01*
X125850000Y-101134873D01*
X125953539Y-101115391D01*
X126048634Y-101054199D01*
X126112429Y-100960832D01*
X126134873Y-100850000D01*
X126134873Y-99475784D01*
X126305326Y-99305331D01*
X126305329Y-99305329D01*
X126398931Y-99165243D01*
X126398932Y-99165242D01*
X126431801Y-99000000D01*
X126431800Y-98999995D01*
X126431800Y-96909873D01*
X126500000Y-96909873D01*
X126603539Y-96890391D01*
X126698634Y-96829199D01*
X126762429Y-96735832D01*
X126784873Y-96625000D01*
X126784873Y-95375000D01*
X126765391Y-95271461D01*
X126704199Y-95176366D01*
X126610832Y-95112571D01*
X126500000Y-95090127D01*
X125500000Y-95090127D01*
X125396461Y-95109609D01*
X125301366Y-95170801D01*
X125237571Y-95264168D01*
X125215127Y-95375000D01*
X125215127Y-96625000D01*
X125234609Y-96728539D01*
X125295801Y-96823634D01*
X125389168Y-96887429D01*
X125500000Y-96909873D01*
X125568200Y-96909873D01*
X125568200Y-98821143D01*
X125524216Y-98865127D01*
X124150000Y-98865127D01*
X124046461Y-98884609D01*
X123951366Y-98945801D01*
X123887571Y-99039168D01*
X123865127Y-99150000D01*
X122634873Y-99150000D01*
X122615391Y-99046461D01*
X122554199Y-98951366D01*
X122460832Y-98887571D01*
X122350000Y-98865127D01*
X120650000Y-98865127D01*
X120546461Y-98884609D01*
X120451366Y-98945801D01*
X120387571Y-99039168D01*
X120365127Y-99150000D01*
X113868889Y-99150000D01*
X113879073Y-99125476D01*
X113879726Y-98377804D01*
X113594207Y-97686796D01*
X113065985Y-97157651D01*
X112375476Y-96870927D01*
X111627804Y-96870274D01*
X110936796Y-97155793D01*
X110407651Y-97684015D01*
X110120927Y-98374524D01*
X110120274Y-99122196D01*
X107803600Y-99122196D01*
X107803600Y-93706238D01*
X107958420Y-93706238D01*
X108116629Y-94089135D01*
X108409324Y-94382341D01*
X108791944Y-94541219D01*
X109206238Y-94541580D01*
X109589135Y-94383371D01*
X109882341Y-94090676D01*
X110041219Y-93708056D01*
X110041220Y-93706238D01*
X110498420Y-93706238D01*
X110656629Y-94089135D01*
X110949324Y-94382341D01*
X111331944Y-94541219D01*
X111746238Y-94541580D01*
X112129135Y-94383371D01*
X112422341Y-94090676D01*
X112581219Y-93708056D01*
X112581580Y-93293762D01*
X112423371Y-92910865D01*
X112130676Y-92617659D01*
X111748056Y-92458781D01*
X111333762Y-92458420D01*
X110950865Y-92616629D01*
X110657659Y-92909324D01*
X110498781Y-93291944D01*
X110498420Y-93706238D01*
X110041220Y-93706238D01*
X110041580Y-93293762D01*
X109883371Y-92910865D01*
X109590676Y-92617659D01*
X109208056Y-92458781D01*
X108793762Y-92458420D01*
X108410865Y-92616629D01*
X108117659Y-92909324D01*
X107958781Y-93291944D01*
X107958420Y-93706238D01*
X107803600Y-93706238D01*
X107803600Y-90850000D01*
X124915127Y-90850000D01*
X124915127Y-92150000D01*
X124934609Y-92253539D01*
X124995801Y-92348634D01*
X125089168Y-92412429D01*
X125118200Y-92418308D01*
X125118200Y-92550000D01*
X125151069Y-92715243D01*
X125218773Y-92816570D01*
X125244671Y-92855329D01*
X127482720Y-95093378D01*
X127396461Y-95109609D01*
X127301366Y-95170801D01*
X127237571Y-95264168D01*
X127215127Y-95375000D01*
X127215127Y-96625000D01*
X127234609Y-96728539D01*
X127295801Y-96823634D01*
X127389168Y-96887429D01*
X127500000Y-96909873D01*
X127568200Y-96909873D01*
X127568200Y-97000000D01*
X127601069Y-97165243D01*
X127694671Y-97305329D01*
X130194671Y-99805329D01*
X130334757Y-99898931D01*
X130500000Y-99931800D01*
X131365127Y-99931800D01*
X131365127Y-100350000D01*
X131384609Y-100453539D01*
X131445801Y-100548634D01*
X131539168Y-100612429D01*
X131650000Y-100634873D01*
X133350000Y-100634873D01*
X133453539Y-100615391D01*
X133548634Y-100554199D01*
X133612429Y-100460832D01*
X133634873Y-100350000D01*
X133634873Y-99477874D01*
X133910600Y-99477874D01*
X133910600Y-99522126D01*
X133996570Y-99954329D01*
X134241394Y-100320732D01*
X134607797Y-100565556D01*
X135040000Y-100651526D01*
X135472203Y-100565556D01*
X135838606Y-100320732D01*
X136083430Y-99954329D01*
X136169400Y-99522126D01*
X136169400Y-99477874D01*
X136083430Y-99045671D01*
X135838606Y-98679268D01*
X135472203Y-98434444D01*
X135040000Y-98348474D01*
X134607797Y-98434444D01*
X134241394Y-98679268D01*
X133996570Y-99045671D01*
X133910600Y-99477874D01*
X133634873Y-99477874D01*
X133634873Y-98650000D01*
X133615391Y-98546461D01*
X133554199Y-98451366D01*
X133460832Y-98387571D01*
X133350000Y-98365127D01*
X131650000Y-98365127D01*
X131546461Y-98384609D01*
X131451366Y-98445801D01*
X131387571Y-98539168D01*
X131365127Y-98650000D01*
X131365127Y-99068200D01*
X130678858Y-99068200D01*
X128517280Y-96906622D01*
X128603539Y-96890391D01*
X128698634Y-96829199D01*
X128762429Y-96735832D01*
X128784873Y-96625000D01*
X128784873Y-95375000D01*
X128765391Y-95271461D01*
X128756448Y-95257563D01*
X136923842Y-95257563D01*
X137015589Y-95385276D01*
X137391380Y-95503954D01*
X137783982Y-95469788D01*
X137988011Y-95385276D01*
X138079758Y-95257563D01*
X137501800Y-94679605D01*
X136923842Y-95257563D01*
X128756448Y-95257563D01*
X128704199Y-95176366D01*
X128610832Y-95112571D01*
X128500000Y-95090127D01*
X128431800Y-95090127D01*
X128431800Y-95000000D01*
X128398931Y-94834757D01*
X128305329Y-94694671D01*
X127470658Y-93860000D01*
X131848474Y-93860000D01*
X131934444Y-94292203D01*
X132179268Y-94658606D01*
X132545671Y-94903430D01*
X132977874Y-94989400D01*
X133022126Y-94989400D01*
X133454329Y-94903430D01*
X133820732Y-94658606D01*
X134000490Y-94389580D01*
X136497846Y-94389580D01*
X136532012Y-94782182D01*
X136616524Y-94986211D01*
X136744237Y-95077958D01*
X137322195Y-94500000D01*
X137681405Y-94500000D01*
X138259363Y-95077958D01*
X138387076Y-94986211D01*
X138505754Y-94610420D01*
X138471588Y-94217818D01*
X138387076Y-94013789D01*
X138259363Y-93922042D01*
X137681405Y-94500000D01*
X137322195Y-94500000D01*
X136744237Y-93922042D01*
X136616524Y-94013789D01*
X136497846Y-94389580D01*
X134000490Y-94389580D01*
X134065556Y-94292203D01*
X134151526Y-93860000D01*
X134065556Y-93427797D01*
X133820732Y-93061394D01*
X133454329Y-92816570D01*
X133022126Y-92730600D01*
X132977874Y-92730600D01*
X132545671Y-92816570D01*
X132179268Y-93061394D01*
X131934444Y-93427797D01*
X131848474Y-93860000D01*
X127470658Y-93860000D01*
X126017236Y-92406578D01*
X126098634Y-92354199D01*
X126162429Y-92260832D01*
X126184873Y-92150000D01*
X126184873Y-90850000D01*
X126815127Y-90850000D01*
X126815127Y-92150000D01*
X126834609Y-92253539D01*
X126895801Y-92348634D01*
X126989168Y-92412429D01*
X127100000Y-92434873D01*
X127800000Y-92434873D01*
X127903539Y-92415391D01*
X127998634Y-92354199D01*
X128062429Y-92260832D01*
X128084873Y-92150000D01*
X128084873Y-91931800D01*
X129514448Y-91931800D01*
X129639268Y-92118606D01*
X130005671Y-92363430D01*
X130437874Y-92449400D01*
X130482126Y-92449400D01*
X130914329Y-92363430D01*
X131280732Y-92118606D01*
X131525556Y-91752203D01*
X131611526Y-91320000D01*
X131848474Y-91320000D01*
X131934444Y-91752203D01*
X132179268Y-92118606D01*
X132545671Y-92363430D01*
X132977874Y-92449400D01*
X133022126Y-92449400D01*
X133454329Y-92363430D01*
X133820732Y-92118606D01*
X134065556Y-91752203D01*
X134151526Y-91320000D01*
X134065556Y-90887797D01*
X133820732Y-90521394D01*
X133454329Y-90276570D01*
X133022126Y-90190600D01*
X132977874Y-90190600D01*
X132545671Y-90276570D01*
X132179268Y-90521394D01*
X131934444Y-90887797D01*
X131848474Y-91320000D01*
X131611526Y-91320000D01*
X131525556Y-90887797D01*
X131280732Y-90521394D01*
X130914329Y-90276570D01*
X130482126Y-90190600D01*
X130437874Y-90190600D01*
X130005671Y-90276570D01*
X129639268Y-90521394D01*
X129394444Y-90887797D01*
X129358560Y-91068200D01*
X128084873Y-91068200D01*
X128084873Y-90850000D01*
X128065391Y-90746461D01*
X128004199Y-90651366D01*
X127910832Y-90587571D01*
X127800000Y-90565127D01*
X127100000Y-90565127D01*
X126996461Y-90584609D01*
X126901366Y-90645801D01*
X126837571Y-90739168D01*
X126815127Y-90850000D01*
X126184873Y-90850000D01*
X126165391Y-90746461D01*
X126104199Y-90651366D01*
X126010832Y-90587571D01*
X125900000Y-90565127D01*
X125200000Y-90565127D01*
X125096461Y-90584609D01*
X125001366Y-90645801D01*
X124937571Y-90739168D01*
X124915127Y-90850000D01*
X107803600Y-90850000D01*
X107803600Y-72122196D01*
X110120274Y-72122196D01*
X110405793Y-72813204D01*
X110934015Y-73342349D01*
X111624524Y-73629073D01*
X112372196Y-73629726D01*
X113063204Y-73344207D01*
X113592349Y-72815985D01*
X113879073Y-72125476D01*
X113879726Y-71377804D01*
X113594207Y-70686796D01*
X113065985Y-70157651D01*
X112375476Y-69870927D01*
X111627804Y-69870274D01*
X110936796Y-70155793D01*
X110407651Y-70684015D01*
X110120927Y-71374524D01*
X110120274Y-72122196D01*
X107803600Y-72122196D01*
X107803600Y-66317563D01*
X108422042Y-66317563D01*
X108513789Y-66445276D01*
X108889580Y-66563954D01*
X109282182Y-66529788D01*
X109486211Y-66445276D01*
X109577958Y-66317563D01*
X109000000Y-65739605D01*
X108422042Y-66317563D01*
X107803600Y-66317563D01*
X107803600Y-65449580D01*
X107996046Y-65449580D01*
X108030212Y-65842182D01*
X108114724Y-66046211D01*
X108242437Y-66137958D01*
X108820395Y-65560000D01*
X109179605Y-65560000D01*
X109757563Y-66137958D01*
X109885276Y-66046211D01*
X109973693Y-65766238D01*
X110498420Y-65766238D01*
X110656629Y-66149135D01*
X110949324Y-66442341D01*
X111331944Y-66601219D01*
X111746238Y-66601580D01*
X111905229Y-66535887D01*
X116535200Y-71165858D01*
X116535200Y-81153000D01*
X116568069Y-81318243D01*
X116635272Y-81418820D01*
X116661671Y-81458329D01*
X124508671Y-89305329D01*
X124648757Y-89398931D01*
X124676173Y-89404385D01*
X124814000Y-89431801D01*
X124814005Y-89431800D01*
X124915127Y-89431800D01*
X124915127Y-89650000D01*
X124934609Y-89753539D01*
X124995801Y-89848634D01*
X125089168Y-89912429D01*
X125200000Y-89934873D01*
X125900000Y-89934873D01*
X126003539Y-89915391D01*
X126098634Y-89854199D01*
X126162429Y-89760832D01*
X126184873Y-89650000D01*
X126184873Y-88350000D01*
X126815127Y-88350000D01*
X126815127Y-89650000D01*
X126834609Y-89753539D01*
X126895801Y-89848634D01*
X126989168Y-89912429D01*
X127100000Y-89934873D01*
X127800000Y-89934873D01*
X127903539Y-89915391D01*
X127998634Y-89854199D01*
X128062429Y-89760832D01*
X128084873Y-89650000D01*
X128084873Y-89431800D01*
X129541175Y-89431800D01*
X129639268Y-89578606D01*
X130005671Y-89823430D01*
X130437874Y-89909400D01*
X130482126Y-89909400D01*
X130914329Y-89823430D01*
X131280732Y-89578606D01*
X131525556Y-89212203D01*
X131611526Y-88780000D01*
X131848474Y-88780000D01*
X131934444Y-89212203D01*
X132179268Y-89578606D01*
X132545671Y-89823430D01*
X132977874Y-89909400D01*
X133022126Y-89909400D01*
X133454329Y-89823430D01*
X133820732Y-89578606D01*
X134065556Y-89212203D01*
X134151526Y-88780000D01*
X134065556Y-88347797D01*
X133820732Y-87981394D01*
X133454329Y-87736570D01*
X133022126Y-87650600D01*
X132977874Y-87650600D01*
X132545671Y-87736570D01*
X132179268Y-87981394D01*
X131934444Y-88347797D01*
X131848474Y-88780000D01*
X131611526Y-88780000D01*
X131525556Y-88347797D01*
X131280732Y-87981394D01*
X130914329Y-87736570D01*
X130482126Y-87650600D01*
X130437874Y-87650600D01*
X130005671Y-87736570D01*
X129639268Y-87981394D01*
X129394444Y-88347797D01*
X129350603Y-88568200D01*
X128084873Y-88568200D01*
X128084873Y-88350000D01*
X128065391Y-88246461D01*
X128004199Y-88151366D01*
X127910832Y-88087571D01*
X127800000Y-88065127D01*
X127100000Y-88065127D01*
X126996461Y-88084609D01*
X126901366Y-88145801D01*
X126837571Y-88239168D01*
X126815127Y-88350000D01*
X126184873Y-88350000D01*
X126165391Y-88246461D01*
X126104199Y-88151366D01*
X126010832Y-88087571D01*
X125900000Y-88065127D01*
X125200000Y-88065127D01*
X125096461Y-88084609D01*
X125001366Y-88145801D01*
X124937571Y-88239168D01*
X124915127Y-88350000D01*
X124915127Y-88490469D01*
X117398800Y-80974142D01*
X117398800Y-80023240D01*
X117677592Y-80023240D01*
X117772132Y-80252044D01*
X117947035Y-80427253D01*
X118175674Y-80522192D01*
X118311653Y-80522311D01*
X120244669Y-82455326D01*
X120244671Y-82455329D01*
X120311526Y-82500000D01*
X120384758Y-82548932D01*
X120550000Y-82581801D01*
X120550005Y-82581800D01*
X123680519Y-82581800D01*
X123684609Y-82603539D01*
X123745801Y-82698634D01*
X123839168Y-82762429D01*
X123950000Y-82784873D01*
X124624215Y-82784873D01*
X128384669Y-86545326D01*
X128384671Y-86545329D01*
X128520495Y-86636083D01*
X128524757Y-86638931D01*
X128690000Y-86671800D01*
X129394364Y-86671800D01*
X129394444Y-86672203D01*
X129639268Y-87038606D01*
X130005671Y-87283430D01*
X130437874Y-87369400D01*
X130482126Y-87369400D01*
X130914329Y-87283430D01*
X131280732Y-87038606D01*
X131525556Y-86672203D01*
X131611526Y-86240000D01*
X131532612Y-85843270D01*
X131861891Y-86172549D01*
X131848474Y-86240000D01*
X131934444Y-86672203D01*
X132179268Y-87038606D01*
X132545671Y-87283430D01*
X132977874Y-87369400D01*
X133022126Y-87369400D01*
X133454329Y-87283430D01*
X133820732Y-87038606D01*
X134065556Y-86672203D01*
X134151526Y-86240000D01*
X134065556Y-85807797D01*
X133820732Y-85441394D01*
X133454329Y-85196570D01*
X133022126Y-85110600D01*
X132977874Y-85110600D01*
X132545671Y-85196570D01*
X132282844Y-85372186D01*
X131605329Y-84694671D01*
X131573252Y-84673238D01*
X131465243Y-84601069D01*
X131300000Y-84568200D01*
X131086184Y-84568200D01*
X131127939Y-84546914D01*
X131401195Y-84226837D01*
X131498043Y-83992993D01*
X131473524Y-83827000D01*
X130587000Y-83827000D01*
X130587000Y-83847000D01*
X130333000Y-83847000D01*
X130333000Y-83827000D01*
X129446476Y-83827000D01*
X129426036Y-83965379D01*
X128867665Y-83407007D01*
X129421957Y-83407007D01*
X129446476Y-83573000D01*
X130333000Y-83573000D01*
X130333000Y-82686040D01*
X130587000Y-82686040D01*
X130587000Y-83573000D01*
X131473524Y-83573000D01*
X131498043Y-83407007D01*
X131401195Y-83173163D01*
X131127939Y-82853086D01*
X130752995Y-82661944D01*
X130587000Y-82686040D01*
X130333000Y-82686040D01*
X130167005Y-82661944D01*
X129792061Y-82853086D01*
X129518805Y-83173163D01*
X129421957Y-83407007D01*
X128867665Y-83407007D01*
X127934873Y-82474215D01*
X127934873Y-81800000D01*
X127915391Y-81696461D01*
X127854199Y-81601366D01*
X127760832Y-81537571D01*
X127650000Y-81515127D01*
X127125785Y-81515127D01*
X126770658Y-81160000D01*
X129308474Y-81160000D01*
X129394444Y-81592203D01*
X129639268Y-81958606D01*
X130005671Y-82203430D01*
X130437874Y-82289400D01*
X130482126Y-82289400D01*
X130914329Y-82203430D01*
X131280732Y-81958606D01*
X131525556Y-81592203D01*
X131611526Y-81160000D01*
X131525556Y-80727797D01*
X131280732Y-80361394D01*
X130914329Y-80116570D01*
X130482126Y-80030600D01*
X130437874Y-80030600D01*
X130005671Y-80116570D01*
X129639268Y-80361394D01*
X129394444Y-80727797D01*
X129308474Y-81160000D01*
X126770658Y-81160000D01*
X126505329Y-80894671D01*
X126406446Y-80828600D01*
X126815850Y-80828600D01*
X126873000Y-80771450D01*
X126873000Y-80377000D01*
X127127000Y-80377000D01*
X127127000Y-80771450D01*
X127184150Y-80828600D01*
X127695472Y-80828600D01*
X127779492Y-80793797D01*
X127843798Y-80729491D01*
X127878600Y-80645471D01*
X127878600Y-80434150D01*
X127821450Y-80377000D01*
X127127000Y-80377000D01*
X126873000Y-80377000D01*
X126178550Y-80377000D01*
X126121400Y-80434150D01*
X126121400Y-80645471D01*
X126156202Y-80729491D01*
X126194911Y-80768200D01*
X125405089Y-80768200D01*
X125443798Y-80729491D01*
X125478600Y-80645471D01*
X125478600Y-80434150D01*
X125421450Y-80377000D01*
X124727000Y-80377000D01*
X124727000Y-80397000D01*
X124473000Y-80397000D01*
X124473000Y-80377000D01*
X123778550Y-80377000D01*
X123721400Y-80434150D01*
X123721400Y-80645471D01*
X123756202Y-80729491D01*
X123794911Y-80768200D01*
X121178857Y-80768200D01*
X120322290Y-79911633D01*
X120322339Y-79854529D01*
X123721400Y-79854529D01*
X123721400Y-80065850D01*
X123778550Y-80123000D01*
X124473000Y-80123000D01*
X124473000Y-79728550D01*
X124727000Y-79728550D01*
X124727000Y-80123000D01*
X125421450Y-80123000D01*
X125478600Y-80065850D01*
X125478600Y-79854529D01*
X126121400Y-79854529D01*
X126121400Y-80065850D01*
X126178550Y-80123000D01*
X126873000Y-80123000D01*
X126873000Y-79728550D01*
X127127000Y-79728550D01*
X127127000Y-80123000D01*
X127821450Y-80123000D01*
X127878600Y-80065850D01*
X127878600Y-79854529D01*
X127843798Y-79770509D01*
X127779492Y-79706203D01*
X127695472Y-79671400D01*
X127184150Y-79671400D01*
X127127000Y-79728550D01*
X126873000Y-79728550D01*
X126815850Y-79671400D01*
X126304528Y-79671400D01*
X126220508Y-79706203D01*
X126156202Y-79770509D01*
X126121400Y-79854529D01*
X125478600Y-79854529D01*
X125443798Y-79770509D01*
X125379492Y-79706203D01*
X125295472Y-79671400D01*
X124784150Y-79671400D01*
X124727000Y-79728550D01*
X124473000Y-79728550D01*
X124415850Y-79671400D01*
X123904528Y-79671400D01*
X123820508Y-79706203D01*
X123756202Y-79770509D01*
X123721400Y-79854529D01*
X120322339Y-79854529D01*
X120322408Y-79776760D01*
X120227868Y-79547956D01*
X120052965Y-79372747D01*
X119824326Y-79277808D01*
X119576760Y-79277592D01*
X119347956Y-79372132D01*
X119172747Y-79547035D01*
X119077808Y-79775674D01*
X119077592Y-80023240D01*
X119108359Y-80097701D01*
X118922290Y-79911632D01*
X118922408Y-79776760D01*
X118827868Y-79547956D01*
X118652965Y-79372747D01*
X118424326Y-79277808D01*
X118176760Y-79277592D01*
X117947956Y-79372132D01*
X117772747Y-79547035D01*
X117677808Y-79775674D01*
X117677592Y-80023240D01*
X117398800Y-80023240D01*
X117398800Y-78620000D01*
X129308474Y-78620000D01*
X129394444Y-79052203D01*
X129639268Y-79418606D01*
X130005671Y-79663430D01*
X130437874Y-79749400D01*
X130482126Y-79749400D01*
X130914329Y-79663430D01*
X131280732Y-79418606D01*
X131525556Y-79052203D01*
X131611526Y-78620000D01*
X131848474Y-78620000D01*
X131934444Y-79052203D01*
X132179268Y-79418606D01*
X132545671Y-79663430D01*
X132977874Y-79749400D01*
X133022126Y-79749400D01*
X133454329Y-79663430D01*
X133820732Y-79418606D01*
X134065556Y-79052203D01*
X134151526Y-78620000D01*
X134065556Y-78187797D01*
X133820732Y-77821394D01*
X133454329Y-77576570D01*
X133022126Y-77490600D01*
X132977874Y-77490600D01*
X132545671Y-77576570D01*
X132179268Y-77821394D01*
X131934444Y-78187797D01*
X131848474Y-78620000D01*
X131611526Y-78620000D01*
X131525556Y-78187797D01*
X131280732Y-77821394D01*
X130914329Y-77576570D01*
X130482126Y-77490600D01*
X130437874Y-77490600D01*
X130005671Y-77576570D01*
X129639268Y-77821394D01*
X129394444Y-78187797D01*
X129308474Y-78620000D01*
X117398800Y-78620000D01*
X117398800Y-70987000D01*
X117365931Y-70821757D01*
X117272329Y-70681671D01*
X112515935Y-65925277D01*
X112581219Y-65768056D01*
X112581220Y-65766238D01*
X113038420Y-65766238D01*
X113196629Y-66149135D01*
X113489324Y-66442341D01*
X113871944Y-66601219D01*
X114286238Y-66601580D01*
X114445229Y-66535887D01*
X124294669Y-76385326D01*
X124294671Y-76385329D01*
X124434757Y-76478931D01*
X124462173Y-76484385D01*
X124600000Y-76511801D01*
X124600005Y-76511800D01*
X129394364Y-76511800D01*
X129394444Y-76512203D01*
X129639268Y-76878606D01*
X130005671Y-77123430D01*
X130437874Y-77209400D01*
X130482126Y-77209400D01*
X130914329Y-77123430D01*
X131280732Y-76878606D01*
X131525556Y-76512203D01*
X131611526Y-76080000D01*
X131848474Y-76080000D01*
X131934444Y-76512203D01*
X132179268Y-76878606D01*
X132545671Y-77123430D01*
X132977874Y-77209400D01*
X133022126Y-77209400D01*
X133454329Y-77123430D01*
X133820732Y-76878606D01*
X133975595Y-76646838D01*
X136460220Y-76646838D01*
X136618429Y-77029735D01*
X136911124Y-77322941D01*
X137202670Y-77444002D01*
X136912665Y-77563829D01*
X136619459Y-77856524D01*
X136460581Y-78239144D01*
X136460220Y-78653438D01*
X136618429Y-79036335D01*
X136911124Y-79329541D01*
X137202670Y-79450602D01*
X136912665Y-79570429D01*
X136619459Y-79863124D01*
X136460581Y-80245744D01*
X136460220Y-80660038D01*
X136618429Y-81042935D01*
X136911124Y-81336141D01*
X137202670Y-81457202D01*
X136912665Y-81577029D01*
X136619459Y-81869724D01*
X136460581Y-82252344D01*
X136460220Y-82666638D01*
X136618429Y-83049535D01*
X136911124Y-83342741D01*
X137202670Y-83463802D01*
X136912665Y-83583629D01*
X136619459Y-83876324D01*
X136460581Y-84258944D01*
X136460220Y-84673238D01*
X136618429Y-85056135D01*
X136911124Y-85349341D01*
X137202670Y-85470402D01*
X136912665Y-85590229D01*
X136619459Y-85882924D01*
X136460581Y-86265544D01*
X136460220Y-86679838D01*
X136618429Y-87062735D01*
X136911124Y-87355941D01*
X137202670Y-87477002D01*
X136912665Y-87596829D01*
X136619459Y-87889524D01*
X136460581Y-88272144D01*
X136460220Y-88686438D01*
X136618429Y-89069335D01*
X136911124Y-89362541D01*
X137202670Y-89483602D01*
X136912665Y-89603429D01*
X136619459Y-89896124D01*
X136460581Y-90278744D01*
X136460220Y-90693038D01*
X136618429Y-91075935D01*
X136911124Y-91369141D01*
X137202670Y-91490202D01*
X136912665Y-91610029D01*
X136619459Y-91902724D01*
X136460581Y-92285344D01*
X136460220Y-92699638D01*
X136618429Y-93082535D01*
X136911124Y-93375741D01*
X137272126Y-93525642D01*
X137219618Y-93530212D01*
X137015589Y-93614724D01*
X136923842Y-93742437D01*
X137501800Y-94320395D01*
X138079758Y-93742437D01*
X138053754Y-93706238D01*
X153678420Y-93706238D01*
X153836629Y-94089135D01*
X154129324Y-94382341D01*
X154511944Y-94541219D01*
X154926238Y-94541580D01*
X155309135Y-94383371D01*
X155602341Y-94090676D01*
X155761219Y-93708056D01*
X155761220Y-93706238D01*
X156218420Y-93706238D01*
X156376629Y-94089135D01*
X156669324Y-94382341D01*
X157051944Y-94541219D01*
X157466238Y-94541580D01*
X157849135Y-94383371D01*
X158142341Y-94090676D01*
X158301219Y-93708056D01*
X158301580Y-93293762D01*
X158143371Y-92910865D01*
X157850676Y-92617659D01*
X157468056Y-92458781D01*
X157053762Y-92458420D01*
X156670865Y-92616629D01*
X156377659Y-92909324D01*
X156218781Y-93291944D01*
X156218420Y-93706238D01*
X155761220Y-93706238D01*
X155761580Y-93293762D01*
X155603371Y-92910865D01*
X155310676Y-92617659D01*
X154928056Y-92458781D01*
X154513762Y-92458420D01*
X154130865Y-92616629D01*
X153837659Y-92909324D01*
X153678781Y-93291944D01*
X153678420Y-93706238D01*
X138053754Y-93706238D01*
X137988011Y-93614724D01*
X137719936Y-93530064D01*
X138090935Y-93376771D01*
X138384141Y-93084076D01*
X138543019Y-92701456D01*
X138543380Y-92287162D01*
X138385171Y-91904265D01*
X138092476Y-91611059D01*
X137800930Y-91489998D01*
X138090935Y-91370171D01*
X138384141Y-91077476D01*
X138543019Y-90694856D01*
X138543380Y-90280562D01*
X138385171Y-89897665D01*
X138092476Y-89604459D01*
X137800930Y-89483398D01*
X138090935Y-89363571D01*
X138384141Y-89070876D01*
X138543019Y-88688256D01*
X138543380Y-88273962D01*
X138385171Y-87891065D01*
X138092476Y-87597859D01*
X137800930Y-87476798D01*
X138090935Y-87356971D01*
X138384141Y-87064276D01*
X138543019Y-86681656D01*
X138543380Y-86267362D01*
X138385171Y-85884465D01*
X138092476Y-85591259D01*
X137800930Y-85470198D01*
X138090935Y-85350371D01*
X138384141Y-85057676D01*
X138543019Y-84675056D01*
X138543380Y-84260762D01*
X138385171Y-83877865D01*
X138092476Y-83584659D01*
X137800930Y-83463598D01*
X138090935Y-83343771D01*
X138384141Y-83051076D01*
X138543019Y-82668456D01*
X138543380Y-82254162D01*
X138385171Y-81871265D01*
X138092476Y-81578059D01*
X137800930Y-81456998D01*
X138090935Y-81337171D01*
X138384141Y-81044476D01*
X138543019Y-80661856D01*
X138543380Y-80247562D01*
X138385171Y-79864665D01*
X138092476Y-79571459D01*
X137800930Y-79450398D01*
X138090935Y-79330571D01*
X138384141Y-79037876D01*
X138543019Y-78655256D01*
X138543380Y-78240962D01*
X138385171Y-77858065D01*
X138092476Y-77564859D01*
X137800930Y-77443798D01*
X138090935Y-77323971D01*
X138384141Y-77031276D01*
X138543019Y-76648656D01*
X138543020Y-76646838D01*
X158456620Y-76646838D01*
X158614829Y-77029735D01*
X158907524Y-77322941D01*
X159199070Y-77444002D01*
X158909065Y-77563829D01*
X158615859Y-77856524D01*
X158456981Y-78239144D01*
X158456620Y-78653438D01*
X158614829Y-79036335D01*
X158907524Y-79329541D01*
X159199070Y-79450602D01*
X158909065Y-79570429D01*
X158615859Y-79863124D01*
X158456981Y-80245744D01*
X158456620Y-80660038D01*
X158614829Y-81042935D01*
X158907524Y-81336141D01*
X159199070Y-81457202D01*
X158909065Y-81577029D01*
X158615859Y-81869724D01*
X158456981Y-82252344D01*
X158456620Y-82666638D01*
X158614829Y-83049535D01*
X158907524Y-83342741D01*
X159199070Y-83463802D01*
X158909065Y-83583629D01*
X158615859Y-83876324D01*
X158456981Y-84258944D01*
X158456620Y-84673238D01*
X158614829Y-85056135D01*
X158907524Y-85349341D01*
X159199070Y-85470402D01*
X158909065Y-85590229D01*
X158615859Y-85882924D01*
X158456981Y-86265544D01*
X158456620Y-86679838D01*
X158614829Y-87062735D01*
X158907524Y-87355941D01*
X159199070Y-87477002D01*
X158909065Y-87596829D01*
X158615859Y-87889524D01*
X158456981Y-88272144D01*
X158456620Y-88686438D01*
X158614829Y-89069335D01*
X158907524Y-89362541D01*
X159199070Y-89483602D01*
X158909065Y-89603429D01*
X158615859Y-89896124D01*
X158456981Y-90278744D01*
X158456620Y-90693038D01*
X158614829Y-91075935D01*
X158907524Y-91369141D01*
X159199070Y-91490202D01*
X158909065Y-91610029D01*
X158615859Y-91902724D01*
X158456981Y-92285344D01*
X158456620Y-92699638D01*
X158614829Y-93082535D01*
X158907524Y-93375741D01*
X159199070Y-93496802D01*
X158909065Y-93616629D01*
X158615859Y-93909324D01*
X158456981Y-94291944D01*
X158456620Y-94706238D01*
X158614829Y-95089135D01*
X158907524Y-95382341D01*
X159290144Y-95541219D01*
X159704438Y-95541580D01*
X160087335Y-95383371D01*
X160380541Y-95090676D01*
X160539419Y-94708056D01*
X160539780Y-94293762D01*
X160381571Y-93910865D01*
X160088876Y-93617659D01*
X159797330Y-93496598D01*
X160087335Y-93376771D01*
X160380541Y-93084076D01*
X160539419Y-92701456D01*
X160539780Y-92287162D01*
X160381571Y-91904265D01*
X160088876Y-91611059D01*
X159797330Y-91489998D01*
X160087335Y-91370171D01*
X160380541Y-91077476D01*
X160539419Y-90694856D01*
X160539780Y-90280562D01*
X160381571Y-89897665D01*
X160088876Y-89604459D01*
X159797330Y-89483398D01*
X160087335Y-89363571D01*
X160380541Y-89070876D01*
X160539419Y-88688256D01*
X160539780Y-88273962D01*
X160381571Y-87891065D01*
X160088876Y-87597859D01*
X159797330Y-87476798D01*
X160087335Y-87356971D01*
X160380541Y-87064276D01*
X160539419Y-86681656D01*
X160539780Y-86267362D01*
X160381571Y-85884465D01*
X160088876Y-85591259D01*
X159797330Y-85470198D01*
X160087335Y-85350371D01*
X160380541Y-85057676D01*
X160539419Y-84675056D01*
X160539780Y-84260762D01*
X160381571Y-83877865D01*
X160088876Y-83584659D01*
X159797330Y-83463598D01*
X160087335Y-83343771D01*
X160380541Y-83051076D01*
X160539419Y-82668456D01*
X160539780Y-82254162D01*
X160381571Y-81871265D01*
X160088876Y-81578059D01*
X159797330Y-81456998D01*
X160087335Y-81337171D01*
X160380541Y-81044476D01*
X160539419Y-80661856D01*
X160539780Y-80247562D01*
X160381571Y-79864665D01*
X160088876Y-79571459D01*
X159797330Y-79450398D01*
X160087335Y-79330571D01*
X160380541Y-79037876D01*
X160539419Y-78655256D01*
X160539780Y-78240962D01*
X160381571Y-77858065D01*
X160088876Y-77564859D01*
X159797330Y-77443798D01*
X160087335Y-77323971D01*
X160380541Y-77031276D01*
X160539419Y-76648656D01*
X160539780Y-76234362D01*
X160381571Y-75851465D01*
X160088876Y-75558259D01*
X159706256Y-75399381D01*
X159291962Y-75399020D01*
X158909065Y-75557229D01*
X158615859Y-75849924D01*
X158456981Y-76232544D01*
X158456620Y-76646838D01*
X138543020Y-76646838D01*
X138543380Y-76234362D01*
X138385171Y-75851465D01*
X138092476Y-75558259D01*
X137709856Y-75399381D01*
X137295562Y-75399020D01*
X136912665Y-75557229D01*
X136619459Y-75849924D01*
X136460581Y-76232544D01*
X136460220Y-76646838D01*
X133975595Y-76646838D01*
X134065556Y-76512203D01*
X134151526Y-76080000D01*
X134065556Y-75647797D01*
X133820732Y-75281394D01*
X133454329Y-75036570D01*
X133022126Y-74950600D01*
X132977874Y-74950600D01*
X132545671Y-75036570D01*
X132179268Y-75281394D01*
X131934444Y-75647797D01*
X131848474Y-76080000D01*
X131611526Y-76080000D01*
X131525556Y-75647797D01*
X131280732Y-75281394D01*
X130914329Y-75036570D01*
X130482126Y-74950600D01*
X130437874Y-74950600D01*
X130005671Y-75036570D01*
X129639268Y-75281394D01*
X129394444Y-75647797D01*
X129394364Y-75648200D01*
X124778857Y-75648200D01*
X122670658Y-73540000D01*
X129308474Y-73540000D01*
X129394444Y-73972203D01*
X129639268Y-74338606D01*
X130005671Y-74583430D01*
X130437874Y-74669400D01*
X130482126Y-74669400D01*
X130914329Y-74583430D01*
X131280732Y-74338606D01*
X131525556Y-73972203D01*
X131611526Y-73540000D01*
X131848474Y-73540000D01*
X131934444Y-73972203D01*
X132179268Y-74338606D01*
X132545671Y-74583430D01*
X132977874Y-74669400D01*
X133022126Y-74669400D01*
X133454329Y-74583430D01*
X133820732Y-74338606D01*
X134065556Y-73972203D01*
X134109530Y-73751128D01*
X136988462Y-70872196D01*
X155370274Y-70872196D01*
X155655793Y-71563204D01*
X156184015Y-72092349D01*
X156874524Y-72379073D01*
X157622196Y-72379726D01*
X158313204Y-72094207D01*
X158842349Y-71565985D01*
X159129073Y-70875476D01*
X159129726Y-70127804D01*
X158844207Y-69436796D01*
X158315985Y-68907651D01*
X157625476Y-68620927D01*
X156877804Y-68620274D01*
X156186796Y-68905793D01*
X155657651Y-69434015D01*
X155370927Y-70124524D01*
X155370274Y-70872196D01*
X136988462Y-70872196D01*
X139705329Y-68155329D01*
X139798931Y-68015243D01*
X139831800Y-67850000D01*
X139831800Y-66541435D01*
X140069135Y-66443371D01*
X140362341Y-66150676D01*
X140521219Y-65768056D01*
X140521220Y-65766238D01*
X140978420Y-65766238D01*
X141136629Y-66149135D01*
X141429324Y-66442341D01*
X141811944Y-66601219D01*
X142226238Y-66601580D01*
X142609135Y-66443371D01*
X142735162Y-66317563D01*
X143982042Y-66317563D01*
X144073789Y-66445276D01*
X144449580Y-66563954D01*
X144842182Y-66529788D01*
X145046211Y-66445276D01*
X145137958Y-66317563D01*
X146522042Y-66317563D01*
X146613789Y-66445276D01*
X146989580Y-66563954D01*
X147382182Y-66529788D01*
X147586211Y-66445276D01*
X147677958Y-66317563D01*
X147100000Y-65739605D01*
X146522042Y-66317563D01*
X145137958Y-66317563D01*
X144560000Y-65739605D01*
X143982042Y-66317563D01*
X142735162Y-66317563D01*
X142902341Y-66150676D01*
X143061219Y-65768056D01*
X143061496Y-65449580D01*
X143556046Y-65449580D01*
X143590212Y-65842182D01*
X143674724Y-66046211D01*
X143802437Y-66137958D01*
X144380395Y-65560000D01*
X144739605Y-65560000D01*
X145317563Y-66137958D01*
X145445276Y-66046211D01*
X145563954Y-65670420D01*
X145544736Y-65449580D01*
X146096046Y-65449580D01*
X146130212Y-65842182D01*
X146214724Y-66046211D01*
X146342437Y-66137958D01*
X146920395Y-65560000D01*
X147279605Y-65560000D01*
X147857563Y-66137958D01*
X147985276Y-66046211D01*
X148073693Y-65766238D01*
X148598420Y-65766238D01*
X148756629Y-66149135D01*
X149049324Y-66442341D01*
X149431944Y-66601219D01*
X149846238Y-66601580D01*
X150229135Y-66443371D01*
X150522341Y-66150676D01*
X150681219Y-65768056D01*
X150681220Y-65766238D01*
X151138420Y-65766238D01*
X151296629Y-66149135D01*
X151589324Y-66442341D01*
X151971944Y-66601219D01*
X152386238Y-66601580D01*
X152769135Y-66443371D01*
X153062341Y-66150676D01*
X153221219Y-65768056D01*
X153221220Y-65766238D01*
X153678420Y-65766238D01*
X153836629Y-66149135D01*
X154129324Y-66442341D01*
X154511944Y-66601219D01*
X154926238Y-66601580D01*
X155309135Y-66443371D01*
X155602341Y-66150676D01*
X155761219Y-65768056D01*
X155761220Y-65766238D01*
X156218420Y-65766238D01*
X156376629Y-66149135D01*
X156669324Y-66442341D01*
X157051944Y-66601219D01*
X157466238Y-66601580D01*
X157849135Y-66443371D01*
X158142341Y-66150676D01*
X158301219Y-65768056D01*
X158301580Y-65353762D01*
X158143371Y-64970865D01*
X157850676Y-64677659D01*
X157468056Y-64518781D01*
X157053762Y-64518420D01*
X156670865Y-64676629D01*
X156377659Y-64969324D01*
X156218781Y-65351944D01*
X156218420Y-65766238D01*
X155761220Y-65766238D01*
X155761580Y-65353762D01*
X155603371Y-64970865D01*
X155310676Y-64677659D01*
X154928056Y-64518781D01*
X154513762Y-64518420D01*
X154130865Y-64676629D01*
X153837659Y-64969324D01*
X153678781Y-65351944D01*
X153678420Y-65766238D01*
X153221220Y-65766238D01*
X153221580Y-65353762D01*
X153063371Y-64970865D01*
X152770676Y-64677659D01*
X152388056Y-64518781D01*
X151973762Y-64518420D01*
X151590865Y-64676629D01*
X151297659Y-64969324D01*
X151138781Y-65351944D01*
X151138420Y-65766238D01*
X150681220Y-65766238D01*
X150681580Y-65353762D01*
X150523371Y-64970865D01*
X150230676Y-64677659D01*
X149848056Y-64518781D01*
X149433762Y-64518420D01*
X149050865Y-64676629D01*
X148757659Y-64969324D01*
X148598781Y-65351944D01*
X148598420Y-65766238D01*
X148073693Y-65766238D01*
X148103954Y-65670420D01*
X148069788Y-65277818D01*
X147985276Y-65073789D01*
X147857563Y-64982042D01*
X147279605Y-65560000D01*
X146920395Y-65560000D01*
X146342437Y-64982042D01*
X146214724Y-65073789D01*
X146096046Y-65449580D01*
X145544736Y-65449580D01*
X145529788Y-65277818D01*
X145445276Y-65073789D01*
X145317563Y-64982042D01*
X144739605Y-65560000D01*
X144380395Y-65560000D01*
X143802437Y-64982042D01*
X143674724Y-65073789D01*
X143556046Y-65449580D01*
X143061496Y-65449580D01*
X143061580Y-65353762D01*
X142903371Y-64970865D01*
X142735237Y-64802437D01*
X143982042Y-64802437D01*
X144560000Y-65380395D01*
X145137958Y-64802437D01*
X146522042Y-64802437D01*
X147100000Y-65380395D01*
X147677958Y-64802437D01*
X147586211Y-64674724D01*
X147210420Y-64556046D01*
X146817818Y-64590212D01*
X146613789Y-64674724D01*
X146522042Y-64802437D01*
X145137958Y-64802437D01*
X145046211Y-64674724D01*
X144670420Y-64556046D01*
X144277818Y-64590212D01*
X144073789Y-64674724D01*
X143982042Y-64802437D01*
X142735237Y-64802437D01*
X142610676Y-64677659D01*
X142228056Y-64518781D01*
X141813762Y-64518420D01*
X141430865Y-64676629D01*
X141137659Y-64969324D01*
X140978781Y-65351944D01*
X140978420Y-65766238D01*
X140521220Y-65766238D01*
X140521580Y-65353762D01*
X140363371Y-64970865D01*
X140070676Y-64677659D01*
X139688056Y-64518781D01*
X139273762Y-64518420D01*
X138890865Y-64676629D01*
X138597659Y-64969324D01*
X138438781Y-65351944D01*
X138438420Y-65766238D01*
X138596629Y-66149135D01*
X138889324Y-66442341D01*
X138968200Y-66475093D01*
X138968200Y-67671142D01*
X133851660Y-72787682D01*
X133820732Y-72741394D01*
X133454329Y-72496570D01*
X133022126Y-72410600D01*
X132977874Y-72410600D01*
X132545671Y-72496570D01*
X132179268Y-72741394D01*
X131934444Y-73107797D01*
X131848474Y-73540000D01*
X131611526Y-73540000D01*
X131525556Y-73107797D01*
X131280732Y-72741394D01*
X130914329Y-72496570D01*
X130482126Y-72410600D01*
X130437874Y-72410600D01*
X130005671Y-72496570D01*
X129639268Y-72741394D01*
X129394444Y-73107797D01*
X129308474Y-73540000D01*
X122670658Y-73540000D01*
X119280658Y-70150000D01*
X131865127Y-70150000D01*
X131865127Y-71850000D01*
X131884609Y-71953539D01*
X131945801Y-72048634D01*
X132039168Y-72112429D01*
X132150000Y-72134873D01*
X133850000Y-72134873D01*
X133953539Y-72115391D01*
X134048634Y-72054199D01*
X134112429Y-71960832D01*
X134134873Y-71850000D01*
X134134873Y-70150000D01*
X134115391Y-70046461D01*
X134054199Y-69951366D01*
X133960832Y-69887571D01*
X133850000Y-69865127D01*
X132150000Y-69865127D01*
X132046461Y-69884609D01*
X131951366Y-69945801D01*
X131887571Y-70039168D01*
X131865127Y-70150000D01*
X119280658Y-70150000D01*
X115055935Y-65925277D01*
X115121219Y-65768056D01*
X115121220Y-65766238D01*
X115578420Y-65766238D01*
X115736629Y-66149135D01*
X116029324Y-66442341D01*
X116411944Y-66601219D01*
X116826238Y-66601580D01*
X117209135Y-66443371D01*
X117335162Y-66317563D01*
X118582042Y-66317563D01*
X118673789Y-66445276D01*
X119049580Y-66563954D01*
X119442182Y-66529788D01*
X119646211Y-66445276D01*
X119737958Y-66317563D01*
X121122042Y-66317563D01*
X121213789Y-66445276D01*
X121589580Y-66563954D01*
X121982182Y-66529788D01*
X122186211Y-66445276D01*
X122277958Y-66317563D01*
X123662042Y-66317563D01*
X123753789Y-66445276D01*
X124129580Y-66563954D01*
X124522182Y-66529788D01*
X124726211Y-66445276D01*
X124817958Y-66317563D01*
X126202042Y-66317563D01*
X126293789Y-66445276D01*
X126669580Y-66563954D01*
X127062182Y-66529788D01*
X127266211Y-66445276D01*
X127357958Y-66317563D01*
X128742042Y-66317563D01*
X128833789Y-66445276D01*
X129209580Y-66563954D01*
X129602182Y-66529788D01*
X129806211Y-66445276D01*
X129897958Y-66317563D01*
X131282042Y-66317563D01*
X131373789Y-66445276D01*
X131749580Y-66563954D01*
X132142182Y-66529788D01*
X132346211Y-66445276D01*
X132437958Y-66317563D01*
X133822042Y-66317563D01*
X133913789Y-66445276D01*
X134289580Y-66563954D01*
X134682182Y-66529788D01*
X134886211Y-66445276D01*
X134977958Y-66317563D01*
X134400000Y-65739605D01*
X133822042Y-66317563D01*
X132437958Y-66317563D01*
X131860000Y-65739605D01*
X131282042Y-66317563D01*
X129897958Y-66317563D01*
X129320000Y-65739605D01*
X128742042Y-66317563D01*
X127357958Y-66317563D01*
X126780000Y-65739605D01*
X126202042Y-66317563D01*
X124817958Y-66317563D01*
X124240000Y-65739605D01*
X123662042Y-66317563D01*
X122277958Y-66317563D01*
X121700000Y-65739605D01*
X121122042Y-66317563D01*
X119737958Y-66317563D01*
X119160000Y-65739605D01*
X118582042Y-66317563D01*
X117335162Y-66317563D01*
X117502341Y-66150676D01*
X117661219Y-65768056D01*
X117661496Y-65449580D01*
X118156046Y-65449580D01*
X118190212Y-65842182D01*
X118274724Y-66046211D01*
X118402437Y-66137958D01*
X118980395Y-65560000D01*
X119339605Y-65560000D01*
X119917563Y-66137958D01*
X120045276Y-66046211D01*
X120163954Y-65670420D01*
X120144736Y-65449580D01*
X120696046Y-65449580D01*
X120730212Y-65842182D01*
X120814724Y-66046211D01*
X120942437Y-66137958D01*
X121520395Y-65560000D01*
X121879605Y-65560000D01*
X122457563Y-66137958D01*
X122585276Y-66046211D01*
X122703954Y-65670420D01*
X122684736Y-65449580D01*
X123236046Y-65449580D01*
X123270212Y-65842182D01*
X123354724Y-66046211D01*
X123482437Y-66137958D01*
X124060395Y-65560000D01*
X124419605Y-65560000D01*
X124997563Y-66137958D01*
X125125276Y-66046211D01*
X125243954Y-65670420D01*
X125224736Y-65449580D01*
X125776046Y-65449580D01*
X125810212Y-65842182D01*
X125894724Y-66046211D01*
X126022437Y-66137958D01*
X126600395Y-65560000D01*
X126959605Y-65560000D01*
X127537563Y-66137958D01*
X127665276Y-66046211D01*
X127783954Y-65670420D01*
X127764736Y-65449580D01*
X128316046Y-65449580D01*
X128350212Y-65842182D01*
X128434724Y-66046211D01*
X128562437Y-66137958D01*
X129140395Y-65560000D01*
X129499605Y-65560000D01*
X130077563Y-66137958D01*
X130205276Y-66046211D01*
X130323954Y-65670420D01*
X130304736Y-65449580D01*
X130856046Y-65449580D01*
X130890212Y-65842182D01*
X130974724Y-66046211D01*
X131102437Y-66137958D01*
X131680395Y-65560000D01*
X132039605Y-65560000D01*
X132617563Y-66137958D01*
X132745276Y-66046211D01*
X132863954Y-65670420D01*
X132844736Y-65449580D01*
X133396046Y-65449580D01*
X133430212Y-65842182D01*
X133514724Y-66046211D01*
X133642437Y-66137958D01*
X134220395Y-65560000D01*
X134579605Y-65560000D01*
X135157563Y-66137958D01*
X135285276Y-66046211D01*
X135373693Y-65766238D01*
X135898420Y-65766238D01*
X136056629Y-66149135D01*
X136349324Y-66442341D01*
X136731944Y-66601219D01*
X137146238Y-66601580D01*
X137529135Y-66443371D01*
X137822341Y-66150676D01*
X137981219Y-65768056D01*
X137981580Y-65353762D01*
X137823371Y-64970865D01*
X137530676Y-64677659D01*
X137148056Y-64518781D01*
X136733762Y-64518420D01*
X136350865Y-64676629D01*
X136057659Y-64969324D01*
X135898781Y-65351944D01*
X135898420Y-65766238D01*
X135373693Y-65766238D01*
X135403954Y-65670420D01*
X135369788Y-65277818D01*
X135285276Y-65073789D01*
X135157563Y-64982042D01*
X134579605Y-65560000D01*
X134220395Y-65560000D01*
X133642437Y-64982042D01*
X133514724Y-65073789D01*
X133396046Y-65449580D01*
X132844736Y-65449580D01*
X132829788Y-65277818D01*
X132745276Y-65073789D01*
X132617563Y-64982042D01*
X132039605Y-65560000D01*
X131680395Y-65560000D01*
X131102437Y-64982042D01*
X130974724Y-65073789D01*
X130856046Y-65449580D01*
X130304736Y-65449580D01*
X130289788Y-65277818D01*
X130205276Y-65073789D01*
X130077563Y-64982042D01*
X129499605Y-65560000D01*
X129140395Y-65560000D01*
X128562437Y-64982042D01*
X128434724Y-65073789D01*
X128316046Y-65449580D01*
X127764736Y-65449580D01*
X127749788Y-65277818D01*
X127665276Y-65073789D01*
X127537563Y-64982042D01*
X126959605Y-65560000D01*
X126600395Y-65560000D01*
X126022437Y-64982042D01*
X125894724Y-65073789D01*
X125776046Y-65449580D01*
X125224736Y-65449580D01*
X125209788Y-65277818D01*
X125125276Y-65073789D01*
X124997563Y-64982042D01*
X124419605Y-65560000D01*
X124060395Y-65560000D01*
X123482437Y-64982042D01*
X123354724Y-65073789D01*
X123236046Y-65449580D01*
X122684736Y-65449580D01*
X122669788Y-65277818D01*
X122585276Y-65073789D01*
X122457563Y-64982042D01*
X121879605Y-65560000D01*
X121520395Y-65560000D01*
X120942437Y-64982042D01*
X120814724Y-65073789D01*
X120696046Y-65449580D01*
X120144736Y-65449580D01*
X120129788Y-65277818D01*
X120045276Y-65073789D01*
X119917563Y-64982042D01*
X119339605Y-65560000D01*
X118980395Y-65560000D01*
X118402437Y-64982042D01*
X118274724Y-65073789D01*
X118156046Y-65449580D01*
X117661496Y-65449580D01*
X117661580Y-65353762D01*
X117503371Y-64970865D01*
X117335237Y-64802437D01*
X118582042Y-64802437D01*
X119160000Y-65380395D01*
X119737958Y-64802437D01*
X121122042Y-64802437D01*
X121700000Y-65380395D01*
X122277958Y-64802437D01*
X123662042Y-64802437D01*
X124240000Y-65380395D01*
X124817958Y-64802437D01*
X126202042Y-64802437D01*
X126780000Y-65380395D01*
X127357958Y-64802437D01*
X128742042Y-64802437D01*
X129320000Y-65380395D01*
X129897958Y-64802437D01*
X131282042Y-64802437D01*
X131860000Y-65380395D01*
X132437958Y-64802437D01*
X133822042Y-64802437D01*
X134400000Y-65380395D01*
X134977958Y-64802437D01*
X134886211Y-64674724D01*
X134510420Y-64556046D01*
X134117818Y-64590212D01*
X133913789Y-64674724D01*
X133822042Y-64802437D01*
X132437958Y-64802437D01*
X132346211Y-64674724D01*
X131970420Y-64556046D01*
X131577818Y-64590212D01*
X131373789Y-64674724D01*
X131282042Y-64802437D01*
X129897958Y-64802437D01*
X129806211Y-64674724D01*
X129430420Y-64556046D01*
X129037818Y-64590212D01*
X128833789Y-64674724D01*
X128742042Y-64802437D01*
X127357958Y-64802437D01*
X127266211Y-64674724D01*
X126890420Y-64556046D01*
X126497818Y-64590212D01*
X126293789Y-64674724D01*
X126202042Y-64802437D01*
X124817958Y-64802437D01*
X124726211Y-64674724D01*
X124350420Y-64556046D01*
X123957818Y-64590212D01*
X123753789Y-64674724D01*
X123662042Y-64802437D01*
X122277958Y-64802437D01*
X122186211Y-64674724D01*
X121810420Y-64556046D01*
X121417818Y-64590212D01*
X121213789Y-64674724D01*
X121122042Y-64802437D01*
X119737958Y-64802437D01*
X119646211Y-64674724D01*
X119270420Y-64556046D01*
X118877818Y-64590212D01*
X118673789Y-64674724D01*
X118582042Y-64802437D01*
X117335237Y-64802437D01*
X117210676Y-64677659D01*
X116828056Y-64518781D01*
X116413762Y-64518420D01*
X116030865Y-64676629D01*
X115737659Y-64969324D01*
X115578781Y-65351944D01*
X115578420Y-65766238D01*
X115121220Y-65766238D01*
X115121580Y-65353762D01*
X114963371Y-64970865D01*
X114670676Y-64677659D01*
X114288056Y-64518781D01*
X113873762Y-64518420D01*
X113490865Y-64676629D01*
X113197659Y-64969324D01*
X113038781Y-65351944D01*
X113038420Y-65766238D01*
X112581220Y-65766238D01*
X112581580Y-65353762D01*
X112423371Y-64970865D01*
X112130676Y-64677659D01*
X111748056Y-64518781D01*
X111333762Y-64518420D01*
X110950865Y-64676629D01*
X110657659Y-64969324D01*
X110498781Y-65351944D01*
X110498420Y-65766238D01*
X109973693Y-65766238D01*
X110003954Y-65670420D01*
X109969788Y-65277818D01*
X109885276Y-65073789D01*
X109757563Y-64982042D01*
X109179605Y-65560000D01*
X108820395Y-65560000D01*
X108242437Y-64982042D01*
X108114724Y-65073789D01*
X107996046Y-65449580D01*
X107803600Y-65449580D01*
X107803600Y-64802437D01*
X108422042Y-64802437D01*
X109000000Y-65380395D01*
X109577958Y-64802437D01*
X109486211Y-64674724D01*
X109110420Y-64556046D01*
X108717818Y-64590212D01*
X108513789Y-64674724D01*
X108422042Y-64802437D01*
X107803600Y-64802437D01*
X107803600Y-64303600D01*
X160696400Y-64303600D01*
X160696400Y-102196400D01*
X160696400Y-102196400D01*
G37*
X160696400Y-102196400D02*
X107803600Y-102196400D01*
X107803600Y-99122196D01*
X110120274Y-99122196D01*
X110405793Y-99813204D01*
X110934015Y-100342349D01*
X111624524Y-100629073D01*
X112372196Y-100629726D01*
X113063204Y-100344207D01*
X113592349Y-99815985D01*
X113868889Y-99150000D01*
X120365127Y-99150000D01*
X120365127Y-100850000D01*
X120384609Y-100953539D01*
X120445801Y-101048634D01*
X120539168Y-101112429D01*
X120650000Y-101134873D01*
X122350000Y-101134873D01*
X122453539Y-101115391D01*
X122548634Y-101054199D01*
X122612429Y-100960832D01*
X122634873Y-100850000D01*
X122634873Y-99150000D01*
X123865127Y-99150000D01*
X123865127Y-100850000D01*
X123884609Y-100953539D01*
X123945801Y-101048634D01*
X124039168Y-101112429D01*
X124150000Y-101134873D01*
X125850000Y-101134873D01*
X125953539Y-101115391D01*
X126048634Y-101054199D01*
X126112429Y-100960832D01*
X126134873Y-100850000D01*
X126134873Y-99475784D01*
X126305326Y-99305331D01*
X126305329Y-99305329D01*
X126398931Y-99165243D01*
X126398932Y-99165242D01*
X126431801Y-99000000D01*
X126431800Y-98999995D01*
X126431800Y-96909873D01*
X126500000Y-96909873D01*
X126603539Y-96890391D01*
X126698634Y-96829199D01*
X126762429Y-96735832D01*
X126784873Y-96625000D01*
X126784873Y-95375000D01*
X126765391Y-95271461D01*
X126704199Y-95176366D01*
X126610832Y-95112571D01*
X126500000Y-95090127D01*
X125500000Y-95090127D01*
X125396461Y-95109609D01*
X125301366Y-95170801D01*
X125237571Y-95264168D01*
X125215127Y-95375000D01*
X125215127Y-96625000D01*
X125234609Y-96728539D01*
X125295801Y-96823634D01*
X125389168Y-96887429D01*
X125500000Y-96909873D01*
X125568200Y-96909873D01*
X125568200Y-98821143D01*
X125524216Y-98865127D01*
X124150000Y-98865127D01*
X124046461Y-98884609D01*
X123951366Y-98945801D01*
X123887571Y-99039168D01*
X123865127Y-99150000D01*
X122634873Y-99150000D01*
X122615391Y-99046461D01*
X122554199Y-98951366D01*
X122460832Y-98887571D01*
X122350000Y-98865127D01*
X120650000Y-98865127D01*
X120546461Y-98884609D01*
X120451366Y-98945801D01*
X120387571Y-99039168D01*
X120365127Y-99150000D01*
X113868889Y-99150000D01*
X113879073Y-99125476D01*
X113879726Y-98377804D01*
X113594207Y-97686796D01*
X113065985Y-97157651D01*
X112375476Y-96870927D01*
X111627804Y-96870274D01*
X110936796Y-97155793D01*
X110407651Y-97684015D01*
X110120927Y-98374524D01*
X110120274Y-99122196D01*
X107803600Y-99122196D01*
X107803600Y-93706238D01*
X107958420Y-93706238D01*
X108116629Y-94089135D01*
X108409324Y-94382341D01*
X108791944Y-94541219D01*
X109206238Y-94541580D01*
X109589135Y-94383371D01*
X109882341Y-94090676D01*
X110041219Y-93708056D01*
X110041220Y-93706238D01*
X110498420Y-93706238D01*
X110656629Y-94089135D01*
X110949324Y-94382341D01*
X111331944Y-94541219D01*
X111746238Y-94541580D01*
X112129135Y-94383371D01*
X112422341Y-94090676D01*
X112581219Y-93708056D01*
X112581580Y-93293762D01*
X112423371Y-92910865D01*
X112130676Y-92617659D01*
X111748056Y-92458781D01*
X111333762Y-92458420D01*
X110950865Y-92616629D01*
X110657659Y-92909324D01*
X110498781Y-93291944D01*
X110498420Y-93706238D01*
X110041220Y-93706238D01*
X110041580Y-93293762D01*
X109883371Y-92910865D01*
X109590676Y-92617659D01*
X109208056Y-92458781D01*
X108793762Y-92458420D01*
X108410865Y-92616629D01*
X108117659Y-92909324D01*
X107958781Y-93291944D01*
X107958420Y-93706238D01*
X107803600Y-93706238D01*
X107803600Y-90850000D01*
X124915127Y-90850000D01*
X124915127Y-92150000D01*
X124934609Y-92253539D01*
X124995801Y-92348634D01*
X125089168Y-92412429D01*
X125118200Y-92418308D01*
X125118200Y-92550000D01*
X125151069Y-92715243D01*
X125218773Y-92816570D01*
X125244671Y-92855329D01*
X127482720Y-95093378D01*
X127396461Y-95109609D01*
X127301366Y-95170801D01*
X127237571Y-95264168D01*
X127215127Y-95375000D01*
X127215127Y-96625000D01*
X127234609Y-96728539D01*
X127295801Y-96823634D01*
X127389168Y-96887429D01*
X127500000Y-96909873D01*
X127568200Y-96909873D01*
X127568200Y-97000000D01*
X127601069Y-97165243D01*
X127694671Y-97305329D01*
X130194671Y-99805329D01*
X130334757Y-99898931D01*
X130500000Y-99931800D01*
X131365127Y-99931800D01*
X131365127Y-100350000D01*
X131384609Y-100453539D01*
X131445801Y-100548634D01*
X131539168Y-100612429D01*
X131650000Y-100634873D01*
X133350000Y-100634873D01*
X133453539Y-100615391D01*
X133548634Y-100554199D01*
X133612429Y-100460832D01*
X133634873Y-100350000D01*
X133634873Y-99477874D01*
X133910600Y-99477874D01*
X133910600Y-99522126D01*
X133996570Y-99954329D01*
X134241394Y-100320732D01*
X134607797Y-100565556D01*
X135040000Y-100651526D01*
X135472203Y-100565556D01*
X135838606Y-100320732D01*
X136083430Y-99954329D01*
X136169400Y-99522126D01*
X136169400Y-99477874D01*
X136083430Y-99045671D01*
X135838606Y-98679268D01*
X135472203Y-98434444D01*
X135040000Y-98348474D01*
X134607797Y-98434444D01*
X134241394Y-98679268D01*
X133996570Y-99045671D01*
X133910600Y-99477874D01*
X133634873Y-99477874D01*
X133634873Y-98650000D01*
X133615391Y-98546461D01*
X133554199Y-98451366D01*
X133460832Y-98387571D01*
X133350000Y-98365127D01*
X131650000Y-98365127D01*
X131546461Y-98384609D01*
X131451366Y-98445801D01*
X131387571Y-98539168D01*
X131365127Y-98650000D01*
X131365127Y-99068200D01*
X130678858Y-99068200D01*
X128517280Y-96906622D01*
X128603539Y-96890391D01*
X128698634Y-96829199D01*
X128762429Y-96735832D01*
X128784873Y-96625000D01*
X128784873Y-95375000D01*
X128765391Y-95271461D01*
X128756448Y-95257563D01*
X136923842Y-95257563D01*
X137015589Y-95385276D01*
X137391380Y-95503954D01*
X137783982Y-95469788D01*
X137988011Y-95385276D01*
X138079758Y-95257563D01*
X137501800Y-94679605D01*
X136923842Y-95257563D01*
X128756448Y-95257563D01*
X128704199Y-95176366D01*
X128610832Y-95112571D01*
X128500000Y-95090127D01*
X128431800Y-95090127D01*
X128431800Y-95000000D01*
X128398931Y-94834757D01*
X128305329Y-94694671D01*
X127470658Y-93860000D01*
X131848474Y-93860000D01*
X131934444Y-94292203D01*
X132179268Y-94658606D01*
X132545671Y-94903430D01*
X132977874Y-94989400D01*
X133022126Y-94989400D01*
X133454329Y-94903430D01*
X133820732Y-94658606D01*
X134000490Y-94389580D01*
X136497846Y-94389580D01*
X136532012Y-94782182D01*
X136616524Y-94986211D01*
X136744237Y-95077958D01*
X137322195Y-94500000D01*
X137681405Y-94500000D01*
X138259363Y-95077958D01*
X138387076Y-94986211D01*
X138505754Y-94610420D01*
X138471588Y-94217818D01*
X138387076Y-94013789D01*
X138259363Y-93922042D01*
X137681405Y-94500000D01*
X137322195Y-94500000D01*
X136744237Y-93922042D01*
X136616524Y-94013789D01*
X136497846Y-94389580D01*
X134000490Y-94389580D01*
X134065556Y-94292203D01*
X134151526Y-93860000D01*
X134065556Y-93427797D01*
X133820732Y-93061394D01*
X133454329Y-92816570D01*
X133022126Y-92730600D01*
X132977874Y-92730600D01*
X132545671Y-92816570D01*
X132179268Y-93061394D01*
X131934444Y-93427797D01*
X131848474Y-93860000D01*
X127470658Y-93860000D01*
X126017236Y-92406578D01*
X126098634Y-92354199D01*
X126162429Y-92260832D01*
X126184873Y-92150000D01*
X126184873Y-90850000D01*
X126815127Y-90850000D01*
X126815127Y-92150000D01*
X126834609Y-92253539D01*
X126895801Y-92348634D01*
X126989168Y-92412429D01*
X127100000Y-92434873D01*
X127800000Y-92434873D01*
X127903539Y-92415391D01*
X127998634Y-92354199D01*
X128062429Y-92260832D01*
X128084873Y-92150000D01*
X128084873Y-91931800D01*
X129514448Y-91931800D01*
X129639268Y-92118606D01*
X130005671Y-92363430D01*
X130437874Y-92449400D01*
X130482126Y-92449400D01*
X130914329Y-92363430D01*
X131280732Y-92118606D01*
X131525556Y-91752203D01*
X131611526Y-91320000D01*
X131848474Y-91320000D01*
X131934444Y-91752203D01*
X132179268Y-92118606D01*
X132545671Y-92363430D01*
X132977874Y-92449400D01*
X133022126Y-92449400D01*
X133454329Y-92363430D01*
X133820732Y-92118606D01*
X134065556Y-91752203D01*
X134151526Y-91320000D01*
X134065556Y-90887797D01*
X133820732Y-90521394D01*
X133454329Y-90276570D01*
X133022126Y-90190600D01*
X132977874Y-90190600D01*
X132545671Y-90276570D01*
X132179268Y-90521394D01*
X131934444Y-90887797D01*
X131848474Y-91320000D01*
X131611526Y-91320000D01*
X131525556Y-90887797D01*
X131280732Y-90521394D01*
X130914329Y-90276570D01*
X130482126Y-90190600D01*
X130437874Y-90190600D01*
X130005671Y-90276570D01*
X129639268Y-90521394D01*
X129394444Y-90887797D01*
X129358560Y-91068200D01*
X128084873Y-91068200D01*
X128084873Y-90850000D01*
X128065391Y-90746461D01*
X128004199Y-90651366D01*
X127910832Y-90587571D01*
X127800000Y-90565127D01*
X127100000Y-90565127D01*
X126996461Y-90584609D01*
X126901366Y-90645801D01*
X126837571Y-90739168D01*
X126815127Y-90850000D01*
X126184873Y-90850000D01*
X126165391Y-90746461D01*
X126104199Y-90651366D01*
X126010832Y-90587571D01*
X125900000Y-90565127D01*
X125200000Y-90565127D01*
X125096461Y-90584609D01*
X125001366Y-90645801D01*
X124937571Y-90739168D01*
X124915127Y-90850000D01*
X107803600Y-90850000D01*
X107803600Y-72122196D01*
X110120274Y-72122196D01*
X110405793Y-72813204D01*
X110934015Y-73342349D01*
X111624524Y-73629073D01*
X112372196Y-73629726D01*
X113063204Y-73344207D01*
X113592349Y-72815985D01*
X113879073Y-72125476D01*
X113879726Y-71377804D01*
X113594207Y-70686796D01*
X113065985Y-70157651D01*
X112375476Y-69870927D01*
X111627804Y-69870274D01*
X110936796Y-70155793D01*
X110407651Y-70684015D01*
X110120927Y-71374524D01*
X110120274Y-72122196D01*
X107803600Y-72122196D01*
X107803600Y-66317563D01*
X108422042Y-66317563D01*
X108513789Y-66445276D01*
X108889580Y-66563954D01*
X109282182Y-66529788D01*
X109486211Y-66445276D01*
X109577958Y-66317563D01*
X109000000Y-65739605D01*
X108422042Y-66317563D01*
X107803600Y-66317563D01*
X107803600Y-65449580D01*
X107996046Y-65449580D01*
X108030212Y-65842182D01*
X108114724Y-66046211D01*
X108242437Y-66137958D01*
X108820395Y-65560000D01*
X109179605Y-65560000D01*
X109757563Y-66137958D01*
X109885276Y-66046211D01*
X109973693Y-65766238D01*
X110498420Y-65766238D01*
X110656629Y-66149135D01*
X110949324Y-66442341D01*
X111331944Y-66601219D01*
X111746238Y-66601580D01*
X111905229Y-66535887D01*
X116535200Y-71165858D01*
X116535200Y-81153000D01*
X116568069Y-81318243D01*
X116635272Y-81418820D01*
X116661671Y-81458329D01*
X124508671Y-89305329D01*
X124648757Y-89398931D01*
X124676173Y-89404385D01*
X124814000Y-89431801D01*
X124814005Y-89431800D01*
X124915127Y-89431800D01*
X124915127Y-89650000D01*
X124934609Y-89753539D01*
X124995801Y-89848634D01*
X125089168Y-89912429D01*
X125200000Y-89934873D01*
X125900000Y-89934873D01*
X126003539Y-89915391D01*
X126098634Y-89854199D01*
X126162429Y-89760832D01*
X126184873Y-89650000D01*
X126184873Y-88350000D01*
X126815127Y-88350000D01*
X126815127Y-89650000D01*
X126834609Y-89753539D01*
X126895801Y-89848634D01*
X126989168Y-89912429D01*
X127100000Y-89934873D01*
X127800000Y-89934873D01*
X127903539Y-89915391D01*
X127998634Y-89854199D01*
X128062429Y-89760832D01*
X128084873Y-89650000D01*
X128084873Y-89431800D01*
X129541175Y-89431800D01*
X129639268Y-89578606D01*
X130005671Y-89823430D01*
X130437874Y-89909400D01*
X130482126Y-89909400D01*
X130914329Y-89823430D01*
X131280732Y-89578606D01*
X131525556Y-89212203D01*
X131611526Y-88780000D01*
X131848474Y-88780000D01*
X131934444Y-89212203D01*
X132179268Y-89578606D01*
X132545671Y-89823430D01*
X132977874Y-89909400D01*
X133022126Y-89909400D01*
X133454329Y-89823430D01*
X133820732Y-89578606D01*
X134065556Y-89212203D01*
X134151526Y-88780000D01*
X134065556Y-88347797D01*
X133820732Y-87981394D01*
X133454329Y-87736570D01*
X133022126Y-87650600D01*
X132977874Y-87650600D01*
X132545671Y-87736570D01*
X132179268Y-87981394D01*
X131934444Y-88347797D01*
X131848474Y-88780000D01*
X131611526Y-88780000D01*
X131525556Y-88347797D01*
X131280732Y-87981394D01*
X130914329Y-87736570D01*
X130482126Y-87650600D01*
X130437874Y-87650600D01*
X130005671Y-87736570D01*
X129639268Y-87981394D01*
X129394444Y-88347797D01*
X129350603Y-88568200D01*
X128084873Y-88568200D01*
X128084873Y-88350000D01*
X128065391Y-88246461D01*
X128004199Y-88151366D01*
X127910832Y-88087571D01*
X127800000Y-88065127D01*
X127100000Y-88065127D01*
X126996461Y-88084609D01*
X126901366Y-88145801D01*
X126837571Y-88239168D01*
X126815127Y-88350000D01*
X126184873Y-88350000D01*
X126165391Y-88246461D01*
X126104199Y-88151366D01*
X126010832Y-88087571D01*
X125900000Y-88065127D01*
X125200000Y-88065127D01*
X125096461Y-88084609D01*
X125001366Y-88145801D01*
X124937571Y-88239168D01*
X124915127Y-88350000D01*
X124915127Y-88490469D01*
X117398800Y-80974142D01*
X117398800Y-80023240D01*
X117677592Y-80023240D01*
X117772132Y-80252044D01*
X117947035Y-80427253D01*
X118175674Y-80522192D01*
X118311653Y-80522311D01*
X120244669Y-82455326D01*
X120244671Y-82455329D01*
X120311526Y-82500000D01*
X120384758Y-82548932D01*
X120550000Y-82581801D01*
X120550005Y-82581800D01*
X123680519Y-82581800D01*
X123684609Y-82603539D01*
X123745801Y-82698634D01*
X123839168Y-82762429D01*
X123950000Y-82784873D01*
X124624215Y-82784873D01*
X128384669Y-86545326D01*
X128384671Y-86545329D01*
X128520495Y-86636083D01*
X128524757Y-86638931D01*
X128690000Y-86671800D01*
X129394364Y-86671800D01*
X129394444Y-86672203D01*
X129639268Y-87038606D01*
X130005671Y-87283430D01*
X130437874Y-87369400D01*
X130482126Y-87369400D01*
X130914329Y-87283430D01*
X131280732Y-87038606D01*
X131525556Y-86672203D01*
X131611526Y-86240000D01*
X131532612Y-85843270D01*
X131861891Y-86172549D01*
X131848474Y-86240000D01*
X131934444Y-86672203D01*
X132179268Y-87038606D01*
X132545671Y-87283430D01*
X132977874Y-87369400D01*
X133022126Y-87369400D01*
X133454329Y-87283430D01*
X133820732Y-87038606D01*
X134065556Y-86672203D01*
X134151526Y-86240000D01*
X134065556Y-85807797D01*
X133820732Y-85441394D01*
X133454329Y-85196570D01*
X133022126Y-85110600D01*
X132977874Y-85110600D01*
X132545671Y-85196570D01*
X132282844Y-85372186D01*
X131605329Y-84694671D01*
X131573252Y-84673238D01*
X131465243Y-84601069D01*
X131300000Y-84568200D01*
X131086184Y-84568200D01*
X131127939Y-84546914D01*
X131401195Y-84226837D01*
X131498043Y-83992993D01*
X131473524Y-83827000D01*
X130587000Y-83827000D01*
X130587000Y-83847000D01*
X130333000Y-83847000D01*
X130333000Y-83827000D01*
X129446476Y-83827000D01*
X129426036Y-83965379D01*
X128867665Y-83407007D01*
X129421957Y-83407007D01*
X129446476Y-83573000D01*
X130333000Y-83573000D01*
X130333000Y-82686040D01*
X130587000Y-82686040D01*
X130587000Y-83573000D01*
X131473524Y-83573000D01*
X131498043Y-83407007D01*
X131401195Y-83173163D01*
X131127939Y-82853086D01*
X130752995Y-82661944D01*
X130587000Y-82686040D01*
X130333000Y-82686040D01*
X130167005Y-82661944D01*
X129792061Y-82853086D01*
X129518805Y-83173163D01*
X129421957Y-83407007D01*
X128867665Y-83407007D01*
X127934873Y-82474215D01*
X127934873Y-81800000D01*
X127915391Y-81696461D01*
X127854199Y-81601366D01*
X127760832Y-81537571D01*
X127650000Y-81515127D01*
X127125785Y-81515127D01*
X126770658Y-81160000D01*
X129308474Y-81160000D01*
X129394444Y-81592203D01*
X129639268Y-81958606D01*
X130005671Y-82203430D01*
X130437874Y-82289400D01*
X130482126Y-82289400D01*
X130914329Y-82203430D01*
X131280732Y-81958606D01*
X131525556Y-81592203D01*
X131611526Y-81160000D01*
X131525556Y-80727797D01*
X131280732Y-80361394D01*
X130914329Y-80116570D01*
X130482126Y-80030600D01*
X130437874Y-80030600D01*
X130005671Y-80116570D01*
X129639268Y-80361394D01*
X129394444Y-80727797D01*
X129308474Y-81160000D01*
X126770658Y-81160000D01*
X126505329Y-80894671D01*
X126406446Y-80828600D01*
X126815850Y-80828600D01*
X126873000Y-80771450D01*
X126873000Y-80377000D01*
X127127000Y-80377000D01*
X127127000Y-80771450D01*
X127184150Y-80828600D01*
X127695472Y-80828600D01*
X127779492Y-80793797D01*
X127843798Y-80729491D01*
X127878600Y-80645471D01*
X127878600Y-80434150D01*
X127821450Y-80377000D01*
X127127000Y-80377000D01*
X126873000Y-80377000D01*
X126178550Y-80377000D01*
X126121400Y-80434150D01*
X126121400Y-80645471D01*
X126156202Y-80729491D01*
X126194911Y-80768200D01*
X125405089Y-80768200D01*
X125443798Y-80729491D01*
X125478600Y-80645471D01*
X125478600Y-80434150D01*
X125421450Y-80377000D01*
X124727000Y-80377000D01*
X124727000Y-80397000D01*
X124473000Y-80397000D01*
X124473000Y-80377000D01*
X123778550Y-80377000D01*
X123721400Y-80434150D01*
X123721400Y-80645471D01*
X123756202Y-80729491D01*
X123794911Y-80768200D01*
X121178857Y-80768200D01*
X120322290Y-79911633D01*
X120322339Y-79854529D01*
X123721400Y-79854529D01*
X123721400Y-80065850D01*
X123778550Y-80123000D01*
X124473000Y-80123000D01*
X124473000Y-79728550D01*
X124727000Y-79728550D01*
X124727000Y-80123000D01*
X125421450Y-80123000D01*
X125478600Y-80065850D01*
X125478600Y-79854529D01*
X126121400Y-79854529D01*
X126121400Y-80065850D01*
X126178550Y-80123000D01*
X126873000Y-80123000D01*
X126873000Y-79728550D01*
X127127000Y-79728550D01*
X127127000Y-80123000D01*
X127821450Y-80123000D01*
X127878600Y-80065850D01*
X127878600Y-79854529D01*
X127843798Y-79770509D01*
X127779492Y-79706203D01*
X127695472Y-79671400D01*
X127184150Y-79671400D01*
X127127000Y-79728550D01*
X126873000Y-79728550D01*
X126815850Y-79671400D01*
X126304528Y-79671400D01*
X126220508Y-79706203D01*
X126156202Y-79770509D01*
X126121400Y-79854529D01*
X125478600Y-79854529D01*
X125443798Y-79770509D01*
X125379492Y-79706203D01*
X125295472Y-79671400D01*
X124784150Y-79671400D01*
X124727000Y-79728550D01*
X124473000Y-79728550D01*
X124415850Y-79671400D01*
X123904528Y-79671400D01*
X123820508Y-79706203D01*
X123756202Y-79770509D01*
X123721400Y-79854529D01*
X120322339Y-79854529D01*
X120322408Y-79776760D01*
X120227868Y-79547956D01*
X120052965Y-79372747D01*
X119824326Y-79277808D01*
X119576760Y-79277592D01*
X119347956Y-79372132D01*
X119172747Y-79547035D01*
X119077808Y-79775674D01*
X119077592Y-80023240D01*
X119108359Y-80097701D01*
X118922290Y-79911632D01*
X118922408Y-79776760D01*
X118827868Y-79547956D01*
X118652965Y-79372747D01*
X118424326Y-79277808D01*
X118176760Y-79277592D01*
X117947956Y-79372132D01*
X117772747Y-79547035D01*
X117677808Y-79775674D01*
X117677592Y-80023240D01*
X117398800Y-80023240D01*
X117398800Y-78620000D01*
X129308474Y-78620000D01*
X129394444Y-79052203D01*
X129639268Y-79418606D01*
X130005671Y-79663430D01*
X130437874Y-79749400D01*
X130482126Y-79749400D01*
X130914329Y-79663430D01*
X131280732Y-79418606D01*
X131525556Y-79052203D01*
X131611526Y-78620000D01*
X131848474Y-78620000D01*
X131934444Y-79052203D01*
X132179268Y-79418606D01*
X132545671Y-79663430D01*
X132977874Y-79749400D01*
X133022126Y-79749400D01*
X133454329Y-79663430D01*
X133820732Y-79418606D01*
X134065556Y-79052203D01*
X134151526Y-78620000D01*
X134065556Y-78187797D01*
X133820732Y-77821394D01*
X133454329Y-77576570D01*
X133022126Y-77490600D01*
X132977874Y-77490600D01*
X132545671Y-77576570D01*
X132179268Y-77821394D01*
X131934444Y-78187797D01*
X131848474Y-78620000D01*
X131611526Y-78620000D01*
X131525556Y-78187797D01*
X131280732Y-77821394D01*
X130914329Y-77576570D01*
X130482126Y-77490600D01*
X130437874Y-77490600D01*
X130005671Y-77576570D01*
X129639268Y-77821394D01*
X129394444Y-78187797D01*
X129308474Y-78620000D01*
X117398800Y-78620000D01*
X117398800Y-70987000D01*
X117365931Y-70821757D01*
X117272329Y-70681671D01*
X112515935Y-65925277D01*
X112581219Y-65768056D01*
X112581220Y-65766238D01*
X113038420Y-65766238D01*
X113196629Y-66149135D01*
X113489324Y-66442341D01*
X113871944Y-66601219D01*
X114286238Y-66601580D01*
X114445229Y-66535887D01*
X124294669Y-76385326D01*
X124294671Y-76385329D01*
X124434757Y-76478931D01*
X124462173Y-76484385D01*
X124600000Y-76511801D01*
X124600005Y-76511800D01*
X129394364Y-76511800D01*
X129394444Y-76512203D01*
X129639268Y-76878606D01*
X130005671Y-77123430D01*
X130437874Y-77209400D01*
X130482126Y-77209400D01*
X130914329Y-77123430D01*
X131280732Y-76878606D01*
X131525556Y-76512203D01*
X131611526Y-76080000D01*
X131848474Y-76080000D01*
X131934444Y-76512203D01*
X132179268Y-76878606D01*
X132545671Y-77123430D01*
X132977874Y-77209400D01*
X133022126Y-77209400D01*
X133454329Y-77123430D01*
X133820732Y-76878606D01*
X133975595Y-76646838D01*
X136460220Y-76646838D01*
X136618429Y-77029735D01*
X136911124Y-77322941D01*
X137202670Y-77444002D01*
X136912665Y-77563829D01*
X136619459Y-77856524D01*
X136460581Y-78239144D01*
X136460220Y-78653438D01*
X136618429Y-79036335D01*
X136911124Y-79329541D01*
X137202670Y-79450602D01*
X136912665Y-79570429D01*
X136619459Y-79863124D01*
X136460581Y-80245744D01*
X136460220Y-80660038D01*
X136618429Y-81042935D01*
X136911124Y-81336141D01*
X137202670Y-81457202D01*
X136912665Y-81577029D01*
X136619459Y-81869724D01*
X136460581Y-82252344D01*
X136460220Y-82666638D01*
X136618429Y-83049535D01*
X136911124Y-83342741D01*
X137202670Y-83463802D01*
X136912665Y-83583629D01*
X136619459Y-83876324D01*
X136460581Y-84258944D01*
X136460220Y-84673238D01*
X136618429Y-85056135D01*
X136911124Y-85349341D01*
X137202670Y-85470402D01*
X136912665Y-85590229D01*
X136619459Y-85882924D01*
X136460581Y-86265544D01*
X136460220Y-86679838D01*
X136618429Y-87062735D01*
X136911124Y-87355941D01*
X137202670Y-87477002D01*
X136912665Y-87596829D01*
X136619459Y-87889524D01*
X136460581Y-88272144D01*
X136460220Y-88686438D01*
X136618429Y-89069335D01*
X136911124Y-89362541D01*
X137202670Y-89483602D01*
X136912665Y-89603429D01*
X136619459Y-89896124D01*
X136460581Y-90278744D01*
X136460220Y-90693038D01*
X136618429Y-91075935D01*
X136911124Y-91369141D01*
X137202670Y-91490202D01*
X136912665Y-91610029D01*
X136619459Y-91902724D01*
X136460581Y-92285344D01*
X136460220Y-92699638D01*
X136618429Y-93082535D01*
X136911124Y-93375741D01*
X137272126Y-93525642D01*
X137219618Y-93530212D01*
X137015589Y-93614724D01*
X136923842Y-93742437D01*
X137501800Y-94320395D01*
X138079758Y-93742437D01*
X138053754Y-93706238D01*
X153678420Y-93706238D01*
X153836629Y-94089135D01*
X154129324Y-94382341D01*
X154511944Y-94541219D01*
X154926238Y-94541580D01*
X155309135Y-94383371D01*
X155602341Y-94090676D01*
X155761219Y-93708056D01*
X155761220Y-93706238D01*
X156218420Y-93706238D01*
X156376629Y-94089135D01*
X156669324Y-94382341D01*
X157051944Y-94541219D01*
X157466238Y-94541580D01*
X157849135Y-94383371D01*
X158142341Y-94090676D01*
X158301219Y-93708056D01*
X158301580Y-93293762D01*
X158143371Y-92910865D01*
X157850676Y-92617659D01*
X157468056Y-92458781D01*
X157053762Y-92458420D01*
X156670865Y-92616629D01*
X156377659Y-92909324D01*
X156218781Y-93291944D01*
X156218420Y-93706238D01*
X155761220Y-93706238D01*
X155761580Y-93293762D01*
X155603371Y-92910865D01*
X155310676Y-92617659D01*
X154928056Y-92458781D01*
X154513762Y-92458420D01*
X154130865Y-92616629D01*
X153837659Y-92909324D01*
X153678781Y-93291944D01*
X153678420Y-93706238D01*
X138053754Y-93706238D01*
X137988011Y-93614724D01*
X137719936Y-93530064D01*
X138090935Y-93376771D01*
X138384141Y-93084076D01*
X138543019Y-92701456D01*
X138543380Y-92287162D01*
X138385171Y-91904265D01*
X138092476Y-91611059D01*
X137800930Y-91489998D01*
X138090935Y-91370171D01*
X138384141Y-91077476D01*
X138543019Y-90694856D01*
X138543380Y-90280562D01*
X138385171Y-89897665D01*
X138092476Y-89604459D01*
X137800930Y-89483398D01*
X138090935Y-89363571D01*
X138384141Y-89070876D01*
X138543019Y-88688256D01*
X138543380Y-88273962D01*
X138385171Y-87891065D01*
X138092476Y-87597859D01*
X137800930Y-87476798D01*
X138090935Y-87356971D01*
X138384141Y-87064276D01*
X138543019Y-86681656D01*
X138543380Y-86267362D01*
X138385171Y-85884465D01*
X138092476Y-85591259D01*
X137800930Y-85470198D01*
X138090935Y-85350371D01*
X138384141Y-85057676D01*
X138543019Y-84675056D01*
X138543380Y-84260762D01*
X138385171Y-83877865D01*
X138092476Y-83584659D01*
X137800930Y-83463598D01*
X138090935Y-83343771D01*
X138384141Y-83051076D01*
X138543019Y-82668456D01*
X138543380Y-82254162D01*
X138385171Y-81871265D01*
X138092476Y-81578059D01*
X137800930Y-81456998D01*
X138090935Y-81337171D01*
X138384141Y-81044476D01*
X138543019Y-80661856D01*
X138543380Y-80247562D01*
X138385171Y-79864665D01*
X138092476Y-79571459D01*
X137800930Y-79450398D01*
X138090935Y-79330571D01*
X138384141Y-79037876D01*
X138543019Y-78655256D01*
X138543380Y-78240962D01*
X138385171Y-77858065D01*
X138092476Y-77564859D01*
X137800930Y-77443798D01*
X138090935Y-77323971D01*
X138384141Y-77031276D01*
X138543019Y-76648656D01*
X138543020Y-76646838D01*
X158456620Y-76646838D01*
X158614829Y-77029735D01*
X158907524Y-77322941D01*
X159199070Y-77444002D01*
X158909065Y-77563829D01*
X158615859Y-77856524D01*
X158456981Y-78239144D01*
X158456620Y-78653438D01*
X158614829Y-79036335D01*
X158907524Y-79329541D01*
X159199070Y-79450602D01*
X158909065Y-79570429D01*
X158615859Y-79863124D01*
X158456981Y-80245744D01*
X158456620Y-80660038D01*
X158614829Y-81042935D01*
X158907524Y-81336141D01*
X159199070Y-81457202D01*
X158909065Y-81577029D01*
X158615859Y-81869724D01*
X158456981Y-82252344D01*
X158456620Y-82666638D01*
X158614829Y-83049535D01*
X158907524Y-83342741D01*
X159199070Y-83463802D01*
X158909065Y-83583629D01*
X158615859Y-83876324D01*
X158456981Y-84258944D01*
X158456620Y-84673238D01*
X158614829Y-85056135D01*
X158907524Y-85349341D01*
X159199070Y-85470402D01*
X158909065Y-85590229D01*
X158615859Y-85882924D01*
X158456981Y-86265544D01*
X158456620Y-86679838D01*
X158614829Y-87062735D01*
X158907524Y-87355941D01*
X159199070Y-87477002D01*
X158909065Y-87596829D01*
X158615859Y-87889524D01*
X158456981Y-88272144D01*
X158456620Y-88686438D01*
X158614829Y-89069335D01*
X158907524Y-89362541D01*
X159199070Y-89483602D01*
X158909065Y-89603429D01*
X158615859Y-89896124D01*
X158456981Y-90278744D01*
X158456620Y-90693038D01*
X158614829Y-91075935D01*
X158907524Y-91369141D01*
X159199070Y-91490202D01*
X158909065Y-91610029D01*
X158615859Y-91902724D01*
X158456981Y-92285344D01*
X158456620Y-92699638D01*
X158614829Y-93082535D01*
X158907524Y-93375741D01*
X159199070Y-93496802D01*
X158909065Y-93616629D01*
X158615859Y-93909324D01*
X158456981Y-94291944D01*
X158456620Y-94706238D01*
X158614829Y-95089135D01*
X158907524Y-95382341D01*
X159290144Y-95541219D01*
X159704438Y-95541580D01*
X160087335Y-95383371D01*
X160380541Y-95090676D01*
X160539419Y-94708056D01*
X160539780Y-94293762D01*
X160381571Y-93910865D01*
X160088876Y-93617659D01*
X159797330Y-93496598D01*
X160087335Y-93376771D01*
X160380541Y-93084076D01*
X160539419Y-92701456D01*
X160539780Y-92287162D01*
X160381571Y-91904265D01*
X160088876Y-91611059D01*
X159797330Y-91489998D01*
X160087335Y-91370171D01*
X160380541Y-91077476D01*
X160539419Y-90694856D01*
X160539780Y-90280562D01*
X160381571Y-89897665D01*
X160088876Y-89604459D01*
X159797330Y-89483398D01*
X160087335Y-89363571D01*
X160380541Y-89070876D01*
X160539419Y-88688256D01*
X160539780Y-88273962D01*
X160381571Y-87891065D01*
X160088876Y-87597859D01*
X159797330Y-87476798D01*
X160087335Y-87356971D01*
X160380541Y-87064276D01*
X160539419Y-86681656D01*
X160539780Y-86267362D01*
X160381571Y-85884465D01*
X160088876Y-85591259D01*
X159797330Y-85470198D01*
X160087335Y-85350371D01*
X160380541Y-85057676D01*
X160539419Y-84675056D01*
X160539780Y-84260762D01*
X160381571Y-83877865D01*
X160088876Y-83584659D01*
X159797330Y-83463598D01*
X160087335Y-83343771D01*
X160380541Y-83051076D01*
X160539419Y-82668456D01*
X160539780Y-82254162D01*
X160381571Y-81871265D01*
X160088876Y-81578059D01*
X159797330Y-81456998D01*
X160087335Y-81337171D01*
X160380541Y-81044476D01*
X160539419Y-80661856D01*
X160539780Y-80247562D01*
X160381571Y-79864665D01*
X160088876Y-79571459D01*
X159797330Y-79450398D01*
X160087335Y-79330571D01*
X160380541Y-79037876D01*
X160539419Y-78655256D01*
X160539780Y-78240962D01*
X160381571Y-77858065D01*
X160088876Y-77564859D01*
X159797330Y-77443798D01*
X160087335Y-77323971D01*
X160380541Y-77031276D01*
X160539419Y-76648656D01*
X160539780Y-76234362D01*
X160381571Y-75851465D01*
X160088876Y-75558259D01*
X159706256Y-75399381D01*
X159291962Y-75399020D01*
X158909065Y-75557229D01*
X158615859Y-75849924D01*
X158456981Y-76232544D01*
X158456620Y-76646838D01*
X138543020Y-76646838D01*
X138543380Y-76234362D01*
X138385171Y-75851465D01*
X138092476Y-75558259D01*
X137709856Y-75399381D01*
X137295562Y-75399020D01*
X136912665Y-75557229D01*
X136619459Y-75849924D01*
X136460581Y-76232544D01*
X136460220Y-76646838D01*
X133975595Y-76646838D01*
X134065556Y-76512203D01*
X134151526Y-76080000D01*
X134065556Y-75647797D01*
X133820732Y-75281394D01*
X133454329Y-75036570D01*
X133022126Y-74950600D01*
X132977874Y-74950600D01*
X132545671Y-75036570D01*
X132179268Y-75281394D01*
X131934444Y-75647797D01*
X131848474Y-76080000D01*
X131611526Y-76080000D01*
X131525556Y-75647797D01*
X131280732Y-75281394D01*
X130914329Y-75036570D01*
X130482126Y-74950600D01*
X130437874Y-74950600D01*
X130005671Y-75036570D01*
X129639268Y-75281394D01*
X129394444Y-75647797D01*
X129394364Y-75648200D01*
X124778857Y-75648200D01*
X122670658Y-73540000D01*
X129308474Y-73540000D01*
X129394444Y-73972203D01*
X129639268Y-74338606D01*
X130005671Y-74583430D01*
X130437874Y-74669400D01*
X130482126Y-74669400D01*
X130914329Y-74583430D01*
X131280732Y-74338606D01*
X131525556Y-73972203D01*
X131611526Y-73540000D01*
X131848474Y-73540000D01*
X131934444Y-73972203D01*
X132179268Y-74338606D01*
X132545671Y-74583430D01*
X132977874Y-74669400D01*
X133022126Y-74669400D01*
X133454329Y-74583430D01*
X133820732Y-74338606D01*
X134065556Y-73972203D01*
X134109530Y-73751128D01*
X136988462Y-70872196D01*
X155370274Y-70872196D01*
X155655793Y-71563204D01*
X156184015Y-72092349D01*
X156874524Y-72379073D01*
X157622196Y-72379726D01*
X158313204Y-72094207D01*
X158842349Y-71565985D01*
X159129073Y-70875476D01*
X159129726Y-70127804D01*
X158844207Y-69436796D01*
X158315985Y-68907651D01*
X157625476Y-68620927D01*
X156877804Y-68620274D01*
X156186796Y-68905793D01*
X155657651Y-69434015D01*
X155370927Y-70124524D01*
X155370274Y-70872196D01*
X136988462Y-70872196D01*
X139705329Y-68155329D01*
X139798931Y-68015243D01*
X139831800Y-67850000D01*
X139831800Y-66541435D01*
X140069135Y-66443371D01*
X140362341Y-66150676D01*
X140521219Y-65768056D01*
X140521220Y-65766238D01*
X140978420Y-65766238D01*
X141136629Y-66149135D01*
X141429324Y-66442341D01*
X141811944Y-66601219D01*
X142226238Y-66601580D01*
X142609135Y-66443371D01*
X142735162Y-66317563D01*
X143982042Y-66317563D01*
X144073789Y-66445276D01*
X144449580Y-66563954D01*
X144842182Y-66529788D01*
X145046211Y-66445276D01*
X145137958Y-66317563D01*
X146522042Y-66317563D01*
X146613789Y-66445276D01*
X146989580Y-66563954D01*
X147382182Y-66529788D01*
X147586211Y-66445276D01*
X147677958Y-66317563D01*
X147100000Y-65739605D01*
X146522042Y-66317563D01*
X145137958Y-66317563D01*
X144560000Y-65739605D01*
X143982042Y-66317563D01*
X142735162Y-66317563D01*
X142902341Y-66150676D01*
X143061219Y-65768056D01*
X143061496Y-65449580D01*
X143556046Y-65449580D01*
X143590212Y-65842182D01*
X143674724Y-66046211D01*
X143802437Y-66137958D01*
X144380395Y-65560000D01*
X144739605Y-65560000D01*
X145317563Y-66137958D01*
X145445276Y-66046211D01*
X145563954Y-65670420D01*
X145544736Y-65449580D01*
X146096046Y-65449580D01*
X146130212Y-65842182D01*
X146214724Y-66046211D01*
X146342437Y-66137958D01*
X146920395Y-65560000D01*
X147279605Y-65560000D01*
X147857563Y-66137958D01*
X147985276Y-66046211D01*
X148073693Y-65766238D01*
X148598420Y-65766238D01*
X148756629Y-66149135D01*
X149049324Y-66442341D01*
X149431944Y-66601219D01*
X149846238Y-66601580D01*
X150229135Y-66443371D01*
X150522341Y-66150676D01*
X150681219Y-65768056D01*
X150681220Y-65766238D01*
X151138420Y-65766238D01*
X151296629Y-66149135D01*
X151589324Y-66442341D01*
X151971944Y-66601219D01*
X152386238Y-66601580D01*
X152769135Y-66443371D01*
X153062341Y-66150676D01*
X153221219Y-65768056D01*
X153221220Y-65766238D01*
X153678420Y-65766238D01*
X153836629Y-66149135D01*
X154129324Y-66442341D01*
X154511944Y-66601219D01*
X154926238Y-66601580D01*
X155309135Y-66443371D01*
X155602341Y-66150676D01*
X155761219Y-65768056D01*
X155761220Y-65766238D01*
X156218420Y-65766238D01*
X156376629Y-66149135D01*
X156669324Y-66442341D01*
X157051944Y-66601219D01*
X157466238Y-66601580D01*
X157849135Y-66443371D01*
X158142341Y-66150676D01*
X158301219Y-65768056D01*
X158301580Y-65353762D01*
X158143371Y-64970865D01*
X157850676Y-64677659D01*
X157468056Y-64518781D01*
X157053762Y-64518420D01*
X156670865Y-64676629D01*
X156377659Y-64969324D01*
X156218781Y-65351944D01*
X156218420Y-65766238D01*
X155761220Y-65766238D01*
X155761580Y-65353762D01*
X155603371Y-64970865D01*
X155310676Y-64677659D01*
X154928056Y-64518781D01*
X154513762Y-64518420D01*
X154130865Y-64676629D01*
X153837659Y-64969324D01*
X153678781Y-65351944D01*
X153678420Y-65766238D01*
X153221220Y-65766238D01*
X153221580Y-65353762D01*
X153063371Y-64970865D01*
X152770676Y-64677659D01*
X152388056Y-64518781D01*
X151973762Y-64518420D01*
X151590865Y-64676629D01*
X151297659Y-64969324D01*
X151138781Y-65351944D01*
X151138420Y-65766238D01*
X150681220Y-65766238D01*
X150681580Y-65353762D01*
X150523371Y-64970865D01*
X150230676Y-64677659D01*
X149848056Y-64518781D01*
X149433762Y-64518420D01*
X149050865Y-64676629D01*
X148757659Y-64969324D01*
X148598781Y-65351944D01*
X148598420Y-65766238D01*
X148073693Y-65766238D01*
X148103954Y-65670420D01*
X148069788Y-65277818D01*
X147985276Y-65073789D01*
X147857563Y-64982042D01*
X147279605Y-65560000D01*
X146920395Y-65560000D01*
X146342437Y-64982042D01*
X146214724Y-65073789D01*
X146096046Y-65449580D01*
X145544736Y-65449580D01*
X145529788Y-65277818D01*
X145445276Y-65073789D01*
X145317563Y-64982042D01*
X144739605Y-65560000D01*
X144380395Y-65560000D01*
X143802437Y-64982042D01*
X143674724Y-65073789D01*
X143556046Y-65449580D01*
X143061496Y-65449580D01*
X143061580Y-65353762D01*
X142903371Y-64970865D01*
X142735237Y-64802437D01*
X143982042Y-64802437D01*
X144560000Y-65380395D01*
X145137958Y-64802437D01*
X146522042Y-64802437D01*
X147100000Y-65380395D01*
X147677958Y-64802437D01*
X147586211Y-64674724D01*
X147210420Y-64556046D01*
X146817818Y-64590212D01*
X146613789Y-64674724D01*
X146522042Y-64802437D01*
X145137958Y-64802437D01*
X145046211Y-64674724D01*
X144670420Y-64556046D01*
X144277818Y-64590212D01*
X144073789Y-64674724D01*
X143982042Y-64802437D01*
X142735237Y-64802437D01*
X142610676Y-64677659D01*
X142228056Y-64518781D01*
X141813762Y-64518420D01*
X141430865Y-64676629D01*
X141137659Y-64969324D01*
X140978781Y-65351944D01*
X140978420Y-65766238D01*
X140521220Y-65766238D01*
X140521580Y-65353762D01*
X140363371Y-64970865D01*
X140070676Y-64677659D01*
X139688056Y-64518781D01*
X139273762Y-64518420D01*
X138890865Y-64676629D01*
X138597659Y-64969324D01*
X138438781Y-65351944D01*
X138438420Y-65766238D01*
X138596629Y-66149135D01*
X138889324Y-66442341D01*
X138968200Y-66475093D01*
X138968200Y-67671142D01*
X133851660Y-72787682D01*
X133820732Y-72741394D01*
X133454329Y-72496570D01*
X133022126Y-72410600D01*
X132977874Y-72410600D01*
X132545671Y-72496570D01*
X132179268Y-72741394D01*
X131934444Y-73107797D01*
X131848474Y-73540000D01*
X131611526Y-73540000D01*
X131525556Y-73107797D01*
X131280732Y-72741394D01*
X130914329Y-72496570D01*
X130482126Y-72410600D01*
X130437874Y-72410600D01*
X130005671Y-72496570D01*
X129639268Y-72741394D01*
X129394444Y-73107797D01*
X129308474Y-73540000D01*
X122670658Y-73540000D01*
X119280658Y-70150000D01*
X131865127Y-70150000D01*
X131865127Y-71850000D01*
X131884609Y-71953539D01*
X131945801Y-72048634D01*
X132039168Y-72112429D01*
X132150000Y-72134873D01*
X133850000Y-72134873D01*
X133953539Y-72115391D01*
X134048634Y-72054199D01*
X134112429Y-71960832D01*
X134134873Y-71850000D01*
X134134873Y-70150000D01*
X134115391Y-70046461D01*
X134054199Y-69951366D01*
X133960832Y-69887571D01*
X133850000Y-69865127D01*
X132150000Y-69865127D01*
X132046461Y-69884609D01*
X131951366Y-69945801D01*
X131887571Y-70039168D01*
X131865127Y-70150000D01*
X119280658Y-70150000D01*
X115055935Y-65925277D01*
X115121219Y-65768056D01*
X115121220Y-65766238D01*
X115578420Y-65766238D01*
X115736629Y-66149135D01*
X116029324Y-66442341D01*
X116411944Y-66601219D01*
X116826238Y-66601580D01*
X117209135Y-66443371D01*
X117335162Y-66317563D01*
X118582042Y-66317563D01*
X118673789Y-66445276D01*
X119049580Y-66563954D01*
X119442182Y-66529788D01*
X119646211Y-66445276D01*
X119737958Y-66317563D01*
X121122042Y-66317563D01*
X121213789Y-66445276D01*
X121589580Y-66563954D01*
X121982182Y-66529788D01*
X122186211Y-66445276D01*
X122277958Y-66317563D01*
X123662042Y-66317563D01*
X123753789Y-66445276D01*
X124129580Y-66563954D01*
X124522182Y-66529788D01*
X124726211Y-66445276D01*
X124817958Y-66317563D01*
X126202042Y-66317563D01*
X126293789Y-66445276D01*
X126669580Y-66563954D01*
X127062182Y-66529788D01*
X127266211Y-66445276D01*
X127357958Y-66317563D01*
X128742042Y-66317563D01*
X128833789Y-66445276D01*
X129209580Y-66563954D01*
X129602182Y-66529788D01*
X129806211Y-66445276D01*
X129897958Y-66317563D01*
X131282042Y-66317563D01*
X131373789Y-66445276D01*
X131749580Y-66563954D01*
X132142182Y-66529788D01*
X132346211Y-66445276D01*
X132437958Y-66317563D01*
X133822042Y-66317563D01*
X133913789Y-66445276D01*
X134289580Y-66563954D01*
X134682182Y-66529788D01*
X134886211Y-66445276D01*
X134977958Y-66317563D01*
X134400000Y-65739605D01*
X133822042Y-66317563D01*
X132437958Y-66317563D01*
X131860000Y-65739605D01*
X131282042Y-66317563D01*
X129897958Y-66317563D01*
X129320000Y-65739605D01*
X128742042Y-66317563D01*
X127357958Y-66317563D01*
X126780000Y-65739605D01*
X126202042Y-66317563D01*
X124817958Y-66317563D01*
X124240000Y-65739605D01*
X123662042Y-66317563D01*
X122277958Y-66317563D01*
X121700000Y-65739605D01*
X121122042Y-66317563D01*
X119737958Y-66317563D01*
X119160000Y-65739605D01*
X118582042Y-66317563D01*
X117335162Y-66317563D01*
X117502341Y-66150676D01*
X117661219Y-65768056D01*
X117661496Y-65449580D01*
X118156046Y-65449580D01*
X118190212Y-65842182D01*
X118274724Y-66046211D01*
X118402437Y-66137958D01*
X118980395Y-65560000D01*
X119339605Y-65560000D01*
X119917563Y-66137958D01*
X120045276Y-66046211D01*
X120163954Y-65670420D01*
X120144736Y-65449580D01*
X120696046Y-65449580D01*
X120730212Y-65842182D01*
X120814724Y-66046211D01*
X120942437Y-66137958D01*
X121520395Y-65560000D01*
X121879605Y-65560000D01*
X122457563Y-66137958D01*
X122585276Y-66046211D01*
X122703954Y-65670420D01*
X122684736Y-65449580D01*
X123236046Y-65449580D01*
X123270212Y-65842182D01*
X123354724Y-66046211D01*
X123482437Y-66137958D01*
X124060395Y-65560000D01*
X124419605Y-65560000D01*
X124997563Y-66137958D01*
X125125276Y-66046211D01*
X125243954Y-65670420D01*
X125224736Y-65449580D01*
X125776046Y-65449580D01*
X125810212Y-65842182D01*
X125894724Y-66046211D01*
X126022437Y-66137958D01*
X126600395Y-65560000D01*
X126959605Y-65560000D01*
X127537563Y-66137958D01*
X127665276Y-66046211D01*
X127783954Y-65670420D01*
X127764736Y-65449580D01*
X128316046Y-65449580D01*
X128350212Y-65842182D01*
X128434724Y-66046211D01*
X128562437Y-66137958D01*
X129140395Y-65560000D01*
X129499605Y-65560000D01*
X130077563Y-66137958D01*
X130205276Y-66046211D01*
X130323954Y-65670420D01*
X130304736Y-65449580D01*
X130856046Y-65449580D01*
X130890212Y-65842182D01*
X130974724Y-66046211D01*
X131102437Y-66137958D01*
X131680395Y-65560000D01*
X132039605Y-65560000D01*
X132617563Y-66137958D01*
X132745276Y-66046211D01*
X132863954Y-65670420D01*
X132844736Y-65449580D01*
X133396046Y-65449580D01*
X133430212Y-65842182D01*
X133514724Y-66046211D01*
X133642437Y-66137958D01*
X134220395Y-65560000D01*
X134579605Y-65560000D01*
X135157563Y-66137958D01*
X135285276Y-66046211D01*
X135373693Y-65766238D01*
X135898420Y-65766238D01*
X136056629Y-66149135D01*
X136349324Y-66442341D01*
X136731944Y-66601219D01*
X137146238Y-66601580D01*
X137529135Y-66443371D01*
X137822341Y-66150676D01*
X137981219Y-65768056D01*
X137981580Y-65353762D01*
X137823371Y-64970865D01*
X137530676Y-64677659D01*
X137148056Y-64518781D01*
X136733762Y-64518420D01*
X136350865Y-64676629D01*
X136057659Y-64969324D01*
X135898781Y-65351944D01*
X135898420Y-65766238D01*
X135373693Y-65766238D01*
X135403954Y-65670420D01*
X135369788Y-65277818D01*
X135285276Y-65073789D01*
X135157563Y-64982042D01*
X134579605Y-65560000D01*
X134220395Y-65560000D01*
X133642437Y-64982042D01*
X133514724Y-65073789D01*
X133396046Y-65449580D01*
X132844736Y-65449580D01*
X132829788Y-65277818D01*
X132745276Y-65073789D01*
X132617563Y-64982042D01*
X132039605Y-65560000D01*
X131680395Y-65560000D01*
X131102437Y-64982042D01*
X130974724Y-65073789D01*
X130856046Y-65449580D01*
X130304736Y-65449580D01*
X130289788Y-65277818D01*
X130205276Y-65073789D01*
X130077563Y-64982042D01*
X129499605Y-65560000D01*
X129140395Y-65560000D01*
X128562437Y-64982042D01*
X128434724Y-65073789D01*
X128316046Y-65449580D01*
X127764736Y-65449580D01*
X127749788Y-65277818D01*
X127665276Y-65073789D01*
X127537563Y-64982042D01*
X126959605Y-65560000D01*
X126600395Y-65560000D01*
X126022437Y-64982042D01*
X125894724Y-65073789D01*
X125776046Y-65449580D01*
X125224736Y-65449580D01*
X125209788Y-65277818D01*
X125125276Y-65073789D01*
X124997563Y-64982042D01*
X124419605Y-65560000D01*
X124060395Y-65560000D01*
X123482437Y-64982042D01*
X123354724Y-65073789D01*
X123236046Y-65449580D01*
X122684736Y-65449580D01*
X122669788Y-65277818D01*
X122585276Y-65073789D01*
X122457563Y-64982042D01*
X121879605Y-65560000D01*
X121520395Y-65560000D01*
X120942437Y-64982042D01*
X120814724Y-65073789D01*
X120696046Y-65449580D01*
X120144736Y-65449580D01*
X120129788Y-65277818D01*
X120045276Y-65073789D01*
X119917563Y-64982042D01*
X119339605Y-65560000D01*
X118980395Y-65560000D01*
X118402437Y-64982042D01*
X118274724Y-65073789D01*
X118156046Y-65449580D01*
X117661496Y-65449580D01*
X117661580Y-65353762D01*
X117503371Y-64970865D01*
X117335237Y-64802437D01*
X118582042Y-64802437D01*
X119160000Y-65380395D01*
X119737958Y-64802437D01*
X121122042Y-64802437D01*
X121700000Y-65380395D01*
X122277958Y-64802437D01*
X123662042Y-64802437D01*
X124240000Y-65380395D01*
X124817958Y-64802437D01*
X126202042Y-64802437D01*
X126780000Y-65380395D01*
X127357958Y-64802437D01*
X128742042Y-64802437D01*
X129320000Y-65380395D01*
X129897958Y-64802437D01*
X131282042Y-64802437D01*
X131860000Y-65380395D01*
X132437958Y-64802437D01*
X133822042Y-64802437D01*
X134400000Y-65380395D01*
X134977958Y-64802437D01*
X134886211Y-64674724D01*
X134510420Y-64556046D01*
X134117818Y-64590212D01*
X133913789Y-64674724D01*
X133822042Y-64802437D01*
X132437958Y-64802437D01*
X132346211Y-64674724D01*
X131970420Y-64556046D01*
X131577818Y-64590212D01*
X131373789Y-64674724D01*
X131282042Y-64802437D01*
X129897958Y-64802437D01*
X129806211Y-64674724D01*
X129430420Y-64556046D01*
X129037818Y-64590212D01*
X128833789Y-64674724D01*
X128742042Y-64802437D01*
X127357958Y-64802437D01*
X127266211Y-64674724D01*
X126890420Y-64556046D01*
X126497818Y-64590212D01*
X126293789Y-64674724D01*
X126202042Y-64802437D01*
X124817958Y-64802437D01*
X124726211Y-64674724D01*
X124350420Y-64556046D01*
X123957818Y-64590212D01*
X123753789Y-64674724D01*
X123662042Y-64802437D01*
X122277958Y-64802437D01*
X122186211Y-64674724D01*
X121810420Y-64556046D01*
X121417818Y-64590212D01*
X121213789Y-64674724D01*
X121122042Y-64802437D01*
X119737958Y-64802437D01*
X119646211Y-64674724D01*
X119270420Y-64556046D01*
X118877818Y-64590212D01*
X118673789Y-64674724D01*
X118582042Y-64802437D01*
X117335237Y-64802437D01*
X117210676Y-64677659D01*
X116828056Y-64518781D01*
X116413762Y-64518420D01*
X116030865Y-64676629D01*
X115737659Y-64969324D01*
X115578781Y-65351944D01*
X115578420Y-65766238D01*
X115121220Y-65766238D01*
X115121580Y-65353762D01*
X114963371Y-64970865D01*
X114670676Y-64677659D01*
X114288056Y-64518781D01*
X113873762Y-64518420D01*
X113490865Y-64676629D01*
X113197659Y-64969324D01*
X113038781Y-65351944D01*
X113038420Y-65766238D01*
X112581220Y-65766238D01*
X112581580Y-65353762D01*
X112423371Y-64970865D01*
X112130676Y-64677659D01*
X111748056Y-64518781D01*
X111333762Y-64518420D01*
X110950865Y-64676629D01*
X110657659Y-64969324D01*
X110498781Y-65351944D01*
X110498420Y-65766238D01*
X109973693Y-65766238D01*
X110003954Y-65670420D01*
X109969788Y-65277818D01*
X109885276Y-65073789D01*
X109757563Y-64982042D01*
X109179605Y-65560000D01*
X108820395Y-65560000D01*
X108242437Y-64982042D01*
X108114724Y-65073789D01*
X107996046Y-65449580D01*
X107803600Y-65449580D01*
X107803600Y-64802437D01*
X108422042Y-64802437D01*
X109000000Y-65380395D01*
X109577958Y-64802437D01*
X109486211Y-64674724D01*
X109110420Y-64556046D01*
X108717818Y-64590212D01*
X108513789Y-64674724D01*
X108422042Y-64802437D01*
X107803600Y-64802437D01*
X107803600Y-64303600D01*
X160696400Y-64303600D01*
X160696400Y-102196400D01*
M02*
